<svg width="246" height="146" xmlns="http://www.w3.org/2000/svg" xmlns:xlink="http://www.w3.org/1999/xlink"><defs><path id="a" d="M.242 0H290v200H.242z"/></defs><g transform="translate(-44 -31)" fill="none" fill-rule="evenodd"><mask id="b" fill="#fff"><use xlink:href="#a"/></mask><g fill="#000" fill-rule="nonzero" opacity=".166" mask="url(#b)"><path d="M299.705 72.887c-1.956 20.44 9.127 23.759 9.127 23.759-7.562 7.964-23.6 7.433-23.6 7.433v5.442l-14.082 41.812 17.211-21.503 7.824.663-5.607-16.724c1.043.53 1.956 1.062 2.999 1.593l17.733 8.893c4.564 2.256 7.823 6.77 8.866 11.946l1.304 7.698c-13.039 10.354-30.772 16.858-50.33 16.858s-37.291-6.504-50.33-17.123l1.304-7.699c.912-5.176 4.172-9.556 8.866-11.946l17.212-8.627 3.52-1.859-5.607 16.858 7.824-.664 17.211 21.636-14.082-41.812v-5.31c-18.515.134-23.992-7.963-23.992-7.963s10.562-.133 9.91-28.538c-.522-28.405 12.257-33.05 17.08-34.91 13.953-5.441 20.994 3.186 20.994 3.186 16.168-1.592 20.601 16.46 18.645 36.9zm-176.82 0c-1.955 20.44 9.128 23.759 9.128 23.759-7.563 7.964-23.6 7.433-23.6 7.433v5.442L94.33 151.333l17.212-21.503 7.823.663-5.607-16.724c1.043.53 1.956 1.062 3 1.593l17.732 8.893c4.564 2.256 7.823 6.77 8.867 11.946l1.303 7.698c-13.038 10.354-30.771 16.858-50.33 16.858-19.558 0-37.291-6.504-50.33-17.123l1.304-7.699c.913-5.176 4.172-9.556 8.866-11.946l17.212-8.627 3.52-1.859-5.606 16.858 7.823-.664 17.211 21.636-14.082-41.812v-5.31c-18.515.134-23.991-7.963-23.991-7.963s10.561-.133 9.91-28.538c-.522-28.405 12.256-33.05 17.08-34.91 13.952-5.441 20.993 3.186 20.993 3.186 16.168-1.592 20.601 16.46 18.645 36.9z"/><path d="M177.77 126.493c-1.996 2.146-4.418 5.27-7.243 9.833l-.1.162s-4.274-19.666-5.266-29.488c-.132.2-.263.395-.413.593-.795 1.042-1.839 2.052-3.222 2.948l-20.843 9.288c-6.52 2.568-9.278 6.42-9.278 6.42-9.655 14.639-10.783 29.267-10.783 29.267.125 7.448 3.26 8.22 3.26 8.22 15.47 7.071 38.735 10.086 51.411 11.264.308-16.065 4.7-38.719 5.251-41.509-1.385-2.233-2.299-5.18-2.773-6.998zm58.807.148s-2.755-3.824-9.268-6.373c0 0-12.851-3.975-19.692-8.457a21.183 21.183 0 0 1-1.502-1.069c-.2-.23-.828-.678-1.03-.92-.68-.492-1.023-.957-1.673-1.822-1.01 9.913-4.917 28.89-4.917 28.89-2.702-4.532-5.111-7.657-7.167-9.824-.938 3.346-1.955 5.575-2.925 7.048 3.2 11.561 4.682 38.155 4.826 40.886 12.764-1.2 35.607-4.206 50.859-11.139 0 0 3.13-.766 3.255-8.161.001.001-1.124-14.523-10.766-29.059z" stroke="#FFF" stroke-width="3"/><path d="M203.524 98.91c2.451-3.312 4.452-7.047 5.8-10.847 2.426-2.465 3.667-8.464 3.667-8.464 1.61-4.59 1.137-6.936.396-8.117.229-.695 4.09-12.863-1.366-22.246 0 0-1.937-8.873-12.203-12.816-9.491-5.912-23.632-2.365-23.632-2.365-17.241 2.959-20.933 23.6-20.933 23.6-1.028 9.423 1.452 15.32 1.555 15.56-.883 2.233.718 8.066.718 8.066.55 3.56 2.263 4.649 2.76 4.894 1.34 4.942 3.773 9.737 6.82 13.763.038.694.027 1.7-.182 2.867 1.54 5.17 5.573 14.601 15.064 18.362a21.6 21.6 0 0 0 2.526.833 21.82 21.82 0 0 0 2.887-1.045c8.963-3.96 13.172-13.018 14.943-18.37a14.652 14.652 0 0 1-.153-1.974 39.63 39.63 0 0 0 1.105-1.397"/></g></g></svg>