<svg width="544" height="463" xmlns="http://www.w3.org/2000/svg"><g opacity=".199"><path d="M560.162 82.88l-32.106 31.384-102.155-99.861 31.778-31.064L444.034-30 412.256 1.064 399.78-11.133c-3.768-3.683-9.877-3.683-13.645 0l-77.2 75.466a9.284 9.284 0 0 0 0 13.34l12.477 12.196-9.65 9.434H272.67c-50.815.005-92.007 40.272-92.013 89.947v.48l-18.132 17.726c-18.348 17.834-29.085 41.813-30.04 67.09l-9.728 9.518-12.477-12.197c-3.768-3.683-9.877-3.683-13.645 0l-77.2 75.466a9.284 9.284 0 0 0 0 13.34l12.477 12.196L.134 403.933l13.645 13.34 31.777-31.065 102.155 99.861-31.777 31.064 13.645 13.34 31.777-31.065 12.478 12.197c3.768 3.683 9.877 3.683 13.645 0l77.2-75.466a9.284 9.284 0 0 0 0-13.339L252.2 410.603l9.65-9.434h44.255c15.989 0 28.95-12.67 28.95-28.3a27.422 27.422 0 0 0-1.775-9.433h11.425c15.989 0 28.95-12.67 28.95-28.3a27.422 27.422 0 0 0-1.775-9.433h11.425c15.989 0 28.95-12.67 28.95-28.3a27.422 27.422 0 0 0-1.775-9.434h11.425c11.987.043 22.751-7.166 27.04-18.108 4.288-10.942 1.207-23.336-7.74-31.134v-12.886l9.65-9.433 12.478 12.197c3.768 3.683 9.877 3.683 13.645 0l77.2-75.466a9.284 9.284 0 0 0 0-13.339L541.7 127.603l32.106-31.385-13.645-13.339zM180.656 491.596L39.901 354.003l63.555-62.128 140.755 137.594-63.555 62.128zm241.25-222.494h-77.2v18.866h38.6c5.33 0 9.65 4.224 9.65 9.434 0 5.21-4.32 9.433-9.65 9.433h-77.2v18.867h38.6c5.33 0 9.65 4.223 9.65 9.433s-4.32 9.433-9.65 9.433h-67.55v18.867h28.95c5.33 0 9.65 4.223 9.65 9.433s-4.32 9.434-9.65 9.434h-48.25a9.756 9.756 0 0 0-6.822 2.764l-12.478 12.197-102.155-99.861 12.478-12.198a9.327 9.327 0 0 0 2.827-6.669c-.06-21.668 8.748-42.46 24.463-57.741l4.487-4.387v90.428c0 5.21 4.32 9.433 9.65 9.433 32.826-.047 61.577-21.52 70.252-52.468l3.793-13.565h157.555c5.33 0 9.65 4.223 9.65 9.433s-4.32 9.434-9.65 9.434zm2.828-53.836a9.327 9.327 0 0 0-2.828 6.669v9.433H269.61l5.269-18.866h2.277c26.635-.031 48.218-21.13 48.25-47.167h-19.3c0 15.63-12.961 28.3-28.95 28.3h-9.65c-4.352 0-8.167 2.847-9.312 6.952l-16.25 58.26c-5.44 19.406-21.75 34.063-41.988 37.734V189.25c0-18.852 7.661-36.932 21.297-50.262 13.637-13.33 32.132-20.819 51.416-20.819h43.087c2.56 0 5.014-.994 6.823-2.764l12.477-12.197 102.155 99.861-12.477 12.198zm45.422-6.67L329.401 71.003l63.555-62.128 140.755 137.594-63.555 62.128z"/><path d="M176.817 439.056l13.648-13.647 13.34 13.342-13.647 13.646zM369.81 61.72l13.647-13.646 13.341 13.34-13.647 13.648z"/></g></svg>