<svg viewBox="0 0 190 42" xmlns="http://www.w3.org/2000/svg" xmlns:xlink="http://www.w3.org/1999/xlink"><defs><path id="a" d="M0 43h189.702V.306H0z"/></defs><g fill="none" fill-rule="evenodd"><path fill="#FEFEFE" d="M34 42h.744V0H34zm11.291-5.365l.475-.555c.343.28.703.457 1.145.457.355 0 .573-.147.573-.377v-.008c0-.22-.136-.333-.782-.49-.775-.188-1.26-.403-1.26-1.131v-.01c0-.663.552-1.107 1.323-1.107a2.21 2.21 0 0 1 1.4.47l-.42.59c-.333-.234-.668-.372-.995-.372-.334 0-.511.158-.511.348v.01c0 .254.167.34.833.51.777.193 1.209.467 1.209 1.104v.01c0 .73-.574 1.14-1.385 1.14a2.423 2.423 0 0 1-1.605-.59z"/><mask id="b" fill="#fff"><use xlink:href="#a"/></mask><path fill="#FEFEFE" mask="url(#b)" d="M49.307 37.175h.8v-3.71h-.8zm2.015-3.709h.734l1.832 2.338v-2.338h.788v3.71h-.681l-1.886-2.415v2.414h-.787zm4.362 1.864v-.01c0-1.055.813-1.915 1.974-1.915.713 0 1.14.228 1.493.57l-.51.576c-.297-.265-.597-.429-.988-.429-.657 0-1.132.535-1.132 1.188v.01c0 .651.463 1.197 1.132 1.197.442 0 .713-.174 1.013-.443l.513.504c-.391.402-.825.657-1.552.657-1.116 0-1.943-.84-1.943-1.905m4.42-1.864h2.85v.698h-2.058v.795h1.811v.698h-1.811v.82h2.082v.698h-2.874zm6.151.769l-.665.163-.167-.643 1.077-.314h.547v3.732h-.792zm3.898.438v-.01c0-.34-.261-.59-.688-.59-.427 0-.667.25-.667.59v.01c0 .342.261.576.683.576.429 0 .672-.25.672-.576m-.005.943h-.005c-.189.178-.453.286-.793.286-.815 0-1.349-.448-1.349-1.193v-.01c0-.744.588-1.294 1.438-1.294.505 0 .803.122 1.09.398.271.265.447.672.447 1.4v.01c0 1.203-.583 2.024-1.646 2.024-.552 0-.921-.18-1.24-.439l.422-.597c.276.22.516.328.833.328.604 0 .782-.573.803-.913m3.392-1.474h-1.81v-.678h2.716v.592l-1.697 3.117h-.907zm3.026 1.591v-1.217l-1.058 1.217h1.058zm0 .637h-1.864l-.137-.556 2.09-2.373h.676v2.292h.516v.637h-.516v.805h-.765v-.805zM14.718 16.41c-2.214 0-3.957-.928-3.918-2.06.043-1.127 1.853-2.057 4.067-2.057 2.214 0 3.957.93 3.92 2.058-.044 1.13-1.849 2.059-4.07 2.059m2.51 3.91c-1.097-.674-2.733-.733-4.94 1.974-1.055 1.29-2.071 3.094-3.292 4.575C7.772 28.347 6.348 29.5 4.48 29.5 2.1 29.5.962 27.681.436 25.409c-.266-1.138-.38-2.385-.417-3.57a49.008 49.008 0 0 1 .018-3.193 6.35 6.35 0 0 1 .32-1.733c.963-2.565 3.749-3.992 6.22-3.192 1.912.619 3.15 2.383 3.072 4.337-.036.99-.105 2.027-.15 2.887-.039.86-.055 1.546.017 1.828.104.408.514.403.749.18.115-.11.42-.46.787-.87.358-.417.783-.898 1.133-1.278.695-.76 2.303-2.298 5.208-2.298 3.202 0 5.708 2.461 5.6 5.496-.107 3.04-2.076 5.497-5.987 5.497-3.269 0-5.05-2.065-4.159-4.688.81-2.385 4.09-3.075 5.466-2.63.022-.018.008-1.194-1.086-1.864m27.963 1.371v-.04c0-4.047 3.12-7.352 7.58-7.352 2.742 0 4.382.88 5.742 2.19l-1.96 2.21c-1.139-1.016-2.299-1.643-3.8-1.643-2.523 0-4.34 2.053-4.34 4.557v.038c0 2.502 1.78 4.594 4.34 4.594 1.7 0 2.738-.665 3.901-1.7l1.961 1.935C57.113 28.023 55.451 29 52.652 29c-4.28 0-7.462-3.226-7.462-7.311m61.442-7.157h3.06v6.412l6.083-6.412h3.78l-5.98 6.062 6.24 8.171h-3.7l-4.62-6.12-1.803 1.819v4.301h-3.06zm15.462 14.233h3.081V14.532h-3.081zm32.624-7.076v-.04c0-2.502-1.882-4.595-4.52-4.595-2.64 0-4.482 2.053-4.482 4.557v.038c0 2.502 1.88 4.594 4.52 4.594 2.641 0 4.482-2.052 4.482-4.554m-12.223 0v-.04c0-4.027 3.26-7.352 7.741-7.352 4.482 0 7.703 3.265 7.703 7.314v.038c0 4.027-3.26 7.351-7.74 7.351-4.483 0-7.704-3.265-7.704-7.311m16.322-7.157h3.398l3.924 10.204 3.92-10.204h3.321l-5.92 14.33h-2.724zm27.663 7.157v-.04c0-2.502-1.88-4.595-4.521-4.595-2.64 0-4.48 2.053-4.48 4.557v.038c0 2.502 1.88 4.594 4.52 4.594 2.64 0 4.482-2.052 4.482-4.554m-12.224 0v-.04c0-4.027 3.26-7.352 7.741-7.352 4.483 0 7.703 3.265 7.703 7.314v.038c0 4.027-3.26 7.351-7.742 7.351-4.48 0-7.702-3.265-7.702-7.311M70.552 14.532v5.727h-6.121v-5.727h-3.062v14.233h3.062v-8.464a2.786 2.786 0 0 0 2.779 2.735h3.342v5.73h3.08V14.531h-3.08zm70.104 0h-11.822a2.637 2.637 0 0 0 2.623 2.64h5.24l-8.123 9.324v2.27h12.082v-2.64h-8.12l8.12-9.326v-2.268zm-42.802 6.94h-3.36V17.25h3.3c1.62 0 2.62.723 2.62 2.09v.04c0 1.252-.96 2.092-2.56 2.092zm2.48 2.15c1.88-.645 3.182-2.09 3.182-4.397v-.04c0-1.31-.42-2.425-1.22-3.207-.962-.938-2.4-1.445-4.242-1.445h-6.622v14.233h3.061v-4.634h2.661l3.221 4.634h3.602l-3.643-5.144zm-19.96 2.464v-5.781a2.674 2.674 0 0 0 2.66 2.634h4.386v-2.677h-7.046V17.21h8.002v-2.677H77.33v14.233h11.046v-2.68h-8.002z"/></g></svg>