<svg width="20" height="45" xmlns="http://www.w3.org/2000/svg"><g fill="#FFF"><path d="M7.778 30h4.444C16.5 30 20 26.5 20 22.222V7.778C20 3.5 16.5 0 12.222 0H7.778C3.5 0 0 3.5 0 7.778v14.444C0 26.5 3.5 30 7.778 30zM2.222 7.778c0-3.056 2.5-5.556 5.556-5.556h4.444c3.056 0 5.556 2.5 5.556 5.556v14.444c0 3.056-2.5 5.556-5.556 5.556H7.778c-3.056 0-5.556-2.5-5.556-5.556V7.778z"/><path d="M10 11c.55 0 1-.45 1-1V7c0-.55-.45-1-1-1s-1 .45-1 1v3c0 .55.45 1 1 1zm-.028 22c-.624 0-1.135.49-1.135 1.09v7.2l-.908-.872a1.128 1.128 0 0 0-1.589 0c-.453.437-.453 1.091 0 1.527l2.837 2.728c.057.054.114.109.17.109 0 0 .057.054.114.054s.057.055.113.055c.057 0 .057 0 .114.054.057 0 .057 0 .113.055h.454c.057 0 .057 0 .114-.055.057 0 .057 0 .113-.054.057 0 .057-.055.114-.055 0 0 .056 0 .056-.054.057-.055.114-.11.17-.11l2.838-2.727c.453-.436.453-1.09 0-1.527a1.128 1.128 0 0 0-1.59 0l-.964.873v-7.2c0-.6-.51-1.091-1.134-1.091z"/></g></svg>