<svg width="269" height="256" xmlns="http://www.w3.org/2000/svg" xmlns:xlink="http://www.w3.org/1999/xlink"><defs><path d="M10 0h179c5.523 0 10 4.477 10 10v176H0V10C0 4.477 4.477 0 10 0z" id="b"/><filter x="-28.9%" y="-36.3%" width="157.8%" height="161.8%" filterUnits="objectBoundingBox" id="a"><feOffset dy="-10" in="SourceAlpha" result="shadowOffsetOuter1"/><feGaussianBlur stdDeviation="17.5" in="shadowOffsetOuter1" result="shadowBlurOuter1"/><feColorMatrix values="0 0 0 0 0 0 0 0 0 0 0 0 0 0 0 0 0 0 0.06 0" in="shadowBlurOuter1"/></filter></defs><g fill="none" fill-rule="evenodd"><g transform="translate(35 45)"><use fill="#000" filter="url(#a)" xlink:href="#b"/><use fill="#FFF" xlink:href="#b"/></g><path fill="#D8D8D8" d="M52 78h161v10H52zm0 18h119v10H52zm0 86h161v5H52zm0 10h161v5H52zm0 10h161v5H52zm0 10h130v5H52z"/><path fill="#9B9B9B" d="M52 120h161v51H52z"/></g></svg>