<svg version="1" xmlns="http://www.w3.org/2000/svg" width="618.667" height="714.667" viewBox="0 0 464 536"><g fill="#fff"><path d="M105 55.7c0 .3.6 1.4 1.4 2.2 2.7 3.2 23.6 34.2 23.6 35 0 .5-2.5 2.1-5.5 3.5-16 7.3-29.1 23-34.2 40.7-1.7 6-1.8 13.4-1.8 128.4 0 135.6-.4 127 6.7 141.5 4.6 9.3 17.8 22.3 27.5 27 4 1.9 7.2 4 7.3 4.6 0 .6-1.3 2.9-2.8 5-9.7 13.4-22 32.2-21.5 32.8.8.8 90.3.8 90.3 0 0-.4-2.6-4.3-5.8-8.8-3.1-4.4-8.4-12-11.7-16.9-3.3-4.8-6.6-9.6-7.3-10.6-1.2-1.7-.7-2.2 5-5.1 18.4-9.5 30.5-24.5 34.3-42.6 2.2-10.3 2.2-242.5 0-252.8-3.9-18.6-18.2-36.3-35.1-43.7-2.7-1.2-5-2.3-5.2-2.4-.3-.2 13.6-20.8 21.3-31.5 1.7-2.5 3.5-5.1 3.9-5.8.6-.9-8.7-1.2-44.8-1.2-25.1 0-45.6.3-45.6.7zm58 16.9c0 .6-10.4 15.9-12 17.7-.6.7-13-16.2-13-17.7 0-.3 5.6-.6 12.5-.6s12.5.3 12.5.6zm5.4 39.2c12.7 6 22.9 18.5 25.6 31.5.7 3.6 1 42 .8 125.7l-.3 120.5-2.2 5.5c-2.9 7-10.4 16.4-16.6 20.6-15.6 10.7-36.8 10.5-51.3-.5-6.6-5-12.7-12.8-15.5-19.8l-2.4-5.8v-248l3.6-7.6C116 121.5 126 113 139 109.3c2.7-.8 8.1-1.2 13.6-.9 7.7.3 10.2.8 15.8 3.4zm-11.5 337.7c3.4 4.7 6.1 9 6.1 9.5 0 .6-5 1-12.5 1-7.6 0-12.5-.4-12.5-1 0-1 11.8-18 12.5-18 .1 0 3 3.8 6.4 8.5z"/><path d="M119 167.5v8.5h32v-17h-32v8.5zm0 65v8.5h32.1l-.3-8.3-.3-8.2-15.7-.3-15.8-.3v8.6zm0 66v8.5h32.1l-.3-8.3-.3-8.2-15.7-.3-15.8-.3v8.6zm.4 57.8c-.3.8-.4 4.7-.2 8.8l.3 7.4 13.5.3c18.9.4 18 .8 18-8.7 0-6.3-.3-8-1.6-8.5-.9-.3-7.8-.6-15.5-.6-10.8 0-14.1.3-14.5 1.3zM289 55.6c0 .4 5.4 8.5 12 18 6.7 9.6 12.3 18 12.5 18.7.3.7-2.6 2.8-7.2 5.2-10.2 5.2-21.4 16.1-26.5 26.1-7.2 13.7-6.8 5.3-6.8 141.9 0 135.3-.3 128 6.1 141.1 5.8 11.7 16.2 22 28.1 27.7 3.7 1.8 6.7 3.6 6.7 4.1.1.4-5.5 8.9-12.4 18.8S289 475.6 289 476.1c0 1.1 89.7 1.3 90.3.1.3-.4-2.3-4.6-5.7-9.4-3.3-4.8-9-12.9-12.6-17.9-3.6-5.1-6.6-9.6-6.8-10-.2-.5 2.8-2.4 6.5-4.3 13.3-6.7 22.9-16.3 29.3-29.4 6.2-12.6 6-8.2 6-139.8 0-116.3-.1-120.3-2-127.8-3-11.8-7.2-18.9-17.1-28.8-6.6-6.6-10.2-9.4-15.8-11.9-3.9-1.9-7.1-3.6-7.1-3.9 0-.3 5.9-8.8 13-19 7.2-10.2 13-18.6 13-18.8 0-.1-20.5-.2-45.5-.2s-45.5.3-45.5.6zm56.5 19.1c-4 6.8-10.2 14.8-11.4 14.8-1 0-13.1-15.9-13.1-17.3 0-.1 5.9-.2 13.1-.2h13l-1.6 2.7zm1.4 35.2c8.3 2.6 13.7 6 19.8 12.3 5.8 6.3 8.7 11.4 10.8 19.5 2.2 8.2 2.2 239.9.1 248-4.6 17.4-19.1 30.5-36.9 33.5-23.6 3.9-47.2-13.7-50.7-37.8-1.3-9.6-1.3-230.7.1-239.4 4.2-26.9 31.2-44.1 56.8-36.1zm-5.9 340c3.2 4.7 5.7 8.8 5.4 9.3-.9 1.4-24.4 1-24.4-.4 0-1.8 11.2-17.9 12.2-17.6.4.2 3.5 4.1 6.8 8.7z"/><path d="M303 167.5v8.5h31v-17h-31v8.5zm0 65v8.5h31v-17h-31v8.5zm0 66v8.5h31v-17h-31v8.5zm.4 57.8c-.3.8-.4 4.7-.2 8.8l.3 7.4 15.3.3 15.2.3V355h-15c-11.7 0-15.2.3-15.6 1.3z"/></g></svg>