<svg version="1" xmlns="http://www.w3.org/2000/svg" width="674.667" height="813.333" viewBox="0 0 506 610"><g fill="#fff"><path d="M231 82.3c0 21.4.8 25.9 5.6 32.3 4.3 5.7 8 8.6 15.2 11.6 5.9 2.6 7.4 2.8 19.3 2.8 7.1 0 12.9.2 12.9.4s-1 2.5-2.2 5.2c-2 4.5-2.3 7.1-2.9 31.4-.7 26.2-.7 26.6-3.9 36.5-1.8 5.5-3.8 10.7-4.4 11.5-.7.8-1.8 2.8-2.6 4.5-1.9 3.7-12.4 16.4-15.3 18.4-1.2.8-2.6 2-3.2 2.7-2.1 2.5-12.4 8.2-20 11.1-7.6 2.9-20.4 5.3-28.6 5.3-3.4 0-3.9-.3-4.5-2.8-1.2-5.5-1.6-6.9-4.9-15.7-8.3-22.6-23.6-41.8-44.5-56.1-5.7-3.9-17.3-9.8-22.5-11.4-2.2-.7-4.4-1.6-5-2-.5-.5-5-1.6-10-2.5-4.9-.9-10.9-2-13.3-2.5-2.3-.4-4.4-.5-4.6-.1-2.1 3.4-2.6 18.8-2.6 87.5 0 80.9.3 85.8 5.4 104.1 2.7 9.6 3.9 12.5 9.9 24.4 3.3 6.4 9 15.9 11.9 19.6 8.6 11.1 18 20.2 32.8 31.4 8.4 6.3 34.8 17.9 44.9 19.6 4.3.7 4 .1 9.7 21.5 1.3 5.2 3.5 13.5 4.8 18.5 1.3 4.9 3.9 14.4 5.6 21 1.8 6.6 3.9 14.6 4.8 17.7 1 4.1 2 5.8 3.1 5.8 2.6 0 16.3-3.8 17.1-4.7.8-.8-.2-4.9-6-26.8-1.8-6.6-4.5-17-6.1-23-1.6-6.1-3.8-14.1-4.9-18-1.1-3.8-2-7.2-2-7.6 0-.3 5.2-.9 11.7-1.3 19.4-1.2 36.7-5.4 51.3-12.7 3.2-1.6 6.2-2.9 6.5-2.9.3 0 1.8-.8 3.3-1.8 12.4-8.3 16-10.8 18.1-12.6 4.5-3.9 22.1-21.9 22.1-22.7 0-.4 1.1-2 2.4-3.6 7.3-8.8 18.6-33.2 21.6-46.5 2.7-12.4 4-27.3 4-45.9v-19.8l5.8-.6c10.5-1.2 21.2-7.4 28.9-16.9 1.2-1.5 3.4-6.4 4.9-10.9 4.5-14.2 2-24.2-10.6-42.7-.6-.8-2.8-4.2-4.9-7.5-8.4-13.2-12.1-19.1-13.1-20.5-.5-.8-2.8-4.3-5-7.8l-4-6.2h20v-21h-21.7l-1.2-6.8c-1.7-9.4-5.4-16.6-12.2-23.3l-5.9-5.7v-11.6c0-17.4-3.3-25.6-13.8-33.8-6.6-5.3-6.6-5.3-53.4-5.6l-43.8-.3v19.4zm82.4 1.7c6.2 2.3 8.6 7.1 8.6 17.1v6.9h-30.4c-17.9 0-31.5-.4-33.2-1-1.6-.6-3.9-2.5-5.1-4.3-1.9-2.8-2.3-4.7-2.3-11.5V83h29.9c16.7 0 31.1.4 32.5 1zm14.4 46.6c2 .8 5 2.7 6.5 4.2 5.9 5.6 5.7 1.2 5.7 101.6 0 56.6-.4 94.8-1 99.1-5.4 36.9-32.5 72-67.5 87.3-18.4 8-37 11-57.8 9.1-36.5-3.2-71.5-26-88.7-57.8-1.4-2.5-2.8-4.8-3.2-5.1-.3-.3-1.6-3.2-2.9-6.5-1.2-3.3-2.5-6.5-2.9-7-1-1.3-3.6-13-5.5-23.9-2-11.7-2.3-144.6-.3-144.6 2.5 0 12.9 4.2 19.1 7.8 10.6 6.1 14.2 8.8 21.7 16.2 7.3 7.4 10.6 11.7 15.2 20.2 1.4 2.7 3.1 5.4 3.6 6.1 2.7 3.4 7.5 21.5 8 30l.5 8.9 19.6-.5c22.2-.5 30.1-1.9 42.6-7.4 28.6-12.4 48.4-36.1 56.1-66.8 1.1-4.2 1.7-13.7 2.1-31 .5-23.5.7-25.3 2.8-29.5 1.3-2.5 3.4-5.5 4.7-6.7 5.4-5.1 14.5-6.7 21.6-3.7zm36.1 79.6c1.1 1.8 2.6 4.2 3.3 5.3 13.3 20.7 14.8 23.5 14.8 29 0 9.4-8.9 18.5-18.1 18.5H361v-28c0-15.4.2-28 .4-28s1.3 1.5 2.5 3.2z"/><path d="M226 298c-7.5 1.3-18.5 4.6-23.6 7.1-11.8 5.7-24.7 15.9-32.2 25.5-2.9 3.8-10.2 15.7-10.2 16.7 0 .4-.9 2.7-2 5-3 6.2-5.1 17.9-5.3 30.2l-.2 11 37 .3c24.1.2 39.6-.1 44.5-.8 7.5-1.2 17.2-3.6 20-5.1.8-.4 3.8-1.8 6.5-3 11.3-5.2 23.9-15.8 31.9-26.9 7.8-10.9 14.8-29.8 16-43.2.6-6.4.5-6.8-1.6-7.3-1.3-.3-5.9-.5-10.3-.3l-8 .3-.7 5.5c-1.4 10.7-3.1 16.6-6.8 24-10.2 20.1-28.7 33.1-51.3 36-4.5.6-19 .9-32.2.8l-24-.3.3-3c.6-4.8 5.6-17 9.5-22.7 11.6-17.4 27.9-27.3 48.7-29.6l6.5-.7v-20l-4-.1c-2.2-.1-6 .2-8.5.6zm38.5 171.1c-3.3.9-14.9 4.2-15.2 4.4-.3.1 2.5 11.2 6.7 26.5 1.7 6.3 4.3 16.2 5.7 22 1.4 5.8 2.9 10.9 3.3 11.4.9.9 16.3-2.2 18.5-3.8 1.2-.9 1.3-1.8.5-4.6-2.1-6.8-8.3-29.6-10.6-39-2.3-9.4-4.6-16.6-5.5-17.3-.2-.2-1.7 0-3.4.4z"/></g></svg>