<svg version="1" xmlns="http://www.w3.org/2000/svg" width="573.333" height="570.667" viewBox="0 0 430 428"><g fill="#fff"><path d="M70.1 74.5c-7.2 8.5-24 28.4-37.3 44.2-13.3 15.9-26.1 31-28.5 33.7L0 157.2V190h102v154H0v13h183v-13h-68V186.3l22.8-26.9c12.5-14.8 33.5-39.6 46.6-55.2 13.1-15.6 24.2-28 24.6-27.5 1 1 51.8 62.4 66.7 80.5 5.7 7.1 10.8 12.8 11.2 12.8.4 0 2.9-1.6 5.4-3.6 4.6-3.6 4.7-3.7 2.9-5.9-.9-1.3-13.8-16.9-28.6-34.7-14.7-17.7-33.2-40.1-41-49.5L211.5 59H83.3L70.1 74.5z"/><path d="M246.5 185.1c-22.3 1.9-42.1 10.1-56 23.1l-6.4 6-3.4-2.6c-9.9-7.5-21.5-7.5-31.5.1-3.8 2.8-8.2 11.2-8.2 15.5 0 2.8.1 2.8 6.5 2.8 5.9 0 6.5-.2 6.5-2.1 0-1.2 1.5-3.6 3.4-5.5 3.7-3.7 8.2-4.5 13-2.2 5.4 2.4 6 4.7 6.7 25.8.6 16.6 1.1 20.9 3.4 29 6.9 24.9 21.6 49 43.6 71.2l10.6 10.8H253v-27h53.5l13.5 13.5 13.5 13.5H351v-24.7l12.4-1.2c20.2-1.9 35.7-7.5 41.2-14.6 2.3-3 2.4-3.9 2.4-17.8V284h-4.5c-9.9 0-15.6-4.7-16.9-14.2l-.7-4.8 12-12.1c6.7-6.6 12.1-12.4 12.1-12.8 0-.4-1.9-2.5-4.2-4.8-10.7-10.4-23.7-14.8-37-12.5-3.8.7-8.2 1.9-9.7 2.6-2.7 1.4-2.8 1.3-9.7-5.6-20.1-20.5-44.4-32-73.2-34.8-10.9-1.1-15.8-1.1-28.7.1zm29.2 12.9c23.6 3 43.5 12 59.7 27.2 4.6 4.2 10 10.2 12.1 13.2 2.1 3.1 4 5.6 4.2 5.6.2 0 3.4-1.8 7-4 9.8-5.9 20-6.6 28.4-1.8l4 2.2-9.3 9.3-9.3 9.4.1 7.2c0 4.1.8 9.5 1.9 12.6 2.3 6.9 9.2 14.1 15.3 15.9l4.2 1.3v6.5c0 6.2-.1 6.5-3.2 8.4-7.6 4.7-25.7 8-43.5 8H338v11.5c0 6.3-.3 11.5-.7 11.5-.5 0-6.4-5.7-13.3-12.5L311.5 317l-35.5.2-35.5.3-.5 12.8-.5 12.9-7.7-7.9c-18.9-19.2-32.6-41.9-39.1-64.8-1.5-5.4-2.1-11.1-2.4-24.5l-.4-17.5 4.5-5.7c15.1-18.9 47.9-29 81.3-24.8zM12.2 243.2l.3 6.3h71l.3-6.3.3-6.2H11.9l.3 6.2z"/></g></svg>