<svg xmlns="http://www.w3.org/2000/svg" viewBox="0 0 29 21"><path d="M18.528 5.05c-2.802 0-5.008-1.138-4.958-2.526C13.624 1.14 15.915 0 18.717 0c2.803 0 5.009 1.14 4.961 2.524-.054 1.388-2.339 2.527-5.15 2.527m3.197 4.814c-1.383-.816-3.446-.888-6.23 2.395-1.33 1.564-2.612 3.752-4.15 5.547C9.8 19.6 8.004 21 5.65 21c-3.001 0-4.437-2.206-5.1-4.962-.335-1.38-.48-2.892-.526-4.328-.051-1.44-.01-2.798.023-3.873.015-.587.178-1.508.404-2.101C1.665 2.625 5.178.894 8.295 1.865c2.411.75 3.973 2.89 3.874 5.258-.046 1.202-.133 2.46-.189 3.502-.05 1.043-.07 1.875.02 2.216.131.496.649.49.945.219.145-.134.53-.558.992-1.055.452-.505.988-1.09 1.43-1.55.876-.92 2.904-2.786 6.568-2.786 4.037 0 7.197 2.984 7.06 6.664C28.862 18.02 26.379 21 21.446 21c-4.121 0-6.366-2.505-5.244-5.686 1.021-2.892 5.158-3.728 6.894-3.189.027-.022.01-1.448-1.37-2.26" fill="#fff" fill-rule="evenodd"/></svg>
