<?xml version="1.0" encoding="UTF-8"?>
<svg width="232px" height="162px" viewBox="0 0 232 162" version="1.1" xmlns="http://www.w3.org/2000/svg" xmlns:xlink="http://www.w3.org/1999/xlink">
    <!-- Generator: Sketch 52.4 (67378) - http://www.bohemiancoding.com/sketch -->
    <title>Group 40</title>
    <desc>Created with Sketch.</desc>
    <g id="Page-1" stroke="none" stroke-width="1" fill="none" fill-rule="evenodd">
        <g id="Artboard-Copy" transform="translate(-102.000000, -837.000000)" fill-rule="nonzero" stroke="#02EBCD" stroke-width="3">
            <g id="Group-40" transform="translate(103.000000, 839.000000)">
                <g id="Group-18">
                    <path d="M108.544922,103 C113.592363,123.192708 121.103343,133.289062 131.077862,133.289062 C141.052381,133.289062 145.667215,128.455729 144.922365,118.789062" id="Line-47-Copy-2" stroke-linecap="round" transform="translate(126.772461, 118.144531) scale(-1, 1) rotate(10.000000) translate(-126.772461, -118.144531) "></path>
                    <path d="M161.740448,94 L138.024836,85.9699914 C87.6591368,28.6566638 58.2385017,0 49.762931,0 C42.3529951,4.93068266e-16 25.5483012,1.87995094 -2.84217094e-14,7.90543863" id="Line-46" transform="translate(80.870224, 47.000000) scale(-1, 1) translate(-80.870224, -47.000000) "></path>
                    <path d="M173.259766,76.1777344 C174.192371,95.7285156 179.745913,106.352865 189.920392,108.050781 C200.094871,109.748698 205.892891,102.93099 207.314453,87.5976562" id="Line-47" stroke-linecap="round" transform="translate(190.287109, 92.241212) scale(-1, 1) translate(-190.287109, -92.241212) "></path>
                    <path d="M139.544922,101 C144.592363,121.192708 152.103343,131.289062 162.077862,131.289062 C172.052381,131.289062 176.667215,126.455729 175.922365,116.789062" id="Line-47-Copy" stroke-linecap="round" transform="translate(157.772461, 116.144531) scale(-1, 1) translate(-157.772461, -116.144531) "></path>
                </g>
                <g id="Line-48" transform="translate(24.000000, 35.000000)" fill="#FFFFFF" stroke-linecap="round">
                    <path d="M205,120.365234 C202.041667,123.856771 196.798177,123.856771 189.269531,120.365234 C160.405174,112.076156 135.410427,102.96526 114.285291,93.0325458 C93.1601551,83.0998318 76.9493563,70.1551343 65.6528944,54.1984535 C31.7563942,42.8031213 11.8109054,34.853675 5.81642804,30.3501144 C-3.17528802,23.5947734 0.478230919,9.65048544 14.8081441,1.65511194 C29.1380573,-6.34026156 80.5911221,21.9646265 91.1098025,24.2877328 C101.628483,26.6108391 103.089285,24.2877328 114.285291,24.2877328" id="Line-45" transform="translate(102.964355, 61.610183) scale(-1, 1) translate(-102.964355, -61.610183) "></path>
                </g>
            </g>
        </g>
    </g>
</svg>