<svg xmlns="http://www.w3.org/2000/svg" width="381" height="227" viewBox="0 0 381 227">
    <g fill="none" fill-rule="nonzero">
        <path fill="#FFF" stroke="#5A06FF" stroke-linecap="round" stroke-width="3" d="M11.782 10.512C19.944-.59 260.814.02 345.262 6.45c16.828 1.281 27.444 2.794 28.77 4.49 1.747 2.238 3.046 12.057 3.939 26.133 3.184 50.177 1.214 154.448-3.955 162.196-3.334 4.997-68.919 16.598-164.264 22.694-95.346 6.096-183.744 2.44-194.01.016-20.685-4.885-13.749-198.152-3.96-211.467z"/>
        <path fill="#5A06FF" d="M223.66 142.888c105.593-6.465 149.71-23.183 142.658-51.362-7.052-28.18-182.335-50.019-215.056-59.811-32.72-9.793-29.673 24.41-39.735 50.492-10.062 26.081 6.538 67.146 112.132 60.68z" opacity=".096"/>
    </g>
</svg>
