<svg xmlns="http://www.w3.org/2000/svg" width="602" height="454" preserveAspectRatio="none">
  <path fill="#fff" d="M0 0v454h602V0H0zm579.7 428.4c-5.2 9.9-35 7.5-250 21.6C191 459.1 46 434 29.5 428.4-2.7 417.6-3.9 45.6 11.8 18.5c7.9-13.6 166-17.2 304.6-16.4 137.6.8 273.4 5.8 279.5 16.4 12.2 21.3-5.6 389.8-16.2 409.9z"/>
  <path fill="none" stroke="#5a06ff" stroke-width="2" d="M579.7 428.4c-5.2 9.9-35 7.5-250 21.6C191 459.1 46 434 29.5 428.4-2.7 417.6-3.9 45.6 11.8 18.5c7.9-13.6 166-17.2 304.6-16.4 137.6.8 273.4 5.8 279.5 16.4 12.2 21.3-5.6 389.8-16.2 409.9z"/>
</svg>
