<svg xmlns="http://www.w3.org/2000/svg" width="420" height="217" viewBox="0 0 420 217">
    <g fill="none" fill-rule="nonzero">
        <g stroke="#02EBCD" stroke-linecap="round" stroke-width="3">
            <path d="M2.164 111.196c28.026-28.724 136.422 92.362 188.03 46.18C241.8 111.197 259.493 9.179 335 2M337 2.046c66.766-3.255 101.944 155.79 66.472 212.75"/>
        </g>
        <g transform="translate(116 52)">
            <ellipse cx="79.552" cy="95.09" fill="#FFF" stroke="#000" stroke-width="1.5" rx="8.851" ry="8.852"/>
            <path fill="#FF02EC" d="M77.598 87.135c2.022.22 3.469.456 4.34.706.873.25 1.994.75 3.363 1.502l-2.892 13.515c-2.05.425-3.86.38-5.43-.135-1.57-.514-2.669-1.16-3.297-1.934l3.916-13.654z"/>
            <ellipse cx="81.61" cy="87.888" fill="#FFF" stroke="#000" rx="2.929" ry="1.443" transform="rotate(8 81.61 87.888)"/>
            <path fill="#FFF" stroke="#000" stroke-width="1.5" d="M77.788 82.317v2.828c0 1.307 2.168 2.565 4.965 2.565 2.796 0 4.965-1.258 4.965-2.565 0-1.308-2.169-2.565-4.965-2.565-1.003 0-2.655-.088-4.965-.263z"/>
            <path fill="#FF02EC" d="M40.263 31.531h7.333v14.762c-.986 1.133-2.208 1.7-3.666 1.7-1.459 0-2.68-.567-3.667-1.7V31.53z"/>
            <ellipse cx="83.21" cy="82.63" fill="#FFF" stroke="#000" stroke-width="1.5" rx="4.965" ry="2.565"/>
            <path fill="#FFF" stroke="#000" stroke-width="1.5" d="M36.183 30.786v3.79c0 3.603 3.982 6.8 9.643 6.8 5.582 0 7.052-1.256 7.052-4.955 0-3.303-4.175-6.883-8.348-6.883-1.49 0-4.284.416-8.347 1.248z"/>
            <path fill="#FF02EC" d="M122.529 107.207h7.332v14.762c-.986 1.133-2.208 1.7-3.666 1.7-1.458 0-2.68-.567-3.666-1.7v-14.762zM135.559 53.022h7.332v14.762c-.986 1.133-2.208 1.7-3.666 1.7-1.458 0-2.68-.567-3.666-1.7V53.022zM28.575 88.003h7.332v14.761c-.986 1.133-2.208 1.7-3.666 1.7-1.458 0-2.68-.567-3.666-1.7V88.003z"/>
            <path fill="#212121" d="M83.266 83.592c5.637 1.935 17.145 10.106 34.522 24.512l8.914 1.866c-13.59-17.319-20.385-28.244-20.385-32.776 0-3.567 9.437-8.846 28.31-15.834l-2.102-2.466c-.733-2.21-1.335-3.294-1.805-3.254-24.083 2.074-38.205 6.274-41.689 5.722-1.624-.257-13.79-6.96-36.5-20.107l-5.851-3.19-3.52 3.19c12.667 10.928 19.892 19.138 21.676 24.631.837 2.575-8.99 10.211-29.482 22.909l5 3.168c25.496-6.648 39.8-9.439 42.912-8.37z"/>
            <path fill="#FFF" stroke="#000" stroke-width="1.5" d="M127.001 116.851c5.591 0 8.07-2.105 8.07-5.794 0-.125-.008.057.026-.715.008-.175.014-.314.018-.447.015-.484.006-.837-.015-.909-.768-2.66-4.78-4.687-8.96-4.687-4.701 0-8.348 2.134-8.348 5.04 0 3.895 3.762 7.512 9.21 7.512zM140.004 62.622c5.636 0 7.514-1.536 7.514-5.168 0-3.302-4.175-6.882-8.348-6.882-4.701 0-8.347 2.133-8.347 5.039 0 3.765 3.646 7.011 9.181 7.011z"/>
            <path fill="#FFF" stroke="#000" stroke-width="1.5" d="M119.178 106.118l6.425-4.109c-13.386-17.114-20.036-27.864-20.036-32.588 0-4.13 9.273-7.906 28.17-11.956.569-1.783.537-2.885.061-3.332-.585-.551-1.146-1.292-1.69-2.223-25.217 2.19-39.538 2.998-43.194 2.42-1.767-.28-13.616-6.805-36.403-19.994l-6.341 3.27c11.834 8.822 18.644 15.952 20.443 21.491 1.026 3.16-8.761 10.144-30.328 22.262l2.602 6.832c26.812-10.661 41.466-15.353 44.824-14.2 5.764 1.978 17.517 12.65 35.467 32.127z"/>
            <ellipse cx="87.52" cy="61.862" fill="#FFF" stroke="#000" stroke-width="1.5" rx="15.48" ry="10.224" transform="rotate(11 87.52 61.862)"/>
            <ellipse cx="88.117" cy="58.698" fill="#FFF" stroke="#000" stroke-width="1.5" rx="9.638" ry="6.274" transform="rotate(11 88.117 58.698)"/>
            <path fill="#FF02EC" d="M84.038 57.017c1.654-.602 2.58-1.716 2.174-2.834-.407-1.118-2.182-1.297-3.836-.695-1.653.602-2.559 1.756-2.152 2.874.407 1.118 2.161 1.257 3.814.655zM88.633 53.973c.852-.26 1.35-.799 1.173-1.374-.176-.576-1.068-.713-1.92-.453-.851.26-1.34.82-1.163 1.395.176.576 1.059.693 1.91.432z"/>
            <path fill="#FFF" stroke="#000" stroke-width="1.5" d="M127.833 113.168c5.835-.464 7.112-1.484 7.112-4.958 0-3.303-4.175-6.883-8.348-6.883-4.701 0-8.347 2.134-8.347 5.039 0 3.797 4.095 7.238 9.583 6.802zM140.465 58.524c5.583 0 7.053-1.257 7.053-4.956 0-3.303-4.175-6.883-8.348-6.883-4.701 0-8.347 2.134-8.347 5.039 0 3.602 3.982 6.8 9.642 6.8zM45.826 37.49c5.582 0 7.052-1.256 7.052-4.956 0-3.303-4.175-6.883-8.348-6.883-4.7 0-8.347 2.134-8.347 5.04 0 3.601 3.982 6.799 9.643 6.799zM23.61 85.907v3.998c0 3.602 3.982 6.8 9.643 6.8 5.583 0 7.052-1.257 7.052-4.956 0-3.303-4.175-6.883-8.348-6.883-2.001 0-4.788.346-8.347 1.04z"/>
            <path fill="#FFF" stroke="#000" stroke-width="1.5" d="M33.253 92.818c5.583 0 7.052-1.256 7.052-4.956 0-3.303-4.175-6.883-8.348-6.883-4.7 0-8.347 2.134-8.347 5.039 0 3.602 3.982 6.8 9.643 6.8z"/>
            <path fill="#212121" d="M127.423 111.007c3.494 0 5.225-1.562 5.225-3.286v-4.696h-5.614c-.455 0-2.415-.359-5.877-1.076v4.583c0 2.446 2.771 4.475 6.266 4.475zM139.767 55.907c3.494 0 5.226-1.561 5.226-3.285v-4.697h-5.614c-.456 0-2.415-.358-5.878-1.076v4.583c0 2.447 2.772 4.475 6.266 4.475zM45.127 33.96c3.494 0 5.226-1.563 5.226-3.287v-4.696h-5.614c-.456 0-2.415-.359-5.877-1.076v4.583c0 2.446 2.771 4.475 6.265 4.475zM32.783 89.973c3.494 0 5.226-1.562 5.226-3.286v-4.696h-5.614c-.456 0-2.415-.359-5.878-1.076v4.583c0 2.446 2.772 4.475 6.266 4.475z"/>
            <path fill="#FF02EC" d="M127.423 106.502c3.494 0 5.225-1.562 5.225-3.286s-3.227-4.697-5.614-4.697c-2.386 0-5.877 1.06-5.877 3.507s2.771 4.476 6.266 4.476zM139.767 51.402c3.494 0 5.226-1.562 5.226-3.286s-3.228-4.696-5.614-4.696c-2.387 0-5.878 1.06-5.878 3.507 0 2.446 2.772 4.475 6.266 4.475zM45.127 30.14c3.494 0 5.226-1.562 5.226-3.286s-3.227-4.696-5.614-4.696-5.877 1.06-5.877 3.507c0 2.446 2.771 4.475 6.265 4.475zM32.783 85.925c3.494 0 5.226-1.562 5.226-3.286s-3.228-4.696-5.614-4.696c-2.387 0-5.878 1.06-5.878 3.507 0 2.446 2.772 4.475 6.266 4.475z"/>
            <path fill="#212121" d="M127.296 104.339c2.155 0 3.462-.872 3.462-1.936v-2.89c-2.056.254-3.237.381-3.543.381-.442 0-1.623-.382-3.543-1.146v2.922c0 1.509 1.47 2.669 3.624 2.669zM139.64 49.24c2.155 0 3.463-.873 3.463-1.936v-2.89c-2.056.254-3.237.38-3.544.38-.441 0-1.623-.381-3.543-1.145v2.922c0 1.508 1.47 2.668 3.625 2.668zM44.544 27.748c2.154 0 3.462-.872 3.462-1.935v-2.89c-2.056.254-3.237.38-3.544.38-.441 0-1.622-.381-3.543-1.145v2.922c0 1.508 1.47 2.668 3.625 2.668zM32.2 83.533c2.154 0 3.461-.871 3.461-1.935v-2.89c-2.055.254-3.237.381-3.543.381-.442 0-1.623-.382-3.543-1.146v2.922c0 1.509 1.47 2.668 3.624 2.668z"/>
            <path fill="#FF02EC" d="M127.296 101.82c2.155 0 3.462-.871 3.462-1.935 0-1.063-2.071-2.509-3.543-2.509s-3.543.267-3.543 1.776 1.47 2.669 3.624 2.669zM139.64 46.493c2.155 0 3.463-.872 3.463-1.936 0-1.063-2.072-2.509-3.544-2.509-1.471 0-3.543.267-3.543 1.776s1.47 2.669 3.625 2.669zM44.544 25.23c2.154 0 3.462-.872 3.462-1.935 0-1.063-2.072-2.51-3.544-2.51-1.471 0-3.543.268-3.543 1.777 0 1.508 1.47 2.668 3.625 2.668zM32.2 81.015c2.154 0 3.461-.871 3.461-1.935 0-1.063-2.071-2.509-3.543-2.509s-3.543.267-3.543 1.776 1.47 2.668 3.624 2.668z"/>
            <g fill="#FF02EC" opacity=".273">
                <ellipse cx="127.618" cy="103.236" rx="28.917" ry="18.519" transform="rotate(12 127.618 103.236)"/>
                <ellipse cx="139.559" cy="47.993" rx="28.917" ry="18.519" transform="rotate(12 139.56 47.993)"/>
                <ellipse cx="46.537" cy="24.794" rx="28.917" ry="18.519" transform="rotate(12 46.537 24.794)"/>
                <ellipse cx="32.263" cy="84.526" rx="28.917" ry="18.519" transform="rotate(12 32.263 84.526)"/>
            </g>
            <g transform="translate(75.455 91.781)">
                <ellipse cx="3.928" cy="4.049" fill="#212121" rx="3.886" ry="3.887"/>
                <ellipse cx="3.886" cy="4.296" fill="#FE5" rx="1.889" ry="1.889"/>
            </g>
            <ellipse cx="73.773" cy="93.479" fill="#FF02EC" rx="1" ry="1"/>
        </g>
    </g>
</svg>
