<?xml version="1.0" encoding="UTF-8"?>
<svg width="247px" height="150px" viewBox="0 0 247 150" version="1.1" xmlns="http://www.w3.org/2000/svg" xmlns:xlink="http://www.w3.org/1999/xlink">
    <!-- Generator: Sketch 52.4 (67378) - http://www.bohemiancoding.com/sketch -->
    <title>Group 10</title>
    <desc>Created with Sketch.</desc>
    <g id="Page-1" stroke="none" stroke-width="1" fill="none" fill-rule="evenodd">
        <g id="Контакты" transform="translate(-81.000000, -988.000000)" fill-rule="nonzero">
            <g id="Group-7" transform="translate(81.000000, 871.000000)">
                <g id="Group-10" transform="translate(0.000000, 119.000000)">
                    <path d="M171,148 C211.869071,148 245,139.941125 245,130 C245,120.058875 136.869071,112 96,112 C55.1309285,112 -5.68434189e-14,118.41265 -5.68434189e-14,128.353776 C-5.68434189e-14,138.294901 130.130929,148 171,148 Z" id="Oval-79" fill="#030303" opacity="0.102287946"></path>
                    <path d="M108.686402,51 C111.107018,52.4321453 118.785062,54.1306627 131.720535,56.0955523 C151.123744,59.0428867 148.757075,71.0330807 142.488881,71.0330807 C139.030864,71.0330807 126.022022,74.5143366 106.150934,72.2140834 C103.389689,71.894445 99.3393777,69.821225 94,65.9944234" id="Rectangle-106-Copy" stroke="#5A06FF" stroke-width="3" fill="#FFFFFF" stroke-linecap="round"></path>
                    <path d="M45.9954479,136 C65.4408315,136 95.7570341,116.898735 102.309972,96.6393462 C104.30055,90.4851746 106.679734,82.1711486 108.41324,73.6107011 C110.180864,64.8817696 124.704476,49.1937873 121.554438,32.3625695 C118.677822,16.9922965 98.2336412,0 97.0636174,0 C95.4294453,2.61710981e-16 94.5264723,3.89013278 94.3546986,11.6703984 C92.0844992,11.6703984 88.1409563,12.2174347 82.5240699,13.3115075 C76.9071835,14.4055803 72.0156931,16.7137508 67.8495987,20.2360189 C60.4961673,13.4378799 56.0181526,10.0388104 54.4155547,10.0388104 C45.5112609,10.0388104 53.5457005,37.0105351 45.9954479,42.0439019 C29.7332299,52.88509 10.3109672,65.0399639 6.40188272,82.1099903 C-1.6195464,117.137631 26.5500644,136 45.9954479,136 Z" id="Oval-76" stroke="#5A06FF" stroke-width="3" fill="#FFFFFF" stroke-linecap="round"></path>
                    <path d="M67.7564765,119 C68.4226982,109.824461 67.721953,103.664639 65.6542409,100.520534 C63.5865288,97.376429 58.3684485,94.536251 50,92" id="Line-51" stroke="#5A06FF" stroke-width="3" fill="#FFFFFF" stroke-linecap="round"></path>
                    <path d="M50.519462,13 C56.8398207,18.9854827 60,22.4422937 60,23.3704331 C60,24.7626421 51.9806171,29.6082749 49,34" id="Line-50" fill="#5A06FF"></path>
                    <ellipse id="Oval-77" stroke="#5A06FF" stroke-width="3" fill="#FFFFFF" stroke-linecap="round" cx="71" cy="37.5" rx="10" ry="9.5"></ellipse>
                    <circle id="Oval-78" fill="#212121" cx="71" cy="38" r="3"></circle>
                    <ellipse id="Oval-77-Copy" stroke="#5A06FF" stroke-width="3" fill="#FFFFFF" stroke-linecap="round" cx="100" cy="30.5" rx="10" ry="9.5"></ellipse>
                    <path d="M89.0491803,47 C90.5229593,47 91,42.9397836 91,41.4508435 C91,39.9619035 84,42.5131502 84,44.0020902 C84,45.4910302 87.5754014,47 89.0491803,47 Z" id="Oval-77-Copy-2" fill="#5A06FF"></path>
                    <path d="M97,49.3271183 C93.7667344,46.4554059 91.2285357,45.4426743 89.3854037,46.2889236 C87.5422717,47.1351729 86.4138038,49.3721984 86,53" id="Line-48" stroke="#5A06FF" stroke-width="3" fill="#FFFFFF" stroke-linecap="round"></path>
                    <path d="M100.374413,2 C99.4581377,9.0969293 99,13.2722107 99,14.5258442 C99,16.4062944 112.530891,15.0905912 115,18" id="Line-49" fill="#5A06FF"></path>
                    <circle id="Oval-78-Copy" fill="#212121" cx="100" cy="30" r="3"></circle>
                    <path d="M45,120.97889 C69.8400393,118.34037 87.9580343,118.34037 99.3539851,120.97889 C116.447911,124.936669 111.37365,136 105.163834,136 C101.023958,136 80.9693461,136 45,136" id="Rectangle-106" stroke="#5A06FF" stroke-width="3" fill="#FFFFFF" stroke-linecap="round"></path>
                    <path d="M97.6864022,62 C100.107018,63.4321453 107.785062,65.1306627 120.720535,67.0955523 C140.123744,70.0428867 137.757075,82.0330807 131.488881,82.0330807 C128.030864,82.0330807 115.022022,85.5143366 95.1509335,83.2140834 C92.3896889,82.894445 88.3393777,80.821225 83,76.9944234" id="Rectangle-106" stroke="#5A06FF" stroke-width="3" fill="#FFFFFF" stroke-linecap="round"></path>
                    <g id="Group-4" transform="translate(152.000000, 62.000000)" stroke="#5A06FF" stroke-linecap="round" stroke-width="3">
                        <ellipse id="Oval-80-Copy-4" fill="#FFFFFF" cx="40.4016393" cy="18.5681818" rx="12.5983607" ry="12.5227273"></ellipse>
                        <ellipse id="Oval-80-Copy-2" fill="#FFFFFF" cx="26.9344262" cy="19" rx="19.1147541" ry="19"></ellipse>
                        <ellipse id="Oval-80-Copy-3" fill="#FFFFFF" cx="19.1147541" cy="19" rx="19.1147541" ry="19"></ellipse>
                        <ellipse id="Oval-80-Copy-3" fill="#FFEE55" cx="19.1147541" cy="19" rx="11.295082" ry="11.2272727"></ellipse>
                    </g>
                    <g id="Group-4-Copy" transform="translate(129.000000, 100.000000)" stroke="#5A06FF" stroke-linecap="round" stroke-width="3">
                        <ellipse id="Oval-80-Copy-2" fill="#FFFFFF" cx="26.9056604" cy="19" rx="19.0943396" ry="19"></ellipse>
                        <ellipse id="Oval-80-Copy-3" fill="#FFFFFF" cx="19.0943396" cy="19" rx="19.0943396" ry="19"></ellipse>
                        <ellipse id="Oval-80-Copy-3" fill="#FFEE55" cx="19.0943396" cy="19" rx="12.1509434" ry="12.0909091"></ellipse>
                    </g>
                    <g id="Group-4-Copy-2" transform="translate(171.000000, 98.000000)" stroke="#5A06FF" stroke-linecap="round" stroke-width="3">
                        <path d="M59.6352941,33.6818182 C67.5687021,33.6818182 74,27.3018759 74,19.4318182 C74,11.5617605 67.5687021,5.18181818 59.6352941,5.18181818 C58.1307694,5.18181818 48.1408227,6.39413408 46.7779642,6.81969105 C40.9544254,8.63810986 45.2705882,13.0542712 45.2705882,19.4318182 C45.2705882,25.2781319 41.7005827,29.7025037 46.7779642,31.8997248 C48.5355366,32.6603088 57.59526,33.6818182 59.6352941,33.6818182 Z" id="Oval-80-Copy-5" fill="#FFFFFF"></path>
                        <ellipse id="Oval-80-Copy-3" fill="#FFFFFF" cx="46.1411765" cy="19" rx="13.0588235" ry="12.9545455"></ellipse>
                        <path d="M32.2117647,38 C42.789642,38 51.3647059,29.4934102 51.3647059,19 C51.3647059,8.50658975 42.789642,7.97745708e-14 32.2117647,7.97745708e-14 C31.1459619,7.97745708e-14 26.3815317,7.97745708e-14 17.9184743,7.97745708e-14 C14.6787071,6.72835197 13.0588235,13.0616853 13.0588235,19 C13.0588235,24.2986198 14.6787071,30.6319531 17.9184743,38 C25.7366875,38 30.5011177,38 32.2117647,38 Z" id="Oval-80-Copy-2" fill="#FFFFFF"></path>
                        <ellipse id="Oval-80-Copy-3" fill="#FFFFFF" cx="19.1529412" cy="19" rx="19.1529412" ry="19"></ellipse>
                        <ellipse id="Oval-80-Copy-3" fill="#FFEE55" cx="19.1529412" cy="19" rx="13.0588235" ry="12.9545455"></ellipse>
                    </g>
                </g>
            </g>
        </g>
    </g>
</svg>