<?xml version="1.0" encoding="UTF-8"?>
<svg width="452px" height="182px" viewBox="0 0 452 182" version="1.1" xmlns="http://www.w3.org/2000/svg" xmlns:xlink="http://www.w3.org/1999/xlink">
    <!-- Generator: Sketch 52.4 (67378) - http://www.bohemiancoding.com/sketch -->
    <title>Group 5</title>
    <desc>Created with Sketch.</desc>
    <g id="Page-1" stroke="none" stroke-width="1" fill="none" fill-rule="evenodd">
        <g id="Artboard-Copy" transform="translate(-1018.000000, -378.000000)" fill-rule="nonzero">
            <g id="Group-22" transform="translate(908.000000, 379.000000)">
                <g id="Group-5" transform="translate(110.000000, 0.000000)">
                    <g id="Group-7">
                        <path d="M129.820408,181 C160.84754,181 186,174.731986 186,167 C186,159.268014 103.908764,153 72.8816327,153 C41.8545008,153 0,157.987617 0,165.719603 C0,173.45159 98.7932763,181 129.820408,181 Z" id="Oval-79" fill="#030303" opacity="0.102287946"></path>
                        <path d="M82.3611791,107 C84.2337308,108.04156 90.1733499,109.276846 100.180036,110.705856 C115.190066,112.849372 113.359247,121.569513 108.510267,121.569513 C105.835196,121.569513 95.7717528,124.101336 80.3997788,122.428424 C78.2637216,122.19596 75.130462,120.688164 71,117.905035" id="Rectangle-106-Copy" stroke="#5A06FF" stroke-width="3" fill="#FFFFFF" stroke-linecap="round"></path>
                        <path d="M35.1845715,171 C49.976359,171 73.037402,156.533601 78.0221151,141.190093 C79.5363158,136.529213 81.3461222,130.232561 82.6647722,123.749281 C84.0093754,117.138399 95.057251,105.25706 92.661068,92.5098872 C90.4728729,80.8691657 74.9213168,68 74.0312987,68 C72.7882105,68 72.1013337,70.9462035 71.9706681,76.8386105 C70.2437644,76.8386105 67.2439753,77.2529101 62.971301,78.0815094 C58.6986268,78.9101086 54.9777494,80.6582083 51.8086691,83.3258084 C46.2150332,78.1772178 42.8086802,75.6029226 41.58961,75.6029226 C34.8162583,75.6029226 40.927926,96.0300376 35.1845715,99.8420728 C22.8141664,108.052678 8.03996649,117.258208 5.06638942,130.186243 C-1.03538145,156.714529 20.392784,171 35.1845715,171 Z" id="Oval-76" stroke="#5A06FF" stroke-width="3" fill="#FFFFFF" stroke-linecap="round"></path>
                        <path d="M51.8105929,160 C52.3287653,152.86347 51.7837412,148.072497 50.1755207,145.627082 C48.5673002,143.181667 44.5087933,140.97264 38,139" id="Line-51" stroke="#5A06FF" stroke-width="3" fill="#FFFFFF" stroke-linecap="round"></path>
                        <path d="M38.2431962,79 C43.4143987,83.2753448 46,85.7444955 46,86.4074522 C46,87.4018872 39.4386867,90.8630535 37,94" id="Line-50" fill="#5A06FF"></path>
                        <ellipse id="Oval-77" stroke="#5A06FF" stroke-width="3" fill="#FFFFFF" stroke-linecap="round" cx="53.5" cy="96" rx="7.5" ry="7"></ellipse>
                        <circle id="Oval-78" fill="#212121" cx="54.5" cy="97.5" r="2.5"></circle>
                        <ellipse id="Oval-77-Copy" stroke="#5A06FF" stroke-width="3" fill="#FFFFFF" stroke-linecap="round" cx="76.5" cy="91" rx="7.5" ry="7"></ellipse>
                        <path d="M67.6065574,105 C68.6592566,105 69,101.616486 69,100.375703 C69,99.1349196 64,101.260958 64,102.501742 C64,103.742525 66.5538581,105 67.6065574,105 Z" id="Oval-77-Copy-2" fill="#5A06FF"></path>
                        <path d="M74,106.376513 C71.3546009,104.32529 69.2778928,103.60191 67.7698758,104.206374 C66.2618587,104.810838 65.3385668,106.408713 65,109" id="Line-48" stroke="#5A06FF" stroke-width="3" fill="#FFFFFF" stroke-linecap="round"></path>
                        <path d="M76.0308099,70 C75.3436033,75.322697 75,78.454158 75,79.3943831 C75,80.8047208 85.1481681,79.8179434 87,82" id="Line-49" fill="#5A06FF"></path>
                        <circle id="Oval-78-Copy" fill="#212121" cx="76.5" cy="91.5" r="2.5"></circle>
                        <path d="M34,159.513269 C52.8182116,157.495577 66.5439654,157.495577 75.1772614,159.513269 C88.1272055,162.539806 84.2830679,171 79.5786624,171 C76.4423921,171 61.2495046,171 34,171" id="Rectangle-106" stroke="#5A06FF" stroke-width="3" fill="#FFFFFF" stroke-linecap="round"></path>
                        <path d="M74.3611791,116 C76.2337308,117.04156 82.1733499,118.276846 92.1800365,119.705856 C107.190066,121.849372 105.359247,130.569513 100.510267,130.569513 C97.8351963,130.569513 87.7717528,133.101336 72.3997788,131.428424 C70.2637216,131.19596 67.130462,129.688164 63,126.905035" id="Rectangle-106" stroke="#5A06FF" stroke-width="3" fill="#FFFFFF" stroke-linecap="round"></path>
                        <g id="Group-4" transform="translate(115.000000, 116.000000)" stroke="#5A06FF" stroke-linecap="round" stroke-width="3">
                            <ellipse id="Oval-80-Copy-4" fill="#FFFFFF" cx="31.2540984" cy="14.1704545" rx="9.74590164" ry="9.55681818"></ellipse>
                            <ellipse id="Oval-80-Copy-2" fill="#FFFFFF" cx="20.8360656" cy="14.5" rx="14.7868852" ry="14.5"></ellipse>
                            <ellipse id="Oval-80-Copy-3" fill="#FFFFFF" cx="14.7868852" cy="14.5" rx="14.7868852" ry="14.5"></ellipse>
                            <ellipse id="Oval-80-Copy-3" fill="#FFEE55" cx="14.7868852" cy="14.5" rx="8.73770492" ry="8.56818182"></ellipse>
                        </g>
                        <g id="Group-4-Copy" transform="translate(98.000000, 144.000000)" stroke="#5A06FF" stroke-linecap="round" stroke-width="3">
                            <ellipse id="Oval-80-Copy-2" fill="#FFFFFF" cx="20.4716981" cy="14.5" rx="14.5283019" ry="14.5"></ellipse>
                            <ellipse id="Oval-80-Copy-3" fill="#FFFFFF" cx="14.5283019" cy="14.5" rx="14.5283019" ry="14.5"></ellipse>
                            <ellipse id="Oval-80-Copy-3" fill="#FFEE55" cx="14.5283019" cy="14.5" rx="9.24528302" ry="9.22727273"></ellipse>
                        </g>
                        <g id="Group-4-Copy-2" transform="translate(129.000000, 143.000000)" stroke="#5A06FF" stroke-linecap="round" stroke-width="3">
                            <path d="M45.9352941,25.7045455 C52.0461624,25.7045455 57,20.8356421 57,14.8295455 C57,8.8234488 52.0461624,3.95454545 45.9352941,3.95454545 C44.7764034,3.95454545 37.0814445,4.8797339 36.0316751,5.20450107 C31.5459763,6.59224173 34.8705882,9.96247015 34.8705882,14.8295455 C34.8705882,19.2912059 32.1207191,22.6677002 36.0316751,24.3445268 C37.3854809,24.9249725 44.3639165,25.7045455 45.9352941,25.7045455 Z" id="Oval-80-Copy-5" fill="#FFFFFF"></path>
                            <ellipse id="Oval-80-Copy-3" fill="#FFFFFF" cx="35.5411765" cy="14.5" rx="10.0588235" ry="9.88636364"></ellipse>
                            <path d="M24.8117647,29 C32.9595891,29 39.5647059,22.5081289 39.5647059,14.5 C39.5647059,6.49187113 32.9595891,6.08805935e-14 24.8117647,6.08805935e-14 C23.9908085,6.08805935e-14 20.3209096,6.08805935e-14 13.802068,6.08805935e-14 C11.3065717,5.13479492 10.0588235,9.96812826 10.0588235,14.5 C10.0588235,18.5436835 11.3065717,23.3770168 13.802068,29 C19.8242053,29 23.4941042,29 24.8117647,29 Z" id="Oval-80-Copy-2" fill="#FFFFFF"></path>
                            <ellipse id="Oval-80-Copy-3" fill="#FFFFFF" cx="14.7529412" cy="14.5" rx="14.7529412" ry="14.5"></ellipse>
                            <ellipse id="Oval-80-Copy-3" fill="#FFEE55" cx="14.7529412" cy="14.5" rx="10.0588235" ry="9.88636364"></ellipse>
                        </g>
                        <g id="Group-82" transform="translate(91.000000, 0.000000)" stroke="#5A06FF" stroke-linecap="round" stroke-width="3">
                            <path d="M150.464676,84.8087026 C251.846512,84.8087026 358.108088,74.375 358.538627,36.3496575 C358.969167,-1.67568492 263.670317,-3.89126395 129.801641,4.92392857 C-4.06703481,13.7391211 3.31124712,39.8035442 3.31124712,51.4376409 C3.31124712,56.6471276 -1.50020667,65.452763 0.905520227,65.452763 C3.31124712,65.452763 12.7659868,61.3533826 16.1539391,61.6659551 C30.8222325,63.0192518 49.0828392,84.8087026 150.464676,84.8087026 Z" id="Oval-70"></path>
                        </g>
                    </g>
                </g>
            </g>
        </g>
    </g>
</svg>