<svg xmlns="http://www.w3.org/2000/svg" viewBox="0 0 38 37" fill="none">
  <path fill="#5A06FF" d="M18.8346 36.7738c13.1276 1.5776 18.5612-8.4518 18.5612-18.1168C37.3958 8.99206 28.4996 0 18.8346 0 9.16965 0 0 8.12953 0 17.7945c0 9.665 5.70703 17.4017 18.8346 18.9793z" opacity=".0957031"/>
  <path fill="#5A06FF" d="M30.3595 14.3619s-21.34926-.7238-23.69966 0c-2.3504.7237 2.25849 11.0704 3.23919 11.7716.91917.6572 13.36007 1.4816 15.73487.1699 2.3748-1.3117 7.0764-13.0826 4.7256-11.7965"/>
  <path stroke="#5A06FF" stroke-linecap="round" stroke-width="2" d="M30.3595 14.3619s-21.34926-.7238-23.69966 0c-2.3504.7237 2.25849 11.0704 3.23919 11.7716.91917.6572 13.36007 1.4816 15.73487.1699 2.3748-1.3117 7.0764-13.0826 4.7256-11.7965"/>
  <path stroke="#5A06FF" stroke-linecap="round" stroke-width="2" d="M21 14s-3.3913-5-4.0466-5C16.2982 9 12 14 12 14"/>
</svg>