<svg xmlns="http://www.w3.org/2000/svg" viewBox="0 0 39 38" fill="none">
  <path stroke="#02EBCD" stroke-width="2" d="M37.0612 19.3289c0 4.6683-1.3155 9.3374-4.1188 12.6256-2.7637 3.2418-7.0628 5.2506-13.3231 4.4983-6.3889-.7678-10.85444-3.0177-13.72305-6.1405-2.86674-3.1207-4.23091-7.2132-4.23091-11.8459 0-9.04143 8.64786-16.79452 17.83466-16.79452 4.5228 0 8.9181 2.10864 12.1954 5.40879 3.2773 3.30023 5.3658 7.72103 5.3658 12.24823z"/>
  <path fill="#fff" d="M31.3595 15.3619s-21.3493-.7238-23.69966 0c-2.3504.7237 2.25849 11.0704 3.23916 11.7716.9192.6572 13.3601 1.4816 15.7349.1699 2.3748-1.3117 7.0764-13.0826 4.7256-11.7965"/>
  <path stroke="#02EBCD" stroke-linecap="round" stroke-width="2" d="M31.3595 15.3619s-21.3493-.7238-23.69966 0c-2.3504.7237 2.25849 11.0704 3.23916 11.7716.9192.6572 13.3601 1.4816 15.7349.1699 2.3748-1.3117 7.0764-13.0826 4.7256-11.7965"/>
  <path stroke="#02EBCD" stroke-linecap="round" stroke-width="2" d="M22 15s-3.3913-5-4.0466-5C17.2982 10 13 15 13 15"/>
</svg>