<svg xmlns="http://www.w3.org/2000/svg" viewBox="0 0 24 23" fill="none">
  <path fill="#5A06FF" fill-rule="evenodd" d="M.548482.287565C1.23708-.32809 5.57465.206818 6.00016.739479c.42551.532661.22864 4.675581 0 5.010581-.22863.33501-5.463631.33501-5.721326 0C.0211385 5.41506-.140112.903219.548482.287565zM8.99979.287481c.28617-.3820603 5.74571-.28749978 6.00001 0 .2543.2875.2543 5.230139 0 5.462499-.2543.23236-5.71384.23236-6.00001 0-.28618-.23236-.28618-5.080438 0-5.462499zM18.0002.436531c.4677-.42653357 5.3708-.632051 5.7001 0 .3293.632049.3293 4.901879 0 5.313579-.3293.41171-5.2324.20013-5.7001 0-.4677-.20012-.4677-4.887046 0-5.313579zM17.9998 8.62491c.2359-.46778 4.9707-.30491 5.5283.27009.5575.575.5575 5.176 0 5.4799-.5576.3039-5.1172.3039-5.5283 0-.411-.3039-.2359-5.28221 0-5.74999zM18.0001 17.2501c.194-.2592 4.92-.575 5.4618 0 .5419.575.5419 5.2893 0 5.6141-.5418.3249-4.6523 0-5.4618-.4391-.8094-.4391-.1939-4.9158 0-5.175zM8.9998 17.2501c.57071-.2592 5.6083-.2592 6 0 .3917.2592.3917 5.3277 0 5.6141-.3917.2864-5.42929.0622-6-.242-.5707-.3042-.5707-5.1129 0-5.3721zM9.00006 8.625c.39282-.46777 5.74874-.46777 6.00004 0 .2512.46778.2512 5.5559 0 5.75-.2513.1941-5.81851.1941-6.00004 0-.18152-.1941-.39281-5.28222 0-5.75zM.334188 8.62506c.249141-.29423 4.953402-.46777 5.665782 0 .71238.46778.2168 5.46314 0 5.75004-.2168.2868-4.72477.2868-5.382891 0-.6581251-.2869-.5320314-5.4558-.282891-5.75004zM.594652 17.2501c.636328-.2592 5.405278-.575 5.405278 0s.68496 5.4782 0 5.6141c-.68497.1359-4.12823 0-5.001274-.4391-.873047-.4391-1.0403319-4.9158-.404004-5.175z" clip-rule="evenodd"/>
</svg>
