<svg xmlns="http://www.w3.org/2000/svg" viewBox="0 0 24 23" fill="none">
  <path fill="#D8D8D8" fill-rule="evenodd" d="M.548482.287565C1.23708-.32809 5.57465.206818 6.00016.739479c.42551.532661.22864 4.675581 0 5.010581-.22863.33501-5.463631.33501-5.721326 0C.0211385 5.41506-.140112.903219.548482.287565zM8.99979.287481c.28617-.3820603 14.43151-.28749978 14.68581 0 .2543.2875.2543 5.230139 0 5.462499-.1295.1183-2.8304.17427-7.3549.25126-4.5244.07698-7.19044-.1372-7.33091-.25126-.28618-.23236-.28618-5.080438 0-5.462499zM8.9998 17.2499c.29857-.1356 4.1887.505 7.8158.2593 3.8271-.2593 6.6041-.3829 6.7909-.2593.3917.2593.3917 5.3278 0 5.6141-.3917.2864-14.03599.0622-14.6067-.242-.5707-.3042-.5707-5.1128 0-5.3721zm.00026-8.62478c.18698-.22267 3.56384.25701 6.93294 0 4.5989-.35084 7.7091-.24512 7.8407 0 .2513.46777.2513 5.55598 0 5.74998-.2512.1941-14.59211.1941-14.77364 0-.18152-.194-.39281-5.28221 0-5.74998zM.334188 8.62506c.249141-.29423 4.953402-.46777 5.665782 0 .71238.46778.2168 5.46314 0 5.75004-.2168.2868-4.72477.2868-5.382891 0-.6581251-.2869-.5320314-5.4558-.282891-5.75004zm.260464 8.62504c.636328-.2592 5.405278-.575 5.405278 0s.68496 5.4782 0 5.6141c-.68497.1359-4.12823 0-5.001274-.4391-.873047-.4391-1.0403319-4.9158-.404004-5.175z" clip-rule="evenodd"/>
</svg>