<svg xmlns="http://www.w3.org/2000/svg" id="Layer_1" viewBox="0 0 298.1 179.3">
  <style>
    .st0{opacity:6.400000e-02;fill:#030303;enable-background:new}.st1{fill:#fff;stroke:#5a06ff;stroke-width:3;stroke-linecap:round}.st2,.st3,.st4{fill:#e2fdfa;stroke:#ff02ec;stroke-width:3}.st3,.st4{fill:#ff02ec;stroke-linecap:round}.st4{fill:#fff}.st5{fill:#ff02ec}.st6{fill:none;stroke:#5a06ff;stroke-width:3;stroke-linecap:round}
  </style>
  <path d="M40.5 179.3c26 0 53.5-3 53.5-14.6s-21-21-47-21-47 9.4-47 21 14.5 14.6 40.5 14.6z" class="st0"/>
  <g transform="translate(64 69.316)">
    <g transform="translate(0 43)">
      <path d="M-23.1 3.9c1.4 17.5 1.4 27.4 0 29.7-1.2 2-11.4 6.6-26.9 17.9-1.2.9-2.9.9-4.2 1.9-1.6 1.2-2.2 7.5-1.1 7.5.4 0 10.2 1.8 16.7 2 13.5.5 26.6 4.2 29.7-4.2 3.2-8.4 15.1-8.1 17.1-13.1 1.4-3.3.8-6.9-1.7-10.5V14.8" class="st1"/>
      <path d="M.2 28.6c1.3 2.7 2 4.6 2.1 5.9.1 1.3-.3 2.8-1.3 4.5m-42.3 13.2c-3.2 1.5-5 2.6-5.5 3.4-.5.8-.5 2.8 0 6.2m13.8-8.7c-3.2 1.5-5 2.6-5.5 3.4-.5.8-.5 2.8 0 6.2m13.8-9.5c-3.2 1.5-5 2.6-5.5 3.4-.5.8-.5 2.8 0 6.2m14.7-10c-3.2 1.5-5 2.6-5.5 3.4-.5.8-.5 2.8 0 6.2" class="st1"/>
      <ellipse cx="-8" cy="4" class="st2" rx="15.2" ry="3.3"/>
    </g>
    <g transform="translate(9)">
      <path d="M-43.4 11.2c3.5-2.3 59.8-6.1 63-2.9 3.2 3.1 6.4 35 0 38s-59.5 3-63 0-3.5-32.9 0-35.1z" class="st3"/>
      <path d="M-53.3 9.7c3.5-2.3 59.8-3.1 63 0 3.2 3.1 6.4 35 0 38s-59.5 3-63 0c-2.3-2-3.2-11.6-2.5-29-.7-4.5.2-7.5 2.5-9z" class="st4"/>
      <path d="M-41.8 1C-38.9.6 7 .5 9.7 1c2.6.5 5.2 5.8 0 6.3s-48.6.5-51.4 0c-1.9-.3-2.6-1.9-2-4.8-.7-.7 0-1.2 1.9-1.5z" class="st3"/>
      <path d="M-45.8 1C-42.9.6 3 .5 5.7 1c2.6.5 5.2 5.8 0 6.3s-48.6.5-51.4 0c-1.9-.3-2.6-1.9-2-4.8-.7-.7 0-1.2 1.9-1.5z" class="st4"/>
      <path d="M-50 15c2.9-3.1 26.3-3.1 29 0 2.7 3.1 2.7 25.4 0 27.8-2.7 2.5-26.6 2.5-29 0-2.4-2.4-2.9-24.7 0-27.8zm39.9.8c1.3-1.4 12-1.4 13.2 0 1.2 1.4 1.2 11.9 0 13.1C1.9 30-9 30-10.1 28.8s-1.3-11.6 0-13z" class="st1"/>
      <circle cx="-34.5" cy="29.2" r="9.5" class="st1"/>
      <circle cx="-38.5" cy="29.2" r="9.5" class="st1"/>
    </g>
    <circle cx="5.5" cy="39.2" r="3.5" class="st5"/>
  </g>
  <path d="M201 76.7c36.1 0 95.6-21.5 95.6-39S248.9 1.5 201 1.5c-48 0-91 29.9-91 47.5 0 7.9-7.2 21.2-3.6 21.2s17.8-6.2 22.9-5.7c22 2 60.9 12.2 71.7 12.2z" class="st6"/>
</svg>