<?xml version="1.0" encoding="UTF-8"?>
<svg width="71px" height="100px" viewBox="0 0 71 100" version="1.1" xmlns="http://www.w3.org/2000/svg" xmlns:xlink="http://www.w3.org/1999/xlink">
    <!-- Generator: Sketch 52.4 (67378) - http://www.bohemiancoding.com/sketch -->
    <title>Group 18</title>
    <desc>Created with Sketch.</desc>
    <g id="Page-1" stroke="none" stroke-width="1" fill="none" fill-rule="evenodd">
        <g id="Artboard" transform="translate(-606.000000, -860.000000)" fill="#FF02EC" fill-rule="nonzero">
            <g id="Group-18" transform="translate(603.000000, 859.000000)">
                <g id="Group-53">
                    <path d="M16.3055564,65.9905445 C18.5146954,65.9905445 24.9364611,53.1882731 21.9590016,35.2195649 C18.9815422,17.2508566 20.100376,2.72950406 15.9708446,0.935906957 C11.8413132,-0.85769014 8.65064137,15.9583911 8.65064137,35.2883574 C8.65064137,54.6183236 14.0964174,65.9905445 16.3055564,65.9905445 Z" id="Oval-44" transform="translate(15.691691, 33.397471) rotate(14.000000) translate(-15.691691, -33.397471) "></path>
                    <circle id="Oval-45" cx="6.5" cy="73.5" r="3.5"></circle>
                </g>
                <g id="Group-53-Copy" transform="translate(30.000000, 20.000000)">
                    <path d="M12.1134524,57.493885 C14.3225914,57.493885 22.0881576,50.0813032 19.1106982,32.1125949 C16.1332388,14.1438867 15.6664906,0.529145101 11.495356,1.56912575 C7.32422148,2.6091064 8.74060926,11.0406285 8.74060926,30.3705948 C8.74060926,49.700561 9.90431341,57.493885 12.1134524,57.493885 Z" id="Oval-44" transform="translate(14.145329, 29.503595) rotate(14.000000) translate(-14.145329, -29.503595) "></path>
                    <path d="M3.5,68.7695312 C5.43299662,68.7695312 7,66.4329966 7,64.5 C7,62.5670034 5.43299662,61 3.5,61 C1.56700338,61 0,62.5670034 0,64.5 C0,66.4329966 1.56700338,68.7695312 3.5,68.7695312 Z" id="Oval-45"></path>
                </g>
                <g id="Group-53-Copy-2" transform="translate(56.000000, 55.000000)">
                    <path d="M9.34273666,39.1561588 C10.943397,39.1561588 18.0890038,34.5970621 15.931647,22.0678826 C13.7742901,9.53870317 15.2244253,1.07436212 10.6365342,0.830345399 C6.04864315,0.58632868 6.89889937,6.7653392 6.89889937,20.2436935 C6.89889937,33.7220478 7.74207631,39.1561588 9.34273666,39.1561588 Z" id="Oval-44" transform="translate(11.585355, 19.989779) rotate(14.000000) translate(-11.585355, -19.989779) "></path>
                    <path d="M3.5,46 C4.88071187,46 6,44.4963478 6,43.2523881 C6,42.0084285 4.88071187,41 3.5,41 C2.11928813,41 0.961914062,42.0084285 0.961914062,43.2523881 C0.961914062,44.4963478 2.11928813,46 3.5,46 Z" id="Oval-45"></path>
                </g>
            </g>
        </g>
    </g>
</svg>