<?xml version="1.0" encoding="UTF-8"?>
<svg width="617px" height="309px" viewBox="0 0 617 309" version="1.1" xmlns="http://www.w3.org/2000/svg" xmlns:xlink="http://www.w3.org/1999/xlink">
    <!-- Generator: Sketch 52.4 (67378) - http://www.bohemiancoding.com/sketch -->
    <title>Group 120</title>
    <desc>Created with Sketch.</desc>
    <g id="Page-1" stroke="none" stroke-width="1" fill="none" fill-rule="evenodd">
        <g id="Group-120" transform="translate(1.000000, 2.000000)" fill-rule="nonzero">
            <g id="Group-123-Copy">
                <path d="M250,52.5788758 C250.730412,49.7344748 257.447901,48.3122742 270.152467,48.3122742 C273.563079,48.3122742 278.312547,48.1921602 286.026491,48.3122742 C289.516916,48.3666237 293.083302,45.6218769 299.459108,45.7525473 C303.29362,45.8311345 307.765001,47.978707 315.176664,48.3122742 C318.769749,48.4739837 320.437133,45.5305789 327.111452,45.7525473 C330.946098,45.8800764 341.488502,41.5090962 349.447823,42.0456727 C351.423487,42.1788618 356.971226,42.2586635 363.281263,42.9279428" id="Line-64-Copy" stroke="#5A06FF" stroke-width="3" stroke-linecap="round"></path>
                <path d="M193,44.2363481 C198.652261,44.2363481 202.659411,48.1669578 209.168312,50.3756739 C211.47158,51.1572597 215.738302,51.6987018 221.968479,52 L230.104169,29.4306641 L220.641013,32.1572266 L224.302807,21.0419922 L215.74087,19.4912109 L218.590251,7.41894531 L202.196284,14.0989761 L202.987305,7.41894531 L191.162109,12.9736486 L193,1.76681158 C180.683788,9.94054553 172.712594,17.0094912 169.08642,22.9736486 C168.322747,24.2297004 167.545678,23.0688878 166.755211,19.4912109 C161.422192,29.6447225 158.41634,36.1151001 157.737652,38.9023438 C154.45874,52.3682275 158.816021,54.4923811 160.243652,55.3720703 C171,62 167.720679,49.374419 174.464739,45.440273 C181.208799,41.5061271 187.433241,44.2363481 193,44.2363481 Z" id="Oval" fill="#212121"></path>
                <path d="M165.595179,57.5 C174.505824,53 169.758569,48.1887966 176,45.440273 C180.160954,43.607924 186.994287,43.127833 196.5,44" id="Line-80" stroke="#212121" stroke-width="3" stroke-linecap="round"></path>
                <path d="M221.5,52 C224.308052,46.724188 226.099451,42.4299172 226.874196,39.1171875 C228.036315,34.148093 231.762785,30.9785156 231.199785,29.6464844 C230.844523,28.8059514 221.966388,34.2038605 219.94424,32.0878906 C219.690644,31.8225291 224.960016,22.9736486 224.302807,21.453125 C223.419334,19.4091116 215.644836,21.5789999 215.74087,18.8271484 C215.912691,13.9036728 220.540162,6.78613281 219.94424,6.78613281 C214.115069,6.78613281 190.517201,22.9736486 190,22.9736486" id="Line-79" stroke="#212121" stroke-width="3" stroke-linecap="round"></path>
                <path d="M229.367347,54.5 L204.137738,47.1196289" id="Line-78" stroke="#212121" stroke-width="3" stroke-linecap="round"></path>
                <path d="M199,62 C202.313708,62 205,57.9705627 205,53 C205,48.0294373 202.313708,44 199,44 C195.686292,44 193,44.0953552 193,49.065918" id="Oval" stroke="#212121" stroke-width="3" stroke-linecap="round"></path>
                <path d="M186,105.176822 C192.739185,106.964117 198.783983,108.729052 203,108.721531 C207.216017,108.714011 216.244749,105.296413 224.461775,96.2956854 C227.689547,92.7600626 235.742105,88.0655902 240.712847,85.3945312 C242.488395,84.4404298 243.251248,81.2989051 244.545443,80.0470549 C257,68 254.96093,59.8252197 254.96093,58.2568359 C254.96093,58.0071804 251.05933,59.8737474 249.728881,58.2568359 C249.14122,57.5426448 250.485724,54.6836773 250.329954,52.5788758 C250.133065,49.9184577 248.485697,48 248.019402,48 C246.309923,48 242.72727,57.1454902 242.1564,56.934082 C240.402774,56.284668 241.390306,49.0347864 241.179944,49.2705078 C240.876479,49.6105557 239.014742,53.6888043 236.840468,56.434082 C234.984135,58.7779226 234.600271,56.434082 234.056075,56.434082 C230.561011,56.434082 236.527831,49.223692 235.381219,49.2705078 C232.847343,49.3739651 220.776202,62.6022208 217.919159,63.5732422 C210.462354,66.1075811 207.92259,57.5834961 206.466607,59.8737474 C205.010625,62.1639987 207.551941,62.0505107 204.725887,62.8033735 C201.289919,63.7187178 207.508249,68.9895696 205,69.6556971 C201.480044,70.5905082 191.325066,73.3125 186,76.0966797 C180.674934,78.8808594 175,78.5296234 175,84.3286133 C175,90.1276032 176.616351,102.68819 186,105.176822 Z" id="Oval" fill="#CBCBCB"></path>
                <path d="M175.089973,83.5 C181.649049,78.1972495 187.006981,74.9172472 191.163769,73.6599932 C194.039106,72.7903242 201.651183,72.2369931 214,72" id="Line-76" stroke="#CBCBCB" stroke-width="3" stroke-linecap="round"></path>
                <circle id="Oval" fill="#212121" cx="174.5" cy="68.5" r="2.5"></circle>
                <path d="M46.5,183.000626 C44.5050491,185.568639 43.3192327,187.373117 42.9425509,188.414063 C41.40627,192.659514 44.7329102,194.150391 41,195.18457 C38.5113932,195.874023 37.2102941,192.028809 37.0967026,183.648926" id="Line-75" stroke="#212121" stroke-width="3" stroke-linecap="round"></path>
                <path d="M22,183 C22.0710439,192.333333 23.0550969,197 24.952159,197 C26.0683332,197 26.8897724,195.329961 27.9525373,192.16748 C28.2215451,191.366991 29.1948924,190.680412 29.3853283,189.655613 C29.6092736,188.450488 29.6092736,186.232159 29.3853283,183.000626" id="Line-73" stroke="#212121" stroke-width="3" stroke-linecap="round"></path>
                <path d="M37.5,166.5 C35.1696913,169.432236 33.0906874,171.598903 31.2629883,173 C25.861689,177.140586 17.285946,177.755475 20.4125977,181.813528 C21.3783926,183.067025 26.1736873,183 29.7345487,183 C33.2954102,183 33.4263875,176.849951 39.222168,175.418457 C40.9136651,175.000676 43.9065036,175.888046 48.2006836,178.080566" id="Line-72" stroke="#212121" stroke-width="3" stroke-linecap="round"></path>
                <path d="M169.092947,100.357741 C164.361814,108.113763 160.476426,112.827849 157.436785,114.5 C150.258144,118.449075 137.405561,120.569354 134.056815,122.618625 C125.984897,127.55825 121.182994,132.988708 116.792072,135 C107.352037,139.324073 95.7736355,137.162431 90.9145415,139.339844 C81.9685513,143.348639 68.2624409,149.434105 64.4462891,151 C58.6459563,153.380071 47.360514,154.625977 42.0916109,156.424805 C38.5790089,157.624023 34.7565576,159.149089 30.6242569,161 C23.5973569,160.607775 18.7734948,160.607775 16.1526708,161 C9.33877222,162.019749 -0.943141185,164.034805 1,167.864395 C2.94314119,171.693985 5.4122566,167.52448 10.6569954,168.17041 C12.2115088,168.36186 14.4481228,167.602998 17.66056,168.17041 C19.3087777,168.461535 22.3967043,167.118825 26.1779847,168.17041 C27.4107329,168.513241 29.3905136,169.789771 32.1173269,172" id="Line-71" stroke="#212121" stroke-width="3" stroke-linecap="round"></path>
                <path d="M182.386574,139.339844 C173.487631,145.28333 166.769348,149.170049 162.231724,151 C152.330834,154.99287 139.307504,157.05461 134.056815,159.448165 C119.51845,166.075561 115.857949,169.780782 110,171.088013 C98.7869184,173.590268 83.953585,174.06093 65.5,172.5 C60.5783249,177.081962 56.4408003,179.915296 53.0874261,181 C49.7340519,182.084704 45.1122992,182.084704 39.222168,181" id="Line-70" stroke="#212121" stroke-width="3" stroke-linecap="round"></path>
                <path d="M170,68 C170.200442,67.0823867 171.386803,65.8579401 173.559082,64.3266602 C174.676451,63.5390061 177.885681,64.0933039 179.728027,63 C180.887603,62.311873 182.373605,60.6452063 184.186035,58" id="Line-67" stroke="#212121" stroke-width="3" stroke-linecap="round"></path>
                <path d="M165.595179,65.5834961 C165.750394,64.0188888 166.914141,62.4709453 169.08642,60.9396654 C169.831332,60.4145627 172.818151,59.4346742 178.046875,58" id="Line-67-Copy" stroke="#212121" stroke-width="3" stroke-linecap="round"></path>
                <path d="M416.611534,85.3945312 C415.689274,88.5540506 415.191853,90.9225402 415.11927,92.5 C414.992387,95.2575778 414.030404,98.4008793 413.999088,100.8125 C413.965763,103.378824 417.385024,108.038904 417.488855,110.182129 C417.9976,120.683394 411.802676,124.603516 418.196429,124.603516 C424.590181,124.603516 421.221654,112.432477 424.176225,103.967773 C424.565236,102.853277 424.823753,108.681028 429.253263,112 C431.676145,113.815432 439.144314,113.594238 442.183105,115.293457 C449.883489,119.599326 451.399518,127.004883 454.198294,124.002441 C455.382991,122.731535 454.454948,117.393378 447.19936,109.513672 C445.186929,107.328134 439.369404,106.057258 437,103.276855 C435.30516,101.288027 433.459085,97.6957423 431.461775,92.5" id="Line-65-Copy" stroke="#212121" stroke-width="3" stroke-linecap="round"></path>
                <path d="M345.046515,66.4507847 C349.706837,67.7605424 353.377196,69.1242782 356.057592,70.5419922 C358.993263,72.0947266 357.705278,77.1691252 375.236072,80.0470549 C386.923269,81.9656747 400.443048,83.9499897 415.795409,86" id="Line-63" stroke="#212121" stroke-width="3" stroke-linecap="round"></path>
                <path d="M295,88.4406501 C298.91326,86.3714154 322.87645,85.8469102 334.116706,80 C345.046515,74.314577 341.450871,62.6627079 350.966667,52 C352.148521,50.6757002 356.159632,47.868403 363,43.5781082" id="Line-62" stroke="#5A06FF" stroke-width="3" stroke-linecap="round"></path>
                <path d="M321.517019,123.859953 C311.17234,115.28185 305.550785,108.841878 304.652354,104.540039 C303.753923,100.2382 303.369805,94.8915202 303.5,88.5" id="Line-60" stroke="#5A06FF" stroke-width="3" stroke-linecap="round"></path>
                <path d="M584.242188,244.199219 C583.026303,244.000978 567.785666,238.845214 541.455078,240.24887 C523.614098,241.199953 498.603777,249.417108 477.410156,247.857422 C465.805923,247.00344 444.827055,236.480865 434.869141,235.867187 C411.406613,234.421259 399.690742,232.212421 396.290379,232.212421 C388.710841,232.212421 375.180288,232.141614 355.698719,232" id="Line-53" stroke="#212121" stroke-width="3" stroke-linecap="round"></path>
                <path d="M462.936523,211.882812 C459.382854,211.303414 425.624419,193.421877 419.046715,191.301832 C414.661579,189.888469 407.700597,189.385189 398.163769,189.791992" id="Line-53-Copy" stroke="#212121" stroke-width="3" stroke-linecap="round"></path>
                <path d="M583.703125,243.905273 C587.579236,245.077785 597.033159,248.030273 605.5,248.030273 C606.362392,248.030273 609.363281,246.928711 610.587402,244.936523 C611.811523,242.944336 610.009114,242.097898 610.587402,240.925293 C611.096048,239.893904 613.751953,239.81176 614.307129,237.689453 C614.862305,235.567146 612.326924,233.915694 612.326924,232.713379 C612.326924,231.27877 614.106323,230.531483 614.307129,229.344238 C614.591443,227.663255 611.999646,226.616782 611.487305,225.138672 C611.011905,223.767139 612.672326,221.945392 611.487305,220.855469 C606.141528,215.93869 596.848718,219.831771 583.703125,216.430664 C570.557532,213.029558 567.972656,205.68457 559.600586,205.68457 C551.228516,205.68457 554.720205,218.595197 540.911133,216.430664 C509.604492,211.523437 483.916978,203.348633 480.498047,203.348633 C475.777943,203.348633 467.917266,205.072917 456.916016,208.521484" id="Line-53-Copy-2" stroke="#212121" stroke-width="3" stroke-linecap="round"></path>
                <path d="M496.50293,206.95752 C492.949261,206.378121 467.080155,193.301832 460,193.301832 C455.279896,193.301832 449.098581,188.850961 441.456055,179.949219" id="Line-53-Copy-3" stroke="#212121" stroke-width="3" stroke-linecap="round"></path>
                <path d="M390.5,232 C373.576789,241.333333 362.095986,246 356.057592,246 C354.238058,246 360.153837,244.398414 353,240.221699 C351.413598,239.29549 347.301377,241.749593 344.754451,240.221699 C342.220692,238.701705 344.744565,224.848555 337.011068,222.929688 C333.602649,222.083976 321.097225,226.751272 313.267578,222.929688 C308.29975,220.504932 308.781636,221.063989 298.476386,213.623884 C294.992601,211.108688 288.597481,213.219895 280.732138,207.301832 C275.280898,203.200196 264.97647,193.099585 249.818854,177" id="Line-55" stroke="#5A06FF" stroke-width="3" stroke-linecap="round"></path>
                <path d="M447.037109,178.896484 C439.113742,172.561217 353.655586,120.78567 326,123 C319.215102,123.543254 306.837497,126.876587 288.867187,133" id="Line-56" stroke="#5A06FF" stroke-width="3" stroke-linecap="round"></path>
                <path d="M174.464739,90.2734375 C171.261266,93.0566384 158.234425,119.62207 172.117213,133 C173.747067,134.570583 177.191083,135.338512 179.972389,137.396484 C187.975229,143.318026 211.470533,147.898681 223.370837,154.952945 C228.264827,157.854005 225.243901,165.690462 228.743307,168.506836 C232.356306,171.414632 237.566821,171.553753 241.095448,173 C247.551803,175.646209 251.631724,178.034089 253,177 C254.447688,175.905895 267.463514,169.002977 272.234375,165 C274.178475,163.368809 298.822774,150.946231 302,148 C305.698938,144.569987 313.881117,139.262914 315.452148,133 C315.813206,131.560645 314.379287,129.386817 311.150391,126.478516" id="Line-57" stroke="#5A06FF" stroke-width="3" stroke-linecap="round"></path>
                <path d="M175.5,83.5 C174.953298,87.0498848 174.953298,89.6193835 175.5,91.2084961 C176.046702,92.7976087 177.537499,94.5614433 179.972389,96.5 C178.690341,99.7115885 181.339518,102.233236 187.919922,104.064941 C194.500326,105.896647 200.712545,104.875 206.556581,101" id="Line-68" stroke="#CBCBCB" stroke-width="3" stroke-linecap="round"></path>
                <path d="M202.987305,103.182617 C206.866515,104.394206 210.845092,103 214.923034,99 C221.039948,93 219.9682,98.2890625 222.464108,95.3945313 C224.960016,92.5 225.812836,90.7631626 233.458734,85.3945313 C234.498646,84.6643482 239.373694,85.7689978 241.095448,84.6494141 C241.588668,84.3286945 254.228516,70.8330078 255.050903,68 C255.873291,65.1669922 255.739296,59.4994663 255.739296,58.6494141 C255.739296,56.3591628 249.611176,61.3228732 249.818854,60.2802734 C251.855574,50.0554012 249.119629,49.0151891 249.119629,48 C249.119629,45.440273 242.246374,60.9396654 241.832471,58.6494141 C241.418568,56.3591628 242.887731,50.2888126 241.269917,49.6665039 C240.661831,49.4325972 238.699202,60.3767068 232.346211,60.9396654 C229.965199,61.1506544 237,50.3496094 235.841274,50.3496094 C234.682549,50.3496094 227.151959,61.5016754 218.590251,64.8681641 C215.470665,66.0947948 207.110016,60.4974116 206.441441,60.4974116 C204.772456,60.4974116 204.200605,63.5501734 204.725887,69.6556971" id="Line-69" stroke="#CBCBCB" stroke-width="3" stroke-linecap="round"></path>
                <path d="M363.471467,42.9482715 C371.579083,43.8214198 380.892881,45.6737251 385.495086,49.8591492 C393.723674,57.3425477 413.064435,65.027118 415.465454,66.8122742 C416.001867,67.2110968 419.28789,65.4585232 421.59308,68.6081727 C422.727734,70.1584848 432.44161,72.5431503 435.086404,76.4743836 C435.730688,77.4320499 435.075976,83.195557 436.670046,88.8122742 C437.32904,91.1342484 442.591091,96.1950687 444.632985,101.124774 C445.244644,102.601492 444.997867,104.601492 443.892655,107.124774" id="Line-64" stroke="#212121" stroke-width="3" stroke-linecap="round"></path>
                <path d="M162.843789,57.5 C162.027702,60.9119902 162.027702,63.3729277 162.843789,64.8828125 C163.659877,66.3926973 165.740754,67.7816947 169.08642,69.0498047 C167.961115,78.6832682 168.971379,83.5 172.117213,83.5 C174.279115,83.5 173.407294,82.4508934 174.464739,80.0470549 C174.785584,79.3176941 175.979629,77.9237539 178.046875,75.8652344" id="Line-66" stroke="#212121" stroke-width="3" stroke-linecap="round"></path>
                <path d="M39.5,181.813528 C37.0650095,183.327491 35.44433,184.389648 34.6379617,185 C32.8079904,186.385131 33.7398691,190.189307 33.2954102,191 C31.9068508,193.532732 33.1004959,193.805383 32.1954187,194.805664 C30.5548387,196.618815 28.8230325,196.933268 27,195.749023" id="Line-74" stroke="#212121" stroke-width="3" stroke-linecap="round"></path>
                <path d="M165.855824,57.5 C161.127515,58.6870117 153.62963,53.480957 157.436785,39.0439453 C158.281018,35.8425509 169.753143,10.3798828 168.451172,20.9370117 C167.1492,31.4941406 191.3125,0.05966279 193,0.05966279 C193.741683,0.05966279 190.196958,8.41723567 190.615234,12.9736486 C190.793748,14.9182556 200.802694,6.78613281 202.987305,6.78613281 C205.171915,6.78613281 201.671915,15.314962 202.987305,15" id="Line-77" stroke="#212121" stroke-width="3" stroke-linecap="round"></path>
                <path d="M452.283203,188 C450.753255,181.570313 447.963542,178.355469 443.914062,178.355469 C437.839844,178.355469 403.965614,189.400012 398.163769,190 C395.536074,190.271739 381.470206,189.089741 376.092947,193.791992 C368.277971,200.625952 354,229 354,232 C354,234 356.36849,238.304036 361.105469,244.912109" id="Line-54" stroke="#5A06FF" stroke-width="3" stroke-linecap="round"></path>
                <path d="M175,91.6054688 C175.847045,91.5907593 176.86267,91.1467488 178.046875,90.2734375 C179.23108,89.4001262 181.414238,87.6423137 184.596347,85" id="Line-81" stroke="#212121" stroke-width="3" stroke-linecap="round"></path>
            </g>
            <path d="M551.043945,240.376465 C554.175265,245.78951 556.924289,249.638631 559.291016,251.923828 C561.44852,254.00701 572.437547,253.090816 574.462891,255.044922 C579.49296,259.898067 577.220552,259.930102 581.047852,264.119629 C585.801696,269.323392 603.840103,267.827498 607.566825,272.26208 C609.396237,274.438975 612.5891,276.241767 613.171387,278.634766 C613.591508,280.361319 611.590073,282.686363 611.771973,284.300781 C611.93732,285.768291 614.7047,287.80516 614.357422,289.215332 C614.010144,290.625504 611.477972,291.192064 610.96875,292.550293 C610.534827,293.707681 611.640675,295.75989 610.96875,296.907715 C610.296825,298.05554 606.432074,297.283743 605.748047,298.27002 C605.118318,299.178004 608.697839,301.469478 606.689453,303.654297 C604.681068,305.839115 602.803711,305.067143 600.773438,303.654297 C598.743164,302.241451 592.328118,296.864757 570.865234,284.300781 C568.179705,282.728722 565.509951,283.154873 553.263672,276.408203 C549.325836,274.238787 550.557318,269.908021 541.625,264.894531 C535.670121,261.552204 521.961788,255.515347 500.5,246.783959" id="Line-41" stroke="#212121" stroke-width="3" stroke-linecap="round"></path>
            <path d="M606.5,298.5 C604.661968,297.901215 603.341737,297.401215 602.539307,297 C601.736876,296.598785 601.057107,296.098785 600.5,295.5" id="Line-42" stroke="#212121" stroke-width="3" stroke-linecap="round"></path>
            <path d="M610.5,292.5 C609.105506,292.075536 608.105506,291.742202 607.5,291.5 C606.894494,291.257798 606.227827,290.924464 605.5,290.5" id="Line-42-Copy" stroke="#212121" stroke-width="3" stroke-linecap="round"></path>
            <path d="M611.5,283.5 C610.317014,283.089822 609.469032,282.756489 608.956055,282.5 C608.443077,282.243511 607.957726,281.910178 607.5,281.5" id="Line-42-Copy-2" stroke="#212121" stroke-width="3" stroke-linecap="round"></path>
            <path d="M609.496094,241.130615 C608.625651,241.623128 607.958984,241.869385 607.496094,241.869385 C607.033203,241.869385 605.867839,241.623128 604,241.130615" id="Line-43" stroke="#212121" stroke-width="3" stroke-linecap="round"></path>
            <path d="M610.496094,224.775204 C609.625651,225.267717 608.958984,225.513973 608.496094,225.513973 C608.033203,225.513973 606.867839,225.267717 605,224.775204" id="Line-43-Copy" stroke="#212121" stroke-width="3" stroke-linecap="round"></path>
            <path d="M611.5,232.5 C609.925384,233.051343 608.676035,233.384351 607.751953,233.499023 C606.827872,233.613696 605.578523,233.280688 604.003906,232.5" id="Line-44" stroke="#212121" stroke-width="3" stroke-linecap="round"></path>
        </g>
    </g>
</svg>
