<svg width="431" height="250" viewBox="0 0 431 250" fill="none" xmlns="http://www.w3.org/2000/svg">
<g clip-path="url(#clip0)">
<path d="M251 54.5789C251 54.5789 252.096 50.3123 271.152 50.3123C274.563 50.3123 279.313 50.1922 287.026 50.3123C290.517 50.3666 294.083 47.6219 300.459 47.7525C304.294 47.8311 308.765 49.9787 316.177 50.3123C319.77 50.474 321.437 47.5306 328.111 47.7525C331.946 47.8801 342.489 43.5091 350.448 44.0457C352.423 44.1789 357.971 44.2587 364.281 44.9279" stroke="#5A06FF" stroke-width="3" stroke-linecap="round"/>
<path d="M194 46.2363C199.652 46.2363 203.659 50.1669 210.168 52.3756C213.623 53.548 222.969 54 222.969 54L231.104 31.4306L221.641 34.1572L225.303 23.042L216.741 21.4912L219.59 9.41892L203.196 16.0989L203.987 9.41892L192.162 14.9736L194 3.76678C194 3.76678 175.526 16.0274 170.086 24.9736C168.941 26.8577 167.755 21.4912 167.755 21.4912C167.755 21.4912 159.756 36.7215 158.738 40.9023C155.459 54.3682 159.816 56.4924 161.244 57.372C172 64 168.721 51.3744 175.465 47.4402C182.209 43.5061 188.433 46.2363 194 46.2363Z" fill="#212121"/>
<path d="M166.595 59.5C175.506 55 170.759 50.1888 177 47.4403C183.241 44.6918 197.5 46 197.5 46" stroke="#212121" stroke-width="3" stroke-linecap="round"/>
<path d="M222.5 54C222.5 54 226.712 46.0863 227.874 41.1172C229.036 36.1481 232.763 32.9785 232.2 31.6465C231.845 30.806 222.966 36.2039 220.944 34.0879C220.691 33.8225 225.96 24.9736 225.303 23.4531C224.419 21.4091 216.645 23.579 216.741 20.8271C216.913 15.9037 221.54 8.78613 220.944 8.78613C215.115 8.78613 191.517 24.9736 191 24.9736" stroke="#212121" stroke-width="3" stroke-linecap="round"/>
<path d="M230.367 56.5L205.138 49.1196" stroke="#212121" stroke-width="3" stroke-linecap="round"/>
<path d="M200 64C203.314 64 206 59.9706 206 55C206 50.0294 203.314 46 200 46C196.686 46 194 46.0954 194 51.0659" stroke="#212121" stroke-width="3" stroke-linecap="round"/>
<path d="M187 107.177C193.739 108.964 199.784 110.729 204 110.722C208.216 110.714 217.245 107.296 225.462 98.2957C228.69 94.7601 236.742 90.0656 241.713 87.3945C243.488 86.4404 244.251 83.2989 245.545 82.0471C258 70 255.961 61.8252 255.961 60.2568C255.961 60.0072 252.059 61.8737 250.729 60.2568C250.141 59.5426 251.486 56.6837 251.33 54.5789C251.133 51.9185 249.486 50 249.019 50C247.31 50 243.727 59.1455 243.156 58.9341C241.403 58.2847 242.39 51.0348 242.18 51.2705C241.876 51.6106 240.015 55.6888 237.84 58.4341C235.984 60.7779 235.6 58.4341 235.056 58.4341C231.561 58.4341 237.528 51.2237 236.381 51.2705C233.847 51.374 221.776 64.6022 218.919 65.5732C211.462 68.1076 208.923 59.5835 207.467 61.8737C206.011 64.164 208.552 64.0505 205.726 64.8034C202.29 65.7187 208.508 70.9896 206 71.6557C202.48 72.5905 192.325 75.3125 187 78.0967C181.675 80.8809 176 80.5296 176 86.3286C176 92.1276 177.616 104.688 187 107.177Z" fill="#CBCBCB"/>
<path d="M176.09 85.5C176.09 85.5 185.928 77.5459 192.164 75.66C196.477 74.3555 215 74 215 74" stroke="#CBCBCB" stroke-width="3" stroke-linecap="round"/>
<path d="M175.5 73C176.881 73 178 71.8807 178 70.5C178 69.1193 176.881 68 175.5 68C174.119 68 173 69.1193 173 70.5C173 71.8807 174.119 73 175.5 73Z" fill="#212121"/>
<path d="M47.5 185.001C47.5 185.001 44.5076 188.853 43.9425 190.414C42.4062 194.659 45.7329 196.15 42 197.185C38.2671 198.219 38.0967 185.649 38.0967 185.649" stroke="#212121" stroke-width="3" stroke-linecap="round"/>
<path d="M23 185C23 185 23.1066 199 25.9522 199C27.0683 199 27.8898 197.33 28.9525 194.167C29.2215 193.367 30.1949 192.68 30.3853 191.656C30.7212 189.848 30.3853 185.001 30.3853 185.001" stroke="#212121" stroke-width="3" stroke-linecap="round"/>
<path d="M38.5 168.5C38.5 168.5 35.0045 172.898 32.263 175C26.8617 179.141 18.2859 179.755 21.4126 183.814C22.3784 185.067 27.1737 185 30.7346 185C34.2954 185 34.4264 178.85 40.2222 177.418C42.7594 176.792 49.2007 180.081 49.2007 180.081" stroke="#212121" stroke-width="3" stroke-linecap="round"/>
<path d="M170.093 102.358C170.093 102.358 162.996 113.992 158.437 116.5C151.258 120.449 138.406 122.569 135.057 124.619C126.985 129.558 122.183 134.989 117.792 137C108.352 141.324 96.7736 139.162 91.9145 141.34C82.9685 145.349 69.2624 151.434 65.4462 153C59.6459 155.38 48.3605 156.626 43.0916 158.425C37.8227 160.224 31.6242 163 31.6242 163C31.6242 163 21.0839 162.412 17.1526 163C10.3387 164.02 0.0568169 166.035 1.99996 169.864C3.9431 173.694 6.41222 169.524 11.657 170.17C13.2115 170.362 15.4481 169.603 18.6605 170.17C20.3087 170.462 23.3967 169.119 27.1779 170.17C29.0271 170.685 33.1173 174 33.1173 174" stroke="#212121" stroke-width="3" stroke-linecap="round"/>
<path d="M183.387 141.34C183.387 141.34 170.038 150.255 163.232 153C153.331 156.993 140.308 159.055 135.057 161.448C120.518 168.076 116.858 171.781 111 173.088C94.1804 176.841 66.5 174.5 66.5 174.5C66.5 174.5 59.1175 181.373 54.0874 183C49.0574 184.627 40.2222 183 40.2222 183" stroke="#212121" stroke-width="3" stroke-linecap="round"/>
<path d="M171 70C171 70 171.301 68.6236 174.559 66.3267C175.676 65.539 178.886 66.0933 180.728 65C182.467 63.9678 185.186 60 185.186 60" stroke="#212121" stroke-width="3" stroke-linecap="round"/>
<path d="M166.595 67.5835C166.595 67.5835 166.828 65.2366 170.086 62.9397C171.204 62.152 179.047 60 179.047 60" stroke="#212121" stroke-width="3" stroke-linecap="round"/>
<path d="M417.611 87.3945C417.611 87.3945 416.228 92.1338 416.119 94.5C415.992 97.2576 415.03 100.401 414.999 102.812C414.966 105.379 418.385 110.039 418.489 112.182C418.998 122.683 412.803 126.604 419.196 126.604C425.59 126.604 422.222 114.432 425.176 105.968C425.565 104.853 425.824 110.681 430.253 114C432.676 115.815 440.144 115.594 443.183 117.293C450.883 121.599 452.399 129.005 455.198 126.002C456.383 124.732 455.455 119.393 448.199 111.514C446.187 109.328 440.369 108.057 438 105.277C435.458 102.294 432.462 94.5 432.462 94.5" stroke="#212121" stroke-width="3" stroke-linecap="round"/>
<path d="M346.046 68.4508C346.046 68.4508 353.037 70.4154 357.057 72.542C359.993 74.0947 358.705 79.1691 376.236 82.0471C393.767 84.925 416.795 88 416.795 88" stroke="#212121" stroke-width="3" stroke-linecap="round"/>
<path d="M296 90.4407C299.913 88.3714 323.876 87.8469 335.117 82C346.047 76.3146 342.451 64.6627 351.967 54C353.739 52.0136 364 45.5781 364 45.5781" stroke="#5A06FF" stroke-width="3" stroke-linecap="round"/>
<path d="M322.517 125.86C322.517 125.86 307 112.993 305.652 106.54C304.305 100.087 304.5 90.5 304.5 90.5" stroke="#5A06FF" stroke-width="3" stroke-linecap="round"/>
<path d="M418.013 236.917C414.459 236.337 408.66 234.212 397.29 234.212C385.921 234.212 356.699 234 356.699 234" stroke="#212121" stroke-width="3" stroke-linecap="round"/>
<path d="M454.086 209.302C450.532 208.722 426.624 195.422 420.047 193.302C413.469 191.182 399.164 191.792 399.164 191.792" stroke="#212121" stroke-width="3" stroke-linecap="round"/>
<path d="M391.5 234C391.5 234 366.115 248 357.058 248C355.238 248 361.154 246.398 354 242.222C352.414 241.295 348.301 243.75 345.754 242.222C343.221 240.702 345.745 226.849 338.011 224.93C334.603 224.084 322.097 228.751 314.268 224.93C309.3 222.505 309.782 223.064 299.476 215.624C295.993 213.109 289.597 215.22 281.732 209.302C273.555 203.149 250.819 179 250.819 179" stroke="#5A06FF" stroke-width="3" stroke-linecap="round"/>
<path d="M412.351 154C404.428 147.665 354.656 122.786 327 125C316.823 125.815 289.867 135 289.867 135" stroke="#5A06FF" stroke-width="3" stroke-linecap="round"/>
<path d="M175.465 92.2734C172.261 95.0566 159.234 121.622 173.117 135C174.747 136.571 178.191 137.339 180.972 139.396C188.975 145.318 212.47 149.899 224.371 156.953C229.265 159.854 226.244 167.69 229.743 170.507C233.356 173.415 238.567 173.554 242.095 175C248.552 177.646 252.632 180.034 254 179C255.448 177.906 268.463 171.003 273.234 167C275.178 165.369 299.823 152.946 303 150C306.699 146.57 314.881 141.263 316.452 135C316.994 132.841 312.15 128.479 312.15 128.479" stroke="#5A06FF" stroke-width="3" stroke-linecap="round"/>
<path d="M176.5 85.5C176.5 85.5 175.68 90.8248 176.5 93.2085C177.32 95.5922 180.972 98.5 180.972 98.5C180.972 98.5 179.049 103.317 188.92 106.065C198.79 108.812 207.556 103 207.556 103" stroke="#CBCBCB" stroke-width="3" stroke-linecap="round"/>
<path d="M203.987 105.183C203.987 105.183 209.806 107 215.923 101C222.04 95 220.968 100.289 223.464 97.3945C225.96 94.5 226.813 92.7632 234.459 87.3945C235.499 86.6644 240.374 87.769 242.095 86.6494C242.589 86.3287 255.229 72.833 256.051 70C256.873 67.167 256.739 61.4995 256.739 60.6494C256.739 58.3592 250.611 63.3229 250.819 62.2803C252.856 52.0554 250.12 51.0152 250.12 50C250.12 47.4403 243.246 62.9397 242.832 60.6494C242.419 58.3592 243.888 52.2888 242.27 51.6665C241.662 51.4326 239.699 62.3767 233.346 62.9397C230.965 63.1507 238 52.3496 236.841 52.3496C235.683 52.3496 228.152 63.5017 219.59 66.8682C216.471 68.0948 208.11 62.4974 207.441 62.4974C204.938 62.4974 205.726 71.6557 205.726 71.6557" stroke="#CBCBCB" stroke-width="3" stroke-linecap="round"/>
<path d="M364.471 44.9482C372.579 45.8214 381.893 47.6737 386.495 51.8591C394.724 59.3425 414.064 67.0271 416.465 68.8122C417.002 69.2111 420.288 67.4585 422.593 70.6081C423.728 72.1585 433.442 74.5431 436.086 78.4744C436.731 79.432 436.076 85.1955 437.67 90.8122C438.329 93.1342 443.591 98.195 445.633 103.125C446.55 105.34 444.893 109.125 444.893 109.125" stroke="#212121" stroke-width="3" stroke-linecap="round"/>
<path d="M163.844 59.5C163.844 59.5 162.62 64.618 163.844 66.8828C165.068 69.1476 170.086 71.0498 170.086 71.0498C170.086 71.0498 168.398 85.5 173.117 85.5C175.279 85.5 174.407 84.4509 175.465 82.0471C175.946 80.953 179.047 77.8652 179.047 77.8652" stroke="#212121" stroke-width="3" stroke-linecap="round"/>
<path d="M40.5 183.814C40.5 183.814 36.8475 186.084 35.638 187C33.808 188.385 34.7399 192.189 34.2954 193C32.9069 195.533 34.1005 195.805 33.1954 196.806C30.7345 199.525 28 197.749 28 197.749" stroke="#212121" stroke-width="3" stroke-linecap="round"/>
<path d="M166.856 59.5C162.128 60.687 154.63 55.481 158.437 41.044C159.281 37.8426 170.753 12.3799 169.451 22.937C168.149 33.4942 192.313 2.05969 194 2.05969C194.742 2.05969 191.197 10.4173 191.615 14.9737C191.794 16.9183 201.803 8.78616 203.987 8.78616C206.172 8.78616 202.672 17.315 203.987 17" stroke="#212121" stroke-width="3" stroke-linecap="round"/>
<path d="M445.223 185C445.223 185 408.834 191 399.164 192C396.536 192.272 382.47 191.09 377.093 195.792C369.278 202.626 355 231 355 234C355 237 361.064 242.222 361.064 242.222" stroke="#5A06FF" stroke-width="3" stroke-linecap="round"/>
<path d="M176 93.6055C176 93.6055 177.271 93.5834 179.047 92.2734C180.823 90.9635 185.596 87 185.596 87" stroke="#212121" stroke-width="3" stroke-linecap="round"/>
</g>
<defs>
<clipPath id="clip0">
<rect width="431" height="250" fill="white"/>
</clipPath>
</defs>
</svg>
