<?xml version="1.0" encoding="UTF-8"?>
<svg width="38px" height="38px" viewBox="0 0 38 38" version="1.1" xmlns="http://www.w3.org/2000/svg" xmlns:xlink="http://www.w3.org/1999/xlink">
    <!-- Generator: Sketch 52.4 (67378) - http://www.bohemiancoding.com/sketch -->
    <title>facebook-logo-in-circular-button-outlined-social-symbol copy</title>
    <desc>Created with Sketch.</desc>
    <g id="Page-1" stroke="none" stroke-width="1" fill="none" fill-rule="evenodd">
        <g id="Artboard" transform="translate(-1281.000000, -1061.000000)">
            <g id="facebook-logo-in-circular-button-outlined-social-symbol-copy-6" transform="translate(1280.000000, 1060.000000)">
                <g id="facebook-logo-in-circular-button-outlined-social-symbol" transform="translate(1.000000, 1.000000)">
                    <path d="M0.818169935,19 C0.818169935,8.95816993 8.95816993,0.818169935 19,0.818169935 C29.0418301,0.818169935 37.1818301,8.95816993 37.1818301,19 C36.8684082,33.6704102 33.7819824,37.1818301 19,37.1818301 C4.21801758,37.1818301 0.818169935,29.0418301 0.818169935,19 Z" id="Shape" fill-opacity="0.7" fill="#5A06FF" fill-rule="nonzero"></path>
                    <path d="M19.7672549,30.5435948 L19.7672549,19 L23.5763399,19 L24.1781699,15.1745752 L19.7672549,15.1745752 L19.7672549,13.2564052 C19.7672549,12.2582353 20.0945098,11.3054902 21.5272549,11.3054902 L24.3908497,11.3054902 L24.3908497,7.48732026 L20.3254248,7.48732026 C16.9072549,7.48732026 15.9745098,9.73816993 15.9745098,12.8582353 L15.9745098,15.1728105 L13.629085,15.1728105 L13.629085,19 L15.9745098,19 L15.9745098,30.5435948 L19.7672549,30.5435948 Z" id="Shape" fill="#FFFFFF" fill-rule="nonzero"></path>
                </g>
            </g>
        </g>
    </g>
</svg>