<?xml version="1.0" encoding="UTF-8"?>
<svg width="26px" height="27px" viewBox="0 0 26 27" version="1.1" xmlns="http://www.w3.org/2000/svg" xmlns:xlink="http://www.w3.org/1999/xlink">
    <!-- Generator: Sketch 52.4 (67378) - http://www.bohemiancoding.com/sketch -->
    <title>Shape</title>
    <desc>Created with Sketch.</desc>
    <g id="Page-1" stroke="none" stroke-width="1" fill="none" fill-rule="evenodd">
        <g id="Artboard-Copy" transform="translate(-1193.000000, -66.000000)" fill="#5A06FF" fill-rule="nonzero" stroke="#5A06FF">
            <path d="M1216.96606,67.0000019 L1195.0337,67.0000019 C1194.64687,66.9992583 1194.29224,67.2188674 1194.11541,67.5686062 C1193.93614,67.9230543 1193.96761,68.3498794 1194.19663,68.6735921 L1202.23172,80.1765508 C1202.2344,80.1805167 1202.23733,80.1842347 1202.24001,80.1882005 C1202.53196,80.5887517 1202.68977,81.0738252 1202.69074,81.5725313 L1202.69074,90.9507838 C1202.68904,91.2286415 1202.79635,91.4953451 1202.98904,91.6923985 C1203.18172,91.8894519 1203.44367,92 1203.71684,92 C1203.85586,92 1203.99318,91.9717433 1204.12147,91.9177085 L1208.63658,90.1680235 C1209.04121,90.0426033 1209.30974,89.6546933 1209.30974,89.1874661 L1209.30974,81.5725313 C1209.31048,81.0740731 1209.46852,80.5887517 1209.76023,80.1882005 C1209.76291,80.1842347 1209.76584,80.1805167 1209.76852,80.1765508 L1217.80337,68.6730964 C1218.03239,68.3496315 1218.06386,67.9230543 1217.88459,67.5686062 C1217.70776,67.2188674 1217.35313,66.9992583 1216.96606,67.0000019 Z M1208.7534,79.4364234 C1208.30463,80.0553444 1208.06194,80.8036514 1208.06048,81.5725313 L1208.06048,89.0332936 L1203.93952,90.6300455 L1203.93952,81.5725313 C1203.93806,80.8036514 1203.69537,80.0553444 1203.24635,79.4364234 L1195.44565,68.2690751 L1216.55435,68.2690751 L1208.7534,79.4364234 Z" id="Shape"></path>
        </g>
    </g>
</svg>