<svg xmlns="http://www.w3.org/2000/svg" width="184" height="264" viewBox="0 0 184 264">
    <path fill="#FFF" fill-rule="nonzero" stroke="#02EBCD" stroke-linecap="round" stroke-width="3" d="M110.171 262c-7.07-6.565-11.06-15.09-37.88-42.446-9.615-9.807-23.024-17.529-34.79-39.603-11.764-22.074 5.13-78.403 0-97.068-3.418-12.444-15.09-31.08-35.011-55.908C.224 7.685 5.817-.43 19.268 2.628c9.69 2.202 25.2 24.243 39.944 56.4 3.817 8.324 8.176 22.966 13.08 43.928l13.714 18.842c9.273 12.55 20.672 23.316 34.196 32.297 13.524 8.98 34.123 19.463 61.798 31.448"/>
</svg>
