<?xml version="1.0" encoding="UTF-8"?>
<svg width="38px" height="38px" viewBox="0 0 38 38" version="1.1" xmlns="http://www.w3.org/2000/svg" xmlns:xlink="http://www.w3.org/1999/xlink">
    <!-- Generator: Sketch 52.4 (67378) - http://www.bohemiancoding.com/sketch -->
    <title>facebook-logo-in-circular-button-outlined-social-symbol copy 3</title>
    <desc>Created with Sketch.</desc>
    <g id="Page-1" stroke="none" stroke-width="1" fill="none" fill-rule="evenodd">
        <g id="Artboard" transform="translate(-1425.000000, -1061.000000)">
            <g id="facebook-logo-in-circular-button-outlined-social-symbol-copy-9" transform="translate(1424.000000, 1060.000000)">
                <path d="M1.81816993,20 C1.81816993,9.95816993 1.81816993,1.81816993 20,1.81816993 C30.0418301,1.81816993 36.4526367,5.91552734 38.1818301,20 C38.1818301,32.0639648 34.7819824,38.1818301 20,38.1818301 C5.21801758,38.1818301 1.81816993,30.0418301 1.81816993,20 Z" id="Shape" fill-opacity="0.7" fill="#5A06FF" fill-rule="nonzero"></path>
                <g id="instagram" stroke-width="1" fill-rule="evenodd" transform="translate(8.000000, 8.000000)" fill="#FFFFFF">
                    <path d="M16.5,0 L7.5,0 C3.3585,0 0,3.3585 0,7.5 L0,16.5 C0,20.6415 3.3585,24 7.5,24 L16.5,24 C20.6415,24 24,20.6415 24,16.5 L24,7.5 C24,3.3585 20.6415,0 16.5,0 Z M21.75,16.5 C21.75,19.395 19.395,21.75 16.5,21.75 L7.5,21.75 C4.605,21.75 2.25,19.395 2.25,16.5 L2.25,7.5 C2.25,4.605 4.605,2.25 7.5,2.25 L16.5,2.25 C19.395,2.25 21.75,4.605 21.75,7.5 L21.75,16.5 Z" id="Shape" fill-rule="nonzero"></path>
                    <path d="M12,6 C8.6865,6 6,8.6865 6,12 C6,15.3135 8.6865,18 12,18 C15.3135,18 18,15.3135 18,12 C18,8.6865 15.3135,6 12,6 Z M12,15.75 C9.933,15.75 8.25,14.067 8.25,12 C8.25,9.9315 9.933,8.25 12,8.25 C14.067,8.25 15.75,9.9315 15.75,12 C15.75,14.067 14.067,15.75 12,15.75 Z" id="Shape" fill-rule="nonzero"></path>
                    <circle id="Oval" fill-rule="nonzero" cx="18.45" cy="5.55" r="1"></circle>
                </g>
            </g>
        </g>
    </g>
</svg>