<?xml version="1.0" encoding="UTF-8"?>
<svg width="26px" height="36px" viewBox="0 0 26 36" version="1.1" xmlns="http://www.w3.org/2000/svg" xmlns:xlink="http://www.w3.org/1999/xlink">
    <!-- Generator: Sketch 52.4 (67378) - http://www.bohemiancoding.com/sketch -->
    <title>Group 5</title>
    <desc>Created with Sketch.</desc>
    <g id="Page-1" stroke="none" stroke-width="1" fill="none" fill-rule="evenodd" stroke-linecap="round">
        <g id="Контакты" transform="translate(-190.000000, -489.000000)" fill-rule="nonzero" stroke="#5A06FF" stroke-width="2">
            <g id="Group-5" transform="translate(191.000000, 490.000000)">
                <path d="M22.6361957,12.6148357 C24.4698314,4.4563668 20.6209887,0.251421561 11.0896675,1.0658141e-14 C3.69655582,2.26902739 -2.43675082e-16,6.0812888 0,11.4367843 C1.28250043e-16,16.7922797 3.69655582,23.9800183 11.0896675,33 C16.9537173,27.5683594 20.80256,20.7733046 22.6361957,12.6148357 Z" id="Line-5"></path>
                <path d="M9.06445312,17.3623047 C10.6408926,17.3623047 14.1874446,16.8472398 15.1902574,15.7845818 C16.1197167,14.7996548 17,13.9611266 17,12.5 C17,9.46243388 14.5375661,7 11.5,7 C8.46243388,7 6,9.46243388 6,12.5 C6,15.5375661 6.026887,17.3623047 9.06445312,17.3623047 Z" id="Oval"></path>
            </g>
        </g>
    </g>
</svg>