<?xml version="1.0" encoding="UTF-8"?>
<svg width="440px" height="61px" viewBox="0 0 440 61" version="1.1" xmlns="http://www.w3.org/2000/svg" xmlns:xlink="http://www.w3.org/1999/xlink">
    <!-- Generator: Sketch 52.4 (67378) - http://www.bohemiancoding.com/sketch -->
    <title>Group 55</title>
    <desc>Created with Sketch.</desc>
    <g id="Page-1" stroke="none" stroke-width="1" fill="none" fill-rule="evenodd" stroke-linecap="round">
        <g id="Artboard" transform="translate(-1244.000000, -778.000000)" fill-rule="nonzero" stroke="#5A06FF" stroke-width="3">
            <g id="Group-55" transform="translate(1246.000000, 769.000000)">
                <path d="M0,21.0470549 C24.1296662,17.0470549 82.45535,17.0470549 174.977051,21.0470549 C267.498752,25.0470549 354.415256,25.0470549 435.726563,21.0470549" id="Line-13"></path>
                <path d="M139.576161,67.5070454 C146.182336,68.8696193 150.319207,67.4074791 151.986774,63.1206247 C154.237325,57.3350811 155.538828,39.7759493 155.850556,37.208669 C156.577867,31.2188096 154.724784,27.6265927 151.986774,26.4936815 C149.248764,25.3607704 147.24905,37.6681784 147.070354,35.5602713 C146.263042,26.0372168 147.070354,23.3911718 143.176989,23.3911718 C139.283624,23.3911718 140.090783,36.1751364 139.576161,34.0973059 C137.175117,24.4028878 139.576161,20.3687001 135.368895,20.3687001 C131.161629,20.3687001 131.787284,33.9744534 130.746654,30.817392 C127.150041,19.9059933 134.022898,9.12705302 127.193391,7.07741624 C120.363883,5.02777947 122.473618,44.3712045 120.621276,42.76453 C115.047025,37.9295637 115.047025,29.0326237 109.271519,33.0130777 C105.421181,35.6667138 110.380606,47.164703 124.149792,67.5070454" id="Line-6" fill="#FFFFFF" transform="translate(132.009416, 37.500000) rotate(-23.000000) translate(-132.009416, -37.500000) "></path>
            </g>
        </g>
    </g>
</svg>