<?xml version="1.0" encoding="UTF-8"?>
<svg width="615px" height="41px" viewBox="0 0 615 41" version="1.1" xmlns="http://www.w3.org/2000/svg" xmlns:xlink="http://www.w3.org/1999/xlink">
    <!-- Generator: Sketch 52.4 (67378) - http://www.bohemiancoding.com/sketch -->
    <title>Group 57</title>
    <desc>Created with Sketch.</desc>
    <g id="Page-1" stroke="none" stroke-width="1" fill="none" fill-rule="evenodd">
        <g id="Artboard" transform="translate(-1244.000000, -951.000000)" fill-rule="nonzero">
            <g id="Group-57" transform="translate(1246.000000, 950.000000)">
                <path d="M0,13.0252937 C71.4138394,0.903316336 155.122464,-0.225790934 251.125873,9.63797193 C347.129282,19.5017348 451.753991,17.8958275 565,4.82025012" id="Line-13" stroke="#5A06FF" stroke-width="3" stroke-linecap="round"></path>
                <g id="Group-73" transform="translate(556.000000, 0.000000)">
                    <path d="M36,3.9462632 C32.0483917,5.28674649 29.5483917,5.99012449 28.5,6.0563972 C24.5433322,6.3065128 21.9815643,4.52634141 21.9815643,3.9462632 C21.9815643,2.73031557 29.2162088,-7 31.257826,-7 C32.6189042,-7 34.1996289,-3.3512456 36,3.9462632 C36,30.1052405 36,44.4170839 36,46.8817933 C36,50.5788575 23.9446929,48.6774581 21.9815643,46.8817933 C20.6728119,45.6846835 20.6728119,33.1955462 21.9815643,9.41438152" id="Rectangle-103" stroke="#5A06FF" stroke-width="3" fill="#FFFFFF" stroke-linecap="round" transform="translate(28.500000, 21.000000) rotate(-60.000000) translate(-28.500000, -21.000000) "></path>
                    <path d="M6.89448127,11 C8.28727184,11 10.9284888,8.13408883 10.9284888,6.66326811 C10.9284888,5.19244739 11.3848134,3.11521025 9.99202278,3.11521025 C8.59923221,3.11521025 5,2.5292909 5,4.00011162 C5,5.47093234 5.50169069,11 6.89448127,11 Z" id="Oval-48" fill="#5A06FF"></path>
                </g>
            </g>
        </g>
    </g>
</svg>