<?xml version="1.0" encoding="UTF-8"?>
<svg width="364px" height="387px" viewBox="0 0 364 387" version="1.1" xmlns="http://www.w3.org/2000/svg" xmlns:xlink="http://www.w3.org/1999/xlink">
    <!-- Generator: Sketch 52.4 (67378) - http://www.bohemiancoding.com/sketch -->
    <title>Group 6</title>
    <desc>Created with Sketch.</desc>
    <defs>
        <path d="M181.19201,332.206936 C292.275508,332.206936 318.161232,219.511682 318.161232,138.287791 C318.161232,57.0639009 262.471379,0.663076979 181.19201,0.663076979 C99.9126424,0.663076979 0.628607251,90.9452554 0.628607251,172.169146 C0.628607251,253.393036 70.1085129,332.206936 181.19201,332.206936 Z" id="path-1"></path>
    </defs>
    <g id="Page-1" stroke="none" stroke-width="1" fill="none" fill-rule="evenodd">
        <g id="Artboard-Copy-2" transform="translate(-553.000000, -40.000000)">
            <g id="Group-6" transform="translate(555.000000, 40.000000)">
                <g id="Group-3">
                    <g id="Group-52" transform="translate(33.167539, 10.424084)">
                        <mask id="mask-2" fill="white">
                            <use xlink:href="#path-1"></use>
                        </mask>
                        <use id="Oval-42" fill="#FFFFFF" fill-rule="nonzero" xlink:href="#path-1"></use>
                        <path d="M221.323939,274.978338 L234.646285,274.978338" id="Line-4-Copy-10" stroke="#5A06FF" stroke-width="3" stroke-linecap="round" fill-rule="nonzero" mask="url(#mask-2)"></path>
                        <g id="Group-51" mask="url(#mask-2)">
                            <g transform="translate(0.000000, 43.598546)">
                                <g id="Group-50">
                                    <g id="Group-49" transform="translate(0.025818, 0.335410)" fill-rule="nonzero">
                                        <g id="Group-100">
                                            <g id="Group-44-Copy-2">
                                                <g id="Group-91" transform="translate(62.364088, 65.567786) rotate(7.000000) translate(-62.364088, -65.567786) translate(7.400737, 6.813859)">
                                                    <g id="Group-94" transform="translate(86.948658, 22.730017)">
                                                        <ellipse id="Oval-29" fill="#292929" cx="9.94593427" cy="15.5121037" rx="3.09468185" ry="3.09256956"></ellipse>
                                                        <polygon id="Rectangle-100" fill="#292929" points="0.672750873 9.37478363 4.4015344 7.60887041 12.5393864 25.0486385 8.81060283 26.8145517"></polygon>
                                                        <polygon id="Rectangle-100-Copy" fill="#292929" points="8.23481999 7.99450333 11.9663123 6.23439505 18.0747971 19.3251418 14.3433048 21.0852501"></polygon>
                                                        <polygon id="Rectangle-48" fill="#FF02EC" points="9.31341962 1.78913307 11.8065167 0.627376298 22.2694692 23.0499353 19.7763721 24.211692"></polygon>
                                                    </g>
                                                    <g id="Group-93" transform="translate(48.439070, 56.643478) rotate(36.000000) translate(-48.439070, -56.643478) translate(21.431216, 15.894786)" fill="#292929">
                                                        <path d="M14.4674365,40.2929294 L17.0558603,40.2921969 L13.6595557,81.3715888 C12.6670977,81.4474286 12.1464987,81.4853553 12.0977585,81.4853691 C11.7187655,81.4854764 12.5086582,67.7546631 14.4674365,40.2929294 Z" id="Rectangle-99" transform="translate(14.530728, 60.888783) rotate(28.000000) translate(-14.530728, -60.888783) "></path>
                                                        <path d="M43.4338826,-0.991411964 L46.0222541,-0.992177102 L44.1984779,28.9378631 C43.206039,29.0137169 42.68545,29.051651 42.6367109,29.0516654 C42.2577255,29.0517774 42.5234494,19.0374183 43.4338826,-0.991411964 Z" id="Rectangle-99-Copy-2" transform="translate(44.245939, 14.029744) rotate(-150.000000) translate(-44.245939, -14.029744) "></path>
                                                        <path d="M31.2364523,12.5473391 L36.9704944,12.4586137 C34.0201503,38.2575366 32.4720688,51.7482408 32.3262499,52.9307261 C32.1075215,54.7044542 28.143128,54.2070539 27.6001382,53.1394948 C27.238145,52.4277888 28.4502497,38.8970703 31.2364523,12.5473391 Z" id="Rectangle-99-Copy" transform="translate(32.254099, 33.280964) rotate(28.000000) translate(-32.254099, -33.280964) "></path>
                                                        <ellipse id="Oval-26" cx="2.50437614" cy="79.0779791" rx="2.06312123" ry="2.06171304"></ellipse>
                                                    </g>
                                                    <g id="Group-93" transform="translate(52.047043, 65.754339) rotate(29.000000) translate(-52.047043, -65.754339) translate(24.091546, 23.110360)" fill="#292929">
                                                        <path d="M14.4674365,44.4163554 L17.0558603,44.415623 L13.6595557,85.4950149 C12.6670977,85.5708546 12.1464987,85.6087814 12.0977585,85.6087952 C11.7187655,85.6089025 12.5086582,71.8780892 14.4674365,44.4163554 Z" id="Rectangle-99" transform="translate(14.530728, 65.012209) rotate(28.000000) translate(-14.530728, -65.012209) "></path>
                                                        <path d="M44.8914911,-1.0697729 L47.4798626,-1.07053804 L44.6640053,33.0749126 C43.6715665,33.1507664 43.1509775,33.1887005 43.1022383,33.1887149 C42.723253,33.188827 43.3196706,21.769331 44.8914911,-1.0697729 Z" id="Rectangle-99-Copy-2" transform="translate(45.235831, 16.059088) rotate(-150.000000) translate(-45.235831, -16.059088) "></path>
                                                        <path d="M34.0596928,12.2106289 L39.793735,12.1219034 C37.5088383,38.4528963 36.1862901,51.9873481 35.8260904,52.7252588 C35.2857908,53.8321249 30.9017745,54.0448075 30.3385774,53.1716906 C29.9631127,52.5896127 31.2034845,38.9359254 34.0596928,12.2106289 Z" id="Rectangle-99-Copy" transform="translate(35.033439, 32.916666) rotate(28.000000) translate(-35.033439, -32.916666) "></path>
                                                        <ellipse id="Oval-26" cx="2.50437614" cy="83.2014052" rx="2.06312123" ry="2.06171304"></ellipse>
                                                    </g>
                                                    <g id="Group-93-Copy" transform="translate(47.844793, 49.132296) rotate(40.000000) translate(-47.844793, -49.132296) translate(20.836939, 7.909783)" fill="#292929">
                                                        <path d="M11.62924,47.539368 L14.2176638,47.5386356 L11.0397133,83.0778953 C10.0472554,83.153735 9.52665633,83.1916618 9.4779162,83.1916756 C9.09892319,83.1917829 9.81603113,71.3076803 11.62924,47.539368 Z" id="Rectangle-99" transform="translate(11.798649, 65.365156) rotate(28.000000) translate(-11.798649, -65.365156) "></path>
                                                        <path d="M41.5680036,-1.27426328 L44.1563751,-1.27502842 L41.3286904,36.0389608 C40.3362516,36.1148146 39.8156626,36.1527488 39.7669234,36.1527632 C39.3879381,36.1528752 39.9882981,23.6771997 41.5680036,-1.27426328 Z" id="Rectangle-99-Copy-2" transform="translate(41.906652, 17.438867) rotate(-150.000000) translate(-41.906652, -17.438867) "></path>
                                                        <path d="M29.7622764,14.9569868 L35.4963186,14.8682614 C32.7684947,40.9832774 31.2755037,54.5218597 31.0173455,55.4840083 C30.6301083,56.9272312 27.2234117,57.2167938 26.1259624,55.5491425 C25.3943296,54.437375 26.6064342,40.9066564 29.7622764,14.9569868 Z" id="Rectangle-99-Copy" transform="translate(30.707869, 35.777594) rotate(28.000000) translate(-30.707869, -35.777594) "></path>
                                                        <ellipse id="Oval-26" cx="2.06312123" cy="79.7195708" rx="2.06312123" ry="2.06171304"></ellipse>
                                                    </g>
                                                </g>
                                                <path d="M79.4747628,207.334682 C91.5774839,207.334682 101.388678,203.191937 101.388678,198.081601 C101.388678,192.971266 91.5774839,188.828521 79.4747628,188.828521 C67.3720417,188.828521 62.090479,192.971266 62.090479,198.081601 C62.090479,203.191937 67.3720417,207.334682 79.4747628,207.334682 Z" id="Oval-39" fill="#030303" opacity="0.102287946"></path>
                                                <path d="M62.9300255,191.155417 C65.1179579,191.321008 67.8515657,191.65717 71.1308489,192.163903 C76.0497737,192.924004 80.2297021,194.801184 80.7519202,195.655444 C81.0223911,196.097888 81.5037429,198.067723 80.5915858,199.571009 C79.7425741,200.970228 77.5280095,201.921292 76.9329113,202.00472 C75.6984544,202.177782 61.163017,199.655674 60.0702812,196.9505 C59.3417906,195.14705 60.2950387,193.215356 62.9300255,191.155417 Z" id="Rectangle-55-Copy-4" fill="#FF02EC" transform="translate(70.478286, 196.584279) rotate(-38.000000) translate(-70.478286, -196.584279) "></path>
                                                <path d="M62.0584494,190.4752 C64.9545057,189.768674 68.0421755,189.668778 71.3214587,190.175512 C76.2403835,190.935613 80.4203119,192.812793 80.94253,193.667053 C81.2130009,194.109497 81.6943527,196.079332 80.7821956,197.582618 C79.9331839,198.981837 77.7186193,199.932901 77.1235211,200.016329 C75.8890642,200.189391 61.6503953,197.767953 60.5576594,195.062778 C59.8291689,193.259328 60.3294322,191.730135 62.0584494,190.4752 Z" id="Rectangle-55" fill="#292929" transform="translate(70.773655, 194.941561) rotate(-38.000000) translate(-70.773655, -194.941561) "></path>
                                                <path d="M73.8969502,182.430747 L73.8969502,190.457647 C74.520674,190.774055 74.9987953,190.925143 75.303925,190.925143 C75.6090547,190.925143 76.0871761,190.774055 76.7108998,190.457647 L76.7108998,182.430747 L73.8969502,182.430747 Z" id="Rectangle-62" stroke="#000000" stroke-width="2" fill="#FFFFFF"></path>
                                                <path d="M72.3758889,116.265751 L90.0398717,116.265751 L81.5789541,159.4837 C79.7140884,175.985491 78.6369716,184.662434 78.3476039,185.51453 C77.9135523,186.792673 77.2289361,186.792673 75.584428,186.792673 C73.9399198,186.792673 72.937955,186.792673 72.3758889,185.51453 C71.8138228,184.236387 70.0621671,165.624236 70.0621671,158.140421 C70.0621671,154.60275 69.2866505,147.140495 70.0621671,134.584085 C70.2743016,131.14941 71.0455422,125.043298 72.3758889,116.265751 Z" id="Rectangle-63" fill="#292929"></path>
                                                <path d="M57.6182294,80.5937628 C57.5244214,77.2574927 60.9061418,68.1835286 65.6240863,74.6832913 C70.3420308,81.1830541 72.0125837,88.121291 70.2661814,91.9202652 C69.7403115,93.0641975 55.5538094,97.0569037 52.9967647,97.0984047 C51.2920682,97.1260721 50.5708215,95.283691 50.8330244,91.5712614 L62.2589875,88.3552327 C59.185631,83.9093698 57.6387117,81.3222131 57.6182294,80.5937628 Z" id="Rectangle-49-Copy-3" fill="#292929" transform="translate(60.861256, 84.747058) rotate(66.000000) translate(-60.861256, -84.747058) "></path>
                                                <path d="M68.5540842,68.2717384 C76.2604727,68.8528439 77.9750468,81.9071094 77.9164205,83.8030608 C77.8577942,85.6990123 73.637408,88.4304842 71.2594232,89.6089012 C69.6741001,90.3945126 67.8690526,90.481217 65.8442807,89.8690144 C62.5132241,75.0834267 63.4164919,67.8843347 68.5540842,68.2717384 Z" id="Rectangle-49-Copy-2" fill="#292929" transform="translate(70.898390, 79.264053) scale(-1, 1) rotate(-35.000000) translate(-70.898390, -79.264053) "></path>
                                                <path d="M42.211725,73.4067177 C43.4747873,72.3322282 46.5479486,72.2623529 51.4312089,73.1970917 C53.1039948,77.3770076 53.5023951,79.8868788 52.6264098,80.7267055 C51.3124319,81.9864454 45.4589892,83.2610372 43.4283407,82.4674566 C41.3976921,81.673876 40.3171315,75.0184518 42.211725,73.4067177 Z" id="Rectangle-60-Copy" fill="#292929" transform="translate(47.152879, 77.629007) rotate(138.000000) translate(-47.152879, -77.629007) "></path>
                                                <g id="Group-46" transform="translate(78.407995, 117.888235)">
                                                    <g id="Group-47" transform="translate(14.113934, 80.352515) rotate(-4.000000) translate(-14.113934, -80.352515) translate(1.320740, 67.559321)">
                                                        <path d="M3.64511126,8.87353341 C5.42816321,9.08329667 6.58335385,9.05203401 7.11068318,8.7797454 C9.09139991,7.7569944 10.0245593,8.80734622 12.5164689,9.19244036 C17.7470396,10.0007611 22.1918001,11.996987 22.7471082,12.9054139 C22.9793075,13.2852681 24.8719554,12.3658652 24.8169697,13.7203253 C24.8038484,14.0435404 23.4386864,16.0161169 23.2518212,16.3240972 C22.3490271,17.8120296 20.6433881,18.4680584 19.3307222,18.6520871 C18.0180563,18.8361158 16.7589714,18.9199113 14.4297191,18.568107 C10.2552414,17.9376047 2.33516477,16.5129481 1.17318363,13.6362452 C0.398529543,11.7184432 1.22250542,10.1308726 3.64511126,8.87353341 Z" id="Rectangle-55-Copy-3" fill="#FF02EC" transform="translate(12.854898, 13.577859) rotate(-40.000000) translate(-12.854898, -13.577859) "></path>
                                                        <path d="M1.76685231,8.91798625 C4.97330453,6.63193422 8.32005419,5.75834844 11.8071013,6.2972289 C17.037672,7.1055496 21.4824325,9.10177553 22.0377406,10.0102025 C22.3253497,10.4807014 24.1044027,12.4681017 23.1344632,14.0666993 C22.2316691,15.5546317 20.1535875,16.7112032 18.8409216,16.8952319 C17.5282557,17.0792606 15.6210659,16.4684216 13.2918136,16.1166173 C9.11733596,15.4861149 3.30583208,15.7822739 2.14385095,12.905571 C1.36919685,10.987769 1.24353064,9.65857413 1.76685231,8.91798625 Z" id="Rectangle-55-Copy-2" fill="#292929" transform="translate(12.435734, 11.536040) rotate(-40.000000) translate(-12.435734, -11.536040) "></path>
                                                    </g>
                                                    <path d="M16.8078743,65.2297495 L16.8078743,73.3268253 C17.4969983,73.7827419 17.9899252,74.000987 18.2148491,74.000987 C18.439773,74.000987 18.9326998,73.7827419 19.6218238,73.3268253 L19.6218238,65.2297495 L16.8078743,65.2297495 Z" id="Rectangle-62-Copy" stroke="#000000" stroke-width="2" fill="#FFFFFF"></path>
                                                    <path d="M4.46188107,0 L22.605869,0 C22.994188,5.28444884 22.994188,11.3025215 22.605869,18.054218 C22.21755,24.8059144 21.3649233,33.6124497 20.0479889,44.4738239 C20.9572157,59.556117 21.411829,67.6287688 21.411829,68.6917793 C21.411829,70.286295 20.600182,70.831253 18.742216,70.831253 C16.88425,70.831253 17.3478656,70.9177383 15.2273235,69.8047588 C13.1067814,68.6917793 8.72747481,49.4217904 8.72747481,44.4738239 C8.72747481,41.1751796 7.30561023,26.3505717 4.46188107,0 Z" id="Rectangle-63-Copy" fill="#292929"></path>
                                                </g>
                                                <path d="M100.105328,124.672644 C100.502776,124.271164 101.040542,120.076928 101.154809,115.959318 C101.248065,112.598867 100.803564,105.62178 99.8203082,95.0712195 L99.8083558,94.9429673 L99.829294,94.8158726 C102.024222,81.4927294 101.599891,73.4160614 98.8203472,70.7905736 C96.5423307,68.638816 91.078514,66.977094 86.4283682,66.977094 C80.9878982,66.977094 76.4948153,69.177872 74.1968639,72.3591943 C73.1739807,73.775291 72.5391898,75.4239338 72.2243211,77.3143494 C71.8893427,79.3254997 71.9172864,81.225921 72.1876792,84.1750964 C72.400067,86.491611 72.4005171,86.4971818 72.4005171,87.150658 C72.4005171,87.5916037 72.4057565,88.1477957 72.416734,88.9508492 C72.4225269,89.3746285 72.4480086,91.0776068 72.4526075,91.3986568 C72.5310857,96.8771432 72.5310857,101.045368 72.400103,105.59519 C72.352548,107.247064 72.0323807,108.989367 71.3854822,111.558101 C71.2995898,111.899167 71.21441,112.230845 71.0834094,112.736408 C69.6970671,118.08664 69.444506,120.047838 70.2669445,121.531728 C71.2626158,123.328173 73.5215719,124.168186 79.1930012,125.196303 C79.4916367,125.250439 80.5583175,125.441961 80.5612527,125.442489 C81.1199796,125.543124 81.5493297,125.621647 81.9713383,125.700908 C83.0581168,125.905024 83.9849853,126.094131 84.8754258,126.297823 C90.3453236,127.549085 98.6853604,126.107015 100.105328,124.672644 Z" id="Oval-34" stroke="#FF02EC" stroke-width="2"></path>
                                                <path d="M72.5145182,111.675044 L100.965041,111.675044 L100.965041,123.245335 C96.9158069,126.292491 91.929826,127.23006 86.0070976,126.058043 C77.123005,124.300016 74.5334127,125.095344 71.2579752,121.603749 C69.0743503,119.27602 69.4931979,115.966451 72.5145182,111.675044 Z" id="Rectangle-47" fill="#FFFFFF"></path>
                                                <path d="M101.945557,89.3906722 C101.960058,89.900172 103.667919,93.9563249 106.78882,100.720394 L106.914377,100.99252 L106.869571,101.288848 C105.570377,109.881203 104.478332,114.735162 103.435819,116.218432 C102.667009,117.312282 104.092046,119.025105 106.029104,118.994308 C106.108281,118.993049 106.514358,118.595549 107.00725,117.758182 C107.789729,116.428839 108.647913,114.303168 109.538732,111.599235 C109.995619,110.212429 110.44102,108.735833 110.881602,107.177066 C111.049146,106.5843 111.20921,106.003785 111.373242,105.397415 C111.434877,105.169572 111.494008,104.949479 111.562776,104.692355 C111.643939,104.388563 111.643939,104.388563 111.710873,104.138336 C112.920536,99.6259232 111.470622,86.5696375 107.804046,81.5250414 C106.189731,79.3040134 105.132342,79.5607974 103.855743,81.9607407 C102.733979,84.0695989 101.894991,87.6140904 101.945557,89.3906722 Z" id="Rectangle-49-Copy" stroke="#000000" stroke-width="2" fill="#FFFFFF" transform="translate(106.988401, 99.496748) rotate(-5.000000) translate(-106.988401, -99.496748) "></path>
                                                <path d="M97.7586968,88.4479549 C99.3474093,88.838438 100.734894,88.7217858 101.958148,88.1156772 C103.318775,87.4415016 104.949055,85.9374863 106.808841,83.604236 C105.146502,72.710057 102.37304,68.6607644 98.6775596,70.4256039 C94.7042315,72.3231343 94.2654273,78.2447993 97.7586934,88.4479449 Z" id="Rectangle-49" stroke="#FF02EC" stroke-width="2" fill="#FFFFFF" transform="translate(101.130399, 79.333100) rotate(-15.000000) translate(-101.130399, -79.333100) "></path>
                                                <g id="Group-96" transform="translate(102.620638, 121.722963) rotate(10.000000) translate(-102.620638, -121.722963) translate(94.565665, 113.194167)" fill="#FFFFFF">
                                                    <path d="M13.2977724,10.4727284 L12.7276835,7.04909121 C7.67084392,4.54818018 4.54028756,3.82272157 3.64521757,4.58444973 C2.198259,5.81584963 3.1260717,12.1672337 4.68785202,12.7777628 C5.75406068,13.1945637 8.71809322,12.454408 13.2977724,10.4727284 Z" id="Rectangle-60" stroke="#000000" stroke-width="2" transform="translate(8.167878, 8.597392) rotate(-58.000000) translate(-8.167878, -8.597392) "></path>
                                                    <polygon id="Rectangle-52" points="10.1625185 2.31087303 12.9790942 3.17285035 11.7912538 7.21055829 8.83642203 4.69428071"></polygon>
                                                </g>
                                                <path d="M81.2617281,65.1301152 L81.2617281,70.0226475 C83.6775741,70.8900734 85.3136703,71.3239832 86.0899025,71.3239832 C86.8632172,71.3239832 88.4653821,70.8918364 90.8181636,70.0272122 L90.8181636,61.0473148 L81.2617281,65.1301152 Z" id="Rectangle-61" stroke="#000000" stroke-width="1.6" fill="#FFFFFF"></path>
                                                <ellipse id="Oval-33" stroke="#000000" stroke-width="2" fill="#FFFFFF" cx="75.0608993" cy="50.8648719" rx="2.30230377" ry="2.30004976"></ellipse>
                                                <path d="M80.4733508,66.3992227 C81.0747017,66.3992227 81.5464754,66.4481393 82.1560227,66.5511259 C82.9310724,66.6820751 82.7865577,66.6590852 82.9694622,66.6732334 C83.7437655,66.7331279 84.5525177,66.3875919 86.4586395,64.9876814 C86.9038129,64.6607333 88.2649528,63.6739134 88.5221622,63.4842537 C89.1291512,63.0366754 89.5240989,62.7257603 89.8573645,62.4280097 C90.2803912,62.0500635 90.6109548,61.6841479 90.941473,61.2244326 C91.3442885,60.6641595 91.76522,59.9418742 92.3983111,58.7348117 C95.6635352,52.5092786 92.1411252,38.7404207 86.1493644,38.7404207 C81.7669105,38.7404207 76.8329003,40.385494 75.3557507,42.658367 C73.9497927,44.821698 73.5177866,49.4068713 74.1412856,53.5225583 C74.7127575,57.2948175 75.6160238,60.4472657 76.8645104,63.0217393 C77.8241685,65.3333266 79.0214044,66.3992227 80.4733508,66.3992227 Z" id="Oval-35" stroke="#000000" stroke-width="1.6" fill="#FFFFFF"></path>
                                                <path d="M80.3534722,66.7628201 C83.0942267,66.7628201 83.077269,68.4636327 86.9321896,65.6324685 C90.7871101,62.8013042 89.0730567,65.2923925 91.0218304,61.5768266 C92.1863155,59.3565992 89.43824,57.4146055 86.0772569,56.851732 C84.0556188,56.5131624 81.1135258,56.6507877 79.2592859,56.851732 C76.2997692,57.1724552 75.6059868,59.6574251 75.8197431,61.0684202 C76.6939465,66.8389951 77.6127177,66.7628201 80.3534722,66.7628201 Z" id="Oval-35" fill="#030303" opacity="0.102287946"></path>
                                                <path d="M89.4475453,38.1282135 C89.4446313,38.1281715 89.4417552,38.1281504 89.4389171,38.1281504 C89.4474313,38.1281504 89.4579557,38.125824 89.4698543,38.1214411 Z M89.7464939,38.1726919 C89.7653643,38.2468066 89.7900905,38.3323599 89.8214694,38.4278563 C90.0190697,39.0292196 90.0657248,39.1288467 91.1813367,41.4165736 C91.3183164,41.6974706 91.4323064,41.934192 91.5396007,42.1614791 C92.3999069,43.9839112 92.8255201,45.2094675 92.8255201,46.2320394 C92.8255201,46.9621178 92.712934,47.5697268 92.3741278,48.9942387 C92.3690346,49.0156531 92.3690346,49.0156531 92.3639483,49.0370429 C91.9751215,50.6723327 91.8781334,51.3891234 92.02857,51.965153 C92.1850225,52.5642181 92.7026375,52.8742644 94.023833,52.8742644 C95.5834733,52.8742644 96.2302364,52.7468444 96.4046982,52.5429484 C96.5452756,52.3786535 96.5715496,52.0343938 96.5158548,50.5482702 C96.4530998,48.8737551 96.4714463,47.7062153 96.6493812,46.1416402 C96.9291599,43.6815559 95.7807417,41.6609782 93.5975631,40.0665542 C92.2997278,39.1187162 90.5597341,38.3600799 89.7464939,38.1726919 Z" id="Oval-72-Copy" stroke="#000000" stroke-width="1.6" fill="#FFFFFF"></path>
                                                <ellipse id="Oval-33" stroke="#000000" stroke-width="1.6" fill="#FFFFFF" cx="94.1265805" cy="53.4730914" rx="2.50230377" ry="2.50004976"></ellipse>
                                                <g id="Group-92" transform="translate(68.770708, 28.176745)">
                                                    <path d="M30.1214794,15.2939501 C30.1222199,15.2944237 30.1227536,15.2947598 30.1230714,15.2949523 C30.1222075,15.294429 30.1213362,15.2939052 30.1204565,15.2933808 Z M28.8387342,15.9724812 C28.8386441,15.9733837 28.8385553,15.974286 28.8384679,15.975188 C28.8386801,15.9729987 28.8388976,15.968765 28.8390937,15.9625178 Z M28.7846107,14.5278419 C28.529703,13.0000501 27.1674201,10.3569219 25.3524954,8.28874335 C22.8360076,5.42110576 19.8731584,3.93448376 16.8507159,4.39121329 C10.2360831,5.39076846 6.94755746,7.89645474 5.28831693,12.4154791 C4.7667807,13.835909 4.34490781,15.8147921 4.29382331,17.2611884 C4.26752885,18.0056846 4.34073499,18.5655184 4.48003608,18.8496209 C4.52915525,18.9497987 4.47400372,18.9226453 4.5915882,18.8933282 C5.20614973,18.7401008 9.832707,16.5365214 10.4752517,16.2575426 C14.6788042,14.4324527 18.4694068,13.4233166 22.372433,13.4226912 C25.2643634,13.4222279 27.2747392,13.8308809 28.7846107,14.5278419 Z" id="Oval-5" stroke="#FF02EC" stroke-width="2" fill="#FFFFFF" transform="translate(16.564129, 11.609261) rotate(14.000000) translate(-16.564129, -11.609261) "></path>
                                                    <path d="M13.7449537,15.5634546 C17.8600321,14.9368107 22.7101919,15.6319266 28.2954332,17.6488023 C25.9152971,11.0974661 19.8496971,8.61788705 10.0986331,10.2100651 C0.347569067,11.8022431 -1.95803356,14.4771187 3.1818252,18.2346919 C4.26406782,18.5432907 4.95188708,18.6464531 5.245283,18.544179 C7.9010854,17.6184006 10.21485,16.1010187 13.7449537,15.5634546 Z" id="Oval-5-Copy" fill="#292929" transform="translate(14.408046, 14.162745) rotate(6.000000) translate(-14.408046, -14.162745) "></path>
                                                </g>
                                                <path d="M90.8237117,57.7205105 C92.1873986,57.7205105 94.9597107,54.6201579 94.9597107,53.2574018 C94.9597107,52.6644113 93.9325725,52.0587266 91.878296,51.440348 C91.4909688,50.0222881 91.1394407,49.3132581 90.8237117,49.3132581 C89.4600248,49.3132581 89.4766602,51.8946457 89.4766602,53.2574018 C89.4766602,54.6201579 89.4600248,57.7205105 90.8237117,57.7205105 Z" id="Oval-33" fill="#FFFFFF"></path>
                                                <path d="M78.5280934,60.0995005 C79.6658576,60.5989334 80.5237901,60.8486499 81.1018911,60.8486499 C81.6799921,60.8486499 82.6117321,60.4735998 83.8971112,59.7234996" id="Line-5" stroke="#212121" stroke-width="1.6" stroke-linecap="round"></path>
                                                <ellipse id="Oval-3" fill="#212121" cx="77.0990856" cy="51.2185669" rx="1" ry="1"></ellipse>
                                                <ellipse id="Oval-3-Copy-2" fill="#212121" cx="85.0643198" cy="51.2635612" rx="1" ry="1"></ellipse>
                                            </g>
                                            <path d="M88.713915,48.2404559 C86.900926,47.5330896 85.6888758,47.1634085 85.0777646,47.1314127 C83.6990005,47.0592251 82.1538372,47.8818697 81.744165,48.2404559 C79.3159397,50.3658824 80.1690346,53.2810075 80.045045,54.3017714 C79.868816,55.7526046 81.3107174,55.7526046 84.3707494,54.3017714" id="Line-38" stroke="#212121" stroke-width="1.6" stroke-linecap="round"></path>
                                        </g>
                                        <g id="Group-44-Copy" transform="translate(257.410192, 117.870073) scale(-1, 1) translate(-257.410192, -117.870073) translate(214.292391, 24.053319)">
                                            <path d="M47.8402372,183.281363 C59.9429584,183.281363 69.7541524,179.138618 69.7541524,174.028283 C69.7541524,168.917947 59.9429584,164.775202 47.8402372,164.775202 C35.7375161,164.775202 30.4559534,168.917947 30.4559534,174.028283 C30.4559534,179.138618 35.7375161,183.281363 47.8402372,183.281363 Z" id="Oval-39" fill="#030303" opacity="0.102287946"></path>
                                            <path d="M31.8830748,168.334726 C33.7088418,167.251764 36.2613669,166.96365 39.5406501,167.470384 C44.4595749,168.230484 48.6395033,170.107665 49.1617214,170.961924 C49.4321923,171.404369 49.9135441,173.374203 49.001387,174.877489 C48.1523753,176.276708 45.9378107,177.227772 45.3427125,177.311201 C44.1082556,177.484263 31.4750206,175.627479 30.3822848,172.922304 C29.6537943,171.118854 30.1540576,169.589662 31.8830748,168.334726 Z" id="Rectangle-55-Copy-4" fill="#5A06FF" transform="translate(39.795563, 172.275227) rotate(-38.000000) translate(-39.795563, -172.275227) "></path>
                                            <path d="M31.8830748,166.48411 C33.7088418,165.401148 36.2613669,165.113034 39.5406501,165.619767 C44.4595749,166.379868 48.6395033,168.257049 49.1617214,169.111308 C49.4321923,169.553753 49.9135441,171.523587 49.001387,173.026873 C48.1523753,174.426092 45.9378107,175.377156 45.3427125,175.460585 C44.1082556,175.633647 31.4750206,173.776863 30.3822848,171.071688 C29.6537943,169.268238 30.1540576,167.739045 31.8830748,166.48411 Z" id="Rectangle-55" fill="#292929" transform="translate(39.795563, 170.424610) rotate(-38.000000) translate(-39.795563, -170.424610) "></path>
                                            <path d="M25.6388583,57.6811845 C25.5453211,54.3456847 28.9286091,45.2734963 33.6470621,51.7713604 C38.365515,58.2692245 38.8783838,64.6907134 37.1312496,68.4889731 C36.6051594,69.6326904 20.1301455,79.8563515 17.572513,79.8980674 C15.8674247,79.9258781 15.8418242,78.4299806 17.4957117,75.4103751 L29.8233681,66.2728318 C27.054118,61.2733491 25.6592814,58.4094667 25.6388583,57.6811845 Z" id="Rectangle-49-Copy-3" fill="#292929" transform="translate(27.163673, 64.691366) rotate(45.000000) translate(-27.163673, -64.691366) "></path>
                                            <path d="M40.7413633,92.2124326 L58.4053462,92.2124326 L48.4164938,135.805305 L46.4627808,166.954916 C45.8838673,167.807011 45.0462412,168.233059 43.9499024,168.233059 C42.8535637,168.233059 41.7840506,167.807011 40.7413633,166.954916 C39.1988821,150.03225 38.4276415,139.076312 38.4276415,134.087102 C38.4276415,129.097892 39.1988821,115.139669 40.7413633,92.2124326 Z" id="Rectangle-63" fill="#292929"></path>
                                            <g id="Group-46" transform="translate(48.148884, 93.834917)">
                                                <g id="Group-47" transform="translate(13.571737, 79.344282) rotate(-4.000000) translate(-13.571737, -79.344282) translate(1.252365, 67.498732)">
                                                    <path d="M2.24819806,10.2733582 C2.18641052,9.04294091 4.58251569,8.19425268 5.37350968,7.78581977 C7.35422641,6.76306877 8.2873858,7.81342059 10.7792954,8.19851473 C16.0098661,9.00683542 20.4546266,11.0030614 21.0099347,11.9114883 C21.242134,12.2913425 23.1347819,11.3719395 23.0797962,12.7263996 C23.0666749,13.0496148 21.7015129,15.0221913 21.5146477,15.3301716 C20.6118536,16.818104 18.9062146,17.4741328 17.5935487,17.6581615 C16.2808828,17.8421902 15.0217979,17.9259857 12.6925456,17.5741814 C8.51806792,16.943679 4.53412542,17.5791261 3.37214428,14.7024232 C2.21016315,11.8257203 2.3099856,11.5037754 2.24819806,10.2733582 Z" id="Rectangle-55-Copy-3" fill="#5A06FF" transform="translate(12.663998, 12.583933) rotate(-40.000000) translate(-12.663998, -12.583933) "></path>
                                                    <path d="M2.00888934,8.66857024 C3.99696729,6.15632616 6.73452983,5.16964436 10.2215769,5.70852482 C15.4521476,6.51684551 19.8969081,8.51307144 20.4522162,9.42149837 C20.7398253,9.89199732 22.5188783,11.8793976 21.5489388,13.4779952 C20.6461448,14.9659276 18.5680632,16.1224991 17.2553973,16.3065278 C15.9427314,16.4905565 14.0355416,15.8797175 11.7062892,15.5279132 C7.5318116,14.8974109 3.5478691,15.5328579 2.38588797,12.656155 C1.61123388,10.738353 1.48556766,9.40915812 2.00888934,8.66857024 Z" id="Rectangle-55-Copy-2" fill="#292929" transform="translate(11.763990, 10.953051) rotate(-40.000000) translate(-11.763990, -10.953051) "></path>
                                                </g>
                                                <path d="M3.08646692,0 L21.2304548,0 L18.2096095,42.7250687 L20.0364149,73.4430147 C19.4953168,74.8693305 18.6054458,75.5824884 17.3668018,75.5824884 C16.1281579,75.5824884 15.1019478,75.1646139 14.2881717,74.3288647 C9.66409766,57.7241485 7.35206065,47.7724682 7.35206065,44.4738239 C7.35206065,41.1751796 5.93019607,26.3505717 3.08646692,0 Z" id="Rectangle-63-Copy" fill="#292929"></path>
                                            </g>
                                            <path d="M31.1282958,51.1947704 C31.0330917,47.8602475 29.4813364,40.931689 35.481758,44.1847546 C41.4821796,47.4378202 44.9021769,57.8159226 44.8432147,59.7115238 C44.7842526,61.607125 40.5625964,64.3387997 38.1839578,65.5173996 C36.5981987,66.3031329 34.7927932,66.3901296 32.7677412,65.7783897 C31.738247,58.2789921 31.1917652,53.4177856 31.1282958,51.1947704 Z" id="Rectangle-49-Copy-2" fill="#292929" transform="translate(37.861604, 54.758686) scale(-1, 1) rotate(-13.000000) translate(-37.861604, -54.758686) "></path>
                                            <path d="M69.1814681,101.407262 C69.9350471,100.646039 69.0746307,99.3281772 69.1814681,95.4783024 C69.2762248,92.0637542 69.2762248,83.8793562 69.1814681,70.9251082 C72.3956517,52.8395931 67.3695263,43.7968356 54.1030918,43.7968356 C36.6769737,43.7968356 39.7659916,58.1830895 39.7659916,63.0973392 C39.7659916,66.0242405 41.9865674,73.5185938 41.751699,81.6769952 C41.5922247,87.2165013 38.5101919,94.404659 39.7659916,95.4783024 C40.8356702,96.392822 46.3233611,101.687918 53.0179061,103.219324 C59.9125243,104.796497 68.0197934,102.58072 69.1814681,101.407262 Z" id="Oval-34" stroke="#5A06FF" stroke-width="2" stroke-linecap="round"></path>
                                            <path d="M41.5512675,88.8790299 L66.7075865,87.9664229 L68.6176451,99.0500133 C66.5572897,102.559394 61.9014271,103.672036 54.6500574,102.387939 C47.3986878,101.103843 42.4567283,98.4101488 39.8241791,94.3068566 L41.5512675,88.8790299 Z" id="Rectangle-47" fill="#FFFFFF"></path>
                                            <path d="M73.1801735,68.1676245 C73.1860216,68.3730926 73.5381752,69.5214549 74.1825433,71.3173263 C74.8753509,73.2482003 75.9121336,75.9706869 77.2920074,79.4820951 L77.4180345,79.8028001 L77.3197512,80.1330649 L72.6154745,95.9347513 C71.7687401,98.2615523 71.9119562,98.882236 72.6468842,98.8705513 C74.1202431,98.8471262 81.1870252,86.5932863 82.1913543,82.8468295 C83.4010165,78.3344168 81.9511029,65.2781311 78.2845273,60.2335351 C77.385225,58.9962451 76.7205956,58.6149552 76.2680257,58.7370345 C75.8100546,58.8605707 75.2549217,59.514959 74.7410107,60.64716 C73.7903497,62.7415678 73.1265418,66.2833228 73.1801735,68.1676245 Z" id="Rectangle-49-Copy" stroke="#000000" stroke-width="2" fill="#FFFFFF" transform="translate(77.295649, 78.792996) rotate(-5.000000) translate(-77.295649, -78.792996) "></path>
                                            <path d="M65.4833358,53.330858 C65.3880626,49.9962959 63.8361788,43.0676272 69.8366018,46.3208554 C73.8368837,48.4896742 76.5577026,53.8913043 77.9990582,62.5257457 C75.9448911,65.1587371 74.1249451,66.8680872 72.5392203,67.6537959 C70.9534955,68.4395046 69.148112,68.5264643 67.1230699,67.914675 C66.0934293,60.4151718 65.5468513,55.5538995 65.4833358,53.330858 Z" id="Rectangle-49" stroke="#5A06FF" stroke-width="2" fill="#FFFFFF" stroke-linecap="round" transform="translate(71.616627, 56.894876) rotate(-15.000000) translate(-71.616627, -56.894876) "></path>
                                            <path d="M66.4795923,94.3749321 C66.4795923,94.3749321 74.4138667,93.1402628 75.4160989,94.3779165 C76.4183311,95.6155702 75.9377659,109.896597 75.4218382,111.565946 C74.9059105,113.235294 66.7719207,112.928951 66.0656815,112.056818 C65.3594423,111.184686 68.7816915,106.309455 68.7807083,103.364833 C68.779725,100.420212 66.4795923,94.3749321 66.4795923,94.3749321 Z" id="Rectangle-53" stroke="#5A06FF" stroke-width="2" fill="#FFFFFF" stroke-linecap="round" transform="translate(70.985631, 103.296388) rotate(-51.000000) translate(-70.985631, -103.296388) "></path>
                                            <path d="M6.79022722,51.2707455 L14.1977478,51.2707455 C13.0310794,56.7262076 11.5374786,59.4539387 9.71694536,59.4539387 C7.89641214,59.4539387 6.92083943,56.7262076 6.79022722,51.2707455 Z" id="Rectangle-64" stroke="#5A06FF" stroke-width="2" fill="#FFFFFF" stroke-linecap="round"></path>
                                            <path d="M76.7850468,102.305303 L76.4597125,99.8025114 C71.736975,97.2124558 68.8151297,96.3885589 68.0578471,97.0330264 C66.7787413,98.1215791 67.6179089,103.866139 68.9899275,104.402487 C69.9362722,104.772431 72.6278895,104.101314 76.7850468,102.305303 Z" id="Rectangle-60" stroke="#000000" stroke-width="2" fill="#FFFFFF" transform="translate(72.149611, 100.669230) rotate(-58.000000) translate(-72.149611, -100.669230) "></path>
                                            <polygon id="Rectangle-52" fill="#FFFFFF" points="74.5963488 95.3454701 76.5419683 95.6855328 75.4531146 99.3867651 73.1766945 97.3661176"></polygon>
                                            <path d="M14.0859992,100.003853 C17.6088982,100.003402 25.309061,96.8116433 25.3096615,92.1174173 C25.3099461,89.8933372 23.882659,82.9024119 21.3654047,78.2167641 C18.5696486,73.0127096 16.3001969,68.3249504 12.7177118,70.196327 C9.13522667,72.0677036 11.2522365,74.206191 9.76830274,77.1358697 C6.9982126,82.6047621 3.11918772,86.8108795 3.11850849,92.1202544 C3.11790796,96.8144804 10.5631002,100.004303 14.0859992,100.003853 Z" id="Oval-41" stroke="#5A06FF" stroke-width="2" fill="#FFFFFF" stroke-linecap="round" transform="translate(14.214085, 84.890099) scale(-1, 1) rotate(11.000000) translate(-14.214085, -84.890099) "></path>
                                            <path d="M5.22615591,60.7403101 C6.48934809,59.6648198 9.98273908,59.9877603 15.7063289,61.7091313 C16.534005,65.1007649 16.5097813,67.2168577 15.6336577,68.0574099 C14.3194723,69.318238 8.46731783,70.5962395 6.43774655,69.803432 C4.40817527,69.0106246 3.33136765,62.3535454 5.22615591,60.7403101 Z" id="Rectangle-60-Copy" fill="#292929" transform="translate(10.275145, 65.084170) rotate(75.000000) translate(-10.275145, -65.084170) "></path>
                                            <path d="M50.9472977,40.4864975 L50.9472977,44.7129139 C52.2984408,45.4658578 53.3285575,45.8322437 53.987653,45.8322437 C54.6467485,45.8322437 55.6768653,45.4658578 57.0280084,44.7129139 L57.0280084,38.6034226 L50.9472977,40.4864975 Z" id="Rectangle-61" stroke="#000000" stroke-width="2" fill="#FFFFFF"></path>
                                            <ellipse id="Oval-33" stroke="#000000" stroke-width="2" fill="#FFFFFF" cx="43.4263737" cy="26.8115532" rx="2.30230377" ry="2.30004976"></ellipse>
                                            <path d="M50.8422492,41.3191177 C57.6698374,41.8247614 58.9609847,40.8032682 62.7868601,32.9965314 C66.1601253,26.1133503 61.4925903,13.5126266 55.2025459,13.5126266 C50.6704949,13.5126266 44.9911171,15.233502 43.5993093,17.3750604 C42.8274184,18.56276 42.6431087,20.1386641 42.6148606,24.0528542 C42.6146432,24.0829696 42.6146432,24.0829696 42.6144254,24.1130995 C42.5988712,26.2622112 42.5633209,27.2493143 42.4179817,28.3778262 C41.2927551,37.1148474 43.6189863,40.7841708 50.8422492,41.3191177 Z" id="Oval-35" stroke="#000000" stroke-width="2" fill="#FFFFFF"></path>
                                            <path d="M60.9865284,18.457636 C66.7308533,20.5203019 70.1719403,14.412672 70.1719403,9.30233664 C70.1719403,4.19200128 65.6118079,0.0492559429 59.9865994,0.0492559429 C54.361391,0.0492559429 48.2007567,2.53897697 48.2007567,7.64931233 C48.2007567,8.47179965 42.215154,7.69620286 39.0914595,11.4734371 C35.967765,15.2506713 36.1953379,18.0090277 37.0123141,22.8879796 C37.8292904,27.7669315 42.1346128,31.0955191 43.1008524,30.8332193 C44.6015289,30.4258387 42.7434086,24.8509301 44.9551756,21.165963 C47.1669426,17.4809959 59.13311,17.7921126 60.9865284,18.457636 Z" id="Oval-40" stroke="#5A06FF" stroke-width="2" fill="#FFFFFF" stroke-linecap="round" transform="translate(53.329686, 15.448473) scale(-1, 1) translate(-53.329686, -15.448473) "></path>
                                            <path d="M39.8736819,97.7506675 C40.1732252,97.5080786 45.2558104,99.7325204 46.0099404,100.663884 C46.141638,100.826533 46.8851775,102.270381 46.8701464,103.548822 C46.8472603,105.495374 45.9506741,107.508037 45.4242618,107.570103 C44.5521163,107.672933 40.9974117,105.428003 40.427192,104.723772 C40.1735519,104.410522 40.7378582,102.916801 40.7875121,101.231108 C40.8494874,99.1271204 39.5741387,97.9932564 39.8736819,97.7506675 Z" id="Rectangle-53-Copy" stroke="#5A06FF" stroke-width="1.6" fill="#FFFFFF" stroke-linecap="round" transform="translate(43.349207, 102.652913) scale(-1, 1) rotate(125.000000) translate(-43.349207, -102.652913) "></path>
                                            <path d="M32.4012427,93.5442778 C32.700786,93.3016889 35.7716135,92.3457467 36.7426904,93.2968022 C37.7137673,94.2478577 39.6045565,95.4047342 39.5816703,97.3512858 C39.5587842,99.2978374 39.5003667,100.722809 38.9739543,100.784875 C38.1018088,100.887704 36.4984441,101.267115 35.9282245,100.562884 C35.6745843,100.249634 35.5858409,99.0456658 34.8735051,97.0750343 C34.1611692,95.1044028 32.1016995,93.7868667 32.4012427,93.5442778 Z" id="Rectangle-53-Copy-3" stroke="#5A06FF" stroke-width="1.6" fill="#FFFFFF" stroke-linecap="round" transform="translate(35.976782, 96.931509) scale(-1, 1) rotate(125.000000) translate(-35.976782, -96.931509) "></path>
                                            <path d="M57.1813178,102.789461 C57.4809854,102.546936 62.5652022,104.770208 63.319529,105.701186 C63.4512609,105.863767 63.6012393,106.673287 63.5861067,107.951277 C63.5630657,109.897141 62.3014981,111.007845 61.7748947,111.069929 C60.9024328,111.172788 57.346639,108.928919 56.7762705,108.22498 C56.5225642,107.91186 57.4516953,107.31994 57.5014938,105.63484 C57.5636495,103.531592 56.8816503,103.031987 57.1813178,102.789461 Z" id="Rectangle-53-Copy-2" stroke="#5A06FF" stroke-width="1.6" fill="#FFFFFF" stroke-linecap="round" transform="translate(60.159818, 106.922225) scale(-1, 1) rotate(157.000000) translate(-60.159818, -106.922225) "></path>
                                            <path d="M48.4465943,34.3176284 C49.5639049,34.6052772 50.4104555,34.7491016 50.9862462,34.7491016 C51.562037,34.7491016 52.4085876,34.6052772 53.5258981,34.3176284" id="Line-5" stroke="#212121" stroke-width="1.6" stroke-linecap="round"></path>
                                            <g id="Group-103" transform="translate(58.455102, 23.366081)" fill="#FFFFFF">
                                                <ellipse id="Oval-33" stroke="#000000" stroke-width="2" cx="4.72466038" cy="4.67921616" rx="2.30230377" ry="2.30004976"></ellipse>
                                                <path d="M2.81626534,9.10442642 C4.17995222,9.10442642 5.55779062,5.82628273 5.55779062,4.46352663 C5.55779062,3.87053605 4.53065239,3.26485142 2.47637593,2.64647275 C2.60573898,1.08967359 2.51255601,0.311274012 2.19682703,0.311274012 C0.83314014,0.311274012 0.0747400562,3.10077054 0.0747400562,4.46352663 C0.0747400562,5.82628273 1.45257845,9.10442642 2.81626534,9.10442642 Z" id="Oval-33"></path>
                                            </g>
                                            <path d="M52.8336316,22.93185 C49.6110949,21.7894526 47.4706642,21.9459077 46.4123396,23.4012154 C44.8248527,25.5841769 44.4856433,29.6772587 45.3041485,30.3980589 C45.8498186,30.8785924 46.6439174,30.8276963 47.686445,30.2453705" id="Line" stroke="#212121" stroke-width="1.6" stroke-linecap="round" transform="translate(48.853844, 26.451101) scale(-1, 1) rotate(-9.000000) translate(-48.853844, -26.451101) "></path>
                                            <ellipse id="Oval-3" fill="#212121" cx="46.9087449" cy="26.5467566" rx="1" ry="1"></ellipse>
                                            <ellipse id="Oval-3-Copy-2" fill="#212121" cx="55.4929155" cy="26.5230047" rx="1" ry="1"></ellipse>
                                        </g>
                                        <g id="Group-43" transform="translate(89.474681, 4.557470)">
                                            <g id="Group-33" transform="translate(0.000000, 0.479892)">
                                                <g id="Group-22-Copy" transform="translate(82.887356, 210.653903) scale(-1, 1) rotate(-14.000000) translate(-82.887356, -210.653903) translate(53.510393, 194.543955)">
                                                    <ellipse id="Oval-39" fill="#030303" opacity="0.102287946" transform="translate(29.131346, 16.142647) rotate(9.000000) translate(-29.131346, -16.142647) " cx="29.1313458" cy="16.1426474" rx="27.3136632" ry="11.5103332"></ellipse>
                                                    <path d="M36.6452221,10.1833136 C40.5046224,9.61420702 43.9468226,9.30662209 46.9718228,9.26055887 C50.5410692,9.20620813 56.0658625,12.5519441 56.1652802,12.9135779 C56.6311782,14.608292 56.201792,16.0056935 54.9269741,17.2640399 C53.6521562,18.5223862 51.0425416,18.989691 49.6483176,18.9895747 C47.2005057,18.9893706 44.3734212,17.8191181 41.335765,16.9809083 C39.7715602,16.5492822 37.6229884,16.608169 36.5479957,16.1177088 C35.3142757,15.5548301 34.8685823,15.0318982 34.7795871,14.8123405 C34.2939696,13.6142865 34.3835309,11.9029865 34.9885629,10.9466542 C35.1918364,10.6253538 35.7440562,10.3709069 36.6452221,10.1833136 Z" id="Rectangle-55-Copy" stroke="#02EBCD" stroke-width="3" fill="#02EBCD" stroke-linecap="round" transform="translate(45.407722, 14.124739) rotate(22.000000) translate(-45.407722, -14.124739) "></path>
                                                    <path d="M36.5053646,8.19079005 C40.2803571,7.49178808 43.8076185,7.39468084 47.0871487,7.89946834 C52.006444,8.6566496 56.1859872,10.5311493 56.7078048,11.3849731 C56.9780683,11.8271916 57.4583788,13.7964317 56.5452182,15.2999915 C55.6952725,16.6994652 53.479806,17.6516328 52.8845632,17.735386 C51.6498065,17.9091215 36.093098,15.4825871 35.0017218,12.7784736 C34.2741376,10.9757313 34.7753519,9.44650349 36.5053646,8.19079005 Z" id="Rectangle-55" fill="#292929" transform="translate(45.878239, 12.663069) rotate(22.000000) translate(-45.878239, -12.663069) "></path>
                                                </g>
                                                <g id="Group-40" transform="translate(0.000000, 0.222346)">
                                                    <g id="Group-42" transform="translate(49.763064, 49.155289) rotate(28.000000) translate(-49.763064, -49.155289) translate(12.804949, 13.618640)">
                                                        <path d="M19.7218051,29.106262 L22.8306843,29.627971 C25.6579335,28.5690401 27.3070447,27.6714122 27.6135173,27.1601032 C28.2348153,26.1235497 28.8520979,25.2461337 29.5476618,24.3779356 C29.9431653,23.8842708 31.1639638,22.4603596 31.1660691,22.4578349 C31.9750076,21.4877142 32.4642775,20.7464122 32.90353,19.7448597 C32.9565141,19.6240493 32.7513115,19.2938079 31.9924769,18.7936448 C31.0807144,18.1926839 29.6629457,17.6035719 28.0394289,17.1445511 C24.8022581,16.2292981 21.5633902,16.0849278 20.944327,16.682807 C19.8850974,17.7057905 19.3995819,21.9561779 19.7218051,29.106262 Z" id="Rectangle-5-Copy-3" stroke="#000000" stroke-width="2" fill="#FFFFFF" transform="translate(26.266319, 22.993776) rotate(-50.000000) translate(-26.266319, -22.993776) "></path>
                                                        <path d="M49.7172076,26.7850031 C52.0932242,19.7861728 55.6595847,22.7359206 60.8374707,24.9611179 C63.072136,25.9214657 62.8589928,32.0402569 63.3324506,39.486257 C63.9560298,49.2931934 61.2071904,65.7896455 60.361079,66.6000832 C57.0153213,69.8047772 36.6514891,59.2967389 36.1755658,57.6357388 C35.6996425,55.9747388 35.9161076,52.7253059 37.1455987,52.2061076 C37.9652594,51.8599753 42.4086285,52.2583063 50.4757061,53.4011003 C48.3860294,40.3229224 48.1331965,31.4508899 49.7172076,26.7850031 Z" id="Rectangle-56-Copy" stroke="#02EBCD" stroke-width="2" fill="#FFFFFF" stroke-linecap="round" transform="translate(49.682758, 44.802864) rotate(34.000000) translate(-49.682758, -44.802864) "></path>
                                                        <g id="Group-102" transform="translate(32.452970, 34.301971) rotate(-23.000000) translate(-32.452970, -34.301971) translate(8.288048, 8.241762)">
                                                            <path d="M16.1427902,10.5679625 C16.9595257,9.79821604 20.875726,9.35766836 27.891391,9.2463195 L29.8648252,14.784581 L26.9357565,15.4009249 L25.5351447,11.8633119 L19.2882401,12.8799599 L19.2887115,17.8881284 L16.1434792,17.8878325 C15.3262844,13.7776657 15.3260547,11.337709 16.1427902,10.5679625 Z" id="Rectangle-102-Copy" fill="#292929" transform="translate(22.697618, 13.567224) rotate(-8.000000) translate(-22.697618, -13.567224) "></path>
                                                            <path d="M18.0303889,10.5706187 C19.9219667,8.97678168 28.4279055,8.52662627 30.0516647,9.2490013 C31.1341708,9.73058465 31.8072453,11.5766732 32.0708881,14.7872671 L29.0738375,15.4036046 L27.6407268,11.8659885 L21.2488362,12.8826229 L21.2493076,17.8907914 L18.0310779,17.8904887 C16.7695666,14.0731333 16.769337,11.6331767 18.0303889,10.5706187 Z" id="Rectangle-102" fill="#292929" transform="translate(24.577830, 13.402581) rotate(-8.000000) translate(-24.577830, -13.402581) "></path>
                                                            <path d="M16.5848473,5.36575976 C16.4350047,5.50953998 16.2766583,5.55084591 16.0893289,5.57064655 C16.0627012,5.57346109 16.0639141,5.5734586 16.0789703,5.57429656 C16.1251091,5.57686443 16.1879869,5.58294728 16.2653642,5.59246632 C16.2858648,5.58153747 16.3022453,5.57243478 16.3133651,5.5656515 C16.4124842,5.50518694 16.5016555,5.4400844 16.5815369,5.36247566 Z M15.0881696,4.03959041 C15.1168277,3.99101566 15.1444635,3.94586544 15.1719931,3.9041019 C15.239506,3.87168504 15.2797498,3.85342322 15.271823,3.85825875 C15.2190839,3.89043059 15.162138,3.93727409 15.1014726,4.0235209 Z" id="Rectangle-5-Copy-3" stroke="#000000" stroke-width="2" fill="#FFFFFF" transform="translate(22.483000, 8.981351) rotate(-215.000000) translate(-22.483000, -8.981351) "></path>
                                                            <g id="Group-101" transform="translate(0.000000, 12.384115)">
                                                                <path d="M30.9587739,8.04636015 C30.9723642,8.13615533 30.9919772,8.24334494 31.0176524,8.36576898 C31.1164847,8.83701753 31.2957328,9.49300886 31.5443568,10.2948745 C32.0238016,11.8411865 32.7419473,13.8674795 33.542981,15.9435 C34.3439804,18.0194316 35.166283,19.9854867 35.8372841,21.4208463 C36.1844155,22.163406 36.4835319,22.7478317 36.7159979,23.1372642 C36.7426718,23.1819489 36.7681147,23.2234429 36.7921418,23.2615673 C37.6092049,23.0522723 39.6250721,22.4009659 41.6336697,21.6670248 C43.8518396,20.856506 45.8005499,20.0325748 46.389903,19.7061892 C46.3841376,19.6402386 46.3754791,19.5639423 46.3637496,19.47847 C46.3064041,19.0605971 46.1834784,18.4731542 46.0021097,17.7494718 C45.6553516,16.3658673 45.1078285,14.5354657 44.4664896,12.5996679 C43.845811,10.7262301 43.1806761,8.88619421 42.6181156,7.48868716 C42.3318456,6.77753827 42.079139,6.19840503 41.8753898,5.78724432 C41.7873006,5.60948272 41.7107369,5.468076 41.6496611,5.36856745 C40.6640986,5.27937761 32.2326978,7.38954581 30.9587739,8.04636015 Z M46.3992217,19.8854471 C46.3987722,19.8906161 46.3985128,19.895555 46.398381,19.9002969 C46.3987689,19.886339 46.3988098,19.8708525 46.3984955,19.8538921 Z" id="Rectangle-59-Copy-2" stroke="#000000" stroke-width="2" fill="#FFFFFF"></path>
                                                                <path d="M8.89365902,9.80699528 C8.90295308,9.90544366 8.9193677,10.0283426 8.94308734,10.1722973 C9.0200546,10.6394124 9.16671171,11.2888161 9.37389244,12.0816008 C9.77460764,13.6149524 10.3850596,15.6206079 11.0710513,17.6670837 C11.760675,19.7243947 12.4735493,21.6647671 13.0630105,23.0790583 C13.3682164,23.8113374 13.6337441,24.386722 13.8428181,24.7686276 C13.8623128,24.8042376 13.8810787,24.8377061 13.8990093,24.8689268 C17.1903197,24.2719961 38.5408735,18.9134785 40.9183231,18.0416664 C40.9063484,17.96539 40.8907579,17.8787026 40.8715033,17.78264 C40.7732532,17.2924647 40.589665,16.6033816 40.331028,15.7517349 C39.8412985,14.1391401 39.0981995,11.9957268 38.2434974,9.71436594 C37.4229271,7.52410919 36.5565752,5.36029401 35.841378,3.71607912 C35.4773813,2.87926293 35.1614566,2.19755069 34.9127023,1.71320171 C34.829103,1.55042566 34.7544109,1.41259038 34.6903729,1.30229246 C34.4463092,1.31596643 34.109789,1.3512094 33.6996893,1.4069409 C32.7634403,1.53417477 31.5093385,1.75851662 30.1068015,2.05301715 C26.7979915,2.74779118 23.1512117,3.72122945 19.9334388,4.81378049 C15.546259,6.30338774 9.85823541,9.10021105 8.89365902,9.80699528 Z" id="Rectangle-59-Copy-3" stroke="#000000" stroke-width="2" fill="#FFFFFF"></path>
                                                                <path d="M20.1128312,7.83410312 C20.1269474,8.03025031 20.1710454,8.31095638 20.2449164,8.6631855 C20.4007769,9.4063547 20.6802055,10.4289745 21.0667003,11.6755029 C21.8071988,14.0637694 22.914346,17.1876543 24.1489717,20.387405 C25.3836205,23.5872158 26.6514602,26.6185121 27.6880926,28.836005 C28.2283521,29.9916911 28.6953314,30.9040939 29.0633492,31.520606 C29.1946196,31.7405134 29.3101804,31.9172489 29.405002,32.0456369 C31.8033006,31.61559 43.4289274,27.3555452 44.9349512,26.2541931 C44.9364125,26.0884249 44.9173308,25.8505178 44.87637,25.5520386 C44.7851651,24.8874347 44.5926604,23.9674838 44.309695,22.8384192 C43.7733536,20.6983553 42.9285935,17.8742735 41.9394842,14.8887758 C40.0503364,9.18662907 37.8575361,3.73929718 37.5043483,3.52150547 C37.2078962,3.33869956 33.0652496,4.016031 28.6623751,5.12212389 C24.5821995,6.14714817 20.8224843,7.39417861 20.1128312,7.83410312 Z" id="Rectangle-59-Copy" stroke="#000000" stroke-width="2" fill="#FFFFFF"></path>
                                                                <path d="M26.8012454,10.0884386 C26.8061921,10.136066 26.8144001,10.1941392 26.8258964,10.261629 C26.7365684,10.3033526 26.6802603,10.3382419 26.6619746,10.3650474 C26.7813195,10.1900967 26.7986393,10.1129988 26.797744,10.0554683 Z M26.8258964,10.261629 C26.8366076,10.3245099 26.8501732,10.3955653 26.8666151,10.4739626 C26.9541338,10.8912669 27.113508,11.4745256 27.3347809,12.188178 C27.7624372,13.5674611 28.4034119,15.3760113 29.1184286,17.2291036 C29.8333996,19.0820775 30.5673155,20.8368075 31.1657818,22.1170057 C31.4746,22.7776083 31.7404154,23.2969692 31.9459904,23.6413531 C31.9549753,23.656405 31.9637919,23.6710286 31.9724293,23.6852139 C32.7271715,23.4833507 34.47975,22.9153309 36.2126576,22.2821269 C38.1214193,21.5846658 39.8284492,20.865199 40.3869969,20.5732099 C40.3826306,20.5326822 40.3772018,20.4884357 40.3706615,20.4407771 C40.3200331,20.0718512 40.2109108,19.5503721 40.049697,18.9071103 C39.7405489,17.673574 39.2519923,16.040301 38.679645,14.3127451 C38.1256537,12.6405946 37.5320185,10.9983558 37.0302015,9.75174733 C36.7753239,9.11858307 36.5505211,8.60339748 36.3698541,8.23881627 C36.302908,8.10372084 36.243789,7.99299265 36.1950124,7.91009588 C35.2869976,7.88170636 28.034441,9.69713901 26.8258964,10.261629 Z M40.4013306,20.7859787 C40.4010056,20.7908595 40.4007922,20.7956321 40.4006621,20.8003112 C40.4010407,20.7866887 40.4009979,20.7710645 40.4005191,20.7535303 Z" id="Rectangle-59-Copy" stroke="#000000" stroke-width="2" fill="#FFFFFF"></path>
                                                                <path d="M6.421376,14.2297696 C6.43981098,14.4145188 6.49007949,14.6797404 6.57180658,15.0123298 C6.74664262,15.7238273 7.05439242,16.7023756 7.47709268,17.8949676 C8.28575875,20.1765105 9.48669405,23.1601229 10.8240992,26.2251601 C12.1546549,29.2744999 13.5191545,32.1724079 14.6284734,34.2941815 C15.2048532,35.3966125 15.7007701,36.2675203 16.0883848,36.8559441 C16.2328926,37.0753161 16.3587687,37.2497066 16.460271,37.3736765 C18.5394793,36.9861571 27.7300928,33.2378712 29.2089054,32.0992961 C29.1977999,31.9283357 29.161841,31.6876676 29.1004875,31.3884015 C28.9583378,30.6950328 28.6904891,29.7333696 28.3113411,28.5500458 C27.5972477,26.3213544 26.5089153,23.3714965 25.2492487,20.2257576 C22.9574969,14.5026143 20.3891599,8.97273345 19.8409439,8.31976169 C19.7462434,8.32016729 19.6144512,8.33263662 19.4520527,8.35885441 C19.0425777,8.42496048 18.4885672,8.56953756 17.8197819,8.78521882 C16.5348864,9.19959381 14.8775582,9.85964896 13.1179128,10.6502826 C10.0222152,12.0412234 7.0884302,13.6446062 6.421376,14.2297696 Z" id="Rectangle-59" stroke="#000000" stroke-width="2" fill="#FFFFFF"></path>
                                                                <path d="M0.201769381,19.3998644 C1.47377687,16.5610902 13.2067242,11.4006999 15.6157633,13.0472759 C18.0248024,14.6938519 24.1590507,27.700497 22.1835516,30.4702753 C20.2080524,33.2400536 9.05295107,37.8640169 6.52075425,36.7712723 C3.98855744,35.6785276 -1.07023811,22.2386385 0.201769381,19.3998644 Z" id="Rectangle-101" fill="#292929"></path>
                                                                <path d="M3.30633148,20.8038005 C2.51575051,22.5681618 6.34978574,32.9508194 7.94107467,33.6375246 C9.48404015,34.3033762 18.1062085,30.7909143 19.4986826,28.838575 C20.532727,27.3887776 16.355874,17.3824964 14.3946209,16.0419817 C13.0689943,15.1359172 4.15138991,18.9178604 3.30633148,20.8038005 Z" id="Rectangle-101-Copy" stroke="#000000" stroke-width="2" fill="#FFFFFF"></path>
                                                                <path d="M5.80632684,22.0895485 C5.61894906,22.5077247 6.02772843,24.5534623 6.83435057,26.737814 C7.61743462,28.858424 8.62700264,30.6745924 8.9455902,30.8120758 C9.2770176,30.9551 10.9766421,30.5718081 12.823438,29.8194683 C14.7380254,29.0395119 16.4038947,28.0546234 16.796369,27.504349 C17.0181952,27.1933341 16.6390167,25.3427398 15.7390945,23.1868404 C14.8753746,21.1176692 13.7122133,19.1493607 13.2466701,18.8311623 C12.4714701,18.3013138 6.33827064,20.9023949 5.80632684,22.0895485 Z" id="Rectangle-101-Copy-2" stroke="#000000" stroke-width="2" fill="#FFFFFF"></path>
                                                            </g>
                                                            <ellipse id="Oval-32" stroke="#000000" stroke-width="2" fill="#FFEE55" transform="translate(11.146393, 37.366819) rotate(-25.000000) translate(-11.146393, -37.366819) " cx="11.1463932" cy="37.3668192" rx="1.54743656" ry="2.02375346"></ellipse>
                                                        </g>
                                                    </g>
                                                </g>
                                                <g id="Group-22" transform="translate(80.663173, 191.982613)">
                                                    <g id="Group-22-Copy-2" transform="translate(16.159388, 14.083105) rotate(-12.000000) translate(-16.159388, -14.083105) translate(2.418551, 3.659021)">
                                                        <path d="M3.75669339,6.75803626 C7.61609371,6.18892963 11.058294,5.88134471 14.0832941,5.83528148 C17.6525405,5.78093074 23.9364082,9.58893583 24.0358259,9.95056964 C24.5017239,11.6452837 26.7233284,15.30924 22.7985191,16.3819808 C20.3023006,17.0642548 13.2685554,14.7062238 8.49871498,13.1765542 C5.76892594,12.3011213 4.20955083,12.8146509 2.54873619,11.1113901 C0.88792155,9.4081293 1.81756086,7.94979744 2.42259284,6.99346513 C2.62586638,6.67216466 3.07056657,6.59368837 3.75669339,6.75803626 Z" id="Rectangle-55-Copy" stroke="#02EBCD" stroke-width="3" fill="#02EBCD" stroke-linecap="round" transform="translate(13.347083, 11.168834) rotate(22.000000) translate(-13.347083, -11.168834) "></path>
                                                        <path d="M3.6484957,4.73838084 C8.14695477,4.51631932 11.7369836,4.5505671 14.4185823,4.84112417 C18.4409803,5.27695979 21.2886471,6.13094067 23.8509359,7.93256387 C26.4132247,9.73418708 25.7256911,11.4314037 25.2467677,12.4547508 C24.4205857,14.2201083 20.7603098,14.5401393 20.3027014,14.6208935 C19.2183875,14.8122425 3.23622903,12.0301778 2.14485281,9.32606442 C1.41726866,7.52332213 1.91848296,5.99409428 3.6484957,4.73838084 Z" id="Rectangle-55" fill="#292929" transform="translate(13.763639, 9.612161) rotate(22.000000) translate(-13.763639, -9.612161) "></path>
                                                    </g>
                                                    <path d="M6.91399781,1.47895521 L8.04771507,8.10922836 C8.97440204,8.54444646 9.66323913,8.75554023 10.0701765,8.7555209 C10.4587503,8.75550245 11.0735749,8.55776426 11.8796816,8.14627462 L12.6848557,1.54408735 L6.91399781,1.47895521 Z" id="Rectangle-24-Copy" stroke="#000000" stroke-width="2" fill="#FFFFFF" transform="translate(9.769433, 5.110503) rotate(4.000000) translate(-9.769433, -5.110503) "></path>
                                                </g>
                                                <path d="M75.7257855,115.43873 L100.612277,107.790455 C96.8034392,113.442361 93.7646288,122.038797 91.4958456,133.579764 C90.7802259,137.220017 88.7451604,147.258538 85.3906491,163.695328 C84.5723698,184.725372 83.8670948,195.488106 83.2748244,195.98353 C82.558076,196.583077 80.2062051,197.919443 77.9243802,197.989738 C76.0747528,198.046718 74.2012299,197.038605 73.8369379,195.983081 C73.5117385,195.040827 71.6786549,168.868848 71.6783635,162.73647 C71.6781692,158.648219 73.0273098,142.882305 75.7257855,115.43873 Z" id="Rectangle-54" fill="#292929" transform="translate(86.145320, 152.891249) scale(-1, 1) rotate(-4.000000) translate(-86.145320, -152.891249) "></path>
                                                <path d="M71.0197706,192.162901 L71.7035301,199.178653 C72.6093407,199.600849 73.2837197,199.805751 73.6845591,199.805784 C74.0731675,199.805816 74.6880554,199.608108 75.49425,199.19661 L76.2785985,192.808604 L71.0197706,192.162901 Z" id="Rectangle-24" stroke="#000000" stroke-width="2" fill="#FFFFFF" transform="translate(73.648248, 195.912056) rotate(-7.000000) translate(-73.648248, -195.912056) "></path>
                                                <path d="M69.3988998,107.798244 L91.0603544,107.945456 C89.1778329,109.995281 86.9683694,117.472139 84.4319638,130.376029 C83.3042379,136.113302 80.4744516,147.461283 75.9426049,164.419971 C74.7579608,183.519511 73.9741802,193.252854 73.591263,193.620003 C73.15617,194.037178 71.3968979,195.236743 69.7577861,195.399835 C67.5008072,195.624405 65.2197083,194.624337 64.6546544,193.619369 C64.3135124,193.012636 63.5846841,169.401693 63.5842381,163.121055 C63.5837922,156.840417 65.7890763,145.863395 66.4423748,135.927701 C66.9327949,128.469145 67.9183032,119.092659 69.3988998,107.798244 Z" id="Rectangle-54" fill="#292929" transform="translate(77.322296, 151.614988) rotate(-6.000000) translate(-77.322296, -151.614988) "></path>
                                                <path d="M69.3409883,105.238448 L96.1206079,106.847959 L91.7135435,132.380068 C89.1161812,135.048599 86.1219327,136.028165 82.7307981,135.318766 C79.3396635,134.609366 76.1470066,133.629801 73.1528273,132.380068 L69.3409883,105.238448 Z" id="Rectangle-54" fill="#292929" transform="translate(82.730798, 120.390342) scale(-1, 1) translate(-82.730798, -120.390342) "></path>
                                                <path d="M65.7594999,60.6618833 C71.3711435,54.8740077 76.2935786,51.966216 83.810681,51.966216 C91.3277833,51.966216 99.5488366,54.9174975 101.354784,57.201014 C102.33148,58.4359893 101.110049,69.1067491 98.1441085,95.3100615 C97.4539573,101.407367 100.502795,117.651591 100.502795,118.945072 C100.502795,120.238553 90.5361001,123.888364 82.2059162,123.094228 C73.8757324,122.300092 65.7594999,120.653259 63.9268318,118.945072 C62.0941638,117.236885 66.2013999,102.452236 65.7594999,96.9813634 C63.6454184,70.8083204 60.1478562,66.4497589 65.7594999,60.6618833 Z" id="Rectangle-14" stroke="#02EBCD" stroke-width="2" fill="#FFFFFF" stroke-linecap="round"></path>
                                                <path d="M65.7594999,60.6618833 C71.3711435,54.8740077 76.2935786,51.966216 83.810681,51.966216 C91.3277833,51.966216 99.5488366,54.9174975 101.354784,57.201014 C102.33148,58.4359893 101.110049,69.1067491 98.1441085,95.3100615 C97.4539573,101.407367 100.502795,117.651591 100.502795,118.945072 C100.502795,120.238553 90.5361001,123.888364 82.2059162,123.094228 C73.8757324,122.300092 65.7594999,120.653259 63.9268318,118.945072 C62.0941638,117.236885 66.2013999,102.452236 65.7594999,96.9813634 C63.6454184,70.8083204 60.1478562,66.4497589 65.7594999,60.6618833 Z" id="Rectangle-14" stroke="#02EBCD" stroke-width="2" fill="#FFFFFF" stroke-linecap="round"></path>
                                                <path d="M77.5387923,39.7973921 C76.6158289,49.8027674 76.1526261,55.7554999 76.1526261,57.5770317 C76.1526261,59.181423 77.6852923,59.6558431 82.4467536,59.6558431 C86.4248459,59.6558431 88.1548109,58.5786602 88.1548109,55.9166548 C88.1548109,50.8020954 88.1548109,50.654026 88.1548109,39.7973921 L77.5387923,39.7973921 Z" id="Rectangle-46" stroke="#000000" stroke-width="2" fill="#FFFFFF"></path>
                                                <path d="M103.287101,120.604403 C103.044351,121.033794 103.116716,124.616122 103.696934,130.359303 L103.696049,130.568743 C103.588002,131.554795 103.715096,131.997794 103.878227,132.081296 C104.202073,132.247065 105.18426,132.185216 106.698129,131.791175 C108.672285,130.493311 109.857894,129.512403 110.183157,128.970397 C111.012797,127.58792 111.471394,125.647854 111.554158,123.59007 C111.587699,122.756137 111.554369,121.957837 111.468877,121.324966 C111.431873,121.051034 111.386855,120.823911 111.340631,120.665265 C111.327479,120.620129 111.321299,120.604216 111.374863,120.653347 C111.102024,120.459316 109.238621,120.203126 107.196733,120.209702 C106.136133,120.213118 105.116013,120.279088 104.333548,120.396028 C103.948362,120.453594 103.633907,120.521685 103.412036,120.593847 C103.308847,120.627409 103.258281,120.651343 103.279599,120.613779 Z M111.374863,120.653347 C111.38494,120.66259 111.397132,120.674135 111.41179,120.688221 C111.406819,120.683444 111.401039,120.678643 111.394464,120.673821 Z M103.279599,120.613779 C103.283651,120.606639 103.290299,120.597278 103.299677,120.585339 C103.295395,120.59079 103.291203,120.597146 103.287101,120.604403 Z" id="Rectangle-5-Copy" stroke="#000000" stroke-width="2" fill="#FFFFFF" transform="translate(107.368174, 126.185957) rotate(-176.000000) translate(-107.368174, -126.185957) "></path>
                                                <path d="M82.1345531,55.6609386 C83.4913871,55.6609386 86.0616039,54.0702253 89.7816916,51.1992203 C91.5125209,49.8634401 92.6598353,47.389225 93.2891123,44.0568763 C93.7542706,41.5936214 93.8707031,39.4240546 93.8702744,36.2657742 C93.870268,36.2189204 93.870268,36.2189204 93.8702658,36.1731207 C93.8702658,35.6080972 93.8767196,35.2192881 93.9027316,33.9710753 C93.9577395,31.331462 93.9497738,29.9511644 93.8243382,28.3487516 C93.2487576,20.9958335 90.2051563,17.1914311 82.5854529,17.1914311 C76.7295671,17.1914311 73.4765835,18.8915137 71.8564039,22.240654 C70.568782,24.9023505 70.3136609,27.6950842 70.3376598,34.7074367 C70.340144,35.4333255 70.3409883,35.763658 70.3409883,36.1731207 C70.3409883,42.1188504 71.6153134,48.9756164 74.0052532,51.269406 C77.1540057,54.2914803 79.7290128,55.6609386 82.1345531,55.6609386 Z" id="Oval-28" stroke="#000000" stroke-width="2" fill="#FFFFFF"></path>
                                                <path d="M82.3926082,55.9965193 C88.2523042,55.4357897 90.368481,49.8498293 93.2885497,45.3237249 C94.1582194,43.9757375 91.7095759,47.6509289 88.2523042,46.4446538 C87.487666,46.1778642 86.6732173,43.9486782 85.8285397,43.7701986 C83.666968,43.3134604 81.3719807,43.7510083 79.2013,43.7701986 C77.7996505,43.7825901 76.7619991,45.1723729 75.5918627,45.3237249 C72.7885604,45.6863197 69.7147425,42.4816686 70.0529155,43.7701986 C72.08783,51.5237698 79.7011885,56.2540683 82.3926082,55.9965193 Z" id="Oval-28" fill="#030303" opacity="0.189787946"></path>
                                                <g id="Group-97" transform="translate(68.083001, 11.366272)" fill="#FFFFFF" stroke="#02EBCD" stroke-linecap="round" stroke-width="2">
                                                    <path d="M25.6099356,8.07340498 C27.3361457,9.46345607 27.8850946,11.9998784 27.2567821,15.6826721 C25.4260752,13.0419468 24.1239458,11.4269052 23.3503938,10.8375473 C21.1955921,9.19583522 17.2154765,9.39583329 14.5678979,9.46712994 C7.98341933,9.64444337 6.65367765,12.7289501 5.29928576,13.3143336 C2.30872321,14.6068886 2.37429998,18.5554173 1.85824696,18.5554173 C1.34219394,18.5554173 0.144227425,14.3775649 0.970049322,12.2179544 C1.60925902,10.5463542 1.5189545,7.56308341 4.46501146,5.51624623 C6.27016904,4.26207372 9.66106278,2.32393069 12.9577815,0.861461826 C16.2545002,-0.601007042 24.3423047,7.05263025 25.6099356,8.07340498 Z" id="Rectangle-58-Copy"></path>
                                                    <path d="M14.3346044,8.29793676 C25.8595348,9.02461716 26.2394722,14.1100217 27.4854962,15.1278271 C30.0306764,17.2068383 28.5217912,23.2856635 27.4854962,23.2856635 C27.1016316,23.2856635 27.1040249,20.8216038 25.8595348,18.9638394 C25.0952573,17.8229323 23.3785538,17.3757231 22.2380039,16.4942579 C20.1199309,14.8573215 16.2076567,15.0567378 13.6052064,15.1278271 C7.13296087,15.3046247 4.91824593,17.8108126 3.58693978,18.3944932 C0.647351656,19.6832881 1.91584396,24.0533188 1.40858711,24.0533188 C0.901330266,24.0533188 -0.572611276,20.0239778 0.239134409,17.8706494 C1.40151809,14.7871791 2.80967406,7.57125635 14.3346044,8.29793676 Z" id="Rectangle-58"></path>
                                                </g>
                                                <g id="Group-41" transform="translate(91.465041, 31.983403)" fill="#FFFFFF">
                                                    <ellipse id="Oval-33" stroke="#000000" stroke-width="2" cx="3.82261946" cy="3.48256457" rx="2.30230377" ry="2.30004976"></ellipse>
                                                    <path d="M2.14937953,5.66397767 C3.58237468,5.66397767 5.2378925,5.15029946 5.2378925,3.71828241 C5.2378925,2.28626536 2.7096025,0.794419502 1.27660735,0.794419502 C-0.156387803,0.794419502 0.0485580149,2.28626536 0.0485580149,3.71828241 C0.0485580149,4.47149859 0.457907792,5.58897576 1.27660735,7.07071391 C1.65685602,6.13288975 1.94778008,5.66397767 2.14937953,5.66397767 Z" id="Oval-33"></path>
                                                </g>
                                                <g id="Group-41" transform="translate(69.106374, 35.773979) scale(-1, 1) translate(-69.106374, -35.773979) translate(65.315798, 31.983403)" fill="#FFFFFF">
                                                    <ellipse id="Oval-33" stroke="#000000" stroke-width="2" cx="3.82261946" cy="3.48256457" rx="2.30230377" ry="2.30004976"></ellipse>
                                                    <path d="M2.14937953,5.66397767 C3.58237468,5.66397767 5.2378925,5.15029946 5.2378925,3.71828241 C5.2378925,2.28626536 2.7096025,0.794419502 1.27660735,0.794419502 C-0.156387803,0.794419502 0.0485580149,2.28626536 0.0485580149,3.71828241 C0.0485580149,4.47149859 0.457907792,5.58897576 1.27660735,7.07071391 C1.65685602,6.13288975 1.94778008,5.66397767 2.14937953,5.66397767 Z" id="Oval-33"></path>
                                                </g>
                                                <path d="M102.161499,62.4687603 C102.792606,60.1450111 101.995039,54.068576 106.083037,56.5796041 C110.171035,59.0906321 112.508641,65.0071939 113.838765,69.641451 C115.16889,74.2757082 114.398041,90.1249518 114.470602,97.6663946 C114.543162,105.207837 107.711753,121.703404 106.336946,123.019673 C105.501324,123.819714 103.522468,123.192279 102.476761,122.477159 C102.008178,122.156713 102.39155,113.957227 103.626877,97.8787015 L103.426287,81.2927439 C102.162357,70.2925875 101.740761,64.0179263 102.161499,62.4687603 Z" id="Rectangle-56" stroke="#02EBCD" stroke-width="2" fill="#FFFFFF" stroke-linecap="round" transform="translate(108.315768, 89.688045) rotate(-8.000000) translate(-108.315768, -89.688045) "></path>
                                            </g>
                                            <path d="M86.0025923,47.3748555 C84.8433805,48.5642083 83.4437521,49.1015432 81.8037072,48.9868601 C80.1636623,48.872177 78.9343952,48.1510118 78.1159058,46.8233646" id="Line-Copy" stroke="#212121" stroke-width="2" stroke-linecap="round" transform="translate(82.059249, 47.912677) rotate(-4.000000) translate(-82.059249, -47.912677) "></path>
                                            <path d="M91.1467326,33.2093116 C89.3590563,32.3293414 88.0624991,31.90853 87.2570608,31.9468773 C84.5471375,32.075898 83.6292997,32.7559699 83.103309,33.3674359 C82.5773182,33.9789019 81.2056823,40.1360229 81.2057333,40.6189948 C81.2057905,41.1611645 82.6434695,41.077637 85.5187702,40.3684122" id="Line" stroke="#212121" stroke-width="2" stroke-linecap="round" transform="translate(86.176233, 36.457907) rotate(-9.000000) translate(-86.176233, -36.457907) "></path>
                                            <ellipse id="Oval-3" fill="#212121" cx="87.8780431" cy="36.6461053" rx="1.22695126" ry="1.22651427"></ellipse>
                                            <ellipse id="Oval-3-Copy-3" fill="#212121" cx="76.8747298" cy="36.6461053" rx="1.22695126" ry="1.22651427"></ellipse>
                                            <path d="M100.678245,76.6579626 C101.296785,76.6579626 102.091101,77.0785152 103.061194,77.9196205 C104.314051,69.5264951 104.940479,64.7471486 104.940479,63.5815812 C104.940479,62.1137937 103.707427,60.2700384 101.241324,58.0503152 C99.2947642,56.7571261 98.1149263,56.2039974 97.7018101,56.3909291 C95.4316511,57.4181575 93.8723877,61.8520122 93.8723877,63.5815812 C93.8723877,64.8047778 95.7170696,69.960098 99.4064333,79.0475416 C99.6357679,77.4544889 100.059705,76.6579626 100.678245,76.6579626 Z" id="Oval-31" fill="#FFFFFF"></path>
                                        </g>
                                        <path d="M120.432274,174.214752 L134.445375,174.214752" id="Line-4-Copy-13" stroke="#5A06FF" stroke-width="3" stroke-linecap="round"></path>
                                        <path d="M88.0277275,231.044382 L112.250176,231.044382" id="Line-4-Copy-5" stroke="#5A06FF" stroke-width="3" stroke-linecap="round"></path>
                                        <path d="M23.7931166,192.263738 L41.9599526,192.263738" id="Line-4-Copy-15" stroke="#000000" stroke-width="3" stroke-linecap="round"></path>
                                        <path d="M279.969871,185.337415 L298.136707,185.337415" id="Line-4-Copy-16" stroke="#5A06FF" stroke-width="3" stroke-linecap="round"></path>
                                        <path d="M214.090503,169.404088 L225.510973,169.404088" id="Line-4-Copy-11" stroke="#000000" stroke-width="3" stroke-linecap="round"></path>
                                        <path d="M160.832248,253.19334 L178.999084,253.19334" id="Line-4-Copy-12" stroke="#000000" stroke-width="3" stroke-linecap="round"></path>
                                    </g>
                                </g>
                                <g id="Group-48" transform="translate(278.035512, 100.911354)" stroke-linecap="round">
                                    <path d="M14.3547839,5.52654702 C8.43200367,2.10529561 5.32544256,1.82928955 5.03510057,4.69852883 C4.59958759,9.00238776 11.3282981,13.2064233 10.0894916,15.8793347 C9.26362053,17.6612756 5.92828713,17.0693033 0.0834913414,14.1034179" id="Line-11" stroke="#5A06FF" stroke-width="2" fill="#FFFFFF" fill-rule="nonzero"></path>
                                    <path d="M9.25940076,0 L2.46917353,18.5061614" id="Line-12" stroke="#5A06FF" stroke-width="2" fill="#FFFFFF" fill-rule="nonzero"></path>
                                    <path d="M12.6952051,1.36778123 L6.14821799,18.976948" id="Line-12-Copy" stroke="#5A06FF" stroke-width="2" fill="#FFFFFF" fill-rule="nonzero"></path>
                                </g>
                            </g>
                        </g>
                        <g id="Group-45" mask="url(#mask-2)">
                            <g transform="translate(-2.750828, -15.806467)"></g>
                        </g>
                    </g>
                    <path d="M135.772871,340.880195 C183.070681,369.469102 281.245561,342.909845 304.261405,324.875236 C351.263987,288.045249 362,227.148851 362,167.487004 C362,140.390438 356.675145,89.1270211 345.147086,66.723679 C318.863179,15.6441912 283.42994,0 209.92467,0 C136.4194,9.32686439e-15 20.8481675,78.610427 20.8481675,167.487004 C20.8481675,256.363581 88.4750605,312.291288 135.772871,340.880195 Z" id="Oval-43" fill="#04EBCD" fill-rule="nonzero" opacity="0.113448661"></path>
                    <circle id="Oval-46" fill="#5A06FF" fill-rule="nonzero" cx="203.743455" cy="165.837696" r="31.2722513"></circle>
                    <path d="M193.371728,146.782543 L193.371728,182.997562 L222.688648,164.890052 L193.371728,146.782543 Z" id="Rectangle-65" stroke="#000000" stroke-width="2" fill="#FFFFFF" fill-rule="nonzero"></path>
                    <path d="M0,118.573907 C28.5147838,261.974648 100.599708,336.742172 216.254771,342.876479 C389.737367,352.077939 403.497436,-14.010623 216.254771,10.670955 C29.0121066,35.3525331 0.885715461,168.905725 33.5345211,221.95642" id="Line-8" stroke="#02EBCD" stroke-width="3" stroke-linecap="round" fill-rule="nonzero"></path>
                </g>

                <g id="Group-8" transform="translate(242.000000, 245.000000) rotate(-90.000000) translate(-242.000000, -245.000000) translate(169.000000, 219.000000)" fill-rule="nonzero" stroke="#FF02EC" stroke-linecap="round" stroke-width="3">
                    <path d="M130.748806,22.7515959 L139.808781,26.2346847" id="Line-4" transform="translate(135.278794, 24.493140) rotate(-29.000000) translate(-135.278794, -24.493140) "></path>
                    <path d="M137.060785,31.5511876 L145.10947,26.8738343" id="Line-4" transform="translate(141.085128, 29.212511) rotate(-61.000000) translate(-141.085128, -29.212511) "></path>
                    <path d="M0.834694883,3.16191517e-13 C35.974919,30.6149348 62.0951163,47.4523002 79.1952869,50.512096 C96.2954575,53.5718918 116.592071,45.0400556 140.085128,24.9165873" id="Line-3"></path>
                </g>
            </g>
        </g>
    </g>
</svg>