<svg xmlns="http://www.w3.org/2000/svg" id="Layer_1" viewBox="0 0 1520.3 697.7">
  <style>
    .st0,.st1{fill:none;stroke:#02ebcd;stroke-width:3;stroke-linecap:round}.st1{stroke:#e5e5e5;stroke-width:3.5}.st2{opacity:.1023;fill:#030303;enable-background:new}.st3{fill:#212121}.st4,.st5{fill:#fff;stroke:#000;stroke-width:2}.st5{stroke-width:1.5}.st6{fill:#ff02ec}.st7{fill:#fff;filter:url(#Adobe_OpacityMaskFilter)}.st8{mask:url(#path-11-inside-1)}.st9{fill:#ff02ec;stroke:#000;stroke-width:1.5}.st10{fill:#fff;filter:url(#Adobe_OpacityMaskFilter_1_)}.st11{mask:url(#path-18-inside-2)}.st12{stroke:#ff02ec;stroke-width:2}.st12,.st13{fill:#fff}.st14{fill:none;stroke:#212121;stroke-width:2;stroke-linecap:round}.st15{fill:#fe5}.st16{fill:#fff;stroke:#000;stroke-width:1.4}.st17{fill:#5a06ff}.st18,.st19{fill:#fff;stroke:#000}.st19{stroke-width:1.1}.st20,.st21{fill:none;stroke:#212121;stroke-width:1.4;stroke-linecap:round}.st21{stroke:#ff02ec;stroke-width:2}.st22,.st23,.st24,.st25{stroke:#000;stroke-width:2}.st23,.st24,.st25{fill:none;stroke-linecap:round}.st24,.st25{fill:#fff}.st25{fill:#fe5}.st26{fill:none;stroke:#5a06ff;stroke-width:4}.st27{fill:#4e5355}.st28{opacity:.2729;fill:#ff02ec;enable-background:new}.st29{fill:none}.st30,.st31{fill:none;stroke:#5a06ff;stroke-width:3;stroke-linecap:round}.st31{stroke:#000}.st32{fill:#292929}
  </style>
  <path d="M1184.3 425.6c-33.1 61.4-90-13.6-141.9 48.2M784.8 339.2c-20.1-6.3-63.2-10.6-30.5-43.9s159.1 107 219.3 53.5c60.2-53.5 80.8-171.7 168.9-180.1M343.5 479.8c3.9-24.5-69.2-148.6 54.8-174.2 124-25.6 251.7 7.1 225.8 63.8" class="st0"/>
  <path d="M1137.5 31.4h165.1M220.3 32.6h352.3" class="st1"/>
  <path d="M421.5 452.2c19.6 0 35.5-3.4 35.5-7.5s-15.9-7.5-35.5-7.5-35.5 3.4-35.5 7.5 15.9 7.5 35.5 7.5z" class="st2"/>
  <path d="M419.9 233.8h4.3v116.5h-4.3V233.8z" class="st3"/>
  <path d="M375.1 199.5c0-13.6 1.6-20.7 3.2-24.4.8-1.8 1.5-2.8 2-3.3.3-.2.4-.4.6-.4h2.4c1.7 0 4-.1 6.8-.1 5.7-.1 13.2-.2 20.8-.3 7.6-.1 15.2-.1 21-.1 2.9 0 5.3.1 7 .2.9 0 1.5.1 2 .2h.2c0 .1 0 .3.1.4.1.5.1 1.3.2 2.2.1 1.8.2 4.4.3 7.3.2 5.9.3 13.7.3 21.4 0 7.7-.1 15.4-.3 21.3-.1 2.9-.2 5.4-.3 7.2-.1.9-.1 1.6-.2 2.1 0 .1 0 .2-.1.3h-.2c-.5.1-1.1.1-2 .2-1.7.1-4.1.1-7 .2-5.8.1-13.4 0-21-.1s-15.1-.2-20.8-.3c-2.8-.1-5.2-.1-6.8-.1h-2.1c-.2-.2-.4-.6-.7-1.1-.6-1.1-1.4-2.8-2.2-5.4-1.6-5.3-3.2-13.9-3.2-27.4z" class="st4"/>
  <path d="M379.7 171.1c1.1-2.4 87.8-2.4 89.3 0s1.4 61.2 0 63.1c-1.4 1.9-88 1.9-89.3 0-1.3-1.8-1.1-60.7 0-63.1z" class="st3"/>
  <path d="M383.2 177.6c0-.2.1-.4.1-.5.1 0 .3-.1.6-.1.6-.1 1.5-.2 2.7-.3 2.3-.2 5.6-.4 9.5-.5 7.8-.3 18.2-.4 28.6-.4 10.4 0 20.8.1 28.7.4 3.9.1 7.3.3 9.6.5 1.2.1 2.1.2 2.7.3.3.1.5.1.7.1 0 .1.1.3.1.5.1.5.1 1.1.2 1.9.1 1.6.2 3.7.3 6.2.2 5 .2 11.4.2 17.9 0 6.5-.1 12.9-.2 17.8-.1 2.5-.2 4.5-.3 6.1-.1.8-.1 1.4-.2 1.8 0 .2-.1.3-.1.4-.2 0-.4.1-.7.1-.6.1-1.6.2-2.8.3-2.4.2-5.7.3-9.6.4-7.9.2-18.3.3-28.7.3s-20.8-.1-28.6-.3c-3.9-.1-7.2-.2-9.6-.4-1.2-.1-2.1-.2-2.7-.3-.3 0-.5-.1-.6-.1 0-.1 0-.2-.1-.4-.1-.4-.1-1-.2-1.8-.1-1.5-.2-3.6-.3-6.1-.1-4.9-.2-11.4-.2-17.8 0-6.5.1-12.9.2-17.9.1-2.5.2-4.6.2-6.2.4-.8.4-1.4.5-1.9zm83.4 52s.1 0 0 0z" class="st5"/>
  <path d="M383.1 183.1c2.8-1.9 80.5 0 83.6 0s3.1 6.4 0 7.7-81.7 0-83.6 0c-1.8 0-2.8-5.8 0-7.7z" class="st6"/>
  <defs>
    <filter id="Adobe_OpacityMaskFilter" width="90.7" height="12.1" x="379.9" y="180.7" filterUnits="userSpaceOnUse">
      <feColorMatrix values="1 0 0 0 0 0 1 0 0 0 0 0 1 0 0 0 0 0 1 0"/>
    </filter>
  </defs>
  <mask id="path-11-inside-1" width="90.7" height="12.1" x="379.9" y="180.7" maskUnits="userSpaceOnUse">
    <path d="M383.1 183.1c2.8-1.9 80.5 0 83.6 0s3.1 6.4 0 7.7-81.7 0-83.6 0c-1.8 0-2.8-5.8 0-7.7z" class="st7"/>
  </mask>
  <path d="M383.1 190.8v-1.5 1.5zm.9-6.5c-.2.1-.3.1 0 0 .1 0 .4 0 .7-.1.7-.1 1.6-.2 2.8-.2 2.4-.1 5.6-.2 9.5-.3 7.7-.1 17.8 0 27.9.1 20.1.2 40.4.7 41.9.7v-3c-1.6 0-21.7-.5-41.9-.7-10.1-.1-20.2-.2-27.9-.1-3.9 0-7.2.1-9.6.3-1.2.1-2.2.1-3 .2-.4 0-.7.1-1 .2-.2.1-.6.2-1 .4l1.6 2.5zm82.8.3c.2 0 .3.1.5.3.2.3.4.9.4 1.6 0 1.5-.7 2.6-1.4 2.9l1.1 2.8c2.4-1 3.3-3.7 3.3-5.7 0-1.1-.2-2.2-.8-3.1-.6-1-1.6-1.7-3-1.7v2.9zm-.6 4.8h-.2c-.2 0-.5.1-.8.1-.7.1-1.7.1-2.9.2-2.4.1-5.7.1-9.7.2-7.8.1-18 0-28.1-.1-20.2-.2-40.4-.5-41.4-.5v3c.9 0 21 .3 41.3.5 10.1.1 20.3.1 28.2.1 3.9 0 7.3-.1 9.7-.2 1.2 0 2.3-.1 3-.2.4 0 .7-.1 1-.1.2 0 .6-.1.9-.2l-1-2.8zm-83.1-.1c.4 0 .3.3.1-.1-.2-.3-.3-.9-.4-1.6-.1-1.5.4-2.7 1.1-3.2l-1.7-2.5c-2.1 1.4-2.6 4-2.4 5.9.1 1 .3 2 .7 2.8.4.7 1.2 1.7 2.5 1.7v-3z" class="st8"/>
  <path d="M384.4 186.5c0 .9-.2 1.6-.4 2.1-.3.5-.5.6-.5.6s-.3 0-.5-.6c-.2-.5-.4-1.2-.4-2.1 0-.9.2-1.6.4-2.1.3-.5.5-.6.5-.6s.3 0 .5.6c.2.5.4 1.2.4 2.1zM382.1 203.9c-.1-1.6.3-3.1 1.4-3.9 0 0 .1 0 .2-.1.2 0 .5-.1.8-.1.7-.1 1.6-.2 2.8-.2 2.4-.1 5.6-.2 9.4-.3 7.6-.1 17.6 0 27.6.1 13.9.2 27.9.4 35.6.6 3.3.1 5.5.1 6 .1s.8.2 1.1.7c.3.5.5 1.2.5 2s-.2 1.6-.5 2.3c-.3.7-.8 1.1-1.3 1.4s0 0-.1 0h-.3c-.2 0-.5.1-.9.1-.7.1-1.7.1-2.9.2-2.4.1-5.7.1-9.6.2-7.8.1-17.8 0-27.9-.1-15.1-.1-30.1-.3-37.1-.4-2.3 0-3.7-.1-3.9-.1 0 0-.3 0-.5-.5-.1-.6-.3-1.2-.4-2z" class="st9"/>
  <path d="M384.4 202.8c0 .9-.2 1.6-.4 2.1-.3.5-.5.6-.5.6s-.3 0-.5-.6c-.2-.5-.4-1.2-.4-2.1 0-.9.2-1.6.4-2.1.3-.5.5-.6.5-.6s.3 0 .5.6c.2.5.4 1.3.4 2.1z" class="st9"/>
  <path d="M427.9 171.1c-17.7-.5-35.9-.2-42.9 0h-2.7c-.4 0-.5-.1-.6-.2-.1-.1-.2-.3-.3-.6-.1-.7 0-1.9.4-3.3.9-2.8 2.8-6 4.8-7.7 0 0 .1-.1.3-.1.2-.1.5-.2.9-.2.8-.2 1.9-.3 3.2-.4 2.7-.3 6.3-.4 10.5-.5 8.5-.2 19.4-.1 30.3.3 10.9.3 21.8.9 30.1 1.5 4.2.3 7.7.7 10.3 1 1.3.2 2.3.4 3.1.5.4.1.7.2.9.3l.2.1c.2.2.3.4.3.6 0 .3-.1.6-.3 1.1-.5 1-1.4 2.1-2.6 3.4-1 1-2 1.9-3 2.8-.2.2-.5.4-.7.6-.6.5-1.1 1-1.5 1.5-.3.3-.6.7-.9 1-.1 0-.3 0-.5.1-.6.1-1.4.1-2.6.1-2.2 0-5.3-.2-9.1-.4-1.5-.1-3-.2-4.7-.3-6.7-.6-14.7-1-22.9-1.2zM425.9 234.5c-10 .1-20 0-28-.1h-2.4c-4.2-.1-7.7-.1-10.2-.1-1.3 0-2.2 0-2.9.1h-.6v.7c.1.7.4 1.6 1 2.6 1.1 2 2.9 4.1 5.2 5.5.1.1.6.2 1.4.4.8.1 1.8.3 3.1.4 2.5.2 5.9.4 9.8.6 7.8.3 17.8.3 27.7.3 9.9-.1 19.7-.3 27.3-.6 3.8-.2 6.9-.3 9.3-.5 1.2-.1 2.1-.2 2.8-.3.3-.1.6-.1.8-.1.1 0 .2 0 .2-.1.4-.3.6-.7.8-1.3.1-.7.1-1.5-.1-2.5-.4-1.9-1.4-3.9-2.4-5.2-.1 0-.4-.1-.7-.1-.7-.1-1.6-.2-2.9-.2-2.4-.1-5.8-.1-9.8 0-2.7.1-5.7.1-8.9.2-6.5.1-13.5.3-20.5.3zm42.6-.2z" class="st4"/>
  <path d="M382.8 215.9c2.8-1.9 80.5 0 83.6 0 3.1 0 3.1 6.4 0 7.7-3.1 1.3-81.7 0-83.6 0-1.8 0-2.8-5.7 0-7.7z" class="st6"/>
  <defs>
    <filter id="Adobe_OpacityMaskFilter_1_" width="90.7" height="12.1" x="379.6" y="213.6" filterUnits="userSpaceOnUse">
      <feColorMatrix values="1 0 0 0 0 0 1 0 0 0 0 0 1 0 0 0 0 0 1 0"/>
    </filter>
  </defs>
  <mask id="path-18-inside-2" width="90.7" height="12.1" x="379.6" y="213.6" maskUnits="userSpaceOnUse">
    <path d="M382.8 215.9c2.8-1.9 80.5 0 83.6 0 3.1 0 3.1 6.4 0 7.7-3.1 1.3-81.7 0-83.6 0-1.8 0-2.8-5.7 0-7.7z" class="st10"/>
  </mask>
  <path d="M382.8 223.6v-1.5 1.5zm.9-6.4c-.2.1-.3.1 0 0 .1 0 .4 0 .7-.1.7-.1 1.6-.2 2.8-.2 2.4-.1 5.6-.2 9.5-.3 7.7-.1 17.8 0 27.9.1 20.1.2 40.4.7 41.9.7v-3c-1.6 0-21.7-.5-41.9-.7-10.1-.1-20.2-.2-27.9-.1-3.9 0-7.2.1-9.6.3-1.2.1-2.2.1-3 .2-.4 0-.7.1-1 .2-.2.1-.6.2-1 .4l1.6 2.5zm82.8.2c.2 0 .3.1.5.3.2.3.4.9.4 1.6 0 1.5-.7 2.6-1.4 2.9l1.1 2.8c2.4-1 3.3-3.7 3.3-5.7 0-1.1-.2-2.2-.8-3.1-.6-1-1.6-1.7-3-1.7v2.9zm-.6 4.9h-.2c-.2 0-.5.1-.8.1-.7.1-1.7.1-2.9.2-2.4.1-5.7.1-9.7.2-7.8.1-18 0-28.1-.1-20.2-.2-40.4-.5-41.4-.5v3c.9 0 21 .3 41.3.5 10.1.1 20.3.1 28.2.1 3.9 0 7.3-.1 9.7-.2 1.2 0 2.3-.1 3-.2.4 0 .7-.1 1-.1.2 0 .6-.1.9-.2l-1-2.8zm-83.1-.2c.4 0 .3.3.1-.1-.2-.3-.3-.9-.4-1.6-.1-1.5.4-2.7 1.1-3.2l-1.7-2.5c-2.1 1.4-2.5 4-2.4 5.9.1 1 .3 2 .7 2.8.4.7 1.2 1.7 2.5 1.7v-3z" class="st11"/>
  <path d="M384.1 219.4c0 .9-.2 1.6-.4 2.1-.3.5-.5.6-.5.6s-.3 0-.5-.6c-.2-.5-.4-1.2-.4-2.1s.2-1.6.4-2.1c.3-.5.5-.6.5-.6s.3 0 .5.6c.2.5.4 1.2.4 2.1z" class="st9"/>
  <path d="M419.3 306.2h5.4v115h-5.4v-115z" class="st5"/>
  <path d="M418.6 305.4s.7 31.3 1.2 43.9c.6 15.4 1.7 27.8 2.2 37 .4 7.2-1.3 16-.9 21.4.6 7.1 4.3 14.3 4.3 14.3h-6.9V305.4z" class="st3"/>
  <path d="M417.7 421.9c.6-.6 8.2-.6 8.7 0s.5 4.1 0 4.5c-.5.5-8.7.5-8.7 0s-.6-3.9 0-4.5z" class="st3"/>
  <path d="M418.9 423.7l1.2 1.8-25.2 17.5h-3.6l27.6-19.3zM425.5 423.7l-1.2 1.8 25.3 17.5h3.6l-27.7-19.3zM424.2 425.4l-2.1.4 3.1 16.3h2l-3-16.7z" class="st3"/>
  <path d="M404.3 434l-1.3 2.2h37.2l-1.1-1.9-34.8-.3z" class="st3"/>
  <path d="M419.2 425.8l2.1.4-3.1 16.3h-2l3-16.7zM393.8 445.9c1.5 0 2.7-1.2 2.7-2.7 0-1.5-1.2-2.7-2.7-2.7-1.5 0-2.7 1.2-2.7 2.7 0 1.5 1.2 2.7 2.7 2.7z" class="st3"/>
  <path d="M416.8 445.9c1.5 0 2.7-1.2 2.7-2.7 0-1.5-1.2-2.7-2.7-2.7s-2.7 1.2-2.7 2.7c0 1.5 1.2 2.7 2.7 2.7zM426 445.9c1.5 0 2.7-1.2 2.7-2.7 0-1.5-1.2-2.7-2.7-2.7-1.5 0-2.7 1.2-2.7 2.7.1 1.5 1.3 2.7 2.7 2.7zM450.6 445.9c1.5 0 2.7-1.2 2.7-2.7 0-1.5-1.2-2.7-2.7-2.7s-2.7 1.2-2.7 2.7c0 1.5 1.2 2.7 2.7 2.7zM682.5 229.4H707v4.4h-24.5v-4.4z" class="st3"/>
  <path d="M745.9 542c17 0 30.8-3 30.8-6.8s-13.8-6.8-30.8-6.8c-9.7 0-19.6-1.5-25.3 0-4.3 1.2-5.5 5.2-5.5 6.8 0 3.7 13.8 6.8 30.8 6.8zM833.1 519.3c14.1 0 25.5-2.5 25.5-5.6s-11.4-5.6-25.5-5.6c-8 0-16.2-1.3-20.9 0-3.5 1-4.6 4.3-4.6 5.6 0 3.1 11.4 5.6 25.5 5.6z" class="st2"/>
  <path d="M774.5 240.2c0 2.2-1.8 3.9-3.9 3.9-2.2 0-3.9-1.8-3.9-3.9 0-2.2 1.8-3.9 3.9-3.9 2.2-.1 3.9 1.7 3.9 3.9z" class="st4"/>
  <path d="M694.8 259.3l-3.2-1.9-13.6 23.5 3.2 1.8 13.6-23.4z" class="st3"/>
  <path d="M675.4 278.5l7.4.8-4 33-7.4-.8 4-33z" class="st3"/>
  <path d="M667.5 304c-1.6-2.2 2.9-18.5 5.8-20.2 1.4-.8 7.1-1 13.1 5.4 1.9 2 4.4 10.2 4.4 10.2l-7.4 7.9c.1 0-14.3-1.1-15.9-3.3zM829.8 440.1l9.9-.3v22.3l-9.2-2.2-.7-19.8z" class="st3"/>
  <path d="M768.7 392.9s-22.6-2.4-17.9-14.4c4.8-12 30.6-17.5 30.6-17.5s56.3 3.3 60.3 10.4c4 7.1 1.2 75 0 78.4-1.2 3.4-11.6 2.5-13.4 0-1.8-2.5-4.4-59.9-4.4-59.9l-55.2 3z" class="st3"/>
  <path d="M768.7 392.9s-22.6-2.4-17.9-14.4c4.8-12 20 1.3 20 1.3s52.5 2.3 57.1 6.2c4.6 3.9 0 64.6 0 64.6l-4-60.7-55.2 3z" class="st3"/>
  <path d="M742.5 502.3l11-16.8 6.5 4.4-11 16.9-6.5-4.5z" class="st4"/>
  <path d="M788 427.5l.8.6.6-.8-.7-.6-45.7-36-.1-.1c-.1-.1-.3-.3-.4-.5-.4-.5-.9-1.1-1.5-2-1.2-1.7-2.7-3.9-3.9-6.3-1.1-2.4-1.9-4.9-1.7-7 .2-2 1.2-3.9 3.8-5.1 2.6-1.3 6-1.6 9.7-1.1 3.7.4 7.5 1.5 11.1 2.8 3.5 1.3 6.7 2.7 9 3.9 1.1.6 2.1 1.1 2.7 1.4.3.2.6.3.7.4 0 0 .1 0 .1.1l.3.3c.3.3.7.7 1.2 1.3 1 1.1 2.5 2.7 4.3 4.6 3.5 3.9 8.3 9.1 13 14.6 4.7 5.5 9.4 11.2 13 16.1 1.8 2.4 3.2 4.6 4.2 6.4.5.9.9 1.7 1.1 2.4.3.7.4 1.2.4 1.5 0 .3-.1.9-.5 1.7-.3.9-.9 1.9-1.5 3.1-1.4 2.5-3.3 5.6-5.7 9.2-4.8 7.1-11.1 15.9-17.6 24.6-6.5 8.7-13.1 17.2-18.3 23.8-5.3 6.6-9 11.2-9.9 12.1-1.4 1.4-4.3 1.5-6.6.1-1.1-.7-2.1-1.7-2.5-2.9-.5-1.2-.6-2.8.1-4.8.3-1 1.2-2.7 2.5-5s3.1-5.1 5.1-8.3c4-6.3 9.2-14 14.2-21.4 5-7.4 10-14.5 13.7-19.8 1.8-2.6 3.4-4.8 4.5-6.3.5-.8 1-1.4 1.2-1.8l.3-.5.1-.1c-.3 0-.3 0-1.1-.6z" class="st4"/>
  <path d="M742.2 391.4s-11.9-15.2-7.3-15.2c2.1 0 18.3 11.1 31.6 22.3 2.1 1.8 9.1 4.8 11.1 6.6 12.9 11.5 17.8 20.9 17.8 22.4 0 .6-5.6 7.8-9.5 14.2-3.2 5.3-4.5 9.4-8.4 14.4-.4.5-12.7 13.7-13.1 14.2-5.7 7.1-18.4 20.6-18.4 20.6s36.8-54.7 38.2-60.9c1.5-6.1-42-38.6-42-38.6z" class="st3"/>
  <path d="M742.3 501.4l9 5.4c0 .1.1.3.1.5.1.6.3 1.3.5 2.3.5 1.9 1.1 4.4 1.8 7 .7 2.5 1.4 5.1 2.1 7 .3 1 .7 1.8 1 2.4.2.3.3.6.5.8.1.2.5.6 1.1.6.3 0 1.2.1 2.5.4 1.3.3 2.9.6 4.6 1.1 1.7.5 3.4 1.1 5 1.7 1.5.7 2.8 1.4 3.6 2.1 1.4 1.3 1.3 3 .7 4.6-.3.8-.7 1.5-1 2-.1.2-.2.3-.3.4h-27.1l-18.9-30c0-.1.1-.2.1-.3.2-.5.4-1.1.8-1.8.7-1.4 1.7-2.8 2.8-3.5.6-.3 1.5-.7 2.8-1 1.2-.3 2.6-.7 3.9-.9 1.3-.3 2.5-.5 3.4-.6.4-.1.8-.1 1-.2z" class="st4"/>
  <path d="M831.4 455.9L842 462s16.9 22.9 19.5 28.1c2.6 5.2-2.3 10.4-2.3 10.4l-43.5-34.2s2.8-5.7 5.6-7.1c2.9-1.5 10.1-3.3 10.1-3.3zM724.1 329.4h-13.2s4.8-25.3 6.8-28.9c1.9-3.6 11-2.2 15.8 0 4.7 2.3-9.4 28.9-9.4 28.9z" class="st3"/>
  <path d="M733.5 375.7c0-.1 0-.2-.1-.3l45.2-16.3 4.4 3.1c-.2.1-.3.2-.5.2-1.3.6-3.2 1.5-5.4 2.6-4.5 2.1-10.5 5-16.6 7.7-6.1 2.8-12.2 5.5-17 7.4-2.4 1-4.4 1.7-5.8 2.1-.7.2-1.3.4-1.7.4h-.2c-.3-.3-.6-.9-.9-1.6-.3-.9-.6-1.9-.9-2.8-.2-.9-.3-1.8-.5-2.5zm2.2 7z" class="st4"/>
  <path d="M780.8 358.9l-.1.8.8.2 4.4 1.3c-.2.1-.4.3-.6.4-1.4 1-3.5 2.3-5.8 3.8-4.6 2.9-10.4 6.2-14.9 8-7.7 3-15.6 4-21.7 4.1-3.1.1-5.7-.1-7.6-.3-1-.1-1.7-.2-2.3-.4-.3-.1-.5-.1-.6-.2 0-.1 0-.1-.1-.2-.1-.3-.1-.7-.1-1.2-.1-1 0-2.4.1-3.7.1-1.3.2-2.6.3-3.6 0-.5.1-.9.1-1.2v-.6l-2.2-89.3 27.9-11.1 27.9 11-5 74.1-.2 2.9-.3 5.2zm-48.4 17.8z" class="st12"/>
  <path d="M731.7 327.3s6.3 38.4 11.6 42.4c.7.5 7.2 1 11.8 2.5 7.7 2.3 17.4-5.1 20-5.9 1.3-.4 2-2.4 4.1-5.5.5-.7 2.6-1.9 2.6-1.9l6.4 1.9s-13.9 9.9-23.2 13.5c-15.6 6-29.4 4.1-32.1 3.2-2.7-.9-1.2-11.2-1.2-11.2v-39z" class="st6"/>
  <path d="M776.6 311l4.4-36.3c.4.1 1 .2 1.6.4 1.6.4 3.7.9 5.9 1.7 2.2.7 4.4 1.6 6.2 2.7 1.8 1.1 3 2.2 3.3 3.3 1 3 1.5 4.3 1.7 6 .2 1.7.2 3.7.2 7.9 0 2.5-.5 7.2-1 11.4-.2 2.1-.5 4-.6 5.4-.1.5-.1.9-.2 1.2l-21.5-3.7zM732.7 310.5c1.4.4 2.6.8 3.4 1.1l-4.3-35.8c-.6.1-1.3.1-2.1.2-1.7.2-3.7.5-5 .9-.6.2-1.3.3-1.9.5-2 .4-4.1.8-6.1 3.5-2.8 3.6-4.3 8.7-4.1 16.4.1 2.1.6 6 1.2 9.4.3 1.7.6 3.3.8 4.4 0 .2.1.3.1.5.5-.3 1.2-.6 1.9-.9 1.9-.8 4.5-1.7 7.2-1.7 2.6-.1 6.1.7 8.9 1.5z" class="st12"/>
  <path d="M725.7 278.3s4.3-.9 6.5-1.8 5.5-.7 5.5-.7l4 34-6.9 10.7-2.7-11.9-6.5-2v-28.3zM774.6 273.6s4 1.2 6.2 2.1c2.1.9 5.6 2.8 5.6 2.8l-2.2 31.4h-16.1l6.5-36.3z" class="st13"/>
  <path d="M754.3 297.4l-.8-.8 3.7-5.6c.2.1.5.3.9.5 1.1.6 2.6 1.4 4.4 2.3 3.7 2 8.6 4.6 13.7 7.3 5 2.7 10.2 5.5 14.3 7.8 2 1.1 3.8 2.1 5.2 3 1.4.8 2.3 1.4 2.6 1.7 1.2 1 2 3.2 2 5.7s-.7 5.1-2.2 7.1c-1.5 2-3.3 3.7-5.1 4.4-1.7.7-3.4.7-4.9-.6-1.8-1.5-10.5-9.9-18.9-18.1-4.2-4.1-8.2-8.1-11.2-11-1.6-1.6-2.9-2.8-3.7-3.7z" class="st4"/>
  <path d="M764.4 307.7s9.3 3.6 12.4 5.7c5.6 3.8 8.1 8.3 10.6 9.5 7.7 3.9 12.7 2.3 11.5 3.9-3.2 4.2-7.8 7.1-11.5 4-3.7-2.9-23-23.1-23-23.1zM677 300.3l4.7-7.1s38.8 20.4 42 23c3.1 2.6 3.1 9.9 0 14.1-3.2 4.2-7.8 7.1-11.5 4-3.7-2.9-35.2-34-35.2-34z" class="st3"/>
  <path d="M744.1 272.4c-.3-.4-.5-.7-.7-1l13.6-5.6h.1c.3.1.6.1 1.1.3 1 .2 2.3.6 3.9 1.1 1.5.5 3.7 1.3 5.5 2 .8.3 1.6.6 2.1.8-.2.3-.4.7-.6 1.1-.8 1.3-1.9 2.9-3.2 4.6-1.3 1.7-2.8 3.4-4.4 4.6-1.6 1.3-3.2 2-4.7 2.1-1.5.1-3.1-.5-4.7-1.6s-3.2-2.6-4.6-4.2c-1.4-1.4-2.6-3-3.4-4.2z" class="st4"/>
  <path d="M748.4 271.1l2.9-15.2h9.8l2.8 14.1-15.5 1.1z" class="st4"/>
  <path d="M732.4 260.5l3.2-1.9 13.5 23.5-3.2 1.9-13.5-23.5z" class="st3"/>
  <path d="M742.8 278.5l7.3-1.2 4.5 31.4-7.3 1.2-4.5-31.4z" class="st3"/>
  <path d="M742.7 301.8l-.1-.2c-.1-.2-.1-.4-.2-.7-.1-.6-.2-1.3-.3-2.2-.1-1.8-.1-4.1.1-6.4.2-2.3.5-4.6 1-6.5.2-.9.4-1.7.7-2.3.3-.6.5-1 .6-1.1.1-.1.5-.4 1.3-.5.7-.2 1.6-.3 2.7-.2 2.2.2 5.2 1.1 8.7 3.6.4.3 1 1 1.7 1.9.7.9 1.4 2 2 3 .6 1 1.2 2 1.6 2.7.1.3.3.5.4.7l-5.2 8.3h-.1c-.4 0-1 .1-1.6.2-1.4.1-3.2.3-5.1.3-1.9.1-3.8.1-5.4 0-.8-.1-1.4-.1-2-.3-.5-.2-.8-.3-.8-.3zM772.3 236.5c0 7.6-2.5 14.9-6.1 20.2-3.6 5.4-8.2 8.6-12.2 8.6s-8.9-3.2-12.8-8.6c-3.8-5.3-6.6-12.6-6.6-20.2s2.2-14.5 5.8-19.4c3.5-4.9 8.4-7.9 13.6-7.9 8.9 0 16 8.6 17.9 21 .2 2 .4 4.1.4 6.3z" class="st4"/>
  <path d="M765.9 233.4s-5.2-1.3-7.3-1.3c-3.9 0-6.5 1.5-6.9 2.2-.9 1.5-.4 11.5-.3 12.5.3 1.7 5.3-.4 5.3-.4M757 254.9s-1.9 1.9-4.3 1.6c-2.4-.2-4.4-1.6-4.4-1.6" class="st14"/>
  <path d="M759.7 239.4c1 0 3.5.4 3.5-.7 0-1-2.4-1.3-3.5-1.3s-3.5.3-3.5 1.3c.1 1.1 2.5.7 3.5.7z" class="st3"/>
  <path d="M770.9 226.6s-1 21.3 3.6 14.8 2.8-25.9-18.6-25.9-21.8 2.5-21.8 11.1 36.8 0 36.8 0z" class="st3"/>
  <path d="M776.7 226.2v.3c-.2 0-.3-.1-.5-.1-1.2-.3-2.9-.7-5-1-4.1-.7-9.8-1.5-15.8-1.5s-11.8.7-16.1 1.5c-2.1.4-3.9.7-5.2 1-.4.1-.7.2-1 .2v-.2c-.1-.7-.3-1.7-.4-2.7-.1-1.1-.2-2.2-.1-3.2s.3-1.9.7-2.4c.3-.5 1-1.4 1.8-2.4s1.6-1.9 2.1-2.4c.7-.7 1.4-1.6 2.1-2.6.1-.2.2-.3.3-.5.8-1.1 1.6-2.1 2.4-2.7 2.8-2.3 5.4-4.2 8-4.8 1.3-.3 2.7-.3 4.1-.2.5 0 1 .1 1.4.1.8.1 1.7.2 2.4.2 3.1 0 7.6.9 10.4 3.3.9.8 1.5 1.8 2.1 3 .1.2.2.3.3.5.6 1.1 1.2 2.4 2.1 3.6 1.9 2.4 2.9 6 3.4 9.1.3 1.5.5 2.9.5 3.9z" class="st4"/>
  <path d="M730.4 228.3c.2-.1.4-.2.6-.4l.4-.4c.1-.1.2-.3.4-.4 0 0 0-.1.1-.1.2-.2.3-.4.5-.6.7-.8 1.8-1.8 3.3-2.8 3.1-2 8.5-4 18.1-4 9.6 0 15.8 2 19.6 4.3 1.9 1.1 3.2 2.3 4 3.3.4.5.7.9.8 1.3.2.4.2.6.2.7 0 1.9-.4 3.1-.9 4-.6.9-1.3 1.6-2.2 2.4-.2 0-.5-.2-.9-.5-.3-.2-.7-.5-1.1-.8-.2-.1-.3-.2-.5-.3-.6-.4-1.4-.9-2.3-1.5-3.5-2.1-8.7-4.4-16.7-4.4-7.9 0-13.5 1.9-17.3 3.4-.8.3-1.5.6-2.1.9-.9.4-1.6.7-2.3.9-.5.2-.9.2-1.1.2-.2 0-.2 0-.3-.1-.9-1-1.6-2.2-1.7-3.1-.1-.5 0-.9.2-1.2.2-.2.6-.5 1.2-.8z" class="st4"/>
  <path d="M743.8 237.1c1 0 1.9-.8 1.9-1.9s-.8-1.9-1.9-1.9-1.9.8-1.9 1.9.8 1.9 1.9 1.9z" class="st3"/>
  <path d="M733.3 243.6h12.8v8.7s0 .1-.1.2c-.1.2-.3.5-.5.7-.5.5-1.3 1-2.6 1-1.5 0-4-.6-6.3-1.3-1.1-.3-2.1-.7-2.8-.9-.2-.1-.4-.1-.5-.2v-8.2z" class="st4"/>
  <path d="M747.3 238.3c0 3.2-2.6 5.8-5.8 5.8s-5.8-2.6-5.8-5.8c0-3.2 2.6-5.8 5.8-5.8s5.8 2.6 5.8 5.8z" class="st4"/>
  <path d="M737 246.4v-8.7c0-.1.1-.2.1-.3.2-.3.4-.7.8-1.1.7-.8 1.8-1.5 3.6-1.5s2.9.8 3.6 1.5c.4.4.6.8.8 1.1.1.1.1.2.1.3v8.7h-9z" class="st4"/>
  <path d="M740 243.5l4.7-.4v6.8l-4.7-1.4v-5z" class="st13"/>
  <path d="M687.6 228.1h44v14.4h-44zM697.8 278.6l-9.3-13.5h42l-11.4 13.5h-21.3z" class="st4"/>
  <path d="M677.8 236.3h62.1v39.1h-62.1v-39.1z" class="st4"/>
  <path d="M685.2 242.9H733v25.9h-47.9v-25.9zM685.4 242.6l-6.2-6.2h59.4l-5.9 6.2h-47.3z" class="st4"/>
  <path d="M685.7 268.7l-6.6 6.7h59.5l-6.2-6.7h-46.7z" class="st4"/>
  <path d="M708.8 265.3c5.4 0 9.9-4.4 9.9-9.9 0-5.4-4.4-9.9-9.9-9.9-5.4 0-9.9 4.4-9.9 9.9.1 5.5 4.5 9.9 9.9 9.9z" class="st3"/>
  <path d="M708.8 262.8c4.1 0 7.4-3.3 7.4-7.4 0-4.1-3.3-7.4-7.4-7.4-4.1 0-7.4 3.3-7.4 7.4 0 4.1 3.3 7.4 7.4 7.4z" class="st15"/>
  <path d="M815.8 467.5c-1.7-1.9 1-3.1 1-3.1l43.4 34.1s0 2.3-1 2.3c-.4 0-5.5-4.6-13.4-10.3-6-4.3-14.3-9.2-19.8-13.5-5.9-4.6-9.6-8.9-10.2-9.5zM726.2 510l1.3-3.1s18.7 27.4 21.3 29c2.6 1.6 26 2.6 26 2.6l-.5 2.7s-10.9 1.9-15.7 1.8c-4.3-.1-11-1.2-12.8-2.2-1.7-.9-2.3-4-5.1-8-2.2-3.1-5.5-7.9-8.7-12-3.1-3.9-5.8-10.8-5.8-10.8z" class="st3"/>
  <path d="M846 466.8l1.7 2.8s-1.6 1.2-2.8 1.8c-1.2.6-2.8 1-2.8 1l3.9-5.6z" class="st13"/>
  <path d="M753.9 510l.7 3.2s-1.9.6-3.2.8-3 .1-3 .1l5.5-4.1zM755.1 514.9l.7 3.2s-1.9.6-3.2.8c-1.3.2-3 .1-3 .1l5.5-4.1zM756.3 519.8l.7 3.2s-1.9.6-3.2.8c-1.3.2-3 .1-3 .1l5.5-4.1z" class="st3"/>
  <path d="M848.7 470.5l1.7 2.8s-1.6 1.2-2.8 1.8c-1.2.6-2.8 1-2.8 1l3.9-5.6zM851.3 474.2l1.7 2.8s-1.6 1.2-2.8 1.8c-1.2.6-2.8 1-2.8 1l3.9-5.6zM770 243.4c1.7 0 3.1-1.4 3.1-3.1 0-1.7-1.4-3.1-3.1-3.1s-3.1 1.4-3.1 3.1c-.1 1.7 1.3 3.1 3.1 3.1z" class="st13"/>
  <path d="M728.8 250.3c1 0 1.7-.8 1.7-1.7s-.8-1.7-1.7-1.7c-1 0-1.7.8-1.7 1.7s.7 1.7 1.7 1.7z" class="st6"/>
  <path d="M752.1 298.2l7.9-6.8 5.8 6.8-3.4 5.2s-3.5-2.4-5-3.3c-1.6-.9-5.3-1.9-5.3-1.9z" class="st13"/>
  <path d="M717.2 311.6l11.4 3.2s-2 4.4-3.1 6.4-3 5.1-3 5.1l-8.2-8.6s-.9-2.8-.8-3c.9-1.8 3.2.3 3.7-.6.7-1.3 0-2.5 0-2.5zM684.1 292.7l6.5 7.7-3 5.7-10-2.7s-3.2-6.3-2-8.2c1.2-1.9 8.5-2.5 8.5-2.5z" class="st3"/>
  <path d="M750.5 268h11.1s3.5 1.3 3.9 2.2-1.7 2.4-1.7 2.4l-16 2s-1.7-1.6-1.3-2.8c.2-.5 3-1.2 3-1.2l1-2.6z" class="st13"/>
  <path d="M948.6 477.2c12.9 0 23.6-2.4 34.8-4.8 12-2.6 24-2 24-4.8 0-2.9-11.7-1.9-26.2-4.3-4.4-.7-10.4-3.4-15.4-5.1-3.5-1.3-6.3-5-9-5.7-4.6-1.3-6.3 0-8.2 0-5.4 0-4.7-2.3-7.9 0-2.3 1.7-18.8 24.7 7.9 24.7z" class="st2"/>
  <path d="M861.3 142.7l3.1-2.5 143.5 188.7-3.1 2.5-143.5-188.7z" class="st3"/>
  <path d="M997.1 322.3c-.1-.1-.2-.2-.2-.3l4.4-3.5c.1.1.1.2.2.2.4.5 1 1.2 1.8 2.1 1.5 1.8 3.5 4.1 5.5 6.5 2 2.4 4 4.9 5.6 6.9.8 1 1.5 1.9 2 2.5.2.3.5.6.6.9.2.2.2.4.2.4 0 .1.1.3-.3.8-.3.4-.9.8-1.5 1.2-.6.4-1.3.7-1.9 1-.3.1-.6.2-.8.3-.1 0-.2 0-.2.1l-.6-.6c-.5-.5-1.2-1.3-2-2.3-1.6-1.9-3.6-4.4-5.6-7-2-2.5-4-5.1-5.4-7-.8-.8-1.4-1.6-1.8-2.2zm15.5 19.3z" class="st5"/>
  <path d="M995.8 321.9s8.1 8.2 11.3 10.4c1.8 1.3 2.7 4.9 4.1 5.6 3.5 1.7 6.4-.6 6.6 0 .8 2-4.5 4.3-5.6 4.3-.9.1-16.4-20.3-16.4-20.3z" class="st3"/>
  <path d="M974.5 325l5.5-17.2h3.1c0 .3 0 .7.1 1.2.1 1.1.1 2.7.1 4.5 0 3.5-.2 7.7-1.1 10.6-.8 2.9-2 5.5-3.2 7.4-.6.9-1.2 1.7-1.7 2.2-.5.5-.9.6-1.1.6 0 0-.1 0-.3-.1-.2-.1-.4-.2-.7-.3-.6-.3-1.3-.6-2.2-1.1-1.7-.9-3.8-2.2-5.9-3.4-2.1-1.3-4.1-2.5-5.6-3.5-.8-.5-1.4-.9-1.8-1.1 0 0-.1 0-.1-.1l4.4-7 9.3 7.8.8.7.4-1.2zM927.6 267.4l-.1.2v.2l1 27.5-8.7 1.7v-1.3c0-1.3.1-3.2.2-5.2.2-4 .4-8.6.6-11 .5-5.2 1.1-9.6 1.5-12.1.1-.6.2-1.1.2-1.4.3-2.5 1.6-9.5 2.9-15.9.6-3.2 1.2-6.2 1.6-8.5.2-1.1.4-2 .5-2.7v-.2l4 1.2v.1c0 .4-.1 1-.1 1.8-.1 1.5-.3 3.6-.4 5.8-.3 4.4-.8 9.5-1.2 12.1-.4 2.5-.9 4.5-1.4 5.9-.2.7-.4 1.2-.6 1.6-.1.2-.1.3-.2.4.3-.3.2-.3.2-.2z" class="st16"/>
  <path d="M927 237.6s-.3 11.6-1 17c-1 9-3.1 17.5-2.9 22.5.1 3-.5 8.3 0 10.7.8 4.2 6.1 7.9 6.1 7.9l-10.1 2s.4-13.5.9-18.4c.6-6.5 1.4-11.7 1.7-13.6.7-5 5.3-28.1 5.3-28.1z" class="st3"/>
  <path d="M933.8 465s9.6-12.8 11.5-12.2c1.8.6 3.7.1 3.8 1.5 0 1.4-1.3 17.4-3.8 19.2-2.5 1.7-5.6 3.1-8.2 2.2-2.6-.9-3.7-4.6-3.8-5.9-.3-2.1.5-4.8.5-4.8z" class="st17"/>
  <path d="M940 452c.9-1 3.4-2.1 5.3-1.5 1.8.6 3.9 1.8 4 3.2 0 1.4-3 16.9-5.4 18.7-1 .7-3.8 1.7-6.4.8-2.6-.9-4-4.5-4.1-5.7-.4-2.2 5.6-14.6 6.6-15.5z" class="st3"/>
  <path d="M940.6 445.5c-.1-.4-.1-.7-.1-.9l4.8-1.4c.1.2.1.6.2.9.2.9.5 2 .7 3.3.2 1.2.5 2.4.6 3.4.1.5.1.9.1 1.2v.5c-.2.4-.6.8-1.1 1.1-.5.4-1.1.6-1.4.6-.4 0-.8 0-1.2-.3-.4-.2-.8-.6-1-.9v-.1c0-.1-.1-.2-.1-.4-.1-.3-.2-.7-.3-1.1-.2-.9-.4-2-.6-3.1-.3-.9-.5-2-.6-2.8z" class="st18"/>
  <path d="M948.5 457.5c.2-1.3 1.6-3.7 3.4-4.3 1.9-.6 9.3 8.5 9.3 8.5s3.1 7.9 2 10.8c-.4 1.2-2.4 3.5-4.3 4.1-2.6.8-6.4-.5-7.8-2.1-1.3-1.6-2.8-15.7-2.6-17z" class="st17"/>
  <path d="M948.5 454.5c.2-1.3 1.6-3.7 3.4-4.3 1.9-.6 4.5-.1 5.4 1.1.9 1.2 6.9 15.4 5.9 18.2-.4 1.2-2.4 3.5-4.3 4.1-2.6.8-6.7-.4-7.5-1.3-1.3-1.6-3.1-16.5-2.9-17.8z" class="st3"/>
  <path d="M951.7 444.7v-.8h3.9v.8c0 .8.1 1.8.1 2.9v4.6c-.1.2-.4.5-.8.6-.4.2-.9.2-1.2.2-.4 0-.9 0-1.2-.1-.3-.1-.6-.3-.7-.7 0-.1-.1-.3-.1-.6v-1.2-3-2.7z" class="st18"/>
  <path d="M942 450c-.3 0-.6 0-.8-.1-.1-.2-.1-.3-.2-.6l-.9-2.7c-.8-2.2-1.8-5.3-3-8.6-2.3-6.7-4.7-14.4-5.7-18.6-.5-2.1-1-6.2-1.5-11.3-.5-5.1-.9-11.1-1.3-16.8-.4-5.7-.7-11.2-.9-15.2-.1-2-.2-3.7-.3-4.8 0-.6-.1-1-.1-1.3l14.6-7.3-1.2 57v.2l5.8 29c-.2.1-.4.2-.7.4-.6.3-1.3.7-1.8.8-.4 0-1.2 0-2-.1z" class="st16"/>
  <path d="M926.6 369.6s3.5 38.3 8.4 56.8c2 7.9 2.9 14.6 5.7 18.6 1.6 2.3 6.7 4.2 6.7 4.2l-6.7 1.5s-8-22.5-10-30.9c-2-8.5-4.1-50.2-4.1-50.2z" class="st3"/>
  <path d="M955.3 448.3c.3-.1.5-.2.7-.3v-.6c0-.7.1-1.6.2-2.8.1-2.3.3-5.5.5-8.9.3-6.8.7-14.3.7-17.7 0-3.4-.3-15.7-.7-27.1-.2-5.7-.3-11.2-.5-15.3-.1-2-.1-3.7-.2-4.9v-1.3l-18.4-5.7 11.5 54.1v.2l1.4 29.9c.2.1.5.2.9.3.8.2 1.6.4 2 .4.6.1 1.3-.1 1.9-.3z" class="st16"/>
  <path d="M955.4 376.6s-1 2.4-1.2 11c-.1 2.2 1.2 9.1 1.2 15.5.1 10.9-1 22.8-1.2 24-.3 1.8.4 14.5 0 15.5-2.4 6.2-3.6 5.2-3.6 5.2l6 .7s1.4-23.6 1.4-30.4c-.1-6.7-2.6-41.5-2.6-41.5z" class="st3"/>
  <path d="M936.4 373.4h10.2v15.8l-4.4-2.1-3.1 2.1-2.7-15.8z" class="st13"/>
  <path d="M935 350.3c1 2.7 2.9 5.3 5.2 7.6 2.2 2.4 4.9 4.6 7.3 6.4 2.5 1.9 4.8 3.4 6.6 4.5.9.5 1.6 1 2.1 1.2.2.1.3.2.4.2v2.1c-.2 0-.4.1-.7.1-.8.1-2 .3-3.3.5-2.6.4-6 1.1-8.6 1.9-2.6.8-7.1 2.1-11 2.9-1.9.4-3.7.8-4.9.9-.6.1-1 .1-1.3.1v-3.3c0-.1.1-.3.1-.5.1-.4.2-1 .3-1.8.3-1.5.6-3.5 1-5.8.7-4.5 1.3-9.9.9-13.4-.3-2.8-.9-8.4-1.4-13.4-.2-2.2-.4-4.3-.6-6 .7 1.2 1.5 2.7 2.4 4.3 2 4.2 4.4 8.7 5.5 11.5z" class="st16"/>
  <path d="M921.6 310.1s7.5-5 10.6-5c14.6.1 22.3 3.3 23.5 4.3 2.2 1.8 0 16.3 0 16.3v21.4c0 7.3 1 19.4 1 19.4l2 7.2s-8.2-1.7-13.4 0c-5.3 1.7-19.9 1.8-19.9 1.8s1.3-13.3 0-24.9c-1.3-11.5-3.8-40.5-3.8-40.5z" class="st17"/>
  <path d="M951 307.4c8 2 18.2 13.2 18.2 13.2l-4.8 8.2-13.4-5.9c0-.1-8-17.5 0-15.5z" class="st17"/>
  <path d="M945.9 315.4l-.8-8s5.3 1.4 8.1 2.8 5.3 3.7 5.3 3.7l-4.2 11.6s-6.1.2-7.1-1.8c-1.1-1.9-1.3-8.3-1.3-8.3z" class="st17"/>
  <path d="M948.9 307.5c-.6.4-1.4.9-2.2 1.3-1 .5-2.1 1-3.1 1.4-1.1.3-2 .5-2.8.4-1.6-.2-3.2-1.5-4.4-3-.5-.6-1-1.3-1.3-1.7.6 0 1.4 0 2.3.1 2 .1 4.3.2 5.8.4s3.3.6 4.7.9c.4 0 .7.1 1 .2z" class="st16"/>
  <path d="M937.8 306l1.5-7.3h6.8v7.3h-8.3z" class="st16"/>
  <path d="M938.7 298h8.1s.1 6.3-4.7 6.3-3.4-6.3-3.4-6.3z" class="st3"/>
  <path d="M938.8 304.7h6.6v3l-7-.5.4-2.5z" class="st13"/>
  <path d="M923.7 319.4s-4-11.9-4.4-16.4c-.4-4.5-.7-10.8-.7-10.8l10.6-1.7s1.1 10.3 3.3 15.3c2.3 4.9-8.8 13.6-8.8 13.6zM932.1 351.1c1.8 4.6.5 15.7 7.4 18.9 1.4.7 5.1-2 9.7-3.2 2.3-.6 7.3 0 7.3 0l2 7.2s-8.2-1.7-13.4 0c-5.3 1.7-19.9 1.8-19.9 1.8s3.5-13.1 2.3-24.7c-.6-5.6-2.3-22.6-2.3-22.6s4.8 17.1 6.9 22.6z" class="st17"/>
  <path d="M983.4 296.8s.1 0 0 0c.2 0 .5.1.8.3.6.3 1.3.8 2.1 1.5 1.5 1.2 3 2.8 3.5 3.5v.1c-.1.2-.3.5-.6.9-.4.5-.8.9-1.3 1.4-.3.4-.7.7-1 1.1-.7.8-1.6 1.4-2.3 1.8-.3.2-.6.3-.8.4-.1 0-.1 0-.2.1l-3.5-.5c.1-.3.1-.6.2-.9.3-1 .6-2.4 1-3.8s.8-2.8 1.2-4c.2-.6.4-1.1.6-1.4.1-.2.2-.3.2-.4l.1-.1zm0 0zm6.4 5.2zM932.5 227.2c.1-.1.3-.2.9.1.6.3 1.2.8 2 1.4 1.4 1.3 2.8 3 3.5 4v.1c0 .1 0 .2-.1.4-.1.3-.3.8-.7 1.3-.7 1-1.6 2.1-2.5 3-.8.8-1.7 1.4-2.5 1.8-.4.2-.7.3-1 .4h-.1l-4.4-2.1c.1-.3.2-.6.4-1 .4-.9.9-2.2 1.4-3.5.6-1.3 1.1-2.7 1.7-3.8.3-.6.5-1 .8-1.4.3-.4.5-.6.6-.7z" class="st16"/>
  <path d="M864.8 146c-1.8.8-4.1.3-6.7-1.4-2.9-1.9-6-5.2-8.7-9.3-2.7-4.1-4.4-8.3-5-11.7-.5-3.1 0-5.4 1.4-6.7l2.1 3.2c0 .1-.1.3-.1.4-.1.8-.1 1.9.2 3.2.6 2.8 2.1 6.3 4.3 9.6 2.2 3.3 4.7 6.1 7.1 7.8 1 .8 2 1.3 2.8 1.5.2 0 .3.1.4.1l2.2 3.3z" class="st5"/>
  <path d="M955.6 288.7c-.2 1-.7 2.5-1.6 4-.9 1.6-2.1 3.2-3.4 4.7-1.3 1.5-2.8 2.8-4.3 3.7-1.5.9-2.9 1.3-4.2 1.1-1.3-.2-2.5-1.1-3.6-2.4-1.1-1.4-2-3.1-2.8-5-.8-1.9-1.3-3.9-1.7-5.6-.3-1.7-.4-3.1-.3-3.9.5-2.9 1.7-7.2 3-9.4 1.3-2.3 2.9-3.6 4.7-4.3 1.8-.7 3.7-.8 5.8-.5 2.9.5 5.4 2.6 6.9 5.8 1.6 3.2 2.2 7.4 1.5 11.8z" class="st19"/>
  <path d="M950.5 285s-2.1-1.6-3.1-1.8c-2-.3-3.8.9-4 1.3-.5.9-1 7.3-.9 7.9.2 1 2.5-1.6 2.5-1.6" class="st20"/>
  <path d="M880.6 111.9s3.5-3 8.2 1.6c4.7 4.6-16.8 37.3 3.4 64.2 6.3 8.3 30.1 30.4 46.2 51.3 4.9 6.3 11.8 22.8 20.2 34.6 5.2 7.3 20.7 21.4 29.9 33.4 5.8 7.6 11.7 21.1 11.7 21.1" class="st21"/>
  <path d="M826.6 145.6c2.4-4.2 45-37.3 48.6-38 3.7-.7 10.9 8.6 9.3 11.9-1.6 3.3-44.9 36.4-48.6 38-3.7 1.7-11.6-7.7-9.3-11.9z" class="st17"/>
  <path d="M865.5 145.6l-2.1-3.2c0-.1.1-.3.1-.4.1-.8 0-1.9-.3-3.2-.6-2.8-2.2-6.3-4.5-9.6-2.2-3.3-4.8-6.1-7.2-7.7-1.1-.7-2-1.2-2.9-1.4-.1 0-.2 0-.3-.1l-1.5-3.7c1.7-.8 3.9-.3 6.4 1.5 2.7 2 5.7 5.4 8.4 9.4 2.7 4.1 4.6 8.2 5.2 11.6.6 3.1.1 5.5-1.3 6.8zM891.9 184.1l-5.3-6.6 4.1-3.3 5.6 6.5-4.4 3.4z" class="st5"/>
  <path d="M885.6 177.4s2.6 2.5 5.9 3.4c3.3.9 5.9 0 5.9 0l-5.6 4.4-6.2-7.8z" class="st3"/>
  <path d="M964.6 279l-5.6-6.5 4.4-3.4 5.6 6.5-4.4 3.4z" class="st5"/>
  <path d="M957.9 272.4s3.7 0 4.7.5c1.1.5.9 2.1 1.9 2.4 2.8.8 5.6.4 5.6.4l-5.6 4.3-6.6-7.6zM955.1 291.6s1.3-3.2 1.6-4.7c.3-1.6 0-3.4 0-4.6 0-3.5-2.4-7-6-7s-12.7-4.4-12.7-.9c0 .4-2.4 1.7-3.6 4.3-.5 1-.6 3.6-.6 3.6l1.7-4.2s-.1.9.3 1.7c.4.8 1.3 4.3 2.2 4 1-.3 3-3.3 4.3-4 1.3-.7 4.4-1.1 4.4-1.1s1.4 1.1 3.1 2.6c1 .9 2.9 2.6 2.9 2.6s1.3-1.1 2.4 1c1.2 2.1 0 6.7 0 6.7z" class="st3"/>
  <path d="M955.7 283.8c.2.2.4.4.5.6.1-.5.2-1.3.3-2 .2-1.7.3-3.7 0-4.9-.5-2-1.2-3.7-2.6-5.2-1.4-1.5-3.4-2.7-6.7-3.6-3.1-.9-6 .6-8.2 2.7-1.1 1.1-2 2.2-2.7 3.3-.5.9-.9 1.6-1 2.2l.1-.1c1.1-.9 3.2-2 7-1.5s7.4 2.9 10.1 5.2c1.3 1.3 2.4 2.4 3.2 3.3z" class="st18"/>
  <path d="M947.5 269.1c-.1.7.4 1.4 1.2 1.5.7.1 1.4-.4 1.5-1.2.1-.7-.4-1.4-1.2-1.5-.8 0-1.4.5-1.5 1.2z" class="st18"/>
  <path d="M948.4 271.7c-.7-.1-1.6-1.4-1.5-2.1.1-.7 1-1.4 2-1.2.9.2 1.5 1.4 1.4 2.1-.1.7-1.2 1.3-1.9 1.2z" class="st13"/>
  <path d="M942.8 277.9c-5.5-1.5-10.7 3.1-10.7 3.1l.3-1.2s1.7-2.5 3.4-3.3c3-1.4 7.7-1.8 9.6-1.2 5.4 1.6 9.3 7.7 9.3 7.7v.9c.1.1-6.4-4.4-11.9-6z" class="st3"/>
  <path d="M933.8 278.8c.5-.3 1.1-.6 1.9-.8 2-.8 4.8-1.3 7.7-.5 2.8.8 5.8 2.2 8.1 3.5 1.1.6 2.1 1.2 2.8 1.6.1 0 .2.1.2.1v-.1c-.1-.7-.4-1.6-.9-2.6-1.1-2-3.3-4.4-8.1-5.6-4.7-1.2-7.8.3-9.7 2-.9.8-1.6 1.6-2 2.4z" class="st18"/>
  <path d="M954.4 294.7c.8.2 2.1-1.5 2.8-4 .7-2.4.7-4.6-.1-4.9-.8-.2-2.1 1.5-2.8 4-.8 2.5-.7 4.6.1 4.9z" class="st3"/>
  <path d="M955.4 294c.8.2 1.7-1.6 2.2-3.4.5-1.8.8-3.3 0-3.6-.8-.2-1.7 1.1-2.2 2.9-.5 1.8-.8 3.9 0 4.1z" class="st17"/>
  <path d="M932.7 289.4c.8.1 1.8-1.8 2.2-4.3.4-2.5 0-4.7-.8-4.8-.8-.1-1.8 1.8-2.2 4.3-.4 2.6-.1 4.7.8 4.8z" class="st3"/>
  <path d="M932.2 288.5c.8.2 1.2-2 1.5-3.8.3-1.8.2-4-.6-4.1-.8-.2-1.8 2.1-2.2 3.9-.3 1.7.5 3.9 1.3 4z" class="st17"/>
  <path d="M981.6 305.2l2.1.6-1.5 4h-1.5l.9-4.6zM929.2 236.5l3.8 1.7s-2 1-2.4 1.6c-.4.6-.3 1.7-.3 1.7l-2.2-.7s.2-1.6.4-2.4c.2-.6.7-1.9.7-1.9z" class="st13"/>
  <path d="M923 310.4l7.3-7.1s.8 2.1 1.8 2.8c1 .7 2.6.9 2.6.9l-10.1 14.8-1.6-11.4z" class="st17"/>
  <path d="M947.4 288.5c.7 0 1.2-.6 1.2-1.2 0-.7-.6-1.2-1.2-1.2s-1.2.6-1.2 1.2.6 1.2 1.2 1.2zM938.7 287.2c.7 0 1.2-.6 1.2-1.2 0-.7-.6-1.2-1.2-1.2-.7 0-1.2.6-1.2 1.2 0 .7.5 1.2 1.2 1.2z" class="st3"/>
  <path d="M940.8 296.8s1.6.9 2.5.9c.9 0 2.5-.9 2.5-.9" class="st20"/>
  <path d="M862.7 145.4c.3 0 .3.6 1.8-.3 1.4-.9 1.3-.9 1.3-1.2 0-.7-.5-1.9-1.1-1.9-.3 0-.4.7-1.1 1.1-.7.4-2.2.2-2.2.6-.1.6.6 1.7 1.3 1.7zM846.8 121.1s.3-.8.8-1.3 1.4-.4 1.4-.4l-.8-2.7s-1 .3-1.7.6c-.7.4-1 1.1-1 1.5.1.6 1.3 2.3 1.3 2.3zM890.5 110.2c.3-.6 1.7-1.4 2.3-1.1.6.3 1.6 2.3 1.3 2.9-.1.2-.8-.1-1.5.3-.7.3-.5 1.2-.9 1-.6-.3-1.6-2.5-1.2-3.1z" class="st13"/>
  <path d="M1193.9 440.8v-.2c-.2-.1-.4-.2-.8-.3-.8-.2-1.9-.4-3.3-.5-2.8-.3-6.8-.5-11.5-.7-9.5-.3-21.9-.2-34.4.1-12.5.3-25 .8-34.5 1.5-4.8.3-8.8.7-11.7 1-1.4.2-2.6.4-3.4.5-.4.1-.7.2-.9.2h-.1s0 .1-.1.1c-.1.2-.1.4-.2.7-.1.6-.3 1.4-.5 2.5-.3 2.1-.7 4.9-1.1 8.2-.7 6.6-1.4 15.1-2.1 23.5-.7 8.4-1.2 16.7-1.6 22.9-.2 3.1-.4 5.7-.5 7.5 0 .8-.1 1.4-.1 1.9l98.3 7.9c.1-.5.2-1.3.3-2.3.3-2 .7-5 1.2-8.5 1-7.1 2.2-16.5 3.4-26.1 1.2-9.6 2.3-19.3 3-26.8.3-3.8.6-7 .7-9.4 0-1.2.1-2.2 0-2.9-.1-.3-.1-.6-.1-.8zm0-.2zm-100.8 2z" class="st22"/>
  <path d="M1117.6 562c-36 0-73.2 5.4-63.3-18.5 9.9-23.8 34.3-29.9 77.1-29.1 42.8.7 59.7 17.8 50.9 32.7-8.8 15-28.6 14.9-64.7 14.9z" class="st2"/>
  <path d="M1185.6 514v-2.1l-100.2-1.8-.4 22.1h.1c.7 0 1.8.1 3.1.1 2.7.1 6.5.3 11.2.4 9.3.3 21.6.7 34.1 1 12.5.3 25 .5 34.5.3 4.8-.1 8.8-.2 11.7-.4 1.4-.1 2.6-.3 3.4-.4.4-.1.7-.2.9-.2h.1c.2-.3.4-.9.6-1.6.2-.8.4-1.8.5-3 .3-2.3.4-5 .5-7.6-.1-2.5-.1-5-.1-6.8z" class="st22"/>
  <path d="M1160.7 561.3l22-26.7-97-4.7-22.9 29.7 97.9 1.7z" class="st22"/>
  <path d="M1182.1 514.3c.7-1 1.3-1.8 1.8-2.5l-97.8-1.7-.8.8-2.9 2.9c-2.4 2.4-5.6 5.7-8.7 9-3.1 3.3-6.2 6.7-8.3 9.5-1.1 1.4-1.8 2.5-2.3 3.4-.2.3-.3.6-.3.8.2.1.4.1.8.2.8.1 1.9.3 3.3.4 2.8.3 6.7.5 11.4.8 9.3.5 21.5.8 33.8 1.1 12.3.2 24.6.3 34.1.1 4.7-.1 8.8-.2 11.7-.4 1.5-.1 2.7-.2 3.5-.3.4-.1.8-.1 1-.2.2-.1.3-.1.3-.1.4-.2 1-.8 1.9-1.7.9-.9 1.9-2.1 3-3.5 2.3-2.7 5-6.2 7.5-9.5 2.8-3.4 5.2-6.6 7-9.1zm-119.3 22.4z" class="st4"/>
  <path d="M1174.7 517.4c.5-.9.8-1.6 1-2-.2 0-.4-.1-.7-.1-.7-.1-1.7-.2-3-.2-2.5-.2-6-.3-10.2-.5-8.3-.3-19.2-.6-30-.8-10.9-.2-21.8-.3-30.1-.3-4.2 0-7.7 0-10.2.1-1.3 0-2.3.1-3 .2-.4 0-.7.1-.9.1h-.2c-.2.1-.7.5-1.3 1-.6.6-1.4 1.3-2.3 2.1-1.8 1.7-3.8 3.8-5.8 6s-3.8 4.3-4.9 6.1c-.6.9-1 1.6-1.2 2.1 0 .1-.1.1-.1.2.1 0 .3.1.5.1.7.1 1.7.2 2.9.4 2.5.2 6 .5 10.2.7 8.4.5 19.4.9 30.5 1.2 11.1.3 22.2.5 30.7.5 4.3 0 7.8 0 10.5-.1 1.3 0 2.4-.1 3.1-.2.4 0 .7-.1.9-.1.1 0 .2 0 .2-.1.3-.2.7-.6 1.3-1.2.6-.6 1.4-1.4 2.2-2.4 1.7-1.9 3.6-4.2 5.4-6.5 1.9-2.3 3.5-4.5 4.5-6.3zm-103.3 13.9zM1162.6 539.2h-.9c-1.2 0-2.8-.1-4.9-.1-4.1-.1-9.8-.2-15.9-.4-12.2-.3-26.3-.7-33.8-1-7.7-.3-14.4-.7-20.1-1-5.2-.3-9.6-.5-13.2-.6-3.8-.1-6.6-.2-8.5-.1-1 .1-1.6.1-2.1.2-.1 0-.2.1-.3.1-.3 1-.7 2.7-1 4.9-.3 2.3-.6 5-.8 7.7-.2 2.7-.3 5.3-.2 7.3 0 1 .1 1.9.3 2.5.1.3.1.6.2.8 0 .1.1.1.1.2h.1c.2.1.5.1.9.2.8.1 1.9.2 3.2.3 2.8.2 6.6.4 11.2.6 9.1.4 21.2.6 33.4.8 12.1.2 24.3.2 33.8.1 4.7 0 8.7-.1 11.7-.2 1.5 0 2.7-.1 3.6-.1.9-.1 1.5-.1 1.6-.2.1 0 .4-.2.7-.8.3-.6.6-1.5.8-2.6.4-2.2.6-5.1.6-8.1 0-2.9-.1-5.8-.2-7.9-.2-1-.3-1.9-.3-2.6 0 .1 0 0 0 0zm-99.8-2.8zm-1.4 23.3zM1191.7 442.3zm-.1 0c-.2-.1-.5-.2-.8-.3-.8-.2-1.8-.4-3.3-.5-2.8-.3-6.7-.5-11.4-.6-9.4-.3-21.7-.2-34.1.1-12.4.3-24.8.8-34.2 1.5-4.7.3-8.7.7-11.5 1-1.4.2-2.6.4-3.4.5-.4.1-.7.2-.9.2h-.1s0 .1-.1.1c-.1.2-.1.4-.2.7-.2.6-.3 1.4-.5 2.4-.4 2-.8 4.8-1.1 8-.8 6.4-1.6 14.7-2.4 22.9-.8 8.2-1.4 16.3-1.9 22.3-.3 3-.4 5.5-.6 7.3-.1.7-.1 1.3-.1 1.7l99.2 1.7c.1-.5.2-1.2.3-2 .3-1.8.6-4.4 1.1-7.6.9-6.3 2-14.8 3.1-23.3 1.1-8.6 2.1-17.3 2.7-24.1.3-3.4.5-6.3.6-8.5v-2.7c0-.3-.1-.6-.1-.8-.2.1-.3 0-.3 0zm-99.8 2.1z" class="st4"/>
  <path d="M1129.2 546.9zm-.1.2c-.1.3-.2.8-.2 1.3-.1 1.1-.2 2.5-.2 4s.1 2.9.2 4c.1.5.2 1 .2 1.2.2 0 .5.1.9.1.6 0 1.2.1 1.8 0 .6 0 1.3 0 1.8-.1.4 0 .7-.1.9-.1v-.1c.1-.3.2-.7.2-1.2.1-1.1.2-2.5.1-4 0-1.5-.1-2.9-.3-4-.1-.5-.2-1-.3-1.3v-.1c-.2 0-.5-.1-.9-.1-.6 0-1.2-.1-1.9 0-.7 0-1.3.1-1.8.1-.1.2-.3.3-.5.3zm5.2-.2zm.3 10.9z" class="st4"/>
  <path d="M1148.5 538.5c-.9.3-1.1 7.3.1 7.5s5.4.2 6.6-.1c1.2-.3 1.1-7.2-.1-7.5-1.3-.4-5.7-.2-6.6.1zM1067.5 535.1c-.9.3-1.2 9.2 0 9.5 1.2.2 5.4.2 6.6-.1 1.2-.3 1.2-9.1 0-9.4-1.2-.3-5.7-.3-6.6 0z" class="st17"/>
  <path d="M1086.8 546.2s0-.1 0 0zm-.1.2c-.1.3-.1.8-.2 1.3-.1 1.1-.2 2.6-.2 4 0 1.5.1 2.9.2 4 .1.5.1 1 .2 1.2.2 0 .5.1.9.1.5 0 1.2.1 1.8 0 .6 0 1.3 0 1.8-.1.4 0 .7-.1.9-.1v-.1c.1-.3.1-.7.2-1.2.1-1.1.2-2.5.2-4s-.1-2.9-.3-4c-.1-.5-.2-1-.3-1.3v-.1c-.2 0-.5-.1-.9-.1-.6 0-1.2-.1-1.9 0-.7 0-1.3.1-1.8.1-.1.2-.4.2-.6.3.1 0 .1 0 0 0zm5.3-.2c0-.1 0-.1 0 0zm.2 10.8c0 .1 0 .1 0 0z" class="st4"/>
  <path d="M1135.5 553.5c-1.7-.8-47.2-1.9-48.9-.9-1.7 1.1-1.8 4.7-.1 5.8 1.7 1.1 46.9 1.9 48.9.9 2.1-1 1.8-4.9.1-5.8z" class="st17"/>
  <path d="M1123.8 520.1c-15.7-.3-41.1-1.5-41.1-1.5M1168.1 526.6s-31.9.1-47.6-.1M1152.3 524.2c-3.1 4.7-8.5 10-8.5 10M1135.7 527.3c-3.1 4.7-7.2 6.7-7.2 6.7" class="st23"/>
  <path d="M1126.7 513.7s-1.9 5.4-5.1 10c-3.1 4.7-8.5 10-8.5 10" class="st23"/>
  <path d="M1095.5 526.1c-5.4-.1-13.4-2.9-13.4-4.6 0-1.1 3.6-6.8 6.8-7.2 1.4-.2 15 0 16.5.3 2.8.6 6 7.3 6 8.3 0 1.6-10.5 3.3-15.9 3.2z" class="st24"/>
  <path d="M1097 518.1c-5.4-.1-9.8-1.5-9.8-3.1s4.5-2.8 9.9-2.8c5.4.1 9.8 1.5 9.8 3.1 0 1.7-4.5 2.9-9.9 2.8z" class="st25"/>
  <path d="M1111.4 523.7l-.1 8.9M1081.6 521.4l-.1 9.7" class="st23"/>
  <path d="M1155.2 533.8c-4-.1-7.3-1.1-7.3-2.3v-4.7s5.5.6 7.3.7c2.4 0 7.3-.4 7.3-.4v4.7c0 1.2-3.2 2.1-7.3 2zM1123.4 533c-4-.1-7.3-1.1-7.3-2.3V528s5.5.6 7.3.7c2.4 0 7.3-.4 7.3-.4s0 2.2-.1 2.7c.1 1.1-3.2 2-7.2 2z" class="st24"/>
  <path d="M1155.3 527.3c-4-.1-7.3-1.1-7.3-2.3 0-1.2 3.3-2.1 7.3-2.1 4 .1 7.3 1.1 7.3 2.3 0 1.2-3.3 2.2-7.3 2.1z" class="st24"/>
  <path d="M1155.2 523.8c-2.6 0-4.7-.7-4.7-1.5s2.2-1.4 4.8-1.4c2.6 0 4.7.7 4.7 1.5-.1.9-2.2 1.5-4.8 1.4z" class="st25"/>
  <path d="M1123.5 528.8c-4-.1-7.3-1.1-7.3-2.3 0-1.2 3.3-2.1 7.3-2.1 4 .1 7.3 1.1 7.3 2.3 0 1.2-3.3 2.1-7.3 2.1z" class="st24"/>
  <path d="M1123.2 525.8c-2.6 0-4.7-.7-4.7-1.5s2.2-1.4 4.8-1.4c2.6 0 4.7.7 4.7 1.5-.1.9-2.2 1.5-4.8 1.4z" class="st25"/>
  <path d="M1186.3 434.5c-1-1.3-9.1-1.7-10.2-.2-1.1 1.5-2.4 9.6-1.4 10.7 1.1 1.1 7.4 1.2 8.6.2s4-9.4 3-10.7zM1108.8 435.3c-1-1.3-9.1-1.7-10.2-.2-1.1 1.5-2.4 9.6-1.4 10.7 1.1 1.1 7.4 1.2 8.6.2 1.3-1.1 4-9.3 3-10.7z" class="st17"/>
  <path d="M986.8 80.5c1.2-1.9 3.7-2.4 5.5-1.2l27.4 17.8c1.9 1.2 2.4 3.7 1.2 5.5l-12.6 19.4c-1.2 1.9-3.7 2.4-5.5 1.2l-27.4-17.8c-1.9-1.2-2.4-3.7-1.2-5.5l12.6-19.4z" class="st3"/>
  <path d="M736.2 2.8c.6-2.1 2.9-3.3 5-2.7L786.4 14c2.1.6 3.3 2.9 2.7 5L779 52c-.6 2.1-2.9 3.3-5 2.7l-45.2-13.8c-2.1-.6-3.3-2.9-2.7-5l10.1-33.1z" class="st17"/>
  <path d="M496.4 77.7c-.7-2.1.4-4.4 2.5-5.1l59-20.3c2.1-.7 4.4.4 5.1 2.5l14.6 42.4c.7 2.1-.4 4.4-2.5 5.1l-59 20.3c-2.1.7-4.4-.4-5.1-2.5l-7-20.2-7.6-22.2z" class="st26"/>
  <path d="M553.7 69.5c2.2 0 4-1.8 4-4s-1.8-4-4-4-4 1.8-4 4 1.8 4 4 4z" class="st6"/>
  <path d="M298.5 35.2c11.7 0 34.5-2.8 34.5-2.8V18.2c0-6.7-15.4-12-34.5-12s-34.5 5.4-34.5 12v14.2s25 2.8 34.5 2.8z" class="st17"/>
  <path d="M298 56.7v2.7h-35s-1.6-.9-1.6-1.3 1.6-1.3 1.6-1.3h35zM330.5 58.7c0-2.5-7-1.8-7-1.8v35s2.3 1.6 3.5 1.6c1.2 0 3.5-1.6 3.5-1.6V58.7z" class="st3"/>
  <path d="M259.2 70.8c.2-.2.5-.4 1.1-.6.6-.2 1.3-.4 2.2-.6 1.8-.4 4.1-.7 6.8-1 5.4-.5 12.3-.7 19-.7 6.8 0 13.4.2 18.5.4 2.5.1 4.7.3 6.2.4.8.1 1.4.2 1.8.2.2 0 .3.1.4.1v.2c.1.3.1.7.1 1.3.1 1.1.1 2.7 0 4.5-.1 3.7-.4 8.5-.8 13.4-.4 4.8-.9 9.7-1.4 13.4-.2 1.9-.5 3.4-.7 4.5-.1.6-.2 1-.3 1.3 0 .1-.1.2-.1.3-.1 0-.3.1-.5.1-.4.1-1.1.2-1.8.2-1.6.2-3.7.3-6.3.4-5.1.3-11.9.5-18.7.5-6.9 0-13.8-.2-19.3-.6-2.7-.2-5.1-.5-6.9-.9-.9-.2-1.7-.4-2.2-.6-.6-.2-.9-.4-1.1-.6-.4-.4-.8-1.2-1.1-2.3-.3-1.1-.5-2.5-.6-4.1-.2-3.2 0-7.2.5-11.2.5-4 1.2-8 2.1-11.2.5-1.6.9-3.1 1.5-4.3.6-1.1 1.1-2 1.6-2.5zm56.1-1.8zm-3.1 39.1z" class="st5"/>
  <path d="M276.3 68.9c1.8-2.2 57.2-1.3 58.7 0 1.6 1.3-1.6 38.7-3.1 40-1.5 1.3-58.3 1.3-59.7 0-1.4-1.3 2.4-37.8 4.1-40z" class="st3"/>
  <path d="M280.1 71.8c1.5-1.9 49.4-1.1 50.7 0 1.3 1.1-1.4 33.2-2.7 34.3-1.3 1.1-50.3 1.1-51.6 0-1.1-1.1 2.1-32.4 3.6-34.3z" class="st6"/>
  <path d="M263.6 92.5c3.6 0 6.6-2.9 6.6-6.6 0-3.6-2.9-6.6-6.6-6.6-3.6 0-6.6 2.9-6.6 6.6.1 3.7 3 6.6 6.6 6.6z" class="st3"/>
  <path d="M260.6 58.4c0-2.2 7-1.6 7-1.6v30.8c0 1.4-2.3 1.4-3.5 1.4-1.2 0-3.5 0-3.5-1.4V58.4zM327.7 56.7v2.7h-35s-1.6-.9-1.6-1.3 1.6-1.3 1.6-1.3h35z" class="st3"/>
  <path d="M294.3 31.7c2-2.6 3.9 1.7 5.6 4.3 1.4 2.1 2.7 1.9 3.8 4.5 2.4 5.9 1.5 17.9 1.5 17.9h-14s-.5-22 3.1-26.7z" class="st3"/>
  <path d="M283.3 54.9h28.8V61h-28.8v-6.1z" class="st27"/>
  <path d="M298.3 42.6c19 0 34.3-5.3 34.3-11.9 0-6.5-15.4-11.9-34.3-11.9-19 0-34.3 5.3-34.3 11.9 0 6.6 15.3 11.9 34.3 11.9zM1221.8 56.7v2.7h35s1.6-.9 1.6-1.3-1.6-1.3-1.6-1.3h-35zM1189.3 58.7c0-2.5 7-1.8 7-1.8v35s-2.3 1.6-3.5 1.6c-1.2 0-3.5-1.6-3.5-1.6V58.7z" class="st3"/>
  <path d="M1260.7 70.8c-.2-.2-.5-.4-1.1-.6-.6-.2-1.3-.4-2.2-.6-1.8-.4-4.1-.7-6.8-1-5.4-.5-12.3-.7-19-.7-6.8 0-13.4.2-18.5.4-2.5.1-4.7.3-6.2.4-.8.1-1.4.2-1.8.2-.2 0-.3.1-.4.1v.2c0 .3-.1.7-.1 1.3-.1 1.1-.1 2.7 0 4.5.1 3.7.4 8.5.8 13.4.4 4.8.9 9.7 1.4 13.4.2 1.9.5 3.4.7 4.5.1.6.2 1 .3 1.3 0 .1.1.2.1.3.1 0 .3.1.5.1.4.1 1.1.2 1.8.2 1.5.2 3.7.3 6.3.4 5.1.3 11.9.5 18.7.5 6.9 0 13.8-.2 19.3-.6 2.8-.2 5.1-.5 6.9-.9.9-.2 1.7-.4 2.2-.6.6-.2.9-.4 1.1-.6.4-.4.8-1.2 1.1-2.3.3-1.1.5-2.5.6-4.1.2-3.2 0-7.2-.5-11.2-.5-4-1.2-8-2.1-11.2-.5-1.6-.9-3.1-1.4-4.3-.8-1.1-1.3-2-1.7-2.5zm-56.1-1.8zm3.1 39.1z" class="st5"/>
  <path d="M1243.5 68.9c-1.8-2.2-57.2-1.3-58.7 0-1.6 1.3 1.6 38.7 3.2 40 1.5 1.3 58.3 1.3 59.7 0 1.4-1.3-2.4-37.8-4.2-40z" class="st3"/>
  <path d="M1239.7 71.8c-1.5-1.9-49.4-1.1-50.7 0-1.3 1.1 1.4 33.2 2.7 34.3 1.3 1.1 50.3 1.1 51.6 0 1.2-1.1-2.1-32.4-3.6-34.3z" class="st6"/>
  <path d="M1256.2 92.5c-3.6 0-6.5-2.9-6.5-6.6 0-3.6 2.9-6.6 6.5-6.6s6.6 2.9 6.6 6.6c0 3.7-3 6.6-6.6 6.6z" class="st3"/>
  <path d="M1259.3 58.4c0-2.2-7-1.6-7-1.6v30.8c0 1.4 2.3 1.4 3.5 1.4 1.2 0 3.5 0 3.5-1.4V58.4zM1192.1 56.7v2.7h35s1.6-.9 1.6-1.3-1.6-1.3-1.6-1.3h-35z" class="st3"/>
  <path d="M1225.5 31.7c-2-2.6-3.9 1.7-5.6 4.3-1.4 2.1-2.7 1.9-3.8 4.5-2.4 5.9-1.5 17.9-1.5 17.9h14c.1 0 .5-22-3.1-26.7z" class="st3"/>
  <path d="M1236.5 54.9h-28.8V61h28.8v-6.1z" class="st27"/>
  <path d="M1221.8 33.4c-11.6 0-34.3-2.8-34.3-2.8V16.7c0-6.5 15.4-11.9 34.3-11.9s34.3 5.3 34.3 11.9v13.9s-24.9 2.8-34.3 2.8z" class="st17"/>
  <path d="M1221.8 42.6c-19 0-34.3-5.3-34.3-11.9 0-6.5 15.4-11.9 34.3-11.9s34.3 5.3 34.3 11.9c0 6.6-15.3 11.9-34.3 11.9z" class="st3"/>
  <path d="M337.7 562.7c32.4 0 58.7-2.3 58.7-5.1s-26.3-5.1-58.7-5.1c-32.4 0-58.7 2.3-58.7 5.1s26.3 5.1 58.7 5.1z" class="st2"/>
  <path d="M336.3 366.6c3.2 0 5.8-2.6 5.8-5.8 0-3.2-2.6-5.8-5.8-5.8-3.2 0-5.8 2.6-5.8 5.8 0 3.2 2.6 5.8 5.8 5.8zM330.6 369.5h11.8l1.1 5.8h-14.2l1.3-5.8z" class="st3"/>
  <path d="M334.8 373.1h3.6v61.6h-3.6v-61.6zM335.5 488.9h2.4v61.6h-2.4v-61.6z" class="st3"/>
  <path d="M334.7 415h4.2v93.2h-4.2V415z" class="st5"/>
  <path d="M333.8 550.5h5.8v4.7h-5.8v-4.7z" class="st3"/>
  <path d="M336.8 558.9c1.8 0 3.3-1.5 3.3-3.3 0-1.8-1.5-3.3-3.3-3.3s-3.3 1.5-3.3 3.3c0 1.8 1.5 3.3 3.3 3.3zM333.6 374.3l-3.5-.9-14.9 59.7 3.5.9 14.9-59.7zM303.8 492.3l-2.3-.6-14.9 59.7 2.3.6 14.9-59.7z" class="st3"/>
  <path d="M300.6 508.6l23.1-93.2h-4.3l-22.8 93.2h4z" class="st5"/>
  <path d="M290.4 550.4h-5.5v3.2l5.5.9v-4.1z" class="st3"/>
  <path d="M287 558c-1.8-.4-2.9-2.3-2.4-4.1.4-1.8 2.3-2.9 4.1-2.4 1.8.4 2.9 2.3 2.4 4.1s-2.3 2.9-4.1 2.4zM339.4 374.3l3.5-.9 14.9 59.7-3.5.9-14.9-59.7zM369.1 492.3l2.3-.6 14.9 59.7-2.3.6-14.9-59.7z" class="st3"/>
  <path d="M372.4 508.6l-23.1-93.2h4.4l22.7 93.2h-4z" class="st5"/>
  <path d="M382.6 550.4h5.5v3.2l-5.5.9v-4.1z" class="st3"/>
  <path d="M386 558c1.8-.4 2.9-2.3 2.4-4.1-.4-1.8-2.3-2.9-4.1-2.4-1.8.4-2.9 2.3-2.4 4.1s2.3 2.9 4.1 2.4zM327.2 365.8h18.2v4h-18.2v-4zM329.4 352H344v4h-14.6v-4z" class="st3"/>
  <path d="M311.5 348.2h49.9v4h-49.9v-4z" class="st6"/>
  <path d="M1142.6 234.8c0 4.7-3.8 8.6-8.5 8.6s-8.6-3.8-8.6-8.6c0-4.7 3.8-8.6 8.6-8.6 4.7 0 8.5 3.8 8.5 8.6z" class="st5"/>
  <path d="M1132.2 227.1s2.9.3 4.2.7c1.3.4 3.3 1.5 3.3 1.5l-2.8 13.1s-3 .6-5.3-.1-3.2-1.9-3.2-1.9l3.8-13.3z" class="st6"/>
  <path d="M1138.8 228.2c0 .3-.3.6-.8.8-.6.2-1.3.3-2.2.2-.8-.1-1.5-.4-2-.8s-.6-.7-.6-1c0-.3.3-.6.8-.8.6-.2 1.3-.3 2.2-.2.8.1 1.6.4 2 .8.5.4.7.7.6 1z" class="st18"/>
  <path d="M1132.4 222.4c.4 0 .9.1 1.4.1 1.2.1 2.6.2 3.4.2 1.4 0 2.7.3 3.5.8.9.5 1.3 1.1 1.3 1.6s-.4 1.1-1.3 1.6-2.1.8-3.5.8-2.7-.3-3.5-.8c-.9-.5-1.3-1.1-1.3-1.6v-2.7z" class="st5"/>
  <path d="M1096 173.2h7.1v14.3s-1.4 1.6-3.5 1.6-3.6-1.6-3.6-1.6v-14.3z" class="st6"/>
  <path d="M1142.4 222.7c0 .5-.4 1.1-1.2 1.6-.9.5-2.1.8-3.5.8s-2.7-.3-3.5-.8c-.9-.5-1.3-1.1-1.3-1.6s.4-1.1 1.3-1.6 2.1-.8 3.5-.8 2.7.3 3.5.8c.8.5 1.2 1.1 1.2 1.6zM1092.1 172.5c.1 0 .3-.1.4-.1.6-.1 1.5-.3 2.5-.5 1.9-.3 4.1-.7 5.2-.7 2.1 0 4.1.9 5.6 2.2 1.5 1.3 2.4 3 2.4 4.5 0 1.7-.3 2.8-1.1 3.5-.9.8-2.5 1.3-5.7 1.3-6.1 0-9.3-3.6-9.3-6.6v-3.6z" class="st5"/>
  <path d="M1175.7 246.5h7.1v14.3s-1.4 1.6-3.6 1.6-3.5-1.6-3.5-1.6v-14.3zM1188.3 194h7.1v14.3s-1.4 1.6-3.6 1.6-3.5-1.6-3.5-1.6V194zM1084.7 227.9h7.1v14.3s-1.4 1.6-3.6 1.6c-2.1 0-3.6-1.6-3.6-1.6v-14.3z" class="st6"/>
  <path d="M1137.6 223.6c8.2 2.8 33.4 23.7 33.4 23.7l8.6 1.8s-19.7-25.2-19.7-31.8c0-5.2 27.4-15.3 27.4-15.3l-2-2.4s-1.1-3.2-1.8-3.2c-23.3 2-37 6.1-40.4 5.5-2.4-.4-35.3-19.5-35.3-19.5l-5.7-3.1-3.4 3.1s18.4 15.9 21 23.9c1.2 3.7-28.6 22.2-28.6 22.2l4.8 3.1c.2.1 37.2-9.5 41.7-8z" class="st3"/>
  <path d="M1187.8 250.2c0 1.6-.5 3-1.6 3.9-1.2 1-3.1 1.7-6.2 1.7-5.9 0-8.9-4.2-8.9-7.3 0-1.4.8-2.6 2.3-3.5 1.5-.9 3.6-1.4 5.7-1.4 1.9 0 3.9.5 5.5 1.3s2.8 2 3.1 3.3v1.5c.1.2.1.4.1.5zM1199.8 198.3c0 1.7-.4 2.8-1.3 3.6-1 .8-2.8 1.4-5.9 1.4-6 0-8.9-3.7-8.9-6.8 0-1.4.8-2.6 2.3-3.5 1.5-.9 3.6-1.4 5.7-1.4 2 0 4.1.9 5.6 2.2 1.6 1.4 2.5 3 2.5 4.5z" class="st5"/>
  <path d="M1178.3 241c.1.2.2.3.3.4l-6.2 4c-.2-.2-.4-.5-.7-.8-.7-.8-1.8-1.9-3.1-3.3-2.6-2.7-6.1-6.4-9.9-10.1-3.8-3.8-7.9-7.6-11.5-10.7-1.8-1.5-3.5-2.9-5.1-4-1.5-1.1-2.9-1.9-4-2.3-.4-.1-1-.2-1.5-.1-.6 0-1.3.1-2 .3-1.5.3-3.5.8-5.6 1.4-4.3 1.2-9.6 3.1-14.8 4.9-5.2 1.9-10.2 3.8-13.9 5.2-1.9.7-3.4 1.3-4.5 1.7-.4.2-.7.3-1 .4l-2.5-6.6c.2-.1.5-.3.8-.4.9-.5 2.1-1.2 3.5-2 2.9-1.7 6.7-4 10.5-6.4 3.8-2.4 7.5-4.9 10.3-7.1 1.4-1.1 2.5-2.1 3.3-3 .4-.4.7-.9.9-1.3.2-.4.3-.9.2-1.4-.7-2.1-2.4-4.6-4.4-6.9-2.1-2.4-4.6-4.8-7-7-2.4-2.2-4.7-4.1-6.5-5.4-.8-.6-1.4-1.1-1.9-1.5l6.1-3.2c.3.1.6.3 1.1.6.9.5 2.2 1.3 3.8 2.2 3.1 1.8 7.3 4.2 11.6 6.6 4.3 2.4 8.6 4.8 12 6.7 1.7.9 3.2 1.7 4.3 2.3.6.3 1.1.5 1.4.7.4.2.7.3 1 .3.7.1 1.9.2 3.4.1 1.5 0 3.4-.1 5.5-.2 4.2-.2 9.3-.5 14.3-.9 4.9-.4 9.7-.7 13.3-1 1.8-.1 3.2-.3 4.3-.4.5 0 .9-.1 1.1-.1.1.1.2.3.3.5.3.5.8 1.2 1.3 1.6.1.1.2.3.3.7.1.4 0 .8 0 1.3-.1.4-.2.9-.3 1.2v.1c-.2 0-.4.1-.7.2-.7.2-1.8.4-3.1.7-2.6.6-6 1.5-9.4 2.6-3.4 1-6.8 2.3-9.4 3.6-1.3.6-2.4 1.3-3.2 2-.8.7-1.4 1.5-1.4 2.5s.4 2.2.9 3.5c.6 1.4 1.3 2.9 2.3 4.6 1.9 3.3 4.3 7.1 6.8 10.7 2.5 3.6 5 6.9 6.8 9.4.6 1.4 1.3 2.4 1.9 3.1z" class="st5"/>
  <path d="M1156.5 205.4c-.5 2.6-2.5 4.7-5.5 6-3 1.3-6.9 1.7-11.1.9-4.1-.8-7.6-2.7-9.9-5-2.3-2.3-3.4-5-2.9-7.6s2.5-4.7 5.5-6c3-1.3 6.9-1.7 11.1-.9 4.1.8 7.6 2.7 9.9 5 2.3 2.4 3.4 5.1 2.9 7.6z" class="st5"/>
  <path d="M1151.5 201.3c-.3 1.5-1.5 2.8-3.4 3.6-1.9.8-4.3 1.1-6.9.6-2.6-.5-4.8-1.7-6.2-3.1-1.4-1.4-2.1-3.1-1.8-4.6.3-1.5 1.5-2.8 3.4-3.6 1.9-.8 4.3-1.1 6.9-.6s4.8 1.7 6.2 3.1c1.5 1.4 2.1 3.1 1.8 4.6z" class="st5"/>
  <path d="M1138.4 197.9c1.6-.6 2.5-1.7 2.1-2.7-.4-1.1-2.1-1.3-3.7-.7-1.6.6-2.5 1.7-2.1 2.8.4 1 2.1 1.2 3.7.6zM1142.8 194.9c.8-.3 1.3-.8 1.1-1.3-.2-.6-1-.7-1.9-.4-.8.3-1.3.8-1.1 1.4.3.5 1.1.6 1.9.3z" class="st6"/>
  <path d="M1187.7 247.5c0 1.7-.3 2.7-1.1 3.3-.9.7-2.6 1.2-5.7 1.5-6 .5-9.3-3.5-9.3-6.6 0-1.4.8-2.6 2.3-3.5 1.5-.9 3.6-1.4 5.7-1.4s4.1.9 5.6 2.2c1.6 1.3 2.5 3 2.5 4.5zM1199.8 194.5c0 1.7-.3 2.8-1.1 3.5-.9.8-2.5 1.3-5.7 1.3-6.1 0-9.3-3.6-9.3-6.6 0-1.4.8-2.6 2.3-3.5 1.5-.9 3.6-1.4 5.7-1.4 2 0 4.1.9 5.6 2.2 1.6 1.4 2.5 3.1 2.5 4.5zM1108.2 174.2c0 1.7-.3 2.8-1.1 3.5-.9.8-2.5 1.3-5.7 1.3-6.1 0-9.3-3.6-9.3-6.6 0-1.4.8-2.6 2.3-3.5 1.5-.9 3.6-1.4 5.7-1.4s4.1.9 5.6 2.2c1.6 1.3 2.5 3 2.5 4.5zM1079.9 225.9c.1 0 .2 0 .3-.1.6-.1 1.4-.2 2.3-.4 1.8-.3 4-.6 5.5-.6 2.1 0 4.1.9 5.6 2.2 1.5 1.3 2.4 3 2.4 4.5 0 1.7-.3 2.8-1.1 3.5-.9.8-2.5 1.3-5.7 1.3-6.1 0-9.3-3.6-9.3-6.6v-3.8z" class="st5"/>
  <path d="M1096 227.8c0 1.7-.3 2.8-1.1 3.5-.9.8-2.5 1.3-5.7 1.3-6.1 0-9.3-3.6-9.3-6.6 0-1.4.8-2.6 2.3-3.5 1.5-.9 3.6-1.4 5.7-1.4s4.1.9 5.6 2.2c1.6 1.3 2.5 3 2.5 4.5z" class="st5"/>
  <path d="M1180.4 250.2c3.4 0 5.1-1.5 5.1-3.2v-4.5h-5.4c-.7 0-5.7-1-5.7-1v4.4c-.1 2.3 2.6 4.3 6 4.3zM1192.4 196.8c3.4 0 5.1-1.5 5.1-3.2v-4.5h-5.4c-.7 0-5.7-1-5.7-1v4.4c-.1 2.3 2.6 4.3 6 4.3zM1100.7 175.6c3.4 0 5.1-1.5 5.1-3.2v-4.6h-5.4c-.7 0-5.7-1-5.7-1v4.4c-.1 2.4 2.6 4.4 6 4.4zM1088.8 229.8c3.4 0 5.1-1.5 5.1-3.2v-4.5h-5.4c-.7 0-5.7-1-5.7-1v4.4c-.1 2.3 2.6 4.3 6 4.3z" class="st3"/>
  <path d="M1180.4 245.8c3.4 0 5.1-1.5 5.1-3.2s-3.1-4.5-5.4-4.5c-2.3 0-5.7 1-5.7 3.4s2.6 4.3 6 4.3zM1192.4 192.4c3.4 0 5.1-1.5 5.1-3.2 0-1.7-3.1-4.6-5.4-4.6-2.3 0-5.7 1-5.7 3.4s2.6 4.4 6 4.4zM1100.7 171.9c3.4 0 5.1-1.5 5.1-3.2s-3.1-4.6-5.4-4.6c-2.3 0-5.7 1-5.7 3.4-.1 2.4 2.6 4.4 6 4.4zM1088.8 225.9c3.4 0 5.1-1.5 5.1-3.2s-3.1-4.6-5.4-4.6c-2.3 0-5.7 1-5.7 3.4-.1 2.4 2.6 4.4 6 4.4z" class="st6"/>
  <path d="M1180.3 243.7c2.1 0 3.3-.8 3.3-1.9V239s-3 .4-3.4.4c-.6 0-3.4-1.1-3.4-1.1v2.8c0 1.5 1.4 2.6 3.5 2.6zM1192.2 190.4c2.1 0 3.4-.8 3.4-1.9v-2.8s-3 .4-3.4.4c-.6 0-3.4-1.1-3.4-1.1v2.8c-.1 1.4 1.4 2.6 3.4 2.6zM1100.1 169.5c2.1 0 3.3-.8 3.3-1.9v-2.8s-3 .4-3.4.4c-.6 0-3.4-1.1-3.4-1.1v2.8c0 1.5 1.5 2.6 3.5 2.6zM1088.2 223.6c2.1 0 3.4-.8 3.4-1.9v-2.8s-3 .4-3.4.4c-.7 0-3.4-1.1-3.4-1.1v2.8c-.1 1.4 1.3 2.6 3.4 2.6z" class="st3"/>
  <path d="M1180.3 241.3c2.1 0 3.3-.8 3.3-1.9s-2-2.4-3.4-2.4-3.4.3-3.4 1.7c0 1.5 1.4 2.6 3.5 2.6zM1192.2 187.7c2.1 0 3.4-.8 3.4-1.9s-2-2.4-3.4-2.4-3.4.3-3.4 1.7c-.1 1.5 1.4 2.6 3.4 2.6zM1100.1 167.1c2.1 0 3.3-.8 3.3-1.9s-2-2.4-3.4-2.4-3.4.3-3.4 1.7c0 1.5 1.5 2.6 3.5 2.6zM1088.2 221.1c2.1 0 3.4-.8 3.4-1.9s-2-2.4-3.4-2.4-3.4.3-3.4 1.7c-.1 1.5 1.3 2.6 3.4 2.6z" class="st6"/>
  <path d="M1176.9 260.2c15.1 3.2 29.1-2 31.1-11.7 2.1-9.7-8.5-20.2-23.7-23.4s-29.1 2-31.1 11.7c-2.1 9.7 8.5 20.2 23.7 23.4zM1188.4 206.7c15.1 3.2 29.1-2 31.1-11.7 2.1-9.7-8.5-20.2-23.7-23.4-15.1-3.2-29.1 2-31.1 11.7s8.6 20.2 23.7 23.4zM1098.3 184.2c15.1 3.2 29.1-2 31.1-11.7 2.1-9.7-8.5-20.2-23.7-23.4-15.1-3.2-29.1 2-31.1 11.7s8.6 20.2 23.7 23.4zM1084.5 242.1c15.1 3.2 29.1-2 31.1-11.7 2.1-9.7-8.5-20.2-23.7-23.4-15.1-3.2-29.1 2-31.1 11.7s8.6 20.2 23.7 23.4z" class="st28"/>
  <path d="M1133.9 239.2c2.1 0 3.8-1.7 3.8-3.8 0-2.1-1.7-3.8-3.8-3.8s-3.8 1.7-3.8 3.8c0 2.2 1.7 3.8 3.8 3.8z" class="st3"/>
  <path d="M1133.8 237.6c1 0 1.8-.8 1.8-1.8s-.8-1.8-1.8-1.8-1.8.8-1.8 1.8c0 .9.8 1.8 1.8 1.8z" class="st15"/>
  <path d="M1128.4 234.1c.5 0 .9-.4.9-.9s-.4-.9-.9-.9-.9.4-.9.9.4.9.9.9z" class="st6"/>
  <path d="M1241.1 608.6c25.5 0 62-9.1 74.6-17.8 11.5-7.9-8.9-50.4-14.9-55.7-6-5.3-8.7 4.4-29.7 5.3s-23.6-18.2-30-18.2c-25.5 0-46.1 26-46.1 43.6 0 17.5 20.6 42.8 46.1 42.8zM737.6 697.7c25.5 0 117.4-12.6 129.9-21.3 4.7-3.3 30.3-20.4 27.1-30.2-4.5-14-38.5-21.7-38.5-34.9s-44.7-19.9-65.7-19.1c-21 .8-22.9 19.1-72.6 19.1-49.7 0-26.3 26-26.3 43.6s20.6 42.8 46.1 42.8z" class="st29"/>
  <path d="M338.3 604h46.5" class="st30"/>
  <path d="M194.3 453.7h56.3" class="st31"/>
  <path d="M666.5 463.9h22M537.1 526h12.2" class="st30"/>
  <path d="M872.7 563.4h71" class="st31"/>
  <path d="M1263.2 645.4h34.3" class="st30"/>
  <path d="M1289.3 463.7h44.1M975.1 432.7h24.5M1017.5 638.7h83.3M525.3 636h58.8" class="st31"/>
  <path d="M1.5 250.4s84.2 162 171.1 207c86.9 45 171.1 64.9 171.1 20.6M624.5 368.7c-12.2 28.9 80.7 47.8 160.2 22.2 79.5-25.6 0-51.6 0-51.6" class="st0"/>
  <path d="M247.2 642.1c25 0 60.8-23.2 60.8-40.5 0-12.9-9.1-32.2-29.8-31.4-6.9.3-24.8 19.9-31 19.9-25 0-45.2 25.5-45.2 42.7s20.2 9.3 45.2 9.3z" class="st29"/>
  <path d="M351 106.2c1.7 0 3-1.3 3-3s-1.3-3-3-3-3 1.3-3 3 1.3 3 3 3zM366.5 62.2c.8 0 1.5-.7 1.5-1.5s-.7-1.5-1.5-1.5-1.5.7-1.5 1.5.7 1.5 1.5 1.5zM282 125.2c1.1 0 2-.9 2-2s-.9-2-2-2-2 .9-2 2 .9 2 2 2zM483.5 255.2c.8 0 1.5-.7 1.5-1.5s-.7-1.5-1.5-1.5-1.5.7-1.5 1.5.7 1.5 1.5 1.5zM492 157.2c1.1 0 2-.9 2-2s-.9-2-2-2-2 .9-2 2 .9 2 2 2zM324 243.2c1.7 0 3-1.3 3-3s-1.3-3-3-3-3 1.3-3 3 1.3 3 3 3zM1174 111.2c1.7 0 3-1.3 3-3s-1.3-3-3-3-3 1.3-3 3 1.3 3 3 3zM1157 77.2c1.1 0 2-.9 2-2s-.9-2-2-2-2 .9-2 2 .9 2 2 2z" class="st15"/>
  <path d="M555.4 324.4c-15.4 0-21.8-42.6-21.8-51.6 0-8.9 3.8-33.7 34.2-33.7 13 0 16 13.2 21.7 27.6 7.4 18.7-4.7 51.2-9.6 60.4-8.4 16-16.8-2.7-24.5-2.7z" class="st3"/>
  <path d="M569.2 479.6c-15.7 0-19.8-5.2-25.3-14.2s9.6-9.7 25.3-9.7c15.7 0 23.8 5.4 23.8 12s-8.1 11.9-23.8 11.9z" class="st2"/>
  <path d="M556.2 444.1h4.9V456.9l1.5 6.7-.1.1c-.3.2-.6.5-1.1.8-.4.3-.9.6-1.3.8-.4.2-.8.3-1 .3-.2 0-.6-.1-1-.3-.4-.2-.9-.5-1.3-.8-.4-.3-.8-.6-1.1-.8l-.1-.1 1.5-7.2v-.2l-.9-12.1zM579.3 455.8l-.6.4s.1.1.1.2c.1.1.2.3.4.6.3.5.8 1.1 1.4 1.8 1.1 1.4 2.4 3.1 3.5 4.1 1.1 1 2.7 1.9 3.9 2.5l1.6.8-.4 1.1h-.6c-.7 0-1.6-.1-2.5-.1h-2.5c-.3 0-.7 0-.9.1-.1 0-.3 0-.4.1-.1-.1-.2-.1-.3-.2-.5-.4-1.2-1-1.9-1.7l-1.9-1.9-.6-.6-.2-.2-.5.5.5-.5-.2-.3h-.3-1.4c-.4 0-.8-.1-1.1-.2-.3-.1-.6-.2-.7-.4 0 0-.1-.1-.1-.2v-.6c.1-.5.2-1.1.4-1.7.2-.6.4-1.2.6-1.6.1-.2.2-.4.2-.5 0-.1 0-.1.1-.1l.1-.2v-.2l-1.1-12.6h4.9V456.1l.1.2.4-.5zm3.2 11.7c.1 0 .1 0 0 0z" class="st16"/>
  <path d="M584.6 462.4c2.1 1.8 5.2 2.6 6 3.5.8.9-.8 2.2-.8 2.2h-9s-3.4-3.7-4.2-4.2c-.7-.5-3.2-.5-4.1-1.7-.3-.4.4-5.1 1.4-5.1s4.2 3.9 5.7 4.6c2.9 1.4 4.4.2 5 .7z" class="st32"/>
  <path d="M580.3 467.6c.7-.3 9.9-1.8 10.4-.9s-.8 2.2-1.3 2.6c-.5.4-8 0-8.5 0-.4 0-1.2-1.4-.6-1.7zM572.2 461.9c0-.5 4.1.9 4.1 1.3s-2.5 5.9-3.1 5.9c-.5-.1-1-6.7-1-7.2z" class="st6"/>
  <path d="M562 449.9h-.1c-.3.1-.9 0-1.6-.1-.4 0-.8-.1-1.2-.2-1.1-.2-2.4-.4-3.5-.4 0-.1-.1-.2-.2-.4-.2-.5-.3-1.3-.4-2.5-.2-2.2-.4-5.4-.6-9.3 0-.6-.1-1.2-.1-1.7-.4-7.7-.8-17.7-2.1-28.4-.4-3.6-.9-7.5-1.5-11.5-1.3-9.5-2.6-19.4-2.6-27.6 0-9.1 2.6-17.2 5.8-22.4 1.6-2.6 3.3-4.4 4.8-5.2.7-.4 1.4-.5 1.9-.5.5.1 1 .3 1.5.9.7.9 1.4 2.4 2.1 4.5.6 2 1.1 4.5 1.6 7.2.8 5.4 1.2 11.8 1.1 17.4 0 1-.1 1.6-.3 2-.1.4-.3.7-.5 1 0 0 0 .1-.1.1-.3.4-.5.9-.7 1.6-.2.7-.3 1.6-.3 2.9 0 6.1-.7 23.8-1.5 40.2-.4 7.9-.7 15.5-1 21.4-.3 6.2-.5 10.2-.5 11z" class="st16"/>
  <path d="M573.5 404.6l.7-.2v.2h-.7zm0 0l.7.1v.5c0 .3-.1.8-.2 1.4-.1 1.2-.3 2.8-.6 4.6-.4 3.5-.8 7.6-.9 9.6-.6 18.1-.1 26.5 0 28.6v.4h.1c.3 0 .8 0 1.5-.1.3 0 .7-.1 1.1-.2 1-.2 2.2-.3 3.3-.4v-.1c.1-.3.2-.7.4-1.3.3-1.2.6-2.9 1-4.9.7-4.1 1.4-9.7 2.1-15.4 1.4-11.5 2.5-23.4 2.5-25.5 0-.3.1-.8.1-1.4 0-.3.1-.6.1-.9.1-.4.1-.8.2-1.2.3-1.7.6-4.1.8-7 .4-5.9.4-14.2-1.2-24.9-.5-3.1-1.4-6.6-2.6-10.6-.1-.5-.3-.9-.4-1.4-1.1-3.7-2.3-7.9-3.4-12.9-.7-2.9-2.9-4.5-5.8-5s-6.4.1-9.4 1.5c-2 1-3.7 2.5-5.1 4.2-.7.8-1.3 1.6-1.9 2.4-.1.1-.2.2-.3.4-.4.6-.8 1.1-1.2 1.6 0 .1.1.2.2.4.2.4.6 1 1.1 1.8.7 1 1.6 2.1 2.6 3.4.5.6 1.1 1.3 1.6 2 1.6 2 3.3 4.3 4.6 6.4 1.3 2.1 2.3 4.2 2.4 5.9.4 4.9 2.1 14.4 3.9 22.7.9 4.1 1.7 8 2.3 10.8.3 1.4.6 2.5.7 3.3.1.4.2.7.2.9l.1.2v.1c.1-.2.1-.2-.6 0zm4.9 44.9zm-23.9-102.9c-.1 0-.1 0 0 0z" class="st16"/>
  <path d="M553.8 467s4.5 1.4 5.9 1.4c3.1 0 5.2-1.5 5.2-1.4 0 .1.2 1.8-.3 2.2-.5.4-2 1.5-4.9 1.8-2.9.3-5.2-1.2-5.9-1.9-.6-.7 0-2.1 0-2.1z" class="st6"/>
  <path d="M555.2 460.3c.4 0 1.9 2.1 3.5 2.1 1.5 0 3.7-2.7 4-2.1.3.6 3.1 6.9 1.5 7.5-.8.3-3.2 1.3-5.5 1.2-2.4-.1-4.5-1.4-4.8-1.7-.7-.7.9-7 1.3-7z" class="st32"/>
  <path d="M579 326.1s3.4-3.3 4.2-5.3c2.2-5.3-2.5-20.3-5.5-23.6-2.7-3-6.5-8.8-13.4-6.9-3.5 1-13.2 10.1-13.2 10.1s.3 14.5 0 21.5 4 20.6 4 20.6 7.4 2.3 11.5 2c4-.3 9.9-2 9.9-2l2.5-16.4z" class="st13"/>
  <path d="M611.3 332.6h-.2l-17.2-3.1-.4-.1-.1-.4.7-.2-.7.2-.1-.2c-.1-.1-.1-.4-.2-.6-.2-.5-.5-1.3-.8-2.2-.7-1.8-1.6-4.3-2.5-6.8-.9-2.5-1.9-5-2.7-6.9-.4-1-.8-1.8-1.1-2.3-.1-.3-.3-.5-.4-.7 0-.1-.1-.1-.1-.1-.9-.5-2.1-.9-3.4-1.2-1.3-.3-2.6-.5-3.6-.3s-1.5.6-1.7 1.2c-.2.8 0 2.1 1.2 4.3 1.2 2.3 2.4 4.9 3.6 7.6l.3.6c1.1 2.5 2.2 4.9 3.4 7.2 1.2 2.4 2.5 4.5 3.7 6 1.2 1.5 2.4 2.3 3.4 2.3.8 0 6.4 0 12-.4 2.8-.2 5.6-.5 7.7-.9 1.1-.2 2-.4 2.6-.7.3-.1.6-.3.8-.4.2-.1.2-.2.3-.3.1-.3.1-.4.1-.5 0-.1-.1-.2-.2-.3-.3-.2-.8-.4-1.5-.6-.7-.1-1.4-.2-2-.2h-.7c0-.1-.1 0-.2 0zM585.5 309z" class="st16"/>
  <path d="M578 295c.7.6 6.1 2.4 8 4.9 3.8 5 4.6 12.1 4.7 13.7.1 2.4-3.1 4.3-6.1 6-2.9 1.7-5 2.8-6.6 1.2-1.6-1.6-2.2-27.7 0-25.8z" class="st17"/>
  <path d="M620.4 313.1zm-.2-.1h-.1c-.3 0-.6-.1-1.1-.1-.9-.1-2.2-.1-3.7-.2-3-.1-7-.2-11-.2s-8 0-11.1.1c-1.5.1-2.9.1-3.8.2-.5 0-.9.1-1.1.1-.1 0-.2 0-.3.1v.1c-.1.1-.1.3-.2.6-.1.5-.2 1.2-.3 2-.2 1.7-.3 3.9-.3 6s.1 4.3.3 6c.1.8.2 1.5.3 2 .1.2.1.4.2.5h.3c.3 0 .7.1 1.2.1 1 .1 2.3.1 3.9.1h11.3c4 0 8.1-.1 11-.2 1.5 0 2.7-.1 3.6-.1h.7v-.1c0-.5.1-1.2.1-2 .1-1.7.2-3.9.2-6.1.1-2.3.1-4.5 0-6.3 0-.9-.1-1.6-.1-2.1.1-.2.1-.3 0-.5zM588 330.3z" class="st16"/>
  <path d="M599.4 316.7c-.4-.3-6.1-.4-6.7 0-.6.4-.6 1.5 0 1.8.6.3 6.7 0 6.7 0s.4-1.5 0-1.8zM608.8 323.5c-.2-.2-4 0-8.1-.4s-7.6.2-7.9.4c-.6.4-.6 1.5 0 1.8s16 0 16 0 .3-1.5 0-1.8zM609.3 316.8c-.4-.3-6.1-.4-6.7 0-.6.4-.6 1.2 0 1.5s6.7 0 6.7 0 .4-1.2 0-1.5zM616.6 317c-.4-.3-4-.4-4.6 0-.6.4-.6 1.2 0 1.5.6.3 4.6 0 4.6 0s.4-1.2 0-1.5z" class="st32"/>
  <path d="M618.9 325.1c-.1 0-.4-.1-.8 0s-.9.3-1.5.6c-1.1.6-2.4 1.6-3.6 2.6-1.2 1-2.3 2-3.2 2.8-.4.4-.8.7-1 1l-.1.1 1.2 3.5h1c.9 0 2.1-.1 3.4-.2 1.3-.1 2.6-.3 3.8-.5.6-.1 1.1-.2 1.5-.4.4-.1.7-.3.8-.4.3-.2.5-.8.6-1.7.1-.9.1-1.9-.1-3s-.5-2.1-.9-2.9c-.2-.8-.7-1.3-1.1-1.5z" class="st16"/>
  <path d="M613 334.8l-2.2-3.3s-1 .9-1.7 1.2c-.7.3-1.3 0-1.3 0l-1.1 2.7 6.3-.6zM578 349.2s-8.3-9.7-12.3-9.9c-3.8-.2-7.5 2.7-11.4 7.2-3.9 4.5.7 24.6.7 24.6s7.5.7 9 .7c2.6 0 1.6-1.5 3.2-1.5 1.5 0 1.8 1.5 3.3 1.5 2.1 0 7.6-.7 7.6-.7v-21.9z" class="st13"/>
  <path d="M555.3 343.2c-1.3-2.5-4.1-13.2-5.7-19-1.8-6.5-6.5-18.5 0-26.4 2.8-3.5 8.7-8 16.4-8 9.2 0 13.1 5.4 15.7 11.4 3.6 8.5 3.7 18.6 2.7 20.2-1.7 2.8-4.3 3.5-4.3 4.8 0 6-2.6 15.7-3.9 16.9s-6.8 2.5-10.2 2.5c-3.4.1-9.4.1-10.7-2.4z" class="st17"/>
  <path d="M577.1 266.7c0 1.9 1.4 3.2 3 3.2s3-1.4 3-3.2c0-1.9-1.4-3.2-3-3.2s-3 1.4-3 3.2zM570.3 291.2v-5.7l-8.2-2.6v8.3c.3.2.8.4 1.3.6.5.2 1 .5 1.6.6.5.2 1 .3 1.3.3s.7-.1 1.3-.3c.5-.2 1.1-.4 1.6-.6.3-.2.7-.4 1.1-.6-.1 0 0 0 0 0z" class="st4"/>
  <path d="M557.3 280.1c3.1 4.1 6.6 7.5 11.1 7.5 3.2 0 6.9-1.3 9.5-3.8 2.6-2.6 4.3-6.5 3.6-12-.2-1.7-.2-3.6-.2-5.5v-2.4c-.1-2.6-.4-4.9-1.3-6.3-2.2-3.4-6.6-5.4-11.5-5.4-9 0-15 7.8-15 17.7-.1 2.7.8 6.2 3.8 10.2z" class="st16"/>
  <path d="M573.2 280.1s-2.1.7-3.2.7-3.2-.7-3.2-.7M578.6 264.1s-2.1-1.4-3.4-1.1c-2.7.5-4.3 2.3-5 3.6-1.6 3-.8 6.9 0 8.1.8 1.2 3.3-.6 3.3-.6" class="st20"/>
  <path d="M575.8 269.6c-.6 0-1-.5-1-1 0-.6.5-1 1-1 .6 0 1 .5 1 1 0 .6-.4 1-1 1zM565.8 269.9c-.6 0-1.2-.5-1.2-1.2 0-.6.5-1.2 1.2-1.2.6 0 1.2.5 1.2 1.2s-.6 1.2-1.2 1.2z" class="st3"/>
  <path d="M549.7 268.3c0 1.9 1.4 3.2 3 3.2s3-1.4 3-3.2c0-1.9-1.4-3.2-3-3.2s-3 1.3-3 3.2z" class="st4"/>
  <path d="M555.3 271.8c-2 0-3.7-1-3.7-3.2s1.6-3.9 3.7-3.9c2 0 3.7 1.8 3.7 3.9 0 2.2-1.7 3.2-3.7 3.2z" class="st13"/>
  <path d="M566.7 260.2c-14.2.4-14.3-5.5-13.7-11 .6-5.5 3.3-10 18-8.5s14 10 14.3 13.8c.3 3.9-4.4 5.3-18.6 5.7z" class="st3"/>
  <path d="M547.4 247.8c13.2-2.7 19.4 15.2 7.1 19.1-12.4 3.9-20.3-16.5-7.1-19.1z" class="st3"/>
  <path d="M560.2 258.1c-7.9 0-15.6-3.2-15.6-8.4s10.3-9.4 18.3-9.4c7.9 0 4.9 4.3 4.9 9.4 0 5.2.4 8.4-7.6 8.4z" class="st3"/>
  <path d="M579.8 321.1h-.1l-12.3 6.4-.6.3-.3-.6.6-.4-.6.4-.1-.1c-.1-.1-.1-.2-.2-.4-.2-.4-.5-.9-.9-1.5-.7-1.2-1.7-2.8-2.8-4.5-1-1.6-2.1-3.3-3-4.6-.4-.6-.8-1.2-1.1-1.6-.2-.2-.3-.4-.4-.5l-.1-.1c-.9-.5-2.2-1.2-3.7-1.7-1.5-.6-3-1-4.3-1.1-1.3-.1-2.1.2-2.4.7-.2.3-.3.7-.2 1.3.1.7.3 1.5.9 2.6 2.1 4.5 5.6 9.2 9 12.8 1.7 1.8 3.4 3.4 4.9 4.5 1.5 1.2 2.7 1.9 3.4 2 .3.1.7 0 1.4-.2s1.5-.6 2.4-1.1c1.8-1 3.9-2.4 6-3.9s4.1-3.2 5.6-4.6c.8-.7 1.5-1.4 2-1.9.5-.6.9-1 1-1.3.2-.3.2-.4.2-.5 0 0 0-.1-.1-.2-.2-.2-.7-.4-1.4-.5-.7-.1-1.4-.1-2-.1-.3.4-.6.4-.8.4z" class="st16"/>
  <path d="M548.4 296.8c-3.8 2.8-5.9 6.4-3.6 13.3 1.3 3.9 5.8 13.6 5.8 13.6s4.4 1.3 7.5 0c3.1-1.3 4.7-4.1 4.7-4.1s-5.4-29.3-14.4-22.8z" class="st17"/>
  <path d="M603 285.4c-.4.7-1.7 2.6-3.4 5s-4 5.4-6.1 8.4-4.3 5.8-5.8 7.9c-.8 1.1-1.4 1.9-1.9 2.5-.1.1-.2.3-.3.4l3.8 2.8.3-.4c.4-.6 1.1-1.5 1.9-2.5 1.5-2.1 3.6-4.9 5.8-7.8 4.3-5.8 8.7-12 9.6-13.4.3-.5.3-1 .1-1.5-.2-.5-.6-1-1.2-1.4-.6-.4-1.1-.6-1.6-.6-.7.1-1 .2-1.2.6z" class="st16"/>
  <path d="M585.1 307.2c-.2.1-.4.3-.8.7-.3.4-.6.9-1 1.6-.6 1.3-1.2 3-1.7 4.7-.5 1.7-.9 3.3-1.2 4.6-.1.6-.3 1.1-.3 1.5v.2l3.4 3c.2-.2.5-.4.8-.7.7-.7 1.7-1.6 2.7-2.6 1-1 2-2.1 2.8-3.1.4-.5.7-1 1-1.4.2-.4.4-.7.4-1 .1-.5 0-1.3-.4-2.2-.4-.9-.9-1.9-1.6-2.8-.7-.9-1.4-1.6-2.2-2.1-.8-.5-1.4-.6-1.9-.4z" class="st16"/>
  <path d="M581.5 318.4s-.7 2-1.2 2.7c-.5.7-1.3 1.2-1.3 1.2l1.7 2.5 4.1-3.7-3.3-2.7z" class="st13"/>
  <path d="M1142.9 168.7c78.6-3.8 80.7 195.3 38.9 261.5M1042.9 473.2c-29.5 40.1 117 38.8 213.1 0 96.2-38.8 262.8-249.7 262.8-249.7" class="st0"/>
</svg>