<svg xmlns="http://www.w3.org/2000/svg" xmlns:xlink="http://www.w3.org/1999/xlink" width="1466" height="527"><defs><path id="a" d="M263.473 483.395c161.527 0 199.168-163.983 199.168-282.172C462.64 83.033 381.66.965 263.473.965 145.283.965.914 132.335.914 250.523c0 118.19 101.031 232.872 262.559 232.872z"/></defs><g fill="none" fill-rule="evenodd"><g transform="translate(49 16)"><mask id="b" fill="#fff"><use xlink:href="#a"/></mask><use fill="#FFF" fill-rule="nonzero" xlink:href="#a"/><path stroke="#5A06FF" stroke-linecap="round" stroke-width="3" d="M321.829 400.121H341.2" mask="url(#b)"/><g mask="url(#b)" fill-rule="nonzero"><g transform="translate(.038 63.928)"><g transform="rotate(7 -329.347 1195.465)"><circle cx="14.462" cy="22.572" r="4.5" fill="#292929"/><path fill="#292929" d="M.978 13.641l5.422-2.57 11.834 25.377-5.422 2.57zm10.996-2.008L17.4 9.072l8.883 19.048-5.426 2.561z"/><path fill="#FF02EC" d="M13.543 2.603l3.625-1.69L32.382 33.54l-3.625 1.69z"/></g><g fill="#292929" transform="rotate(43 19.953 129.03)"><path d="M35.108 62.095l3.324 1.767L6.028 114.32a138.62 138.62 0 0 1-2.083-.92c-.487-.26 9.901-17.36 31.163-51.305zM54.44 39.934l-3.26-1.882 24.057-36.39c1.305.627 1.988.958 2.05.994.477.275-7.139 12.701-22.847 37.278z"/><path d="M59.748 21.094l7.423 3.803c-21.4 31.13-32.597 47.405-33.592 48.825-1.491 2.13-6.242-1.218-6.21-2.96.021-1.162 10.814-17.718 32.38-49.668z"/><circle cx="3.642" cy="115.066" r="3"/></g><g fill="#292929" transform="rotate(36 -3.152 152.133)"><path d="M35.108 68.095l3.324 1.767L6.028 120.32a138.62 138.62 0 0 1-2.083-.92c-.487-.26 9.901-17.36 31.163-51.305zm18.65-22.892l-3.26-1.882L78.869 2.34c1.305.627 1.988.957 2.05.993.477.276-8.577 14.232-27.161 41.87z"/><path d="M63.827 20.63l7.423 3.802C50.34 56.701 39.404 73.186 38.437 73.888c-1.449 1.053-7.223-1.668-7.35-3.175-.084-1.004 10.829-17.699 32.74-50.084z"/><circle cx="3.642" cy="121.066" r="3"/></g><g fill="#292929" transform="rotate(47 37.389 119.384)"><path d="M29.108 72.095l3.324 1.767-28.342 43.49c-1.326-.581-2.02-.888-2.083-.921-.486-.26 8.547-15.038 27.101-44.336zm18.65-22.892l-3.26-1.882 30.69-44.964c1.305.626 1.988.957 2.05.993.477.275-9.35 15.56-29.48 45.853z"/><path d="M57.652 24.664l7.422 3.803C43.744 60.156 32.585 76.53 31.597 77.59c-1.482 1.59-6.054-.366-6.324-3.258-.18-1.928 10.612-18.484 32.379-49.668z"/><circle cx="3" cy="116" r="3"/></g><path fill="#030303" d="M115.565 301.693c17.599 0 31.865-6.028 31.865-13.464 0-7.436-14.266-13.464-31.865-13.464-17.599 0-25.279 6.028-25.279 13.464 0 7.436 7.68 13.464 25.279 13.464z" opacity=".102"/><path fill="#FF02EC" d="M88.974 286.587c2.655-1.77 6.088-3.834 10.3-6.19 6.316-3.535 12.786-5.127 14.15-4.616.706.265 3.02 2.093 3.321 4.634.28 2.365-1.406 5.439-2.013 6.068-1.26 1.304-20.173 11.434-23.847 9.31-2.45-1.414-3.086-4.483-1.911-9.206z"/><path fill="#292929" d="M88.928 286.346c2.686-3.405 6.134-6.285 10.345-8.642 6.317-3.535 12.787-5.127 14.15-4.616.707.265 3.022 2.093 3.322 4.634.28 2.365-1.406 5.44-2.013 6.068-1.26 1.304-19.743 11.283-23.417 9.16-2.45-1.415-3.245-3.616-2.387-6.604z"/><path fill="#FFF" stroke="#000" stroke-width="2" d="M107 265v12.412c1.087.578 1.932.858 2.5.858.568 0 1.413-.28 2.5-.858V265h-5z"/><path fill="#292929" d="M105.242 169.178h25.686l-12.303 62.887c-2.712 24.012-4.278 36.637-4.7 37.877-.63 1.86-1.626 1.86-4.017 1.86-2.391 0-3.848 0-4.666-1.86-.817-1.86-3.364-28.942-3.364-39.832 0-5.147-1.128-16.006 0-34.277.308-4.997 1.43-13.882 3.364-26.655zm-13.144-52.632c4.376-2.099 18.43-2.974 12.586 7.145-5.843 10.118-14.072 16.445-20.152 16.372-1.83-.022-15.525-16.517-17.092-19.892-1.045-2.25.976-4.299 6.062-6.147l11.03 13.285c4.089-6.717 6.61-10.304 7.566-10.763z"/><path fill="#292929" d="M115.054 104.191c-9.664-5.739-22.594 8.39-24.105 10.7-1.512 2.308 1.237 9.086 3.087 12.475 1.233 2.26 3.31 3.87 6.233 4.83 16.3-14.844 21.228-24.178 14.785-28.005zm-37.041 8.522c-.32 2.392-3.572 5.46-9.759 9.203-5.874-2.891-8.747-5.217-8.617-6.978.194-2.642 5.279-9.72 8.245-10.838 2.967-1.12 10.61 5.025 10.131 8.613z"/><path fill="#FF02EC" d="M120.32 293.977c2.078-1.582 3.254-2.783 3.53-3.6 1.04-3.073 3.077-2.917 6.072-5.032 6.287-4.441 12.953-6.844 14.451-6.454.627.163 1.678-2.713 2.989-1.24.312.352.877 3.797.993 4.308.559 2.47-.563 4.88-1.75 6.4-1.187 1.52-2.42 2.88-5.21 4.866-5.004 3.56-14.727 10.073-18.849 8.236-2.747-1.224-3.489-3.719-2.225-7.484z"/><path fill="#292929" d="M120.087 294.715c1.044-5.634 3.663-9.931 7.854-12.892 6.288-4.44 12.953-6.843 14.452-6.454.776.202 4.644.484 5.244 3.138.56 2.47-.446 5.781-1.633 7.3-1.187 1.52-3.8 2.808-6.59 4.794-5.004 3.56-10.783 9.743-14.905 7.907-2.747-1.225-4.221-2.49-4.422-3.793z"/><path fill="#FFF" stroke="#000" stroke-width="2" d="M138 266v12.48c1.178.803 2.04 1.193 2.5 1.193.46 0 1.322-.39 2.5-1.193V266h-5z"/><path fill="#292929" d="M120.502 171.54h26.383c.565 7.689.565 16.446 0 26.27-.565 9.824-1.804 22.639-3.72 38.443 1.323 21.946 1.984 33.693 1.984 35.24 0 2.32-1.18 3.113-3.882 3.113s-2.028.126-5.111-1.494c-3.084-1.62-9.452-29.66-9.452-36.859 0-4.8-2.067-26.371-6.202-64.714z"/><path stroke="#FF02EC" stroke-width="2" d="M145.886 181.732c.705-.713 1.487-6.812 1.658-12.987.136-4.914-.51-15.078-1.942-30.45l-.012-.127.02-.127c3.217-19.54 2.595-31.397-1.603-35.365-3.408-3.221-11.463-5.673-18.33-5.673-8.055 0-14.726 3.27-18.155 8.02-1.531 2.122-2.48 4.586-2.948 7.402-.495 2.975-.454 5.772-.058 10.1.307 3.345.308 3.359.308 4.288 0 .644.008 1.455.024 2.626.008.617.045 3.095.052 3.562.114 7.966.114 14.025-.076 20.638-.068 2.361-.529 4.87-1.462 8.578-.125.495-.248.977-.439 1.712-2.053 7.931-2.425 10.82-1.144 13.133 1.543 2.787 4.9 4.036 13.295 5.559l1.99.358c.812.147 1.435.26 2.047.376 1.575.296 2.918.57 4.206.865 4.394 1.006 9.517.97 14.484.11 3.925-.679 7.36-1.866 8.085-2.598z"/><path fill="#FFF" d="M105.444 162.498h41.37v16.836c-5.888 4.434-13.138 5.799-21.75 4.093-12.919-2.558-16.684-1.4-21.447-6.481-3.175-3.387-2.566-8.203 1.827-14.448z"/><path fill="#FFF" stroke="#000" stroke-width="2" d="M146.536 130.82c.097.836 3.05 6.434 8.509 15.983l.148.26-.019.299c-.786 12.52-1.752 19.686-3.021 21.877-1.194 2.06 1.422 4.7 4.548 4.376.328-.034.952-.762 1.624-2.175.982-2.063 1.964-5.278 2.918-9.338a158.45 158.45 0 0 0 1.389-6.6 236.58 236.58 0 0 0 .673-3.694l.144-.822c.404-2.29-.07-8.661-1.271-14.659-1.55-7.737-4.054-14.2-7.359-18.003-2.87-3.303-4.762-2.664-6.425 1.253-1.388 3.272-2.166 8.596-1.858 11.244z"/><path fill="#FFF" stroke="#FF02EC" stroke-width="2" d="M145.51 129.976c2.596-.007 4.686-.731 6.312-2.164 1.742-1.535 3.526-4.375 5.311-8.51-6.58-15.08-12.275-19.995-17.17-15.806-5.133 4.39-3.436 13.168 5.547 26.48z"/><g fill="#FFF"><path stroke="#000" stroke-width="2" d="M156.928 173.331l-4.75-3.032c-7.949 3.14-11.947 5.925-12.003 7.919-.087 3.102 8.033 8.519 10.524 7.268 1.664-.835 3.828-4.94 6.229-12.155z"/><path d="M153.81 168.741l3.816 1.947-2.721 5.486-3.596-4.352z"/></g><path fill="#FFF" stroke="#000" stroke-width="1.6" d="M117.8 94.53v7.616c3.684 1.334 6.174 2.002 7.384 2.002 1.207 0 3.648-.666 7.239-1.997V88.279L117.8 94.53z"/><circle cx="109.147" cy="74.014" r="3.802" fill="#FFF" stroke="#000" stroke-width="2"/><path fill="#FFF" stroke="#000" stroke-width="1.6" d="M117.017 96.982c.851 0 1.518.069 2.386.216-.022-.004.521.09.66.112.219.034.393.057.556.07 1.232.095 2.48-.439 5.316-2.523.646-.475 2.626-1.91 3.001-2.188.891-.657 1.473-1.116 1.968-1.558a10.703 10.703 0 0 0 1.63-1.81c.597-.833 1.217-1.896 2.145-3.667 2.036-3.885 2.286-11.353.604-17.933-1.837-7.183-5.46-11.694-10.013-11.694-6.483 0-13.768 2.43-16 5.867-2.103 3.238-2.739 9.993-1.82 16.061.836 5.523 2.16 10.145 3.984 13.908 1.446 3.486 3.301 5.139 5.583 5.139z"/><path fill="#030303" d="M116.843 97.147c3.985 0 3.96 2.474 9.566-1.645 5.605-4.12 3.113-.495 5.947-5.902 1.693-3.23-2.303-6.056-7.19-6.875-2.94-.493-7.218-.292-9.914 0-4.304.467-5.313 4.083-5.002 6.136 1.271 8.396 2.607 8.286 6.593 8.286z" opacity=".102"/><path fill="#FFF" stroke="#000" stroke-width="1.6" d="M130.068 55.116c-.002.183.06.496.197.914.295.9.36 1.038 1.996 4.395.199.408.364.75.519 1.08 1.228 2.603 1.835 4.352 1.835 5.767 0 1.023-.161 1.892-.646 3.935l-.015.062c-.581 2.445-.726 3.517-.486 4.438.274 1.051 1.18 1.594 3.253 1.594 2.376 0 3.387-.199 3.738-.609.295-.345.334-.863.248-3.153-.09-2.42-.064-4.102.193-6.357.423-3.726-1.314-6.785-4.585-9.175a18.808 18.808 0 0 0-4.007-2.212c-1.014-.409-1.95-.67-2.24-.679z"/><circle cx="136.87" cy="77.809" r="4.002" fill="#FFF" stroke="#000" stroke-width="1.6"/><path fill="#FFF" stroke="#FF02EC" stroke-width="2" d="M140.617 67.186l.021-.086c.524-2.098-.497-6.965-2.58-11.01-2.607-5.06-6.384-8.305-10.986-8.74-9.843-.933-15.527 1.517-19.554 7.456-1.262 1.86-2.574 4.548-3.169 6.621-.611 2.131-.427 2.99.282 2.99.975 0 8.35-1.497 9.302-1.656 6.518-1.088 12.163-1.177 17.6.178 4.482 1.118 7.238 2.55 9.084 4.247z"/><path fill="#292929" d="M119.779 63.534c6.046-.28 12.955 1.463 20.725 5.231-2.446-9.842-10.841-14.353-25.184-13.532-14.344.82-18.085 4.34-11.223 10.56 1.518.612 2.497.865 2.937.762 3.982-.936 7.558-2.78 12.745-3.02z"/><path fill="#FFF" d="M132.067 83.99c1.983 0 6.015-4.512 6.015-6.495 0-.863-1.494-1.744-4.481-2.644-.563-2.064-1.074-3.095-1.534-3.095-1.983 0-1.958 3.756-1.958 5.739s-.025 6.494 1.958 6.494z"/><path stroke="#212121" stroke-linecap="round" stroke-width="1.6" d="M114.188 87.45c1.655.728 2.902 1.09 3.743 1.09.84 0 2.195-.545 4.064-1.636"/><ellipse cx="112.11" cy="74.528" fill="#212121" rx="1.175" ry="1.175"/><ellipse cx="123.693" cy="74.594" fill="#212121" rx="1.342" ry="1.343"/></g><path stroke="#212121" stroke-linecap="round" stroke-width="1.6" d="M129.037 134.123c-2.636-1.03-4.399-1.567-5.287-1.614-2.005-.105-4.252 1.092-4.848 1.614-3.53 3.093-2.29 7.335-2.47 8.82-.257 2.111 1.84 2.111 6.29 0"/><g transform="matrix(-1 0 0 1 437.038 98.928)"><path fill="#030303" d="M69.565 266.693c17.599 0 31.865-6.028 31.865-13.464 0-7.436-14.266-13.464-31.865-13.464-17.599 0-25.279 6.028-25.279 13.464 0 7.436 7.68 13.464 25.279 13.464z" opacity=".102"/><path fill="#5A06FF" d="M45.273 253.248c1.122-2.877 3.79-5.495 8-7.851 6.317-3.535 12.787-5.127 14.15-4.616.707.265 3.022 2.093 3.322 4.634.28 2.365-1.406 5.439-2.013 6.068-1.26 1.304-17.398 10.493-21.072 8.37-2.45-1.416-3.245-3.617-2.387-6.605z"/><path fill="#292929" d="M45.273 250.555c1.122-2.877 3.79-5.494 8-7.851 6.317-3.535 12.787-5.127 14.15-4.616.707.265 3.022 2.093 3.322 4.634.28 2.365-1.406 5.44-2.013 6.068-1.26 1.304-17.398 10.493-21.072 8.37-2.45-1.415-3.245-3.617-2.387-6.605zM45.139 85.35c3.333-3.527 16.14-9.38 14.31 2.16-1.829 11.54-7.904 18.675-13.606 20.786-1.717.635-29.169-5.797-31.841-8.386-1.782-1.725-.27-3.29 4.535-4.696l22.07 3.282c2.294-7.993 3.804-12.375 4.532-13.145z"/><path fill="#292929" d="M59.242 134.178h25.686L70.403 197.61l-2.841 45.326c-.842 1.24-2.06 1.86-3.654 1.86-1.594 0-3.15-.62-4.666-1.86-2.243-24.624-3.364-40.566-3.364-47.826 0-7.26 1.121-27.57 3.364-60.932z"/><path fill="#5A06FF" d="M77.095 261.14c-1.308-1.226.341-4.537.756-5.764 1.039-3.072 3.076-2.916 6.071-5.031 6.287-4.441 12.953-6.844 14.451-6.454.627.163 1.678-2.713 2.989-1.24.312.352.877 3.797.993 4.308.559 2.47-.563 4.88-1.75 6.4-1.187 1.52-2.42 2.88-5.21 4.866-5.004 3.56-8.53 8.251-12.65 6.414-4.122-1.836-4.343-2.274-5.65-3.5z"/><path fill="#292929" d="M76.341 258.223c-.458-4.64 1.409-8.44 5.6-11.4 6.288-4.44 12.953-6.843 14.452-6.454.776.202 4.644.484 5.244 3.138.56 2.47-.446 5.781-1.633 7.3-1.187 1.52-3.8 2.808-6.59 4.794-5.004 3.56-8.53 8.251-12.65 6.415-2.748-1.225-4.222-2.49-4.423-3.793z"/><path fill="#292929" d="M74.502 136.54h26.383l-4.393 62.169 2.657 44.697c-.787 2.076-2.081 3.113-3.882 3.113-1.801 0-3.293-.608-4.477-1.824-6.724-24.161-10.086-38.642-10.086-43.442 0-4.8-2.067-26.371-6.202-64.714zM65.76 76.83c1.226-4.696 5.691-14.012-3.875-11.363-9.565 2.648-17.806 16.242-18.342 18.95-.537 2.706 4.551 7.961 7.536 10.41 1.99 1.634 4.52 2.348 7.588 2.144 3.912-10.296 6.277-17.01 7.094-20.14z"/><path stroke="#5A06FF" stroke-linecap="round" stroke-width="2" d="M100.597 147.558c1.096-1.108-.155-3.026 0-8.627.138-4.969.138-16.878 0-35.728 4.674-26.316-2.634-39.474-21.925-39.474-25.34 0-20.848 20.933-20.848 28.084 0 4.259 3.229 15.164 2.887 27.035-.231 8.06-4.713 18.52-2.887 20.083 1.555 1.33 9.535 9.035 19.27 11.264 10.025 2.294 21.814-.93 23.503-2.637z"/><path fill="#FFF" d="M60.42 129.328L97 128l2.777 16.128c-2.996 5.106-9.766 6.725-20.31 4.857-10.544-1.869-17.73-5.788-21.558-11.759l2.511-7.898z"/><path fill="#FFF" stroke="#000" stroke-width="2" d="M104.637 99.824c.1.868 2.666 6.439 7.435 16.03l.153.308-.069.338-4.806 23.475c-1 3.739-.598 4.978.903 4.823 2.433-.252 11.179-19.044 12.196-24.812.404-2.29-.07-8.661-1.271-14.659-1.55-7.737-4.054-14.2-7.359-18.003-1.57-1.806-2.755-2.355-3.609-2.042-.807.296-1.6 1.416-2.242 3.239-1.136 3.224-1.655 8.512-1.331 11.303z"/><path fill="#FFF" stroke="#5A06FF" stroke-linecap="round" stroke-width="2" d="M94.182 80.088c-1.388-4.65-6.176-13.805 3.477-11.492 6.434 1.542 12.289 8.11 17.563 19.702-1.894 4.475-3.807 7.563-5.739 9.264-1.931 1.702-4.434 2.504-7.509 2.407-4.269-10.153-6.866-16.78-7.792-19.88zm-5.166 67.145s5.865-10.103 8.18-10.103c2.316 0 18.015 13.62 19.43 15.733 1.414 2.112-6.376 11.03-8.008 11.03-1.632 0-4.01-8.335-7.338-11.03-3.328-2.696-12.264-5.63-12.264-5.63zM9.874 74.604h10.771c-1.696 7.938-3.868 11.907-6.516 11.907-2.647 0-4.065-3.969-4.255-11.907z"/><path fill="#FFF" stroke="#000" stroke-width="2" d="M111.003 141.754l-3.858-1.767c-7.154 3.987-10.573 7.083-10.318 8.809.406 2.753 8.528 6.319 10.526 4.83 1.341-.998 2.635-5.023 3.65-11.872z"/><path fill="#FFF" d="M108.471 138.737l2.83.495-1.584 5.386-3.31-2.94z"/><path fill="#FFF" stroke="#5A06FF" stroke-linecap="round" stroke-width="2" d="M25.045 145.076c-5.029.978-16.905-1.444-18.209-8.148-.617-3.177-.52-13.56 1.774-20.95 2.546-8.21 4.485-15.536 10.118-13.858 5.633 1.678 3.204 5.32 6.135 9.093 5.472 7.043 12.176 11.974 13.65 19.557 1.303 6.705-8.44 13.329-13.468 14.306z"/><path fill="#292929" d="M19.142 85.972c1.986 1.37 2.847 6.402 2.584 15.095-4.453 2.44-7.434 3.203-8.944 2.288-2.266-1.372-6.263-9.116-5.914-12.267.35-3.151 9.295-7.172 12.274-5.116z"/><path fill="#FFF" stroke="#000" stroke-width="2" d="M73.629 58.576v6.752c2.141 1.22 3.785 1.818 4.875 1.818 1.09 0 2.734-.599 4.875-1.818v-9.773l-9.75 3.021z"/><circle cx="63.147" cy="39.014" r="3.802" fill="#FFF" stroke="#000" stroke-width="2"/><path fill="#FFF" stroke="#000" stroke-width="2" d="M73.897 60.577c10.144.752 12.173-.854 17.81-12.363 5.035-10.282-1.896-29.007-11.437-29.007-6.73 0-15.12 2.544-17.253 5.827-1.19 1.834-1.463 4.165-1.505 9.962v.088c-.023 3.108-.074 4.533-.282 6.15-1.667 12.951 1.876 18.544 12.667 19.343z"/><path fill="#FFF" stroke="#5A06FF" stroke-linecap="round" stroke-width="2" d="M66.413 26.858c-8.353 3.001-13.356-5.886-13.356-13.322 0-7.436 6.63-13.464 14.81-13.464S85.005 3.694 85.005 11.13c0 1.196 8.704.068 13.246 5.564s4.211 9.51 3.023 16.61c-1.188 7.099-7.448 11.942-8.853 11.56-2.182-.592.52-8.704-2.696-14.066-3.217-5.362-20.617-4.91-23.312-3.941z"/><path fill="#FFF" stroke="#5A06FF" stroke-linecap="round" stroke-width="1.6" d="M54.296 149.32c-.039.559 6.85 4.76 8.588 4.882.304.021 2.644-.298 4.154-1.383 2.3-1.652 3.95-4.4 3.584-5.08-.605-1.125-6.244-3.488-7.558-3.58-.585-.04-1.893 1.878-3.86 3.345-2.454 1.83-4.868 1.256-4.908 1.815zm-8.999-9.71c-.039.56 1.384 5.018 3.326 5.382 1.943.363 4.898 1.651 7.198 0 2.3-1.652 3.948-2.911 3.583-3.59-.605-1.126-1.49-3.354-2.805-3.446-.585-.04-2.093.859-5.034 1.654-2.942.796-6.229-.56-6.268 0zm35.847 19.815c.263.495 8.332.408 9.87-.41.27-.143.93-1.142 1.636-2.863 1.074-2.62.017-4.824-.653-5.207-1.11-.634-7.144.35-8.307.969-.517.275.39 1.596-.5 3.882-1.113 2.852-2.31 3.133-2.046 3.629z"/><path stroke="#212121" stroke-linecap="round" stroke-width="1.6" d="M70.447 49.936c1.624.418 2.855.627 3.692.627.838 0 2.069-.209 3.693-.627"/><g fill="#FFF" transform="translate(85 34)"><circle cx="6.87" cy="6.809" r="3.802" stroke="#000" stroke-width="2"/><path d="M4.095 13.248c1.983 0 3.987-4.77 3.987-6.753 0-.863-1.494-1.744-4.481-2.644.188-2.265.053-3.398-.407-3.398C1.211.453.11 4.512.11 6.495c0 1.983 2.003 6.753 3.986 6.753z"/></g><path stroke="#212121" stroke-linecap="round" stroke-width="1.6" d="M66.123 32.525c4.889-.908 7.927-.196 9.116 2.137 1.783 3.498 1.34 9.458 0 10.308-.893.566-2.022.312-3.387-.762"/><ellipse cx="68.21" cy="38.628" fill="#212121" rx="1.275" ry="1.275"/><ellipse cx="80.693" cy="38.594" fill="#212121" rx="1.342" ry="1.343"/></g><g transform="translate(130.143 72.099)"><g transform="scale(-1 1) rotate(-14 1110.426 829.321)"><ellipse cx="42.36" cy="23.489" fill="#030303" opacity=".102" rx="39.718" ry="16.748" transform="rotate(9 42.36 23.49)"/><path fill="#02EBCD" stroke="#02EBCD" stroke-linecap="round" stroke-width="3" d="M56.36 10.459c5.514 1.336 10.323 2.797 14.426 4.384 4.842 1.872 10.468 9.398 10.405 9.94-.295 2.54-1.635 4.191-4.04 5.194-2.403 1.003-6.176.21-8.056-.55-3.3-1.334-6.474-4.454-10.113-7.24-1.874-1.435-4.803-2.527-5.985-3.775-1.357-1.432-1.673-2.38-1.673-2.725-.002-1.88 1.05-4.14 2.387-5.101.45-.323 1.333-.365 2.65-.127z"/><path fill="#292929" d="M56.511 7.283c5.47 1.115 10.279 2.907 14.426 5.375 6.22 3.703 10.833 8.51 11.072 9.947.123.744-.302 3.662-2.352 5.193-1.908 1.425-5.414 1.502-6.262 1.29-1.76-.438-21.412-12.192-21.41-16.435.001-2.829 1.51-4.619 4.526-5.37z"/></g><path fill="#FFF" stroke="#000" stroke-width="2" d="M61.444 59.932l4.953-1.097c3.377-3.09 5.18-5.277 5.34-6.285.27-1.716.62-3.216 1.08-4.748.261-.872 1.13-3.452 1.134-3.464.575-1.787.839-3.094.888-4.732.034-1.151-3.502-1.863-8.478-1.32-5.028.55-9.583 2.16-10.187 3.515-.959 2.154.765 8.333 5.27 18.131z"/><path fill="#FFF" stroke="#02EBCD" stroke-linecap="round" stroke-width="2" d="M105.532 79.331c10.61-1.73 9.255 4.866 9.93 13.037.292 3.526-7.711 7.434-16.951 13.13-12.17 7.504-35.231 15.246-36.85 14.714-6.399-2.108-6.8-35.444-4.991-37.19 1.808-1.747 6.13-3.69 7.635-2.465 1.004.816 3.525 6.796 7.562 17.938 15.37-11.622 26.592-18.01 33.665-19.164z"/><g transform="rotate(5 -274.264 421.82)"><path fill="#292929" d="M22.96 16.747c1.02-1.274 6.57-2.702 16.65-4.283l3.962 7.58-4.093 1.482-2.733-4.814-8.79 2.73 1.015 7.216-4.53.637c-2.008-5.757-2.502-9.273-1.482-10.548z"/><path fill="#292929" d="M25.738 16.747c2.4-2.68 14.558-5.05 17.042-4.338 1.657.474 3 2.998 4.029 7.57l-4.191 1.496-2.78-4.807-8.998 2.759 1.014 7.216-4.634.652c-2.589-5.245-3.083-8.761-1.482-10.548z"/><path fill="#FFF" stroke="#000" stroke-width="2" d="M45.168 12.81c.001.039.002.076.001.112l-.03.052a.39.39 0 0 0 .027-.156zm-.631 16.727c.015.182.056.435.122.75.147.702.41 1.669.776 2.848.7 2.261 1.748 5.219 2.917 8.249 1.168 3.03 2.367 5.9 3.348 7.999.51 1.093.952 1.956 1.3 2.538.114.192.216.349.3.466 2.307-.43 13.158-4.41 14.623-5.453 0-.153-.019-.367-.055-.633-.086-.627-.268-1.497-.536-2.564-.507-2.026-1.306-4.7-2.242-7.526-1.779-5.373-3.859-10.543-4.175-10.739-.261-.16-4.189.482-8.328 1.523-3.815.958-7.354 2.131-8.05 2.542z"/><path fill="#FFF" stroke="#000" stroke-width="2" d="M12.466 32.124c.006.183.036.444.09.772.115.696.33 1.653.635 2.82.586 2.241 1.476 5.17 2.477 8.156 1.006 3.003 2.046 5.837 2.908 7.906.45 1.079.842 1.93 1.155 2.502.094.172.178.314.25.424 4.026-.626 37.322-8.99 40.008-10.184a6.896 6.896 0 0 0-.112-.714c-.146-.73-.417-1.746-.797-2.998-.715-2.357-1.799-5.484-3.045-8.812-2.358-6.299-5.02-12.424-5.355-12.63-.57-.352-13.28 2.32-21.84 5.228-3.865 1.313-7.876 3.027-11.473 4.826-2.326 1.163-4.422 2.373-4.9 2.704z"/><path fill="#FFF" stroke="#000" stroke-width="2" d="M42.422 65.152c2.718-.198 22.208-7.338 23.445-8.793.351-.413-1.6-8.205-4.451-16.818-1.395-4.21-2.89-8.348-4.156-11.497-1.224-3.042-2.27-5.153-2.487-5.287-1.6-.988-24.931 4.877-26.062 6.535-.324.476 2.407 9.29 5.98 18.558 1.8 4.665 3.647 9.085 5.16 12.322.79 1.695 1.476 3.035 2.02 3.947.269.45.497.786.672.993.027.032.034.041-.031.043z"/><path fill="#FFF" stroke="#000" stroke-width="2" d="M38.521 32.758c.017.152.05.353.102.596.13.624.365 1.485.691 2.536.625 2.018 1.56 4.659 2.604 7.364 1.043 2.706 2.114 5.268 2.99 7.142.454.973.847 1.742 1.155 2.258.084.141.16.26.226.355 2.127-.43 11.527-3.877 12.911-4.809a4.934 4.934 0 0 0-.047-.498c-.076-.557-.238-1.33-.476-2.28-.453-1.808-1.166-4.195-2.002-6.719-1.498-4.524-3.264-8.953-3.64-9.489a3.801 3.801 0 0 0-.472.002c-.445.024-1.05.098-1.782.218-1.417.231-3.252.626-5.152 1.103-3.314.834-6.436 1.865-7.108 2.22zM23.622 72.902c2.431-.163 17.886-6.462 19.383-8.042-.074.08-.07.04-.074-.066-.01-.28-.067-.683-.17-1.192-.212-1.028-.605-2.442-1.16-4.178-1.043-3.254-2.629-7.556-4.464-12.143-1.754-4.38-3.616-8.724-5.166-12.043-1.499-3.21-2.726-5.432-2.968-5.582-1.362-.84-18.877 7.035-20.212 8.993-.306.45 2.678 8.874 6.532 17.714 1.939 4.446 3.928 8.672 5.546 11.77.845 1.616 1.573 2.896 2.146 3.767.283.43.522.75.704.948.035.038.047.05-.023.055z"/><path fill="#292929" d="M.293 46.249c1.85-4.13 18.911-11.64 22.414-9.244 3.503 2.396 12.423 21.322 9.55 25.352-2.872 4.03-19.093 10.76-22.775 9.169C5.8 69.936-1.556 50.38.293 46.249z"/><path fill="#FFF" stroke="#000" stroke-width="2" d="M4.393 48.105c-1.252 2.796 4.425 18.178 6.974 19.28 2.463 1.062 15.217-4.137 17.356-7.137 1.683-2.362-4.5-17.185-7.536-19.261-2.186-1.495-15.459 4.137-16.794 7.118z"/><path fill="#FFF" stroke="#000" stroke-width="2" d="M8.029 49.976c-.824 1.839 3.14 12.58 4.8 13.297 1.607.694 10.52-2.94 11.964-4.967 1.08-1.515-3.238-11.867-5.275-13.26-1.386-.948-10.61 2.966-11.49 4.93z"/><ellipse cx="16.208" cy="54.372" fill="#FE5" stroke="#000" stroke-width="2" rx="2.705" ry="3.399" transform="rotate(-25 16.208 54.372)"/></g><path fill="#02EBCD" stroke="#02EBCD" stroke-linecap="round" stroke-width="3" d="M127.834 291.44c5.671.16 10.678.59 15.022 1.289 5.125.824 13.163 7.87 13.214 8.413.24 2.546 2.497 8.358-3.394 8.903-3.747.346-13.225-4.811-19.67-8.21-3.689-1.944-6.051-1.602-8-4.463-1.949-2.86-.25-4.715.858-5.933.373-.409 1.03-.409 1.97 0z"/><path fill="#292929" d="M127.321 288.302c6.498.82 11.631 1.776 15.398 2.87 5.65 1.642 9.513 3.586 12.728 6.815 3.215 3.23 1.802 5.488.858 6.833-1.629 2.32-6.951 1.854-7.627 1.854-1.601 0-23.787-8.028-24.668-12.179-.587-2.767.517-4.831 3.311-6.193z"/><path fill="#FFF" stroke="#000" stroke-width="2" d="M127.219 279.89l1.05 10.518c1.457.833 2.562 1.268 3.265 1.317.683.048 1.736-.222 3.118-.832l1.98-10.237-9.413-.765z"/><path fill="#292929" d="M144.178 168.325l-35.324-13.628c4.952 8.59 8.488 21.377 10.608 38.36.669 5.356 2.603 20.134 5.801 44.334-.946 30.61-1.014 46.303-.206 47.083.98.943 4.255 3.121 7.558 3.455 2.677.27 5.497-1.003 6.133-2.498.567-1.335 5.88-39.139 6.503-48.04.415-5.935.057-28.957-1.073-69.066z"/><path fill="#FFF" stroke="#000" stroke-width="2" d="M102.068 278.827l2.41 10.818c1.566.528 2.72.74 3.412.655.68-.084 1.662-.55 2.903-1.413v-10.06h-8.725z"/><path fill="#292929" d="M94.317 157.57l31.348-3.08c-2.411 3.252-4.47 14.408-6.177 33.467-.759 8.474-3.126 25.327-7.102 50.558 1.19 27.82 1.536 42.024 1.038 42.613-.566.67-2.928 2.674-5.273 3.16-3.23.667-6.68-.433-7.65-1.801-.586-.826-5.23-34.884-6.184-43.972-.956-9.09.565-25.31 0-39.787-.425-10.869-.425-24.587 0-41.157z"/><path fill="#292929" d="M139.77 152.292l-38.94 2.342 6.408 37.152c3.776 3.883 8.13 5.308 13.061 4.276 4.932-1.033 9.574-2.458 13.928-4.276l5.543-39.494z"/><path fill="#FFF" stroke="#02EBCD" stroke-linecap="round" stroke-width="2" d="M95.621 87.428c8.16-8.422 15.318-12.653 26.249-12.653 10.93 0 22.885 4.295 25.51 7.617 1.421 1.797-.355 17.324-4.668 55.453-1.003 8.872 3.43 32.51 3.43 34.391 0 1.882-14.493 7.193-26.606 6.038-12.113-1.156-23.915-3.552-26.58-6.038-2.664-2.485 3.308-23.998 2.665-31.96-3.074-38.084-8.16-44.426 0-52.848z"/><path fill="#FFF" stroke="#02EBCD" stroke-linecap="round" stroke-width="2" d="M95.621 87.428c8.16-8.422 15.318-12.653 26.249-12.653 10.93 0 22.885 4.295 25.51 7.617 1.421 1.797-.355 17.324-4.668 55.453-1.003 8.872 3.43 32.51 3.43 34.391 0 1.882-14.493 7.193-26.606 6.038-12.113-1.156-23.915-3.552-26.58-6.038-2.664-2.485 3.308-23.998 2.665-31.96-3.074-38.084-8.16-44.426 0-52.848z"/><path fill="#FFF" stroke="#000" stroke-width="2" d="M112.336 56.613c-1.37 14.828-2.056 23.63-2.056 26.327 0 2.73 2.422 3.48 9.606 3.48 6.004 0 8.755-1.714 8.755-5.896v-23.91h-16.305zm45.172 117.657c-3.093 1.735-4.973 3.08-5.556 3.914-1.394 1.994-2.277 4.834-2.614 7.882-.136 1.232-.17 2.421-.108 3.376.028.422.073.778.129 1.038.03.138.058.217.02.181.183.176.953.464 2.072.703 1.194.255 2.715.45 4.286.555 3.035.202 5.802-.016 6.058-.298.18-.2.433-1.6.55-3.868.13-2.509.125-6.071-.018-10.68l.016-.209c.287-1.585.108-2.424-.323-2.685-.584-.352-2.129-.36-4.512.092zm-8.14 16.381z"/><path fill="#FFF" stroke="#000" stroke-width="2" d="M119.432 80.607c2.125 0 5.88-2.326 11.397-6.587 2.624-2.026 4.336-5.72 5.27-10.669.683-3.62.853-6.8.853-11.421v-.135c0-.818.009-1.382.047-3.195.08-3.855.068-5.875-.116-8.226-.853-10.913-5.444-16.655-16.795-16.655-8.677 0-13.571 2.56-16.01 7.604-1.915 3.961-2.289 8.06-2.254 18.34.004 1.056.005 1.537.005 2.132 0 8.778 1.868 18.838 5.468 22.295 4.656 4.47 8.5 6.517 12.135 6.517z"/><path fill="#030303" d="M119.808 80.64c8.52-.816 11.597-8.944 15.844-15.53 1.264-1.962-2.296 3.386-7.324 1.63-1.112-.387-2.296-3.631-3.524-3.89-3.143-.665-6.48-.029-9.637 0-2.038.017-3.547 2.04-5.248 2.26-4.077.527-8.546-4.136-8.055-2.26 2.96 11.281 14.03 18.165 17.944 17.79z" opacity=".19"/><g fill="#FFF" stroke="#02EBCD" stroke-linecap="round" stroke-width="2"><path d="M136.24 27.446c2.51 2.023 3.308 5.713 2.394 11.072-2.662-3.842-4.555-6.192-5.68-7.05-3.133-2.389-8.92-2.098-12.77-1.994-9.575.258-11.509 4.746-13.478 5.598-4.349 1.88-4.254 7.626-5.004 7.626s-2.492-6.079-1.291-9.221c.929-2.433.798-6.774 5.082-9.752 2.624-1.825 7.555-4.645 12.349-6.773 4.794-2.128 16.554 9.009 18.398 10.494z"/><path d="M119.844 27.773c16.759 1.057 17.311 8.457 19.123 9.938 3.7 3.025 1.507 11.87 0 11.87-.558 0-.555-3.585-2.364-6.288-1.112-1.66-3.608-2.311-5.267-3.594-3.08-2.382-8.768-2.092-12.553-1.988-9.41.257-12.631 3.904-14.567 4.753-4.275 1.875-2.43 8.234-3.168 8.234-.737 0-2.88-5.863-1.7-8.996 1.69-4.487 3.738-14.987 20.496-13.93z"/></g><g fill="#FFF" transform="translate(133 45.698)"><circle cx="5.558" cy="5.067" r="3.802" stroke="#000" stroke-width="2"/><path d="M3.125 8.242c2.084 0 4.491-.748 4.491-2.832 0-2.083-3.676-4.254-5.76-4.254-2.083 0-1.785 2.17-1.785 4.254 0 1.096.595 2.723 1.785 4.879.553-1.365.976-2.047 1.27-2.047z"/></g><g fill="#FFF" transform="matrix(-1 0 0 1 106 45.698)"><circle cx="5.558" cy="5.067" r="3.802" stroke="#000" stroke-width="2"/><path d="M3.125 8.242c2.084 0 4.491-.748 4.491-2.832 0-2.083-3.676-4.254-5.76-4.254-2.083 0-1.785 2.17-1.785 4.254 0 1.096.595 2.723 1.785 4.879.553-1.365.976-2.047 1.27-2.047z"/></g><path fill="#FFF" stroke="#02EBCD" stroke-linecap="round" stroke-width="2" d="M143.132 91.69c.439-3.477-1.94-12.071 4.455-9.28 6.395 2.79 10.959 10.842 13.812 17.25 2.853 6.408 4.95 29.402 6.581 40.254 1.63 10.852-4.868 36.005-6.581 38.18-1.042 1.322-4.018.819-5.669 0-.74-.367-1.846-12.26-3.321-35.678l-3.646-23.859c-4.046-15.594-5.923-24.55-5.63-26.868z"/><path stroke="#212121" stroke-linecap="round" stroke-width="2" d="M124.988 66.998c-1.56 1.844-3.536 2.766-5.927 2.766-2.39 0-4.247-.922-5.569-2.766M131.71 45.71c-2.768-.857-4.726-1.167-5.874-.928-3.863.802-5.027 1.988-5.643 2.987-.616.998-1.186 10.16-1.076 10.854.124.779 2.17.331 6.138-1.342"/><ellipse cx="127.784" cy="51.785" fill="#212121" rx="1.784" ry="1.785"/><ellipse cx="111.784" cy="51.785" fill="#212121" rx="1.784" ry="1.785"/><path fill="#FFF" d="M146.397 110.006c.9 0 2.054.612 3.465 1.836 1.822-12.213 2.733-19.167 2.733-20.863 0-2.136-1.793-4.82-5.38-8.049-2.83-1.882-4.545-2.687-5.146-2.415-3.301 1.495-5.568 7.947-5.568 10.464 0 1.78 2.682 9.28 8.047 22.504.333-2.318.95-3.477 1.849-3.477z"/></g><path stroke="#5A06FF" stroke-linecap="round" stroke-width="3" d="M175.159 317.428h20.377m-67.496 82.693h35.221"/><path stroke="#000" stroke-linecap="round" stroke-width="3" d="M34.635 343.578h26.417"/><path stroke="#5A06FF" stroke-linecap="round" stroke-width="3" d="M407.144 333.5h26.416"/><path stroke="#000" stroke-linecap="round" stroke-width="3" d="M311.348 310.428h16.607m-94.05 121.808h26.416"/><g fill="#FFF" stroke="#5A06FF" stroke-linecap="round" stroke-width="2"><path d="M425.167 218.318c-8.612-4.978-13.13-5.38-13.552-1.205-.633 6.263 9.151 12.38 7.35 16.27-1.201 2.592-6.051 1.731-14.55-2.585m13.343-20.522l-9.874 26.929m14.87-24.938l-9.52 25.623"/></g></g></g><path fill="#79DACD" fill-rule="nonzero" d="M197.089 497.62c68.766 41.734 211.502 2.962 244.965-23.365C510.391 420.491 526 331.594 526 244.5c0-39.556-7.742-114.39-24.502-147.095C463.283 22.838 411.768 0 304.898 0 198.028 0 30 114.756 30 244.499s98.323 211.386 167.089 253.12z" opacity=".113"/><path stroke="#02EBCD" stroke-linecap="round" stroke-width="3" d="M0 173.624c41.526 208.5 146.503 317.209 314.932 326.128 252.643 13.378 272.681-518.901 0-483.015C42.25 52.623 15.84 316.537 63.387 393.67"/><path stroke="#02EBCD" stroke-linecap="round" stroke-width="3" d="M57 381.904C182.6 620.4 458.785 488.757 873.354 488.757c276.38 0 473.262-68.252 590.646-204.757"/></g></svg>
