<?xml version="1.0" encoding="UTF-8"?>
<svg width="35px" height="35px" viewBox="0 0 35 35" version="1.1" xmlns="http://www.w3.org/2000/svg" xmlns:xlink="http://www.w3.org/1999/xlink">
    <!-- Generator: Sketch 52.4 (67378) - http://www.bohemiancoding.com/sketch -->
    <title>Line 2</title>
    <desc>Created with Sketch.</desc>
    <g id="Page-1" stroke="none" stroke-width="1" fill="none" fill-rule="evenodd" stroke-linecap="round">
        <g id="Контакты" transform="translate(-164.000000, -456.000000)" fill-rule="nonzero" stroke="#5A06FF" stroke-width="2">
            <path d="M176.464038,472.428456 C177.32227,474.58381 178.060203,474.16877 179.850047,476.132849 C181.043276,477.442236 183.070685,478.699743 185.932273,479.905372 C187.509313,477.390357 189.000816,476.132849 190.406782,476.132849 C192.51573,476.132849 198.494532,481.038685 197.96722,482.871678 C197.439908,484.70467 194.671744,489.127494 192.206658,489.127494 C191.513023,489.127494 188.809239,491.090633 184.336651,489.127494 C181.281384,487.786455 177.276019,483.988745 173.014175,478.945333 C166.013688,470.661043 163.599464,465.013831 165.771503,462.003695 C167.925119,458.667898 169.670635,457 171.008051,457 C173.014175,457 178.322071,460.807237 178.322071,463.239656 C178.322071,464.861268 177.702727,466.32447 176.464038,467.629261 C176.464038,467.629261 175.605806,470.273102 176.464038,472.428456 Z" id="Line-2"></path>
        </g>
    </g>
</svg>