<svg xmlns="http://www.w3.org/2000/svg"><symbol id="cart-empty-bgd" viewBox="0 0 86 78"><g fill="none"><path fill="#04EBCD" d="M43.949 77.83c27.954-1.826 40.8-9.38 41.982-37.717C87.113 11.776 72.825-5.375 46.093 1.525 19.361 8.424 3.241 13.149.304 32.438c-2.937 19.29 15.69 47.219 43.645 45.392z" opacity=".113"/><path d="M70 31.807c-32.136-1.076-49.972-1.076-53.51 0-5.307 1.615 5.1 24.696 7.313 26.26 2.076 1.466 30.165 3.305 35.527.379C64.692 55.52 75.308 29.262 70 32.131M51 30c-5.275-8-8.423-12-9.442-12-1.02 0-4.872 4-11.558 12" stroke="#02EBCD" stroke-linecap="round" stroke-width="3"/></g></symbol><symbol id="cart-empty" viewBox="0 0 40 40"><g fill="none" fill-rule="evenodd"><path fill="#FFF" d="M0 0h40v40H0z"/><path stroke="#02EBCD" stroke-width="2" d="M20.62 37.453c11.044 1.328 17.44-6.175 17.44-17.123 0-9.13-8.467-17.657-17.561-17.657-9.323 0-17.835 7.88-17.835 16.795 0 9.913 6.109 16.563 17.954 17.986z"/><path fill="#FFF" fill-rule="nonzero" stroke="#02EBCD" stroke-linecap="round" stroke-width="2" d="M32.36 16.362c-14.233-.483-22.133-.483-23.7 0-2.35.724 2.258 11.07 3.239 11.771.92.658 13.36 1.482 15.735.17 2.375-1.311 7.076-13.082 4.725-11.796"/><path stroke="#02EBCD" stroke-linecap="round" stroke-width="2" d="M23 16c-2.26-3.333-3.61-5-4.047-5-.436 0-2.088 1.667-4.953 5"/></g></symbol><symbol id="cart" viewBox="0 0 86 78"><g fill="none" fill-rule="evenodd"><path fill="#5A06FF" fill-rule="nonzero" d="M43.949 77.83c27.954-1.826 40.8-9.38 41.982-37.717C87.113 11.776 72.825-5.375 46.093 1.525 19.361 8.424 3.241 13.149.304 32.438c-2.937 19.29 15.69 47.219 43.645 45.392z" opacity=".096"/><text fill="#212121" font-family="Gerbera-Medium, Gerbera" font-size="20" font-weight="400" transform="translate(15 18)"><tspan x="22" y="33">2</tspan></text><path stroke="#5A06FF" stroke-linecap="round" stroke-width="3" d="M70 31.807c-32.136-1.076-49.972-1.076-53.51 0-5.307 1.615 5.1 24.696 7.313 26.26 2.076 1.466 30.165 3.305 35.527.379C64.692 55.52 75.308 29.262 70 32.131M51 30c-5.275-8-8.423-12-9.442-12-1.02 0-4.872 4-11.558 12"/></g></symbol><symbol id="cat_mobile" viewBox="0 0 377 457"><title>Group 10</title><g fill="none" fill-rule="evenodd"><path d="M376.23 456.716l.635-383.842c-67.734-4.8-119.938-8.2-156.613-10.203C168.824 59.864 95.407 60.593 0 64.861l1.092 391.855H376.23z" fill="#04EBCD" fill-rule="nonzero" opacity=".116"/><g fill-rule="nonzero" transform="translate(22 2)"><path d="M95.202 132.733c22.753 0 41.198-4.596 41.198-10.266S76.2 112.2 53.447 112.2C30.693 112.2 0 115.858 0 121.528s72.448 11.205 95.202 11.205z" fill="#030303" opacity=".102"/><path d="M60.398 78.467c1.373.763 5.73 1.67 13.067 2.717 11.008 1.572 9.665 7.967 6.11 7.967-1.963 0-9.342 1.857-20.615.63-1.567-.17-3.864-1.276-6.893-3.317" stroke="#5A06FF" stroke-width="2" fill="#FFF" stroke-linecap="round"/><path d="M25.802 125.4c10.847 0 27.759-10.609 31.414-21.86 1.11-3.419 2.438-8.036 3.405-12.79.986-4.849 9.088-13.561 7.33-22.91-1.604-8.536-13.009-17.973-13.661-17.973-.912 0-1.416 2.16-1.512 6.481-1.266 0-3.466.304-6.599.912-3.133.607-5.862 1.89-8.186 3.846-4.102-3.776-6.6-5.664-7.494-5.664-4.967 0-.485 14.98-4.697 17.776C16.73 79.238 5.896 85.989 3.715 95.47c-4.474 19.454 11.24 29.93 22.087 29.93z" stroke="#5A06FF" stroke-width="2" fill="#FFF" stroke-linecap="round"/><path d="M37.994 117.333c.38-5.233-.02-8.747-1.199-10.54-1.179-1.793-4.155-3.413-8.928-4.86" stroke="#5A06FF" stroke-width="2" fill="#FFF" stroke-linecap="round"/><path d="M28.045 57.933c3.792 3.136 5.688 4.946 5.688 5.432 0 .73-4.811 3.268-6.6 5.568" fill="#5A06FF"/><ellipse stroke="#5A06FF" stroke-width="2" fill="#FFF" stroke-linecap="round" cx="39.233" cy="70.4" rx="5.5" ry="5.133"/><circle fill="#212121" cx="39.967" cy="71.5" r="1.833"/><ellipse stroke="#5A06FF" stroke-width="2" fill="#FFF" stroke-linecap="round" cx="56.1" cy="66.733" rx="5.5" ry="5.133"/><path d="M49.578 77c.772 0 1.022-2.481 1.022-3.391 0-.91-3.667.649-3.667 1.559 0 .91 1.873 1.832 2.645 1.832z" fill="#5A06FF"/><path d="M54.267 78.01c-1.94-1.505-3.463-2.035-4.57-1.592-1.105.443-1.782 1.615-2.03 3.515" stroke="#5A06FF" stroke-width="2" fill="#FFF" stroke-linecap="round"/><path d="M55.756 51.333c-.504 3.904-.756 6.2-.756 6.89 0 1.034 7.442.31 8.8 1.91" fill="#5A06FF"/><circle fill="#212121" cx="56.1" cy="67.1" r="1.833"/><path d="M24.933 116.976c13.8-1.48 23.866-1.48 30.197 0 9.497 2.22 6.678 8.424 3.228 8.424H24.933M54.532 85.067c1.373.763 5.728 1.67 13.067 2.717 11.007 1.572 9.664 7.967 6.109 7.967-1.962 0-9.342 1.857-20.615.63-1.566-.17-3.864-1.276-6.893-3.317" stroke="#5A06FF" stroke-width="2" fill="#FFF" stroke-linecap="round"/><g transform="translate(84.333 85.067)" stroke="#5A06FF" stroke-linecap="round" stroke-width="2"><ellipse fill="#FFF" cx="22.92" cy="10.392" rx="7.147" ry="7.008"/><ellipse fill="#FFF" cx="15.28" cy="10.633" rx="10.844" ry="10.633"/><ellipse fill="#FFF" cx="10.844" cy="10.633" rx="10.844" ry="10.633"/><ellipse fill="#FE5" cx="10.844" cy="10.633" rx="6.408" ry="6.283"/></g><g transform="translate(71.867 105.6)" stroke="#5A06FF" stroke-linecap="round" stroke-width="2"><ellipse fill="#FFF" cx="15.013" cy="10.633" rx="10.654" ry="10.633"/><ellipse fill="#FFF" cx="10.654" cy="10.633" rx="10.654" ry="10.633"/><ellipse fill="#FE5" cx="10.654" cy="10.633" rx="6.78" ry="6.767"/></g><g transform="translate(94.6 104.867)" stroke="#5A06FF" stroke-linecap="round" stroke-width="2"><path d="M33.686 18.85c4.481 0 8.114-3.57 8.114-7.975 0-4.404-3.633-7.975-8.114-7.975-.85 0-6.493.678-7.263.917-3.29 1.017-.851 3.489-.851 7.058 0 3.272-2.017 5.748.851 6.978.993.425 6.11.997 7.263.997z" fill="#FFF"/><ellipse fill="#FFF" cx="26.064" cy="10.633" rx="7.376" ry="7.25"/><path d="M18.195 21.267c5.975 0 10.82-4.761 10.82-10.634C29.014 4.761 24.17 0 18.194 0h-8.073c-1.83 3.766-2.746 7.31-2.746 10.633 0 2.966.915 6.51 2.746 10.634h8.073z" fill="#FFF"/><ellipse fill="#FFF" cx="10.819" cy="10.633" rx="10.819" ry="10.633"/><ellipse fill="#FE5" cx="10.819" cy="10.633" rx="7.376" ry="7.25"/></g><path d="M177.074 62.193c74.347 0 152.272-7.651 152.588-35.537.315-27.885-69.57-29.51-167.74-23.045-98.171 6.464-92.76 25.578-92.76 34.11 0 3.82-3.529 10.278-1.765 10.278 1.765 0 8.698-3.007 11.183-2.777 10.756.992 24.147 16.971 98.494 16.971z" stroke="#5A06FF" stroke-linecap="round" stroke-width="3"/></g><text font-family="Gerbera-Medium, Gerbera" font-size="14" font-weight="400" fill="#212121" transform="translate(22 2)"><tspan x="111.423" y="17">&#x423; &#x43C;&#x435;&#x43D;&#x44F; &#x43B;&#x430;&#x43F;&#x43A;&#x438;! &#x44F; &#x43D;&#x435; &#x43C;&#x43E;&#x433;&#x443;((( </tspan> <tspan x="113.88" y="40">&#x410; &#x442;&#x44B; &#x43C;&#x43E;&#x436;&#x435;&#x448;&#x44C; ! &#x411;&#x440;&#x43E;&#x43D;&#x438;&#x440;&#x443;&#x439;!</tspan></text></g></symbol><symbol id="modal-close" viewBox="0 0 86 78"><g fill="none"><path fill="#FF02EC" d="M43.949 77.83c27.954-1.826 40.8-9.38 41.982-37.717C87.113 11.776 72.825-5.375 46.093 1.525 19.361 8.424 3.241 13.149.304 32.438c-2.937 19.29 15.69 47.219 43.645 45.392z" opacity=".113"/><path d="M27 23h32v32H27z"/><path stroke="#FF02EC" stroke-linecap="round" stroke-width="3" d="M28.333 26.333C35.131 32.166 40.02 36.61 43 39.667c2.98 3.056 6.758 7.5 11.333 13.333"/><path stroke="#FF02EC" stroke-linecap="round" stroke-width="3" d="M57.02 31c-6.084 3.216-10.757 6.106-14.02 8.67-3.263 2.563-7.263 6.784-12 12.663"/></g></symbol><symbol id="pdf" viewBox="0 0 65 75"><g fill="none" fill-rule="evenodd"><path fill="#FFF" fill-rule="nonzero" d="M2 0h61v75H2z"/><g fill-rule="nonzero" stroke="#5A06FF" stroke-linecap="round" stroke-width="3"><path d="M11.819 7.03c1.662-2.855 27.057-2.277 31.204-.832 4.147 1.444 10.622 9.106 12.572 14.16 1.95 5.054.113 45.429-1.682 47.265-1.795 1.836-40.104 1.836-42.094 0-1.991-1.836-1.662-57.738 0-60.593z"/><path fill="#5A06FF" d="M42.148 5.955c2.74 0 13.344 12.158 13.344 15.059 0 2.9-11.694 2.65-13.344.426-1.65-2.223-2.74-15.485 0-15.485z"/><path fill="#FFF" d="M3.584 29.1c1.83-3.187 54.538-1.488 57.325 0 2.788 1.488 2.788 20.337 0 21.329-2.787.992-54.948.992-57.325 0-2.377-.992-1.83-18.141 0-21.329z"/></g><text fill="#212121" font-family="Gerbera-Bold, Gerbera" font-size="16" font-weight="bold" transform="translate(2 5)"><tspan x="15" y="40">PDF</tspan></text></g></symbol><symbol id="question-bottom" viewBox="0 0 23 45"><path d="M17.89 38.09c.916.089-.226-1.842-.296-4.49-.07-2.649-1.458-7.24 2.36-14.525 3.817-7.285 4.635-12.637-2.36-16.692-4.41-2.558-13.323-3.484-16.36.194-1.897 2.299 4.59 15.118 5.473 12.63.883-2.488-4.874-8.7 6-7.231 10.875 1.469 1.35 10.675.655 15.264-1.4 9.228 3.354 14.737 4.529 14.85zm2.41 5.958c1.096-.134.919-2.09.787-3.162-.132-1.073-1.127-1.833-2.224-1.699-1.096.135-3.014 2.123-2.882 3.196.132 1.072 3.222 1.8 4.319 1.665z" fill="#FF02EC"/></symbol><symbol id="question-left" viewBox="0 0 29 60"><path d="M5.68 50.616c.97.542.654-2.441 1.877-5.832 1.223-3.39 3.88-7.308 11.685-14.755 7.805-7.446 12.012-15.292 6.257-23.71C21.871 1.01 8.572-1.46 3.403 1.78.173 3.806-.217 18.359 1.982 15.619c2.2-2.74 1.424-12.564 12.746-5.606C26.05 16.97 10.98 24.178 7.957 29.669 1.874 40.71 4.434 49.92 5.68 50.616zm-.14 8.822c1.334.357 2.058-2.043 2.415-3.377a2.5 2.5 0 1 0-4.83-1.294C2.769 56.1 4.208 59.08 5.54 59.438z" fill="#FF02EC"/></symbol><symbol id="question-right" viewBox="0 0 38 90"><g fill="#FF02EC" transform="rotate(15 44.55 -43.124)"><path d="M39 84.376c1.67.416 0-3.873.47-9.376.471-5.503 2.878-12.356 11.577-26.472 8.698-14.116 3.17-37.152-4.3-40.528C38.197 4.137 22.438 6.155 16 13c-4.024 4.278 5.622 26.34 7.816 21.412 2.193-4.928-7.3-19.527 12.442-13.72C56 26.5 41.796 44.02 39.47 53.346 34.794 72.1 36.856 83.84 39 84.375z"/><circle cx="40.5" cy="91.5" r="3.5"/></g></symbol><symbol id="rent-icon" viewBox="0 0 24 24"><title>Group 2</title><g fill="none" fill-rule="evenodd"><rect stroke="#5A06FF" stroke-width="2" x="1" y="1" width="22" height="22" rx="4"/><path fill="#FFF" fill-rule="nonzero" d="M4.8 6.6h14.4v13.8H4.8z"/><path d="M5.129 6.772c.413-.369 3.016-.048 3.271.272.255.32.137 2.805 0 3.006-.137.201-3.278.201-3.433 0-.154-.201-.251-2.908.162-3.278zM10.2 6.772c.172-.229 3.447-.172 3.6 0 .153.173.153 3.139 0 3.278-.153.14-3.428.14-3.6 0-.172-.14-.172-3.048 0-3.278zM15.6 6.862c.28-.256 3.222-.38 3.42 0 .198.38.198 2.941 0 3.188-.198.247-3.14.12-3.42 0-.28-.12-.28-2.932 0-3.188zM15.6 11.775c.142-.28 2.982-.183 3.317.162.334.345.334 3.106 0 3.288-.335.182-3.07.182-3.317 0-.247-.182-.142-3.17 0-3.45zM15.6 16.95c.116-.156 2.952-.345 3.277 0 .325.345.325 3.174 0 3.368-.325.195-2.791 0-3.277-.263-.486-.263-.116-2.95 0-3.105zM10.2 16.95c.342-.156 3.365-.156 3.6 0 .235.156.235 3.197 0 3.368-.235.172-3.258.038-3.6-.145-.342-.182-.342-3.067 0-3.223zM10.2 11.775c.236-.28 3.45-.28 3.6 0 .15.28.15 3.334 0 3.45-.15.116-3.491.116-3.6 0-.109-.116-.236-3.17 0-3.45zM5 11.775c.15-.177 2.973-.28 3.4 0 .427.28.13 3.278 0 3.45-.13.172-2.835.172-3.23 0s-.319-3.273-.17-3.45zM5.157 16.95c.382-.156 3.243-.345 3.243 0s.411 3.287 0 3.368c-.411.082-2.477 0-3-.263-.525-.263-.625-2.95-.243-3.105z" fill="#5A06FF"/><path fill="#5A06FF" fill-rule="nonzero" d="M.6 3.2h22.8v2H.6z"/></g></symbol><symbol id="url" viewBox="0 0 65 75"><g fill="none" fill-rule="evenodd"><path fill="#FFF" fill-rule="nonzero" d="M2 0h61v74.477H2z"/><path stroke="#5A06FF" stroke-linecap="round" stroke-width="3" d="M32.5 63.304c17.56 2.51 26.953-8.764 26.953-26.983C59.453 18.1 46.93 8.01 32.5 9.337 18.07 10.662 5.547 21.418 5.547 36.32c0 14.902 9.392 24.473 26.953 26.983z"/><path fill="#FFF" fill-rule="nonzero" stroke="#5A06FF" stroke-linecap="round" stroke-width="3" d="M3.584 29.446c1.83-3.144 54.538-1.468 57.325 0 2.788 1.468 2.788 20.06 0 21.038-2.787.979-54.948.979-57.325 0-2.377-.978-1.83-17.894 0-21.038z"/><text fill="#212121" font-family="Gerbera-Bold, Gerbera" font-size="16" font-weight="bold" transform="translate(2 9.22)"><tspan x="4" y="36">WWW</tspan></text><path fill="#5A06FF" fill-rule="nonzero" stroke="#5A06FF" stroke-linecap="round" stroke-width="3" d="M44.91 22.698c3.316 1.703 5-.958 5.05-7.981L39.042 9.93c-3.415.361-5.123 1.39-5.123 3.088 0 1.38 3.849 1.616 6.26 3.545 2.038 1.629 2.452 4.965 4.73 6.135zM26.533 54.773c-3.453-1.407-4.528.64-3.224 6.142l13.04 1.888c.149.432.149-.197 0-1.888-.12-1.375-.887-.98-3.458-2.692-2.17-1.445-3.987-2.483-6.358-3.45z"/></g></symbol></svg>