<svg xmlns="http://www.w3.org/2000/svg" width="40" height="40" viewBox="0 0 40 40">
    <g fill="none" fill-rule="nonzero">
        <path fill="#5A06FF" d="M1.818 20C1.818 9.958 6.086 1.97 20 1.818c10.042 0 18.182 3.767 18.182 18.182 0 12.064-3.4 18.182-18.182 18.182C2.208 37.17 1.818 30.042 1.818 20z" opacity=".7"/>
        <path fill="#FFF" d="M8.424 20.052l5.53 2.064 2.14 6.883a.651.651 0 0 0 1.034.312l3.083-2.513a.92.92 0 0 1 1.121-.032l5.56 4.037a.652.652 0 0 0 1.021-.394l4.073-19.591a.652.652 0 0 0-.873-.741L8.417 18.832a.652.652 0 0 0 .007 1.22zm7.326.965l10.807-6.657c.195-.119.394.144.228.298l-8.92 8.292a1.849 1.849 0 0 0-.573 1.106l-.304 2.252c-.04.3-.462.33-.545.04l-1.169-4.107a1.088 1.088 0 0 1 .476-1.224z"/>
    </g>
</svg>
