<svg xmlns="http://www.w3.org/2000/svg" width="40" height="40" viewBox="0 0 40 40">
    <g fill="none" fill-rule="evenodd">
        <path fill="#5A06FF" fill-rule="nonzero" d="M2 20.182C2 10.14 2 2 20.182 2c10.042 0 16.452 4.097 18.182 18.182 0 12.064-3.4 18.182-18.182 18.182C5.4 38.364 2 30.224 2 20.182z" opacity=".7"/>
        <g fill="#FFF">
            <path fill-rule="nonzero" d="M31.445 14.012l-.007-.029c-.577-2.33-3.176-4.832-5.563-5.352l-.027-.006a30.917 30.917 0 0 0-11.638 0l-.027.006c-2.387.52-4.986 3.021-5.564 5.352l-.006.029a22.777 22.777 0 0 0 0 9.812l.006.029c.553 2.231 2.959 4.618 5.257 5.274v2.602c0 .942 1.148 1.405 1.8.725l2.637-2.74c.572.032 1.144.05 1.716.05 1.944 0 3.888-.184 5.819-.553l.027-.005c2.387-.52 4.986-3.022 5.563-5.353l.007-.029a22.778 22.778 0 0 0 0-9.812zm-2.086 9.34c-.385 1.521-2.359 3.412-3.927 3.761-2.053.39-4.123.557-6.19.5a.147.147 0 0 0-.11.044l-1.924 1.976-2.048 2.102a.24.24 0 0 1-.413-.166v-4.31a.149.149 0 0 0-.12-.146h-.002c-1.568-.35-3.541-2.24-3.927-3.76a20.67 20.67 0 0 1 0-8.869c.386-1.52 2.36-3.412 3.927-3.76a28.794 28.794 0 0 1 10.807 0c1.569.348 3.542 2.24 3.927 3.76a20.648 20.648 0 0 1 0 8.868z"/>
            <path d="M23.44 25.342c-.24-.073-.47-.122-.684-.211-2.21-.917-4.246-2.1-5.858-3.915-.917-1.032-1.634-2.197-2.24-3.43-.288-.584-.53-1.191-.778-1.795-.225-.55.107-1.119.456-1.533.328-.39.75-.687 1.207-.907.357-.171.708-.072.969.23.563.653 1.08 1.34 1.499 2.098.257.466.187 1.035-.28 1.352-.114.077-.217.168-.323.255-.092.076-.18.153-.243.256a.703.703 0 0 0-.047.618c.576 1.581 1.546 2.811 3.138 3.474.254.106.51.23.804.195.491-.058.65-.597.995-.878.336-.276.766-.28 1.13-.05.362.23.713.476 1.063.725.343.245.684.484 1 .763.305.267.41.619.239.983-.314.666-.77 1.22-1.429 1.573-.186.1-.408.132-.617.197-.242-.073.21-.065 0 0zM20.035 12.79c2.892.08 5.268 2 5.777 4.86.087.487.118.985.156 1.48.016.208-.101.405-.326.408-.232.003-.336-.191-.351-.4-.03-.41-.05-.824-.107-1.232-.3-2.155-2.018-3.937-4.162-4.32-.323-.058-.653-.073-.98-.107-.207-.022-.477-.034-.523-.291-.039-.215.143-.387.348-.398.056-.003.112 0 .168 0 2.892.08-.056 0 0 0z"/>
            <path d="M24.43 18.488c-.004.036-.007.12-.028.2-.077.291-.517.327-.618.034a.874.874 0 0 1-.035-.28c-.001-.612-.134-1.224-.443-1.757a3.27 3.27 0 0 0-1.372-1.287 3.946 3.946 0 0 0-1.093-.335c-.165-.028-.332-.044-.497-.067-.201-.028-.308-.156-.299-.354.01-.185.145-.318.347-.307.663.038 1.305.181 1.895.494 1.2.635 1.885 1.638 2.085 2.978.01.06.024.12.028.181.012.15.019.301.03.5-.004.036-.011-.199 0 0z"/>
            <path d="M22.631 18.418c-.242.004-.371-.13-.396-.352-.017-.154-.031-.311-.068-.462a1.3 1.3 0 0 0-.48-.752 1.252 1.252 0 0 0-.39-.189c-.178-.051-.362-.037-.54-.08-.192-.048-.298-.203-.268-.384a.348.348 0 0 1 .367-.28c1.121.082 1.923.661 2.037 1.982.008.093.018.191-.003.28-.035.153-.148.23-.259.237-.242.004.11-.008 0 0z"/>
        </g>
    </g>
</svg>
