<?xml version="1.0" encoding="UTF-8"?>
<svg width="37px" height="37px" viewBox="0 0 37 37" version="1.1" xmlns="http://www.w3.org/2000/svg" xmlns:xlink="http://www.w3.org/1999/xlink">
    <!-- Generator: Sketch 52.4 (67378) - http://www.bohemiancoding.com/sketch -->
    <title>facebook-logo-in-circular-button-outlined-social-symbol</title>
    <desc>Created with Sketch.</desc>
    <g id="Page-1" stroke="none" stroke-width="1" fill="none" fill-rule="evenodd">
        <g id="Artboard" transform="translate(-1354.000000, -1062.000000)">
            <g id="facebook-logo-in-circular-button-outlined-social-symbol-copy-10" transform="translate(1352.000000, 1060.000000)">
                <path d="M2,20.181857 C2,10.140027 7.27582421,1.98288243 20.1818301,2.00002698 C30.2236601,2.00002698 38.8519961,5.07785314 38.3636601,20.181857 C35.9481875,35.6130094 34.9638125,38.3636871 20.1818301,38.3636871 C5.39984764,38.3636871 2,30.2236871 2,20.181857 Z" id="Shape" fill-opacity="0.7" fill="#5A06FF" fill-rule="nonzero"></path>
                <g id="vk-social-network-logo" stroke-width="1" fill-rule="evenodd" transform="translate(8.000000, 13.000000)" fill="#FFFFFF">
                    <path d="M23.8448525,12.384612 C23.8158251,12.3220546 23.788765,12.2701639 23.7636284,12.2285902 C23.3477158,11.4795191 22.552918,10.5600874 21.3797158,9.47003279 L21.354929,9.44507104 L21.3425137,9.4328306 L21.3299672,9.42028415 L21.317377,9.42028415 C20.784918,8.91269945 20.4477377,8.57140984 20.3065355,8.3966776 C20.0481749,8.06382514 19.9902951,7.7269071 20.1314973,7.38553005 C20.2312568,7.12760656 20.6059891,6.5829071 21.2548197,5.75068852 C21.5961093,5.30963934 21.8664044,4.95615301 22.0660109,4.68983607 C23.5056175,2.77595628 24.1297486,1.55296175 23.9382732,1.02037158 L23.8639126,0.895912568 C23.8139454,0.820983607 23.6849836,0.752437158 23.4772022,0.689923497 C23.2689399,0.627540984 23.0027541,0.617224044 22.6781639,0.658797814 L19.0836721,0.683628415 C19.0254426,0.662994536 18.9422951,0.664918033 18.8339672,0.689923497 C18.7257705,0.714928962 18.6716503,0.72747541 18.6716503,0.72747541 L18.6090929,0.75873224 L18.5594317,0.796284153 C18.5178142,0.821114754 18.4720437,0.864786885 18.4220765,0.927213115 C18.3723716,0.989420765 18.3307978,1.06242623 18.2975738,1.14561749 C17.9062295,2.15243716 17.4612896,3.08852459 16.9619235,3.95383607 C16.6540328,4.46981421 16.3712787,4.91698361 16.1130492,5.29560656 C15.8551694,5.67409836 15.6388197,5.95296175 15.4642186,6.13171585 C15.2893552,6.31064481 15.131541,6.45398907 14.9898142,6.56227322 C14.848306,6.67060109 14.7402842,6.71637158 14.6654863,6.69962842 C14.5905137,6.68288525 14.5199126,6.66627322 14.453071,6.6496612 C14.3366557,6.57473224 14.2430164,6.4728306 14.1724153,6.34386885 C14.1015082,6.2149071 14.0537705,6.05259016 14.0288087,5.85704918 C14.0039781,5.66137705 13.9892896,5.49307104 13.9850929,5.35156284 C13.9812022,5.21022951 13.9829945,5.01031694 13.9914317,4.75239344 C14.0000874,4.4943388 14.0039781,4.3197377 14.0039781,4.22819672 C14.0039781,3.91195628 14.0101421,3.56874317 14.0225137,3.19846995 C14.0351038,2.82819672 14.0452896,2.53481967 14.0538142,2.31868852 C14.0622951,2.1023388 14.0662295,1.87344262 14.0662295,1.63213115 C14.0662295,1.39081967 14.051541,1.20157377 14.0225137,1.06421858 C13.9938361,0.927038251 13.9498142,0.793879781 13.8918033,0.664786885 C13.8334426,0.535825137 13.7480219,0.436065574 13.6359344,0.365245902 C13.5236284,0.294513661 13.384,0.238382514 13.2178361,0.196677596 C12.7767869,0.0968743169 12.2151694,0.0428852459 11.5327213,0.0344918033 C9.98513661,0.0178797814 8.99073224,0.117814208 8.54972678,0.334163934 C8.37499454,0.42557377 8.21687432,0.550469945 8.07549727,0.708459016 C7.92568306,0.891584699 7.90478689,0.991519126 8.01293989,1.00795628 C8.5122623,1.0827541 8.86574863,1.26168306 9.07379235,1.54456831 L9.14876503,1.69446995 C9.20708197,1.80262295 9.26531148,1.99409836 9.3235847,2.26863388 C9.38177049,2.5431694 9.4193224,2.84686339 9.43584699,3.17954098 C9.47737705,3.78706011 9.47737705,4.30710383 9.43584699,4.73971585 C9.39418579,5.17250273 9.35484153,5.50942077 9.31728962,5.75073224 C9.2797377,5.99204372 9.22360656,6.1875847 9.14876503,6.33731148 C9.07379235,6.48708197 9.02391257,6.57862295 8.9989071,6.61184699 C8.97394536,6.64507104 8.95313661,6.66601093 8.93661202,6.67422951 C8.82845902,6.71567213 8.71597814,6.73678689 8.59956284,6.73678689 C8.48297268,6.73678689 8.34159563,6.67846995 8.17521311,6.5619235 C8.00887432,6.44537705 7.83624044,6.28528962 7.65731148,6.08139891 C7.47838251,5.87746448 7.27659016,5.59248087 7.05184699,5.22640437 C6.82727869,4.86032787 6.59427322,4.42767213 6.35296175,3.92843716 L6.15331148,3.56638251 C6.02850273,3.33346448 5.85801093,2.99431694 5.6416612,2.5492459 C5.42518033,2.104 5.23383607,1.67331148 5.06749727,1.25726776 C5.00100546,1.08253552 4.90111475,0.949508197 4.768,0.857967213 L4.70553005,0.820415301 C4.664,0.787191257 4.59733333,0.751912568 4.50587978,0.71431694 C4.41429508,0.676765027 4.31873224,0.649836066 4.21879781,0.63326776 L0.79895082,0.658098361 C0.449486339,0.658098361 0.212371585,0.73726776 0.0875191257,0.895387978 L0.0375519126,0.970185792 C0.0125901639,1.01184699 0,1.07838251 0,1.16996721 C0,1.2615082 0.0249617486,1.37385792 0.0749289617,1.50688525 C0.574163934,2.68021858 1.11707104,3.81180328 1.70365027,4.90181421 C2.29022951,5.99182514 2.79995628,6.86985792 3.23252459,7.53512568 C3.66518033,8.20087432 4.10618579,8.82920219 4.55554098,9.41980328 C5.00489617,10.010623 5.3023388,10.3892459 5.44786885,10.5555847 C5.59357377,10.7222295 5.70802186,10.8468197 5.79121311,10.9300109 L6.10330055,11.2295082 C6.30299454,11.4292459 6.59624044,11.668459 6.9831694,11.9471475 C7.37018579,12.2260109 7.79864481,12.5005464 8.26876503,12.7711913 C8.73897268,13.0413989 9.28598907,13.2619016 9.91012022,13.4324372 C10.5341639,13.6031475 11.1415519,13.6716503 11.7323716,13.6386011 L13.1677377,13.6386011 C13.4588415,13.6134645 13.679388,13.5219235 13.8292896,13.3639344 L13.8789508,13.301377 C13.9123497,13.2517158 13.9436066,13.1745574 13.972459,13.0707322 C14.0016612,12.9667322 14.0161749,12.852153 14.0161749,12.7275191 C14.0076503,12.3697923 14.0348852,12.047388 14.0971366,11.7603497 C14.1593443,11.4733989 14.2302514,11.2570492 14.3095519,11.1113443 C14.3888087,10.9657705 14.4782514,10.842929 14.5777923,10.7433443 C14.6775519,10.643541 14.7486339,10.583082 14.7903388,10.5622732 C14.8317814,10.5413333 14.8648743,10.5271257 14.8898361,10.5186011 C15.0895301,10.4520656 15.3245464,10.5165027 15.595235,10.7122186 C15.8657049,10.9077596 16.119388,11.1492022 16.3566776,11.436153 C16.5938361,11.7233661 16.878776,12.0455956 17.211541,12.4033224 C17.5445246,12.7611803 17.8356721,13.0271913 18.0852022,13.2021858 L18.3347322,13.3519563 C18.501377,13.4518907 18.7177268,13.5434317 18.9840437,13.626623 C19.2498798,13.7097705 19.4827978,13.7305792 19.6827978,13.6890055 L22.8778579,13.6391694 C23.1938798,13.6391694 23.4397814,13.5868415 23.6142077,13.4830164 C23.7889836,13.3790164 23.8928087,13.2644372 23.9262951,13.1398033 C23.959694,13.0150383 23.9614863,12.8734863 23.9326339,12.715235 C23.9030383,12.557377 23.8738798,12.4469945 23.8448525,12.384612 Z" id="Path"></path>
                </g>
            </g>
        </g>
    </g>
</svg>