<svg xmlns="http://www.w3.org/2000/svg" width="40" height="40" viewBox="0 0 40 40">
    <g fill="none" fill-rule="evenodd">
        <path fill="#FFF" d="M0 0h40v40H0z"/>
        <path stroke="#02EBCD" stroke-width="2" d="M20.62 37.453C31.664 38.781 38.06 31.278 38.06 20.33c0-9.13-8.467-17.657-17.561-17.657-9.323 0-17.835 7.88-17.835 16.795 0 9.913 6.109 16.563 17.954 17.986z"/>
        <path fill="#FFF" fill-rule="nonzero" stroke="#02EBCD" stroke-linecap="round" stroke-width="2" d="M32.36 16.362c-14.233-.483-22.133-.483-23.7 0-2.35.724 2.258 11.07 3.239 11.771.92.658 13.36 1.482 15.735.17 2.375-1.311 7.076-13.082 4.725-11.796"/>
        <path stroke="#02EBCD" stroke-linecap="round" stroke-width="2" d="M23 16c-2.26-3.333-3.61-5-4.047-5-.436 0-2.088 1.667-4.953 5"/>
    </g>
</svg>
