<?xml version="1.0" encoding="UTF-8"?>
<svg width="377px" height="457px" viewBox="0 0 377 457" version="1.1" xmlns="http://www.w3.org/2000/svg" xmlns:xlink="http://www.w3.org/1999/xlink">
    <!-- Generator: Sketch 52.4 (67378) - http://www.bohemiancoding.com/sketch -->
    <title>Group 10</title>
    <desc>Created with Sketch.</desc>
    <g id="Page-1" stroke="none" stroke-width="1" fill="none" fill-rule="evenodd">
        <g id="Artboard-Copy-2" transform="translate(-462.000000, -622.000000)">
            <g id="Group-10" transform="translate(462.000000, 624.000000)">
                <path d="M376.23016,454.716022 L376.864608,70.873718 C309.131187,66.0746497 256.926864,62.6739023 220.251637,60.6714757 C168.824137,57.8635915 95.4069247,58.5933957 -2.27373675e-13,62.8608885 L1.09240891,454.716022 L376.23016,454.716022 Z" id="Oval-65" fill="#04EBCD" fill-rule="nonzero" opacity="0.115680804"></path>
                <g id="Group-5" transform="translate(22.000000, 0.000000)">
                    <g id="Group-7" fill-rule="nonzero">
                        <path d="M95.2016327,132.733333 C117.954863,132.733333 136.4,128.13679 136.4,122.466667 C136.4,116.796543 76.1997606,112.2 53.4465306,112.2 C30.6933006,112.2 0,115.857586 0,121.527709 C0,127.197832 72.4484027,132.733333 95.2016327,132.733333 Z" id="Oval-79" fill="#030303" opacity="0.102287946"></path>
                        <path d="M60.398198,78.4666667 C61.7714026,79.2304775 66.1271233,80.1363535 73.4653601,81.1842946 C84.4727153,82.7562062 83.1301141,89.1509764 79.5741954,89.1509764 C77.6124773,89.1509764 70.2326187,91.0076462 58.9598378,89.7808445 C57.3933958,89.6103707 55.0956721,88.5046534 52.0666667,86.4636925" id="Rectangle-106-Copy" stroke="#5A06FF" stroke-width="2" fill="#FFFFFF" stroke-linecap="round"></path>
                        <path d="M25.8020191,125.4 C36.6493299,125.4 53.5607615,114.791307 57.2162178,103.539402 C58.3266316,100.121423 59.6538229,95.5038781 60.6208329,90.7494727 C61.6068753,85.9014926 69.7086507,77.1885103 67.9514498,67.8405839 C66.3467735,59.3040548 54.942299,49.8666667 54.2896191,49.8666667 C53.3780211,49.8666667 52.8743114,52.0272159 52.77849,56.3483144 C51.5120939,56.3483144 49.3122486,56.6521341 46.1789541,57.2597736 C43.0456596,57.867413 40.3170163,59.1493528 37.993024,61.1055929 C33.8910244,57.3299598 31.3930321,55.4421432 30.4990473,55.4421432 C25.5319228,55.4421432 30.0138124,70.4220276 25.8020191,73.21752 C16.7303887,79.2386309 5.89597543,85.9893525 3.71535224,95.4699113 C-0.75927973,114.923988 14.9547083,125.4 25.8020191,125.4 Z" id="Oval-76" stroke="#5A06FF" stroke-width="2" fill="#FFFFFF" stroke-linecap="round"></path>
                        <path d="M37.9944348,117.333333 C38.3744279,112.099878 37.9747436,108.586498 36.7953819,106.793193 C35.6160201,104.999889 32.6397817,103.379936 27.8666667,101.933333" id="Line-51" stroke="#5A06FF" stroke-width="2" fill="#FFFFFF" stroke-linecap="round"></path>
                        <path d="M28.0450105,57.9333333 C31.8372257,61.0685862 33.7333333,62.8792967 33.7333333,63.365465 C33.7333333,64.0947173 28.9217036,66.6329059 27.1333333,68.9333333" id="Line-50" fill="#5A06FF"></path>
                        <ellipse id="Oval-77" stroke="#5A06FF" stroke-width="2" fill="#FFFFFF" stroke-linecap="round" cx="39.2333333" cy="70.4" rx="5.5" ry="5.13333333"></ellipse>
                        <circle id="Oval-78" fill="#212121" cx="39.9666667" cy="71.5" r="1.83333333"></circle>
                        <ellipse id="Oval-77-Copy" stroke="#5A06FF" stroke-width="2" fill="#FFFFFF" stroke-linecap="round" cx="56.1" cy="66.7333333" rx="5.5" ry="5.13333333"></ellipse>
                        <path d="M49.5781421,77 C50.3501215,77 50.6,74.5187566 50.6,73.6088488 C50.6,72.698941 46.9333333,74.2580362 46.9333333,75.167944 C46.9333333,76.0778518 48.8061626,77 49.5781421,77 Z" id="Oval-77-Copy-2" fill="#5A06FF"></path>
                        <path d="M54.2666667,78.0094429 C52.3267073,76.5052126 50.8037881,75.9747341 49.6979089,76.4180076 C48.5920297,76.861281 47.914949,78.0330563 47.6666667,79.9333333" id="Line-48" stroke="#5A06FF" stroke-width="2" fill="#FFFFFF" stroke-linecap="round"></path>
                        <path d="M55.7559273,51.3333333 C55.2519758,55.2366444 55,57.5330492 55,58.2225476 C55,59.2567953 62.44199,58.5331585 63.8,60.1333333" id="Line-49" fill="#5A06FF"></path>
                        <circle id="Oval-78-Copy" fill="#212121" cx="56.1" cy="67.1" r="1.83333333"></circle>
                        <path d="M24.9333333,116.976397 C38.7333552,115.496757 48.798908,115.496757 55.1299917,116.976397 C64.6266174,119.195858 61.8075831,125.4 58.3576858,125.4 C56.0577542,125.4 44.9163034,125.4 24.9333333,125.4" id="Rectangle-106" stroke="#5A06FF" stroke-width="2" fill="#FFFFFF" stroke-linecap="round"></path>
                        <path d="M54.5315313,85.0666667 C55.9047359,85.8304775 60.2604566,86.7363535 67.5986934,87.7842946 C78.6060486,89.3562062 77.2634475,95.7509764 73.7075288,95.7509764 C71.7458106,95.7509764 64.365952,97.6076462 53.0931711,96.3808445 C51.5267292,96.2103707 49.2290055,95.1046534 46.2,93.0636925" id="Rectangle-106" stroke="#5A06FF" stroke-width="2" fill="#FFFFFF" stroke-linecap="round"></path>
                        <g id="Group-4" transform="translate(84.333333, 85.066667)" stroke="#5A06FF" stroke-linecap="round" stroke-width="2">
                            <ellipse id="Oval-80-Copy-4" fill="#FFFFFF" cx="22.9196721" cy="10.3916667" rx="7.14699454" ry="7.00833333"></ellipse>
                            <ellipse id="Oval-80-Copy-2" fill="#FFFFFF" cx="15.2797814" cy="10.6333333" rx="10.8437158" ry="10.6333333"></ellipse>
                            <ellipse id="Oval-80-Copy-3" fill="#FFFFFF" cx="10.8437158" cy="10.6333333" rx="10.8437158" ry="10.6333333"></ellipse>
                            <ellipse id="Oval-80-Copy-3" fill="#FFEE55" cx="10.8437158" cy="10.6333333" rx="6.40765027" ry="6.28333333"></ellipse>
                        </g>
                        <g id="Group-4-Copy" transform="translate(71.866667, 105.600000)" stroke="#5A06FF" stroke-linecap="round" stroke-width="2">
                            <ellipse id="Oval-80-Copy-2" fill="#FFFFFF" cx="15.0125786" cy="10.6333333" rx="10.6540881" ry="10.6333333"></ellipse>
                            <ellipse id="Oval-80-Copy-3" fill="#FFFFFF" cx="10.6540881" cy="10.6333333" rx="10.6540881" ry="10.6333333"></ellipse>
                            <ellipse id="Oval-80-Copy-3" fill="#FFEE55" cx="10.6540881" cy="10.6333333" rx="6.77987421" ry="6.76666667"></ellipse>
                        </g>
                        <g id="Group-4-Copy-2" transform="translate(94.600000, 104.866667)" stroke="#5A06FF" stroke-linecap="round" stroke-width="2">
                            <path d="M33.6858824,18.85 C38.1671858,18.85 41.8,15.2794709 41.8,10.875 C41.8,6.47052912 38.1671858,2.9 33.6858824,2.9 C32.8360292,2.9 27.1930593,3.57847153 26.4232284,3.81663411 C23.133716,4.8343106 25.5717647,7.30581144 25.5717647,10.875 C25.5717647,14.1468844 23.555194,16.6229801 26.4232284,17.852653 C27.4160193,18.2783132 32.5335387,18.85 33.6858824,18.85 Z" id="Oval-80-Copy-5" fill="#FFFFFF"></path>
                            <ellipse id="Oval-80-Copy-3" fill="#FFFFFF" cx="26.0635294" cy="10.6333333" rx="7.37647059" ry="7.25"></ellipse>
                            <path d="M18.1952941,21.2666667 C24.1703654,21.2666667 29.0141176,16.5059612 29.0141176,10.6333333 C29.0141176,4.76070549 24.1703654,4.46457686e-14 18.1952941,4.46457686e-14 C17.5932595,4.46457686e-14 14.9020003,4.46457686e-14 10.1215165,4.46457686e-14 C8.29148591,3.76551628 7.37647059,7.30996072 7.37647059,10.6333333 C7.37647059,13.5987012 8.29148591,17.1431457 10.1215165,21.2666667 C14.5377505,21.2666667 17.2290097,21.2666667 18.1952941,21.2666667 Z" id="Oval-80-Copy-2" fill="#FFFFFF"></path>
                            <ellipse id="Oval-80-Copy-3" fill="#FFFFFF" cx="10.8188235" cy="10.6333333" rx="10.8188235" ry="10.6333333"></ellipse>
                            <ellipse id="Oval-80-Copy-3" fill="#FFEE55" cx="10.8188235" cy="10.6333333" rx="7.37647059" ry="7.25"></ellipse>
                        </g>
                        <g id="Group-82" transform="translate(66.733333, 0.000000)" stroke="#5A06FF" stroke-linecap="round" stroke-width="3">
                            <path d="M110.340762,62.1930485 C184.687442,62.1930485 262.612598,54.5416667 262.928327,26.6564155 C263.244056,-1.22883561 193.358232,-2.85359356 95.18787,3.61088095 C-2.9824922,10.0753555 2.42824789,29.1892658 2.42824789,37.7209367 C2.42824789,41.5412269 -1.10015156,47.9986928 0.664048167,47.9986928 C2.42824789,47.9986928 9.36172366,44.9924806 11.846222,45.2217004 C22.6029705,46.214118 35.9940821,62.1930485 110.340762,62.1930485 Z" id="Oval-70"></path>
                        </g>
                    </g>
                    <text id="У-меня-лапки!-я-не-м" font-family="Gerbera-Medium, Gerbera" font-size="14" font-weight="400" line-spacing="23" fill="#212121">
                        <tspan x="111.423" y="17">У меня лапки! я не могу((( </tspan>
                        <tspan x="113.88" y="40">А ты можешь ! Бронируй!</tspan>
                    </text>
                </g>
            </g>
        </g>
    </g>
</svg>