<svg xmlns="http://www.w3.org/2000/svg" width="23" height="45" viewBox="0 0 23 45">
    <g fill="#FF02EC" fill-rule="nonzero">
        <path d="M17.89 38.09c.916.089-.226-1.842-.296-4.49-.07-2.649-1.458-7.24 2.36-14.525 3.817-7.285 4.635-12.637-2.36-16.692-4.41-2.558-13.323-3.484-16.36.194-1.897 2.299 4.59 15.118 5.473 12.63.883-2.488-4.874-8.7 6-7.231 10.875 1.469 1.35 10.675.655 15.264-1.4 9.228 3.354 14.737 4.529 14.85zM20.3 44.048c1.096-.134.919-2.09.787-3.162-.132-1.073-1.127-1.833-2.224-1.699-1.096.135-3.014 2.123-2.882 3.196.132 1.072 3.222 1.8 4.319 1.665z"/>
    </g>
</svg>
