<svg xmlns="http://www.w3.org/2000/svg" width="29" height="60" viewBox="0 0 29 60">
    <g fill="#FF02EC" fill-rule="nonzero">
        <path d="M5.68 50.616c.97.542.654-2.441 1.877-5.832 1.223-3.39 3.88-7.308 11.685-14.755 7.805-7.446 12.012-15.292 6.257-23.71C21.871 1.01 8.572-1.46 3.403 1.78.173 3.806-.217 18.359 1.982 15.619c2.2-2.74 1.424-12.564 12.746-5.606C26.05 16.97 10.98 24.178 7.957 29.669 1.874 40.71 4.434 49.92 5.68 50.616zM5.54 59.438c1.334.357 2.058-2.043 2.415-3.377a2.5 2.5 0 1 0-4.83-1.294C2.769 56.1 4.208 59.08 5.54 59.438z"/>
    </g>
</svg>
