<?xml version="1.0" encoding="UTF-8"?>
<svg width="24px" height="24px" viewBox="0 0 24 24" version="1.1" xmlns="http://www.w3.org/2000/svg" xmlns:xlink="http://www.w3.org/1999/xlink">
    <!-- Generator: Sketch 52.4 (67378) - http://www.bohemiancoding.com/sketch -->
    <title>Group 2</title>
    <desc>Created with Sketch.</desc>
    <g id="Page-1" stroke="none" stroke-width="1" fill="none" fill-rule="evenodd">
        <g id="Artboard-Copy" transform="translate(-1194.000000, -115.000000)">
            <g id="Group-2" transform="translate(1194.000000, 115.000000)">
                <rect id="Rectangle" stroke="#5A06FF" stroke-width="2" fill-rule="nonzero" x="1" y="1" width="22" height="22" rx="4"></rect>
                <g id="Group-19" transform="translate(4.800000, 6.600000)">
                    <rect id="Rectangle-Copy-18" fill="#FFFFFF" fill-rule="nonzero" x="0" y="0" width="14.4" height="13.8"></rect>
                    <path d="M0.328992187,0.1725 C0.742148437,-0.196892578 3.34469531,0.124051758 3.6,0.443648438 C3.85530469,0.763245117 3.73717969,3.24899707 3.6,3.45 C3.46282031,3.65100293 0.321820312,3.65100293 0.167203125,3.45 C0.0125859375,3.24899707 -0.0841640625,0.541892578 0.328992187,0.1725 Z" id="Rectangle-Copy-3" fill="#5A06FF"></path>
                    <path d="M5.4,0.1725 C5.57170313,-0.0567363281 8.84742188,-7.89403265e-14 9,0.1725 C9.15257813,0.345 9.15257813,3.31058496 9,3.45 C8.84742188,3.58941504 5.57170313,3.58941504 5.4,3.45 C5.22829688,3.31058496 5.22829688,0.401736328 5.4,0.1725 Z" id="Rectangle-Copy-6" fill="#5A06FF"></path>
                    <path d="M10.8,0.261849609 C11.0806172,0.0059296875 14.0224922,-0.117380859 14.2200703,0.261849609 C14.4176484,0.641080078 14.4176484,3.20297461 14.2200703,3.45 C14.0224922,3.69702539 11.0806172,3.57007617 10.8,3.45 C10.5193828,3.32992383 10.5193828,0.517769531 10.8,0.261849609 Z" id="Rectangle-Copy-7" fill="#5A06FF"></path>
                    <path d="M10.8,5.175 C10.9415391,4.89433273 13.782375,4.99205566 14.1169219,5.33705566 C14.4514687,5.68205566 14.4514687,8.44266211 14.1169219,8.625 C13.782375,8.80733789 11.0466562,8.80733789 10.8,8.625 C10.5533437,8.44266211 10.6584609,5.45566727 10.8,5.175 Z" id="Rectangle-Copy-8" fill="#5A06FF"></path>
                    <path d="M10.8,10.35 C10.9163672,10.1944566 13.7519824,10.005 14.0770898,10.35 C14.4021973,10.695 14.4021973,13.523562 14.0770898,13.7184668 C13.7519824,13.9133716 11.2856836,13.7184668 10.8,13.455 C10.3143164,13.1915332 10.6836328,10.5055434 10.8,10.35 Z" id="Rectangle-Copy-19" fill="#5A06FF"></path>
                    <path d="M5.4,10.35 C5.74242187,10.1944566 8.76498047,10.1944566 9,10.35 C9.23501953,10.5055434 9.23501953,13.5466406 9,13.7184668 C8.76498047,13.890293 5.74242188,13.75578 5.4,13.5732568 C5.05757813,13.3907336 5.05757813,10.5055434 5.4,10.35 Z" id="Rectangle-Copy-20" fill="#5A06FF"></path>
                    <path d="M5.4,5.175 C5.6356875,4.89433273 8.84925,4.89433273 9,5.175 C9.15075,5.45566727 9.15075,8.5085625 9,8.625 C8.84925,8.7414375 5.50891406,8.7414375 5.4,8.625 C5.29108594,8.5085625 5.1643125,5.45566727 5.4,5.175 Z" id="Rectangle-Copy-21" fill="#5A06FF"></path>
                    <path d="M0.20053125,5.175 C0.350015625,4.99845703 3.17257031,4.89433273 3.6,5.175 C4.02742969,5.45566727 3.73007812,8.4529043 3.6,8.625 C3.46992188,8.7970957 0.765140625,8.7970957 0.370265625,8.625 C-0.024609375,8.4529043 0.051046875,5.35154297 0.20053125,5.175 Z" id="Rectangle-Copy-4" fill="#5A06FF"></path>
                    <path d="M0.356835937,10.35 C0.738632812,10.1944566 3.6,10.005 3.6,10.35 C3.6,10.695 4.01097656,13.6369336 3.6,13.7184668 C3.18902344,13.8 1.12306641,13.7184668 0.599238281,13.455 C0.0754101562,13.1915332 -0.0249609375,10.5055434 0.356835937,10.35 Z" id="Rectangle-Copy-5" fill="#5A06FF"></path>
                </g>
                <rect id="Rectangle" fill="#5A06FF" fill-rule="nonzero" x="0.6" y="3.2" width="22.8" height="2"></rect>
            </g>
        </g>
    </g>
</svg>