<svg xmlns="http://www.w3.org/2000/svg" width="24" height="24" viewBox="0 0 24 24" fill="none">
    <path fill="currentColor" fill-rule="evenodd" d="M24 12.003a.706.706 0 0 1-1.414 0c0-5.85-4.746-10.59-10.601-10.59a.706.706 0 1 1 0-1.413C18.621 0 24 5.374 24 12.003zm-4.24 0a.706.706 0 0 1-1.414 0 6.358 6.358 0 0 0-6.361-6.355.706.706 0 1 1 0-1.412c4.294 0 7.774 3.478 7.774 7.767zm.341 8.891l-2.376 2.373c-2.12 2.118-8.913-.666-12.62-4.368C1.4 15.197-1.385 8.41.735 6.293l2.375-2.374a1.649 1.649 0 0 1 2.469.127l3.15 3.848a1.9 1.9 0 0 1-.122 2.517L7.105 11.91c-.19.19-.241.581-.108.803a8.244 8.244 0 0 0 .446.742c.375.555.844 1.132 1.411 1.7a11.575 11.575 0 0 0 1.703 1.41 8.296 8.296 0 0 0 .692.42c.273.155.666.104.853-.082l1.501-1.5a1.906 1.906 0 0 1 2.52-.123l3.851 3.148c.778.636.837 1.757.127 2.466zM6.105 10.911l1.501-1.499a.49.49 0 0 0 .029-.624L4.484 4.94c-.108-.13-.259-.139-.375-.022L1.733 7.29c-1.33 1.328 1.165 7.406 4.372 10.61 3.207 3.203 9.292 5.696 10.62 4.368l2.376-2.373c.118-.118.11-.267-.022-.375l-3.851-3.148a.493.493 0 0 0-.625.029L13.102 17.9c-.634.634-1.715.78-2.496.34a8.011 8.011 0 0 1-.84-.505 12.981 12.981 0 0 1-1.911-1.583 12.969 12.969 0 0 1-1.584-1.908 8.004 8.004 0 0 1-.503-.833c-.45-.78-.3-1.864.337-2.5z"/>
</svg>
