<svg xmlns="http://www.w3.org/2000/svg" width="32" height="19" viewBox="0 0 32 19">
    <path fill-rule="nonzero" d="M31.866 9.016C28.568 3.475 22.507 0 16 0S3.387 3.43.134 9.016a.942.942 0 0 0 0 .968C3.432 15.525 9.493 19 16 19s12.613-3.43 15.866-9.016a.942.942 0 0 0 0-.968zM16 2.42c3.209 0 5.838 2.595 5.838 5.762 0 3.166-2.63 5.761-5.838 5.761-3.209 0-5.838-2.595-5.838-5.761 0-3.167 2.63-5.762 5.838-5.762zm0 14.69c-5.66 0-10.964-2.903-13.95-7.609 2.006-3.123 4.947-5.41 8.379-6.641-1.337 1.363-2.184 3.254-2.184 5.278 0 4.222 3.476 7.652 7.755 7.652s7.755-3.43 7.755-7.608c0-2.068-.847-3.915-2.184-5.278 3.432 1.231 6.418 3.518 8.379 6.641-2.986 4.662-8.29 7.565-13.95 7.565z"/>
</svg>
