<svg xmlns="http://www.w3.org/2000/svg" width="26" height="26" viewBox="0 0 26 26">
    <path fill="#000" fill-rule="nonzero" d="M13 26c7.18 0 13-5.82 13-13S20.18 0 13 0 0 5.82 0 13s5.82 13 13 13zM7.264 6.873v4.422c.673-.802 1.48-1.207 2.416-1.207.482 0 .914.093 1.3.276.39.182.68.414.876.697.197.285.33.598.402.942.072.343.107.876.107 1.6v4.728h-2.092v-4.259c0-.845-.038-1.38-.117-1.607-.08-.23-.22-.41-.42-.542-.201-.136-.452-.203-.755-.203-.347 0-.658.087-.927.26-.277.173-.476.431-.601.777-.128.347-.192.858-.189 1.536l-.003 4.038h-2.09V6.874h2.093v-.001zm8.237 0v4.422c.674-.802 1.48-1.207 2.416-1.207.48 0 .914.093 1.303.276.387.182.677.414.872.697.198.285.331.598.402.942.072.343.109.876.109 1.6v4.728h-2.091v-4.259c0-.845-.039-1.38-.119-1.607-.08-.23-.219-.41-.42-.542-.2-.136-.452-.203-.755-.203a1.69 1.69 0 0 0-.928.26c-.273.173-.472.431-.6.777-.126.347-.189.858-.189 1.536v4.038h-2.09V6.874h2.09v-.001z"/>
</svg>
