<svg xmlns="http://www.w3.org/2000/svg" width="24" height="24" viewBox="0 0 24 24">
    <g fill-rule="nonzero">
        <rect width="24" height="23.998" y=".001" rx="3" transform="matrix(-1 0 0 1 24 0)"/>
        <path fill="#FFF" d="M7.679 20.142V9.236H4.054v10.906H7.68zM5.867 7.746c1.264 0 2.051-.837 2.051-1.884-.024-1.07-.787-1.884-2.027-1.884-1.24 0-2.05.814-2.05 1.884 0 1.047.786 1.884 2.002 1.884h.024zM9.685 20.142h3.625v-6.09c0-.326.024-.652.12-.885.262-.651.858-1.326 1.86-1.326 1.311 0 1.836 1 1.836 2.466v5.835h3.625v-6.253c0-3.35-1.789-4.91-4.174-4.91-1.955 0-2.814 1.094-3.29 1.838h.023V9.236H9.686c.047 1.023 0 10.906 0 10.906z"/>
    </g>
</svg>
