<svg id="Слой_1" data-name="Слой 1" xmlns="http://www.w3.org/2000/svg" xmlns:xlink="http://www.w3.org/1999/xlink" viewBox="0 0 327.89 61.96"><defs><style>.cls-1{fill:url(#Безымянный_градиент_13);}.cls-2{fill:url(#Безымянный_градиент_13-2);}.cls-3{fill:url(#Безымянный_градиент_13-3);}.cls-4{fill:url(#Безымянный_градиент_13-4);}.cls-5{fill:url(#Безымянный_градиент_13-5);}.cls-6{fill:url(#Безымянный_градиент_13-6);}.cls-7{fill:url(#Безымянный_градиент_13-7);}.cls-8{fill:url(#Безымянный_градиент_13-8);}.cls-9{fill:url(#Безымянный_градиент_13-9);}.cls-10{fill:url(#Безымянный_градиент_13-10);}.cls-11{fill:url(#Безымянный_градиент_13-11);}.cls-12{fill:url(#Безымянный_градиент_13-12);}.cls-13{fill:url(#Безымянный_градиент_13-13);}</style><linearGradient id="Безымянный_градиент_13" x1="161.23" y1="-58.68" x2="161.23" y2="-44.53" gradientTransform="matrix(1, 0, 0, -1, -39.36, 3.28)" gradientUnits="userSpaceOnUse"><stop offset="0.72" stop-color="#00a2df"/><stop offset="0.81" stop-color="#009fda"/><stop offset="0.92" stop-color="#0095cc"/><stop offset="1" stop-color="#008bbe"/></linearGradient><linearGradient id="Безымянный_градиент_13-2" x1="161.23" y1="-10.87" x2="161.23" y2="3.28" xlink:href="#Безымянный_градиент_13"/><linearGradient id="Безымянный_градиент_13-3" x1="330.14" y1="-58.68" x2="330.14" y2="-44.53" xlink:href="#Безымянный_градиент_13"/><linearGradient id="Безымянный_градиент_13-4" x1="330.14" y1="-34.78" x2="330.14" y2="-20.62" xlink:href="#Безымянный_градиент_13"/><linearGradient id="Безымянный_градиент_13-5" x1="324.37" y1="-10.87" x2="324.37" y2="3.28" xlink:href="#Безымянный_градиент_13"/><linearGradient id="Безымянный_градиент_13-6" x1="100.74" y1="25.95" x2="100.74" y2="40.1" gradientTransform="matrix(1, 0, 0, -1, 0, 64)" xlink:href="#Безымянный_градиент_13"/><linearGradient id="Безымянный_градиент_13-7" x1="76.47" y1="-10.87" x2="76.47" y2="3.28" xlink:href="#Безымянный_градиент_13"/><linearGradient id="Безымянный_градиент_13-8" x1="76.47" y1="-58.68" x2="76.47" y2="-44.53" xlink:href="#Безымянный_градиент_13"/><linearGradient id="Безымянный_градиент_13-9" x1="184.39" y1="49.85" x2="184.39" y2="64" gradientTransform="matrix(1, 0, 0, -1, 0, 64)" xlink:href="#Безымянный_градиент_13"/><linearGradient id="Безымянный_градиент_13-10" x1="245.58" y1="-34.78" x2="245.58" y2="-20.62" xlink:href="#Безымянный_градиент_13"/><linearGradient id="Безымянный_градиент_13-11" x1="227.46" y1="2.05" x2="227.46" y2="16.2" gradientTransform="matrix(1, 0, 0, -1, 0, 64)" xlink:href="#Безымянный_градиент_13"/><linearGradient id="Безымянный_градиент_13-12" x1="184.9" y1="2.05" x2="184.9" y2="16.2" gradientTransform="matrix(1, 0, 0, -1, 0, 64)" xlink:href="#Безымянный_градиент_13"/><linearGradient id="Безымянный_градиент_13-13" x1="37.1" y1="25.95" x2="37.1" y2="40.1" gradientTransform="matrix(1, 0, 0, -1, 0, 64)" xlink:href="#Безымянный_градиент_13"/></defs><title>Безымянный-1</title><path class="cls-1" d="M159,47.81H84.76A14.16,14.16,0,0,0,98.92,62H159Z"/><path class="cls-2" d="M159,0H98.92A14.16,14.16,0,0,0,84.76,14.15H159Z"/><path class="cls-3" d="M327.89,47.81H253.67V62h60.06a14.16,14.16,0,0,0,14.16-14.15Z"/><path class="cls-4" d="M313.73,23.9H253.67V38.06h74.22A14.16,14.16,0,0,0,313.73,23.9Z"/><path class="cls-5" d="M302.34,0H253.67V14.15h62.68V14a14,14,0,0,0-14-14Z"/><rect class="cls-6" x="84.76" y="23.9" width="31.95" height="14.15"/><path class="cls-7" d="M0,14.15H74.22A14.16,14.16,0,0,0,60.06,0H14.15A14.15,14.15,0,0,0,0,14.15Z"/><path class="cls-8" d="M14.15,62H60.06A14.16,14.16,0,0,0,74.22,47.81H0A14.15,14.15,0,0,0,14.15,62Z"/><rect class="cls-9" x="169.11" width="30.55" height="14.15"/><path class="cls-10" d="M169.11,38.06h74.22A14.15,14.15,0,0,0,229.19,23.9H169.11Z"/><rect class="cls-11" x="211.6" y="47.8" width="31.73" height="14.15"/><rect class="cls-12" x="169.11" y="47.8" width="31.57" height="14.15"/><rect class="cls-13" y="23.9" width="74.21" height="14.15"/></svg>