<svg xmlns="http://www.w3.org/2000/svg" width="75" height="98" viewBox="0 0 75 98">
    <g fill="none" fill-rule="evenodd" stroke="#FECD46" stroke-linecap="round" stroke-linejoin="round" stroke-width="2">
        <path d="M37.5 24.118v8.703M16.464 36.879l7.072 4.242M58.536 36.879l-7.072 4.242M37.5 74.882v-8.703M16.464 62.121l7.072-4.242M58.536 62.121l-7.072-4.242M7.5 67L1 70.593v6.814L7.5 81l6.5-3.593v-6.814zM67.5 67L61 70.593v6.814L67.5 81l6.5-3.593v-6.814zM37.5 83L31 86.593v6.814L37.5 97l6.5-3.593v-6.814zM7.5 17L1 20.593v6.814L7.5 31l6.5-3.593v-6.814zM67.5 17L61 20.593v6.814L67.5 31l6.5-3.593v-6.814zM37.5 1L31 4.593v6.814L37.5 15l6.5-3.593V4.593zM38 34l-13 7.956V57.045L38 65l13-7.955v-15.09z"/>
    </g>
</svg>
