<?xml version="1.0" encoding="UTF-8"?>
<svg width="145px" height="145px" viewBox="0 0 145 145" version="1.1" xmlns="http://www.w3.org/2000/svg" xmlns:xlink="http://www.w3.org/1999/xlink">
    <!-- Generator: sketchtool 51.2 (57519) - http://www.bohemiancoding.com/sketch -->
    <title>007F5657-5646-4C80-94D9-7F944BE8076E</title>
    <desc>Created with sketchtool.</desc>
    <defs></defs>
    <g id="Page-1" stroke="none" stroke-width="1" fill="none" fill-rule="evenodd">
        <g id="Wiconnect-offerings-5-Audience-Extension" transform="translate(-135.000000, -932.000000)">
            <g id="Audience-Buying" transform="translate(135.000000, 932.000000)">
                <g id="Group-17">
                    <circle id="Oval-3" fill="#FECD46" fill-rule="nonzero" cx="72.5" cy="72.5" r="72.5"></circle>
                    <g id="Group-9" transform="translate(32.000000, 27.000000)" stroke="#2C334D" stroke-linecap="round" stroke-linejoin="round" stroke-width="2">
                        <path d="M0,78.0409998 C0,78.0409998 3.49070463,73.2918079 10.4721139,63.7934239 C12.2017913,60.0990102 17.6386965,58.2518034 26.7828294,58.2518034 C35.9269624,58.2518034 45.0355655,56.8345356 54.1086388,54 C55.4430577,57.0298496 54.9921214,59.287133 52.7558299,60.7718504 C50.5195385,62.2565677 44.4112214,65.400136 34.4308787,70.2025553 L52.7558299,67.7982178 L72.6865777,60.7718504 C77.6323347,59.2192697 80.7368088,60.2264609 82,63.7934239 L62.1066202,78.0409998 C59.018448,80.6049097 50.8791832,81.8868646 37.6888257,81.8868646 C29.5980487,81.1147123 21.9052061,84.1524241 14.6102981,91" id="Path-8"></path>
                        <g id="Group-8" transform="translate(4.000000, 0.000000)">
                            <g id="Group-7" transform="translate(25.000000, 0.000000)">
                                <circle id="Oval-4" fill="#FECD46" cx="12.5" cy="9.5" r="9.5"></circle>
                                <path d="M12,37.9378469 C20,38.39827 24,36.3006202 24,31.6448975 C24,24.6613134 18.627417,19 12,19 C5.372583,19 0,24.6613134 0,31.6448975 C0,36.3006202 4,38.39827 12,37.9378469 Z" id="Oval-4"></path>
                            </g>
                            <g id="Group-7" transform="translate(0.000000, 19.000000)">
                                <ellipse id="Oval-4" fill="#FECD46" cx="7" cy="5.5" rx="5.44444444" ry="5.5"></ellipse>
                                <path d="M7,21.9640167 C11.6666667,22.2305774 14,21.0161485 14,18.3207301 C14,14.2776025 10.8659932,11 7,11 C3.13400675,11 0,14.2776025 0,18.3207301 C0,21.0161485 2.33333333,22.2305774 7,21.9640167 Z" id="Oval-4"></path>
                            </g>
                            <g id="Group-7" transform="translate(60.000000, 19.000000)">
                                <ellipse id="Oval-4" fill="#FECD46" cx="7" cy="5.5" rx="5.44444444" ry="5.5"></ellipse>
                                <path d="M7,21.9640167 C11.6666667,22.2305774 14,21.0161485 14,18.3207301 C14,14.2776025 10.8659932,11 7,11 C3.13400675,11 0,14.2776025 0,18.3207301 C0,21.0161485 2.33333333,22.2305774 7,21.9640167 Z" id="Oval-4"></path>
                            </g>
                        </g>
                    </g>
                </g>
            </g>
        </g>
    </g>
</svg>