<?xml version="1.0" encoding="UTF-8"?>
<svg width="20px" height="20px" viewBox="0 0 20 20" version="1.1" xmlns="http://www.w3.org/2000/svg" xmlns:xlink="http://www.w3.org/1999/xlink">
    <!-- Generator: sketchtool 51.2 (57519) - http://www.bohemiancoding.com/sketch -->
    <title>A8FAA234-4958-4E1A-B729-8D77E90825F5</title>
    <desc>Created with sketchtool.</desc>
    <defs></defs>
    <g id="Page-1" stroke="none" stroke-width="1" fill="none" fill-rule="evenodd" opacity="0.200000003">
        <g id="Wiconnect-log-in-error" transform="translate(-930.000000, -162.000000)" stroke="#2C334D" stroke-width="2">
            <g id="Group-8" transform="translate(470.000000, 142.000000)">
                <path d="M470,29.8042426 L469.804243,30 L479.040543,39.2363001 C478.986486,39.1822432 478.986486,39.0945996 479.040543,39.0405427 C479.0946,38.9864858 479.182243,38.9864858 479.2363,39.0405427 L470.195757,30 L479.2363,20.9594573 C479.182243,21.0135142 479.0946,21.0135142 479.040543,20.9594573 C478.986486,20.9054004 478.986486,20.8177568 479.040543,20.7636999 L470,29.8042426 L460.959457,20.7636999 C461.013514,20.8177568 461.013514,20.9054004 460.959457,20.9594573 C460.9054,21.0135142 460.817757,21.0135142 460.7637,20.9594573 L469.804243,30 L460.7637,39.0405427 C460.817757,38.9864858 460.9054,38.9864858 460.959457,39.0405427 C461.013514,39.0945996 461.013514,39.1822432 460.959457,39.2363001 L470.195757,30 L470,29.8042426 Z" id="close"></path>
            </g>
        </g>
    </g>
</svg>