<svg xmlns="http://www.w3.org/2000/svg" width="93" height="76" viewBox="0 0 93 76">
    <g fill="none" fill-rule="evenodd" stroke="#FECD46" stroke-linecap="round" stroke-linejoin="round" stroke-width="2" transform="translate(1 1)">
        <path fill="#2C334D" d="M13 5.81V4.158A4.159 4.159 0 0 1 17.159 0H85a6 6 0 0 1 6 6v51a5 5 0 0 1-5 5h-1.034"/>
        <rect width="80" height="62" y="12" fill="#2C334D" rx="4"/>
        <path d="M7 41h12M7 34.167h18M7 60h12M7 53.167h18M37 41h12M37 34.167h18M67 41h4M67 34h4M37 52h30v22H37z"/>
    </g>
</svg>
