<?xml version="1.0" encoding="UTF-8"?>
<svg width="145px" height="145px" viewBox="0 0 145 145" version="1.1" xmlns="http://www.w3.org/2000/svg" xmlns:xlink="http://www.w3.org/1999/xlink">
    <!-- Generator: sketchtool 51.2 (57519) - http://www.bohemiancoding.com/sketch -->
    <title>BBCFE4B1-96F9-4DAB-A8AD-0697533BA72A</title>
    <desc>Created with sketchtool.</desc>
    <defs></defs>
    <g id="Page-1" stroke="none" stroke-width="1" fill="none" fill-rule="evenodd">
        <g id="Wiconnect-offerings-5-Audience-Extension" transform="translate(-1158.000000, -932.000000)">
            <g id="Cross-device--Management" transform="translate(1158.000000, 932.000000)">
                <g id="Group-2" fill="#FECD46" fill-rule="nonzero">
                    <circle id="Oval-3" cx="72.5" cy="72.5" r="72.5"></circle>
                </g>
                <g id="Group-16" transform="translate(32.000000, 41.000000)">
                    <g id="Group-15" transform="translate(20.000000, 0.000000)">
                        <rect id="Rectangle-23" stroke="#2C334D" stroke-width="2" fill="#FECD46" stroke-linecap="round" stroke-linejoin="round" x="0" y="0" width="61" height="48" rx="5"></rect>
                        <circle id="Oval" fill="#2C334D" fill-rule="nonzero" cx="55.5" cy="24.5" r="1.5"></circle>
                        <g id="Group-14" transform="translate(22.000000, 14.000000)" stroke="#2C334D" stroke-linecap="round" stroke-linejoin="round" stroke-width="2">
                            <circle id="Oval-4" fill="#FECD46" cx="6.5" cy="4.5" r="4.5"></circle>
                            <path d="M6.5,19.9672879 C10.8333333,20.2096158 13,19.1055896 13,16.6552092 C13,12.9796387 10.0898509,10 6.5,10 C2.91014913,10 0,12.9796387 0,16.6552092 C0,19.1055896 2.16666667,20.2096158 6.5,19.9672879 Z" id="Oval-4"></path>
                        </g>
                    </g>
                    <rect id="Rectangle-23" stroke="#2C334D" stroke-width="2" fill="#FECD46" stroke-linecap="round" stroke-linejoin="round" x="0" y="21" width="25" height="42" rx="5"></rect>
                    <g id="Group-14" transform="translate(7.000000, 31.000000)" stroke="#2C334D" stroke-linecap="round" stroke-linejoin="round" stroke-width="2">
                        <circle id="Oval-4" fill="#FECD46" cx="5.5" cy="3.5" r="3.5"></circle>
                        <path d="M5.5,16.9705591 C9.16666667,17.1886542 11,16.1950306 11,13.9896883 C11,10.6816748 8.53756612,8 5.5,8 C2.46243388,8 0,10.6816748 0,13.9896883 C0,16.1950306 1.83333333,17.1886542 5.5,16.9705591 Z" id="Oval-4"></path>
                    </g>
                    <circle id="Oval" fill="#2C334D" fill-rule="nonzero" cx="12.5" cy="57.5" r="1.5"></circle>
                </g>
            </g>
        </g>
    </g>
</svg>