<?xml version="1.0" encoding="UTF-8"?>
<svg width="44px" height="73px" viewBox="0 0 44 73" version="1.1" xmlns="http://www.w3.org/2000/svg" xmlns:xlink="http://www.w3.org/1999/xlink">
    <!-- Generator: sketchtool 51.2 (57519) - http://www.bohemiancoding.com/sketch -->
    <title>CAA2765E-6CF1-42FD-88F7-C505166D260A</title>
    <desc>Created with sketchtool.</desc>
    <defs></defs>
    <g id="Page-1" stroke="none" stroke-width="1" fill="none" fill-rule="evenodd" stroke-linecap="round" stroke-linejoin="round">
        <g id="Wiconnect-offerings-4-Data-Monetization" transform="translate(-1127.000000, -1068.000000)" stroke="#2C334D" stroke-width="2">
            <g id="Group-17" transform="translate(1026.000000, 884.000000)">
                <g id="Custom-solutions-" transform="translate(102.000000, 185.000000)">
                    <g id="Group-4">
                        <path d="M21,70.9018636 C33.6666667,71.6288474 40,68.3167687 40,60.9656276 C40,49.938916 31.4934102,41 21,41 C10.5065898,41 2,49.938916 2,60.9656276 C2,68.3167687 8.33333333,71.6288474 21,70.9018636 Z" id="Oval-4"></path>
                        <g id="Group-2" fill="#FECD46">
                            <polygon id="Fill-1" points="21 0 0 12.3182951 0 24 0 35.6820984 21 48 42 35.6820984 42 12.3182951"></polygon>
                            <polyline id="Path-3" points="24.8718336 15 18.0614568 15 14 19.6810964 17.7708181 23.4605458 23.533935 23.4605458 27 28.0220806 23.5486402 32 15.4808156 32"></polyline>
                        </g>
                    </g>
                    <path d="M10.2392578,45.1103516 C10.2392578,45.1103516 13.0201823,53.34375 18.5820312,69.8105469 L6.65917969,58.5742188 L8.19042969,54.9853516 L4.31054688,53.0029297" id="Path-17" fill-rule="nonzero"></path>
                    <path d="M29.9287109,45 C29.9287109,45 32.7096354,53.2333984 38.2714844,69.7001953 L26.3486328,58.4638672 L27.8798828,54.875 L24,52.8925781" id="Path-17" fill-rule="nonzero" transform="translate(31.135742, 57.350098) scale(-1, 1) translate(-31.135742, -57.350098) "></path>
                </g>
            </g>
        </g>
    </g>
</svg>