<?xml version="1.0" encoding="UTF-8"?>
<svg width="67px" height="96px" viewBox="0 0 67 96" version="1.1" xmlns="http://www.w3.org/2000/svg" xmlns:xlink="http://www.w3.org/1999/xlink">
    <!-- Generator: sketchtool 51.2 (57519) - http://www.bohemiancoding.com/sketch -->
    <title>264030D3-4E79-49D5-9222-38FE99AD395C</title>
    <desc>Created with sketchtool.</desc>
    <defs>
        <polygon id="path-1" points="32.4562622 31 18 39.4688279 18 47.5 18 55.5314426 32.4562622 64 46.9125244 55.5314426 46.9125244 39.4688279"></polygon>
        <polygon id="path-2" points="32 0 26 3.51494505 26 6.84824326 26 10.1816537 32 13.6964865 38 10.1816537 38 3.51494505"></polygon>
        <polygon id="path-3" points="32 80 26 83.5149451 26 86.8482433 26 90.1816537 32 93.6964865 38 90.1816537 38 83.5149451"></polygon>
        <polygon id="path-4" points="59 22 53 25.5149451 53 28.8482433 53 32.1816537 59 35.6964865 65 32.1816537 65 25.5149451"></polygon>
        <polygon id="path-5" points="6 22 0 25.5149451 0 28.8482433 0 32.1816537 6 35.6964865 12 32.1816537 12 25.5149451"></polygon>
        <polygon id="path-6" points="59 62 53 65.5149451 53 68.8482433 53 72.1816537 59 75.6964865 65 72.1816537 65 65.5149451"></polygon>
        <polygon id="path-7" points="6 62 0 65.5149451 0 68.8482433 0 72.1816537 6 75.6964865 12 72.1816537 12 65.5149451"></polygon>
    </defs>
    <g id="Page-1" stroke="none" stroke-width="1" fill="none" fill-rule="evenodd">
        <g id="Wiconnect-offerings-4-Data-Monetization" transform="translate(-1115.000000, -1283.000000)" stroke-width="2">
            <g id="Group-17" transform="translate(1026.000000, 884.000000)">
                <g id="Data-gathering-algorithms" transform="translate(90.000000, 400.000000)">
                    <g id="Fill-1" stroke-linecap="round" stroke-linejoin="round">
                        <use stroke="#FECD46" fill="#FECD46" fill-rule="evenodd" xlink:href="#path-1"></use>
                        <use stroke="#2C334D" xlink:href="#path-1"></use>
                    </g>
                    <g id="Fill-1" stroke-linecap="round" stroke-linejoin="round">
                        <use stroke="#FECD46" xlink:href="#path-2"></use>
                        <use stroke="#2C334D" xlink:href="#path-2"></use>
                    </g>
                    <g id="Fill-1" stroke-linecap="round" stroke-linejoin="round">
                        <use stroke="#FECD46" xlink:href="#path-3"></use>
                        <use stroke="#2C334D" xlink:href="#path-3"></use>
                    </g>
                    <g id="Fill-1" stroke-linecap="round" stroke-linejoin="round">
                        <use stroke="#FECD46" xlink:href="#path-4"></use>
                        <use stroke="#2C334D" xlink:href="#path-4"></use>
                    </g>
                    <g id="Fill-1" stroke-linecap="round" stroke-linejoin="round">
                        <use stroke="#FECD46" xlink:href="#path-5"></use>
                        <use stroke="#2C334D" xlink:href="#path-5"></use>
                    </g>
                    <g id="Fill-1" stroke-linecap="round" stroke-linejoin="round">
                        <use stroke="#FECD46" xlink:href="#path-6"></use>
                        <use stroke="#2C334D" xlink:href="#path-6"></use>
                    </g>
                    <g id="Fill-1" stroke-linecap="round" stroke-linejoin="round">
                        <use stroke="#FECD46" xlink:href="#path-7"></use>
                        <use stroke="#2C334D" xlink:href="#path-7"></use>
                    </g>
                    <path d="M18.5,39.5 L32.5,46.5" id="Line" stroke="#2C334D" stroke-linecap="square" fill-rule="nonzero"></path>
                    <path d="M32.5,39.5 L46.5,46.5" id="Line" stroke="#2C334D" stroke-linecap="square" fill-rule="nonzero" transform="translate(39.500000, 43.000000) scale(-1, 1) translate(-39.500000, -43.000000) "></path>
                    <path d="M32.5,46.5 L32.5,63.5" id="Line-2" stroke="#2C334D" stroke-linecap="square" fill-rule="nonzero"></path>
                </g>
            </g>
        </g>
    </g>
</svg>