<?xml version="1.0" encoding="UTF-8"?>
<svg width="74px" height="78px" viewBox="0 0 74 78" version="1.1" xmlns="http://www.w3.org/2000/svg" xmlns:xlink="http://www.w3.org/1999/xlink">
    <!-- Generator: sketchtool 51.2 (57519) - http://www.bohemiancoding.com/sketch -->
    <title>418C4E1E-0042-444E-AF56-4F27FB507416</title>
    <desc>Created with sketchtool.</desc>
    <defs></defs>
    <g id="Page-1" stroke="none" stroke-width="1" fill="none" fill-rule="evenodd" stroke-linecap="round" stroke-linejoin="round">
        <g id="Wiconnect-offerings-4-Data-Monetization" transform="translate(-263.000000, -1312.000000)" stroke="#2C334D" stroke-width="2">
            <g id="Group-23" transform="translate(160.000000, 884.000000)">
                <g id="Raw-data-processing" transform="translate(93.000000, 419.000000)">
                    <g id="Group-12" transform="translate(47.000000, 48.000000) rotate(-24.000000) translate(-47.000000, -48.000000) translate(12.000000, 12.000000)">
                        <g id="Group-11">
                            <path d="M67.2804944,18.4755361 C61.1871368,7.46370512 49.3932936,0 35.8433735,0 C16.0476249,0 0,15.9303333 0,35.5813953" id="Oval-3"></path>
                            <polyline id="Path-19" points="69.7035015 10.6351744 67.6823701 19.0514172 59.3861775 17.6279978"></polyline>
                        </g>
                        <g id="Group-11" transform="translate(35.000000, 54.000000) scale(-1, -1) translate(-35.000000, -54.000000) translate(0.000000, 36.000000)">
                            <path d="M67.2804944,18.4755361 C61.1871368,7.46370512 49.3932936,0 35.8433735,0 C16.0476249,0 0,15.9303333 0,35.5813953" id="Oval-3"></path>
                            <polyline id="Path-19" points="69.7035015 10.6351744 67.6823701 19.0514172 59.3861775 17.6279978"></polyline>
                        </g>
                    </g>
                    <path d="M60.9156235,50.0622158 C60.9923529,49.4483808 61.0498999,48.8345457 61.0498999,48.1823459 C61.0498999,47.5301462 60.9923529,46.9163111 60.9156235,46.302476 L64.9630985,43.137389 C65.3275631,42.8496538 65.4234748,42.3317304 65.1932866,41.9097188 L61.3568175,35.2726271 C61.1266293,34.8506155 60.608706,34.6971567 60.1866944,34.8506155 L55.4102902,36.7688501 C54.4128082,36.0015563 53.3385969,35.3685389 52.1684738,34.8889802 L51.4395446,29.8056585 C51.3819976,29.3452822 50.9791683,29 50.4996097,29 L42.8266713,29 C42.3471126,29 41.9442834,29.3452822 41.8867363,29.8056585 L41.1578072,34.8889802 C39.9876841,35.3685389 38.9134727,36.0207386 37.9159907,36.7688501 L33.1395866,34.8506155 C32.6983926,34.6779744 32.1996516,34.8506155 31.9694635,35.2726271 L28.1329943,41.9097188 C27.8836238,42.3317304 27.9987179,42.8496538 28.3631824,43.137389 L32.4106574,46.302476 C32.333928,46.9163111 32.276381,47.5493285 32.276381,48.1823459 C32.276381,48.8153634 32.333928,49.4483808 32.4106574,50.0622158 L28.3631824,53.2273029 C27.9987179,53.5150381 27.9028061,54.0329615 28.1329943,54.4549731 L31.9694635,61.0920648 C32.1996516,61.5140764 32.717575,61.6675351 33.1395866,61.5140764 L37.9159907,59.5958418 C38.9134727,60.3631356 39.9876841,60.996153 41.1578072,61.4757117 L41.8867363,66.5590334 C41.9442834,67.0194097 42.3471126,67.3646919 42.8266713,67.3646919 L50.4996097,67.3646919 C50.9791683,67.3646919 51.3819976,67.0194097 51.4395446,66.5590334 L52.1684738,61.4757117 C53.3385969,60.996153 54.4128082,60.3439533 55.4102902,59.5958418 L60.1866944,61.5140764 C60.6278883,61.6867175 61.1266293,61.5140764 61.3568175,61.0920648 L65.1932866,54.4549731 C65.4234748,54.0329615 65.3275631,53.5150381 64.9630985,53.2273029 L60.9156235,50.0622158 Z M46.7683224,55.1581548 C43.162234,55.1581548 40.2287837,52.2247046 40.2287837,48.6186161 C40.2287837,45.0125276 43.162234,42.0790774 46.7683224,42.0790774 C50.3744109,42.0790774 53.3078611,45.0125276 53.3078611,48.6186161 C53.3078611,52.2247046 50.3744109,55.1581548 46.7683224,55.1581548 Z" id="Shape" fill="#FFCE49"></path>
                </g>
            </g>
        </g>
    </g>
</svg>