<?xml version="1.0" encoding="UTF-8"?>
<svg width="73px" height="65px" viewBox="0 0 73 65" version="1.1" xmlns="http://www.w3.org/2000/svg" xmlns:xlink="http://www.w3.org/1999/xlink">
    <!-- Generator: sketchtool 51.2 (57519) - http://www.bohemiancoding.com/sketch -->
    <title>AEA7AF9C-092B-4386-88FF-500EA3D08F10</title>
    <desc>Created with sketchtool.</desc>
    <defs></defs>
    <g id="Page-1" stroke="none" stroke-width="1" fill="none" fill-rule="evenodd" stroke-linecap="round" stroke-linejoin="round">
        <g id="Wiconnect-offerings-4-Data-Monetization" transform="translate(-263.000000, -1107.000000)" stroke="#2C334D" stroke-width="2">
            <g id="Group-23" transform="translate(160.000000, 884.000000)">
                <g id="Group-20" transform="translate(0.000000, 224.000000)">
                    <g id="data-integration" transform="translate(104.000000, 0.000000)">
                        <path d="M67.6113461,11.4920537 C69.4856529,12.4523554 70.6490278,14.3596309 70.6490278,16.4654201 C70.6490278,19.5479954 68.1416515,22.0550209 65.0590763,22.0550209 L31.6312501,22.0550209 C29.19402,28.0598873 23.4125693,32 16.8170718,32 C7.99548434,32 0.817773296,24.8226397 0.817773296,15.9992985 C0.817773296,7.17771104 7.99548434,0 16.8170718,0 C23.1467152,0 28.7475394,3.64584932 31.3369868,9.26140424 L34.9470615,7.83954054 C35.4100265,7.65716039 35.9238475,7.65716039 36.3868125,7.83954054 L41.357373,9.79872422 L46.3293365,7.83954054 C46.7923015,7.65716039 47.3061224,7.65716039 47.7690874,7.83954054 L52.739648,9.79872422 L57.7102085,7.83954054 C58.1938666,7.6504965 58.7322388,7.65856332 59.2074793,7.86409172 L67.4924483,11.4359368 C67.5320809,11.4524211 67.5717135,11.4713606 67.6113461,11.4920537 Z M16.3692153,20.9230769 C19.0881556,20.9230769 21.2922922,18.7189403 21.2922922,16 C21.2922922,13.2810597 19.0881556,11.0769231 16.3692153,11.0769231 C13.6502749,11.0769231 11.4461383,13.2810597 11.4461383,16 C11.4461383,18.7189403 13.6502749,20.9230769 16.3692153,20.9230769 Z" id="Path" fill="#FFCE49"></path>
                        <path d="M31.5,49.25 L38.5,49.25" id="Line-4"></path>
                        <path d="M11.5,49.25 L25.5,49.25" id="Line-4"></path>
                        <path d="M44.5,49 L58.5,49" id="Line-4"></path>
                        <path d="M31.5,62.25 L38.5,62.25" id="Line-4"></path>
                        <path d="M11.5,62.25 L25.5,62.25" id="Line-4"></path>
                        <path d="M44.5,62 L58.5,62" id="Line-4"></path>
                        <path d="M27,55.25 L43,55.25" id="Line-4"></path>
                        <path d="M11.5,55.25 L22,55.25" id="Line-4"></path>
                        <path d="M49,55 L58.5,55" id="Line-4"></path>
                    </g>
                </g>
            </g>
        </g>
    </g>
</svg>