<?xml version="1.0" encoding="UTF-8"?>
<svg width="152px" height="85px" viewBox="0 0 152 85" version="1.1" xmlns="http://www.w3.org/2000/svg" xmlns:xlink="http://www.w3.org/1999/xlink">
    <!-- Generator: sketchtool 51.2 (57519) - http://www.bohemiancoding.com/sketch -->
    <title>7B7E6DB5-2CDF-4570-9369-712A1FC207EB</title>
    <desc>Created with sketchtool.</desc>
    <defs></defs>
    <g id="Page-1" stroke="none" stroke-width="1" fill="none" fill-rule="evenodd" stroke-linecap="round" stroke-linejoin="round">
        <g id="Wiconnect-offerings-4-Data-Monetization" transform="translate(-644.000000, -1060.000000)" stroke="#2C334D" stroke-width="2">
            <g id="Data-Monetization" transform="translate(638.000000, 1052.000000)">
                <g id="Group-14" transform="translate(39.000000, 0.000000)">
                    <polygon id="Fill-1" fill="#FECD46" transform="translate(43.000000, 44.000000) rotate(32.000000) translate(-43.000000, -44.000000) " points="43 11 14 27.9376557 14 44 14 60.0628852 43 77 72 60.0628852 72 27.9376557"></polygon>
                    <path d="M53.8721185,39.6868076 L47.0719542,39.1944675 L44.5094455,32.8866432 C44.0331198,31.7044523 42.3417532,31.7044523 41.8652223,32.8866432 L39.3029189,39.1944675 L32.5027545,39.6868076 C31.2218081,39.785563 30.7126325,41.3781742 31.6815034,42.1994253 L36.88803,46.6017417 L35.2623635,53.2206149 C34.9504934,54.4693272 36.3137702,55.4550338 37.397411,54.7814026 L43.1790187,51.1843228 L48.9606264,54.7814026 C50.0448831,55.4550338 51.4083653,54.4693272 51.0962898,53.2206149 L49.4698021,46.6017417 L54.676534,42.1994253 C55.6622406,41.3781742 55.1528596,39.785563 53.8721185,39.6868076 Z" id="Fill-6" fill="#FFFFFF"></path>
                    <path d="M61.0201448,65 C61.0201448,65 57.6800965,71.7589439 51,85.2768317 L61.0201448,81.7914986 L65.3005366,91.4794922 L74.6010732,73.2332331" id="Path-20" transform="translate(62.800537, 78.239746) scale(-1, 1) translate(-62.800537, -78.239746) "></path>
                    <path d="M21.0201448,64 C21.0201448,64 17.6800965,71.0470298 11,85.1410895 L21.0201448,81.6557564 L25.3005366,91.34375 L34.6010732,73.0974909" id="Path-20"></path>
                </g>
                <g id="Group-15" transform="translate(139.429218, 44.640990) rotate(11.000000) translate(-139.429218, -44.640990) translate(121.929218, 6.640990)">
                    <path d="M30.9488392,21 C31.2065711,23.9708974 30.4875518,26.9305137 28.8591074,29.4926635 C27.229874,32.0548133 24.8537443,33.9650132 22.0492012,35 C21.5282147,28.892135 25.1885327,23.1337256 30.9488392,21 Z" id="Path"></path>
                    <path d="M35,40.0018665 C33.1813146,45.988241 27.4221899,50.0932217 21,49.9983907 C22.8186854,44.0128176 28.5747849,39.8995559 35,40.0018665 Z" id="Path"></path>
                    <path d="M1,14.3008642 C3.92604022,13.6661735 6.95781242,14.0382241 9.70210938,15.3927935 C12.4474584,16.7481793 14.6336378,18.9521782 16,21.7045912 C9.98064211,22.9984675 3.8139959,19.9537484 1,14.3008642 Z" id="Path" transform="translate(8.500000, 18.000000) rotate(-11.000000) translate(-8.500000, -18.000000) "></path>
                    <path d="M18.4102127,17.6353457 C16.9917033,14.8899956 16.4957472,11.7643397 17.0104489,8.65368859 C17.5251507,5.54276471 18.9990937,2.75621936 21.2220589,0.63534571 C24.1279011,6.28045989 22.9710272,13.2721952 18.4102127,17.6353457 Z" id="Path" transform="translate(19.812376, 9.135346) rotate(9.000000) translate(-19.812376, -9.135346) "></path>
                    <path d="M25.2148867,60.0727204 C28.3272048,59.7553446 31.3827435,60.4829529 34,62.1352473 C29.3749185,66.5463551 22.3821392,67.259827 17,63.8709741 C19.2473797,61.7216886 22.1044612,60.3909277 25.2148867,60.0727204 Z" id="Path"></path>
                    <path d="M18.5416323,42.5 C15.574761,41.2494136 13.1323121,39.1255007 11.5467626,36.3802187 C9.96035618,33.6357486 9.38794739,30.5413524 9.87438061,27.5 C15.9686491,30.0772201 19.5333505,36.2467975 18.5416323,42.5 Z" id="Path" transform="translate(14.206232, 35.000000) rotate(-20.000000) translate(-14.206232, -35.000000) "></path>
                    <path d="M16.9804197,61.3066885 C14.0135484,60.0561021 11.5710995,57.9321892 9.98555002,55.1869072 C8.39914361,52.4424371 7.82673482,49.3480409 8.31316804,46.3066885 C14.4074365,48.8839086 17.972138,55.053486 16.9804197,61.3066885 Z" id="Path" transform="translate(12.645020, 53.806688) rotate(-1.000000) translate(-12.645020, -53.806688) "></path>
                    <path d="M9.96799094,7.78015754 C24.1487858,25.7734106 24.7460676,48.5061447 11.7598364,75.9783597" id="Path-4"></path>
                </g>
                <g id="Group-15" transform="translate(24.429218, 44.640990) scale(-1, 1) rotate(11.000000) translate(-24.429218, -44.640990) translate(6.929218, 6.640990)">
                    <path d="M30.9488392,21 C31.2065711,23.9708974 30.4875518,26.9305137 28.8591074,29.4926635 C27.229874,32.0548133 24.8537443,33.9650132 22.0492012,35 C21.5282147,28.892135 25.1885327,23.1337256 30.9488392,21 Z" id="Path"></path>
                    <path d="M35,40.0018665 C33.1813146,45.988241 27.4221899,50.0932217 21,49.9983907 C22.8186854,44.0128176 28.5747849,39.8995559 35,40.0018665 Z" id="Path"></path>
                    <path d="M1,14.3008642 C3.92604022,13.6661735 6.95781242,14.0382241 9.70210938,15.3927935 C12.4474584,16.7481793 14.6336378,18.9521782 16,21.7045912 C9.98064211,22.9984675 3.8139959,19.9537484 1,14.3008642 Z" id="Path" transform="translate(8.500000, 18.000000) rotate(-11.000000) translate(-8.500000, -18.000000) "></path>
                    <path d="M18.4102127,17.6353457 C16.9917033,14.8899956 16.4957472,11.7643397 17.0104489,8.65368859 C17.5251507,5.54276471 18.9990937,2.75621936 21.2220589,0.63534571 C24.1279011,6.28045989 22.9710272,13.2721952 18.4102127,17.6353457 Z" id="Path" transform="translate(19.812376, 9.135346) rotate(9.000000) translate(-19.812376, -9.135346) "></path>
                    <path d="M25.2148867,60.0727204 C28.3272048,59.7553446 31.3827435,60.4829529 34,62.1352473 C29.3749185,66.5463551 22.3821392,67.259827 17,63.8709741 C19.2473797,61.7216886 22.1044612,60.3909277 25.2148867,60.0727204 Z" id="Path"></path>
                    <path d="M18.5416323,42.5 C15.574761,41.2494136 13.1323121,39.1255007 11.5467626,36.3802187 C9.96035618,33.6357486 9.38794739,30.5413524 9.87438061,27.5 C15.9686491,30.0772201 19.5333505,36.2467975 18.5416323,42.5 Z" id="Path" transform="translate(14.206232, 35.000000) rotate(-20.000000) translate(-14.206232, -35.000000) "></path>
                    <path d="M16.9804197,61.3066885 C14.0135484,60.0561021 11.5710995,57.9321892 9.98555002,55.1869072 C8.39914361,52.4424371 7.82673482,49.3480409 8.31316804,46.3066885 C14.4074365,48.8839086 17.972138,55.053486 16.9804197,61.3066885 Z" id="Path" transform="translate(12.645020, 53.806688) rotate(-1.000000) translate(-12.645020, -53.806688) "></path>
                    <path d="M9.96799094,7.78015754 C24.1487858,25.7734106 24.7460676,48.5061447 11.7598364,75.9783597" id="Path-4"></path>
                </g>
            </g>
        </g>
    </g>
</svg>