<?xml version="1.0" encoding="UTF-8"?>
<svg width="30px" height="30px" viewBox="0 0 30 30" version="1.1" xmlns="http://www.w3.org/2000/svg" xmlns:xlink="http://www.w3.org/1999/xlink">
    <!-- Generator: sketchtool 51.2 (57519) - http://www.bohemiancoding.com/sketch -->
    <title>A2E3C234-926C-4B54-8FFC-8E05D6855073</title>
    <desc>Created with sketchtool.</desc>
    <defs></defs>
    <g id="Page-1" stroke="none" stroke-width="1" fill="none" fill-rule="evenodd">
        <g id="Wiconnect-offerings-4-Data-Monetization" transform="translate(-595.000000, -1994.000000)">
            <g id="Group-3" transform="translate(0.000000, 1779.000000)">
                <g id="Group-35" transform="translate(595.000000, 215.000000)">
                    <g id="Facebook">
                        <path d="M0,15 C0,6.71572834 6.71572834,0 15,0 C23.2842717,0 30,6.71572834 30,15 C30,23.2842717 23.2842717,30 15,30 C6.71572834,30 0,23.2842717 0,15 Z" id="back" fill="#434C6C"></path>
                        <path d="M16.0634719,23.3196729 L16.0634719,15.158881 L18.3162074,15.158881 L18.6147435,12.3466269 L16.0634719,12.3466269 L16.0672993,10.9390667 C16.0672993,10.2055875 16.1369896,9.81257258 17.1904776,9.81257258 L18.5987961,9.81257258 L18.5987961,7 L16.3457416,7 C13.6394609,7 12.6869203,8.3642458 12.6869203,10.6584782 L12.6869203,12.3469454 L11,12.3469454 L11,15.1591995 L12.6869203,15.1591995 L12.6869203,23.3196729 L16.0634719,23.3196729 Z" id="Shape" fill="#FFFFFF"></path>
                    </g>
                </g>
            </g>
        </g>
    </g>
</svg>