<?xml version="1.0" encoding="UTF-8"?>
<svg width="145px" height="145px" viewBox="0 0 145 145" version="1.1" xmlns="http://www.w3.org/2000/svg" xmlns:xlink="http://www.w3.org/1999/xlink">
    <!-- Generator: sketchtool 51.2 (57519) - http://www.bohemiancoding.com/sketch -->
    <title>BE876415-C1F9-4022-BD72-052CF06F0840</title>
    <desc>Created with sketchtool.</desc>
    <defs></defs>
    <g id="Page-1" stroke="none" stroke-width="1" fill="none" fill-rule="evenodd">
        <g id="Wiconnect-services-1.-venue-owners" transform="translate(-379.000000, -2799.000000)">
            <g id="High-level-Forecast" transform="translate(379.000000, 2799.000000)">
                <circle id="Oval-3" fill="#FECD46" fill-rule="nonzero" cx="72.5" cy="72.5" r="72.5"></circle>
                <g id="Group-8" transform="translate(39.000000, 38.000000)" stroke="#2C334D" stroke-linecap="round" stroke-linejoin="round" stroke-width="2">
                    <rect id="Rectangle-17" x="0" y="0" width="52" height="49" rx="4"></rect>
                    <g id="Group-7" transform="translate(43.000000, 30.000000)">
                        <circle id="Oval-4" fill="#FECD46" cx="15" cy="11" r="11"></circle>
                        <path d="M15.5,45.9214909 C25.8333333,46.5030779 31,43.853415 31,37.9725021 C31,29.1511328 24.0604136,22 15.5,22 C6.93958638,22 0,29.1511328 0,37.9725021 C0,43.853415 5.16666667,46.5030779 15.5,45.9214909 Z" id="Oval-4"></path>
                    </g>
                    <rect id="Rectangle-19" x="9" y="26" width="6" height="13" rx="3"></rect>
                    <rect id="Rectangle-19" x="35" y="18" width="6" height="22" rx="3"></rect>
                    <rect id="Rectangle-19" x="22" y="11" width="6" height="28" rx="3"></rect>
                </g>
            </g>
        </g>
    </g>
</svg>