<?xml version="1.0" encoding="UTF-8"?>
<svg width="145px" height="145px" viewBox="0 0 145 145" version="1.1" xmlns="http://www.w3.org/2000/svg" xmlns:xlink="http://www.w3.org/1999/xlink">
    <!-- Generator: sketchtool 51.2 (57519) - http://www.bohemiancoding.com/sketch -->
    <title>51F31AFE-B963-4D7D-8A31-C14C209730DC</title>
    <desc>Created with sketchtool.</desc>
    <defs></defs>
    <g id="Page-1" stroke="none" stroke-width="1" fill="none" fill-rule="evenodd">
        <g id="Wiconnect-services-1.-venue-owners" transform="translate(-115.000000, -2799.000000)">
            <g id="Information-Gathering" transform="translate(115.000000, 2799.000000)">
                <circle id="Oval-3" fill="#FECD46" fill-rule="nonzero" cx="72.5" cy="72.5" r="72.5"></circle>
                <g id="Group-6" transform="translate(43.000000, 33.000000)" stroke="#2C334D" stroke-linecap="round" stroke-linejoin="round" stroke-width="2">
                    <rect id="Rectangle-17" x="0" y="8" width="59" height="70" rx="4"></rect>
                    <g id="Group-5" transform="translate(11.000000, 18.000000)">
                        <polyline id="Path-4" points="0 3.56586844 3.5159757 7.08184413 9.59781983 1"></polyline>
                        <path d="M17.5,1.5 L33.5,1.5" id="Line-2"></path>
                        <path d="M17.5,7.5 L26.5,7.5" id="Line-2"></path>
                        <polyline id="Path-4" points="0 23.5658684 3.5159757 27.0818441 9.59781983 21"></polyline>
                        <path d="M17.5,21.5 L33.5,21.5" id="Line-2"></path>
                        <path d="M17.5,27.5 L26.5,27.5" id="Line-2"></path>
                        <polyline id="Path-4" points="0 43.5658684 3.5159757 47.0818441 9.59781983 41"></polyline>
                        <path d="M17.5,41.5 L33.5,41.5" id="Line-2"></path>
                        <path d="M17.5,47.5 L26.5,47.5" id="Line-2"></path>
                    </g>
                    <path d="M20.9230855,4.19860337 C22.4995821,1.67718124 25.3007458,0 28.4936361,0 C31.6865264,0 34.48769,1.67718124 36.0641866,4.19860337 L40.1812522,4.19860337 C42.2807056,4.19860337 43.9826488,5.90054661 43.9826488,8 L13.2736988,8 C13.2736988,5.90054661 14.9756421,4.19860337 17.0750955,4.19860337 L20.9230855,4.19860337 Z" id="Combined-Shape"></path>
                </g>
            </g>
        </g>
    </g>
</svg>