<?xml version="1.0" encoding="UTF-8"?>
<svg width="145px" height="145px" viewBox="0 0 145 145" version="1.1" xmlns="http://www.w3.org/2000/svg" xmlns:xlink="http://www.w3.org/1999/xlink">
    <!-- Generator: sketchtool 51.2 (57519) - http://www.bohemiancoding.com/sketch -->
    <title>99A99F16-55CC-4191-B0C1-7A44FDD31AE8</title>
    <desc>Created with sketchtool.</desc>
    <defs></defs>
    <g id="Page-1" stroke="none" stroke-width="1" fill="none" fill-rule="evenodd">
        <g id="Wiconnect-services-1.-venue-owners" transform="translate(-907.000000, -2799.000000)">
            <g id="Integration--Deployment" transform="translate(907.000000, 2799.000000)">
                <circle id="Oval-3" fill="#FECD46" fill-rule="nonzero" cx="72.5" cy="72.5" r="72.5"></circle>
                <g id="Group-17" transform="translate(43.000000, 37.000000)" stroke="#2C334D" stroke-linecap="round" stroke-linejoin="round" stroke-width="2">
                    <g id="Group-16">
                        <path d="M32.9951172,26.0165793 C33.3844406,25.3928196 33.8097232,24.7205387 34.2709652,23.9997365 C34.5131114,23.6323566 34.414573,23.1478363 34.1092044,22.8727181 L30.5064148,19.836814 C30.6978919,18.7009469 30.7478772,17.5607696 30.6326249,16.4090221 L34.4276402,13.6355198 C34.7749791,13.3911793 34.880927,12.9172459 34.674852,12.5296752 L31.3776522,6.3285442 C31.1715772,5.94097351 30.7194233,5.76378813 30.3226264,5.91511164 L25.9011431,7.51039909 C25.0107495,6.7708016 24.0220453,6.18290525 22.9887991,5.6982352 L22.4865749,1.01373117 C22.4365114,0.582979135 22.0826679,0.254092615 21.6426897,0.249404676 L14.6301115,0.000917036163 C14.1818903,-0.0192737303 13.8127719,0.296304226 13.7368465,0.714502944 L12.9181529,5.3456945 C12.3890904,5.54745918 11.8527681,5.77296969 11.3411748,6.04498868 C10.8295815,6.31700766 10.3427172,6.63553514 9.87959867,6.96132243 L5.58235919,5.05032076 C5.19319979,4.87941203 4.73340844,5.02445888 4.49126223,5.3918388 L0.775883817,11.3444822 C0.533737606,11.7118621 0.632275976,12.1963825 0.937644589,12.4715007 L4.54043426,15.5074048 C4.34895714,16.6432718 4.29897181,17.7834491 4.41422409,18.9351966 L0.619208772,21.708699 C0.271869909,21.9530394 0.165922005,22.4269728 0.371996996,22.8145435 C1.12868707,24.2376705 1.69620462,25.3050158 2.07454966,26.0165793 M17.525482,23.8139986 C14.1367806,23.8139986 11.3801686,21.0573866 11.3801686,17.6686852 C11.3801686,14.2799838 14.1367806,11.5233718 17.525482,11.5233718 C20.9141833,11.5233718 23.6707953,14.2799838 23.6707953,17.6686852 C23.6707953,21.0573866 20.9141833,23.8139986 17.525482,23.8139986 Z" id="Shape"></path>
                        <path d="M9.35442399,34 L51.645576,34 C53.854715,34 55.645576,35.790861 55.645576,38 C55.645576,38.1130785 55.640781,38.2261062 55.6312038,38.3387784 L53.2512038,66.3387784 C53.0752243,68.4091253 51.3433886,70 49.265576,70 L11.734424,70 C9.65661136,70 7.92477565,68.4091253 7.74879616,66.3387784 L5.36879616,38.3387784 C5.18169404,36.1375769 6.81444416,34.2014743 9.01564563,34.0143722 C9.12831784,34.004795 9.24134549,34 9.35442399,34 Z" id="Rectangle-2"></path>
                        <path d="M2.79477651,40.5434051 L3.39550661,35.3151076 C3.74351459,32.2863111 6.3075647,30 9.35628864,30 L50.8668574,30 C53.8192849,30 56.3329433,32.1478924 56.7934295,35.064188 L57.63219,40.3761253 C57.9767464,42.5582289 56.4871202,44.6064916 54.3050166,44.951048 C54.0986559,44.9836326 53.8900595,45 53.681142,45 L6.7686312,45 C4.5594922,45 2.7686312,43.209139 2.7686312,41 C2.7686312,40.8474276 2.77736057,40.6949802 2.79477651,40.5434051 Z" id="Rectangle-2" fill="#FECD46"></path>
                    </g>
                    <polyline id="Path-10" points="22 52.4044755 23.9820507 61.8338057 29.5988025 57.1191406 35.8427387 61.8338057 38.2308217 52.4044755"></polyline>
                    <path d="M56.6439251,15.0481974 C56.6849912,14.7196692 56.7157907,14.391141 56.7157907,14.0420798 C56.7157907,13.6930186 56.6849912,13.3644905 56.6439251,13.0359623 L58.8101578,11.3419889 C59.0052214,11.1879913 59.056554,10.9107956 58.9333559,10.6849325 L56.8800548,7.13272156 C56.7568567,6.90685843 56.479661,6.82472639 56.2537979,6.90685843 L53.697438,7.93350899 C53.1635797,7.52284877 52.5886554,7.18405408 51.9623986,6.92739144 L51.5722714,4.20676746 C51.5414718,3.96037132 51.3258752,3.77557422 51.0692126,3.77557422 L46.9626103,3.77557422 C46.7059477,3.77557422 46.4903511,3.96037132 46.4595516,4.20676746 L46.0694244,6.92739144 C45.4431675,7.18405408 44.8682432,7.53311528 44.3343849,7.93350899 L41.778025,6.90685843 C41.5418954,6.81445988 41.2749662,6.90685843 41.1517682,7.13272156 L39.098467,10.6849325 C38.9650025,10.9107956 39.0266015,11.1879913 39.2216651,11.3419889 L41.3878978,13.0359623 C41.3468318,13.3644905 41.3160323,13.7032851 41.3160323,14.0420798 C41.3160323,14.3808745 41.3468318,14.7196692 41.3878978,15.0481974 L39.2216651,16.7421708 C39.0266015,16.8961684 38.975269,17.173364 39.098467,17.3992272 L41.1517682,20.9514381 C41.2749662,21.1773012 41.5521619,21.2594333 41.778025,21.1773012 L44.3343849,20.1506507 C44.8682432,20.5613109 45.4431675,20.9001056 46.0694244,21.1567682 L46.4595516,23.8773922 C46.4903511,24.1237883 46.7059477,24.3085854 46.9626103,24.3085854 L51.0692126,24.3085854 C51.3258752,24.3085854 51.5414718,24.1237883 51.5722714,23.8773922 L51.9623986,21.1567682 C52.5886554,20.9001056 53.1635797,20.5510444 53.697438,20.1506507 L56.2537979,21.1773012 C56.4899276,21.2696998 56.7568567,21.1773012 56.8800548,20.9514381 L58.9333559,17.3992272 C59.056554,17.173364 59.0052214,16.8961684 58.8101578,16.7421708 L56.6439251,15.0481974 Z M49.0722055,17.7755742 C47.1422055,17.7755742 45.5722055,16.2055742 45.5722055,14.2755742 C45.5722055,12.3455742 47.1422055,10.7755742 49.0722055,10.7755742 C51.0022055,10.7755742 52.5722055,12.3455742 52.5722055,14.2755742 C52.5722055,16.2055742 51.0022055,17.7755742 49.0722055,17.7755742 Z" id="Shape"></path>
                </g>
            </g>
        </g>
    </g>
</svg>