<?xml version="1.0" encoding="utf-8"?>
<!-- Generator: Adobe Illustrator 21.0.0, SVG Export Plug-In . SVG Version: 6.00 Build 0)  -->
<svg version="1.1" id="Layer_1" xmlns="http://www.w3.org/2000/svg" xmlns:xlink="http://www.w3.org/1999/xlink" x="0px" y="0px"
	 viewBox="0 0 120 28" style="enable-background:new 0 0 120 28;" xml:space="preserve" width="120px" height="28px">
<style type="text/css">
	.st0{fill:#FFFFFF;}
</style>
<polygon id="Fill-91" class="st0" points="0.1,9.3 3.1,9.3 6.6,19.9 11.1,9.1 15.5,19.9 19.1,9.3 22.1,9.3 15.9,27.9 11.1,16
	6.3,27.9 "/>
<polygon id="Fill-93" class="st0" points="23.8,14.7 23.8,14.7 26.6,14.7 26.6,27.7 23.8,27.7 "/>
<path id="Fill-95" class="st0" d="M29,21.2c0-3.8,2.8-6.7,6.5-6.7c2,0,3.7,0.9,4.8,2.2l-1.9,2c-0.7-0.8-1.6-1.4-2.9-1.4
	c-2.1,0-3.7,1.7-3.7,3.9s1.5,3.9,3.7,3.9c1.3,0,2.3-0.6,2.9-1.4l1.9,2c-1.2,1.3-2.8,2.2-4.8,2.2C31.8,27.9,29,25,29,21.2"/>
<path id="Fill-97" class="st0" d="M41.3,21.2c0-3.8,2.8-6.7,6.5-6.7c3.7,0,6.5,2.9,6.5,6.7c0,3.8-2.8,6.7-6.5,6.7
	C44.1,27.9,41.3,25,41.3,21.2 M51.5,21.2c0-2.3-1.5-4-3.7-4c-2.2,0-3.7,1.7-3.7,4s1.5,4,3.7,4C50,25.2,51.5,23.5,51.5,21.2"/>
<path id="Fill-99" class="st0" d="M56.8,14.7h2.8V16c0.9-1,2.2-1.4,3.5-1.4c3.1,0,5.1,2.2,5.1,5.6v7.6h-2.8v-7.6
	c0-1.4-1-2.9-2.9-2.9c-1.4,0-2.5,0.8-3,2.3v8.2h-2.8V14.7z"/>
<path id="Fill-101" class="st0" d="M71.2,14.7H74V16c0.9-1,2.2-1.4,3.5-1.4c3.1,0,5.1,2.2,5.1,5.6v7.6h-2.8v-7.6
	c0-1.4-1-2.9-2.9-2.9c-1.4,0-2.5,0.8-3,2.3v8.2h-2.8V14.7z"/>
<path id="Fill-103" class="st0" d="M84.9,21.2c0-3.8,2.8-6.7,6.5-6.7c3.5,0,5.9,2.5,6,6.7V22h-9.6c0.3,1.8,1.7,3.1,3.6,3.1
	c1.5,0,2.6-0.7,3.3-1.5l1.9,2.1c-1.1,1.3-2.9,2.3-5.2,2.3C87.6,27.9,84.9,25,84.9,21.2 M87.8,19.8h6.5c-0.3-1.8-1.5-2.6-3.2-2.6
	C89.6,17.1,88.3,18.2,87.8,19.8"/>
<path id="Fill-105" class="st0" d="M99,21.2c0-3.8,2.8-6.7,6.5-6.7c2,0,3.7,0.9,4.8,2.2l-1.9,2c-0.7-0.8-1.6-1.4-2.9-1.4
	c-2.1,0-3.7,1.7-3.7,3.9s1.5,3.9,3.7,3.9c1.3,0,2.3-0.6,2.9-1.4l1.9,2c-1.2,1.3-2.8,2.2-4.8,2.2C101.8,27.9,99,25,99,21.2"/>
<path id="Fill-107" class="st0" d="M116.1,23.2v-5.9h3.2l0.6-2.5h-3.8v-3.9h-2.8v3.9h-2.5l0.6,2.5h1.8v6.5c0,2.5,1.4,3.9,3.9,3.9
	h2.4v-2.6h-1.7C116.4,25.1,116.1,24.5,116.1,23.2"/>
<path class="st0" d="M67.7,0L67.7,0l-0.1,0h-0.3l-0.2,0.2v3.6l0.1,0.1C67.2,4,67.3,4,67.3,4h0.3c0.1,0,0.2-0.1,0.2-0.2V0.2
	C67.8,0.1,67.8,0,67.7,0z"/>
<path class="st0" d="M49.2,3.9L49.2,3.9l0-0.1l0-0.1l0,0l0-0.1l0-0.1l0,0l0,0l0,0l0,0l0,0l0,0l0,0l0,0l0,0l0,0l0,0l0,0l0,0l0,0l0,0
	l0,0l0,0l0,0l0,0l0,0l0,0l0,0l0,0l0,0l0,0l0-0.1l0-0.1l-0.1-0.1l-0.1-0.1l-0.1-0.1l-0.1,0l-0.1,0l-0.1,0l-0.1,0l-0.1,0l-0.1,0
	l-0.1,0l-0.1,0l-0.1,0l-0.1,0l-0.5,0l0.1,0l0.1,0l0.1,0l0.1,0l0.1,0l0.1,0l0.1,0l0.1,0l0.1,0l0.1,0l0.1,0l0,0l0,0
	C47.9,2.2,47.6,2,47.3,2c-0.4,0-0.7,0.2-1,0.5C46.2,2.8,46.1,3,46,3.2c-0.1,0.3-0.2,0.6-0.2,1c0,0.6,0.1,1,0.4,1.4
	c0.2,0.4,0.6,0.5,0.9,0.6l0,0h0h0l0,0l0,0h0h0h0h0l0,0c0,0,0,0,0,0h0l0.5,0l0.1,0l0.1,0l0.1,0l0.1,0l0.1,0l0.1,0l0.1,0l0.1,0l0.1,0
	l0.1,0l0.1,0l0.1,0l0.1,0l0.1-0.1l0.1-0.1l0-0.1l0-0.1h0l0,0l0,0l0,0l0,0l0,0l0,0l0,0l0,0l0,0l0,0l0,0l0,0l0,0l0,0l0,0l0,0l0,0l0,0
	l0,0l0,0l0,0l0,0l0,0l0,0l0,0l0,0l0,0l0,0l0-0.1l0,0l0-0.1l0,0l0-0.1l0,0l0-0.1l0-0.1l0-0.1V4L49.2,3.9L49.2,3.9z M47.6,6.1
	C47.6,6.1,47.6,6.1,47.6,6.1L47.6,6.1L47.6,6.1C47.5,6.1,47.6,6.1,47.6,6.1L47.6,6.1C47.6,6.1,47.6,6.1,47.6,6.1L47.6,6.1L47.6,6.1z
	"/>
<path class="st0" d="M59.7,2.1L59.7,2.1l0-0.1l0-0.1l0-0.1l0-0.1l0-0.1l0,0l0-0.1l0,0l0,0l0,0l0,0l0,0l0,0l0,0l0,0l0,0l0,0l0,0l0,0
	l0,0l0,0l0,0l0,0l0,0l0,0l0,0l0,0l0,0l0,0l-0.3,0l0,0l0.3,0l0-0.1l0-0.1l0-0.1l0-0.1l0-0.1l0,0l0,0l0,0l0,0l0,0l0,0l0,0l0,0l0,0l0,0
	l-0.1,0l-0.6,0l0.1,0l0,0l0,0l0,0c-0.1,0-0.1,0-0.2,0c-0.3,0-0.5,0.2-0.7,0.6c0,0,0,0.1-0.1,0.2c0,0,0,0.1-0.1,0.1
	c-0.2,0.4-0.3,0.8-0.3,1.4c0,0.6,0.1,1,0.3,1.4c0.2,0.4,0.4,0.6,0.7,0.6h0h0l0,0l0,0l0.6,0l0.1,0l0,0l0,0l0,0l0,0l0,0l0,0l0,0l0,0
	l0,0l0,0l0-0.1l0-0.1l0-0.1l0-0.1l0-0.1h0l0,0l0,0l0,0l0,0l0,0l0-0.1l0,0v0l0,0l0,0l0,0l0,0l0,0l0,0l0,0l0,0l0,0l0,0l0,0l0,0l0,0
	l0,0l0,0l0,0l0,0l0,0l0,0l0,0l0,0l0,0l0-0.1l0,0l0-0.1l0-0.1l0-0.1l0-0.1l0-0.1l0-0.1l0-0.1l0-0.1V2.2L59.7,2.1L59.7,2.1z M58.9,1
	L58.9,1L58.9,1L58.9,1L58.9,1z M58.4,0.3L58.4,0.3L58.4,0.3l0.1,0.1l0,0l0,0l0,0l0,0l0,0C58.6,0.4,58.5,0.3,58.4,0.3L58.4,0.3z
	 M58.2,4.4L58.2,4.4L58.2,4.4L58.2,4.4L58.2,4.4C58.2,4.4,58.2,4.4,58.2,4.4L58.2,4.4L58.2,4.4L58.2,4.4z M58.4,4.3L58.4,4.3
	L58.4,4.3l-0.1,0.1l0,0C58.3,4.3,58.4,4.3,58.4,4.3L58.4,4.3C58.4,4.3,58.4,4.3,58.4,4.3L58.4,4.3C58.5,4.2,58.5,4.2,58.4,4.3
	L58.4,4.3L58.4,4.3L58.4,4.3z"/>
<path class="st0" d="M27.1,10.9c0-1.1-0.8-2-1.9-2c-0.7,0-1.3,0.4-1.7,1c-0.2,0.3-0.4,0.7-0.4,1.1c0,1.1,0.8,2,1.9,2
	c0.7,0,1.3-0.4,1.6-0.9C27,11.8,27.1,11.4,27.1,10.9z"/>
<path class="st0" d="M38.2,7.1c0-1.1-0.8-2-1.9-2c0,0,0,0-0.1,0c0,0-0.1,0-0.1,0c-0.7,0-1.3,0.4-1.6,1.1c-0.2,0.3-0.3,0.7-0.3,1.1
	c0,1.1,0.8,2,1.7,2c0,0,0.1,0,0.1,0l0,0c0.7,0,1.4-0.4,1.7-1C38.1,7.9,38.2,7.6,38.2,7.1z M36.1,9.3c0.2,0,0.4-0.1,0.6-0.2
	C36.5,9.2,36.3,9.3,36.1,9.3L36.1,9.3z M36.1,9.3L36.1,9.3L36.1,9.3c0.3,0,0.5-0.1,0.8-0.3l0,0C36.7,9.2,36.4,9.3,36.1,9.3z"/>
<path class="st0" d="M89.7,3.6c0-0.6-0.1-1-0.4-1.4c-0.3-0.4-0.6-0.5-1-0.5c-0.3,0-0.6,0.1-0.8,0.3l0,0l0,0l0.1,0l0.1,0l0.1,0l0.1,0
	l0.1,0l0.1,0l0.1,0l0.1,0l0.1,0l0.1,0l-0.5,0l-0.1,0l-0.1,0l-0.1,0l-0.1,0l-0.1,0l-0.1,0l-0.1,0l-0.1,0l-0.1,0l-0.1,0L87,2L87,2
	l-0.1,0.1l0,0.1l0,0.1l0.1,0l0,0l-0.1,0l0,0l0,0l0,0l0,0l0,0l0,0l0,0l0,0l0,0l0,0l0,0l0,0l0,0l0,0l0,0l0,0l0,0l0,0l0,0l0,0l0,0l0,0
	l0,0l0,0l0,0l0,0l0,0l0,0l0,0l0,0l0,0l0,0l0,0l0,0.1l0,0l0,0.1l0,0l0,0.1v0.1v0.1l0,0.1l0,0.1l0,0.1l0,0.1l0,0.1l0,0.1l0,0.1l0,0
	l0,0.1l0,0l0,0l0,0l0,0l0,0l0,0l0,0l0,0l0,0l0,0l0,0l0,0l0,0l0,0l0,0l0,0l0,0l0,0l0,0l0,0l0,0l0,0h0l0,0.1l0,0.1l0.1,0.1l0.1,0.1
	L87,5.5l0.1,0l0.1,0l0.1,0l0.1,0l0.1,0l0.1,0l0.1,0l0.1,0l0.1,0l0.1,0l0.1,0l0.1,0l0.5,0h0h0c0,0,0,0,0,0l0,0h0h0l0,0
	c0.4,0,0.7-0.2,0.9-0.6c0-0.1,0.1-0.1,0.1-0.2c0,0,0,0,0,0C89.6,4.6,89.7,4.1,89.7,3.6z M87.2,2.5C87.2,2.5,87.2,2.4,87.2,2.5
	C87.2,2.4,87.2,2.4,87.2,2.5C87.2,2.4,87.2,2.5,87.2,2.5z M87.1,2.6L87.1,2.6C87.2,2.6,87.2,2.6,87.1,2.6L87.1,2.6L87.1,2.6
	C87.2,2.6,87.2,2.6,87.1,2.6L87.1,2.6L87.1,2.6L87.1,2.6L87.1,2.6C87.2,2.6,87.2,2.6,87.1,2.6L87.1,2.6C87.1,2.6,87.1,2.6,87.1,2.6
	L87.1,2.6L87.1,2.6z M87.2,5L87.2,5L87.2,5L87.2,5L87.2,5z M87.9,5.7C87.9,5.7,87.9,5.7,87.9,5.7L87.9,5.7L87.9,5.7
	C87.8,5.7,87.8,5.7,87.9,5.7L87.9,5.7C87.9,5.7,87.9,5.7,87.9,5.7L87.9,5.7L87.9,5.7z"/>
<path class="st0" d="M77.9,2c0-0.6-0.1-1.1-0.3-1.4C77.5,0.2,77.2,0,77,0c-0.1,0-0.1,0-0.2,0l0,0l0,0l0,0L77,0l-0.6,0l-0.1,0l0,0
	l0,0l0,0l0,0l0,0l0,0l0,0l0,0l0,0l0,0l0,0.1l0,0.1l0,0.1l0,0.1l0,0.1h0l0,0l0,0l0,0l0,0l0,0l0,0l0,0l0,0l0,0v0l0,0l0,0l0,0l0,0l0,0
	l0,0l0,0l0,0l0,0l0,0l0,0l0,0l0,0l0,0l0,0l0,0l0,0l0,0l0,0l0,0l0,0l0,0l0,0l0,0l0,0l0,0l0,0.1l0,0.1l0,0.1l0,0.1l0,0.1l0,0.1v0.1
	v0.1l0,0.1l0,0.1l0,0.1l0,0.1l0,0.1l0,0.1l0,0.1l0,0l0,0.1l0,0l0,0l0,0l0,0l0,0l0,0l0,0l0,0l0,0l0,0l0,0l0,0l0,0l0,0l0,0l0,0l0,0
	l0,0l0,0l0,0l0,0l0,0h0l0,0.1l0,0.1l0,0.1l0,0.1l0,0l0,0l0,0l0,0l0,0l0,0l0,0l0,0l0,0l0,0l0,0h0.1l0.6,0l0,0c0,0,0,0,0,0h0h0
	c0.3,0,0.5-0.2,0.7-0.6c0,0,0-0.1,0-0.1c0,0,0.1-0.1,0.1-0.1C77.8,3,77.9,2.5,77.9,2z M76.3,0.7C76.3,0.7,76.3,0.7,76.3,0.7
	L76.3,0.7L76.3,0.7L76.3,0.7C76.3,0.7,76.3,0.7,76.3,0.7z M76.5,0.2L76.5,0.2L76.5,0.2l0.1-0.1l0,0l0,0l0,0
	C76.7,0.1,76.6,0.2,76.5,0.2L76.5,0.2L76.5,0.2L76.5,0.2z M76.5,4.1C76.5,4.1,76.5,4.1,76.5,4.1L76.5,4.1
	C76.5,4.1,76.5,4.1,76.5,4.1L76.5,4.1C76.5,4.1,76.5,4.1,76.5,4.1L76.5,4.1L76.5,4.1L76.5,4.1L76.5,4.1z M76.7,4.2L76.7,4.2
	L76.7,4.2L76.7,4.2L76.7,4.2L76.7,4.2L76.7,4.2z"/>
<path class="st0" d="M111.2,10.9c0-1.1-0.9-2-1.9-2c-0.7,0-1.3,0.4-1.6,1c-0.2,0.3-0.4,0.7-0.4,1.1c0,1.1,0.9,2,1.9,2
	c0.7,0,1.3-0.4,1.6-0.9C111,11.7,111.2,11.3,111.2,10.9z"/>
<path class="st0" d="M101.3,6.9c0-1.1-0.8-2-1.8-2c0,0-0.1,0-0.1,0c0,0,0,0-0.1,0c-0.8,0-1.5,0.5-1.7,1.2c-0.2,0.3-0.2,0.6-0.2,1
	c0,1.1,0.9,2,1.9,2l0,0c0,0,0.1,0,0.1,0c0.7,0,1.2-0.4,1.5-1C101.1,7.8,101.3,7.4,101.3,6.9z M98.2,8.5C98.2,8.5,98.2,8.5,98.2,8.5
	C98.2,8.5,98.2,8.5,98.2,8.5L98.2,8.5z M98.2,8.5c0.3,0.3,0.7,0.6,1.1,0.6l0.1,0l-0.1,0C98.8,9.1,98.4,8.8,98.2,8.5z"/>
</svg>
