<?xml version="1.0" encoding="UTF-8"?>
<svg width="120px" height="28px" viewBox="0 0 120 28" version="1.1" xmlns="http://www.w3.org/2000/svg" xmlns:xlink="http://www.w3.org/1999/xlink">
    <!-- Generator: sketchtool 51.2 (57519) - http://www.bohemiancoding.com/sketch -->
    <title>C58BCB06-E2C7-45CA-995D-8C3DB9201436</title>
    <desc>Created with sketchtool.</desc>
    <defs></defs>
    <g id="Page-1" stroke="none" stroke-width="1" fill="none" fill-rule="evenodd">
        <g id="Wiconnect-careers" transform="translate(-40.000000, -20.000000)">
            <g id="logo" transform="translate(40.000000, 20.000000)">
                <path d="M67.2281436,-1.42108547e-14 L67.5672597,-1.42108547e-14 C67.6657127,-1.42108547e-14 67.7462652,0.082313253 67.7462652,0.179807229 L67.7462652,3.75368675 C67.7462652,3.85387952 67.6657127,3.93349398 67.5672597,3.93349398 L67.2281436,3.93349398 C67.1296906,3.93349398 67.0511271,3.85387952 67.0511271,3.75368675 L67.0511271,0.179807229 C67.0511271,0.082313253 67.1296906,-1.42108547e-14 67.2281436,-1.42108547e-14" id="Fill-1" fill="#9E7F0F"></path>
                <polygon id="Fill-3" fill="#9E7F0F" points="48.1856685 5.62044337 48.7157238 5.66126265 48.6663315 5.72637108 48.6172707 5.78810602 48.5652265 5.84410602 48.5101989 5.89706988 48.4551713 5.94733494 48.3974917 5.99152771 48.3391492 6.03302169 48.2751713 6.06810602 48.2145083 6.10116627 48.1482099 6.13051566 48.0809171 6.15413012 48.0119669 6.17133494 47.9423536 6.18617831 47.8697569 6.19798554 47.7971602 6.20405783 47.7219116 6.20709398 47.646663 6.20405783 47.1136243 6.1656 47.1885414 6.16863614 47.264453 6.1656 47.3393702 6.15986506 47.4122983 6.14772048 47.4812486 6.13321446 47.5508619 6.11533494 47.6178232 6.09172048 47.6811381 6.06237108 47.745116 6.03032289 47.8061105 5.99456386 47.8667735 5.95340723 47.9247845 5.90921446 47.9798122 5.8589494 48.0351713 5.80598554 48.0872155 5.74998554 48.1362762 5.68791325"></polygon>
                <polygon id="Fill-5" fill="#9E7F0F" points="47.2644199 2.28530602 47.7971271 2.32342651 47.8697238 2.33253494 47.9423204 2.34130602 48.0119337 2.3561494 48.080884 2.37335422 48.1481768 2.39696867 48.2144751 2.42665542 48.2751381 2.45634217 48.339116 2.49176386 48.3974586 2.53292048 48.4551381 2.5767759 48.5101657 2.62400482 48.5651934 2.67730602 48.6172376 2.73364337 48.6662983 2.79537831 48.7156906 2.86048675 48.1856354 2.82169157 48.1365746 2.75725783 48.0871823 2.69518554 48.0351381 2.63918554 47.979779 2.58622169 47.9247514 2.53899277 47.8670718 2.49446265 47.8064088 2.45364337 47.7450829 2.41788434 47.681105 2.3854988 47.6177901 2.35918554 47.5508287 2.33557108 47.4812155 2.31769157 47.4122652 2.30318554 47.339337 2.29104096"></polygon>
                <polygon id="Fill-7" fill="#9E7F0F" points="48.1856685 2.82179277 48.7157238 2.8602506 48.7389282 2.89567229 48.7621326 2.93075663 48.785337 2.96651566 48.805558 3.0016 48.8261105 3.03735904 48.8463315 3.07244337 48.866221 3.1109012 48.8837901 3.14902169 48.9013591 3.18781687 48.9182652 3.22863614 48.9331823 3.26709398 48.9507514 3.30858795 48.964674 3.34974458 48.9795912 3.3909012 48.9915249 3.43205783 49.0027956 3.4762506 49.0140663 3.52078072 49.026 3.56497349 49.0379337 3.60950361 49.046221 3.65335904 49.0548398 3.70058795 49.0604751 3.74781687 49.0690939 3.79504578 49.0750608 3.8422747 49.0810276 3.89253976 49.0869945 3.93976867 49.0899779 3.98969639 49.0926298 4.03996145 49.0956133 4.0929253 49.0982652 4.14319036 49.0982652 4.19615422 49.0982652 4.24911807 49.0982652 4.30208193 49.0982652 4.35504578 49.0956133 4.40531084 49.0926298 4.4582747 49.0899779 4.50853976 49.0869945 4.55846747 49.0810276 4.60873253 49.0750608 4.65866024 49.0690939 4.70588916 49.0604751 4.75615422 49.0548398 4.80338313 49.046221 4.85061205 49.0379337 4.89514217 49.026 4.94169639 49.0140663 4.98622651 49.0027956 5.03041928 48.9915249 5.0749494 48.9795912 5.11914217 48.964674 5.15996145 48.9507514 5.20145542 48.9331823 5.24261205 48.9182652 5.28410602 48.9013591 5.3256 48.8837901 5.36338313 48.866221 5.40487711 48.8463315 5.44299759 48.8261105 5.47875663 48.805558 5.51687711 48.785337 5.55533494 48.7621326 5.59041928 48.7389282 5.62617831 48.7157238 5.66126265 48.1856685 5.62044337 48.2088729 5.58772048 48.2317459 5.55263614 48.2552818 5.51384096 48.2751713 5.47875663 48.2960552 5.4402988 48.3159448 5.40487711 48.3335138 5.36641928 48.3537348 5.3256 48.3709724 5.28680482 48.3885414 5.24598554 48.4031271 5.20449157 48.4200331 5.16299759 48.4349503 5.12217831 48.4465525 5.07764819 48.4608066 5.03615422 48.4720773 4.99196145 48.484011 4.94810602 48.4959448 4.9035759 48.5045635 4.85634699 48.5128508 4.80911807 48.524453 4.76526265 48.5304199 4.71533494 48.5390387 4.66810602 48.545337 4.62087711 48.5509724 4.57061205 48.5536243 4.52034699 48.5592597 4.47041928 48.5622431 4.42015422 48.5652265 4.36719036 48.5652265 4.3169253 48.5678785 4.26396145 48.5678785 4.21066024 48.5678785 4.15735904 48.5652265 4.10439518 48.5652265 4.05143133 48.5622431 4.00116627 48.5592597 3.95123855 48.5536243 3.90097349 48.5509724 3.85374458 48.545337 3.80381687 48.5390387 3.75658795 48.5304199 3.70969639 48.524453 3.66246747 48.5128508 3.61523855 48.5045635 3.57104578 48.4959448 3.52651566 48.484011 3.48232289 48.4720773 3.43846747 48.4608066 3.39393735 48.4465525 3.35244337 48.4349503 3.3116241 48.4200331 3.27013012 48.4031271 3.22863614 48.3885414 3.19051566 48.3709724 3.14902169 48.3537348 3.1109012 48.3335138 3.07244337 48.3159448 3.03432289 48.2960552 2.99856386 48.2751713 2.96044337 48.2552818 2.92502169 48.2317459 2.8896 48.2088729 2.85755181"></polygon>
                <path d="M47.1886409,6.16846747 C46.7858785,6.16846747 46.4557127,5.97988916 46.1948287,5.60273253 C45.9399116,5.22220241 45.8126188,4.75902169 45.8126188,4.21049157 C45.8126188,3.64172048 45.9399116,3.18123855 46.1948287,2.8216241 C46.4557127,2.46234699 46.7858785,2.28253976 47.1886409,2.28253976 C47.5973702,2.28253976 47.9305193,2.46234699 48.185768,2.8216241 C48.4403536,3.18123855 48.5679779,3.64172048 48.5679779,4.21049157 C48.5679779,4.77993735 48.4403536,5.25458795 48.185768,5.6202747 C47.9305193,5.98596145 47.5973702,6.16846747 47.1886409,6.16846747" id="Fill-9" fill="#FFCB05"></path>
                <polygon id="Fill-11" fill="#9E7F0F" points="58.0746961 0.459840964 58.6511602 0.471985542 58.7032044 0.471985542 58.7525967 0.480419277 58.8016575 0.489190361 58.8480663 0.504033735 58.8944751 0.524949398 58.940884 0.548563855 58.9846409 0.574877108 59.0254144 0.607262651 59.0655249 0.643021687 59.1062983 0.683840964 59.1467403 0.728371084 59.1845304 0.778298795 59.2196685 0.8316 59.2541436 0.887262651 59.2886188 0.949672289 59.3207735 1.01714217 58.7439779 1.00533494 58.7095028 0.940563855 58.6776796 0.878828916 58.6425414 0.819792771 58.6047514 0.766491566 58.5672928 0.716226506 58.5298343 0.672371084 58.4890608 0.633913253 58.4482873 0.595792771 58.4048619 0.56306988 58.361105 0.536419277 58.318011 0.512804819 58.2716022 0.492563855 58.2225414 0.480419277 58.1761326 0.468949398 58.1267403 0.462877108"></polygon>
                <polygon id="Fill-13" fill="#9E7F0F" points="58.7439779 1.00550361 59.3207735 1.01697349 59.3350276 1.04969639 59.3525967 1.08511807 59.3671823 1.12020241 59.3814365 1.15866024 59.3956906 1.19408193 59.4076243 1.23253976 59.4222099 1.27066024 59.4334807 1.30911807 59.4450829 1.3475759 59.4566851 1.38873253 59.4686188 1.42719036 59.4772376 1.46834699 59.4885083 1.50984096 59.4971271 1.55403373 59.5060773 1.59485301 59.5150276 1.63938313 59.520663 1.6835759 59.5292818 1.72810602 59.5349171 1.77533494 59.5405525 1.81919036 59.5465193 1.86641928 59.5524862 1.91364819 59.5581215 1.96087711 59.5614365 2.01114217 59.5644199 2.06106988 59.5700552 2.1082988 59.5730387 2.16126265 59.5730387 2.21152771 59.5756906 2.26179277 59.5756906 2.31475663 59.578674 2.36772048 59.578674 2.42068434 59.578674 2.47364819 59.5756906 2.52661205 59.5756906 2.5802506 59.5730387 2.63321446 59.5730387 2.68617831 59.5700552 2.73644337 59.5644199 2.78670843 59.5614365 2.83663614 59.5581215 2.88386506 59.5524862 2.93413012 59.5465193 2.98068434 59.5405525 3.0282506 59.5349171 3.07514217 59.5292818 3.12270843 59.520663 3.16993735 59.5150276 3.21413012 59.5060773 3.25866024 59.4971271 3.30251566 59.4885083 3.34367229 59.4772376 3.38820241 59.4686188 3.42902169 59.4566851 3.47051566 59.4450829 3.51200964 59.4334807 3.55316627 59.4222099 3.5916241 59.4076243 3.62974458 59.3956906 3.66820241 59.3814365 3.70632289 59.3671823 3.74478072 59.3525967 3.78020241 59.3350276 3.8156241 59.3207735 3.85104578 58.7439779 3.83923855 58.7585635 3.80381687 58.7734807 3.76839518 58.7874033 3.73297349 58.8016575 3.69485301 58.8165746 3.65605783 58.8311602 3.62097349 58.8424309 3.57947952 58.8537017 3.54135904 58.8656354 3.49986506 58.8775691 3.45904578 58.8888398 3.41755181 58.900442 3.37605783 58.9093923 3.33523855 58.9176796 3.29070843 58.9269613 3.24651566 58.9352486 3.20198554 58.9438674 3.15813012 58.9495028 3.1109012 58.958453 3.06670843 58.9640884 3.01947952 58.9703867 2.9722506 58.9760221 2.92198554 58.9790055 2.87475663 58.9846409 2.82482892 58.9872928 2.77456386 58.9902762 2.7242988 58.9932597 2.67437108 58.9959116 2.62140723 58.9959116 2.57114217 58.998895 2.51817831 58.998895 2.46521446 58.998895 2.40921446 58.998895 2.3562506 58.998895 2.3029494 58.9959116 2.25302169 58.9959116 2.19938313 58.9932597 2.14945542 58.9902762 2.09919036 58.9872928 2.04926265 58.9846409 1.99899759 58.9790055 1.95210602 58.9760221 1.90217831 58.9703867 1.8549494 58.9640884 1.81041928 58.958453 1.76319036 58.9495028 1.71899759 58.9438674 1.67176867 58.9352486 1.62791325 58.9269613 1.58641928 58.9176796 1.54188916 58.9093923 1.50106988 58.900442 1.4595759 58.8888398 1.41808193 58.8775691 1.37726265 58.8656354 1.33576867 58.8537017 1.29764819 58.8424309 1.25919036 58.8311602 1.22039518 58.8165746 1.1822747 58.8016575 1.14719036 58.7874033 1.11143133 58.7734807 1.07331084 58.7585635 1.04058795"></polygon>
                <polygon id="Fill-15" fill="#9E7F0F" points="58.7439779 3.83933976 59.3207735 3.85080964 59.2886188 3.91895422 59.2541436 3.98068916 59.2196685 4.0397253 59.1845304 4.09302651 59.1467403 4.14295422 59.1062983 4.18680964 59.0655249 4.22830361 59.0254144 4.26676145 58.9846409 4.29914699 58.940884 4.32579759 58.8944751 4.34941205 58.8480663 4.36999036 58.8016575 4.38449639 58.7525967 4.39664096 58.7032044 4.4023759 58.6511602 4.4050747 58.0746961 4.39360482 58.1267403 4.39090602 58.1761326 4.38449639 58.2225414 4.37302651 58.2716022 4.35784578 58.318011 4.34064096 58.361105 4.31702651 58.4048619 4.28700241 58.4482873 4.25495422 58.4890608 4.21683373 58.5298343 4.1783759 58.5672928 4.13080964 58.6047514 4.08088193 58.6425414 4.02791807 58.6776796 3.96888193 58.7095028 3.90680964"></polygon>
                <path d="M58.0746961,4.39370602 C57.8022099,4.39370602 57.5820994,4.20479036 57.4083978,3.8185253 C57.2373481,3.43529639 57.1504972,2.96638072 57.1504972,2.40907952 C57.1504972,1.83693494 57.2373481,1.36801928 57.4083978,1.00536867 C57.5820994,0.643055422 57.8022099,0.459874699 58.0746961,0.459874699 C58.3498343,0.459874699 58.5735912,0.643055422 58.7439779,1.00536867 C58.9150276,1.36801928 58.998895,1.83693494 58.998895,2.40907952 C58.998895,2.98999518 58.9150276,3.46768193 58.7439779,3.83944096 C58.5735912,4.20748916 58.3498343,4.39370602 58.0746961,4.39370602" id="Fill-17" fill="#FFCB05"></path>
                <polygon id="Fill-19" fill="#9E7F0F" points="87.2728508 5.24878554 86.7427956 5.28690602 86.7921878 5.35201446 86.8412486 5.4137494 86.8936243 5.47278554 86.9483204 5.52608675 87.0033481 5.57601446 87.0610276 5.62054458 87.1223536 5.66136386 87.1833481 5.69644819 87.2469945 5.72950843 87.3103094 5.75582169 87.3769392 5.77943614 87.4465525 5.80035181 87.5164972 5.81485783 87.5887624 5.82396627 87.664011 5.8324 87.7395912 5.8324 87.8148398 5.8324 88.344895 5.79394217 88.2693149 5.79394217 88.1940663 5.79394217 88.1188177 5.78517108 88.046221 5.77673735 87.9772707 5.76155663 87.9069945 5.74097831 87.8406961 5.71736386 87.7773812 5.69071325 87.7134033 5.65866506 87.6524088 5.62054458 87.5917459 5.5817494 87.5337348 5.53452048 87.4783757 5.48729157 87.4233481 5.43432771 87.3713039 5.37562892 87.3222431 5.31321928"></polygon>
                <polygon id="Fill-21" fill="#9E7F0F" points="88.1941326 1.91364819 87.6640773 1.95210602 87.5888287 1.95784096 87.516232 1.96661205 87.4466188 1.98449157 87.3770055 2.00237108 87.3103757 2.02531084 87.2467293 2.0522988 87.1834144 2.08468434 87.1220884 2.12010602 87.0610939 2.16126265 87.0034144 2.20275663 86.9483867 2.25302169 86.8933591 2.30598554 86.8413149 2.36198554 86.7922541 2.42372048 86.7428619 2.48882892 87.2729171 2.45003373 87.3219779 2.3856 87.3713702 2.32352771 87.4234144 2.26752771 87.478442 2.21456386 87.5338011 2.1642988 87.5914807 2.12010602 87.6521436 2.08198554 87.7134696 2.04622651 87.7774475 2.01384096 87.8407624 1.98752771 87.9070608 1.96391325 87.977337 1.94299759 88.0462873 1.92849157 88.118884 1.91938313"></polygon>
                <polygon id="Fill-23" fill="#9E7F0F" points="87.2728508 2.45016867 86.7427956 2.48862651 86.7192597 2.52101205 86.6963867 2.55677108 86.6761657 2.59185542 86.6529613 2.62693976 86.6324088 2.6626988 86.6121878 2.70081928 86.5949503 2.73927711 86.5743978 2.77739759 86.5571602 2.81619277 86.5395912 2.8546506 86.5250055 2.89546988 86.507768 2.93426506 86.4964972 2.97508434 86.4819116 3.01657831 86.467326 3.06077108 86.4557238 3.10462651 86.444453 3.14612048 86.4325193 3.1906506 86.4235691 3.23787952 86.4149503 3.28173494 86.406663 3.32896386 86.3980442 3.37315663 86.3890939 3.42342169 86.3834586 3.4706506 86.3771602 3.51787952 86.3745083 3.56814458 86.3685414 3.61807229 86.3658895 3.66833735 86.3629061 3.71826506 86.3629061 3.77156627 86.3602541 3.82149398 86.3602541 3.87445783 86.3602541 3.92742169 86.3629061 3.98072289 86.3629061 4.03368675 86.3658895 4.08361446 86.3685414 4.13691566 86.3745083 4.18684337 86.3771602 4.23710843 86.3834586 4.28433735 86.3890939 4.33426506 86.3980442 4.38149398 86.406663 4.42906024 86.4149503 4.47628916 86.4235691 4.52351807 86.4325193 4.56771084 86.444453 4.61156627 86.4557238 4.65879518 86.467326 4.70028916 86.4819116 4.74448193 86.4964972 4.7886747 86.507768 4.82983133 86.5250055 4.8713253 86.5395912 4.91248193 86.5571602 4.95093976 86.5743978 4.99175904 86.5949503 5.03055422 86.6121878 5.06901205 86.6324088 5.10713253 86.6529613 5.14559036 86.6761657 5.18101205 86.6963867 5.21609639 86.7192597 5.25185542 86.7427956 5.28693976 87.2728508 5.24881928 87.2496464 5.21306024 87.226442 5.1779759 87.206221 5.14221687 87.1833481 5.10409639 87.1624641 5.06901205 87.1425746 5.03055422 87.1250055 4.99175904 87.1047845 4.9539759 87.087547 4.91248193 87.0729613 4.87436145 87.0553923 4.83286747 87.0411381 4.79137349 87.0265525 4.74751807 87.0119669 4.7060241 86.9977127 4.66183133 86.986442 4.6179759 86.9745083 4.57344578 86.965558 4.52925301 86.9539558 4.48472289 86.9456685 4.43749398 86.9370497 4.39093976 86.9280994 4.34371084 86.9218011 4.29648193 86.9161657 4.24621687 86.9105304 4.19595181 86.904895 4.14872289 86.8992597 4.09575904 86.8962762 4.04583133 86.8936243 3.99556627 86.8936243 3.94260241 86.8906409 3.88963855 86.8906409 3.836 86.8906409 3.78303614 86.8936243 3.73007229 86.8936243 3.67980723 86.8962762 3.62954217 86.8992597 3.57961446 86.904895 3.5293494 86.9105304 3.47942169 86.9161657 3.43219277 86.9218011 3.38192771 86.9280994 3.33503614 86.9370497 3.28780723 86.9456685 3.24361446 86.9539558 3.19638554 86.965558 3.15185542 86.9745083 3.10833735 86.986442 3.06380723 86.9977127 3.02231325 87.0119669 2.97812048 87.0265525 2.93696386 87.0411381 2.89546988 87.0553923 2.8573494 87.0729613 2.81619277 87.087547 2.77739759 87.1047845 2.73657831 87.1250055 2.70081928 87.1425746 2.6626988 87.1624641 2.62424096 87.1833481 2.58881928 87.206221 2.55373494 87.226442 2.5179759 87.2496464 2.48289157"></polygon>
                <path d="M88.2694475,5.7939759 C88.6725414,5.7939759 89.0027072,5.60843373 89.2635912,5.22824096 C89.5185083,4.84771084 89.6487845,4.38756627 89.6487845,3.836 C89.6487845,3.26992771 89.5185083,2.80742169 89.2635912,2.45016867 C89.0027072,2.09055422 88.6725414,1.91074699 88.2694475,1.91074699 C87.8607182,1.91074699 87.5275691,2.09055422 87.2729834,2.45016867 C87.0177348,2.80742169 86.8907735,3.26992771 86.8907735,3.836 C86.8907735,4.40814458 87.0177348,4.88009639 87.2729834,5.24881928 C87.5275691,5.61113253 87.8607182,5.7939759 88.2694475,5.7939759" id="Fill-25" fill="#FFCB05"></path>
                <path d="M107.259845,10.9955325 C107.259845,9.91061687 108.094541,9.03755663 109.137414,9.03755663 C110.203492,9.03755663 111.081282,9.91061687 111.081282,10.9955325 C111.081282,12.0804482 110.249901,12.9535084 109.183823,12.9535084 C108.117083,12.9535084 107.259845,12.0804482 107.259845,10.9955325" id="Fill-27" fill="#FFCB05"></path>
                <polygon id="Fill-29" fill="#9E7F0F" points="76.8652044 0.259354217 76.2854254 0.268462651 76.2360331 0.271498795 76.1869724 0.277233735 76.1375801 0.288703614 76.0911713 0.303546988 76.0447624 0.321426506 75.9983536 0.345040964 75.9552597 0.374390361 75.9144862 0.404077108 75.8713923 0.44253494 75.8336022 0.483354217 75.7928287 0.527884337 75.7553702 0.575113253 75.720895 0.628077108 75.6857569 0.686775904 75.6506188 0.749185542 75.6191271 0.813619277 76.1955912 0.804848193 76.2303978 0.737040964 76.262884 0.675306024 76.2966961 0.619306024 76.3348177 0.566004819 76.3726077 0.515739759 76.4100663 0.471884337 76.4508398 0.430390361 76.4909503 0.395306024 76.5347072 0.362583133 76.5781326 0.33593253 76.6218895 0.312318072 76.6682983 0.292077108 76.7147072 0.277233735 76.763768 0.265089157 76.8131602 0.259354217"></polygon>
                <polygon id="Fill-31" fill="#9E7F0F" points="76.1954254 0.804983133 75.6189613 0.813754217 75.6013923 0.849175904 75.5871381 0.88459759 75.572884 0.920019277 75.5582983 0.955440964 75.5437127 0.993898795 75.532442 1.02898313 75.5175249 1.06710361 75.5059227 1.1058988 75.4943204 1.14705542 75.4830497 1.1851759 75.471116 1.22666988 75.4628287 1.26782651 75.450895 1.30932048 75.4422762 1.35047711 75.4336575 1.39433253 75.4253702 1.43886265 75.4190718 1.48305542 75.410453 1.52758554 75.4044862 1.57144096 75.3958674 1.61866988 75.392884 1.6658988 75.3872486 1.71312771 75.3816133 1.76035663 75.3789613 1.80758554 75.372663 1.8578506 75.3696796 1.90777831 75.3670276 1.95804337 75.3640442 2.00797108 75.3640442 2.06127229 75.3613923 2.11423614 75.3613923 2.1672 75.3613923 2.22016386 75.3613923 2.27312771 75.3613923 2.32642892 75.3640442 2.37973012 75.3640442 2.43269398 75.3670276 2.48295904 75.3696796 2.53288675 75.372663 2.58618795 75.3789613 2.63341687 75.3816133 2.68334458 75.3872486 2.73360964 75.392884 2.78083855 75.3958674 2.82773012 75.4044862 2.87495904 75.410453 2.92218795 75.4190718 2.96638072 75.4253702 3.01091084 75.4336575 3.05476627 75.4422762 3.09895904 75.450895 3.14315181 75.4628287 3.18464578 75.471116 3.2285012 75.4830497 3.26999518 75.4943204 3.31148916 75.5059227 3.34960964 75.5175249 3.39110361 75.532442 3.4292241 75.5437127 3.46768193 75.5582983 3.50580241 75.572884 3.54156145 75.5871381 3.57664578 75.6013923 3.61510361 75.6189613 3.6505253 76.1954254 3.63871807 76.1811713 3.60329639 76.1669171 3.5678747 76.1490166 3.53245301 76.1347624 3.49433253 76.1234917 3.45553735 76.1085746 3.41741687 76.0969724 3.37895904 76.0827182 3.33813976 76.0714475 3.29934458 76.0595138 3.2585253 76.0505635 3.21703133 76.0389613 3.17553735 76.030674 3.13134458 76.0220552 3.09018795 76.013105 3.04599518 76.0044862 3.00146506 75.9955359 2.95423614 75.9899006 2.91038072 75.9812818 2.86315181 75.9756464 2.81592289 75.970011 2.76869398 75.9637127 2.72146506 75.9610608 2.67153735 75.9554254 2.62430843 75.9521105 2.57404337 75.9491271 2.52377831 75.9461436 2.47081446 75.9434917 2.42088675 75.9405083 2.36758554 75.9405083 2.31462169 75.9405083 2.26165783 75.9405083 2.20869398 75.9405083 2.15573012 75.9405083 2.10276627 75.9405083 2.04912771 75.9434917 1.99886265 75.9461436 1.9458988 75.9491271 1.89597108 75.9521105 1.84570602 75.9554254 1.79881446 75.9610608 1.74888675 75.9637127 1.70165783 75.970011 1.65442892 75.9756464 1.6072 75.9812818 1.55997108 75.9899006 1.51544096 75.9955359 1.47124819 76.0044862 1.42739277 76.013105 1.38286265 76.0220552 1.34136867 76.030674 1.29751325 76.0389613 1.25601928 76.0505635 1.21486265 76.0595138 1.17370602 76.0714475 1.13524819 76.0827182 1.09712771 76.0969724 1.05866988 76.1085746 1.0198747 76.1234917 0.981754217 76.1347624 0.943971084 76.1490166 0.908212048 76.1669171 0.872790361 76.1811713 0.837368675"></polygon>
                <polygon id="Fill-33" fill="#9E7F0F" points="76.1954254 3.63881928 75.6189613 3.65028916 75.6507845 3.71539759 75.6859227 3.77713253 75.7207293 3.83616867 75.7555359 3.89250602 75.792663 3.93973494 75.8334365 3.98628916 75.871558 4.02778313 75.9146519 4.06354217 75.9554254 4.09592771 75.9985193 4.12527711 76.0449282 4.14889157 76.091337 4.16677108 76.1377459 4.1839759 76.1868066 4.19308434 76.2361989 4.20185542 76.2852597 4.20185542 76.8650387 4.19308434 76.8129945 4.19038554 76.7639337 4.1839759 76.7145414 4.17250602 76.6681326 4.15766265 76.6217238 4.13674699 76.5782983 4.11380723 76.5345414 4.08681928 76.491116 4.05443373 76.450674 4.01631325 76.4099006 3.97481928 76.372442 3.93062651 76.3346519 3.88036145 76.2968619 3.82739759 76.2627182 3.76836145 76.2305635 3.70359036"></polygon>
                <path d="M76.8652044,4.19315181 C77.1343757,4.19315181 77.3578011,4.0012 77.5311713,3.61797108 C77.7025525,3.23474217 77.7894033,2.76582651 77.7894033,2.2085253 C77.7894033,1.63368193 77.7025525,1.16746506 77.5311713,0.804814458 C77.3578011,0.439127711 77.1343757,0.259320482 76.8652044,0.259320482 C76.5894033,0.259320482 76.3669724,0.439127711 76.1955912,0.804814458 C76.0248729,1.16746506 75.940674,1.63368193 75.940674,2.2085253 C75.940674,2.78674217 76.0248729,3.26712771 76.1955912,3.63888675 C76.3669724,4.00423614 76.5894033,4.19315181 76.8652044,4.19315181" id="Fill-35" fill="#FFCB05"></path>
                <polygon id="Fill-37" fill="#000A2A" points="0 9.43856386 3.00497238 9.43856386 6.53966851 19.9449735 10.9846409 9.22940723 15.4266298 19.9449735 18.961326 9.43856386 21.9918232 9.43856386 15.8058564 27.885841 10.9846409 16.0674795 6.16044199 27.885841"></polygon>
                <polygon id="Fill-39" fill="#FFCB05" points="23.7103425 14.8320048 23.7103425 14.8320048 26.4889061 14.8320048 26.4889061 27.6796193 23.7103425 27.6796193"></polygon>
                <path d="M28.9376354,21.256959 C28.9376354,17.5063084 31.7161989,14.6256819 35.4540994,14.6256819 C37.4705635,14.6256819 39.113768,15.474453 40.2723315,16.7607663 L38.3805083,18.7389831 C37.7258122,17.9661157 36.7661436,17.3737301 35.4540994,17.3737301 C33.3066961,17.3737301 31.791779,19.0216819 31.791779,21.256959 C31.791779,23.4922361 33.3066961,25.1347904 35.4540994,25.1347904 C36.7661436,25.1347904 37.7258122,24.5447663 38.3805083,23.7756096 L40.2723315,25.7538265 C39.113768,27.0394651 37.4705635,27.8858747 35.4540994,27.8858747 C31.7161989,27.8858747 28.9376354,25.007947 28.9376354,21.256959" id="Fill-41" fill="#000A2A"></path>
                <path d="M41.208232,21.256959 C41.208232,17.5063084 43.9871271,14.6256819 47.7479006,14.6256819 C51.4858011,14.6256819 54.2905525,17.5063084 54.2905525,21.256959 C54.2905525,25.007947 51.4858011,27.8858747 47.7479006,27.8858747 C43.9871271,27.8858747 41.208232,25.007947 41.208232,21.256959 M51.4364088,21.256959 C51.4364088,19.0216819 49.8949724,17.3234651 47.7479006,17.3234651 C45.5782873,17.3234651 44.0623757,19.0216819 44.0623757,21.256959 C44.0623757,23.4922361 45.5782873,25.1877542 47.7479006,25.1877542 C49.8949724,25.1877542 51.4364088,23.4922361 51.4364088,21.256959" id="Fill-43" fill="#000A2A"></path>
                <path d="M56.7389834,14.8320048 L59.5152265,14.8320048 L59.5152265,16.0380289 C60.4016354,15.0620771 61.7401989,14.625547 63.0522431,14.625547 C66.1818564,14.625547 68.1754475,16.8372096 68.1754475,20.1513301 L68.1754475,27.6796193 L65.3998674,27.6796193 L65.3998674,20.2012578 C65.3998674,18.8184627 64.3914696,17.3236675 62.5195359,17.3236675 C61.1083757,17.3236675 60.0217459,18.0698843 59.5152265,19.5852578 L59.5152265,27.6796193 L56.7389834,27.6796193 L56.7389834,14.8320048 Z" id="Fill-45" fill="#000A2A"></path>
                <path d="M71.1310939,14.8320048 L73.9096575,14.8320048 L73.9096575,16.0380289 C74.7934144,15.0620771 76.1319779,14.625547 77.4443536,14.625547 C80.5739669,14.625547 82.5698785,16.8372096 82.5698785,20.1513301 L82.5698785,27.6796193 L79.7913149,27.6796193 L79.7913149,20.2012578 C79.7913149,18.8184627 78.7835801,17.3236675 76.9146298,17.3236675 C75.5001547,17.3236675 74.4135249,18.0698843 73.9096575,19.5852578 L73.9096575,27.6796193 L71.1310939,27.6796193 L71.1310939,14.8320048 Z" id="Fill-47" fill="#000A2A"></path>
                <path d="M84.7695912,21.256959 C84.7695912,17.5063084 87.5451713,14.6256819 91.2306961,14.6256819 C94.7395359,14.6256819 97.0894807,17.146694 97.2664972,21.256959 L97.2664972,22.0267904 L87.6466077,22.0267904 C87.9217459,23.852188 89.3876022,25.0848627 91.2827403,25.0848627 C92.795337,25.0848627 93.9084862,24.364959 94.5628508,23.6217783 L96.4321326,25.6505976 C95.3455028,26.9362361 93.5024088,27.8858747 91.2827403,27.8858747 C87.5451713,27.8858747 84.7695912,25.007947 84.7695912,21.256959 M87.7192044,19.8417783 L94.2094807,19.8417783 C93.8819669,18.0963325 92.6939006,17.2205735 91.0281547,17.2205735 C89.5384309,17.2205735 88.1769945,18.2258747 87.7192044,19.8417783" id="Fill-49" fill="#000A2A"></path>
                <path d="M98.932442,21.256959 C98.932442,17.5063084 101.711337,14.6256819 105.445591,14.6256819 C107.468354,14.6256819 109.107912,15.474453 110.270453,16.7607663 L108.375315,18.7389831 C107.720287,17.9661157 106.75863,17.3737301 105.445591,17.3737301 C103.301834,17.3737301 101.786254,19.0216819 101.786254,21.256959 C101.786254,23.4922361 103.301834,25.1347904 105.445591,25.1347904 C106.75863,25.1347904 107.720287,24.5447663 108.375315,23.7756096 L110.270453,25.7538265 C109.107912,27.0394651 107.468354,27.8858747 105.445591,27.8858747 C101.711337,27.8858747 98.932442,25.007947 98.932442,21.256959" id="Fill-51" fill="#000A2A"></path>
                <path d="M115.975127,23.1826506 L115.975127,17.3502169 L119.20916,17.3502169 L119.814464,14.8319036 L115.975127,14.8319036 L115.975127,10.9810602 L113.199547,10.9810602 L113.199547,14.8319036 L110.751149,14.8319036 L111.357116,17.3502169 L113.199547,17.3502169 L113.199547,23.7753735 C113.199547,26.2171084 114.639547,27.6795181 117.061757,27.6795181 L119.51347,27.6795181 L119.51347,25.0846265 L117.772144,25.0846265 C116.328829,25.0846265 115.975127,24.4946024 115.975127,23.1826506" id="Fill-53" fill="#000A2A"></path>
                <path d="M27.0108066,11.0664096 C27.0108066,9.98419277 26.1761105,9.11113253 25.1332376,9.11113253 C24.0664972,9.11113253 23.1860552,9.98419277 23.1860552,11.0664096 C23.1860552,12.1513253 24.0207514,13.0243855 25.0868287,13.0243855 C26.1529061,13.0243855 27.0108066,12.1513253 27.0108066,11.0664096" id="Fill-56" fill="#FFCB05"></path>
                <path d="M38.0820663,7.31862651 C38.0820663,6.2306747 37.2473702,5.35491566 36.2015138,5.35491566 C35.1321215,5.35491566 34.2486961,6.2306747 34.2486961,7.31862651 C34.2486961,8.40657831 35.0857127,9.28233735 36.155105,9.28233735 C37.2241657,9.28233735 38.0820663,8.40657831 38.0820663,7.31862651" id="Fill-58" fill="#9E7F0F"></path>
                <path d="M37.7287293,7.31862651 C37.7287293,6.2306747 36.9696133,5.35491566 36.021547,5.35491566 C35.0512707,5.35491566 34.2487293,6.2306747 34.2487293,7.31862651 C34.2487293,8.40657831 35.0081768,9.28233735 35.978453,9.28233735 C36.9490608,9.28233735 37.7287293,8.40657831 37.7287293,7.31862651" id="Fill-60" fill="#FFCB05"></path>
                <path d="M97.3243757,7.13595181 C97.3243757,6.04766265 98.1617238,5.17224096 99.2075801,5.17224096 C100.276641,5.17224096 101.160729,6.04766265 101.160729,7.13595181 C101.160729,8.22390361 100.32305,9.09966265 99.253989,9.09966265 C98.1845967,9.09966265 97.3243757,8.22390361 97.3243757,7.13595181" id="Fill-62" fill="#9E7F0F"></path>
                <path d="M97.6805967,7.13595181 C97.6805967,6.04766265 98.4397127,5.17224096 99.387116,5.17224096 C100.357724,5.17224096 101.160597,6.04766265 101.160597,7.13595181 C101.160597,8.22390361 100.401149,9.09966265 99.4308729,9.09966265 C98.4602652,9.09966265 97.6805967,8.22390361 97.6805967,7.13595181" id="Fill-64" fill="#FFCB05"></path>
            </g>
        </g>
    </g>
</svg>