<?xml version="1.0" encoding="UTF-8"?>
<svg width="120px" height="28px" viewBox="0 0 120 28" version="1.1" xmlns="http://www.w3.org/2000/svg" xmlns:xlink="http://www.w3.org/1999/xlink">
    <!-- Generator: Sketch 51.2 (57519) - http://www.bohemiancoding.com/sketch -->
    <title>logo_blue</title>
    <desc>Created with Sketch.</desc>
    <defs></defs>
    <g id="Page-1" stroke="none" stroke-width="1" fill="none" fill-rule="evenodd">
        <g id="Wiconnect-main-2.1" transform="translate(-40.000000, -20.000000)" fill="#2C334D">
            <g id="logo_blue" transform="translate(40.000000, 20.000000)">
                <polygon id="Fill-1" points="6.53966851 19.9783373 3.00464088 9.45438554 0 9.45438554 6.16143646 27.9323614 10.9843094 16.0940964 15.8058564 27.9323614 21.9931492 9.45438554 18.9623204 9.45438554 15.4276243 19.9783373 10.9843094 9.24759036"></polygon>
                <polygon id="Fill-2" points="23.7099448 27.7256 26.4885083 27.7256 26.4885083 14.8597687 23.7099448 14.8597687"></polygon>
                <path d="M28.9369392,21.2926843 C28.9369392,17.5356241 31.7158343,14.6499373 35.4534033,14.6499373 C37.4711934,14.6499373 39.1143978,15.5007325 40.2732928,16.7883952 L38.3798122,18.773359 C37.7247845,17.9964434 36.7661105,17.4057446 35.4534033,17.4057446 C33.3063315,17.4057446 31.7907514,19.0540337 31.7907514,21.2926843 C31.7907514,23.5316723 33.3063315,25.1796241 35.4534033,25.1796241 C36.7661105,25.1796241 37.7247845,24.5862265 38.3798122,23.8180819 L40.2732928,25.7969735 C39.1143978,27.0849735 37.4711934,27.9327325 35.4534033,27.9327325 C31.7158343,27.9327325 28.9369392,25.0497446 28.9369392,21.2926843" id="Fill-3"></path>
                <path d="M41.2091602,21.2926843 C41.2091602,17.5356241 43.9877238,14.6499373 47.7488287,14.6499373 C51.4863978,14.6499373 54.2898232,17.5356241 54.2898232,21.2926843 C54.2898232,25.0497446 51.4863978,27.9327325 47.7488287,27.9327325 C43.9877238,27.9327325 41.2091602,25.0497446 41.2091602,21.2926843 M51.4356796,21.2926843 C51.4356796,19.0540337 49.8955691,17.3527807 47.7488287,17.3527807 C45.5772265,17.3527807 44.0633039,19.0540337 44.0633039,21.2926843 C44.0633039,23.5316723 45.5772265,25.2298892 47.7488287,25.2298892 C49.8955691,25.2298892 51.4356796,23.5316723 51.4356796,21.2926843" id="Fill-5"></path>
                <path d="M56.7382541,14.8596337 L59.5154917,14.8596337 L59.5154917,16.0676819 C60.4005746,15.0870072 61.7391381,14.6501398 63.0518453,14.6501398 C66.182453,14.6501398 68.1760442,16.8651759 68.1760442,20.1850313 L68.1760442,27.7258024 L65.4001326,27.7258024 L65.4001326,20.2352964 C65.4001326,18.8501398 64.3904088,17.3526458 62.5201326,17.3526458 C61.1089724,17.3526458 60.0210166,18.1029108 59.5154917,19.617947 L59.5154917,27.7258024 L56.7382541,27.7258024 L56.7382541,14.8596337 Z" id="Fill-7"></path>
                <path d="M71.131326,14.8596337 L73.9085635,14.8596337 L73.9085635,16.0676819 C74.7923204,15.0870072 76.130884,14.6501398 77.4435912,14.6501398 C80.5741989,14.6501398 82.570442,16.8651759 82.570442,20.1850313 L82.570442,27.7258024 L79.7918785,27.7258024 L79.7918785,20.2352964 C79.7918785,18.8501398 78.7834807,17.3526458 76.9132044,17.3526458 C75.5007182,17.3526458 74.4140884,18.1029108 73.9085635,19.617947 L73.9085635,27.7258024 L71.131326,27.7258024 L71.131326,14.8596337 Z" id="Fill-9"></path>
                <path d="M84.7682652,21.2926843 C84.7682652,17.5356241 87.5455028,14.6499373 91.2310276,14.6499373 C94.7398674,14.6499373 97.0881547,17.1753349 97.2651713,21.2926843 L97.2651713,22.0635277 L87.6452818,22.0635277 C87.9224088,23.8919614 89.3882652,25.129359 91.2817459,25.129359 C92.7956685,25.129359 93.9084862,24.4057446 94.5631823,23.6615518 L96.4321326,25.6937446 C95.3455028,26.9814072 93.5027403,27.9327325 91.2817459,27.9327325 C87.5455028,27.9327325 84.7682652,25.0497446 84.7682652,21.2926843 M87.7192044,19.8748048 L94.2094807,19.8748048 C93.8822983,18.1263229 92.694232,17.2492145 91.0281547,17.2492145 C89.5390939,17.2492145 88.1769945,18.2565398 87.7192044,19.8748048" id="Fill-11"></path>
                <path d="M98.9324751,21.2926843 C98.9324751,17.5356241 101.709713,14.6499373 105.446287,14.6499373 C107.467061,14.6499373 109.108608,15.5007325 110.270486,16.7883952 L108.375348,18.773359 C107.718994,17.9964434 106.758663,17.4057446 105.446287,17.4057446 C103.300541,17.4057446 101.784961,19.0540337 101.784961,21.2926843 C101.784961,23.5316723 103.300541,25.1796241 105.446287,25.1796241 C106.758663,25.1796241 107.718994,24.5862265 108.375348,23.8180819 L110.270486,25.7969735 C109.108608,27.0849735 107.467061,27.9327325 105.446287,27.9327325 C101.709713,27.9327325 98.9324751,25.0497446 98.9324751,21.2926843" id="Fill-13"></path>
                <path d="M115.975459,23.2244482 L115.975459,17.3791952 L119.207503,17.3791952 L119.814464,14.8595325 L115.975459,14.8595325 L115.975459,10.9992434 L113.199547,10.9992434 L113.199547,14.8595325 L110.749823,14.8595325 L111.355459,17.3791952 L113.199547,17.3791952 L113.199547,23.8181831 C113.199547,26.2605928 114.638221,27.7257012 117.061757,27.7257012 L119.511812,27.7257012 L119.511812,25.1294602 L117.770486,25.1294602 C116.328829,25.1294602 115.975459,24.5360627 115.975459,23.2244482" id="Fill-15"></path>
                <polygon id="Fill-17" points="67.2270829 3.37349398e-05 67.5675249 3.37349398e-05 67.7455359 0.180178313 67.7455359 3.76013012 67.5675249 3.93993735 67.2270829 3.93993735 67.0500663 3.76013012 67.0500663 0.180178313"></polygon>
                <path d="M48.1862652,5.63255422 C48.1239448,5.72127711 48.0573149,5.79954217 47.9863757,5.866 L47.9804088,5.87173494 L47.973116,5.87780723 C47.8660442,5.9766506 47.7486961,6.05053012 47.6210718,6.10045783 L47.6167624,6.10214458 L47.6084751,6.10518072 C47.592232,6.11091566 47.5776464,6.11698795 47.5617348,6.12137349 L47.5501326,6.12575904 L47.5431713,6.12710843 C47.4327845,6.16118072 47.3141105,6.17906024 47.1894696,6.17906024 L47.1447182,6.17906024 L47.6459337,6.21448193 L47.7211823,6.21751807 L47.7964309,6.21448193 L47.8703536,6.20840964 L47.9429503,6.19963855 L48.0125635,6.18175904 L48.0818453,6.16421687 L48.1484751,6.14060241 L48.213779,6.11395181 L48.2760994,6.08156627 L48.3384199,6.04310843 L48.3977569,6.0046506 L48.455768,5.95742169 L48.5107956,5.91019277 L48.5658232,5.85689157 L48.6178674,5.79785542 L48.6672597,5.73578313 L48.7166519,5.67101205 L48.1862652,5.63255422 Z" id="Fill-19"></path>
                <path d="M47.264884,2.2889494 L47.3182541,2.29502169 C47.3358232,2.29637108 47.3547182,2.29940723 47.3736133,2.30244337 L47.4110718,2.30649157 L47.4823425,2.32133494 L47.5125083,2.33044337 C47.5357127,2.33786506 47.5575912,2.3436 47.5807956,2.35102169 L47.6169282,2.36282892 L47.6603536,2.38340723 C47.6749392,2.38813012 47.6878674,2.39521446 47.7011271,2.40128675 L47.7458785,2.42186506 L47.7777017,2.44244337 C47.8052155,2.45728675 47.8314033,2.47516627 47.8572597,2.49270843 L47.8662099,2.49878072 L47.8778122,2.50755181 C47.8907403,2.51632289 47.9036685,2.52678072 47.9169282,2.53723855 L47.9238895,2.54297349 L47.9805746,2.59020241 L48.0342762,2.64350361 L48.0369282,2.64653976 C48.0893039,2.70119036 48.1400221,2.75988916 48.1864309,2.82668434 L48.7164862,2.86784096 L48.6674254,2.80003373 L48.6180331,2.74099759 L48.565989,2.68196145 L48.5109613,2.63169639 L48.4556022,2.58143133 L48.3979227,2.53723855 L48.3382541,2.49878072 L48.2762652,2.46032289 L48.2139448,2.43097349 L48.1486409,2.40432289 L48.082011,2.38070843 L48.0123978,2.35979277 L47.9427845,2.3449494 L47.8705193,2.33617831 L47.7965967,2.33044337 L47.264884,2.2889494 Z" id="Fill-21"></path>
                <path d="M48.1862652,2.8265494 C48.3530055,3.06134458 48.4643867,3.34033253 48.5223978,3.6625012 L48.5237238,3.66823614 L48.5267072,3.68307952 C48.5439448,3.78495904 48.555547,3.8912241 48.5628398,4.00356145 L48.5628398,4.00794699 L48.5628398,4.01233253 C48.5671492,4.07879036 48.5688066,4.14693494 48.5688066,4.21777831 C48.5688066,4.28862169 48.5671492,4.35811566 48.5628398,4.42592289 L48.5628398,4.42727229 L48.5628398,4.42895904 C48.555547,4.54129639 48.5439448,4.65026024 48.5267072,4.7551759 L48.5237238,4.77305542 L48.5223978,4.78047711 C48.4819558,5.01223614 48.4136685,5.22206747 48.3181989,5.40963373 L48.3165414,5.41401928 L48.3065967,5.43156145 C48.3065967,5.43324819 48.3049392,5.43459759 48.3049392,5.43628434 L48.2963204,5.45213976 L48.2963204,5.45382651 C48.2631713,5.5158988 48.2253812,5.57493494 48.1862652,5.63262169 L48.7166519,5.67107952 L48.7398564,5.63532048 L48.7627293,5.5998988 L48.7846077,5.56447711 L48.8064862,5.52601928 L48.8263757,5.49059759 L48.8469282,5.45213976 L48.8658232,5.41401928 L48.8847182,5.37556145 L48.9019558,5.33406747 L48.9178674,5.29291084 L48.933779,5.25445301 L48.9496906,5.21295904 L48.9642762,5.16876627 L48.9788619,5.12760964 L48.9917901,5.08307952 L49.0033923,5.03888675 L49.0149945,4.99469398 L49.0265967,4.95016386 L49.0365414,4.90293494 L49.0454917,4.85840482 L49.0541105,4.81151325 L49.0610718,4.76394699 L49.0686961,4.71401928 L49.0756575,4.66679036 L49.0816243,4.6165253 L49.0859337,4.56929639 L49.0902431,4.51599518 L49.0932265,4.46573012 L49.0962099,4.41580241 L49.0975359,4.3625012 L49.0988619,4.3092 L49.0988619,4.25623614 L49.0988619,4.20293494 L49.0975359,4.14963373 L49.0962099,4.09970602 L49.0932265,4.04944096 L49.0902431,3.99613976 L49.0859337,3.94891084 L49.0816243,3.89864578 L49.0756575,3.84871807 L49.0686961,3.80115181 L49.0610718,3.75392289 L49.0541105,3.70669398 L49.0454917,3.6625012 L49.0365414,3.61527229 L49.0265967,3.57107952 L49.0149945,3.5265494 L49.0033923,3.48235663 L48.9917901,3.44086265 L48.9788619,3.39666988 L48.9642762,3.3551759 L48.9496906,3.31401928 L48.933779,3.2725253 L48.9178674,3.23406747 L48.9019558,3.19291084 L48.8847182,3.15445301 L48.8658232,3.11599518 L48.8469282,3.08057349 L48.8263757,3.04211566 L48.8064862,3.00669398 L48.7846077,2.97127229 L48.7627293,2.9358506 L48.7398564,2.90042892 L48.7166519,2.86770602 L48.1862652,2.8265494 Z" id="Fill-23"></path>
                <path d="M47.1895359,2.2889494 C46.7867735,2.2889494 46.4549503,2.46909398 46.1957238,2.82668434 C45.9404751,3.18697349 45.8118564,3.64779277 45.8118564,4.2175759 C45.8118564,4.76981687 45.9404751,5.23063614 46.1957238,5.61184096 C46.4450055,5.97516627 46.7619116,6.16408193 47.1447845,6.1789253 L47.1139558,6.17588916 L47.1895359,6.1789253 L47.2647845,6.17588916 L47.3403646,6.17015422 L47.4109724,6.15834699 L47.4822431,6.14350361 L47.5429061,6.12731084 C47.5488729,6.1256241 47.5561657,6.1242747 47.5618011,6.12123855 L47.6082099,6.10504578 C47.6125193,6.10369639 47.6168287,6.10200964 47.6211381,6.10066024 L47.6821326,6.07266024 L47.745779,6.0402747 L47.8067735,6.00485301 L47.8661105,5.96335904 L47.9241215,5.91916627 L47.9731823,5.87767229 C47.9774917,5.87328675 47.9821326,5.8702506 47.9861105,5.86586506 L48.0341768,5.8156 L48.086221,5.7596 L48.1369392,5.69752771 L48.1863315,5.63241928 L48.2095359,5.59699759 L48.2310829,5.5615759 L48.2542873,5.52615422 L48.2745083,5.48803373 L48.2963867,5.45396145 C48.2993702,5.44788916 48.3020221,5.44215422 48.3050055,5.43608193 L48.306663,5.43169639 C48.3109724,5.4242747 48.3152818,5.41685301 48.3179337,5.40943133 L48.3341768,5.37535904 L48.3527403,5.3369012 L48.3703094,5.29574458 L48.387547,5.25458795 L48.4034586,5.21309398 L48.4193702,5.17193735 L48.4339558,5.13044337 L48.446884,5.0889494 L48.4601436,5.04475663 L48.4730718,5.00056386 L48.484674,4.95603373 L48.4949503,4.91184096 L48.504895,4.86461205 L48.5138453,4.82041928 L48.5224641,4.7802747 C48.5237901,4.77150361 48.525116,4.76408193 48.5267735,4.75531084 L48.5310829,4.72596145 L48.5383757,4.67535904 L48.544011,4.62813012 L48.5499779,4.57820241 L48.5542873,4.52793735 L48.5585967,4.47767229 L48.5629061,4.42909398 L48.5629061,4.42605783 L48.564232,4.37410602 L48.5658895,4.32417831 L48.5672155,4.27087711 L48.5688729,4.2175759 L48.5672155,4.16461205 L48.5658895,4.11131084 L48.564232,4.06104578 L48.5629061,4.01246747 L48.5629061,4.00369639 L48.5585967,3.95781687 L48.5542873,3.90755181 L48.5499779,3.86032289 L48.544011,3.81005783 L48.5383757,3.76282892 L48.5310829,3.7156 L48.5267735,3.68321446 C48.525116,3.67579277 48.5237901,3.66972048 48.5224641,3.6622988 L48.5138453,3.62384096 L48.504895,3.5769494 L48.4949503,3.53241928 L48.484674,3.48822651 L48.4730718,3.44403373 L48.4601436,3.40253976 L48.446884,3.35834699 L48.4339558,3.31685301 L48.4193702,3.27569639 L48.4034586,3.23420241 L48.387547,3.19574458 L48.3703094,3.1542506 L48.3527403,3.11613012 L48.3341768,3.07767229 L48.3166077,3.0422506 L48.2963867,3.00379277 L48.2745083,2.96837108 L48.2542873,2.9329494 L48.2310829,2.89752771 L48.2095359,2.86210602 L48.1863315,2.82668434 L48.1369392,2.7615759 L48.086221,2.70253976 L48.0371602,2.64653976 C47.9980442,2.60639518 47.9572707,2.5696241 47.9168287,2.53723855 L47.8777127,2.50755181 C47.8704199,2.50316627 47.8647845,2.49709398 47.8574917,2.49270843 L47.8067735,2.46032289 L47.7776022,2.44244337 C47.7530718,2.4276 47.726884,2.41309398 47.7010276,2.40128675 L47.6821326,2.39251566 L47.6602541,2.38340723 C47.6340663,2.3716 47.606884,2.36147952 47.5806961,2.35102169 L47.5501989,2.3422506 L47.5127403,2.33044337 C47.4676575,2.31863614 47.4212486,2.30817831 47.3735138,2.30244337 L47.3403646,2.29772048 L47.3184862,2.29502169 C47.2763867,2.29063614 47.2329613,2.2889494 47.1895359,2.2889494" id="Fill-25"></path>
                <path d="M47.1141215,6.17592289 L47.1446188,6.17895904 L47.1897017,6.17895904 L47.1141215,6.17592289 Z M47.5430718,6.12734458 L47.4820773,6.14353735 L47.4111381,6.15838072 L47.3401989,6.1698506 L47.2649503,6.17592289 L47.1897017,6.17895904 C47.314011,6.17895904 47.4330166,6.16107952 47.5430718,6.12734458 Z M47.6083757,6.10507952 L47.5619669,6.12127229 C47.577547,6.11688675 47.5924641,6.11115181 47.6083757,6.10507952 Z M47.9733481,5.87770602 L47.9239558,5.91886265 L47.8659448,5.96339277 L47.8066077,6.00488675 L47.7459448,6.03997108 L47.6822983,6.07269398 L47.6213039,6.10069398 C47.7485967,6.05042892 47.8659448,5.9765494 47.9733481,5.87770602 Z M48.1861657,5.63245301 L48.137105,5.69756145 L48.0863867,5.75929639 L48.0343425,5.81563373 L47.9862762,5.8658988 C48.0572155,5.79944096 48.1238453,5.7211759 48.1861657,5.63245301 Z" id="Fill-27"></path>
                <path d="M48.0370608,2.64647229 L48.086453,2.70247229 L48.1371713,2.76150843 L48.186232,2.82661687 C48.1401547,2.76015904 48.089105,2.70112289 48.0370608,2.64647229 M47.8776133,2.50782169 L47.9170608,2.53717108 C47.9038011,2.52671325 47.8908729,2.51659277 47.8776133,2.50782169 M47.7778343,2.44271325 L47.806674,2.46025542 L47.8573923,2.49264096 C47.8312044,2.4750988 47.8053481,2.45755663 47.7778343,2.44271325 M47.6604862,2.38333976 L47.6823646,2.39244819 L47.7009282,2.40121928 C47.688,2.39514699 47.6747403,2.38806265 47.6604862,2.38333976 M47.5126409,2.3303759 L47.5504309,2.34218313 L47.5805967,2.35095422 C47.5573923,2.34386988 47.5358453,2.33779759 47.5126409,2.3303759 M47.3183867,2.29495422 L47.3402652,2.29799036 L47.3737459,2.3023759 C47.3548508,2.29933976 47.3359558,2.29630361 47.3183867,2.29495422" id="Fill-29"></path>
                <path d="M48.2963867,5.45382651 L48.2745083,5.4878988 L48.2542873,5.52601928 L48.2310829,5.56177831 L48.2095359,5.59686265 L48.1863315,5.63262169 C48.2254475,5.57493494 48.2632376,5.5158988 48.2963867,5.45382651 M48.306663,5.43156145 L48.3050055,5.43628434 C48.3050055,5.43459759 48.306663,5.43324819 48.306663,5.43156145 M48.5224641,4.78047711 L48.5138453,4.82028434 L48.504895,4.86447711 L48.4949503,4.91170602 L48.484674,4.95623614 L48.4730718,5.00042892 L48.4601436,5.04462169 L48.4472155,5.08915181 L48.4339558,5.13030843 L48.4197017,5.17180241 L48.4034586,5.21295904 L48.387547,5.25445301 L48.3703094,5.29594699 L48.3527403,5.33710361 L48.3341768,5.37556145 L48.3182652,5.40963373 C48.4137348,5.22206747 48.4816906,5.01223614 48.5224641,4.78047711 M48.5629061,4.42895904 L48.5585967,4.47753735 L48.5542873,4.52780241 L48.5499779,4.57806747 L48.544011,4.62833253 L48.5383757,4.67556145 L48.5310829,4.72582651 L48.5267735,4.7551759 C48.544011,4.65026024 48.5556133,4.54129639 48.5629061,4.42895904 M48.5688729,4.21777831 L48.5672155,4.27107952 L48.5658895,4.32404337 L48.5645635,4.37430843 L48.5629061,4.42592289 C48.5672155,4.35811566 48.5688729,4.28862169 48.5688729,4.21777831 M48.5629061,4.01233253 L48.5645635,4.06124819 L48.5658895,4.11151325 L48.5672155,4.16481446 L48.5688729,4.21777831 C48.5688729,4.14693494 48.5672155,4.07879036 48.5629061,4.01233253 M48.5267735,3.68307952 L48.5310829,3.71546506 L48.5383757,3.76269398 L48.544011,3.81026024 L48.5499779,3.86018795 L48.5542873,3.90741687 L48.5585967,3.95768193 L48.5629061,4.00356145 C48.5556133,3.8912241 48.544011,3.78495904 48.5267735,3.68307952 M48.1863315,2.8265494 L48.2095359,2.86197108 L48.2310829,2.89739277 L48.2542873,2.93281446 L48.2745083,2.96823614 L48.2963867,3.00365783 L48.3166077,3.04211566 L48.3341768,3.07753735 L48.3527403,3.11599518 L48.3703094,3.15445301 L48.387547,3.19560964 L48.4034586,3.23406747 L48.4197017,3.27556145 L48.4339558,3.31671807 L48.4472155,3.35821205 L48.4601436,3.40274217 L48.4730718,3.4438988 L48.484674,3.48809157 L48.4949503,3.53262169 L48.504895,3.57681446 L48.5138453,3.62404337 L48.5224641,3.6625012 C48.464453,3.34033253 48.3527403,3.06134458 48.1863315,2.8265494" id="Fill-31"></path>
                <polygon id="Fill-33" points="58.075326 0.460650602 58.6517901 0.472457831 58.7038343 0.475493976 58.753558 0.481228916 58.8012928 0.490337349 58.8490276 0.504843373 58.8954365 0.525759036 58.9401878 0.549373494 58.9836133 0.576024096 59.0257127 0.608409639 59.0661547 0.64686747 59.1065967 0.685325301 59.1460442 0.729518072 59.1835028 0.779783133 59.2199669 0.832746988 59.254442 0.891783133 59.2879227 0.951156627 59.3214033 1.01896386 58.7432818 1.00715663 58.7098011 0.942048193 58.6766519 0.879975904 58.6418453 0.820939759 58.6040552 0.767975904 58.5679227 0.720746988 58.5288066 0.676216867 58.4880331 0.635060241 58.4475912 0.59660241 58.4054917 0.567253012 58.3607403 0.537566265 58.3173149 0.513951807 58.2709061 0.496072289 58.2231713 0.481228916 58.1754365 0.469421687 58.1260442 0.463686747"></polygon>
                <polygon id="Fill-35" points="58.7432155 1.00715663 59.321337 1.01896386 59.3355912 1.05438554 59.3518343 1.08677108 59.3660884 1.12219277 59.380674 1.1606506 59.3952597 1.19607229 59.4081878 1.23453012 59.421116 1.27298795 59.4340442 1.31144578 59.4456464 1.34956627 59.4559227 1.39106024 59.4675249 1.43255422 59.4778011 1.4706747 59.4880773 1.51520482 59.4966961 1.55636145 59.5053149 1.60055422 59.5139337 1.64204819 59.5212265 1.68657831 59.5285193 1.73380723 59.5358122 1.778 59.5414475 1.82219277 59.5474144 1.86975904 59.5530497 1.9166506 59.5573591 1.96691566 59.5616685 2.01414458 59.5646519 2.06440964 59.5689613 2.1146747 59.5719448 2.16493976 59.5732707 2.21520482 59.5749282 2.26850602 59.5762541 2.31877108 59.5775801 2.37173494 59.5775801 2.42503614 59.5775801 2.48103614 59.5762541 2.534 59.5749282 2.5873012 59.5732707 2.63756627 59.5719448 2.69053012 59.5689613 2.74113253 59.5646519 2.79106024 59.5616685 2.8413253 59.5573591 2.89159036 59.5530497 2.93881928 59.5474144 2.98908434 59.5414475 3.03631325 59.5358122 3.08354217 59.5285193 3.12773494 59.5212265 3.17496386 59.5139337 3.21949398 59.5053149 3.26368675 59.4966961 3.30821687 59.4880773 3.35207229 59.4778011 3.39356627 59.4675249 3.43506024 59.4559227 3.47655422 59.4456464 3.51771084 59.4340442 3.55920482 59.421116 3.59766265 59.4081878 3.63578313 59.3952597 3.67424096 59.380674 3.7126988 59.3660884 3.75115663 59.3518343 3.78657831 59.3355912 3.822 59.321337 3.85742169 58.7432155 3.84561446 58.7578011 3.81019277 58.7737127 3.77443373 58.7879669 3.7393494 58.8025525 3.70089157 58.8171381 3.66546988 58.8300663 3.62701205 58.843326 3.58855422 58.8549282 3.54739759 58.8665304 3.50893976 58.8778011 3.46744578 58.8894033 3.42628916 58.8996796 3.38175904 58.9099558 3.34060241 58.9185746 3.29607229 58.9271934 3.25187952 58.9358122 3.2073494 58.943105 3.16315663 58.9503978 3.11896386 58.9576906 3.07173494 58.9636575 3.02450602 58.9692928 2.97727711 58.9752597 2.93004819 58.9792376 2.87978313 58.983547 2.82951807 58.9865304 2.77925301 58.9908398 2.72898795 58.9924972 2.67872289 58.9951492 2.62845783 58.9968066 2.57549398 58.9981326 2.52219277 58.9997901 2.46922892 58.9997901 2.41592771 58.9997901 2.36296386 58.9981326 2.30662651 58.9968066 2.25636145 58.9951492 2.20339759 58.9924972 2.15313253 58.9908398 2.10286747 58.9865304 2.05260241 58.983547 2.0026747 58.9792376 1.95510843 58.9752597 1.90787952 58.9692928 1.8606506 58.9636575 1.81342169 58.9576906 1.76619277 58.9503978 1.722 58.943105 1.67746988 58.9358122 1.63327711 58.9271934 1.58908434 58.9185746 1.54455422 58.9099558 1.50339759 58.8996796 1.46190361 58.8894033 1.42074699 58.8778011 1.37925301 58.8665304 1.34079518 58.8549282 1.29963855 58.843326 1.26118072 58.8300663 1.22272289 58.8171381 1.1873012 58.8025525 1.14884337 58.7879669 1.11342169 58.7737127 1.078 58.7578011 1.04257831"></polygon>
                <polygon id="Fill-37" points="58.7432155 3.84551325 59.321337 3.85732048 59.2878564 3.92546506 59.2543757 3.98753735 59.2199006 4.04623614 59.183768 4.09953735 59.1459779 4.14980241 59.1068619 4.19399518 59.0664199 4.23548916 59.0256464 4.27394699 58.983547 4.30633253 58.9401215 4.33298313 58.8953702 4.35659759 58.8489613 4.3771759 58.8012265 4.39201928 58.7534917 4.40382651 58.7040994 4.4098988 58.6520552 4.41259759 58.0752597 4.40079036 58.1259779 4.39809157 58.1753702 4.39201928 58.223105 4.38324819 58.2711713 4.36536867 58.3172486 4.34782651 58.360674 4.3238747 58.4057569 4.2945253 58.4475249 4.26213976 58.4882983 4.22671807 58.5287403 4.1852241 58.5678564 4.13799518 58.6043204 4.08773012 58.641779 4.03442892 58.6765856 3.97573012 58.7100663 3.91332048"></polygon>
                <path d="M58.075326,0.460650602 C57.8028398,0.460650602 57.5814033,0.643831325 57.4090276,1.00715663 C57.2366519,1.37351807 57.1494696,1.84007229 57.1494696,2.41592771 C57.1494696,2.97424096 57.2366519,3.44079518 57.4090276,3.8246988 C57.5814033,4.2119759 57.8028398,4.40089157 58.075326,4.40089157 L58.1260442,4.39785542 L58.1754365,4.39178313 L58.1900221,4.38908434 C58.2085856,4.3846988 58.2288066,4.3799759 58.2463757,4.37424096 L58.2709061,4.36546988 L58.2997459,4.35501205 C58.3272597,4.34185542 58.3534475,4.3286988 58.3796354,4.31081928 L58.3985304,4.29901205 C58.4028398,4.2959759 58.4071492,4.29293976 58.4101326,4.29024096 L58.4419558,4.26628916 C58.4867072,4.22951807 58.5304641,4.1853253 58.572232,4.1320241 L58.6040552,4.08783133 L58.6345525,4.04498795 C58.6418453,4.03318072 58.6488066,4.02137349 58.6564309,4.00956627 L58.6723425,3.98291566 C58.6749945,3.97987952 58.6766519,3.97549398 58.6779779,3.97110843 L58.7098011,3.91342169 L58.7432818,3.84561446 L58.7575359,3.81019277 L58.773779,3.77443373 L58.7880331,3.7393494 L58.8026188,3.70089157 L58.8112376,3.68166265 C58.8241657,3.64320482 58.8374254,3.60339759 58.8503536,3.56359036 L58.854663,3.54739759 L58.8662652,3.50893976 L58.8778674,3.46744578 L58.8795249,3.4600241 C58.893779,3.40975904 58.9053812,3.35679518 58.9169834,3.30214458 L58.9186409,3.29607229 L58.9269282,3.25187952 L58.932895,3.22387952 C58.9358785,3.20903614 58.9372044,3.19587952 58.9401878,3.18103614 L58.9431713,3.16315663 L58.9504641,3.11896386 L58.9547735,3.08657831 C58.9560994,3.07612048 58.9574254,3.0673494 58.9590829,3.05857831 L58.9633923,3.02450602 L58.9693591,2.97727711 L58.9706851,2.96546988 C58.9736685,2.94455422 58.9749945,2.9239759 58.9779779,2.90339759 L58.9793039,2.87978313 L58.9836133,2.82951807 L58.9865967,2.77925301 L58.9909061,2.7306747 L58.9909061,2.72763855 L58.992232,2.67872289 L58.9952155,2.62879518 L58.9968729,2.57549398 L58.9981989,2.52219277 L58.9998564,2.48272289 L58.9998564,2.41592771 L58.9998564,2.34812048 L58.9981989,2.30662651 L58.9968729,2.25636145 L58.9952155,2.20339759 L58.992232,2.15313253 L58.9909061,2.11028916 L58.9909061,2.09544578 L58.9865967,2.05260241 L58.9836133,2.00537349 C58.9836133,2.00098795 58.9836133,1.99795181 58.9822873,1.99356627 L58.9793039,1.95510843 L58.9779779,1.93587952 C58.9763204,1.91833735 58.9736685,1.89910843 58.972011,1.88156627 L58.9693591,1.8606506 L58.9633923,1.81342169 L58.9604088,1.78845783 C58.9590829,1.77496386 58.9560994,1.76180723 58.9547735,1.7486506 L58.9504641,1.722 L58.9431713,1.67746988 L58.9401878,1.65689157 C58.9372044,1.6406988 58.9345525,1.62450602 58.9315691,1.6079759 L58.9269282,1.58908434 L58.9229503,1.56681928 C58.9113481,1.51216867 58.8997459,1.45751807 58.8851602,1.40590361 L58.8778674,1.37925301 L58.8662652,1.34079518 L58.854663,1.29963855 L58.8490276,1.28040964 C58.8417348,1.25983133 58.835768,1.23891566 58.8284751,1.21833735 L58.8172044,1.1873012 L58.8026188,1.14884337 L58.7880331,1.11342169 L58.773779,1.078 L58.7575359,1.04257831 L58.7432818,1.00715663 L58.7098011,0.942048193 L58.6766519,0.879975904 L58.6517901,0.83746988 C58.6448287,0.827012048 58.6388619,0.816554217 58.6315691,0.807783133 L58.6040552,0.767975904 L58.5679227,0.720746988 L58.5288066,0.676216867 L58.4880331,0.635060241 L58.4565414,0.604024096 C58.4505746,0.599301205 58.4446077,0.594915663 58.4389724,0.59086747 L58.4054917,0.567253012 L58.3607403,0.537566265 L58.3259337,0.518337349 C58.3202983,0.515301205 58.3156575,0.513951807 58.3113481,0.510915663 L58.2709061,0.496072289 L58.2231713,0.481228916 L58.1754365,0.469421687 L58.1260442,0.463686747 L58.075326,0.460650602 L58.0998564,0.460650602 L58.075326,0.460650602" id="Fill-39"></path>
                <path d="M58.6519227,0.83733494 L58.676453,0.880178313 L58.7099337,0.942250602 L58.7430829,1.00702169 C58.7142431,0.945286747 58.6837459,0.888949398 58.6519227,0.83733494 Z M58.4563425,0.603889157 L58.4881657,0.634925301 L58.5289392,0.676419277 L58.5680552,0.720612048 L58.6041878,0.767840964 L58.6317017,0.807648193 C58.578,0.72499759 58.518663,0.657190361 58.4563425,0.603889157 Z M58.3260663,0.51820241 L58.3608729,0.537431325 L58.4056243,0.567118072 L58.4387735,0.59073253 C58.4026409,0.561045783 58.3648508,0.537431325 58.3260663,0.51820241 Z M58.0754586,0.460515663 L58.1261768,0.463551807 L58.1752376,0.469624096 L58.2229724,0.481431325 L58.2710387,0.496274699 L58.3114807,0.510780723 C58.2448508,0.481431325 58.1739116,0.463551807 58.099989,0.460515663 L58.0754586,0.460515663 Z" id="Fill-41"></path>
                <path d="M58.8113039,3.68159518 L58.8026851,3.7008241 L58.7880994,3.73928193 L58.7735138,3.77470361 L58.7576022,3.8101253 L58.7433481,3.84554699 C58.7678785,3.79258313 58.7897569,3.73759518 58.8113039,3.68159518 M58.8792597,3.45995663 L58.8779337,3.46737831 L58.8663315,3.50887229 L58.8547293,3.54733012 L58.8504199,3.56352289 C58.8606961,3.53113735 58.8706409,3.49571566 58.8792597,3.45995663 M58.9329613,3.22381205 L58.9269945,3.25181205 L58.9183757,3.29600482 L58.9170497,3.30207711 C58.9226851,3.2767759 58.9269945,3.25046265 58.9329613,3.22381205 M58.9548398,3.08651084 L58.9505304,3.11923373 L58.9432376,3.16308916 L58.9402541,3.18096867 C58.9458895,3.14993253 58.9505304,3.11923373 58.9548398,3.08651084 M58.9704199,2.96540241 L58.9694254,2.97720964 L58.9634586,3.02443855 L58.9591492,3.05851084 C58.9634586,3.0274747 58.967768,2.99643855 58.9704199,2.96540241 M58.9909724,2.73060723 L58.986663,2.77918554 L58.9836796,2.8294506 L58.9793702,2.87971566 L58.9780442,2.90333012 C58.9820221,2.84733012 58.986663,2.78964337 58.9909724,2.73060723 M58.9995912,2.48265542 L58.9982652,2.52246265 L58.9966077,2.57542651 L58.9952818,2.62872771 L58.9922983,2.67899277 L58.9909724,2.72757108 C58.9952818,2.64795663 58.9982652,2.56665542 58.9995912,2.48265542 M58.9909724,2.11022169 L58.9922983,2.15306506 L58.9952818,2.20333012 L58.9966077,2.25663133 L58.9982652,2.30655904 L58.9995912,2.34805301 C58.9982652,2.26675181 58.9952818,2.18713735 58.9909724,2.11022169 M58.9836796,2.00530602 L58.986663,2.05287229 L58.9909724,2.09537831 C58.987989,2.06467952 58.986663,2.03499277 58.9836796,2.00530602 M58.9780442,1.9361494 L58.9793702,1.95504096 L58.9820221,1.9934988 C58.9806961,1.97460723 58.9793702,1.95504096 58.9780442,1.9361494 M58.9604751,1.78839036 L58.9634586,1.81335422 L58.9694254,1.86058313 L58.9720773,1.8814988 C58.967768,1.8487759 58.9647845,1.81942651 58.9604751,1.78839036 M58.9402541,1.65716145 L58.9432376,1.67740241 L58.9505304,1.72193253 L58.9548398,1.74858313 C58.9505304,1.71889639 58.9445635,1.68786024 58.9402541,1.65716145 M58.9226851,1.56675181 L58.9269945,1.58901687 L58.9316354,1.60824578 C58.9286519,1.59340241 58.926,1.58024578 58.9226851,1.56675181 M58.8490939,1.28034217 L58.8547293,1.29957108 L58.8663315,1.34106506 L58.8779337,1.37918554 L58.8852265,1.40583614 C58.8736243,1.36299277 58.8620221,1.32183614 58.8490939,1.28034217 M58.7433481,1.00708916 L58.7576022,1.04251084 L58.7735138,1.07793253 L58.7880994,1.11335422 L58.8026851,1.1487759 L58.8169392,1.18723373 L58.8285414,1.21826988 C58.8026851,1.14439036 58.7735138,1.07354699 58.7433481,1.00708916" id="Fill-43"></path>
                <path d="M58.1898895,4.3890506 L58.1753039,4.3917494 L58.1259116,4.39815904 L58.0751934,4.40085783 C58.1143094,4.40085783 58.1537569,4.39647229 58.1898895,4.3890506 M58.2999448,4.35497831 L58.271105,4.36543614 L58.2462431,4.37420723 C58.2651381,4.36847229 58.2827072,4.3624 58.2999448,4.35497831 M58.3983978,4.29897831 L58.3795028,4.31078554 C58.3867956,4.3077494 58.3927624,4.30336386 58.3983978,4.29897831 M58.4418232,4.26625542 L58.41,4.29020723 C58.4199448,4.28278554 58.4318785,4.27536386 58.4418232,4.26625542 M58.6344199,4.04495422 L58.6042541,4.08779759 L58.5724309,4.13199036 C58.5939779,4.10533976 58.6141989,4.07599036 58.6344199,4.04495422 M58.6722099,3.98288193 L58.6562983,4.00953253 C58.6619337,4.00076145 58.6665746,3.99165301 58.6722099,3.98288193 M58.7431492,3.84558072 L58.71,3.91338795 L58.6781768,3.9710747 C58.7010497,3.93261687 58.7229282,3.88977349 58.7431492,3.84558072" id="Fill-45"></path>
                <path d="M25.1339006,9.12668434 C24.0678232,9.12668434 23.1867182,10.0007566 23.1867182,11.0880337 C23.1867182,12.1746361 24.0214144,13.0460096 25.0861657,13.0460096 C26.1525746,13.0460096 27.0101436,12.1746361 27.0101436,11.0880337 C27.0101436,10.0007566 26.175779,9.12668434 25.1339006,9.12668434" id="Fill-47"></path>
                <path d="M36.200884,5.36368675 L36.1674033,5.37110843 C37.039558,5.45544578 37.7177901,6.28363855 37.7293923,7.30580723 L37.7293923,7.31019277 L37.7293923,7.31761446 L37.7293923,7.33077108 L37.7293923,7.34257831 L37.7293923,7.3473012 L37.7293923,7.35607229 L37.7293923,7.36180723 L37.7293923,7.36787952 L37.7293923,7.37833735 L37.7293923,7.37968675 C37.7061878,8.39274699 37.0120442,9.20946988 36.1256354,9.29077108 L36.1544751,9.29785542 C37.2238674,9.29785542 38.0827624,8.42074699 38.0827624,7.33077108 C38.0827624,6.24079518 37.2467403,5.36368675 36.200884,5.36368675" id="Fill-49"></path>
                <path d="M36.0212486,5.36368675 C35.0506409,5.36368675 34.2480994,6.24079518 34.2480994,7.33077108 C34.2480994,8.42074699 35.0085414,9.29785542 35.9791492,9.29785542 C36.0285414,9.29785542 36.0762762,9.29515663 36.1256685,9.29077108 L36.0633481,9.27727711 C36.9772707,9.2286988 37.706221,8.41501205 37.7294254,7.37968675 L37.7294254,7.37833735 L37.7294254,7.36787952 L37.7294254,7.36180723 L37.7294254,7.35607229 L37.7294254,7.3473012 L37.7294254,7.34257831 L37.7294254,7.33077108 L37.7294254,7.31761446 L37.7294254,7.31019277 L37.7294254,7.30580723 C37.7178232,6.26306024 37.0047845,5.43756627 36.105116,5.38426506 L36.1674365,5.37110843 C36.1197017,5.36672289 36.0706409,5.36368675 36.0212486,5.36368675" id="Fill-51"></path>
                <path d="M37.7292928,7.37955181 C37.7060884,8.41487711 36.9774696,9.22856386 36.0632155,9.27747952 L36.1255359,9.29063614 C37.0122762,9.20933494 37.7060884,8.3929494 37.7292928,7.37955181 M37.7292928,7.36774458 L37.7292928,7.37820241 L37.7292928,7.36774458 M37.7292928,7.35593735 L37.7292928,7.36200964 L37.7292928,7.35593735 M37.7292928,7.34278072 L37.7292928,7.34716627 L37.7292928,7.34278072 M37.7292928,7.31005783 L37.7292928,7.31747952 L37.7292928,7.31005783 M36.1676354,5.37097349 L36.1053149,5.38446747 C37.0049834,5.43776867 37.7176906,6.26326265 37.7292928,7.30567229 C37.7176906,6.28384096 37.0394586,5.45531084 36.1676354,5.37097349" id="Fill-53"></path>
                <path d="M87.2716906,5.20432289 L86.7416354,5.24547952 L86.7906961,5.31058795 L86.8400884,5.37266024 L86.8921326,5.42866024 L86.9471602,5.48196145 L87.0021878,5.53222651 L87.0601989,5.57641928 L87.1195359,5.6175759 L87.1818564,5.65299759 L87.2441768,5.68572048 L87.3094807,5.71506988 L87.3761105,5.73902169 L87.4453923,5.75656386 L87.5150055,5.77140723 L87.5876022,5.78321446 L87.6615249,5.7889494 L87.7367735,5.79198554 L87.8120221,5.7889494 L88.3132376,5.75352771 L88.2684862,5.75352771 C88.1438453,5.75352771 88.0264972,5.73733494 87.916442,5.70191325 L87.9078232,5.70056386 L87.8945635,5.69617831 C87.8786519,5.69010602 87.8614144,5.68403373 87.8455028,5.6782988 L87.8411934,5.6769494 L87.8395359,5.67526265 C87.6671602,5.60880482 87.5136796,5.49680482 87.3774365,5.3416241 L87.3718011,5.33420241 L87.3601989,5.31935904 C87.3529061,5.31058795 87.3442873,5.30181687 87.3369945,5.29135904 L87.3210829,5.27213012 L87.3094807,5.25728675 C87.296221,5.23974458 87.2846188,5.22186506 87.2716906,5.20432289" id="Fill-55"></path>
                <path d="M88.1205746,1.8696241 L87.6614586,1.90200964 L87.5875359,1.91078072 L87.5149392,1.91988916 L87.4456575,1.93439518 L87.3760442,1.9522747 L87.3094144,1.97588916 L87.2441105,2.00523855 L87.1817901,2.0349253 L87.1194696,2.07034699 L87.0601326,2.11184096 L87.0021215,2.15603373 L86.9470939,2.20326265 L86.8920663,2.25656386 L86.8400221,2.31256386 L86.7909613,2.37463614 L86.7415691,2.43974458 L87.2716243,2.40128675 C87.3356022,2.31256386 87.402232,2.2342988 87.4758232,2.16649157 L87.4774807,2.16480482 L87.4788066,2.16345542 C87.663116,1.99511807 87.8772597,1.8962747 88.1205746,1.8696241" id="Fill-57"></path>
                <path d="M87.2716906,2.40115181 L86.7416354,2.43960964 L86.7180994,2.47503133 L86.6952265,2.51045301 L86.6733481,2.5458747 L86.6518011,2.58129639 L86.6312486,2.61671807 L86.6110276,2.65247711 L86.5921326,2.69059759 L86.5732376,2.72905542 L86.556,2.76751325 L86.5400884,2.80900723 L86.5241768,2.84712771 L86.5082652,2.88862169 L86.4936796,2.93011566 L86.4790939,2.97127229 L86.4661657,3.01242892 L86.4545635,3.05695904 L86.4429613,3.10115181 L86.4313591,3.14534458 L86.4210829,3.1898747 L86.4124641,3.23406747 L86.4038453,3.28163373 L86.3965525,3.3285253 L86.3895912,3.37609157 L86.3822983,3.42332048 L86.3763315,3.47324819 L86.3720221,3.52081446 L86.3677127,3.57107952 L86.3647293,3.62100723 L86.3617459,3.67430843 L86.3604199,3.72423614 L86.3587624,3.77753735 L86.3587624,3.83083855 L86.3587624,3.88413976 L86.3604199,3.93710361 L86.3617459,3.98736867 L86.3647293,4.04033253 L86.3677127,4.09059759 L86.3720221,4.14086265 L86.3763315,4.19112771 L86.3822983,4.24139277 L86.3895912,4.28862169 L86.3965525,4.33888675 L86.4038453,4.38611566 L86.4124641,4.43334458 L86.4210829,4.47753735 L86.4313591,4.52476627 L86.4429613,4.56929639 L86.4545635,4.61348916 L86.4661657,4.65768193 L86.4790939,4.70221205 L86.4936796,4.74336867 L86.5082652,4.78486265 L86.5241768,4.82635663 L86.5400884,4.86751325 L86.556,4.90866988 L86.5732376,4.94712771 L86.5921326,4.98862169 L86.6110276,5.02707952 L86.6312486,5.0625012 L86.6518011,5.10095904 L86.6733481,5.13941687 L86.6952265,5.1745012 L86.7180994,5.21026024 L86.7416354,5.24568193 L87.2716906,5.20418795 L87.2484862,5.17180241 L87.2299227,5.14076627 C87.2050608,5.10095904 87.1818564,5.06081446 87.1586519,5.01965783 L87.1414144,4.98862169 L87.1255028,4.9532 C87.0950055,4.89112771 87.0674917,4.82466988 87.0429613,4.75686265 L87.0386519,4.74640482 L87.0240663,4.70524819 L87.0224088,4.69782651 C87.0094807,4.66071807 86.9992044,4.62529639 86.9876022,4.5871759 L86.9849503,4.57503133 L86.9733481,4.53083855 L86.9690387,4.51026024 C86.9574365,4.46134458 86.9458343,4.41107952 86.936884,4.35946506 L86.9339006,4.34765783 L86.9312486,4.32539277 C86.914011,4.2265494 86.9024088,4.12332048 86.896442,4.01671807 L86.895116,4.00221205 L86.895116,3.99040482 C86.8904751,3.92529639 86.8891492,3.85883855 86.8891492,3.79238072 C86.8891492,3.72592289 86.8904751,3.65946506 86.895116,3.59604337 L86.895116,3.5825494 L86.896442,3.56669398 C86.9037348,3.45874217 86.915337,3.3551759 86.9329061,3.25633253 L86.9339006,3.2431759 L86.935558,3.23575422 C86.9484862,3.1618747 86.9647293,3.09103133 86.9832928,3.02153735 L86.9849503,3.0185012 L86.9849503,3.01715181 C87.0008619,2.9625012 87.0167735,2.91088675 87.0356685,2.85893494 L87.0386519,2.85016386 L87.0413039,2.84274217 C87.0688177,2.76751325 87.1006409,2.69666988 87.1354475,2.6271759 L87.1414144,2.61401928 L87.1530166,2.59310361 C87.1672707,2.56679036 87.1818564,2.54148916 87.197768,2.51483855 L87.2037348,2.50471807 L87.2080442,2.49729639 C87.2282652,2.46457349 87.2498122,2.43218795 87.2716906,2.40115181" id="Fill-59"></path>
                <path d="M88.2684862,1.86068434 C88.217768,1.86068434 88.1683757,1.86372048 88.1206409,1.86979277 L88.1929061,1.86372048 L88.1176575,1.86979277 L88.0467182,1.88126265 L87.975779,1.89610602 L87.9074917,1.91398554 L87.8411934,1.9376 L87.7758895,1.9642506 L87.7122431,1.99663614 L87.6512486,2.03205783 L87.5919116,2.07321446 L87.5339006,2.11774458 L87.4788729,2.1636241 C87.477547,2.16497349 87.4758895,2.16632289 87.4758895,2.16632289 L87.4238453,2.21793735 L87.3718011,2.2742747 L87.3210829,2.33634699 L87.2716906,2.40111807 L87.2484862,2.43687711 L87.2266077,2.46926265 L87.2080442,2.49726265 C87.2050608,2.50299759 87.2007514,2.50906988 87.197768,2.51480482 L87.1831823,2.54010602 L87.1616354,2.57856386 L87.1530166,2.59306988 C87.1470497,2.60521446 87.1414144,2.61533494 87.1354475,2.62714217 L87.1238453,2.65244337 L87.1049503,2.69056386 L87.0877127,2.72902169 L87.0701436,2.77051566 L87.054232,2.80897349 L87.0413039,2.84270843 C87.0386519,2.84878072 87.0369945,2.85451566 87.0356685,2.85923855 L87.0240663,2.8916241 L87.0108066,2.93278072 L86.9978785,2.9742747 L86.9849503,3.01711807 C86.9849503,3.01846747 86.9849503,3.02015422 86.9832928,3.02150361 L86.9733481,3.06266024 L86.9630718,3.10719036 L86.9527956,3.15138313 L86.9441768,3.1955759 L86.935558,3.23572048 C86.9339006,3.24145542 86.9339006,3.24887711 86.9329061,3.2562988 L86.9269392,3.29037108 L86.9196464,3.3376 L86.9136796,3.38482892 L86.9080442,3.43509398 L86.9037348,3.48232289 L86.8994254,3.53258795 L86.896442,3.56666024 C86.896442,3.57678072 86.895116,3.58555181 86.895116,3.59600964 L86.8934586,3.63278072 L86.8921326,3.68608193 L86.8904751,3.73938313 L86.8891492,3.79234699 L86.8904751,3.84564819 L86.8921326,3.8989494 L86.8934586,3.94887711 L86.895116,3.99037108 C86.895116,3.99914217 86.895116,4.00791325 86.896442,4.01702169 L86.8994254,4.05244337 L86.9037348,4.10237108 L86.9080442,4.15263614 L86.9136796,4.2029012 L86.9196464,4.25013012 L86.9269392,4.29735904 L86.9312486,4.32569639 C86.9329061,4.33750361 86.935558,4.34897349 86.936884,4.35943133 L86.9441768,4.39181687 L86.9527956,4.43938313 L86.9630718,4.4862747 L86.9690387,4.51022651 C86.974674,4.53687711 86.9819669,4.56184096 86.9876022,4.58714217 L86.9978785,4.61952771 L87.0108066,4.66068434 L87.0224088,4.69779277 C87.0283757,4.71837108 87.0356685,4.7376 87.0426298,4.75682892 L87.054232,4.78786506 L87.0701436,4.82902169 L87.0877127,4.87051566 L87.1049503,4.90863614 L87.1238453,4.95013012 L87.1255028,4.95316627 C87.137105,4.97678072 87.1470497,4.99735904 87.1586519,5.0196241 L87.1616354,5.02400964 L87.1831823,5.06246747 L87.2037348,5.09788916 L87.2266077,5.13634699 L87.2295912,5.14073253 C87.2428508,5.16131084 87.257105,5.1835759 87.2716906,5.20449157 L87.3094807,5.25745542 C87.3194254,5.26926265 87.3283757,5.28106988 87.3369945,5.29152771 L87.3601989,5.31952771 C87.3658343,5.3269494 87.3718011,5.33437108 87.3774365,5.34179277 L87.4238453,5.39037108 L87.477547,5.44367229 L87.5339006,5.4936 L87.5919116,5.53813012 L87.6512486,5.57928675 L87.7122431,5.61470843 L87.7758895,5.64709398 L87.8395359,5.67543133 C87.8411934,5.67678072 87.8438453,5.67678072 87.8455028,5.67813012 L87.8945635,5.69600964 C87.9018564,5.69904578 87.9091492,5.70039518 87.916442,5.70208193 L87.975779,5.7182747 L88.0467182,5.73311807 L88.1176575,5.7449253 L88.1929061,5.75066024 L88.2684862,5.75369639 L88.3437348,5.75066024 L88.3132376,5.75369639 C88.695779,5.73885301 89.0130166,5.54993735 89.2622983,5.18661205 C89.5172155,4.80540723 89.6461657,4.34155181 89.6461657,3.79234699 C89.6461657,3.22222651 89.5172155,2.76140723 89.2622983,2.40111807 C89.0030718,2.04082892 88.6709171,1.86068434 88.2684862,1.86068434" id="Fill-61"></path>
                <path d="M88.3436685,5.75066024 L88.2684199,5.75369639 L88.3131713,5.75369639 L88.3436685,5.75066024 Z M87.9163757,5.70208193 C88.0264309,5.73750361 88.143779,5.75369639 88.2684199,5.75369639 L88.1931713,5.75066024 L88.1175912,5.7449253 L88.0466519,5.73311807 L87.9757127,5.7182747 L87.9163757,5.70208193 Z M87.8454365,5.67813012 C87.8613481,5.68420241 87.8789171,5.68993735 87.8944972,5.69600964 L87.8454365,5.67813012 Z M87.3773702,5.34145542 C87.5136133,5.49663614 87.6670939,5.60897349 87.8394696,5.67543133 L87.7758232,5.64709398 L87.7121768,5.61470843 L87.6511823,5.57928675 L87.5918453,5.53813012 L87.5338343,5.4936 L87.4774807,5.44367229 L87.423779,5.39037108 L87.3773702,5.34145542 Z M87.3369282,5.29152771 C87.344221,5.30164819 87.3528398,5.31075663 87.3601326,5.31952771 L87.3369282,5.29152771 Z M87.2716243,5.20415422 C87.284884,5.22203373 87.2964862,5.2395759 87.3094144,5.25745542 L87.2716243,5.20415422 Z" id="Fill-63"></path>
                <path d="M87.4759558,2.16645783 C87.4020331,2.23426506 87.3354033,2.31253012 87.2717569,2.40125301 L87.3208177,2.33614458 L87.3718674,2.27440964 L87.4239116,2.21807229 L87.4759558,2.16645783 Z M88.1929724,1.86385542 L88.1207072,1.86959036 C87.8773923,1.89624096 87.6629171,1.99508434 87.4786077,2.16342169 L87.5336354,2.11754217 L87.5919779,2.0733494 L87.6513149,2.03185542 L87.7123094,1.99677108 L87.7759558,1.96404819 L87.8409282,1.93739759 L87.907558,1.91378313 L87.9758453,1.89624096 L88.0467845,1.88139759 L88.1177238,1.86959036 L88.1929724,1.86385542 Z" id="Fill-65"></path>
                <path d="M87.1586851,5.0196241 C87.1818895,5.06078072 87.2050939,5.1009253 87.2296243,5.14073253 L87.2266409,5.13634699 L87.2034365,5.09788916 L87.1832155,5.06246747 L87.1616685,5.02400964 L87.1586851,5.0196241 Z M87.042663,4.75682892 C87.0675249,4.82463614 87.0947072,4.89109398 87.1255359,4.95316627 L87.1238785,4.95013012 L87.1049834,4.90863614 L87.0877459,4.87051566 L87.0701768,4.82902169 L87.0542652,4.78786506 L87.042663,4.75682892 Z M86.9876354,4.58714217 C86.9992376,4.62526265 87.0095138,4.66068434 87.022442,4.69779277 L87.0108398,4.66068434 L86.9979116,4.61952771 L86.9876354,4.58714217 Z M86.9369171,4.35943133 C86.9458674,4.41104578 86.9574696,4.46131084 86.9687403,4.51022651 L86.963105,4.4862747 L86.9528287,4.43938313 L86.9442099,4.39181687 L86.9369171,4.35943133 Z M86.8964751,4.01702169 C86.902442,4.12328675 86.9137127,4.22651566 86.9312818,4.32535904 L86.9269724,4.29735904 L86.9196796,4.25013012 L86.9137127,4.2029012 L86.9080773,4.15263614 L86.903768,4.10237108 L86.8994586,4.05210602 L86.8964751,4.01702169 Z M86.8891823,3.79234699 C86.8891823,3.85880482 86.8905083,3.92526265 86.8951492,3.99037108 L86.8934917,3.94887711 L86.8921657,3.89861205 L86.8905083,3.84564819 L86.8891823,3.79234699 Z M86.8951492,3.59600964 C86.8905083,3.65943133 86.8891823,3.72588916 86.8891823,3.79234699 L86.8905083,3.73938313 L86.8921657,3.68608193 L86.8934917,3.63278072 L86.8951492,3.59600964 Z M86.9329392,3.2562988 C86.9153702,3.35514217 86.903768,3.45870843 86.8964751,3.56666024 L86.8994586,3.53258795 L86.903768,3.48232289 L86.9080773,3.43509398 L86.9137127,3.38482892 L86.9196796,3.3376 L86.9269724,3.29037108 L86.9329392,3.2562988 Z M86.983326,3.02150361 C86.9647624,3.09099759 86.9485193,3.16184096 86.9355912,3.23572048 L86.9442099,3.1955759 L86.9528287,3.15138313 L86.963105,3.10719036 L86.9733812,3.06266024 L86.983326,3.02150361 Z M87.0357017,2.85923855 C87.0168066,2.91085301 87.000895,2.96246747 86.9849834,3.01711807 L86.9979116,2.9742747 L87.0108398,2.93278072 L87.0240994,2.8916241 L87.0357017,2.85923855 Z M87.1354807,2.62714217 C87.100674,2.69663614 87.0688508,2.76747952 87.041337,2.84270843 L87.0542652,2.80897349 L87.0701768,2.77051566 L87.0877459,2.72902169 L87.1049834,2.69056386 L87.1238785,2.65244337 L87.1354807,2.62714217 Z M87.1978011,2.51480482 C87.1818895,2.54145542 87.1673039,2.56675663 87.1530497,2.59306988 L87.1616685,2.57822651 L87.1832155,2.54010602 L87.1978011,2.51480482 Z M87.2717238,2.40111807 C87.2498453,2.43249157 87.2282983,2.46453976 87.2080773,2.49726265 L87.2266409,2.46926265 L87.2485193,2.43687711 L87.2717238,2.40111807 Z" id="Fill-67"></path>
                <polygon id="Fill-69" points="76.8640773 0.259792771 76.2872818 0.268563855 76.2352376 0.2716 76.1858453 0.27733494 76.1381105 0.289479518 76.0903757 0.303985542 76.0439669 0.324901205 75.9992155 0.348515663 75.9557901 0.375166265 75.9136906 0.407551807 75.8729171 0.442973494 75.8324751 0.48446747 75.7933591 0.528660241 75.7555691 0.575889157 75.7194365 0.631889157 75.6846298 0.688226506 75.6514807 0.749961446 75.618 0.81506988 76.1961215 0.806298795 76.2296022 0.738154217 76.2627514 0.676419277 76.297558 0.620081928 76.3353481 0.567118072 76.3714807 0.516853012 76.4105967 0.472660241 76.4510387 0.431166265 76.4918122 0.395744578 76.5335801 0.363359036 76.578663 0.336708434 76.6220884 0.313093976 76.6684972 0.292178313 76.716232 0.27733494 76.7639669 0.268563855 76.8133591 0.259792771"></polygon>
                <polygon id="Fill-71" points="76.196221 0.806366265 75.6180994 0.815137349 75.6035138 0.850559036 75.5876022 0.885980723 75.5730166 0.92140241 75.5587624 0.956824096 75.5441768 0.995281928 75.5312486 1.03070361 75.517989 1.06916145 75.5050608 1.10761928 75.4934586 1.1487759 75.4831823 1.18723373 75.4719116 1.22872771 75.4616354 1.26988434 75.4513591 1.31137831 75.4427403 1.35253494 75.4341215 1.39706506 75.4251713 1.44125783 75.4182099 1.48578795 75.4109171 1.52998072 75.4036243 1.57417349 75.397989 1.62140241 75.3920221 1.66863133 75.3863867 1.71586024 75.3817459 1.76342651 75.3774365 1.81335422 75.3747845 1.86058313 75.3704751 1.91084819 75.3674917 1.96111325 75.3658343 2.01137831 75.3645083 2.06467952 75.3631823 2.11764337 75.3618564 2.17094458 75.3618564 2.22424578 75.3618564 2.27720964 75.3631823 2.33051084 75.3645083 2.3834747 75.3658343 2.4367759 75.3674917 2.48704096 75.3704751 2.54000482 75.3747845 2.59026988 75.3774365 2.64053494 75.3817459 2.68776386 75.3863867 2.73802892 75.3920221 2.78525783 75.397989 2.83248675 75.4036243 2.87971566 75.4109171 2.92694458 75.4182099 2.97113735 75.4251713 3.01836627 75.4341215 3.06289639 75.4427403 3.10405301 75.4513591 3.14858313 75.4616354 3.1927759 75.4719116 3.23426988 75.4831823 3.27542651 75.4934586 3.31692048 75.5050608 3.35537831 75.517989 3.39653494 75.5312486 3.43499277 75.5441768 3.4734506 75.5587624 3.51190843 75.5730166 3.54733012 75.5876022 3.5854506 75.6035138 3.62120964 75.6180994 3.65663133 76.196221 3.6448241 76.1816354 3.60940241 76.1657238 3.57364337 76.1511381 3.53822169 76.136884 3.5001012 76.1222983 3.46164337 76.1093702 3.42318554 76.0961105 3.38472771 76.0845083 3.34626988 76.0729061 3.30511325 76.0613039 3.26395663 76.0497017 3.22246265 76.0397569 3.18096867 76.0294807 3.1367759 76.0208619 3.09528193 76.0119116 3.05108916 76.0032928 3.00655904 75.9963315 2.96236627 75.9890387 2.91513735 75.9817459 2.86790843 75.975779 2.82371566 75.9701436 2.7734506 75.9641768 2.72622169 75.9598674 2.67899277 75.9558895 2.62872771 75.9529061 2.57846265 75.9482652 2.52819759 75.9469392 2.47793253 75.9439558 2.42496867 75.9426298 2.37166747 75.9413039 2.32140241 75.9396464 2.26540241 75.9396464 2.2121012 75.9396464 2.15913735 75.9413039 2.10583614 75.9426298 2.05287229 75.9439558 2.00260723 75.9469392 1.94930602 75.9482652 1.89904096 75.9529061 1.85181205 75.9558895 1.80188434 75.9598674 1.75161928 75.9641768 1.70405301 75.9701436 1.65716145 75.975779 1.60959518 75.9817459 1.56540241 75.9890387 1.51817349 75.9963315 1.47398072 76.0032928 1.4294506 76.0119116 1.38525783 76.0208619 1.34376386 76.0294807 1.29957108 76.0397569 1.25807711 76.0497017 1.21692048 76.0613039 1.17846265 76.0729061 1.13696867 76.0845083 1.09884819 76.0961105 1.06039036 76.1093702 1.02193253 76.1222983 0.983474699 76.136884 0.948053012 76.1511381 0.909595181 76.1657238 0.874173494 76.1816354 0.838751807"></polygon>
                <polygon id="Fill-73" points="76.196221 3.64472289 75.6180994 3.65653012 75.6512486 3.72163855 75.6847293 3.78674699 75.7195359 3.84274699 75.7556685 3.89874699 75.7934586 3.9459759 75.8322431 3.99320482 75.8730166 4.0346988 75.9134586 4.07012048 75.9558895 4.10250602 75.9993149 4.13219277 76.0440663 4.15580723 76.0904751 4.17638554 76.1382099 4.19122892 76.1859448 4.20303614 76.235337 4.20910843 76.2873812 4.20910843 76.8641768 4.2 76.8131271 4.19696386 76.7640663 4.19122892 76.716 4.17942169 76.6682652 4.16457831 76.6221878 4.144 76.5787624 4.12038554 76.5336796 4.09373494 76.4915801 4.0613494 76.4511381 4.02289157 76.4106961 3.98139759 76.3715801 3.93720482 76.335116 3.88693976 76.2976575 3.83363855 76.2628508 3.77460241 76.2293702 3.71253012"></polygon>
                <path d="M76.8640773,0.259792771 L76.8481657,0.259792771 C76.8249613,0.261479518 76.8017569,0.262828916 76.7798785,0.26586506 L76.7639669,0.268563855 L76.7381105,0.273286747 C76.7059558,0.280371084 76.6741326,0.290828916 76.6436354,0.302636145 L76.6220884,0.313093976 L76.578663,0.336708434 L76.5408729,0.358973494 C76.5352376,0.363359036 76.5292707,0.366057831 76.5236354,0.370780723 L76.4918122,0.395744578 L76.4540221,0.429479518 C76.4526961,0.429479518 76.4510387,0.431166265 76.4497127,0.432515663 L76.4105967,0.472660241 L76.377116,0.509431325 C76.3744641,0.513816867 76.3714807,0.51820241 76.3684972,0.521238554 L76.3353481,0.567118072 L76.297558,0.620081928 L76.2713702,0.662925301 C76.2657348,0.672033735 76.259768,0.682154217 76.2554586,0.690925301 L76.2296022,0.738154217 L76.1961215,0.806298795 L76.1815359,0.838684337 L76.1656243,0.874106024 L76.1513702,0.909527711 L76.1367845,0.947985542 L76.1251823,0.977672289 C76.1221989,0.982057831 76.1208729,0.987792771 76.1192155,0.99386506 L76.1092707,1.02186506 L76.096011,1.06032289 L76.0847403,1.09878072 L76.0731381,1.1369012 L76.0612044,1.17839518 L76.0542431,1.20369639 C76.0423094,1.24653976 76.0323646,1.28904578 76.0224199,1.3349253 L76.0207624,1.34369639 L76.0134696,1.38080482 C76.0091602,1.40306988 76.0048508,1.42499759 76.0005414,1.44726265 L75.996232,1.47391325 L75.9889392,1.51810602 L75.9833039,1.55656386 C75.9816464,1.56533494 75.9803204,1.57275663 75.978663,1.58152771 L75.977337,1.60210602 C75.976011,1.60514217 75.976011,1.60817831 75.976011,1.61121446 L75.9700442,1.65709398 L75.9687182,1.67328675 C75.9627514,1.71613012 75.958442,1.76032289 75.9557901,1.80451566 L75.9528066,1.85174458 L75.9498232,1.88413012 C75.9498232,1.89458795 75.9484972,1.90335904 75.9484972,1.91246747 L75.9468398,1.94923855 L75.9438564,2.00253976 L75.9425304,2.05280482 L75.9412044,2.10576867 L75.939547,2.14119036 L75.939547,2.21203373 L75.939547,2.28456386 L75.9412044,2.32133494 L75.9425304,2.3716 L75.9438564,2.4249012 L75.9468398,2.47786506 L75.9484972,2.5136241 C75.9484972,2.52543133 75.9498232,2.53555181 75.9498232,2.54600964 L75.9528066,2.57839518 L75.9557901,2.61988916 C75.958442,2.66543133 75.9627514,2.7096241 75.9673923,2.75415422 L75.9700442,2.77338313 L75.9743536,2.80880482 C75.977337,2.83410602 75.9803204,2.85906988 75.9846298,2.88268434 L75.9889392,2.91506988 L75.996232,2.95791325 C76.0108177,3.05237108 76.0297127,3.14278072 76.0512597,3.22981687 L76.0612044,3.26388916 L76.0731381,3.30504578 L76.0847403,3.34620241 L76.0946851,3.3802747 C76.096011,3.38331084 76.096011,3.38466024 76.0976685,3.38769639 L76.1092707,3.42311807 L76.1221989,3.4615759 L76.1367845,3.50003373 L76.1513702,3.53849157 L76.1656243,3.57391325 L76.1815359,3.60933494 L76.1961215,3.64475663 L76.2296022,3.71256386 L76.2627514,3.77463614 L76.2872818,3.81747952 C76.2932486,3.8262506 76.298884,3.83367229 76.3031934,3.84278072 L76.3353481,3.88697349 L76.3714807,3.93723855 L76.4105967,3.98143133 L76.4510387,4.0229253 L76.4888287,4.05969639 C76.4918122,4.06104578 76.4944641,4.06273253 76.4974475,4.06543133 L76.5262873,4.08769639 C76.5305967,4.09073253 76.5335801,4.09376867 76.5365635,4.09511807 L76.578663,4.12041928 L76.6220884,4.14403373 L76.6684972,4.16461205 L76.716232,4.17911807 L76.7639669,4.1909253 L76.8133591,4.19699759 L76.8640773,4.20003373 C77.1365635,4.20003373 77.358,4.00808193 77.5303757,3.62384096 C77.7027514,3.23993735 77.7896022,2.77034699 77.7896022,2.21203373 C77.7896022,1.63617831 77.7027514,1.1696241 77.5303757,0.806298795 C77.358,0.439937349 77.1365635,0.259792771 76.8640773,0.259792771" id="Fill-75"></path>
                <path d="M76.2554917,0.691093976 C76.2352707,0.72786506 76.2150497,0.764973494 76.1961547,0.80646747 L76.2293039,0.738322892 L76.2554917,0.691093976 Z M76.3685304,0.521407229 C76.3337238,0.564250602 76.3019006,0.611142169 76.2714033,0.663093976 L76.2975912,0.620250602 L76.3350497,0.567286747 L76.3685304,0.521407229 Z M76.4497459,0.432684337 C76.4252155,0.456298795 76.4003536,0.481262651 76.3771492,0.5096 L76.4106298,0.472491566 L76.4497459,0.432684337 Z M76.5236685,0.370612048 C76.5001326,0.388491566 76.4756022,0.407383133 76.4540552,0.429648193 L76.4915138,0.395913253 L76.5236685,0.370612048 Z M76.6436685,0.30246747 C76.6088619,0.317310843 76.5740552,0.336539759 76.5409061,0.358804819 L76.5786961,0.336539759 L76.6221215,0.312925301 L76.6436685,0.30246747 Z M76.7799116,0.265696386 C76.7656575,0.267383133 76.7523978,0.270081928 76.7378122,0.273118072 L76.764,0.26873253 L76.7799116,0.265696386 Z M76.8641105,0.259961446 L76.8478674,0.259961446 L76.8641105,0.259961446 Z" id="Fill-77"></path>
                <path d="M76.0977017,3.38776386 C76.1265414,3.47783614 76.1583646,3.56352289 76.1961547,3.6448241 L76.1815691,3.60940241 L76.1656575,3.57364337 L76.1510718,3.53855904 L76.1368177,3.5001012 L76.122232,3.46164337 L76.1093039,3.42318554 L76.0977017,3.38776386 Z M76.0512928,3.22988434 C76.0658785,3.2814988 76.0788066,3.33176386 76.0947182,3.38034217 L76.0847735,3.34626988 L76.0731713,3.30511325 L76.0612376,3.26395663 L76.0512928,3.22988434 Z M75.984663,2.88275181 C75.9873149,2.90771566 75.9919558,2.93301687 75.9962652,2.95798072 L75.9889724,2.91513735 L75.984663,2.88275181 Z M75.9674254,2.75422169 C75.9700773,2.7734506 75.9717348,2.79133012 75.9743867,2.80887229 L75.9700773,2.7734506 L75.9674254,2.75422169 Z M75.9498564,2.54573976 C75.9511823,2.57104096 75.9528398,2.59465542 75.9558232,2.61995663 L75.9528398,2.57846265 L75.9498564,2.54573976 Z M75.9395801,2.28463133 C75.9412376,2.36289639 75.9438895,2.4394747 75.9485304,2.51369157 L75.9468729,2.47793253 L75.9438895,2.42496867 L75.9425635,2.37166747 L75.9412376,2.32140241 L75.9395801,2.28463133 Z M75.9485304,1.91253494 C75.9438895,1.98776386 75.9412376,2.06299277 75.9395801,2.14125783 L75.9412376,2.10583614 L75.9425635,2.05287229 L75.9438895,2.00260723 L75.9468729,1.94930602 L75.9485304,1.91253494 Z M75.9558232,1.80458313 C75.9528398,1.83123373 75.9511823,1.85788434 75.9498564,1.88419759 L75.9528398,1.85181205 L75.9558232,1.80458313 Z M75.9760442,1.61128193 C75.9730608,1.63186024 75.9700773,1.65243855 75.9684199,1.67301687 L75.9700773,1.65716145 L75.9760442,1.61128193 Z M75.9786961,1.58159518 C75.9786961,1.58901687 75.9773702,1.59475181 75.9773702,1.60217349 L75.9786961,1.58159518 Z M76.0005746,1.44733012 C75.9946077,1.48275181 75.9889724,1.51952289 75.9830055,1.55629398 L75.9889724,1.51817349 L75.9962652,1.47398072 L76.0005746,1.44733012 Z M76.0221215,1.33499277 C76.0194696,1.34983614 76.0164862,1.36602892 76.0135028,1.38087229 L76.0207956,1.34376386 L76.0221215,1.33499277 Z M76.1192486,0.99393253 C76.0947182,1.06039036 76.0731713,1.13123373 76.0542762,1.20376386 L76.0612376,1.17846265 L76.0731713,1.13696867 L76.0847735,1.09884819 L76.0960442,1.06039036 L76.1093039,1.02193253 L76.1192486,0.99393253 Z M76.1961547,0.806366265 C76.1699669,0.861016867 76.1470939,0.918703614 76.1252155,0.97740241 L76.1368177,0.948053012 L76.1510718,0.909595181 L76.1656575,0.874173494 L76.1815691,0.838751807 L76.1961547,0.806366265 Z" id="Fill-79"></path>
                <path d="M76.536663,4.09518554 C76.636442,4.16467952 76.7451713,4.2001012 76.8641768,4.2001012 L76.8131271,4.19706506 L76.7640663,4.19099277 L76.716,4.17918554 L76.6682652,4.16467952 L76.6221878,4.14376386 L76.5784309,4.1201494 L76.536663,4.09518554 Z M76.497547,4.0654988 C76.5061657,4.07292048 76.516442,4.08034217 76.5263867,4.08776386 L76.497547,4.0654988 Z M76.3712486,3.93730602 C76.4090387,3.98453494 76.4481547,4.02434217 76.4885967,4.05976386 L76.4511381,4.02265542 L76.4106961,3.9814988 L76.3712486,3.93730602 Z M76.3032928,3.84251084 C76.3251713,3.87658313 76.3483757,3.90761928 76.3712486,3.93730602 L76.335116,3.88704096 L76.3032928,3.84251084 Z M76.196221,3.6448241 C76.2250608,3.70655904 76.255558,3.76424578 76.2873812,3.81754699 L76.2628508,3.77470361 L76.2293702,3.71263133 L76.196221,3.6448241 Z" id="Fill-81"></path>
                <path d="M109.136055,9.05573976 C108.094177,9.05573976 107.259812,9.9301494 107.259812,11.014053 C107.259812,12.1009928 108.117381,12.9750651 109.18379,12.9750651 C110.248541,12.9750651 111.083238,12.1009928 111.083238,11.014053 C111.083238,9.9301494 110.202133,9.05573976 109.136055,9.05573976" id="Fill-83"></path>
                <path d="M99.2063867,5.18057349 C98.1605304,5.18057349 97.3245083,6.05768193 97.3245083,7.14765783 C97.3245083,8.23763373 98.1837348,9.11474217 99.2527956,9.11474217 L99.2859448,9.10900723 C98.4008619,9.02939277 97.7070497,8.21671807 97.6795359,7.20973012 C97.6795359,7.20838072 97.6795359,7.20838072 97.6778785,7.20703133 L97.6778785,7.19792289 L97.6778785,7.19353735 L97.6778785,7.18476627 L97.6778785,7.17869398 L97.6778785,7.17430843 L97.6778785,7.16418795 L97.6778785,7.16115181 L97.6778785,7.14765783 L97.6778785,7.1358506 L97.6778785,7.12707952 L97.6778785,7.12269398 C97.6894807,6.1005253 98.3677127,5.27233253 99.2398674,5.18799518 L99.2063867,5.18057349 Z" id="Fill-85"></path>
                <path d="M99.385989,5.18057349 C99.3365967,5.18057349 99.2875359,5.18360964 99.2398011,5.18799518 L99.3021215,5.20115181 C98.402453,5.25445301 97.6894144,6.07994699 97.6778122,7.12269398 L97.6778122,7.12707952 L97.6778122,7.1358506 L97.6778122,7.14765783 L97.6778122,7.16115181 L97.6778122,7.16418795 L97.6778122,7.17295904 L97.6778122,7.17869398 L97.6778122,7.18476627 L97.6778122,7.19353735 L97.6778122,7.19792289 L97.6778122,7.20703133 C97.6794696,7.20838072 97.6794696,7.20838072 97.6794696,7.20973012 C97.7069834,8.23763373 98.4342762,9.04558554 99.3438895,9.0972 L99.2858785,9.10900723 C99.3326188,9.11170602 99.3803536,9.11474217 99.4280884,9.11474217 C100.398696,9.11474217 101.159138,8.23763373 101.159138,7.14765783 C101.159138,6.05768193 100.356597,5.18057349 99.385989,5.18057349" id="Fill-87"></path>
                <path d="M97.6794033,7.20969639 C97.7069171,8.21668434 98.4007293,9.02935904 99.2861436,9.10897349 L99.3441547,9.09716627 C98.4342099,9.04555181 97.7069171,8.2376 97.6794033,7.20969639 Z M97.6777459,7.19788916 L97.6777459,7.20699759 L97.6777459,7.19788916 Z M97.6777459,7.18473253 L97.6777459,7.19350361 L97.6777459,7.18473253 Z M97.6777459,7.1729253 L97.6777459,7.17866024 L97.6777459,7.1742747 L97.6777459,7.1729253 Z M97.6777459,7.16111807 L97.6777459,7.16415422 L97.6777459,7.16111807 Z M97.6777459,7.12704578 L97.6777459,7.13581687 L97.6777459,7.12704578 Z M99.2397348,5.18796145 C98.3675801,5.2722988 97.6893481,6.10049157 97.6777459,7.12266024 C97.6893481,6.07991325 98.4023867,5.25441928 99.3020552,5.20111807 L99.2397348,5.18796145 Z" id="Fill-89"></path>
                <polygon id="Fill-91" points="0.102596685 9.27764819 3.10723757 9.27764819 6.64226519 19.8963952 11.0869061 9.06882892 15.530221 19.8963952 19.0649171 9.27764819 22.0960773 9.27764819 15.9081215 27.922612 11.0869061 15.9774072 6.26370166 27.922612"></polygon>
                <polygon id="Fill-93" points="23.8127403 14.7315422 23.8127403 14.7315422 26.5913039 14.7315422 26.5913039 27.713759 23.8127403 27.713759"></polygon>
                <path d="M29.0394696,21.222853 C29.0394696,17.4313831 31.8180331,14.5197205 35.5559337,14.5197205 C37.5740552,14.5197205 39.2169282,15.378612 40.3761547,16.6777446 L38.4823425,18.6809253 C37.8279779,17.8969253 36.8683094,17.3008289 35.5559337,17.3008289 C33.4088619,17.3008289 31.8936133,18.9636241 31.8936133,21.222853 C31.8936133,23.4820819 33.4088619,25.1448771 35.5559337,25.1448771 C36.8683094,25.1448771 37.8279779,24.5460819 38.4823425,23.7711904 L40.3761547,25.7676241 C39.2169282,27.067094 37.5740552,27.922612 35.5559337,27.922612 C31.8180331,27.922612 29.0394696,25.0136482 29.0394696,21.222853" id="Fill-95"></path>
                <path d="M41.3118564,21.222853 C41.3118564,17.4313831 44.0904199,14.5197205 47.8515249,14.5197205 C51.5890939,14.5197205 54.3925193,17.4313831 54.3925193,21.222853 C54.3925193,25.0136482 51.5890939,27.922612 47.8515249,27.922612 C44.0904199,27.922612 41.3118564,25.0136482 41.3118564,21.222853 M51.5383757,21.222853 C51.5383757,18.9636241 49.9982652,17.2465157 47.8515249,17.2465157 C45.6799227,17.2465157 44.166,18.9636241 44.166,21.222853 C44.166,23.4820819 45.6799227,25.1951422 47.8515249,25.1951422 C49.9982652,25.1951422 51.5383757,23.4820819 51.5383757,21.222853" id="Fill-97"></path>
                <path d="M56.8409503,14.7315422 L59.6181878,14.7315422 L59.6181878,15.9507229 C60.5032707,14.9609398 61.8418343,14.5200241 63.1545414,14.5200241 C66.2851492,14.5200241 68.2787403,16.7549639 68.2787403,20.1051807 L68.2787403,27.713759 L65.5028287,27.713759 L65.5028287,20.1561205 C65.5028287,18.7578072 64.4927735,17.2464819 62.6228287,17.2464819 C61.211337,17.2464819 60.1237127,18.003494 59.6181878,19.5330361 L59.6181878,27.713759 L56.8409503,27.713759 L56.8409503,14.7315422 Z" id="Fill-99"></path>
                <path d="M71.2339558,14.7315422 L74.0111934,14.7315422 L74.0111934,15.9507229 C74.8949503,14.9609398 76.2338453,14.5200241 77.5465525,14.5200241 C80.6768287,14.5200241 82.6734033,16.7549639 82.6734033,20.1051807 L82.6734033,27.713759 L79.8948398,27.713759 L79.8948398,20.1561205 C79.8948398,18.7578072 78.8861105,17.2464819 77.0158343,17.2464819 C75.6033481,17.2464819 74.5167182,18.003494 74.0111934,19.5330361 L74.0111934,27.713759 L71.2339558,27.713759 L71.2339558,14.7315422 Z" id="Fill-101"></path>
                <path d="M84.8710608,21.222853 C84.8710608,17.4313831 87.6482983,14.5197205 91.3338232,14.5197205 C94.8423315,14.5197205 97.1909503,17.0680578 97.3676354,21.222853 L97.3676354,22.0004434 L87.7480773,22.0004434 C88.0248729,23.8450699 89.4907293,25.0936 91.3845414,25.0936 C92.8984641,25.0936 94.0112818,24.3642506 94.6659779,23.6133108 L96.5349282,25.6633831 C95.4479669,26.962853 93.6052044,27.922612 91.3845414,27.922612 C87.6482983,27.922612 84.8710608,25.0136482 84.8710608,21.222853 M87.822,19.7918169 L94.3122762,19.7918169 C93.9850939,18.0278169 92.7970276,17.142612 91.1309503,17.142612 C89.6418895,17.142612 88.2797901,18.1590458 87.822,19.7918169" id="Fill-103"></path>
                <path d="M99.0354033,21.222853 C99.0354033,17.4313831 101.812641,14.5197205 105.548884,14.5197205 C107.569657,14.5197205 109.211204,15.378612 110.373414,16.6777446 L108.478276,18.6809253 C107.821923,17.8969253 106.861591,17.3008289 105.548884,17.3008289 C103.403138,17.3008289 101.888221,18.9636241 101.888221,21.222853 C101.888221,23.4820819 103.403138,25.1448771 105.548884,25.1448771 C106.861591,25.1448771 107.821923,24.5460819 108.478276,23.7711904 L110.373414,25.7676241 C109.211204,27.067094 107.569657,27.922612 105.548884,27.922612 C101.812641,27.922612 99.0354033,25.0136482 99.0354033,21.222853" id="Fill-105"></path>
                <path d="M116.078122,23.171788 L116.078122,17.2735711 L119.310166,17.2735711 L119.917127,14.7316434 L116.078122,14.7316434 L116.078122,10.8366072 L113.302541,10.8366072 L113.302541,14.7316434 L110.852486,14.7316434 L111.458453,17.2735711 L113.302541,17.2735711 L113.302541,23.7712578 C113.302541,26.2355952 114.740884,27.7138602 117.165083,27.7138602 L119.614807,27.7138602 L119.614807,25.0936675 L117.873149,25.0936675 C116.431823,25.0936675 116.078122,24.4948723 116.078122,23.171788" id="Fill-107"></path>
                <path d="M67.3294144,0.0427759036 L67.6701878,0.0427759036 C67.7689724,0.0427759036 67.8485304,0.126438554 67.8485304,0.225281928 L67.8485304,3.83694458 C67.8485304,3.9381494 67.7689724,4.01911325 67.6701878,4.01911325 L67.3294144,4.01911325 C67.2329503,4.01911325 67.1530608,3.9381494 67.1530608,3.83694458 L67.1530608,0.225281928 C67.1530608,0.126438554 67.2329503,0.0427759036 67.3294144,0.0427759036" id="Fill-109"></path>
                <polygon id="Fill-111" points="48.2888287 5.42117108 48.8192155 5.45962892 48.7701547 5.52541205 48.7207624 5.58815904 48.6687182 5.64786988 48.6136906 5.70117108 48.558 5.7490747 48.5006519 5.79630361 48.4413149 5.83543614 48.378663 5.87423133 48.3163425 5.90695422 48.2517017 5.93394217 48.1847403 5.95755663 48.1151271 5.9750988 48.0455138 5.99365301 47.9735801 6.00208675 47.899326 6.00782169 47.8240773 6.01085783 47.7484972 6.00782169 47.217116 5.96936386 47.2920331 5.97206265 47.3676133 5.96936386 47.4428619 5.96362892 47.5138011 5.95114699 47.5850718 5.93664096 47.6530276 5.9184241 47.7196575 5.89480964 47.7849613 5.86512289 47.8486077 5.8324 47.9092707 5.79630361 47.9686077 5.75447229 48.0266188 5.71027952 48.0836354 5.66203855 48.1370055 5.6057012 48.1890497 5.54902651 48.2394365 5.48661687"></polygon>
                <polygon id="Fill-113" points="47.3676464 2.0475759 47.8993591 2.08873253 47.9732818 2.09514217 48.045547 2.10391325 48.1151602 2.11875663 48.1847735 2.14000964 48.2517348 2.1636241 48.3163757 2.1902747 48.3786961 2.2202988 48.4413481 2.25909398 48.5006851 2.29755181 48.5580331 2.34241928 48.6137238 2.39302169 48.6687514 2.44396145 48.7207956 2.50299759 48.7701878 2.56270843 48.8192486 2.63152771 48.2888619 2.58969639 48.2394696 2.5235759 48.1890829 2.46453976 48.1367072 2.40482892 48.0836685 2.35152771 48.0266519 2.30328675 47.9686409 2.25909398 47.9093039 2.2202988 47.8486409 2.18116627 47.7849945 2.15147952 47.7193591 2.12145542 47.6527293 2.10087711 47.585105 2.0796241 47.5138343 2.06545542 47.442895 2.05634699"></polygon>
                <polygon id="Fill-115" points="48.2888287 2.58959518 48.8192155 2.63142651 48.8424199 2.6641494 48.8652928 2.70024578 48.8871713 2.73600482 48.9090497 2.77142651 48.9296022 2.80684819 48.9498232 2.84598072 48.9687182 2.88173976 48.9872818 2.92053494 49.0045193 2.95899277 49.0207624 3.0008241 49.0363425 3.03995663 49.0525856 3.08178795 49.0668398 3.12294458 49.0814254 3.1647759 49.0943536 3.20930602 49.1059558 3.2514747 49.1178895 3.29634217 49.1294917 3.34053494 49.1394365 3.38573976 49.1483867 3.43296867 49.1570055 3.47817349 49.1639669 3.52506506 49.1712597 3.57330602 49.1785525 3.62087229 49.1841878 3.67181205 49.1888287 3.72241446 49.1928066 3.76998072 49.1957901 3.82328193 49.1987735 3.87388434 49.2000994 3.9248241 49.2017569 3.9788 49.2017569 4.0321012 49.2017569 4.08607711 49.2000994 4.13937831 49.1987735 4.19335422 49.1957901 4.24429398 49.1928066 4.29422169 49.1888287 4.34819759 49.1841878 4.39576386 49.1785525 4.44636627 49.1712597 4.49426988 49.1639669 4.54487229 49.1570055 4.59243855 49.1483867 4.64000482 49.1394365 4.68487229 49.1294917 4.73243855 49.1178895 4.77764337 49.1059558 4.82183614 49.0943536 4.86670361 49.0814254 4.91123373 49.0668398 4.95306506 49.0525856 4.99793253 49.0363425 5.03942651 49.0207624 5.07822169 49.0045193 5.12005301 48.9872818 5.16154699 48.9687182 5.20034217 48.9498232 5.2394747 48.9296022 5.27826988 48.9090497 5.31335422 48.8871713 5.35248675 48.8652928 5.38790843 48.8424199 5.42400482 48.8192155 5.45976386 48.2888287 5.42130602 48.3123646 5.38520964 48.3339116 5.3494506 48.357116 5.31335422 48.377337 5.27489639 48.398884 5.2394747 48.4194365 5.20034217 48.436674 5.16154699 48.4555691 5.12308916 48.4731381 5.08125783 48.4907072 5.03942651 48.5062873 4.99793253 48.5225304 4.9561012 48.5367845 4.91426988 48.5500442 4.8727759 48.5629724 4.82824578 48.5755691 4.78304096 48.5875028 4.73851084 48.5974475 4.69398072 48.6073923 4.64641446 48.6163425 4.60120964 48.6262873 4.55398072 48.6335801 4.50573976 48.6412044 4.4554747 48.6468398 4.40757108 48.6524751 4.35730602 48.6567845 4.30670361 48.6614254 4.25576386 48.6654033 4.20516145 48.6667293 4.15084819 48.6687182 4.10092048 48.6700442 4.04694458 48.6717017 3.99364337 48.6700442 3.93966747 48.6687182 3.88636627 48.6667293 3.83576386 48.6654033 3.7814506 48.6614254 3.73084819 48.6567845 3.67990843 48.6524751 3.63301687 48.6468398 3.58241446 48.6412044 3.53417349 48.6335801 3.48728193 48.6262873 3.43904096 48.6163425 3.39484819 48.6073923 3.34660723 48.5974475 3.30207711 48.5875028 3.25720964 48.5755691 3.21234217 48.5629724 3.17118554 48.5500442 3.12598072 48.5367845 3.0841494 48.5225304 3.04265542 48.5062873 3.0008241 48.4907072 2.96202892 48.4731381 2.92053494 48.4555691 2.88173976 48.436674 2.84294458 48.4194365 2.80684819 48.398884 2.76839036 48.377337 2.73296867 48.357116 2.69687229 48.3339116 2.66111325 48.3123646 2.62535422"></polygon>
                <path d="M47.2921326,5.97189398 C46.8897017,5.97189398 46.5578785,5.78196627 46.2983204,5.4004241 C46.0437348,5.01584578 45.9147845,4.55097831 45.9147845,3.99367711 C45.9147845,3.41849639 46.0437348,2.95329157 46.2983204,2.58962892 C46.5578785,2.22933976 46.8897017,2.04750843 47.2921326,2.04750843 C47.7008619,2.04750843 48.0343425,2.22933976 48.2889282,2.58962892 C48.5438453,2.95329157 48.6714696,3.41849639 48.6714696,3.99367711 C48.6714696,4.57189398 48.5438453,5.04856867 48.2889282,5.42100241 C48.0343425,5.78702651 47.7008619,5.97189398 47.2921326,5.97189398" id="Fill-117"></path>
                <polygon id="Fill-119" points="58.1782873 0.202544578 58.7544199 0.214689157 58.8071271 0.217387952 58.8561878 0.22379759 58.9035912 0.231893976 58.951326 0.247412048 58.9980663 0.267990361 59.0428177 0.291604819 59.0862431 0.31893012 59.1283425 0.351653012 59.1687845 0.390110843 59.2092265 0.428906024 59.248674 0.473773494 59.2861326 0.524375904 59.3229282 0.577677108 59.3574033 0.637387952 59.3905525 0.697436145 59.4240331 0.765580723 58.8459116 0.753773494 58.8124309 0.688327711 58.7792818 0.625918072 58.7444751 0.566207229 58.7070166 0.512231325 58.6705525 0.46466506 58.6314365 0.41979759 58.5909945 0.378640964 58.5505525 0.339508434 58.508453 0.309821687 58.4633702 0.27979759 58.4199448 0.256520482 58.3735359 0.237966265 58.3254696 0.22379759 58.2777348 0.211315663 58.2290055 0.205243373"></polygon>
                <polygon id="Fill-121" points="58.8460442 0.753706024 59.4238343 0.765850602 59.4384199 0.801272289 59.4543315 0.833995181 59.4685856 0.870091566 59.4835028 0.909224096 59.4977569 0.944645783 59.5113481 0.983103614 59.5239448 1.02223614 59.5368729 1.06069398 59.5484751 1.09948916 59.5587514 1.14098313 59.5700221 1.18281446 59.5802983 1.22160964 59.5905746 1.26647711 59.5991934 1.30830843 59.6078122 1.3531759 59.6167624 1.39433253 59.6240552 1.4392 59.6313481 1.48676627 59.6383094 1.53129639 59.6442762 1.5765012 59.6499116 1.62373012 59.655547 1.67129639 59.6605193 1.72223614 59.6644972 1.77013976 59.6671492 1.82107952 59.6717901 1.87168193 59.6747735 1.92194699 59.6760994 1.97288675 59.6774254 2.0265253 59.6787514 2.07746506 59.6807403 2.13076627 59.6807403 2.18406747 59.6807403 2.24074217 59.6787514 2.29471807 59.6774254 2.34801928 59.6760994 2.39862169 59.6747735 2.45259759 59.6717901 2.5032 59.6671492 2.55346506 59.6644972 2.60440482 59.6605193 2.65500723 59.655547 2.70324819 59.6499116 2.75351325 59.6442762 2.80107952 59.6383094 2.84898313 59.6313481 2.89418795 59.6240552 2.94107952 59.6167624 2.98628434 59.6078122 3.03047711 59.5991934 3.07534458 59.5905746 3.12021205 59.5802983 3.16204337 59.5700221 3.2038747 59.5587514 3.24503133 59.5484751 3.2872 59.5368729 3.32903133 59.5239448 3.36748916 59.5113481 3.40628434 59.4977569 3.44474217 59.4835028 3.4838747 59.4685856 3.52266988 59.4543315 3.55842892 59.4384199 3.5938506 59.4238343 3.62994699 58.8460442 3.61746506 58.8602983 3.58238072 58.8765414 3.54628434 58.8907956 3.51086265 58.9053812 3.47173012 58.9196354 3.43630843 58.932895 3.39751325 58.9461547 3.35871807 58.9574254 3.31688675 58.9690276 3.27775422 58.9806298 3.23659759 58.992232 3.19476627 59.0021768 3.1498988 59.0121215 3.10874217 59.0210718 3.06353735 59.0296906 3.01900723 59.0386409 2.97380241 59.0459337 2.92927229 59.052895 2.88474217 59.0601878 2.83683855 59.0661547 2.78927229 59.0717901 2.74170602 59.0777569 2.69413976 59.0820663 2.64353735 59.0863757 2.59259759 59.0893591 2.54199518 59.094 2.49105542 59.095326 2.44045301 59.0979779 2.3898506 59.0996354 2.33621205 59.1009613 2.28291084 59.1019558 2.22927229 59.1019558 2.17495904 59.1019558 2.12165783 59.1009613 2.06532048 59.0996354 2.01471807 59.0979779 1.96040482 59.095326 1.91013976 59.094 1.85886265 59.0893591 1.80893494 59.0863757 1.75833253 59.0820663 1.71042892 59.0777569 1.66286265 59.0717901 1.61529639 59.0661547 1.56739277 59.0601878 1.51948916 59.052895 1.47529639 59.0459337 1.43042892 59.0386409 1.38556145 59.0296906 1.34103133 59.0210718 1.29582651 59.0121215 1.25433253 59.0021768 1.2125012 58.992232 1.17066988 58.9806298 1.12951325 58.9690276 1.09038072 58.9574254 1.0485494 58.9461547 1.01009157 58.932895 0.971633735 58.9196354 0.935537349 58.9053812 0.896404819 58.8907956 0.860983133 58.8765414 0.824886747 58.8602983 0.78980241"></polygon>
                <polygon id="Fill-123" points="58.8460442 3.6174988 59.4238343 3.62998072 59.3906851 3.6981253 59.3575359 3.76087229 59.3227293 3.82058313 59.2862652 3.87388434 59.2488066 3.9248241 59.2093591 3.96969157 59.1689171 4.01152289 59.1284751 4.05031807 59.0863757 4.08304096 59.0426188 4.10935422 58.9978674 4.13364337 58.9514586 4.15422169 58.9033923 4.16906506 58.8563204 4.18120964 58.8069282 4.18694458 58.7545525 4.18998072 58.1784199 4.17817349 58.2291381 4.1754747 58.2778674 4.16906506 58.3256022 4.15995663 58.3736685 4.14275181 58.4200773 4.12453494 58.4631713 4.10092048 58.5085856 4.07089639 58.5503536 4.03783614 58.5907956 4.00241446 58.6315691 3.96092048 58.6706851 3.91267952 58.7068177 3.86241446 58.7442762 3.80843855 58.7794144 3.74872771 58.812232 3.68631807"></polygon>
                <path d="M58.1782873,4.17830843 C57.9058011,4.17830843 57.6840331,3.98736867 57.511326,3.59671807 C57.3392818,3.20910361 57.2520994,2.73816386 57.2520994,2.17512771 C57.2520994,1.5945494 57.3392818,1.12360964 57.511326,0.753874699 C57.6840331,0.387175904 57.9058011,0.202645783 58.1782873,0.202645783 C58.451768,0.202645783 58.6748619,0.387175904 58.8459116,0.753874699 C59.0169613,1.12360964 59.1021547,1.5945494 59.1021547,2.17512771 C59.1021547,2.75941687 59.0169613,3.24216386 58.8459116,3.61763373 C58.6748619,3.99074217 58.451768,4.17830843 58.1782873,4.17830843" id="Fill-125"></path>
                <path d="M27.1127072,10.9260048 C27.1127072,9.82894458 26.2783425,8.9467759 25.2367956,8.9467759 C24.1707182,8.9467759 23.2896133,9.82894458 23.2896133,10.9260048 C23.2896133,12.0227277 24.1243094,12.9018602 25.1890608,12.9018602 C26.2551381,12.9018602 27.1127072,12.0227277 27.1127072,10.9260048" id="Fill-127"></path>
                <path d="M36.303547,5.1498747 C36.2703978,5.1498747 36.2412265,5.16775422 36.2080773,5.17045301 C37.1147072,5.22409157 37.8320552,6.0705012 37.8320552,7.1345012 C37.8320552,8.2012 37.0948177,9.04828434 36.1659779,9.09888675 C36.1978011,9.10158554 36.2236575,9.11946506 36.2571381,9.11946506 C37.3261989,9.11946506 38.1857569,8.23426024 38.1857569,7.1345012 C38.1857569,6.03474217 37.3497348,5.1498747 36.303547,5.1498747" id="Fill-129"></path>
                <path d="M37.8319227,7.1344 C37.8319227,6.03497831 37.0731381,5.14977349 36.1237459,5.14977349 C35.1534696,5.14977349 34.3505967,6.03497831 34.3505967,7.1344 C34.3505967,8.23449639 35.1117017,9.11936386 36.0819779,9.11936386 C37.0525856,9.11936386 37.8319227,8.23449639 37.8319227,7.1344" id="Fill-131"></path>
                <polygon id="Fill-133" points="87.3746519 4.99213012 86.8442652 5.0302506 86.893326 5.09603373 86.9427182 5.15844337 86.9950939 5.21815422 87.0497901 5.27213012 87.1051492 5.31969639 87.1628287 5.36726265 87.2221657 5.40639518 87.2848177 5.44485301 87.3471381 5.4775759 87.411779 5.50422651 87.4787403 5.52851566 87.5480221 5.54605783 87.6179669 5.56393735 87.6899006 5.57270843 87.7641547 5.57878072 87.8390718 5.58181687 87.9146519 5.57878072 88.4463646 5.53998554 88.371116 5.54335904 88.2955359 5.53998554 88.2206188 5.5342506 88.1496796 5.52210602 88.0784088 5.50726265 88.010453 5.48938313 87.9438232 5.46576867 87.8785193 5.43608193 87.8148729 5.40335904 87.7542099 5.36726265 87.6948729 5.32543133 87.6368619 5.28123855 87.5798453 5.23299759 87.5264751 5.17666024 87.4744309 5.11998554 87.4240442 5.0575759"></polygon>
                <polygon id="Fill-135" points="88.2955691 1.61802892 87.7641878 1.65986024 87.6899337 1.66593253 87.6176685 1.67436627 87.5480552 1.68954699 87.4787735 1.71046265 87.4118122 1.73407711 87.3471713 1.76140241 87.2848508 1.79108916 87.2221989 1.82954699 87.1628619 1.86800482 87.1051823 1.91320964 87.0498232 1.96381205 86.9951271 2.01475181 86.9427514 2.0741253 86.8933591 2.13383614 86.8442983 2.20231807 87.3746851 2.16048675 87.4240773 2.09504096 87.4744641 2.03533012 87.5265083 1.97595663 87.5798785 1.92198072 87.636895 1.87441446 87.6949061 1.82954699 87.7542431 1.79108916 87.8149061 1.75229398 87.8785525 1.72226988 87.9438564 1.69258313 88.0104862 1.67133012 88.078442 1.65075181 88.1497127 1.63624578 88.2206519 1.62713735"></polygon>
                <polygon id="Fill-137" points="87.3746519 2.16055422 86.8442652 2.20238554 86.8210608 2.23510843 86.7981878 2.27086747 86.7759779 2.30628916 86.7540994 2.34238554 86.7338785 2.37814458 86.7136575 2.41693976 86.6947624 2.4526988 86.6761989 2.49081928 86.6589613 2.52995181 86.6427182 2.57178313 86.6268066 2.61091566 86.610895 2.65207229 86.5963094 2.69390361 86.5820552 2.73573494 86.5691271 2.78026506 86.5575249 2.82243373 86.5455912 2.86662651 86.533989 2.91149398 86.5240442 2.9566988 86.5150939 3.00392771 86.5064751 3.04913253 86.4995138 3.0960241 86.492221 3.14426506 86.4849282 3.19183133 86.4792928 3.24243373 86.4746519 3.29337349 86.470674 3.34060241 86.4673591 3.39491566 86.4643757 3.44484337 86.4630497 3.49544578 86.4620552 3.54975904 86.4620552 3.60306024 86.4620552 3.65636145 86.4630497 3.71033735 86.4643757 3.76431325 86.4673591 3.81457831 86.470674 3.86585542 86.4746519 3.91915663 86.4792928 3.96638554 86.4849282 4.0173253 86.492221 4.06489157 86.4995138 4.11583133 86.5064751 4.16339759 86.5150939 4.21096386 86.5240442 4.25583133 86.533989 4.30339759 86.5455912 4.34826506 86.5575249 4.39279518 86.5691271 4.43698795 86.5820552 4.48219277 86.5963094 4.5240241 86.610895 4.56821687 86.6268066 4.61038554 86.6427182 4.64918072 86.6589613 4.6906747 86.6761989 4.73250602 86.6947624 4.7713012 86.7136575 4.81043373 86.7338785 4.84889157 86.7540994 4.88431325 86.7759779 4.92344578 86.7981878 4.95886747 86.8210608 4.99496386 86.8442652 5.03004819 87.3746519 4.99226506 87.351116 4.95616867 87.3295691 4.92040964 87.3063646 4.88431325 87.2861436 4.84551807 87.2645967 4.81043373 87.2437127 4.7713012 87.2268066 4.73250602 87.2079116 4.69404819 87.1903425 4.65187952 87.1727735 4.61038554 87.1571934 4.56821687 87.1409503 4.52706024 87.1266961 4.48522892 87.1134365 4.44339759 87.1005083 4.39920482 87.0879116 4.354 87.0759779 4.30913253 87.0660331 4.26493976 87.0560884 4.2166988 87.0471381 4.17250602 87.0371934 4.12460241 87.0295691 4.0766988 87.0222762 4.02575904 87.0166409 3.97886747 87.0110055 3.92826506 87.0066961 3.8773253 87.0020552 3.82672289 86.9977459 3.77578313 86.9967514 3.72214458 86.9950939 3.67187952 86.9934365 3.61756627 86.991779 3.56426506 86.9934365 3.51062651 86.9950939 3.4573253 86.9967514 3.40638554 86.9977459 3.35240964 87.0020552 3.30180723 87.0066961 3.25154217 87.0110055 3.2039759 87.0166409 3.1526988 87.0222762 3.10513253 87.0295691 3.05756627 87.0371934 3.01 87.0471381 2.96513253 87.0560884 2.91756627 87.0660331 2.87303614 87.0759779 2.82816867 87.0879116 2.7833012 87.1005083 2.74146988 87.1134365 2.69693976 87.1266961 2.65510843 87.1409503 2.61327711 87.1571934 2.57178313 87.1727735 2.53298795 87.1903425 2.49081928 87.2079116 2.4526988 87.2268066 2.41390361 87.2437127 2.37814458 87.2645967 2.33901205 87.2861436 2.30359036 87.3063646 2.26715663 87.3295691 2.23240964 87.351116 2.19631325"></polygon>
                <path d="M88.3711492,5.5433253 C88.7735801,5.5433253 89.1057348,5.35238554 89.3649613,4.97084337 C89.6198785,4.58660241 89.7488287,4.12139759 89.7488287,3.56409639 C89.7488287,2.98925301 89.6198785,2.52371084 89.3649613,2.16072289 C89.1057348,1.79975904 88.7735801,1.61792771 88.3711492,1.61792771 C87.9627514,1.61792771 87.6292707,1.79975904 87.3746851,2.16072289 C87.1194365,2.52371084 86.9918122,2.98925301 86.9918122,3.56409639 C86.9918122,4.1426506 87.1194365,4.6193253 87.3746851,4.99209639 C87.6292707,5.35812048 87.9627514,5.5433253 88.3711492,5.5433253" id="Fill-139"></path>
                <polygon id="Fill-141" points="76.9666077 3.37349398e-05 76.3901436 0.0115036145 76.337768 0.014539759 76.2887072 0.0206120482 76.2406409 0.0297204819 76.1935691 0.044226506 76.1468287 0.0654795181 76.1017459 0.0890939759 76.0583204 0.116081928 76.0165525 0.148804819 75.9761105 0.1876 75.935337 0.22673253 75.896221 0.270925301 75.8584309 0.321190361 75.8222983 0.375166265 75.7874917 0.434877108 75.754011 0.494587952 75.7205304 0.563407229 76.2989834 0.551262651 76.3321326 0.485479518 76.3656133 0.42273253 76.4000884 0.363021687 76.4378785 0.309720482 76.4743425 0.261816867 76.5131271 0.217286747 76.5539006 0.175455422 76.5943425 0.136660241 76.6361105 0.106636145 76.6815249 0.0769493976 76.7249503 0.0533349398 76.7713591 0.0354554217 76.8187624 0.0206120482 76.8664972 0.00880481928 76.9158895 0.00306987952"></polygon>
                <polygon id="Fill-143" points="76.2988508 0.551228916 75.7207293 0.563373494 75.7064751 0.598795181 75.690232 0.631518072 75.6759779 0.667277108 75.6613923 0.706072289 75.6471381 0.741831325 75.633547 0.780626506 75.6209503 0.819759036 75.6080221 0.858216867 75.5964199 0.896674699 75.5861436 0.938506024 75.5742099 0.980337349 75.5642652 1.01879518 75.553989 1.064 75.5453702 1.10583133 75.5367514 1.1500241 75.5281326 1.19185542 75.5211713 1.23672289 75.513547 1.28428916 75.5062541 1.32881928 75.5006188 1.37368675 75.4946519 1.42125301 75.4893481 1.46881928 75.4847072 1.51942169 75.4803978 1.56766265 75.4774144 1.61792771 75.473105 1.66886747 75.4701215 1.71946988 75.4687956 1.77007229 75.4674696 1.82404819 75.4654807 1.87431325 75.4641547 1.92795181 75.4641547 1.98159036 75.4641547 2.03826506 75.4654807 2.09190361 75.4674696 2.14520482 75.4687956 2.19614458 75.4701215 2.25012048 75.473105 2.30072289 75.4774144 2.35166265 75.4803978 2.40192771 75.4847072 2.45253012 75.4893481 2.50009639 75.4946519 2.5506988 75.5006188 2.59860241 75.5062541 2.64583133 75.513547 2.69103614 75.5211713 2.73826506 75.5281326 2.78346988 75.5367514 2.82833735 75.5453702 2.87286747 75.553989 2.91773494 75.5642652 2.95889157 75.5742099 3.00072289 75.5861436 3.04289157 75.5964199 3.08404819 75.6080221 3.12587952 75.6209503 3.16501205 75.633547 3.20380723 75.6471381 3.24226506 75.6613923 3.28072289 75.6759779 3.31985542 75.690232 3.35595181 75.7064751 3.39137349 75.7207293 3.42746988 76.2988508 3.4153253 76.2845967 3.37956627 76.2683536 3.34380723 76.2540994 3.30771084 76.2391823 3.26925301 76.2249282 3.23383133 76.2116685 3.1946988 76.1987403 3.15590361 76.1874696 3.11440964 76.1758674 3.07527711 76.1642652 3.03344578 76.152663 2.99161446 76.1423867 2.94742169 76.1321105 2.90559036 76.1238232 2.86106024 76.1152044 2.81619277 76.1062541 2.7713253 76.0989613 2.72679518 76.091337 2.68192771 76.0847072 2.63436145 76.0787403 2.58679518 76.072442 2.53922892 76.0671381 2.49098795 76.0624972 2.44038554 76.0581878 2.39012048 76.0555359 2.33918072 76.050895 2.28857831 76.0495691 2.23763855 76.0469171 2.18737349 76.0452597 2.13373494 76.0439337 2.07975904 76.0422762 2.02645783 76.0422762 1.97315663 76.0422762 1.91918072 76.0439337 1.86250602 76.0452597 1.81190361 76.0469171 1.75860241 76.0495691 1.70766265 76.050895 1.65706024 76.0555359 1.60645783 76.0581878 1.55551807 76.0624972 1.50795181 76.0671381 1.45971084 76.072442 1.41281928 76.0787403 1.36457831 76.0847072 1.31701205 76.091337 1.27214458 76.0989613 1.22795181 76.1062541 1.18274699 76.1152044 1.13787952 76.1238232 1.09368675 76.1321105 1.05185542 76.1423867 1.0100241 76.152663 0.968192771 76.1642652 0.926361446 76.1758674 0.887903614 76.1874696 0.846072289 76.1987403 0.807614458 76.2116685 0.768481928 76.2249282 0.732722892 76.2391823 0.69460241 76.2540994 0.658506024 76.2683536 0.622746988 76.2845967 0.586987952"></polygon>
                <polygon id="Fill-145" points="76.2988508 3.41546024 75.7207293 3.42760482 75.7538785 3.49541205 75.7876906 3.55815904 75.8221657 3.61753253 75.8582983 3.67184578 75.8964199 3.72244819 75.9352044 3.76697831 75.9759779 3.80847229 76.0164199 3.84726747 76.0581878 3.87999036 76.1016133 3.90697831 76.1470276 3.93093012 76.1934365 3.95184578 76.2408398 3.96635181 76.2885746 3.97883373 76.3379669 3.98456867 76.390011 3.98726747 76.9664751 3.97546024 76.9157569 3.9724241 76.8666961 3.96635181 76.8186298 3.95791807 76.771558 3.9397012 76.7248177 3.92182169 76.6817238 3.89820723 76.6363094 3.86852048 76.5945414 3.83579759 76.5540994 3.7997012 76.513326 3.75786988 76.4742099 3.71030361 76.4377459 3.65936386 76.3999558 3.60606265 76.3654807 3.54635181 76.3323315 3.48360482"></polygon>
                <path d="M76.9666077,3.9753253 C77.2390939,3.9753253 77.4605304,3.78472289 77.6329061,3.39474699 C77.8056133,3.00713253 77.8921326,2.53619277 77.8921326,1.97315663 C77.8921326,1.39156627 77.8056133,0.920626506 77.6329061,0.551228916 C77.4605304,0.18486747 77.2390939,0 76.9666077,0 C76.6931271,0 76.4697017,0.18486747 76.2989834,0.551228916 C76.1279337,0.920626506 76.0420773,1.39156627 76.0420773,1.97315663 C76.0420773,2.55677108 76.1279337,3.03985542 76.2989834,3.4153253 C76.4697017,3.78775904 76.6931271,3.9753253 76.9666077,3.9753253" id="Fill-147"></path>
                <path d="M107.362608,10.8543518 C107.362608,9.75729157 108.196972,8.87512289 109.238851,8.87512289 C110.304928,8.87512289 111.185702,9.75729157 111.185702,10.8543518 C111.185702,11.9510747 110.351669,12.8302072 109.286917,12.8302072 C108.220177,12.8302072 107.362608,11.9510747 107.362608,10.8543518" id="Fill-149"></path>
                <path d="M99.3089834,4.96520964 C99.3424641,4.96520964 99.3716354,4.98308916 99.404453,4.98578795 C98.4978232,5.03942651 97.7808066,5.88583614 97.7808066,6.94983614 C97.7808066,8.01653494 98.5183757,8.86294458 99.4465525,8.91422169 C99.4150608,8.91692048 99.3885414,8.9348 99.3553923,8.9348 C98.286663,8.9348 97.427105,8.04925783 97.427105,6.94983614 C97.427105,5.85007711 98.2631271,4.96520964 99.3089834,4.96520964" id="Fill-151"></path>
                <path d="M97.7808066,6.9497012 C97.7808066,5.85027952 98.5395912,4.9650747 99.4889834,4.9650747 C100.45926,4.9650747 101.262133,5.85027952 101.262133,6.9497012 C101.262133,8.04912289 100.501359,8.93466506 99.5307514,8.93466506 C98.5601436,8.93466506 97.7808066,8.04912289 97.7808066,6.9497012" id="Fill-153"></path>
            </g>
        </g>
    </g>
</svg>