<?xml version="1.0" encoding="UTF-8"?>
<svg width="145px" height="145px" viewBox="0 0 145 145" version="1.1" xmlns="http://www.w3.org/2000/svg" xmlns:xlink="http://www.w3.org/1999/xlink">
    <!-- Generator: sketchtool 51.2 (57519) - http://www.bohemiancoding.com/sketch -->
    <title>0DF3B8F7-8A5E-42F3-93FC-0A8CA07DB418</title>
    <desc>Created with sketchtool.</desc>
    <defs></defs>
    <g id="Page-1" stroke="none" stroke-width="1" fill="none" fill-rule="evenodd">
        <g id="Wiconnect-offerings-5-Audience-Extension" transform="translate(-476.000000, -932.000000)">
            <g id="Look-alike" transform="translate(476.000000, 932.000000)">
                <g id="Group-2">
                    <circle id="Oval-3" fill="#FECD46" fill-rule="nonzero" cx="72.5" cy="72.5" r="72.5"></circle>
                    <g id="Group-11" transform="translate(20.000000, 21.000000)" stroke="#2C334D" stroke-linecap="round" stroke-linejoin="round" stroke-width="2">
                        <polygon id="Fill-1" fill="#FECD46" points="7.44716537 60 0 64.3627295 0 68.5 0 72.6374098 7.44716537 77 14.8943307 72.6374098 14.8943307 64.3627295"></polygon>
                        <path d="M9,67 L6,71" id="Line-4" fill-rule="nonzero"></path>
                        <polygon id="Fill-1" fill="#FECD46" points="97.4471654 60 90 64.3627295 90 68.5 90 72.6374098 97.4471654 77 104.894331 72.6374098 104.894331 64.3627295"></polygon>
                        <g id="Group-10" transform="translate(10.000000, 0.000000)" fill="#FECD46">
                            <polygon id="Fill-1" points="7.44716537 20 0 24.3627295 0 28.5 0 32.6374098 7.44716537 37 14.8943307 32.6374098 14.8943307 24.3627295"></polygon>
                            <polygon id="Fill-1" points="78.4471654 20 71 24.3627295 71 28.5 71 32.6374098 78.4471654 37 85.8943307 32.6374098 85.8943307 24.3627295"></polygon>
                            <polygon id="Fill-1" points="42.4471654 0 35 4.36272951 35 8.5 35 12.6374098 42.4471654 17 49.8943307 12.6374098 49.8943307 4.36272951"></polygon>
                        </g>
                    </g>
                    <g id="Group-7" transform="translate(61.000000, 62.000000)" stroke="#2C334D" stroke-linecap="round" stroke-linejoin="round" stroke-width="2">
                        <circle id="Oval-4" fill="#FECD46" cx="12.5" cy="9.5" r="9.5"></circle>
                        <path d="M12,37.9378469 C20,38.39827 24,36.3006202 24,31.6448975 C24,24.6613134 18.627417,19 12,19 C5.372583,19 0,24.6613134 0,31.6448975 C0,36.3006202 4,38.39827 12,37.9378469 Z" id="Oval-4"></path>
                    </g>
                </g>
                <g id="Group-12" transform="translate(29.000000, 32.000000)" fill-rule="nonzero" stroke="#2C334D" stroke-linecap="round" stroke-linejoin="round" stroke-width="2">
                    <path d="M0,42 L3,31" id="Line-16"></path>
                    <path d="M19,6 L29,0" id="Line"></path>
                </g>
                <g id="Group-12" transform="translate(102.500000, 53.000000) scale(-1, 1) translate(-102.500000, -53.000000) translate(88.000000, 32.000000)" fill-rule="nonzero" stroke="#2C334D" stroke-linecap="round" stroke-linejoin="round" stroke-width="2">
                    <path d="M0,42 L3,31" id="Line-16"></path>
                    <path d="M19,6 L29,0" id="Line"></path>
                </g>
                <path d="M72.5,27 L72.5,32" id="Line-17" stroke="#2C334D" stroke-width="2" stroke-linecap="round" stroke-linejoin="round" fill-rule="nonzero"></path>
                <path d="M35,49.5 L40,49.5" id="Line-2" stroke="#2C334D" stroke-width="2" stroke-linecap="round" stroke-linejoin="round" fill-rule="nonzero"></path>
                <path d="M107,52 L110,48" id="Line-3" stroke="#2C334D" stroke-width="2" stroke-linecap="round" stroke-linejoin="round" fill-rule="nonzero"></path>
                <path d="M116,88 L119,92" id="Line-18" stroke="#2C334D" stroke-width="2" stroke-linecap="round" stroke-linejoin="round" fill-rule="nonzero"></path>
            </g>
        </g>
    </g>
</svg>