<?xml version="1.0" encoding="UTF-8"?>
<svg width="96px" height="115px" viewBox="0 0 96 115" version="1.1" xmlns="http://www.w3.org/2000/svg" xmlns:xlink="http://www.w3.org/1999/xlink">
    <!-- Generator: sketchtool 51.2 (57519) - http://www.bohemiancoding.com/sketch -->
    <title>3523A7B6-223A-4664-9344-297A7AC31462</title>
    <desc>Created with sketchtool.</desc>
    <defs></defs>
    <g id="Page-1" stroke="none" stroke-width="1" fill="none" fill-rule="evenodd" stroke-linecap="round" stroke-linejoin="round">
        <g id="Wiconnect-about-us" transform="translate(-669.000000, -2832.000000)" stroke="#FECD46" stroke-width="2">
            <g id="Group-12" transform="translate(470.000000, 2100.000000)">
                <g id="Group-11" transform="translate(0.000000, 733.000000)">
                    <g id="maas-3" transform="translate(200.000000, 0.000000)">
                        <path d="M0,98.2897836 C0,98.2897836 3.95896989,92.8988089 11.8769097,82.1168596 C13.8386169,77.9232008 20.0048631,75.8263714 30.375648,75.8263714 C40.746433,75.8263714 51.0769219,74.2175809 61.3671147,71 C62.880541,74.4392887 62.3691133,77.0016105 59.8328315,78.6869653 C57.2965498,80.3723201 50.3688243,83.9406949 39.0496551,89.3920898 L59.8328315,86.6628418 L82.4372161,78.6869653 C88.0464284,76.9245764 91.5673564,78.0678745 93,82.1168596 L70.4379961,98.2897836 C66.9355569,101.200168 57.7044394,102.65536 42.7446438,102.65536 C33.5685186,101.778863 24.8437094,105.227076 16.5702161,113" id="Path-8" fill="#2C334D"></path>
                        <polygon id="Fill-1" fill="#2C334D" points="62.5 27 49 34.9555656 49 42.5 49 50.0446885 62.5 58 76 50.0446885 76 34.9555656"></polygon>
                        <polyline id="Path-3" points="65.6903591 37 61.499358 37 59 40.0289447 61.3205034 42.4744708 64.867037 42.4744708 67 45.4260522 64.8760863 48 59.9112711 48"></polyline>
                        <polygon id="Fill-1" fill="#2C334D" points="84.5 0 75 5.3892541 75 10.5 75 15.610918 84.5 21 94 15.610918 94 5.3892541"></polygon>
                    </g>
                </g>
            </g>
        </g>
    </g>
</svg>