<?xml version="1.0" encoding="UTF-8"?>
<svg width="122px" height="61px" viewBox="0 0 122 61" version="1.1" xmlns="http://www.w3.org/2000/svg" xmlns:xlink="http://www.w3.org/1999/xlink">
    <!-- Generator: sketchtool 51.2 (57519) - http://www.bohemiancoding.com/sketch -->
    <title>29945574-D770-469D-AE10-C2E2F4BE2451</title>
    <desc>Created with sketchtool.</desc>
    <defs></defs>
    <g id="Page-1" stroke="none" stroke-width="1" fill="none" fill-rule="evenodd" stroke-linecap="round" stroke-linejoin="round">
        <g id="Wiconnect-about-us" transform="translate(-659.000000, -2099.000000)" stroke="#FECD46" stroke-width="2">
            <g id="Group-12" transform="translate(470.000000, 2100.000000)">
                <g id="Group-9">
                    <g id="mass-1" transform="translate(190.000000, 0.000000)">
                        <g id="Group-3" transform="translate(87.000000, 8.000000)">
                            <path d="M23,0 C29.6666667,7.92729319 33,16.5554913 33,25.8845943 C33,35.2136974 29.6666667,43.5854993 23,51" id="Path-2"></path>
                            <path d="M11,7 C15.6666667,12.5957364 18,18.6862292 18,25.2714784 C18,31.8567276 15.6666667,37.7662348 11,43" id="Path-2"></path>
                            <path d="M0,13 C3.33333333,16.7304909 5,20.7908194 5,25.1809856 C5,29.5711517 3.33333333,33.5108232 0,37" id="Path-2"></path>
                        </g>
                        <g id="Group-2" fill="#2C334D">
                            <rect id="Rectangle" x="0" y="25" width="11" height="26" rx="2"></rect>
                            <path d="M57.9350429,26.4101212 L54.4787452,45.7329923 C54.3099118,47.110009 53.8246617,51 47.8655198,51 L22.912982,51 C20.5222263,51 18.4296728,49.2132288 18.0555772,46.8491716 C18.0373629,46.7563312 18.0182144,46.6637234 18,46.5890323 L18,24.4704035 L18.1305365,24.4329415 C18.3549471,24.377563 21.5300893,23.4840611 24.6881847,21.2319243 C29.0776197,18.1232822 31.4127981,13.9349919 31.4127981,9.13241903 L31.4127981,0.0859446641 C32.6460059,-0.0450557491 41.2518628,-0.968010565 41.2518628,8.28385159 L41.2518628,18.2187561 C41.2518628,19.4477866 42.26066,20.4529763 43.4931672,20.4529763 L53.115001,20.4529763 C54.2351861,20.4529763 55.3380909,20.8811127 56.2347994,21.6254649 C57.5791617,22.7798043 58.2150308,24.6040374 57.9350429,26.4101212 Z" id="Path"></path>
                        </g>
                    </g>
                </g>
            </g>
        </g>
    </g>
</svg>