<?xml version="1.0" encoding="UTF-8"?>
<svg width="86px" height="97px" viewBox="0 0 86 97" version="1.1" xmlns="http://www.w3.org/2000/svg" xmlns:xlink="http://www.w3.org/1999/xlink">
    <!-- Generator: sketchtool 51.2 (57519) - http://www.bohemiancoding.com/sketch -->
    <title>35E83C7A-7085-4312-9DB2-789B94DAA501</title>
    <desc>Created with sketchtool.</desc>
    <defs></defs>
    <g id="Page-1" stroke="none" stroke-width="1" fill="none" fill-rule="evenodd" stroke-linecap="round" stroke-linejoin="round">
        <g id="Wiconnect-about-us" transform="translate(-677.000000, -2423.000000)" stroke="#FECD46" stroke-width="2">
            <g id="Group-12" transform="translate(470.000000, 2100.000000)">
                <g id="Group-10" transform="translate(0.000000, 324.000000)">
                    <g id="maas-2" transform="translate(208.000000, 0.000000)">
                        <g id="Group-8">
                            <g id="Group-7" transform="translate(47.015280, 0.000000)">
                                <polyline id="Fill-1" points="0 37.0933103 18.040747 45.5491521 36.0814941 37.0933103"></polyline>
                                <polyline id="Fill-1" points="0 49.4005034 18.040747 57.8563453 36.0814941 49.4005034"></polyline>
                                <polyline id="Fill-1" points="0 61.7076966 18.040747 70.1635384 36.0814941 61.7076966"></polyline>
                                <polyline id="Fill-1" points="0 74.0148898 18.040747 82.4707316 36.0814941 74.0148898"></polyline>
                                <polyline id="Fill-1" points="0 86.322083 18.040747 94.7779248 36.0814941 86.322083"></polyline>
                                <polygon id="Fill-1" fill="#2C334D" points="18.040747 0 0 8.45611191 0 16.4752252 0 24.4946086 18.040747 32.9504505 36.0814941 24.4946086 36.0814941 8.45611191"></polygon>
                                <polyline id="Path-3" points="21.5690071 10.9750927 16.0727364 10.9750927 12.7949639 13.9625221 15.8381783 16.3745293 20.4892647 16.3745293 23.2865301 19.2856556 20.5011325 21.8243243 13.9900466 21.8243243"></polyline>
                            </g>
                            <g id="Group-7" transform="translate(0.000000, 21.824324)">
                                <polyline id="Fill-1" points="0 37.0933103 18.040747 45.5491521 36.0814941 37.0933103"></polyline>
                                <polyline id="Fill-1" points="0 49.4005034 18.040747 57.8563453 36.0814941 49.4005034"></polyline>
                                <polygon id="Fill-1" fill="#2C334D" points="18.040747 0 0 8.45611191 0 16.4752252 0 24.4946086 18.040747 32.9504505 36.0814941 24.4946086 36.0814941 8.45611191"></polygon>
                                <polyline id="Path-3" points="21.5690071 10.9750927 16.0727364 10.9750927 12.7949639 13.9625221 15.8381783 16.3745293 20.4892647 16.3745293 23.2865301 19.2856556 20.5011325 21.8243243 13.9900466 21.8243243"></polyline>
                            </g>
                        </g>
                    </g>
                </g>
            </g>
        </g>
    </g>
</svg>