<?xml version="1.0" encoding="UTF-8"?>
<svg width="145px" height="145px" viewBox="0 0 145 145" version="1.1" xmlns="http://www.w3.org/2000/svg" xmlns:xlink="http://www.w3.org/1999/xlink">
    <!-- Generator: sketchtool 51.2 (57519) - http://www.bohemiancoding.com/sketch -->
    <title>F0FE5809-76EC-455D-B897-8AAC90016149</title>
    <desc>Created with sketchtool.</desc>
    <defs></defs>
    <g id="Page-1" stroke="none" stroke-width="1" fill="none" fill-rule="evenodd">
        <g id="Wiconnect-services-1.-venue-owners" transform="translate(-1171.000000, -2799.000000)" fill="#FECD46">
            <g id="Monetization-Activation" transform="translate(1171.000000, 2799.000000)">
                <circle id="Oval-3" fill-rule="nonzero" cx="72.5" cy="72.5" r="72.5"></circle>
                <g id="Group-15" transform="translate(37.000000, 35.000000)" stroke="#2C334D" stroke-linecap="round" stroke-linejoin="round" stroke-width="2">
                    <g id="Group-5">
                        <g id="Group-13">
                            <g id="Group-12" transform="translate(19.592593, 0.000000)">
                                <polygon id="Fill-1" points="14.9074074 0 0 8.73311965 0 17.0149254 0 25.29701 14.9074074 34.0298507 29.8148148 25.29701 29.8148148 8.73311965"></polygon>
                                <polyline id="Path-3" points="18.0586151 11.0597015 13.149711 11.0597015 10.2222222 14.3393458 12.9402193 16.9872832 17.0942609 16.9872832 19.5925926 20.183161 17.1048604 22.9701493 11.2895907 22.9701493"></polyline>
                            </g>
                            <g id="Group-12" transform="translate(0.000000, 30.626866)">
                                <polygon id="Fill-1" points="11.5 0 0 6.76816773 0 13.1865672 0 19.6051828 11.5 26.3731343 23 19.6051828 23 6.76816773"></polygon>
                                <polyline id="Path-3" points="14.2177133 8.50746269 10.6476013 8.50746269 8.51851852 11.0843261 10.4952437 13.1648483 13.5163648 13.1648483 15.3333333 15.6758951 13.5240735 17.8656716 9.29478651 17.8656716"></polyline>
                            </g>
                            <g id="Group-12" transform="translate(46.000000, 30.626866)">
                                <polygon id="Fill-1" points="11.5 0 0 6.76816773 0 13.1865672 0 19.6051828 11.5 26.3731343 23 19.6051828 23 6.76816773"></polygon>
                                <polyline id="Path-3" points="14.2177133 8.50746269 10.6476013 8.50746269 8.51851852 11.0843261 10.4952437 13.1648483 13.5163648 13.1648483 15.3333333 15.6758951 13.5240735 17.8656716 9.29478651 17.8656716"></polyline>
                            </g>
                        </g>
                    </g>
                    <path d="M34,40 L34,76" id="Line-3"></path>
                    <path d="M34.4333333,67.5909091 L46.5666667,59.4090909" id="Line-4"></path>
                    <path d="M33.5714286,62.6 L22,59" id="Line-5"></path>
                </g>
            </g>
        </g>
    </g>
</svg>