<?xml version="1.0" encoding="UTF-8"?>
<svg width="862px" height="679px" viewBox="0 0 862 679" version="1.1" xmlns="http://www.w3.org/2000/svg" xmlns:xlink="http://www.w3.org/1999/xlink">
    <!-- Generator: sketchtool 51.2 (57519) - http://www.bohemiancoding.com/sketch -->
    <title>102E62F6-1AB8-482E-B2BA-C62A9EAE5415</title>
    <desc>Created with sketchtool.</desc>
    <defs></defs>
    <g id="Page-1" stroke="none" stroke-width="1" fill="none" fill-rule="evenodd">
        <g id="Wiconnect-offerings-2-Ad-Based-Monetization" transform="translate(-480.000000, -1028.000000)">
            <g id="Group-21" transform="translate(100.000000, 1030.000000)">
                <g id="ad_mon" transform="translate(381.000000, 0.000000)">
                    <rect id="Rectangle-13" stroke="#FECD46" stroke-width="2" x="433" y="122" width="67" height="42" rx="1"></rect>
                    <g id="Group-11" transform="translate(97.000000, 217.000000)">
                        <g id="Group-10" transform="translate(25.500000, 16.500000) rotate(-90.000000) translate(-25.500000, -16.500000) translate(9.000000, -9.000000)" stroke="#2C334D" stroke-linecap="round" stroke-linejoin="round" stroke-width="2">
                            <path d="M23,0 C29.6666667,7.92729319 33,16.5554913 33,25.8845943 C33,35.2136974 29.6666667,43.5854993 23,51" id="Path-2"></path>
                            <path d="M11,7 C15.6666667,12.5957364 18,18.6862292 18,25.2714784 C18,31.8567276 15.6666667,37.7662348 11,43" id="Path-2"></path>
                            <path d="M0,13 C3.33333333,16.7304909 5,20.7908194 5,25.1809856 C5,29.5711517 3.33333333,33.5108232 0,37" id="Path-2"></path>
                        </g>
                        <circle id="Oval" fill="#2C334D" fill-rule="nonzero" cx="25" cy="47" r="4"></circle>
                    </g>
                    <g id="Group-24" transform="translate(103.000000, 38.000000)">
                        <rect id="Rectangle-13" stroke="#2C334D" stroke-width="2" x="-1" y="-1" width="41" height="70" rx="5"></rect>
                        <rect id="Rectangle-10" stroke="#2C334D" x="3.5" y="6.5" width="32" height="52" rx="2"></rect>
                        <g id="Group-5" transform="translate(10.000000, 2.000000)" fill="#2C334D" opacity="0.300000012">
                            <circle id="Oval-2" style="mix-blend-mode: multiply;" cx="1" cy="1" r="1"></circle>
                            <rect id="Rectangle-14" x="4" y="0" width="14" height="2" rx="1"></rect>
                        </g>
                    </g>
                    <path d="M124,181 L124,141" id="Line" stroke="#2C334D" stroke-linecap="square" fill-rule="nonzero"></path>
                    <path d="M467,261 L467,231" id="Line" stroke="#2C334D" stroke-linecap="square" fill-rule="nonzero"></path>
                    <path d="M835.25,261 L835.25,231" id="Line" stroke="#2C334D" stroke-linecap="square" fill-rule="nonzero"></path>
                    <path d="M467,426 L467,396" id="Line" stroke="#2C334D" stroke-linecap="square" fill-rule="nonzero"></path>
                    <path d="M116.8975,322.78 L119.1925,314.365 L120.7075,314.365 L117.6775,325 L116.1625,325 L113.3875,316.375 L110.6425,325 L109.1725,325 L106.0975,314.365 L107.6125,314.365 L109.9525,322.69 L112.6225,314.365 L114.1675,314.365 L116.8975,322.78 Z M123.5275,325 L122.1325,325 L122.1325,317.785 L123.5275,317.785 L123.5275,325 Z M121.8175,315.055 C121.8175,314.485 122.2675,314.035 122.8225,314.035 C123.3925,314.035 123.8425,314.485 123.8425,315.055 C123.8425,315.61 123.3925,316.06 122.8225,316.06 C122.2675,316.06 121.8175,315.61 121.8175,315.055 Z M129.4675,321.31 L125.4025,321.31 L125.4025,320.08 L129.4675,320.08 L129.4675,321.31 Z M132.9625,325 L131.4925,325 L131.4925,314.365 L137.9575,314.365 L137.9575,315.73 L132.9625,315.73 L132.9625,319.15 L137.4925,319.15 L137.4925,320.53 L132.9625,320.53 L132.9625,325 Z M140.9275,325 L139.5325,325 L139.5325,317.785 L140.9275,317.785 L140.9275,325 Z M139.2175,315.055 C139.2175,314.485 139.6675,314.035 140.2225,314.035 C140.7925,314.035 141.2425,314.485 141.2425,315.055 C141.2425,315.61 140.7925,316.06 140.2225,316.06 C139.6675,316.06 139.2175,315.61 139.2175,315.055 Z M104.7175,350 L103.1875,350 L97.4425,341.33 L97.4425,350 L95.9725,350 L95.9725,339.365 L97.9375,339.365 L103.2475,347.525 L103.2475,339.365 L104.7175,339.365 L104.7175,350 Z M108.1825,345.65 L112.1275,345.65 C112.0975,344.615 111.4225,343.805 110.1475,343.805 C108.9625,343.805 108.2425,344.72 108.1825,345.65 Z M112.3375,347.525 L113.5525,347.945 C113.1475,349.22 111.9925,350.225 110.3125,350.225 C108.3775,350.225 106.6825,348.815 106.6825,346.37 C106.6825,344.105 108.3175,342.56 110.1325,342.56 C112.3525,342.56 113.5975,344.09 113.5975,346.34 C113.5975,346.52 113.5825,346.7 113.5675,346.79 L108.1375,346.79 C108.1675,348.08 109.0975,348.98 110.3125,348.98 C111.4825,348.98 112.0675,348.335 112.3375,347.525 Z M117.2875,340.505 L117.2875,342.785 L118.8475,342.785 L118.8475,344.06 L117.2875,344.06 L117.2875,347.81 C117.2875,348.47 117.5575,348.8 118.2925,348.8 C118.4725,348.8 118.7275,348.77 118.8475,348.74 L118.8475,349.94 C118.7275,349.985 118.3675,350.075 117.8875,350.075 C116.6575,350.075 115.8775,349.325 115.8775,348.02 L115.8775,344.06 L114.4975,344.06 L114.4975,342.785 L114.8875,342.785 C115.6675,342.785 115.9975,342.305 115.9975,341.675 L115.9975,340.505 L117.2875,340.505 Z M124.9375,342.785 L126.3925,342.785 L128.2675,348.215 L129.8575,342.785 L131.3425,342.785 L129.0025,350 L127.5475,350 L125.6275,344.51 L123.7525,350 L122.2675,350 L119.8975,342.785 L121.4425,342.785 L123.0625,348.215 L124.9375,342.785 Z M135.7075,348.965 C136.9075,348.965 137.9575,348.065 137.9575,346.385 C137.9575,344.72 136.9075,343.82 135.7075,343.82 C134.5075,343.82 133.4575,344.72 133.4575,346.385 C133.4575,348.065 134.5075,348.965 135.7075,348.965 Z M135.7075,342.56 C137.8675,342.56 139.3975,344.195 139.3975,346.385 C139.3975,348.59 137.8675,350.225 135.7075,350.225 C133.5475,350.225 132.0175,348.59 132.0175,346.385 C132.0175,344.195 133.5475,342.56 135.7075,342.56 Z M145.2025,342.71 L145.2025,344.21 C144.9925,344.18 144.7825,344.165 144.5875,344.165 C143.4025,344.165 142.6075,344.795 142.6075,346.385 L142.6075,350 L141.1975,350 L141.1975,342.785 L142.5775,342.785 L142.5775,344.045 C143.1025,342.935 144.0025,342.665 144.7375,342.665 C144.9325,342.665 145.1275,342.695 145.2025,342.71 Z M153.1675,342.785 L150.0925,345.83 L153.2275,350 L151.4575,350 L149.1025,346.82 L148.0975,347.825 L148.0975,350 L146.7025,350 L146.7025,339.14 L148.0975,339.14 L148.0975,345.98 L151.2175,342.785 L153.1675,342.785 Z" id="Wi-Fi-Network" fill="#2C334D"></path>
                    <path d="M93.245,509 L91.565,509 L91.43,507.785 C90.95,508.505 89.9,509.225 88.295,509.225 C85.43,509.225 82.985,507.125 82.985,503.69 C82.985,500.255 85.55,498.14 88.43,498.14 C91.22,498.14 92.765,499.775 93.29,501.41 L91.31,502.115 C91.04,501.17 90.155,500.075 88.43,500.075 C86.825,500.075 85.085,501.17 85.085,503.69 C85.085,506.09 86.66,507.335 88.445,507.335 C90.41,507.335 91.175,506.015 91.295,505.265 L87.935,505.265 L87.935,503.465 L93.245,503.465 L93.245,509 Z M96.635,504.47 L99.935,504.47 C99.905,503.735 99.425,503.015 98.285,503.015 C97.25,503.015 96.68,503.795 96.635,504.47 Z M100.13,506.39 L101.795,506.885 C101.42,508.16 100.25,509.225 98.435,509.225 C96.41,509.225 94.625,507.77 94.625,505.28 C94.625,502.925 96.365,501.395 98.255,501.395 C100.535,501.395 101.9,502.85 101.9,505.22 C101.9,505.505 101.87,505.805 101.87,505.835 L96.59,505.835 C96.635,506.81 97.46,507.515 98.45,507.515 C99.38,507.515 99.89,507.05 100.13,506.39 Z M106.79,507.41 C107.765,507.41 108.665,506.705 108.665,505.31 C108.665,503.915 107.765,503.21 106.79,503.21 C105.815,503.21 104.915,503.915 104.915,505.31 C104.915,506.69 105.815,507.41 106.79,507.41 Z M106.79,501.395 C108.995,501.395 110.66,503.03 110.66,505.31 C110.66,507.575 108.995,509.225 106.79,509.225 C104.585,509.225 102.92,507.575 102.92,505.31 C102.92,503.03 104.585,501.395 106.79,501.395 Z M114.23,509 L112.235,509 L112.235,498.14 L114.23,498.14 L114.23,509 Z M119.675,507.41 C120.65,507.41 121.55,506.705 121.55,505.31 C121.55,503.915 120.65,503.21 119.675,503.21 C118.7,503.21 117.8,503.915 117.8,505.31 C117.8,506.69 118.7,507.41 119.675,507.41 Z M119.675,501.395 C121.88,501.395 123.545,503.03 123.545,505.31 C123.545,507.575 121.88,509.225 119.675,509.225 C117.47,509.225 115.805,507.575 115.805,505.31 C115.805,503.03 117.47,501.395 119.675,501.395 Z M128.435,503.24 C127.415,503.24 126.56,503.975 126.56,505.31 C126.56,506.645 127.43,507.395 128.45,507.395 C129.47,507.395 129.98,506.72 130.145,506.15 L131.9,506.735 C131.57,507.965 130.415,509.225 128.45,509.225 C126.275,509.225 124.565,507.575 124.565,505.31 C124.565,503.03 126.245,501.395 128.39,501.395 C130.4,501.395 131.54,502.64 131.855,503.885 L130.07,504.485 C129.89,503.87 129.425,503.24 128.435,503.24 Z M132.89,506.99 C132.89,505.67 133.865,504.935 135.095,504.755 L136.91,504.485 C137.33,504.425 137.465,504.215 137.465,503.96 C137.465,503.435 137.06,503 136.22,503 C135.35,503 134.87,503.555 134.81,504.2 L133.04,503.825 C133.16,502.67 134.225,501.395 136.205,501.395 C138.545,501.395 139.415,502.715 139.415,504.2 L139.415,507.83 C139.415,508.22 139.46,508.745 139.505,509 L137.675,509 C137.63,508.805 137.6,508.4 137.6,508.115 C137.225,508.7 136.52,509.21 135.425,509.21 C133.85,509.21 132.89,508.145 132.89,506.99 Z M135.845,507.725 C136.685,507.725 137.465,507.32 137.465,506.015 L137.465,505.685 L135.8,505.94 C135.29,506.015 134.885,506.3 134.885,506.87 C134.885,507.305 135.2,507.725 135.845,507.725 Z M143.84,499.415 L143.84,501.62 L145.325,501.62 L145.325,503.39 L143.84,503.39 L143.84,506.48 C143.84,507.125 144.14,507.335 144.71,507.335 C144.95,507.335 145.22,507.305 145.325,507.275 L145.325,508.925 C145.145,509 144.785,509.105 144.2,509.105 C142.76,509.105 141.86,508.25 141.86,506.825 L141.86,503.39 L140.525,503.39 L140.525,501.62 L140.9,501.62 C141.68,501.62 142.04,501.11 142.04,500.45 L142.04,499.415 L143.84,499.415 Z M149.015,509 L147.02,509 L147.02,501.62 L149.015,501.62 L149.015,509 Z M146.78,499.205 C146.78,498.515 147.335,497.96 148.01,497.96 C148.7,497.96 149.24,498.515 149.24,499.205 C149.24,499.865 148.7,500.42 148.01,500.42 C147.335,500.42 146.78,499.865 146.78,499.205 Z M154.46,507.41 C155.435,507.41 156.335,506.705 156.335,505.31 C156.335,503.915 155.435,503.21 154.46,503.21 C153.485,503.21 152.585,503.915 152.585,505.31 C152.585,506.69 153.485,507.41 154.46,507.41 Z M154.46,501.395 C156.665,501.395 158.33,503.03 158.33,505.31 C158.33,507.575 156.665,509.225 154.46,509.225 C152.255,509.225 150.59,507.575 150.59,505.31 C150.59,503.03 152.255,501.395 154.46,501.395 Z M161.9,504.755 L161.9,509 L159.905,509 L159.905,501.62 L161.84,501.62 L161.84,502.535 C162.29,501.77 163.175,501.425 163.97,501.425 C165.8,501.425 166.64,502.73 166.64,504.35 L166.64,509 L164.645,509 L164.645,504.695 C164.645,503.87 164.24,503.225 163.28,503.225 C162.41,503.225 161.9,503.9 161.9,504.755 Z M43.73,532.08 L45.38,532.08 C47.12,532.08 48.575,531 48.575,528.69 C48.575,526.38 47.135,525.285 45.395,525.285 L43.73,525.285 L43.73,532.08 Z M45.455,534 L41.66,534 L41.66,523.365 L45.47,523.365 C48.5,523.365 50.72,525.33 50.72,528.69 C50.72,532.05 48.485,534 45.455,534 Z M53.87,529.47 L57.17,529.47 C57.14,528.735 56.66,528.015 55.52,528.015 C54.485,528.015 53.915,528.795 53.87,529.47 Z M57.365,531.39 L59.03,531.885 C58.655,533.16 57.485,534.225 55.67,534.225 C53.645,534.225 51.86,532.77 51.86,530.28 C51.86,527.925 53.6,526.395 55.49,526.395 C57.77,526.395 59.135,527.85 59.135,530.22 C59.135,530.505 59.105,530.805 59.105,530.835 L53.825,530.835 C53.87,531.81 54.695,532.515 55.685,532.515 C56.615,532.515 57.125,532.05 57.365,531.39 Z M67.52,526.62 L64.655,534 L62.66,534 L59.645,526.62 L61.835,526.62 L63.665,531.57 L65.42,526.62 L67.52,526.62 Z M70.73,534 L68.735,534 L68.735,526.62 L70.73,526.62 L70.73,534 Z M68.495,524.205 C68.495,523.515 69.05,522.96 69.725,522.96 C70.415,522.96 70.955,523.515 70.955,524.205 C70.955,524.865 70.415,525.42 69.725,525.42 C69.05,525.42 68.495,524.865 68.495,524.205 Z M76.175,528.24 C75.155,528.24 74.3,528.975 74.3,530.31 C74.3,531.645 75.17,532.395 76.19,532.395 C77.21,532.395 77.72,531.72 77.885,531.15 L79.64,531.735 C79.31,532.965 78.155,534.225 76.19,534.225 C74.015,534.225 72.305,532.575 72.305,530.31 C72.305,528.03 73.985,526.395 76.13,526.395 C78.14,526.395 79.28,527.64 79.595,528.885 L77.81,529.485 C77.63,528.87 77.165,528.24 76.175,528.24 Z M82.49,529.47 L85.79,529.47 C85.76,528.735 85.28,528.015 84.14,528.015 C83.105,528.015 82.535,528.795 82.49,529.47 Z M85.985,531.39 L87.65,531.885 C87.275,533.16 86.105,534.225 84.29,534.225 C82.265,534.225 80.48,532.77 80.48,530.28 C80.48,527.925 82.22,526.395 84.11,526.395 C86.39,526.395 87.755,527.85 87.755,530.22 C87.755,530.505 87.725,530.805 87.725,530.835 L82.445,530.835 C82.49,531.81 83.315,532.515 84.305,532.515 C85.235,532.515 85.745,532.05 85.985,531.39 Z M95.285,534 L93.185,534 L93.185,523.365 L95.285,523.365 L95.285,534 Z M99.785,532.08 L101.435,532.08 C103.175,532.08 104.63,531 104.63,528.69 C104.63,526.38 103.19,525.285 101.45,525.285 L99.785,525.285 L99.785,532.08 Z M101.51,534 L97.715,534 L97.715,523.365 L101.525,523.365 C104.555,523.365 106.775,525.33 106.775,528.69 C106.775,532.05 104.54,534 101.51,534 Z M107.795,531.945 L109.505,531.57 C109.55,532.155 109.985,532.695 110.855,532.695 C111.515,532.695 111.83,532.35 111.83,531.96 C111.83,531.63 111.605,531.36 111.035,531.24 L110.06,531.015 C108.635,530.7 107.99,529.845 107.99,528.81 C107.99,527.49 109.16,526.395 110.75,526.395 C112.85,526.395 113.555,527.73 113.645,528.525 L111.98,528.9 C111.92,528.465 111.605,527.91 110.765,527.91 C110.24,527.91 109.82,528.225 109.82,528.645 C109.82,529.005 110.09,529.23 110.495,529.305 L111.545,529.53 C113,529.83 113.735,530.715 113.735,531.795 C113.735,532.995 112.805,534.225 110.87,534.225 C108.65,534.225 107.885,532.785 107.795,531.945 Z M118.625,529.17 C118.625,525.735 120.02,523.44 121.775,521.715 L122.93,522.78 C121.325,524.49 120.305,526.47 120.305,529.17 C120.305,531.87 121.325,533.865 122.93,535.575 L121.775,536.625 C120.02,534.915 118.625,532.605 118.625,529.17 Z M136.01,534 L133.97,534 L133.97,526.545 L130.91,534 L129.185,534 L126.125,526.605 L126.125,534 L124.145,534 L124.145,523.365 L126.875,523.365 L130.07,531.045 L133.19,523.365 L136.01,523.365 L136.01,534 Z M145.655,534 L144.77,531.57 L140.45,531.57 L139.565,534 L137.375,534 L141.455,523.365 L143.855,523.365 L147.905,534 L145.655,534 Z M142.61,525.66 L141.14,529.68 L144.08,529.68 L142.61,525.66 Z M153.575,534.225 C150.605,534.225 148.13,532.08 148.13,528.69 C148.13,525.3 150.695,523.14 153.545,523.14 C156.485,523.14 158,524.94 158.42,526.665 L156.47,527.28 C156.215,526.26 155.39,525.135 153.545,525.135 C151.955,525.135 150.275,526.275 150.275,528.69 C150.275,530.955 151.865,532.2 153.575,532.2 C155.39,532.2 156.275,531.015 156.56,530.025 L158.495,530.61 C158.09,532.245 156.56,534.225 153.575,534.225 Z M159.59,532.8 C159.59,532.08 160.175,531.54 160.955,531.54 C161.885,531.54 162.44,532.29 162.44,533.265 C162.44,535.47 160.91,536.4 159.8,536.535 L159.8,535.575 C160.475,535.425 161.195,534.78 161.225,533.955 C161.165,534 161,534.045 160.835,534.045 C160.1,534.045 159.59,533.52 159.59,532.8 Z M170.375,534 L168.275,534 L168.275,523.365 L170.375,523.365 L170.375,534 Z M174.875,532.08 L176.525,532.08 C178.265,532.08 179.72,531 179.72,528.69 C179.72,526.38 178.28,525.285 176.54,525.285 L174.875,525.285 L174.875,532.08 Z M176.6,534 L172.805,534 L172.805,523.365 L176.615,523.365 C179.645,523.365 181.865,525.33 181.865,528.69 C181.865,532.05 179.63,534 176.6,534 Z M185.75,534 L183.665,534 L183.665,523.365 L190.385,523.365 L190.385,525.33 L185.735,525.33 L185.735,527.955 L189.875,527.955 L189.875,529.86 L185.75,529.86 L185.75,534 Z M198.5,534 L197.615,531.57 L193.295,531.57 L192.41,534 L190.22,534 L194.3,523.365 L196.7,523.365 L200.75,534 L198.5,534 Z M195.455,525.66 L193.985,529.68 L196.925,529.68 L195.455,525.66 Z M208.91,529.17 C208.91,532.605 207.515,534.915 205.76,536.625 L204.605,535.575 C206.21,533.865 207.23,531.87 207.23,529.17 C207.23,526.47 206.21,524.49 204.605,522.78 L205.76,521.715 C207.515,523.44 208.91,525.735 208.91,529.17 Z M87.65,550.9 L85.79,551.47 C85.685,550.885 85.205,549.97 83.855,549.97 C82.85,549.97 82.19,550.615 82.19,551.32 C82.19,551.905 82.565,552.37 83.345,552.52 L84.83,552.805 C86.765,553.18 87.8,554.44 87.8,555.94 C87.8,557.575 86.435,559.225 83.96,559.225 C81.14,559.225 79.895,557.41 79.73,555.895 L81.65,555.385 C81.74,556.435 82.475,557.38 83.975,557.38 C85.085,557.38 85.7,556.825 85.7,556.075 C85.7,555.46 85.235,554.98 84.41,554.815 L82.925,554.515 C81.23,554.17 80.135,553.075 80.135,551.47 C80.135,549.58 81.83,548.14 83.84,548.14 C86.42,548.14 87.41,549.7 87.65,550.9 Z M92.66,557.41 C93.635,557.41 94.535,556.705 94.535,555.31 C94.535,553.915 93.635,553.21 92.66,553.21 C91.685,553.21 90.785,553.915 90.785,555.31 C90.785,556.69 91.685,557.41 92.66,557.41 Z M92.66,551.395 C94.865,551.395 96.53,553.03 96.53,555.31 C96.53,557.575 94.865,559.225 92.66,559.225 C90.455,559.225 88.79,557.575 88.79,555.31 C88.79,553.03 90.455,551.395 92.66,551.395 Z M101.42,553.24 C100.4,553.24 99.545,553.975 99.545,555.31 C99.545,556.645 100.415,557.395 101.435,557.395 C102.455,557.395 102.965,556.72 103.13,556.15 L104.885,556.735 C104.555,557.965 103.4,559.225 101.435,559.225 C99.26,559.225 97.55,557.575 97.55,555.31 C97.55,553.03 99.23,551.395 101.375,551.395 C103.385,551.395 104.525,552.64 104.84,553.885 L103.055,554.485 C102.875,553.87 102.41,553.24 101.42,553.24 Z M108.35,559 L106.355,559 L106.355,551.62 L108.35,551.62 L108.35,559 Z M106.115,549.205 C106.115,548.515 106.67,547.96 107.345,547.96 C108.035,547.96 108.575,548.515 108.575,549.205 C108.575,549.865 108.035,550.42 107.345,550.42 C106.67,550.42 106.115,549.865 106.115,549.205 Z M110.03,556.99 C110.03,555.67 111.005,554.935 112.235,554.755 L114.05,554.485 C114.47,554.425 114.605,554.215 114.605,553.96 C114.605,553.435 114.2,553 113.36,553 C112.49,553 112.01,553.555 111.95,554.2 L110.18,553.825 C110.3,552.67 111.365,551.395 113.345,551.395 C115.685,551.395 116.555,552.715 116.555,554.2 L116.555,557.83 C116.555,558.22 116.6,558.745 116.645,559 L114.815,559 C114.77,558.805 114.74,558.4 114.74,558.115 C114.365,558.7 113.66,559.21 112.565,559.21 C110.99,559.21 110.03,558.145 110.03,556.99 Z M112.985,557.725 C113.825,557.725 114.605,557.32 114.605,556.015 L114.605,555.685 L112.94,555.94 C112.43,556.015 112.025,556.3 112.025,556.87 C112.025,557.305 112.34,557.725 112.985,557.725 Z M120.56,559 L118.565,559 L118.565,548.14 L120.56,548.14 L120.56,559 Z M128.63,553.21 L130.265,553.21 C131.3,553.21 131.93,552.61 131.93,551.695 C131.93,550.75 131.3,550.165 130.265,550.165 L128.63,550.165 L128.63,553.21 Z M130.52,554.995 L128.615,554.995 L128.615,559 L126.545,559 L126.545,548.365 L130.52,548.365 C132.62,548.365 134.015,549.76 134.015,551.68 C134.015,553.615 132.62,554.995 130.52,554.995 Z M139.805,551.59 L139.805,553.6 C139.58,553.555 139.385,553.54 139.205,553.54 C138.185,553.54 137.3,554.035 137.3,555.625 L137.3,559 L135.305,559 L135.305,551.62 L137.24,551.62 L137.24,552.715 C137.69,551.74 138.71,551.56 139.34,551.56 C139.505,551.56 139.655,551.575 139.805,551.59 Z M144.455,557.41 C145.43,557.41 146.33,556.705 146.33,555.31 C146.33,553.915 145.43,553.21 144.455,553.21 C143.48,553.21 142.58,553.915 142.58,555.31 C142.58,556.69 143.48,557.41 144.455,557.41 Z M144.455,551.395 C146.66,551.395 148.325,553.03 148.325,555.31 C148.325,557.575 146.66,559.225 144.455,559.225 C142.25,559.225 140.585,557.575 140.585,555.31 C140.585,553.03 142.25,551.395 144.455,551.395 Z M155.24,553.33 L152.285,553.33 L152.285,559 L150.275,559 L150.275,553.33 L149.045,553.33 L149.045,551.62 L150.275,551.62 L150.275,550.78 C150.275,549.115 151.325,548.035 152.96,548.035 C153.38,548.035 153.785,548.11 153.95,548.185 L153.95,549.865 C153.845,549.835 153.65,549.79 153.32,549.79 C152.885,549.79 152.285,549.985 152.285,550.81 L152.285,551.62 L157.22,551.62 L157.22,559 L155.24,559 L155.24,553.33 Z M155,549.19 C155,548.5 155.555,547.945 156.23,547.945 C156.905,547.945 157.46,548.5 157.46,549.19 C157.46,549.865 156.905,550.405 156.23,550.405 C155.555,550.405 155,549.865 155,549.19 Z M161.36,559 L159.365,559 L159.365,548.14 L161.36,548.14 L161.36,559 Z M164.945,554.47 L168.245,554.47 C168.215,553.735 167.735,553.015 166.595,553.015 C165.56,553.015 164.99,553.795 164.945,554.47 Z M168.44,556.39 L170.105,556.885 C169.73,558.16 168.56,559.225 166.745,559.225 C164.72,559.225 162.935,557.77 162.935,555.28 C162.935,552.925 164.675,551.395 166.565,551.395 C168.845,551.395 170.21,552.85 170.21,555.22 C170.21,555.505 170.18,555.805 170.18,555.835 L164.9,555.835 C164.945,556.81 165.77,557.515 166.76,557.515 C167.69,557.515 168.2,557.05 168.44,556.39 Z M86.465,581.27 L89.24,573.365 L91.43,573.365 L87.485,584 L85.355,584 L81.425,573.365 L83.69,573.365 L86.465,581.27 Z M94.64,584 L92.645,584 L92.645,576.62 L94.64,576.62 L94.64,584 Z M92.405,574.205 C92.405,573.515 92.96,572.96 93.635,572.96 C94.325,572.96 94.865,573.515 94.865,574.205 C94.865,574.865 94.325,575.42 93.635,575.42 C92.96,575.42 92.405,574.865 92.405,574.205 Z M96.14,581.945 L97.85,581.57 C97.895,582.155 98.33,582.695 99.2,582.695 C99.86,582.695 100.175,582.35 100.175,581.96 C100.175,581.63 99.95,581.36 99.38,581.24 L98.405,581.015 C96.98,580.7 96.335,579.845 96.335,578.81 C96.335,577.49 97.505,576.395 99.095,576.395 C101.195,576.395 101.9,577.73 101.99,578.525 L100.325,578.9 C100.265,578.465 99.95,577.91 99.11,577.91 C98.585,577.91 98.165,578.225 98.165,578.645 C98.165,579.005 98.435,579.23 98.84,579.305 L99.89,579.53 C101.345,579.83 102.08,580.715 102.08,581.795 C102.08,582.995 101.15,584.225 99.215,584.225 C96.995,584.225 96.23,582.785 96.14,581.945 Z M105.68,584 L103.685,584 L103.685,576.62 L105.68,576.62 L105.68,584 Z M103.445,574.205 C103.445,573.515 104,572.96 104.675,572.96 C105.365,572.96 105.905,573.515 105.905,574.205 C105.905,574.865 105.365,575.42 104.675,575.42 C104,575.42 103.445,574.865 103.445,574.205 Z M110.27,574.415 L110.27,576.62 L111.755,576.62 L111.755,578.39 L110.27,578.39 L110.27,581.48 C110.27,582.125 110.57,582.335 111.14,582.335 C111.38,582.335 111.65,582.305 111.755,582.275 L111.755,583.925 C111.575,584 111.215,584.105 110.63,584.105 C109.19,584.105 108.29,583.25 108.29,581.825 L108.29,578.39 L106.955,578.39 L106.955,576.62 L107.33,576.62 C108.11,576.62 108.47,576.11 108.47,575.45 L108.47,574.415 L110.27,574.415 Z M114.83,579.47 L118.13,579.47 C118.1,578.735 117.62,578.015 116.48,578.015 C115.445,578.015 114.875,578.795 114.83,579.47 Z M118.325,581.39 L119.99,581.885 C119.615,583.16 118.445,584.225 116.63,584.225 C114.605,584.225 112.82,582.77 112.82,580.28 C112.82,577.925 114.56,576.395 116.45,576.395 C118.73,576.395 120.095,577.85 120.095,580.22 C120.095,580.505 120.065,580.805 120.065,580.835 L114.785,580.835 C114.83,581.81 115.655,582.515 116.645,582.515 C117.575,582.515 118.085,582.05 118.325,581.39 Z M128.705,573.14 L128.705,582.665 C128.705,583.16 128.735,583.7 128.765,584 L126.86,584 C126.83,583.85 126.785,583.49 126.785,583.145 C126.455,583.73 125.705,584.18 124.715,584.18 C122.615,584.18 121.115,582.53 121.115,580.295 C121.115,578.135 122.57,576.44 124.655,576.44 C125.93,576.44 126.53,576.965 126.74,577.355 L126.74,573.14 L128.705,573.14 Z M123.125,580.295 C123.125,581.615 123.905,582.395 124.955,582.395 C125.975,582.395 126.77,581.615 126.77,580.28 C126.77,578.96 125.975,578.225 124.955,578.225 C123.935,578.225 123.125,578.975 123.125,580.295 Z M138.695,584.24 C136.43,584.24 134.615,582.845 134.615,580.235 L134.615,573.365 L136.685,573.365 L136.685,580.085 C136.685,581.48 137.465,582.215 138.695,582.215 C139.955,582.215 140.72,581.48 140.72,580.085 L140.72,573.365 L142.79,573.365 L142.79,580.235 C142.79,582.845 140.975,584.24 138.695,584.24 Z M150.365,584 L148.28,579.905 L147.2,579.905 L147.2,584 L145.115,584 L145.115,573.365 L149.27,573.365 C151.34,573.365 152.66,574.79 152.66,576.635 C152.66,578.12 151.79,579.245 150.395,579.65 L152.675,584 L150.365,584 Z M147.2,578.12 L148.88,578.12 C149.93,578.12 150.545,577.52 150.545,576.65 C150.545,575.75 149.93,575.165 148.88,575.165 L147.2,575.165 L147.2,578.12 Z M161.3,584 L154.49,584 L154.49,573.365 L156.56,573.365 L156.56,582.02 L161.3,582.02 L161.3,584 Z M162.245,581.945 L163.955,581.57 C164,582.155 164.435,582.695 165.305,582.695 C165.965,582.695 166.28,582.35 166.28,581.96 C166.28,581.63 166.055,581.36 165.485,581.24 L164.51,581.015 C163.085,580.7 162.44,579.845 162.44,578.81 C162.44,577.49 163.61,576.395 165.2,576.395 C167.3,576.395 168.005,577.73 168.095,578.525 L166.43,578.9 C166.37,578.465 166.055,577.91 165.215,577.91 C164.69,577.91 164.27,578.225 164.27,578.645 C164.27,579.005 164.54,579.23 164.945,579.305 L165.995,579.53 C167.45,579.83 168.185,580.715 168.185,581.795 C168.185,582.995 167.255,584.225 165.32,584.225 C163.1,584.225 162.335,582.785 162.245,581.945 Z M97.8575,609 L95.7575,609 L95.7575,598.365 L97.8575,598.365 L97.8575,609 Z M102.1325,604.755 L102.1325,609 L100.1375,609 L100.1375,601.62 L102.0725,601.62 L102.0725,602.535 C102.5225,601.77 103.4075,601.425 104.2025,601.425 C106.0325,601.425 106.8725,602.73 106.8725,604.35 L106.8725,609 L104.8775,609 L104.8775,604.695 C104.8775,603.87 104.4725,603.225 103.5125,603.225 C102.6425,603.225 102.1325,603.9 102.1325,604.755 Z M111.3575,599.415 L111.3575,601.62 L112.8425,601.62 L112.8425,603.39 L111.3575,603.39 L111.3575,606.48 C111.3575,607.125 111.6575,607.335 112.2275,607.335 C112.4675,607.335 112.7375,607.305 112.8425,607.275 L112.8425,608.925 C112.6625,609 112.3025,609.105 111.7175,609.105 C110.2775,609.105 109.3775,608.25 109.3775,606.825 L109.3775,603.39 L108.0425,603.39 L108.0425,601.62 L108.4175,601.62 C109.1975,601.62 109.5575,601.11 109.5575,600.45 L109.5575,599.415 L111.3575,599.415 Z M115.9175,604.47 L119.2175,604.47 C119.1875,603.735 118.7075,603.015 117.5675,603.015 C116.5325,603.015 115.9625,603.795 115.9175,604.47 Z M119.4125,606.39 L121.0775,606.885 C120.7025,608.16 119.5325,609.225 117.7175,609.225 C115.6925,609.225 113.9075,607.77 113.9075,605.28 C113.9075,602.925 115.6475,601.395 117.5375,601.395 C119.8175,601.395 121.1825,602.85 121.1825,605.22 C121.1825,605.505 121.1525,605.805 121.1525,605.835 L115.8725,605.835 C115.9175,606.81 116.7425,607.515 117.7325,607.515 C118.6625,607.515 119.1725,607.05 119.4125,606.39 Z M127.2575,601.59 L127.2575,603.6 C127.0325,603.555 126.8375,603.54 126.6575,603.54 C125.6375,603.54 124.7525,604.035 124.7525,605.625 L124.7525,609 L122.7575,609 L122.7575,601.62 L124.6925,601.62 L124.6925,602.715 C125.1425,601.74 126.1625,601.56 126.7925,601.56 C126.9575,601.56 127.1075,601.575 127.2575,601.59 Z M130.0475,604.47 L133.3475,604.47 C133.3175,603.735 132.8375,603.015 131.6975,603.015 C130.6625,603.015 130.0925,603.795 130.0475,604.47 Z M133.5425,606.39 L135.2075,606.885 C134.8325,608.16 133.6625,609.225 131.8475,609.225 C129.8225,609.225 128.0375,607.77 128.0375,605.28 C128.0375,602.925 129.7775,601.395 131.6675,601.395 C133.9475,601.395 135.3125,602.85 135.3125,605.22 C135.3125,605.505 135.2825,605.805 135.2825,605.835 L130.0025,605.835 C130.0475,606.81 130.8725,607.515 131.8625,607.515 C132.7925,607.515 133.3025,607.05 133.5425,606.39 Z M136.2575,606.945 L137.9675,606.57 C138.0125,607.155 138.4475,607.695 139.3175,607.695 C139.9775,607.695 140.2925,607.35 140.2925,606.96 C140.2925,606.63 140.0675,606.36 139.4975,606.24 L138.5225,606.015 C137.0975,605.7 136.4525,604.845 136.4525,603.81 C136.4525,602.49 137.6225,601.395 139.2125,601.395 C141.3125,601.395 142.0175,602.73 142.1075,603.525 L140.4425,603.9 C140.3825,603.465 140.0675,602.91 139.2275,602.91 C138.7025,602.91 138.2825,603.225 138.2825,603.645 C138.2825,604.005 138.5525,604.23 138.9575,604.305 L140.0075,604.53 C141.4625,604.83 142.1975,605.715 142.1975,606.795 C142.1975,607.995 141.2675,609.225 139.3325,609.225 C137.1125,609.225 136.3475,607.785 136.2575,606.945 Z M146.2625,599.415 L146.2625,601.62 L147.7475,601.62 L147.7475,603.39 L146.2625,603.39 L146.2625,606.48 C146.2625,607.125 146.5625,607.335 147.1325,607.335 C147.3725,607.335 147.6425,607.305 147.7475,607.275 L147.7475,608.925 C147.5675,609 147.2075,609.105 146.6225,609.105 C145.1825,609.105 144.2825,608.25 144.2825,606.825 L144.2825,603.39 L142.9475,603.39 L142.9475,601.62 L143.3225,601.62 C144.1025,601.62 144.4625,601.11 144.4625,600.45 L144.4625,599.415 L146.2625,599.415 Z M148.9775,606.945 L150.6875,606.57 C150.7325,607.155 151.1675,607.695 152.0375,607.695 C152.6975,607.695 153.0125,607.35 153.0125,606.96 C153.0125,606.63 152.7875,606.36 152.2175,606.24 L151.2425,606.015 C149.8175,605.7 149.1725,604.845 149.1725,603.81 C149.1725,602.49 150.3425,601.395 151.9325,601.395 C154.0325,601.395 154.7375,602.73 154.8275,603.525 L153.1625,603.9 C153.1025,603.465 152.7875,602.91 151.9475,602.91 C151.4225,602.91 151.0025,603.225 151.0025,603.645 C151.0025,604.005 151.2725,604.23 151.6775,604.305 L152.7275,604.53 C154.1825,604.83 154.9175,605.715 154.9175,606.795 C154.9175,607.995 153.9875,609.225 152.0525,609.225 C149.8325,609.225 149.0675,607.785 148.9775,606.945 Z M79.925,634 L77.825,634 L77.825,623.365 L79.925,623.365 L79.925,634 Z M84.2,629.755 L84.2,634 L82.205,634 L82.205,626.62 L84.14,626.62 L84.14,627.535 C84.59,626.77 85.475,626.425 86.27,626.425 C88.1,626.425 88.94,627.73 88.94,629.35 L88.94,634 L86.945,634 L86.945,629.695 C86.945,628.87 86.54,628.225 85.58,628.225 C84.71,628.225 84.2,628.9 84.2,629.755 Z M90.335,631.945 L92.045,631.57 C92.09,632.155 92.525,632.695 93.395,632.695 C94.055,632.695 94.37,632.35 94.37,631.96 C94.37,631.63 94.145,631.36 93.575,631.24 L92.6,631.015 C91.175,630.7 90.53,629.845 90.53,628.81 C90.53,627.49 91.7,626.395 93.29,626.395 C95.39,626.395 96.095,627.73 96.185,628.525 L94.52,628.9 C94.46,628.465 94.145,627.91 93.305,627.91 C92.78,627.91 92.36,628.225 92.36,628.645 C92.36,629.005 92.63,629.23 93.035,629.305 L94.085,629.53 C95.54,629.83 96.275,630.715 96.275,631.795 C96.275,632.995 95.345,634.225 93.41,634.225 C91.19,634.225 90.425,632.785 90.335,631.945 Z M100.34,624.415 L100.34,626.62 L101.825,626.62 L101.825,628.39 L100.34,628.39 L100.34,631.48 C100.34,632.125 100.64,632.335 101.21,632.335 C101.45,632.335 101.72,632.305 101.825,632.275 L101.825,633.925 C101.645,634 101.285,634.105 100.7,634.105 C99.26,634.105 98.36,633.25 98.36,631.825 L98.36,628.39 L97.025,628.39 L97.025,626.62 L97.4,626.62 C98.18,626.62 98.54,626.11 98.54,625.45 L98.54,624.415 L100.34,624.415 Z M103.115,631.99 C103.115,630.67 104.09,629.935 105.32,629.755 L107.135,629.485 C107.555,629.425 107.69,629.215 107.69,628.96 C107.69,628.435 107.285,628 106.445,628 C105.575,628 105.095,628.555 105.035,629.2 L103.265,628.825 C103.385,627.67 104.45,626.395 106.43,626.395 C108.77,626.395 109.64,627.715 109.64,629.2 L109.64,632.83 C109.64,633.22 109.685,633.745 109.73,634 L107.9,634 C107.855,633.805 107.825,633.4 107.825,633.115 C107.45,633.7 106.745,634.21 105.65,634.21 C104.075,634.21 103.115,633.145 103.115,631.99 Z M106.07,632.725 C106.91,632.725 107.69,632.32 107.69,631.015 L107.69,630.685 L106.025,630.94 C105.515,631.015 105.11,631.3 105.11,631.87 C105.11,632.305 105.425,632.725 106.07,632.725 Z M113.645,634 L111.65,634 L111.65,623.14 L113.645,623.14 L113.645,634 Z M117.77,634 L115.775,634 L115.775,623.14 L117.77,623.14 L117.77,634 Z M121.355,629.47 L124.655,629.47 C124.625,628.735 124.145,628.015 123.005,628.015 C121.97,628.015 121.4,628.795 121.355,629.47 Z M124.85,631.39 L126.515,631.885 C126.14,633.16 124.97,634.225 123.155,634.225 C121.13,634.225 119.345,632.77 119.345,630.28 C119.345,627.925 121.085,626.395 122.975,626.395 C125.255,626.395 126.62,627.85 126.62,630.22 C126.62,630.505 126.59,630.805 126.59,630.835 L121.31,630.835 C121.355,631.81 122.18,632.515 123.17,632.515 C124.1,632.515 124.61,632.05 124.85,631.39 Z M135.23,623.14 L135.23,632.665 C135.23,633.16 135.26,633.7 135.29,634 L133.385,634 C133.355,633.85 133.31,633.49 133.31,633.145 C132.98,633.73 132.23,634.18 131.24,634.18 C129.14,634.18 127.64,632.53 127.64,630.295 C127.64,628.135 129.095,626.44 131.18,626.44 C132.455,626.44 133.055,626.965 133.265,627.355 L133.265,623.14 L135.23,623.14 Z M129.65,630.295 C129.65,631.615 130.43,632.395 131.48,632.395 C132.5,632.395 133.295,631.615 133.295,630.28 C133.295,628.96 132.5,628.225 131.48,628.225 C130.46,628.225 129.65,628.975 129.65,630.295 Z M140.645,631.99 C140.645,630.67 141.62,629.935 142.85,629.755 L144.665,629.485 C145.085,629.425 145.22,629.215 145.22,628.96 C145.22,628.435 144.815,628 143.975,628 C143.105,628 142.625,628.555 142.565,629.2 L140.795,628.825 C140.915,627.67 141.98,626.395 143.96,626.395 C146.3,626.395 147.17,627.715 147.17,629.2 L147.17,632.83 C147.17,633.22 147.215,633.745 147.26,634 L145.43,634 C145.385,633.805 145.355,633.4 145.355,633.115 C144.98,633.7 144.275,634.21 143.18,634.21 C141.605,634.21 140.645,633.145 140.645,631.99 Z M143.6,632.725 C144.44,632.725 145.22,632.32 145.22,631.015 L145.22,630.685 L143.555,630.94 C143.045,631.015 142.64,631.3 142.64,631.87 C142.64,632.305 142.955,632.725 143.6,632.725 Z M151.175,636.85 L149.18,636.85 L149.18,626.62 L151.115,626.62 L151.115,627.52 C151.445,626.95 152.27,626.455 153.38,626.455 C155.54,626.455 156.785,628.105 156.785,630.295 C156.785,632.53 155.39,634.18 153.305,634.18 C152.285,634.18 151.535,633.775 151.175,633.28 L151.175,636.85 Z M154.82,630.31 C154.82,629.005 154.01,628.24 152.99,628.24 C151.97,628.24 151.145,629.005 151.145,630.31 C151.145,631.615 151.97,632.395 152.99,632.395 C154.01,632.395 154.82,631.63 154.82,630.31 Z M160.355,636.85 L158.36,636.85 L158.36,626.62 L160.295,626.62 L160.295,627.52 C160.625,626.95 161.45,626.455 162.56,626.455 C164.72,626.455 165.965,628.105 165.965,630.295 C165.965,632.53 164.57,634.18 162.485,634.18 C161.465,634.18 160.715,633.775 160.355,633.28 L160.355,636.85 Z M164,630.31 C164,629.005 163.19,628.24 162.17,628.24 C161.15,628.24 160.325,629.005 160.325,630.31 C160.325,631.615 161.15,632.395 162.17,632.395 C163.19,632.395 164,631.63 164,630.31 Z M166.91,631.945 L168.62,631.57 C168.665,632.155 169.1,632.695 169.97,632.695 C170.63,632.695 170.945,632.35 170.945,631.96 C170.945,631.63 170.72,631.36 170.15,631.24 L169.175,631.015 C167.75,630.7 167.105,629.845 167.105,628.81 C167.105,627.49 168.275,626.395 169.865,626.395 C171.965,626.395 172.67,627.73 172.76,628.525 L171.095,628.9 C171.035,628.465 170.72,627.91 169.88,627.91 C169.355,627.91 168.935,628.225 168.935,628.645 C168.935,629.005 169.205,629.23 169.61,629.305 L170.66,629.53 C172.115,629.83 172.85,630.715 172.85,631.795 C172.85,632.995 171.92,634.225 169.985,634.225 C167.765,634.225 167,632.785 166.91,631.945 Z" id="Geolocation-Device-I" fill="#2C334D"></path>
                    <path d="M440.94,204 L439.785,201.03 L435.075,201.03 L433.95,204 L432.375,204 L436.605,193.365 L438.3,193.365 L442.53,204 L440.94,204 Z M437.415,194.895 L435.6,199.665 L439.26,199.665 L437.415,194.895 Z M445.5,202.695 L447.675,202.695 C449.64,202.695 451.29,201.375 451.29,198.705 C451.29,196.02 449.67,194.67 447.705,194.67 L445.5,194.67 L445.5,202.695 Z M447.72,204 L444.03,204 L444.03,193.365 L447.75,193.365 C450.45,193.365 452.805,195.21 452.805,198.705 C452.805,202.185 450.42,204 447.72,204 Z M465.36,195.78 L464.04,196.245 C463.92,195.48 463.275,194.43 461.79,194.43 C460.59,194.43 459.735,195.21 459.735,196.2 C459.735,196.965 460.2,197.55 461.1,197.745 L462.69,198.09 C464.46,198.48 465.45,199.59 465.45,201.075 C465.45,202.725 464.04,204.225 461.775,204.225 C459.21,204.225 457.995,202.575 457.8,201.06 L459.21,200.61 C459.315,201.795 460.155,202.89 461.76,202.89 C463.23,202.89 463.95,202.125 463.95,201.195 C463.95,200.43 463.425,199.77 462.36,199.545 L460.845,199.215 C459.33,198.885 458.25,197.895 458.25,196.305 C458.25,194.64 459.795,193.14 461.76,193.14 C464.16,193.14 465.12,194.625 465.36,195.78 Z M468.09,199.65 L472.035,199.65 C472.005,198.615 471.33,197.805 470.055,197.805 C468.87,197.805 468.15,198.72 468.09,199.65 Z M472.245,201.525 L473.46,201.945 C473.055,203.22 471.9,204.225 470.22,204.225 C468.285,204.225 466.59,202.815 466.59,200.37 C466.59,198.105 468.225,196.56 470.04,196.56 C472.26,196.56 473.505,198.09 473.505,200.34 C473.505,200.52 473.49,200.7 473.475,200.79 L468.045,200.79 C468.075,202.08 469.005,202.98 470.22,202.98 C471.39,202.98 471.975,202.335 472.245,201.525 Z M479.31,196.71 L479.31,198.21 C479.1,198.18 478.89,198.165 478.695,198.165 C477.51,198.165 476.715,198.795 476.715,200.385 L476.715,204 L475.305,204 L475.305,196.785 L476.685,196.785 L476.685,198.045 C477.21,196.935 478.11,196.665 478.845,196.665 C479.04,196.665 479.235,196.695 479.31,196.71 Z M487.215,196.785 L484.335,204 L482.91,204 L479.985,196.785 L481.575,196.785 L483.63,202.35 L485.7,196.785 L487.215,196.785 Z M489.255,199.65 L493.2,199.65 C493.17,198.615 492.495,197.805 491.22,197.805 C490.035,197.805 489.315,198.72 489.255,199.65 Z M493.41,201.525 L494.625,201.945 C494.22,203.22 493.065,204.225 491.385,204.225 C489.45,204.225 487.755,202.815 487.755,200.37 C487.755,198.105 489.39,196.56 491.205,196.56 C493.425,196.56 494.67,198.09 494.67,200.34 C494.67,200.52 494.655,200.7 494.64,200.79 L489.21,200.79 C489.24,202.08 490.17,202.98 491.385,202.98 C492.555,202.98 493.14,202.335 493.41,201.525 Z M500.475,196.71 L500.475,198.21 C500.265,198.18 500.055,198.165 499.86,198.165 C498.675,198.165 497.88,198.795 497.88,200.385 L497.88,204 L496.47,204 L496.47,196.785 L497.85,196.785 L497.85,198.045 C498.375,196.935 499.275,196.665 500.01,196.665 C500.205,196.665 500.4,196.695 500.475,196.71 Z" id="AD-Server" fill="#2C334D"></path>
                    <g id="Group-13" transform="translate(672.000000, 125.000000)">
                        <rect id="Rectangle-13" stroke="#FECD46" stroke-width="2" fill-opacity="0" fill="#FFFFFF" x="-1" y="-1" width="42" height="32" rx="8"></rect>
                        <rect id="Rectangle-13" stroke="#FECD46" stroke-width="2" fill="#FFFFFF" x="4" y="3" width="42" height="32" rx="6"></rect>
                        <rect id="Rectangle-13" stroke="#FECD46" stroke-width="2" fill="#FFFFFF" x="31" y="12" width="17" height="12" rx="2"></rect>
                        <circle id="Oval-3" fill="#FECD46" fill-rule="nonzero" cx="42" cy="18" r="2"></circle>
                    </g>
                    <path d="M687.055,195.78 L685.735,196.245 C685.615,195.48 684.97,194.43 683.485,194.43 C682.285,194.43 681.43,195.21 681.43,196.2 C681.43,196.965 681.895,197.55 682.795,197.745 L684.385,198.09 C686.155,198.48 687.145,199.59 687.145,201.075 C687.145,202.725 685.735,204.225 683.47,204.225 C680.905,204.225 679.69,202.575 679.495,201.06 L680.905,200.61 C681.01,201.795 681.85,202.89 683.455,202.89 C684.925,202.89 685.645,202.125 685.645,201.195 C685.645,200.43 685.12,199.77 684.055,199.545 L682.54,199.215 C681.025,198.885 679.945,197.895 679.945,196.305 C679.945,194.64 681.49,193.14 683.455,193.14 C685.855,193.14 686.815,194.625 687.055,195.78 Z M695.95,195.78 L694.63,196.245 C694.51,195.48 693.865,194.43 692.38,194.43 C691.18,194.43 690.325,195.21 690.325,196.2 C690.325,196.965 690.79,197.55 691.69,197.745 L693.28,198.09 C695.05,198.48 696.04,199.59 696.04,201.075 C696.04,202.725 694.63,204.225 692.365,204.225 C689.8,204.225 688.585,202.575 688.39,201.06 L689.8,200.61 C689.905,201.795 690.745,202.89 692.35,202.89 C693.82,202.89 694.54,202.125 694.54,201.195 C694.54,200.43 694.015,199.77 692.95,199.545 L691.435,199.215 C689.92,198.885 688.84,197.895 688.84,196.305 C688.84,194.64 690.385,193.14 692.35,193.14 C694.75,193.14 695.71,194.625 695.95,195.78 Z M699.535,198.33 L701.665,198.33 C702.94,198.33 703.72,197.625 703.72,196.53 C703.72,195.405 702.94,194.685 701.665,194.685 L699.535,194.685 L699.535,198.33 Z M701.935,199.65 L699.535,199.65 L699.535,204 L698.065,204 L698.065,193.365 L701.935,193.365 C703.9,193.365 705.22,194.73 705.22,196.515 C705.22,198.315 703.9,199.65 701.935,199.65 Z M705.82,202.125 L707.095,201.675 C707.185,202.425 707.755,203.025 708.775,203.025 C709.57,203.025 710.005,202.575 710.005,202.065 C710.005,201.615 709.675,201.27 709.075,201.135 L707.845,200.865 C706.72,200.625 706.045,199.86 706.045,198.84 C706.045,197.61 707.2,196.56 708.61,196.56 C710.59,196.56 711.205,197.85 711.355,198.495 L710.11,198.96 C710.05,198.585 709.75,197.76 708.61,197.76 C707.89,197.76 707.41,198.225 707.41,198.72 C707.41,199.155 707.68,199.47 708.235,199.59 L709.405,199.845 C710.71,200.13 711.4,200.925 711.4,201.99 C711.4,203.01 710.545,204.225 708.76,204.225 C706.78,204.225 705.94,202.95 705.82,202.125 Z" id="SSPs" fill="#2C334D"></path>
                    <path d="M819.33,202.695 L821.505,202.695 C823.47,202.695 825.12,201.375 825.12,198.705 C825.12,196.02 823.5,194.67 821.535,194.67 L819.33,194.67 L819.33,202.695 Z M821.55,204 L817.86,204 L817.86,193.365 L821.58,193.365 C824.28,193.365 826.635,195.21 826.635,198.705 C826.635,202.185 824.25,204 821.55,204 Z M835.365,195.78 L834.045,196.245 C833.925,195.48 833.28,194.43 831.795,194.43 C830.595,194.43 829.74,195.21 829.74,196.2 C829.74,196.965 830.205,197.55 831.105,197.745 L832.695,198.09 C834.465,198.48 835.455,199.59 835.455,201.075 C835.455,202.725 834.045,204.225 831.78,204.225 C829.215,204.225 828,202.575 827.805,201.06 L829.215,200.61 C829.32,201.795 830.16,202.89 831.765,202.89 C833.235,202.89 833.955,202.125 833.955,201.195 C833.955,200.43 833.43,199.77 832.365,199.545 L830.85,199.215 C829.335,198.885 828.255,197.895 828.255,196.305 C828.255,194.64 829.8,193.14 831.765,193.14 C834.165,193.14 835.125,194.625 835.365,195.78 Z M838.95,198.33 L841.08,198.33 C842.355,198.33 843.135,197.625 843.135,196.53 C843.135,195.405 842.355,194.685 841.08,194.685 L838.95,194.685 L838.95,198.33 Z M841.35,199.65 L838.95,199.65 L838.95,204 L837.48,204 L837.48,193.365 L841.35,193.365 C843.315,193.365 844.635,194.73 844.635,196.515 C844.635,198.315 843.315,199.65 841.35,199.65 Z M845.235,202.125 L846.51,201.675 C846.6,202.425 847.17,203.025 848.19,203.025 C848.985,203.025 849.42,202.575 849.42,202.065 C849.42,201.615 849.09,201.27 848.49,201.135 L847.26,200.865 C846.135,200.625 845.46,199.86 845.46,198.84 C845.46,197.61 846.615,196.56 848.025,196.56 C850.005,196.56 850.62,197.85 850.77,198.495 L849.525,198.96 C849.465,198.585 849.165,197.76 848.025,197.76 C847.305,197.76 846.825,198.225 846.825,198.72 C846.825,199.155 847.095,199.47 847.65,199.59 L848.82,199.845 C850.125,200.13 850.815,200.925 850.815,201.99 C850.815,203.01 849.96,204.225 848.175,204.225 C846.195,204.225 845.355,202.95 845.235,202.125 Z" id="DSPs" fill="#2C334D"></path>
                    <g id="Group-20" transform="translate(802.000000, 124.000000)" stroke="#FECD46" stroke-width="2">
                        <path d="M15.4726669,14 L52.9178362,14 L48.792797,29.7712907 C47.9871634,32.8514752 45.204409,35 42.0206091,35 L26.9360571,35 C23.8381392,35 21.1086687,32.9637324 20.2261225,29.9941857 L15.4726669,14 Z" id="Rectangle-13" fill="#FFFFFF"></path>
                        <circle id="Oval-5" fill="#FFFFFF" cx="25" cy="45" r="5"></circle>
                        <circle id="Oval-5" fill="#FFFFFF" cx="45" cy="45" r="5"></circle>
                        <path d="M0,0.0017614024 L7.24316406,0.0017614024 C10.164388,0.716868838 12.1232096,2.67569045 13.1196289,5.87822625 C14.1160482,9.08076204 15.563151,14.2421215 17.4609375,21.3623047" id="Path-16" stroke-linecap="round" stroke-linejoin="round" fill-rule="nonzero"></path>
                        <g id="Group-19" transform="translate(35.000000, 1.000000)">
                            <circle id="Oval-6" fill="#FFFFFF" cx="11" cy="11" r="12"></circle>
                            <g id="Group-17" transform="translate(6.000000, 5.000000)" fill-rule="nonzero" stroke-linecap="round" stroke-linejoin="round">
                                <path d="M5,0.34375 L5,10.65625" id="Line-15"></path>
                                <path d="M10,5.75 L0,5.75" id="Line-15"></path>
                            </g>
                        </g>
                    </g>
                    <g id="Group-14" transform="translate(446.000000, 289.000000)">
                        <rect id="Rectangle-13" stroke="#FECD46" stroke-width="2" x="0" y="-1" width="42" height="43" rx="7"></rect>
                        <path d="M0.5,14 L0.5,13 L41.5,13 L41.5,14 L0.5,14 Z M0.5,13 L41.5,13 L41.5,14 L0.5,14 L0.5,13 Z" id="Line-2" stroke="#FECD46"></path>
                        <path d="M0.5,28 L0.5,27 L41.5,27 L41.5,28 L0.5,28 Z M0.5,27 L41.5,27 L41.5,28 L0.5,28 L0.5,27 Z" id="Line-2" stroke="#FECD46"></path>
                        <circle id="Oval-3" fill="#FECD46" fill-rule="nonzero" cx="6.5" cy="6.5" r="1.5"></circle>
                        <circle id="Oval-3" fill="#FECD46" fill-rule="nonzero" cx="13.5" cy="6.5" r="1.5"></circle>
                        <circle id="Oval-3" fill="#FECD46" fill-rule="nonzero" cx="33.5" cy="6.5" r="1.5"></circle>
                        <circle id="Oval-3" fill="#FECD46" fill-rule="nonzero" cx="6.5" cy="20.5" r="1.5"></circle>
                        <circle id="Oval-3" fill="#FECD46" fill-rule="nonzero" cx="13.5" cy="20.5" r="1.5"></circle>
                        <circle id="Oval-3" fill="#FECD46" fill-rule="nonzero" cx="33.5" cy="20.5" r="1.5"></circle>
                        <circle id="Oval-3" fill="#FECD46" fill-rule="nonzero" cx="6.5" cy="34.5" r="1.5"></circle>
                        <circle id="Oval-3" fill="#FECD46" fill-rule="nonzero" cx="13.5" cy="34.5" r="1.5"></circle>
                        <circle id="Oval-3" fill="#FECD46" fill-rule="nonzero" cx="33.5" cy="34.5" r="1.5"></circle>
                    </g>
                    <path d="M443.5,483.5625 L442.5,483.5625 L442.5,477.4375 L443.5,477.4375 L443.5,483.5625 Z M442.5,483.5625 L442.5,477.4375 L443.5,477.4375 L443.5,483.5625 L442.5,483.5625 Z" id="Line-3" stroke="#FECD46" stroke-linecap="round" stroke-linejoin="round"></path>
                    <path d="M450.5,483.541667 L449.5,483.541667 L449.5,473.458333 L450.5,473.458333 L450.5,483.541667 Z M449.5,483.541667 L449.5,473.458333 L450.5,473.458333 L450.5,483.541667 L449.5,483.541667 Z" id="Line-3" stroke="#FECD46" stroke-linecap="round" stroke-linejoin="round"></path>
                    <path d="M457.5,483.558824 L456.5,483.558824 L456.5,469.441176 L457.5,469.441176 L457.5,483.558824 Z M456.5,483.558824 L456.5,469.441176 L457.5,469.441176 L457.5,483.558824 L456.5,483.558824 Z" id="Line-3" stroke="#FECD46" stroke-linecap="round" stroke-linejoin="round"></path>
                    <path d="M452.3475,368.695 L454.5225,368.695 C456.4875,368.695 458.1375,367.375 458.1375,364.705 C458.1375,362.02 456.5175,360.67 454.5525,360.67 L452.3475,360.67 L452.3475,368.695 Z M454.5675,370 L450.8775,370 L450.8775,359.365 L454.5975,359.365 C457.2975,359.365 459.6525,361.21 459.6525,364.705 C459.6525,368.185 457.2675,370 454.5675,370 Z M473.1675,370 L471.7125,370 L471.7125,361.72 L468.0825,370 L466.7325,370 L463.1325,361.72 L463.1325,370 L461.6775,370 L461.6775,359.365 L463.6725,359.365 L467.4225,368.02 L471.2025,359.365 L473.1675,359.365 L473.1675,370 Z M477.3375,364.33 L479.4675,364.33 C480.7425,364.33 481.5225,363.625 481.5225,362.53 C481.5225,361.405 480.7425,360.685 479.4675,360.685 L477.3375,360.685 L477.3375,364.33 Z M479.7375,365.65 L477.3375,365.65 L477.3375,370 L475.8675,370 L475.8675,359.365 L479.7375,359.365 C481.7025,359.365 483.0225,360.73 483.0225,362.515 C483.0225,364.315 481.7025,365.65 479.7375,365.65 Z" id="DMP" fill="#2C334D"></path>
                    <g id="Group-14" transform="translate(815.000000, 289.000000)">
                        <rect id="Rectangle-13" stroke="#FECD46" stroke-width="2" x="0" y="-1" width="42" height="43" rx="7"></rect>
                        <path d="M0.5,14 L0.5,13 L41.5,13 L41.5,14 L0.5,14 Z M0.5,13 L41.5,13 L41.5,14 L0.5,14 L0.5,13 Z" id="Line-2" stroke="#FECD46"></path>
                        <path d="M0.5,28 L0.5,27 L41.5,27 L41.5,28 L0.5,28 Z M0.5,27 L41.5,27 L41.5,28 L0.5,28 L0.5,27 Z" id="Line-2" stroke="#FECD46"></path>
                        <circle id="Oval-3" fill="#FECD46" fill-rule="nonzero" cx="6.5" cy="6.5" r="1.5"></circle>
                        <circle id="Oval-3" fill="#FECD46" fill-rule="nonzero" cx="13.5" cy="6.5" r="1.5"></circle>
                        <circle id="Oval-3" fill="#FECD46" fill-rule="nonzero" cx="33.5" cy="6.5" r="1.5"></circle>
                        <circle id="Oval-3" fill="#FECD46" fill-rule="nonzero" cx="6.5" cy="20.5" r="1.5"></circle>
                        <circle id="Oval-3" fill="#FECD46" fill-rule="nonzero" cx="13.5" cy="20.5" r="1.5"></circle>
                        <circle id="Oval-3" fill="#FECD46" fill-rule="nonzero" cx="33.5" cy="20.5" r="1.5"></circle>
                        <circle id="Oval-3" fill="#FECD46" fill-rule="nonzero" cx="6.5" cy="34.5" r="1.5"></circle>
                        <circle id="Oval-3" fill="#FECD46" fill-rule="nonzero" cx="13.5" cy="34.5" r="1.5"></circle>
                        <circle id="Oval-3" fill="#FECD46" fill-rule="nonzero" cx="33.5" cy="34.5" r="1.5"></circle>
                    </g>
                    <path d="M816.3475,368.695 L818.5225,368.695 C820.4875,368.695 822.1375,367.375 822.1375,364.705 C822.1375,362.02 820.5175,360.67 818.5525,360.67 L816.3475,360.67 L816.3475,368.695 Z M818.5675,370 L814.8775,370 L814.8775,359.365 L818.5975,359.365 C821.2975,359.365 823.6525,361.21 823.6525,364.705 C823.6525,368.185 821.2675,370 818.5675,370 Z M837.1675,370 L835.7125,370 L835.7125,361.72 L832.0825,370 L830.7325,370 L827.1325,361.72 L827.1325,370 L825.6775,370 L825.6775,359.365 L827.6725,359.365 L831.4225,368.02 L835.2025,359.365 L837.1675,359.365 L837.1675,370 Z M841.3375,364.33 L843.4675,364.33 C844.7425,364.33 845.5225,363.625 845.5225,362.53 C845.5225,361.405 844.7425,360.685 843.4675,360.685 L841.3375,360.685 L841.3375,364.33 Z M843.7375,365.65 L841.3375,365.65 L841.3375,370 L839.8675,370 L839.8675,359.365 L843.7375,359.365 C845.7025,359.365 847.0225,360.73 847.0225,362.515 C847.0225,364.315 845.7025,365.65 843.7375,365.65 Z" id="DMP" fill="#2C334D"></path>
                    <rect id="Rectangle-13" stroke="#FECD46" stroke-width="2" x="433" y="448" width="61" height="42" rx="5"></rect>
                    <path d="M416.07,528.695 L418.245,528.695 C420.21,528.695 421.86,527.375 421.86,524.705 C421.86,522.02 420.24,520.67 418.275,520.67 L416.07,520.67 L416.07,528.695 Z M418.29,530 L414.6,530 L414.6,519.365 L418.32,519.365 C421.02,519.365 423.375,521.21 423.375,524.705 C423.375,528.185 420.99,530 418.29,530 Z M424.8,528.065 C424.8,526.775 425.745,526.055 426.99,525.875 L428.94,525.59 C429.375,525.53 429.495,525.305 429.495,525.05 C429.495,524.345 429.03,523.76 427.935,523.76 C426.945,523.76 426.39,524.375 426.3,525.215 L424.95,524.9 C425.1,523.52 426.345,522.56 427.905,522.56 C430.065,522.56 430.905,523.79 430.905,525.2 L430.905,528.815 C430.905,529.445 430.965,529.82 430.995,530 L429.615,530 C429.585,529.82 429.54,529.55 429.54,529.025 C429.225,529.535 428.505,530.225 427.215,530.225 C425.745,530.225 424.8,529.205 424.8,528.065 Z M427.41,529.04 C428.565,529.04 429.495,528.485 429.495,526.91 L429.495,526.58 L427.29,526.91 C426.69,527 426.24,527.345 426.24,527.99 C426.24,528.53 426.69,529.04 427.41,529.04 Z M434.985,520.505 L434.985,522.785 L436.545,522.785 L436.545,524.06 L434.985,524.06 L434.985,527.81 C434.985,528.47 435.255,528.8 435.99,528.8 C436.17,528.8 436.425,528.77 436.545,528.74 L436.545,529.94 C436.425,529.985 436.065,530.075 435.585,530.075 C434.355,530.075 433.575,529.325 433.575,528.02 L433.575,524.06 L432.195,524.06 L432.195,522.785 L432.585,522.785 C433.365,522.785 433.695,522.305 433.695,521.675 L433.695,520.505 L434.985,520.505 Z M437.97,528.065 C437.97,526.775 438.915,526.055 440.16,525.875 L442.11,525.59 C442.545,525.53 442.665,525.305 442.665,525.05 C442.665,524.345 442.2,523.76 441.105,523.76 C440.115,523.76 439.56,524.375 439.47,525.215 L438.12,524.9 C438.27,523.52 439.515,522.56 441.075,522.56 C443.235,522.56 444.075,523.79 444.075,525.2 L444.075,528.815 C444.075,529.445 444.135,529.82 444.165,530 L442.785,530 C442.755,529.82 442.71,529.55 442.71,529.025 C442.395,529.535 441.675,530.225 440.385,530.225 C438.915,530.225 437.97,529.205 437.97,528.065 Z M440.58,529.04 C441.735,529.04 442.665,528.485 442.665,526.91 L442.665,526.58 L440.46,526.91 C439.86,527 439.41,527.345 439.41,527.99 C439.41,528.53 439.86,529.04 440.58,529.04 Z M451.635,528.695 L453.81,528.695 C455.775,528.695 457.425,527.375 457.425,524.705 C457.425,522.02 455.805,520.67 453.84,520.67 L451.635,520.67 L451.635,528.695 Z M453.855,530 L450.165,530 L450.165,519.365 L453.885,519.365 C456.585,519.365 458.94,521.21 458.94,524.705 C458.94,528.185 456.555,530 453.855,530 Z M462.21,530 L460.815,530 L460.815,522.785 L462.21,522.785 L462.21,530 Z M460.5,520.055 C460.5,519.485 460.95,519.035 461.505,519.035 C462.075,519.035 462.525,519.485 462.525,520.055 C462.525,520.61 462.075,521.06 461.505,521.06 C460.95,521.06 460.5,520.61 460.5,520.055 Z M463.935,528.125 L465.21,527.675 C465.3,528.425 465.87,529.025 466.89,529.025 C467.685,529.025 468.12,528.575 468.12,528.065 C468.12,527.615 467.79,527.27 467.19,527.135 L465.96,526.865 C464.835,526.625 464.16,525.86 464.16,524.84 C464.16,523.61 465.315,522.56 466.725,522.56 C468.705,522.56 469.32,523.85 469.47,524.495 L468.225,524.96 C468.165,524.585 467.865,523.76 466.725,523.76 C466.005,523.76 465.525,524.225 465.525,524.72 C465.525,525.155 465.795,525.47 466.35,525.59 L467.52,525.845 C468.825,526.13 469.515,526.925 469.515,527.99 C469.515,529.01 468.66,530.225 466.875,530.225 C464.895,530.225 464.055,528.95 463.935,528.125 Z M473.28,520.505 L473.28,522.785 L474.84,522.785 L474.84,524.06 L473.28,524.06 L473.28,527.81 C473.28,528.47 473.55,528.8 474.285,528.8 C474.465,528.8 474.72,528.77 474.84,528.74 L474.84,529.94 C474.72,529.985 474.36,530.075 473.88,530.075 C472.65,530.075 471.87,529.325 471.87,528.02 L471.87,524.06 L470.49,524.06 L470.49,522.785 L470.88,522.785 C471.66,522.785 471.99,522.305 471.99,521.675 L471.99,520.505 L473.28,520.505 Z M478.11,530 L476.715,530 L476.715,522.785 L478.11,522.785 L478.11,530 Z M476.4,520.055 C476.4,519.485 476.85,519.035 477.405,519.035 C477.975,519.035 478.425,519.485 478.425,520.055 C478.425,520.61 477.975,521.06 477.405,521.06 C476.85,521.06 476.4,520.61 476.4,520.055 Z M481.905,530 L480.51,530 L480.51,519.14 L481.905,519.14 L481.905,523.805 C482.25,523.16 483.09,522.575 484.29,522.575 C486.48,522.575 487.605,524.255 487.605,526.355 C487.605,528.5 486.39,530.195 484.245,530.195 C483.18,530.195 482.355,529.73 481.905,528.95 L481.905,530 Z M486.165,526.355 C486.165,524.795 485.34,523.82 484.035,523.82 C482.79,523.82 481.89,524.795 481.89,526.355 C481.89,527.915 482.79,528.935 484.035,528.935 C485.325,528.935 486.165,527.915 486.165,526.355 Z M494.085,529.13 C493.695,529.88 492.795,530.225 491.955,530.225 C490.275,530.225 489.255,528.965 489.255,527.33 L489.255,522.785 L490.665,522.785 L490.665,527.12 C490.665,528.11 491.115,528.98 492.3,528.98 C493.44,528.98 494.01,528.23 494.01,527.135 L494.01,522.785 L495.42,522.785 L495.42,528.665 C495.42,529.235 495.465,529.745 495.495,530 L494.145,530 C494.115,529.835 494.085,529.43 494.085,529.13 Z M499.71,520.505 L499.71,522.785 L501.27,522.785 L501.27,524.06 L499.71,524.06 L499.71,527.81 C499.71,528.47 499.98,528.8 500.715,528.8 C500.895,528.8 501.15,528.77 501.27,528.74 L501.27,529.94 C501.15,529.985 500.79,530.075 500.31,530.075 C499.08,530.075 498.3,529.325 498.3,528.02 L498.3,524.06 L496.92,524.06 L496.92,522.785 L497.31,522.785 C498.09,522.785 498.42,522.305 498.42,521.675 L498.42,520.505 L499.71,520.505 Z M504.54,530 L503.145,530 L503.145,522.785 L504.54,522.785 L504.54,530 Z M502.83,520.055 C502.83,519.485 503.28,519.035 503.835,519.035 C504.405,519.035 504.855,519.485 504.855,520.055 C504.855,520.61 504.405,521.06 503.835,521.06 C503.28,521.06 502.83,520.61 502.83,520.055 Z M510.03,528.965 C511.23,528.965 512.28,528.065 512.28,526.385 C512.28,524.72 511.23,523.82 510.03,523.82 C508.83,523.82 507.78,524.72 507.78,526.385 C507.78,528.065 508.83,528.965 510.03,528.965 Z M510.03,522.56 C512.19,522.56 513.72,524.195 513.72,526.385 C513.72,528.59 512.19,530.225 510.03,530.225 C507.87,530.225 506.34,528.59 506.34,526.385 C506.34,524.195 507.87,522.56 510.03,522.56 Z M516.93,525.83 L516.93,530 L515.52,530 L515.52,522.785 L516.9,522.785 L516.9,523.82 C517.425,522.92 518.28,522.575 519.12,522.575 C520.845,522.575 521.7,523.82 521.7,525.425 L521.7,530 L520.29,530 L520.29,525.665 C520.29,524.66 519.87,523.85 518.61,523.85 C517.5,523.85 516.93,524.735 516.93,525.83 Z M452.8425,555 L446.3775,555 L446.3775,544.365 L452.8425,544.365 L452.8425,545.73 L447.8475,545.73 L447.8475,549 L452.3775,549 L452.3775,550.38 L447.8475,550.38 L447.8475,553.635 L452.8425,553.635 L452.8425,555 Z M456.1275,550.83 L456.1275,555 L454.7175,555 L454.7175,547.785 L456.0975,547.785 L456.0975,548.82 C456.6225,547.92 457.4775,547.575 458.3175,547.575 C460.0425,547.575 460.8975,548.82 460.8975,550.425 L460.8975,555 L459.4875,555 L459.4875,550.665 C459.4875,549.66 459.0675,548.85 457.8075,548.85 C456.6975,548.85 456.1275,549.735 456.1275,550.83 Z M462.6225,555.39 L463.9875,555.075 C464.0925,556.08 464.8575,556.845 465.9525,556.845 C467.4675,556.845 468.1575,556.065 468.1575,554.505 L468.1575,553.47 C467.8125,554.13 467.0325,554.655 465.9525,554.655 C464.0325,554.655 462.6375,553.2 462.6375,551.16 C462.6375,549.21 463.9725,547.65 465.9525,547.65 C467.0625,547.65 467.8125,548.07 468.1725,548.79 L468.1725,547.785 L469.5675,547.785 L469.5675,554.46 C469.5675,556.29 468.6675,558.075 465.9525,558.075 C464.1525,558.075 462.8025,556.935 462.6225,555.39 Z M466.1625,553.47 C467.3775,553.47 468.2175,552.555 468.2175,551.16 C468.2175,549.765 467.3775,548.85 466.1625,548.85 C464.9175,548.85 464.0775,549.765 464.0775,551.16 C464.0775,552.57 464.8875,553.47 466.1625,553.47 Z M473.2125,555 L471.8175,555 L471.8175,547.785 L473.2125,547.785 L473.2125,555 Z M471.5025,545.055 C471.5025,544.485 471.9525,544.035 472.5075,544.035 C473.0775,544.035 473.5275,544.485 473.5275,545.055 C473.5275,545.61 473.0775,546.06 472.5075,546.06 C471.9525,546.06 471.5025,545.61 471.5025,545.055 Z M477.0225,550.83 L477.0225,555 L475.6125,555 L475.6125,547.785 L476.9925,547.785 L476.9925,548.82 C477.5175,547.92 478.3725,547.575 479.2125,547.575 C480.9375,547.575 481.7925,548.82 481.7925,550.425 L481.7925,555 L480.3825,555 L480.3825,550.665 C480.3825,549.66 479.9625,548.85 478.7025,548.85 C477.5925,548.85 477.0225,549.735 477.0225,550.83 Z M484.9575,550.65 L488.9025,550.65 C488.8725,549.615 488.1975,548.805 486.9225,548.805 C485.7375,548.805 485.0175,549.72 484.9575,550.65 Z M489.1125,552.525 L490.3275,552.945 C489.9225,554.22 488.7675,555.225 487.0875,555.225 C485.1525,555.225 483.4575,553.815 483.4575,551.37 C483.4575,549.105 485.0925,547.56 486.9075,547.56 C489.1275,547.56 490.3725,549.09 490.3725,551.34 C490.3725,551.52 490.3575,551.7 490.3425,551.79 L484.9125,551.79 C484.9425,553.08 485.8725,553.98 487.0875,553.98 C488.2575,553.98 488.8425,553.335 489.1125,552.525 Z" id="Data-Distibution-Eng" fill="#2C334D"></path>
                    <path d="M546,143 L643,143" id="Line-14" stroke="#2C334D" stroke-linecap="square" fill-rule="nonzero"></path>
                    <path d="M746,143 L780,143" id="Line-14" stroke="#2C334D" stroke-linecap="square" fill-rule="nonzero"></path>
                    <path d="M391,0 L543,0 C559.568542,-3.04359188e-15 573,13.4314575 573,30 L573,585 C573,601.568542 559.568542,615 543,615 L391,615 C374.431458,615 361,601.568542 361,585 L361,30 C361,13.4314575 374.431458,3.04359188e-15 391,0 Z" id="Rectangle-22" stroke="#FECD46" stroke-width="3" stroke-linecap="round" stroke-linejoin="round" stroke-dasharray="10,20" fill-rule="nonzero"></path>
                    <path d="M30,456 L220,456 C236.568542,456 250,469.431458 250,486 L250,646 C250,662.568542 236.568542,676 220,676 L30,676 C13.4314575,676 2.02906125e-15,662.568542 0,646 L0,486 C-2.02906125e-15,469.431458 13.4314575,456 30,456 Z" id="Rectangle-22" stroke="#2C334D" stroke-width="2" opacity="0.300000012" stroke-linecap="round" stroke-linejoin="round" stroke-dasharray="5,10" fill-rule="nonzero"></path>
                    <path d="M463,132.585786 L473.691557,143.277344 L463,153.968901 L463,132.585786 Z" id="Path-11" stroke="#FECD46" stroke-width="2" stroke-linecap="round" stroke-linejoin="round"></path>
                    <g id="logo" transform="translate(404.000000, 44.000000)">
                        <path d="M67.2281436,-1.42108547e-14 L67.5672597,-1.42108547e-14 C67.6657127,-1.42108547e-14 67.7462652,0.082313253 67.7462652,0.179807229 L67.7462652,3.75368675 C67.7462652,3.85387952 67.6657127,3.93349398 67.5672597,3.93349398 L67.2281436,3.93349398 C67.1296906,3.93349398 67.0511271,3.85387952 67.0511271,3.75368675 L67.0511271,0.179807229 C67.0511271,0.082313253 67.1296906,-1.42108547e-14 67.2281436,-1.42108547e-14" id="Fill-1" fill="#9E7F0F"></path>
                        <polygon id="Fill-3" fill="#9E7F0F" points="48.1856685 5.62044337 48.7157238 5.66126265 48.6663315 5.72637108 48.6172707 5.78810602 48.5652265 5.84410602 48.5101989 5.89706988 48.4551713 5.94733494 48.3974917 5.99152771 48.3391492 6.03302169 48.2751713 6.06810602 48.2145083 6.10116627 48.1482099 6.13051566 48.0809171 6.15413012 48.0119669 6.17133494 47.9423536 6.18617831 47.8697569 6.19798554 47.7971602 6.20405783 47.7219116 6.20709398 47.646663 6.20405783 47.1136243 6.1656 47.1885414 6.16863614 47.264453 6.1656 47.3393702 6.15986506 47.4122983 6.14772048 47.4812486 6.13321446 47.5508619 6.11533494 47.6178232 6.09172048 47.6811381 6.06237108 47.745116 6.03032289 47.8061105 5.99456386 47.8667735 5.95340723 47.9247845 5.90921446 47.9798122 5.8589494 48.0351713 5.80598554 48.0872155 5.74998554 48.1362762 5.68791325"></polygon>
                        <polygon id="Fill-5" fill="#9E7F0F" points="47.2644199 2.28530602 47.7971271 2.32342651 47.8697238 2.33253494 47.9423204 2.34130602 48.0119337 2.3561494 48.080884 2.37335422 48.1481768 2.39696867 48.2144751 2.42665542 48.2751381 2.45634217 48.339116 2.49176386 48.3974586 2.53292048 48.4551381 2.5767759 48.5101657 2.62400482 48.5651934 2.67730602 48.6172376 2.73364337 48.6662983 2.79537831 48.7156906 2.86048675 48.1856354 2.82169157 48.1365746 2.75725783 48.0871823 2.69518554 48.0351381 2.63918554 47.979779 2.58622169 47.9247514 2.53899277 47.8670718 2.49446265 47.8064088 2.45364337 47.7450829 2.41788434 47.681105 2.3854988 47.6177901 2.35918554 47.5508287 2.33557108 47.4812155 2.31769157 47.4122652 2.30318554 47.339337 2.29104096"></polygon>
                        <polygon id="Fill-7" fill="#9E7F0F" points="48.1856685 2.82179277 48.7157238 2.8602506 48.7389282 2.89567229 48.7621326 2.93075663 48.785337 2.96651566 48.805558 3.0016 48.8261105 3.03735904 48.8463315 3.07244337 48.866221 3.1109012 48.8837901 3.14902169 48.9013591 3.18781687 48.9182652 3.22863614 48.9331823 3.26709398 48.9507514 3.30858795 48.964674 3.34974458 48.9795912 3.3909012 48.9915249 3.43205783 49.0027956 3.4762506 49.0140663 3.52078072 49.026 3.56497349 49.0379337 3.60950361 49.046221 3.65335904 49.0548398 3.70058795 49.0604751 3.74781687 49.0690939 3.79504578 49.0750608 3.8422747 49.0810276 3.89253976 49.0869945 3.93976867 49.0899779 3.98969639 49.0926298 4.03996145 49.0956133 4.0929253 49.0982652 4.14319036 49.0982652 4.19615422 49.0982652 4.24911807 49.0982652 4.30208193 49.0982652 4.35504578 49.0956133 4.40531084 49.0926298 4.4582747 49.0899779 4.50853976 49.0869945 4.55846747 49.0810276 4.60873253 49.0750608 4.65866024 49.0690939 4.70588916 49.0604751 4.75615422 49.0548398 4.80338313 49.046221 4.85061205 49.0379337 4.89514217 49.026 4.94169639 49.0140663 4.98622651 49.0027956 5.03041928 48.9915249 5.0749494 48.9795912 5.11914217 48.964674 5.15996145 48.9507514 5.20145542 48.9331823 5.24261205 48.9182652 5.28410602 48.9013591 5.3256 48.8837901 5.36338313 48.866221 5.40487711 48.8463315 5.44299759 48.8261105 5.47875663 48.805558 5.51687711 48.785337 5.55533494 48.7621326 5.59041928 48.7389282 5.62617831 48.7157238 5.66126265 48.1856685 5.62044337 48.2088729 5.58772048 48.2317459 5.55263614 48.2552818 5.51384096 48.2751713 5.47875663 48.2960552 5.4402988 48.3159448 5.40487711 48.3335138 5.36641928 48.3537348 5.3256 48.3709724 5.28680482 48.3885414 5.24598554 48.4031271 5.20449157 48.4200331 5.16299759 48.4349503 5.12217831 48.4465525 5.07764819 48.4608066 5.03615422 48.4720773 4.99196145 48.484011 4.94810602 48.4959448 4.9035759 48.5045635 4.85634699 48.5128508 4.80911807 48.524453 4.76526265 48.5304199 4.71533494 48.5390387 4.66810602 48.545337 4.62087711 48.5509724 4.57061205 48.5536243 4.52034699 48.5592597 4.47041928 48.5622431 4.42015422 48.5652265 4.36719036 48.5652265 4.3169253 48.5678785 4.26396145 48.5678785 4.21066024 48.5678785 4.15735904 48.5652265 4.10439518 48.5652265 4.05143133 48.5622431 4.00116627 48.5592597 3.95123855 48.5536243 3.90097349 48.5509724 3.85374458 48.545337 3.80381687 48.5390387 3.75658795 48.5304199 3.70969639 48.524453 3.66246747 48.5128508 3.61523855 48.5045635 3.57104578 48.4959448 3.52651566 48.484011 3.48232289 48.4720773 3.43846747 48.4608066 3.39393735 48.4465525 3.35244337 48.4349503 3.3116241 48.4200331 3.27013012 48.4031271 3.22863614 48.3885414 3.19051566 48.3709724 3.14902169 48.3537348 3.1109012 48.3335138 3.07244337 48.3159448 3.03432289 48.2960552 2.99856386 48.2751713 2.96044337 48.2552818 2.92502169 48.2317459 2.8896 48.2088729 2.85755181"></polygon>
                        <path d="M47.1886409,6.16846747 C46.7858785,6.16846747 46.4557127,5.97988916 46.1948287,5.60273253 C45.9399116,5.22220241 45.8126188,4.75902169 45.8126188,4.21049157 C45.8126188,3.64172048 45.9399116,3.18123855 46.1948287,2.8216241 C46.4557127,2.46234699 46.7858785,2.28253976 47.1886409,2.28253976 C47.5973702,2.28253976 47.9305193,2.46234699 48.185768,2.8216241 C48.4403536,3.18123855 48.5679779,3.64172048 48.5679779,4.21049157 C48.5679779,4.77993735 48.4403536,5.25458795 48.185768,5.6202747 C47.9305193,5.98596145 47.5973702,6.16846747 47.1886409,6.16846747" id="Fill-9" fill="#FFCB05"></path>
                        <polygon id="Fill-11" fill="#9E7F0F" points="58.0746961 0.459840964 58.6511602 0.471985542 58.7032044 0.471985542 58.7525967 0.480419277 58.8016575 0.489190361 58.8480663 0.504033735 58.8944751 0.524949398 58.940884 0.548563855 58.9846409 0.574877108 59.0254144 0.607262651 59.0655249 0.643021687 59.1062983 0.683840964 59.1467403 0.728371084 59.1845304 0.778298795 59.2196685 0.8316 59.2541436 0.887262651 59.2886188 0.949672289 59.3207735 1.01714217 58.7439779 1.00533494 58.7095028 0.940563855 58.6776796 0.878828916 58.6425414 0.819792771 58.6047514 0.766491566 58.5672928 0.716226506 58.5298343 0.672371084 58.4890608 0.633913253 58.4482873 0.595792771 58.4048619 0.56306988 58.361105 0.536419277 58.318011 0.512804819 58.2716022 0.492563855 58.2225414 0.480419277 58.1761326 0.468949398 58.1267403 0.462877108"></polygon>
                        <polygon id="Fill-13" fill="#9E7F0F" points="58.7439779 1.00550361 59.3207735 1.01697349 59.3350276 1.04969639 59.3525967 1.08511807 59.3671823 1.12020241 59.3814365 1.15866024 59.3956906 1.19408193 59.4076243 1.23253976 59.4222099 1.27066024 59.4334807 1.30911807 59.4450829 1.3475759 59.4566851 1.38873253 59.4686188 1.42719036 59.4772376 1.46834699 59.4885083 1.50984096 59.4971271 1.55403373 59.5060773 1.59485301 59.5150276 1.63938313 59.520663 1.6835759 59.5292818 1.72810602 59.5349171 1.77533494 59.5405525 1.81919036 59.5465193 1.86641928 59.5524862 1.91364819 59.5581215 1.96087711 59.5614365 2.01114217 59.5644199 2.06106988 59.5700552 2.1082988 59.5730387 2.16126265 59.5730387 2.21152771 59.5756906 2.26179277 59.5756906 2.31475663 59.578674 2.36772048 59.578674 2.42068434 59.578674 2.47364819 59.5756906 2.52661205 59.5756906 2.5802506 59.5730387 2.63321446 59.5730387 2.68617831 59.5700552 2.73644337 59.5644199 2.78670843 59.5614365 2.83663614 59.5581215 2.88386506 59.5524862 2.93413012 59.5465193 2.98068434 59.5405525 3.0282506 59.5349171 3.07514217 59.5292818 3.12270843 59.520663 3.16993735 59.5150276 3.21413012 59.5060773 3.25866024 59.4971271 3.30251566 59.4885083 3.34367229 59.4772376 3.38820241 59.4686188 3.42902169 59.4566851 3.47051566 59.4450829 3.51200964 59.4334807 3.55316627 59.4222099 3.5916241 59.4076243 3.62974458 59.3956906 3.66820241 59.3814365 3.70632289 59.3671823 3.74478072 59.3525967 3.78020241 59.3350276 3.8156241 59.3207735 3.85104578 58.7439779 3.83923855 58.7585635 3.80381687 58.7734807 3.76839518 58.7874033 3.73297349 58.8016575 3.69485301 58.8165746 3.65605783 58.8311602 3.62097349 58.8424309 3.57947952 58.8537017 3.54135904 58.8656354 3.49986506 58.8775691 3.45904578 58.8888398 3.41755181 58.900442 3.37605783 58.9093923 3.33523855 58.9176796 3.29070843 58.9269613 3.24651566 58.9352486 3.20198554 58.9438674 3.15813012 58.9495028 3.1109012 58.958453 3.06670843 58.9640884 3.01947952 58.9703867 2.9722506 58.9760221 2.92198554 58.9790055 2.87475663 58.9846409 2.82482892 58.9872928 2.77456386 58.9902762 2.7242988 58.9932597 2.67437108 58.9959116 2.62140723 58.9959116 2.57114217 58.998895 2.51817831 58.998895 2.46521446 58.998895 2.40921446 58.998895 2.3562506 58.998895 2.3029494 58.9959116 2.25302169 58.9959116 2.19938313 58.9932597 2.14945542 58.9902762 2.09919036 58.9872928 2.04926265 58.9846409 1.99899759 58.9790055 1.95210602 58.9760221 1.90217831 58.9703867 1.8549494 58.9640884 1.81041928 58.958453 1.76319036 58.9495028 1.71899759 58.9438674 1.67176867 58.9352486 1.62791325 58.9269613 1.58641928 58.9176796 1.54188916 58.9093923 1.50106988 58.900442 1.4595759 58.8888398 1.41808193 58.8775691 1.37726265 58.8656354 1.33576867 58.8537017 1.29764819 58.8424309 1.25919036 58.8311602 1.22039518 58.8165746 1.1822747 58.8016575 1.14719036 58.7874033 1.11143133 58.7734807 1.07331084 58.7585635 1.04058795"></polygon>
                        <polygon id="Fill-15" fill="#9E7F0F" points="58.7439779 3.83933976 59.3207735 3.85080964 59.2886188 3.91895422 59.2541436 3.98068916 59.2196685 4.0397253 59.1845304 4.09302651 59.1467403 4.14295422 59.1062983 4.18680964 59.0655249 4.22830361 59.0254144 4.26676145 58.9846409 4.29914699 58.940884 4.32579759 58.8944751 4.34941205 58.8480663 4.36999036 58.8016575 4.38449639 58.7525967 4.39664096 58.7032044 4.4023759 58.6511602 4.4050747 58.0746961 4.39360482 58.1267403 4.39090602 58.1761326 4.38449639 58.2225414 4.37302651 58.2716022 4.35784578 58.318011 4.34064096 58.361105 4.31702651 58.4048619 4.28700241 58.4482873 4.25495422 58.4890608 4.21683373 58.5298343 4.1783759 58.5672928 4.13080964 58.6047514 4.08088193 58.6425414 4.02791807 58.6776796 3.96888193 58.7095028 3.90680964"></polygon>
                        <path d="M58.0746961,4.39370602 C57.8022099,4.39370602 57.5820994,4.20479036 57.4083978,3.8185253 C57.2373481,3.43529639 57.1504972,2.96638072 57.1504972,2.40907952 C57.1504972,1.83693494 57.2373481,1.36801928 57.4083978,1.00536867 C57.5820994,0.643055422 57.8022099,0.459874699 58.0746961,0.459874699 C58.3498343,0.459874699 58.5735912,0.643055422 58.7439779,1.00536867 C58.9150276,1.36801928 58.998895,1.83693494 58.998895,2.40907952 C58.998895,2.98999518 58.9150276,3.46768193 58.7439779,3.83944096 C58.5735912,4.20748916 58.3498343,4.39370602 58.0746961,4.39370602" id="Fill-17" fill="#FFCB05"></path>
                        <polygon id="Fill-19" fill="#9E7F0F" points="87.2728508 5.24878554 86.7427956 5.28690602 86.7921878 5.35201446 86.8412486 5.4137494 86.8936243 5.47278554 86.9483204 5.52608675 87.0033481 5.57601446 87.0610276 5.62054458 87.1223536 5.66136386 87.1833481 5.69644819 87.2469945 5.72950843 87.3103094 5.75582169 87.3769392 5.77943614 87.4465525 5.80035181 87.5164972 5.81485783 87.5887624 5.82396627 87.664011 5.8324 87.7395912 5.8324 87.8148398 5.8324 88.344895 5.79394217 88.2693149 5.79394217 88.1940663 5.79394217 88.1188177 5.78517108 88.046221 5.77673735 87.9772707 5.76155663 87.9069945 5.74097831 87.8406961 5.71736386 87.7773812 5.69071325 87.7134033 5.65866506 87.6524088 5.62054458 87.5917459 5.5817494 87.5337348 5.53452048 87.4783757 5.48729157 87.4233481 5.43432771 87.3713039 5.37562892 87.3222431 5.31321928"></polygon>
                        <polygon id="Fill-21" fill="#9E7F0F" points="88.1941326 1.91364819 87.6640773 1.95210602 87.5888287 1.95784096 87.516232 1.96661205 87.4466188 1.98449157 87.3770055 2.00237108 87.3103757 2.02531084 87.2467293 2.0522988 87.1834144 2.08468434 87.1220884 2.12010602 87.0610939 2.16126265 87.0034144 2.20275663 86.9483867 2.25302169 86.8933591 2.30598554 86.8413149 2.36198554 86.7922541 2.42372048 86.7428619 2.48882892 87.2729171 2.45003373 87.3219779 2.3856 87.3713702 2.32352771 87.4234144 2.26752771 87.478442 2.21456386 87.5338011 2.1642988 87.5914807 2.12010602 87.6521436 2.08198554 87.7134696 2.04622651 87.7774475 2.01384096 87.8407624 1.98752771 87.9070608 1.96391325 87.977337 1.94299759 88.0462873 1.92849157 88.118884 1.91938313"></polygon>
                        <polygon id="Fill-23" fill="#9E7F0F" points="87.2728508 2.45016867 86.7427956 2.48862651 86.7192597 2.52101205 86.6963867 2.55677108 86.6761657 2.59185542 86.6529613 2.62693976 86.6324088 2.6626988 86.6121878 2.70081928 86.5949503 2.73927711 86.5743978 2.77739759 86.5571602 2.81619277 86.5395912 2.8546506 86.5250055 2.89546988 86.507768 2.93426506 86.4964972 2.97508434 86.4819116 3.01657831 86.467326 3.06077108 86.4557238 3.10462651 86.444453 3.14612048 86.4325193 3.1906506 86.4235691 3.23787952 86.4149503 3.28173494 86.406663 3.32896386 86.3980442 3.37315663 86.3890939 3.42342169 86.3834586 3.4706506 86.3771602 3.51787952 86.3745083 3.56814458 86.3685414 3.61807229 86.3658895 3.66833735 86.3629061 3.71826506 86.3629061 3.77156627 86.3602541 3.82149398 86.3602541 3.87445783 86.3602541 3.92742169 86.3629061 3.98072289 86.3629061 4.03368675 86.3658895 4.08361446 86.3685414 4.13691566 86.3745083 4.18684337 86.3771602 4.23710843 86.3834586 4.28433735 86.3890939 4.33426506 86.3980442 4.38149398 86.406663 4.42906024 86.4149503 4.47628916 86.4235691 4.52351807 86.4325193 4.56771084 86.444453 4.61156627 86.4557238 4.65879518 86.467326 4.70028916 86.4819116 4.74448193 86.4964972 4.7886747 86.507768 4.82983133 86.5250055 4.8713253 86.5395912 4.91248193 86.5571602 4.95093976 86.5743978 4.99175904 86.5949503 5.03055422 86.6121878 5.06901205 86.6324088 5.10713253 86.6529613 5.14559036 86.6761657 5.18101205 86.6963867 5.21609639 86.7192597 5.25185542 86.7427956 5.28693976 87.2728508 5.24881928 87.2496464 5.21306024 87.226442 5.1779759 87.206221 5.14221687 87.1833481 5.10409639 87.1624641 5.06901205 87.1425746 5.03055422 87.1250055 4.99175904 87.1047845 4.9539759 87.087547 4.91248193 87.0729613 4.87436145 87.0553923 4.83286747 87.0411381 4.79137349 87.0265525 4.74751807 87.0119669 4.7060241 86.9977127 4.66183133 86.986442 4.6179759 86.9745083 4.57344578 86.965558 4.52925301 86.9539558 4.48472289 86.9456685 4.43749398 86.9370497 4.39093976 86.9280994 4.34371084 86.9218011 4.29648193 86.9161657 4.24621687 86.9105304 4.19595181 86.904895 4.14872289 86.8992597 4.09575904 86.8962762 4.04583133 86.8936243 3.99556627 86.8936243 3.94260241 86.8906409 3.88963855 86.8906409 3.836 86.8906409 3.78303614 86.8936243 3.73007229 86.8936243 3.67980723 86.8962762 3.62954217 86.8992597 3.57961446 86.904895 3.5293494 86.9105304 3.47942169 86.9161657 3.43219277 86.9218011 3.38192771 86.9280994 3.33503614 86.9370497 3.28780723 86.9456685 3.24361446 86.9539558 3.19638554 86.965558 3.15185542 86.9745083 3.10833735 86.986442 3.06380723 86.9977127 3.02231325 87.0119669 2.97812048 87.0265525 2.93696386 87.0411381 2.89546988 87.0553923 2.8573494 87.0729613 2.81619277 87.087547 2.77739759 87.1047845 2.73657831 87.1250055 2.70081928 87.1425746 2.6626988 87.1624641 2.62424096 87.1833481 2.58881928 87.206221 2.55373494 87.226442 2.5179759 87.2496464 2.48289157"></polygon>
                        <path d="M88.2694475,5.7939759 C88.6725414,5.7939759 89.0027072,5.60843373 89.2635912,5.22824096 C89.5185083,4.84771084 89.6487845,4.38756627 89.6487845,3.836 C89.6487845,3.26992771 89.5185083,2.80742169 89.2635912,2.45016867 C89.0027072,2.09055422 88.6725414,1.91074699 88.2694475,1.91074699 C87.8607182,1.91074699 87.5275691,2.09055422 87.2729834,2.45016867 C87.0177348,2.80742169 86.8907735,3.26992771 86.8907735,3.836 C86.8907735,4.40814458 87.0177348,4.88009639 87.2729834,5.24881928 C87.5275691,5.61113253 87.8607182,5.7939759 88.2694475,5.7939759" id="Fill-25" fill="#FFCB05"></path>
                        <path d="M107.259845,10.9955325 C107.259845,9.91061687 108.094541,9.03755663 109.137414,9.03755663 C110.203492,9.03755663 111.081282,9.91061687 111.081282,10.9955325 C111.081282,12.0804482 110.249901,12.9535084 109.183823,12.9535084 C108.117083,12.9535084 107.259845,12.0804482 107.259845,10.9955325" id="Fill-27" fill="#FFCB05"></path>
                        <polygon id="Fill-29" fill="#9E7F0F" points="76.8652044 0.259354217 76.2854254 0.268462651 76.2360331 0.271498795 76.1869724 0.277233735 76.1375801 0.288703614 76.0911713 0.303546988 76.0447624 0.321426506 75.9983536 0.345040964 75.9552597 0.374390361 75.9144862 0.404077108 75.8713923 0.44253494 75.8336022 0.483354217 75.7928287 0.527884337 75.7553702 0.575113253 75.720895 0.628077108 75.6857569 0.686775904 75.6506188 0.749185542 75.6191271 0.813619277 76.1955912 0.804848193 76.2303978 0.737040964 76.262884 0.675306024 76.2966961 0.619306024 76.3348177 0.566004819 76.3726077 0.515739759 76.4100663 0.471884337 76.4508398 0.430390361 76.4909503 0.395306024 76.5347072 0.362583133 76.5781326 0.33593253 76.6218895 0.312318072 76.6682983 0.292077108 76.7147072 0.277233735 76.763768 0.265089157 76.8131602 0.259354217"></polygon>
                        <polygon id="Fill-31" fill="#9E7F0F" points="76.1954254 0.804983133 75.6189613 0.813754217 75.6013923 0.849175904 75.5871381 0.88459759 75.572884 0.920019277 75.5582983 0.955440964 75.5437127 0.993898795 75.532442 1.02898313 75.5175249 1.06710361 75.5059227 1.1058988 75.4943204 1.14705542 75.4830497 1.1851759 75.471116 1.22666988 75.4628287 1.26782651 75.450895 1.30932048 75.4422762 1.35047711 75.4336575 1.39433253 75.4253702 1.43886265 75.4190718 1.48305542 75.410453 1.52758554 75.4044862 1.57144096 75.3958674 1.61866988 75.392884 1.6658988 75.3872486 1.71312771 75.3816133 1.76035663 75.3789613 1.80758554 75.372663 1.8578506 75.3696796 1.90777831 75.3670276 1.95804337 75.3640442 2.00797108 75.3640442 2.06127229 75.3613923 2.11423614 75.3613923 2.1672 75.3613923 2.22016386 75.3613923 2.27312771 75.3613923 2.32642892 75.3640442 2.37973012 75.3640442 2.43269398 75.3670276 2.48295904 75.3696796 2.53288675 75.372663 2.58618795 75.3789613 2.63341687 75.3816133 2.68334458 75.3872486 2.73360964 75.392884 2.78083855 75.3958674 2.82773012 75.4044862 2.87495904 75.410453 2.92218795 75.4190718 2.96638072 75.4253702 3.01091084 75.4336575 3.05476627 75.4422762 3.09895904 75.450895 3.14315181 75.4628287 3.18464578 75.471116 3.2285012 75.4830497 3.26999518 75.4943204 3.31148916 75.5059227 3.34960964 75.5175249 3.39110361 75.532442 3.4292241 75.5437127 3.46768193 75.5582983 3.50580241 75.572884 3.54156145 75.5871381 3.57664578 75.6013923 3.61510361 75.6189613 3.6505253 76.1954254 3.63871807 76.1811713 3.60329639 76.1669171 3.5678747 76.1490166 3.53245301 76.1347624 3.49433253 76.1234917 3.45553735 76.1085746 3.41741687 76.0969724 3.37895904 76.0827182 3.33813976 76.0714475 3.29934458 76.0595138 3.2585253 76.0505635 3.21703133 76.0389613 3.17553735 76.030674 3.13134458 76.0220552 3.09018795 76.013105 3.04599518 76.0044862 3.00146506 75.9955359 2.95423614 75.9899006 2.91038072 75.9812818 2.86315181 75.9756464 2.81592289 75.970011 2.76869398 75.9637127 2.72146506 75.9610608 2.67153735 75.9554254 2.62430843 75.9521105 2.57404337 75.9491271 2.52377831 75.9461436 2.47081446 75.9434917 2.42088675 75.9405083 2.36758554 75.9405083 2.31462169 75.9405083 2.26165783 75.9405083 2.20869398 75.9405083 2.15573012 75.9405083 2.10276627 75.9405083 2.04912771 75.9434917 1.99886265 75.9461436 1.9458988 75.9491271 1.89597108 75.9521105 1.84570602 75.9554254 1.79881446 75.9610608 1.74888675 75.9637127 1.70165783 75.970011 1.65442892 75.9756464 1.6072 75.9812818 1.55997108 75.9899006 1.51544096 75.9955359 1.47124819 76.0044862 1.42739277 76.013105 1.38286265 76.0220552 1.34136867 76.030674 1.29751325 76.0389613 1.25601928 76.0505635 1.21486265 76.0595138 1.17370602 76.0714475 1.13524819 76.0827182 1.09712771 76.0969724 1.05866988 76.1085746 1.0198747 76.1234917 0.981754217 76.1347624 0.943971084 76.1490166 0.908212048 76.1669171 0.872790361 76.1811713 0.837368675"></polygon>
                        <polygon id="Fill-33" fill="#9E7F0F" points="76.1954254 3.63881928 75.6189613 3.65028916 75.6507845 3.71539759 75.6859227 3.77713253 75.7207293 3.83616867 75.7555359 3.89250602 75.792663 3.93973494 75.8334365 3.98628916 75.871558 4.02778313 75.9146519 4.06354217 75.9554254 4.09592771 75.9985193 4.12527711 76.0449282 4.14889157 76.091337 4.16677108 76.1377459 4.1839759 76.1868066 4.19308434 76.2361989 4.20185542 76.2852597 4.20185542 76.8650387 4.19308434 76.8129945 4.19038554 76.7639337 4.1839759 76.7145414 4.17250602 76.6681326 4.15766265 76.6217238 4.13674699 76.5782983 4.11380723 76.5345414 4.08681928 76.491116 4.05443373 76.450674 4.01631325 76.4099006 3.97481928 76.372442 3.93062651 76.3346519 3.88036145 76.2968619 3.82739759 76.2627182 3.76836145 76.2305635 3.70359036"></polygon>
                        <path d="M76.8652044,4.19315181 C77.1343757,4.19315181 77.3578011,4.0012 77.5311713,3.61797108 C77.7025525,3.23474217 77.7894033,2.76582651 77.7894033,2.2085253 C77.7894033,1.63368193 77.7025525,1.16746506 77.5311713,0.804814458 C77.3578011,0.439127711 77.1343757,0.259320482 76.8652044,0.259320482 C76.5894033,0.259320482 76.3669724,0.439127711 76.1955912,0.804814458 C76.0248729,1.16746506 75.940674,1.63368193 75.940674,2.2085253 C75.940674,2.78674217 76.0248729,3.26712771 76.1955912,3.63888675 C76.3669724,4.00423614 76.5894033,4.19315181 76.8652044,4.19315181" id="Fill-35" fill="#FFCB05"></path>
                        <polygon id="Fill-37" fill="#000A2A" points="0 9.43856386 3.00497238 9.43856386 6.53966851 19.9449735 10.9846409 9.22940723 15.4266298 19.9449735 18.961326 9.43856386 21.9918232 9.43856386 15.8058564 27.885841 10.9846409 16.0674795 6.16044199 27.885841"></polygon>
                        <polygon id="Fill-39" fill="#FFCB05" points="23.7103425 14.8320048 23.7103425 14.8320048 26.4889061 14.8320048 26.4889061 27.6796193 23.7103425 27.6796193"></polygon>
                        <path d="M28.9376354,21.256959 C28.9376354,17.5063084 31.7161989,14.6256819 35.4540994,14.6256819 C37.4705635,14.6256819 39.113768,15.474453 40.2723315,16.7607663 L38.3805083,18.7389831 C37.7258122,17.9661157 36.7661436,17.3737301 35.4540994,17.3737301 C33.3066961,17.3737301 31.791779,19.0216819 31.791779,21.256959 C31.791779,23.4922361 33.3066961,25.1347904 35.4540994,25.1347904 C36.7661436,25.1347904 37.7258122,24.5447663 38.3805083,23.7756096 L40.2723315,25.7538265 C39.113768,27.0394651 37.4705635,27.8858747 35.4540994,27.8858747 C31.7161989,27.8858747 28.9376354,25.007947 28.9376354,21.256959" id="Fill-41" fill="#000A2A"></path>
                        <path d="M41.208232,21.256959 C41.208232,17.5063084 43.9871271,14.6256819 47.7479006,14.6256819 C51.4858011,14.6256819 54.2905525,17.5063084 54.2905525,21.256959 C54.2905525,25.007947 51.4858011,27.8858747 47.7479006,27.8858747 C43.9871271,27.8858747 41.208232,25.007947 41.208232,21.256959 M51.4364088,21.256959 C51.4364088,19.0216819 49.8949724,17.3234651 47.7479006,17.3234651 C45.5782873,17.3234651 44.0623757,19.0216819 44.0623757,21.256959 C44.0623757,23.4922361 45.5782873,25.1877542 47.7479006,25.1877542 C49.8949724,25.1877542 51.4364088,23.4922361 51.4364088,21.256959" id="Fill-43" fill="#000A2A"></path>
                        <path d="M56.7389834,14.8320048 L59.5152265,14.8320048 L59.5152265,16.0380289 C60.4016354,15.0620771 61.7401989,14.625547 63.0522431,14.625547 C66.1818564,14.625547 68.1754475,16.8372096 68.1754475,20.1513301 L68.1754475,27.6796193 L65.3998674,27.6796193 L65.3998674,20.2012578 C65.3998674,18.8184627 64.3914696,17.3236675 62.5195359,17.3236675 C61.1083757,17.3236675 60.0217459,18.0698843 59.5152265,19.5852578 L59.5152265,27.6796193 L56.7389834,27.6796193 L56.7389834,14.8320048 Z" id="Fill-45" fill="#000A2A"></path>
                        <path d="M71.1310939,14.8320048 L73.9096575,14.8320048 L73.9096575,16.0380289 C74.7934144,15.0620771 76.1319779,14.625547 77.4443536,14.625547 C80.5739669,14.625547 82.5698785,16.8372096 82.5698785,20.1513301 L82.5698785,27.6796193 L79.7913149,27.6796193 L79.7913149,20.2012578 C79.7913149,18.8184627 78.7835801,17.3236675 76.9146298,17.3236675 C75.5001547,17.3236675 74.4135249,18.0698843 73.9096575,19.5852578 L73.9096575,27.6796193 L71.1310939,27.6796193 L71.1310939,14.8320048 Z" id="Fill-47" fill="#000A2A"></path>
                        <path d="M84.7695912,21.256959 C84.7695912,17.5063084 87.5451713,14.6256819 91.2306961,14.6256819 C94.7395359,14.6256819 97.0894807,17.146694 97.2664972,21.256959 L97.2664972,22.0267904 L87.6466077,22.0267904 C87.9217459,23.852188 89.3876022,25.0848627 91.2827403,25.0848627 C92.795337,25.0848627 93.9084862,24.364959 94.5628508,23.6217783 L96.4321326,25.6505976 C95.3455028,26.9362361 93.5024088,27.8858747 91.2827403,27.8858747 C87.5451713,27.8858747 84.7695912,25.007947 84.7695912,21.256959 M87.7192044,19.8417783 L94.2094807,19.8417783 C93.8819669,18.0963325 92.6939006,17.2205735 91.0281547,17.2205735 C89.5384309,17.2205735 88.1769945,18.2258747 87.7192044,19.8417783" id="Fill-49" fill="#000A2A"></path>
                        <path d="M98.932442,21.256959 C98.932442,17.5063084 101.711337,14.6256819 105.445591,14.6256819 C107.468354,14.6256819 109.107912,15.474453 110.270453,16.7607663 L108.375315,18.7389831 C107.720287,17.9661157 106.75863,17.3737301 105.445591,17.3737301 C103.301834,17.3737301 101.786254,19.0216819 101.786254,21.256959 C101.786254,23.4922361 103.301834,25.1347904 105.445591,25.1347904 C106.75863,25.1347904 107.720287,24.5447663 108.375315,23.7756096 L110.270453,25.7538265 C109.107912,27.0394651 107.468354,27.8858747 105.445591,27.8858747 C101.711337,27.8858747 98.932442,25.007947 98.932442,21.256959" id="Fill-51" fill="#000A2A"></path>
                        <path d="M115.975127,23.1826506 L115.975127,17.3502169 L119.20916,17.3502169 L119.814464,14.8319036 L115.975127,14.8319036 L115.975127,10.9810602 L113.199547,10.9810602 L113.199547,14.8319036 L110.751149,14.8319036 L111.357116,17.3502169 L113.199547,17.3502169 L113.199547,23.7753735 C113.199547,26.2171084 114.639547,27.6795181 117.061757,27.6795181 L119.51347,27.6795181 L119.51347,25.0846265 L117.772144,25.0846265 C116.328829,25.0846265 115.975127,24.4946024 115.975127,23.1826506" id="Fill-53" fill="#000A2A"></path>
                        <path d="M27.0108066,11.0664096 C27.0108066,9.98419277 26.1761105,9.11113253 25.1332376,9.11113253 C24.0664972,9.11113253 23.1860552,9.98419277 23.1860552,11.0664096 C23.1860552,12.1513253 24.0207514,13.0243855 25.0868287,13.0243855 C26.1529061,13.0243855 27.0108066,12.1513253 27.0108066,11.0664096" id="Fill-56" fill="#FFCB05"></path>
                        <path d="M38.0820663,7.31862651 C38.0820663,6.2306747 37.2473702,5.35491566 36.2015138,5.35491566 C35.1321215,5.35491566 34.2486961,6.2306747 34.2486961,7.31862651 C34.2486961,8.40657831 35.0857127,9.28233735 36.155105,9.28233735 C37.2241657,9.28233735 38.0820663,8.40657831 38.0820663,7.31862651" id="Fill-58" fill="#9E7F0F"></path>
                        <path d="M37.7287293,7.31862651 C37.7287293,6.2306747 36.9696133,5.35491566 36.021547,5.35491566 C35.0512707,5.35491566 34.2487293,6.2306747 34.2487293,7.31862651 C34.2487293,8.40657831 35.0081768,9.28233735 35.978453,9.28233735 C36.9490608,9.28233735 37.7287293,8.40657831 37.7287293,7.31862651" id="Fill-60" fill="#FFCB05"></path>
                        <path d="M97.3243757,7.13595181 C97.3243757,6.04766265 98.1617238,5.17224096 99.2075801,5.17224096 C100.276641,5.17224096 101.160729,6.04766265 101.160729,7.13595181 C101.160729,8.22390361 100.32305,9.09966265 99.253989,9.09966265 C98.1845967,9.09966265 97.3243757,8.22390361 97.3243757,7.13595181" id="Fill-62" fill="#9E7F0F"></path>
                        <path d="M97.6805967,7.13595181 C97.6805967,6.04766265 98.4397127,5.17224096 99.387116,5.17224096 C100.357724,5.17224096 101.160597,6.04766265 101.160597,7.13595181 C101.160597,8.22390361 100.401149,9.09966265 99.4308729,9.09966265 C98.4602652,9.09966265 97.6805967,8.22390361 97.6805967,7.13595181" id="Fill-64" fill="#FFCB05"></path>
                    </g>
                    <polyline id="Path-12" stroke="#2C334D" stroke-linecap="square" fill-rule="nonzero" transform="translate(539.500000, 143.037109) scale(-1, 1) translate(-539.500000, -143.037109) " points="538 140.037109 541 143.037109 538 146.037109"></polyline>
                    <g id="Group-15" transform="translate(175.000000, 65.000000)" fill-rule="nonzero" stroke="#2C334D" stroke-linecap="square">
                        <path d="M8,3.25 L138,3.25" id="Line-14"></path>
                        <polyline id="Path-12" transform="translate(1.500000, 3.037109) scale(-1, 1) translate(-1.500000, -3.037109) " points="0 0.037109375 3 3.03710938 0 6.03710938"></polyline>
                        <polyline id="Path-12" points="145 0.037109375 148 3.03710938 145 6.03710938"></polyline>
                    </g>
                    <polyline id="Path-12" stroke="#2C334D" stroke-linecap="square" fill-rule="nonzero" transform="translate(739.500000, 143.037109) scale(-1, 1) translate(-739.500000, -143.037109) " points="738 140.037109 741 143.037109 738 146.037109"></polyline>
                    <g id="Group-12" transform="translate(339.570484, 377.356761) rotate(143.000000) translate(-339.570484, -377.356761) translate(250.570484, 373.856761)" fill-rule="nonzero" stroke="#2C334D" stroke-linecap="square">
                        <path d="M8,3 L177.150271,0.79113743" id="Line-14"></path>
                        <polyline id="Path-12" transform="translate(1.500000, 3.037109) scale(-1, 1) translate(-1.500000, -3.037109) " points="0 0.037109375 3 3.03710937 0 6.03710937"></polyline>
                    </g>
                    <polyline id="Path-12" stroke="#2C334D" stroke-linecap="square" fill-rule="nonzero" transform="translate(835.500000, 224.037109) scale(-1, -1) rotate(90.000000) translate(-835.500000, -224.037109) " points="834 221.037109 837 224.037109 834 227.037109"></polyline>
                    <polyline id="Path-12" stroke="#2C334D" stroke-linecap="square" fill-rule="nonzero" transform="translate(466.500000, 224.037109) scale(-1, -1) rotate(90.000000) translate(-466.500000, -224.037109) " points="465 221.037109 468 224.037109 465 227.037109"></polyline>
                    <polyline id="Path-12" stroke="#2C334D" stroke-linecap="square" fill-rule="nonzero" transform="translate(466.500000, 389.037109) scale(-1, -1) rotate(90.000000) translate(-466.500000, -389.037109) " points="465 386.037109 468 389.037109 465 392.037109"></polyline>
                    <polyline id="Path-12" stroke="#2C334D" stroke-linecap="square" fill-rule="nonzero" transform="translate(466.500000, 434.037109) scale(-1, 1) rotate(90.000000) translate(-466.500000, -434.037109) " points="465 431.037109 468 434.037109 465 437.037109"></polyline>
                    <polyline id="Path-12" stroke="#2C334D" stroke-linecap="square" fill-rule="nonzero" transform="translate(124.500000, 132.037109) scale(-1, -1) rotate(90.000000) translate(-124.500000, -132.037109) " points="123 129.037109 126 132.037109 123 135.037109"></polyline>
                    <polyline id="Path-12" stroke="#2C334D" stroke-linecap="square" fill-rule="nonzero" transform="translate(124.500000, 190.037109) scale(-1, 1) rotate(90.000000) translate(-124.500000, -190.037109) " points="123 187.037109 126 190.037109 123 193.037109"></polyline>
                    <path d="M124,424 L124,377" id="Line" stroke="#2C334D" stroke-linecap="square" fill-rule="nonzero"></path>
                    <polyline id="Path-12" stroke="#2C334D" stroke-linecap="square" fill-rule="nonzero" transform="translate(124.500000, 433.037109) scale(-1, 1) rotate(90.000000) translate(-124.500000, -433.037109) " points="123 430.037109 126 433.037109 123 436.037109"></polyline>
                    <path d="M546,308 L778,308" id="Line-14" stroke="#2C334D" stroke-linecap="square" fill-rule="nonzero"></path>
                    <polyline id="Path-12" stroke="#2C334D" stroke-linecap="square" fill-rule="nonzero" transform="translate(539.500000, 308.037109) scale(-1, 1) translate(-539.500000, -308.037109) " points="538 305.037109 541 308.037109 538 311.037109"></polyline>
                    <polyline id="Path-12" stroke="#2C334D" stroke-linecap="square" fill-rule="nonzero" points="783 305.037109 786 308.037109 783 311.037109"></polyline>
                    <circle id="Oval-4" stroke="#FECD46" stroke-width="2" cx="474.5" cy="466.5" r="9.5"></circle>
                    <path d="M480.25283,474.547239 L487.375935,482.670345 L486.624065,483.329655 L479.500959,475.20655 L480.25283,474.547239 Z" id="Line-4" stroke="#FECD46" stroke-linecap="round" stroke-linejoin="round"></path>
                    <path d="M441.744629,469.073242 L457.255371,457" id="Path-13" stroke="#FECD46" stroke-width="2" stroke-linecap="round" stroke-linejoin="round" fill-rule="nonzero"></path>
                    <polyline id="Path-14" stroke="#FECD46" stroke-width="2" stroke-linecap="round" stroke-linejoin="round" fill-rule="nonzero" points="450.744629 456 458.006348 456 456.633789 463.057617"></polyline>
                </g>
            </g>
        </g>
    </g>
</svg>