<?xml version="1.0" encoding="UTF-8"?>
<svg width="73px" height="71px" viewBox="0 0 73 71" version="1.1" xmlns="http://www.w3.org/2000/svg" xmlns:xlink="http://www.w3.org/1999/xlink">
    <!-- Generator: sketchtool 51.2 (57519) - http://www.bohemiancoding.com/sketch -->
    <title>660CAE5C-B18E-4E44-851E-6D31D524A878</title>
    <desc>Created with sketchtool.</desc>
    <defs>
        <path d="M5.47966401,13.7323944 L24.1105217,13.7323944 L24.1105217,20.5295066 C24.1107956,21.1140138 24.6017735,21.5876526 25.2070024,21.5873879 C25.3576932,21.5872556 25.5067401,21.5572233 25.6448276,21.4990107 C26.1970407,21.2629851 26.7943241,21.1411356 27.3983201,21.1412679 C29.8193726,21.1412679 31.7820513,23.0367488 31.7820513,25.37491 C31.7820513,27.7130711 29.8193726,29.608552 27.3983201,29.608552 C26.7943241,29.6086843 26.1970407,29.4868348 25.6448276,29.2508092 C25.0901486,29.0170328 24.4440962,29.2617902 24.2020321,29.7974783 C24.1417557,29.930838 24.1106587,30.0747818 24.1105217,30.2203133 L24.1105217,36.9295775 L18.5453749,36.9295775 C18.6003085,36.6087468 18.6288028,36.2842117 18.6308576,35.959015 C18.6308576,35.9399636 18.6308576,35.9230291 18.6308576,35.9039777 C18.6308576,35.8849263 18.6308576,35.8817511 18.6308576,35.871167 C18.6308576,32.3638591 15.6869082,29.5207039 12.0552608,29.5207039 C8.42361351,29.5207039 5.47966401,32.3638591 5.47966401,35.871167 C5.47966401,35.8817511 5.47966401,35.8933936 5.47966401,35.9039777 C5.47966401,35.9145618 5.47966401,35.9399636 5.47966401,35.959015 C5.48171889,36.2842117 5.51021314,36.6087468 5.56514677,36.9295775 L0,36.9295775 L0,19.0244469 C0.00356178161,16.1032339 2.45488948,13.7358342 5.47966401,13.7323944 Z" id="path-1"></path>
        <path d="M44.979664,7.73239437 L63.6105217,7.73239437 L63.6105217,14.5295066 C63.6107956,15.1140138 64.1017735,15.5876526 64.7070024,15.5873879 C64.8576932,15.5872556 65.0067401,15.5572233 65.1448276,15.4990107 C65.6970407,15.2629851 66.2943241,15.1411356 66.8983201,15.1412679 C69.3193726,15.1412679 71.2820513,17.0367488 71.2820513,19.37491 C71.2820513,21.7130711 69.3193726,23.608552 66.8983201,23.608552 C66.2943241,23.6086843 65.6970407,23.4868348 65.1448276,23.2508092 C64.5901486,23.0170328 63.9440962,23.2617902 63.7020321,23.7974783 C63.6417557,23.930838 63.6106587,24.0747818 63.6105217,24.2203133 L63.6105217,30.9295775 L58.0453749,30.9295775 C58.1003085,30.6087468 58.1288028,30.2842117 58.1308576,29.959015 C58.1308576,29.9399636 58.1308576,29.9230291 58.1308576,29.9039777 C58.1308576,29.8849263 58.1308576,29.8817511 58.1308576,29.871167 C58.1308576,26.3638591 55.1869082,23.5207039 51.5552608,23.5207039 C47.9236135,23.5207039 44.979664,26.3638591 44.979664,29.871167 C44.979664,29.8817511 44.979664,29.8933936 44.979664,29.9039777 C44.979664,29.9145618 44.979664,29.9399636 44.979664,29.959015 C44.9817189,30.2842117 45.0102131,30.6087468 45.0651468,30.9295775 L39.5,30.9295775 L39.5,13.0244469 C39.5035618,10.1032339 41.9548895,7.7358342 44.979664,7.73239437 Z" id="path-2"></path>
        <path d="M2.1770557,41.9366197 L19.80084,41.9366197 L19.80084,48.4819871 C19.8010991,49.0448459 20.2655377,49.5009424 20.8380515,49.5006876 C20.9805968,49.5005602 21.1215871,49.4716401 21.2522104,49.4155836 C21.7745742,49.1882997 22.339572,49.0709631 22.9109195,49.0710905 C25.2011044,49.0710905 27.0576923,50.8963685 27.0576923,53.147931 C27.0576923,55.3994936 25.2011044,57.2247715 22.9109195,57.2247715 C22.339572,57.2248989 21.7745742,57.1075623 21.2522104,56.8802785 C20.7275141,56.6551604 20.1163835,56.8908528 19.8874038,57.4067005 C19.8303857,57.535121 19.8009696,57.6737336 19.80084,57.8138749 L19.80084,64.2746479 L14.5365119,64.2746479 C14.5884762,63.9656998 14.6154302,63.6531845 14.617374,63.3400322 C14.617374,63.2686875 14.617374,63.2656299 14.617374,63.2554378 C14.617374,59.8780302 11.8325569,57.1401771 8.39721485,57.1401771 C4.96187279,57.1401771 2.1770557,59.8780302 2.1770557,63.2554378 C2.1770557,63.2972254 2.1770557,63.3216864 2.1770557,63.3400322 C2.1789995,63.6531845 2.20595353,63.9656998 2.25791777,64.2746479 L-3.00641026,64.2746479 L-3.00641026,47.0326703 C-3.003041,44.2196504 -0.684217507,41.9399322 2.1770557,41.9366197 Z" id="path-3"></path>
        <path d="M27.6578249,45.8028169 L45.2816092,45.8028169 L45.2816092,52.3481843 C45.2818684,52.9110431 45.7463069,53.3671396 46.3188207,53.3668848 C46.461366,53.3667574 46.6023563,53.3378373 46.7329797,53.2817808 C47.2553434,53.0544969 47.8203412,52.9371603 48.3916888,52.9372877 C50.6818736,52.9372877 52.5384615,54.7625657 52.5384615,57.0141282 C52.5384615,59.2656908 50.6818736,61.0909687 48.3916888,61.0909687 C47.8203412,61.0910961 47.2553434,60.9737595 46.7329797,60.7464757 C46.2082833,60.5213576 45.5971527,60.75705 45.3681731,61.2728977 C45.311155,61.4013182 45.2817388,61.5399307 45.2816092,61.6800721 L45.2816092,68.1408451 L40.0172812,68.1408451 C40.0692454,67.831897 40.0961994,67.5193817 40.0981432,67.2062294 C40.0981432,67.1878836 40.0981432,67.1715762 40.0981432,67.1532305 C40.0981432,67.1348847 40.0981432,67.1318271 40.0981432,67.121635 C40.0981432,63.7442274 37.3133261,61.0063742 33.8779841,61.0063742 C30.442642,61.0063742 27.6578249,63.7442274 27.6578249,67.121635 C27.6578249,67.1318271 27.6578249,67.1430384 27.6578249,67.1532305 C27.6578249,67.1634226 27.6578249,67.1878836 27.6578249,67.2062294 C27.6597687,67.5193817 27.6867228,67.831897 27.738687,68.1408451 L22.474359,68.1408451 L22.474359,50.8988675 C22.4777282,48.0858476 24.7965517,45.8061293 27.6578249,45.8028169 Z" id="path-4"></path>
    </defs>
    <g id="Page-1" stroke="none" stroke-width="1" fill="none" fill-rule="evenodd" stroke-linecap="round" stroke-linejoin="round">
        <g id="Wiconnect-offerings-4-Data-Monetization" transform="translate(-1111.000000, -883.000000)" stroke-width="2">
            <g id="Group-17" transform="translate(1026.000000, 884.000000)">
                <g id="Programmatic-deals" transform="translate(86.000000, 0.000000)">
                    <g id="Group-6">
                        <g id="Path">
                            <use stroke="#FECD46" fill="#FFFFFF" fill-rule="evenodd" xlink:href="#path-1"></use>
                            <use stroke="#2C334D" xlink:href="#path-1"></use>
                        </g>
                        <g id="Path" transform="translate(55.391026, 19.330986) rotate(115.000000) translate(-55.391026, -19.330986) ">
                            <use stroke="#FECD46" fill="#FECD46" fill-rule="evenodd" xlink:href="#path-2"></use>
                            <use stroke="#2C334D" xlink:href="#path-2"></use>
                        </g>
                        <g id="Path" transform="translate(12.025641, 53.105634) scale(-1, -1) rotate(90.000000) translate(-12.025641, -53.105634) ">
                            <use stroke="#FECD46" fill="#FFFFFF" fill-rule="evenodd" xlink:href="#path-3"></use>
                            <use stroke="#2C334D" xlink:href="#path-3"></use>
                        </g>
                        <g id="Path" transform="translate(37.506410, 56.971831) scale(-1, -1) translate(-37.506410, -56.971831) ">
                            <use stroke="#FECD46" fill="#FFFFFF" fill-rule="evenodd" xlink:href="#path-4"></use>
                            <use stroke="#2C334D" xlink:href="#path-4"></use>
                        </g>
                    </g>
                </g>
            </g>
        </g>
    </g>
</svg>