<?xml version="1.0" encoding="UTF-8"?>
<svg width="145px" height="145px" viewBox="0 0 145 145" version="1.1" xmlns="http://www.w3.org/2000/svg" xmlns:xlink="http://www.w3.org/1999/xlink">
    <!-- Generator: sketchtool 51.2 (57519) - http://www.bohemiancoding.com/sketch -->
    <title>9499CE2E-92BE-4BA8-B75D-C88C2FCD56DD</title>
    <desc>Created with sketchtool.</desc>
    <defs></defs>
    <g id="Page-1" stroke="none" stroke-width="1" fill="none" fill-rule="evenodd">
        <g id="Wiconnect-offerings-5-Audience-Extension" transform="translate(-817.000000, -932.000000)">
            <g id="Retargeting" transform="translate(817.000000, 932.000000)">
                <g id="Group-2">
                    <circle id="Oval-3" fill="#FECD46" fill-rule="nonzero" cx="72.5" cy="72.5" r="72.5"></circle>
                    <circle id="Oval-7" stroke="#2C334D" stroke-width="2" fill="#FECD46" stroke-linecap="round" stroke-linejoin="round" cx="72.5" cy="72.5" r="45.5"></circle>
                    <g id="Group-7" transform="translate(61.000000, 54.000000)" stroke="#2C334D" stroke-linecap="round" stroke-linejoin="round" stroke-width="2">
                        <circle id="Oval-4" fill="#FECD46" cx="12.5" cy="9.5" r="9.5"></circle>
                        <path d="M12,37.9378469 C20,38.39827 24,36.3006202 24,31.6448975 C24,24.6613134 18.627417,19 12,19 C5.372583,19 0,24.6613134 0,31.6448975 C0,36.3006202 4,38.39827 12,37.9378469 Z" id="Oval-4"></path>
                    </g>
                </g>
                <g id="Group-13" transform="translate(71.000000, 19.000000)" fill-rule="nonzero" stroke="#2C334D" stroke-linecap="round" stroke-linejoin="round" stroke-width="2">
                    <path d="M1.5,0.5 L1.5,16.5" id="Line-19"></path>
                    <path d="M0.25,91.5 L0.25,107.5" id="Line-19"></path>
                </g>
                <g id="Group-13" transform="translate(72.500000, 73.000000) rotate(90.000000) translate(-72.500000, -73.000000) translate(71.000000, 19.000000)" fill-rule="nonzero" stroke="#2C334D" stroke-linecap="round" stroke-linejoin="round" stroke-width="2">
                    <path d="M1.5,0.5 L1.5,16.5" id="Line-19"></path>
                    <path d="M0.25,91.5 L0.25,107.5" id="Line-19"></path>
                </g>
            </g>
        </g>
    </g>
</svg>