<?xml version="1.0" encoding="UTF-8"?>
<svg width="68px" height="75px" viewBox="0 0 68 75" version="1.1" xmlns="http://www.w3.org/2000/svg" xmlns:xlink="http://www.w3.org/1999/xlink">
    <!-- Generator: sketchtool 51.2 (57519) - http://www.bohemiancoding.com/sketch -->
    <title>5FFFB7AA-C398-40BF-A980-F50AADEC7708</title>
    <desc>Created with sketchtool.</desc>
    <defs>
        <circle id="path-1" cx="22" cy="22" r="22"></circle>
    </defs>
    <g id="Page-1" stroke="none" stroke-width="1" fill="none" fill-rule="evenodd" stroke-linecap="round" stroke-linejoin="round">
        <g id="Wiconnect-offerings-4-Data-Monetization" transform="translate(-266.000000, -883.000000)" stroke-width="2">
            <g id="Group-23" transform="translate(160.000000, 884.000000)">
                <g id="Group-19" transform="translate(4.000000, 0.000000)">
                    <g id="Seamless-access" transform="translate(103.000000, 0.000000)">
                        <path d="M60.5489318,24.4486232 C60.6379978,23.736095 60.7047973,23.0235668 60.7047973,22.2665056 C60.7047973,21.5094444 60.6379978,20.7969162 60.5489318,20.0843881 L65.2471645,16.4104146 C65.6702281,16.0764171 65.7815606,15.4752214 65.5143625,14.9853583 L61.0610614,7.28114734 C60.7938633,6.79128421 60.1926677,6.61315217 59.7028046,6.79128421 L54.1584447,9.01793477 C53.0005864,8.12727455 51.7536621,7.39247986 50.3954052,6.83581722 L49.549278,0.935193236 C49.4824785,0.400797101 49.0148819,0 48.4582192,0 L39.551617,0 C38.9949543,0 38.5273577,0.400797101 38.4605582,0.935193236 L37.614431,6.83581722 C36.2561741,7.39247986 35.0092498,8.14954105 33.8513915,9.01793477 L28.3070316,6.79128421 C27.794902,6.59088566 27.2159729,6.79128421 26.9487748,7.28114734 L22.4954737,14.9853583 C22.2060091,15.4752214 22.3396081,16.0764171 22.7626717,16.4104146 L27.4609044,20.0843881 C27.3718384,20.7969162 27.3050389,21.5317109 27.3050389,22.2665056 C27.3050389,23.0013003 27.3718384,23.736095 27.4609044,24.4486232 L22.7626717,28.1225966 C22.3396081,28.4565942 22.2282756,29.0577898 22.4954737,29.5476529 L26.9487748,37.2518639 C27.2159729,37.741727 27.8171685,37.9198591 28.3070316,37.741727 L33.8513915,35.5150765 C35.0092498,36.4057367 36.2561741,37.1405314 37.614431,37.697194 L38.4605582,43.597818 C38.5273577,44.1322141 38.9949543,44.5330112 39.551617,44.5330112 L48.4582192,44.5330112 C49.0148819,44.5330112 49.4824785,44.1322141 49.549278,43.597818 L50.3954052,37.697194 C51.7536621,37.1405314 53.0005864,36.3834702 54.1584447,35.5150765 L59.7028046,37.741727 C60.2149342,37.9421256 60.7938633,37.741727 61.0610614,37.2518639 L65.5143625,29.5476529 C65.7815606,29.0577898 65.6702281,28.4565942 65.2471645,28.1225966 L60.5489318,24.4486232 Z M44.1270114,30.3638931 C39.9411318,30.3638931 36.5360381,26.9587993 36.5360381,22.7729198 C36.5360381,18.5870403 39.9411318,15.1819465 44.1270114,15.1819465 C48.3128909,15.1819465 51.7179846,18.5870403 51.7179846,22.7729198 C51.7179846,26.9587993 48.3128909,30.3638931 44.1270114,30.3638931 Z" id="Shape" stroke="#2C334D" fill="#FFCE49"></path>
                        <g id="Group-9" transform="translate(0.000000, 29.000000)">
                            <g id="Oval-2">
                                <use stroke="#FECD46" fill="#FFFFFF" fill-rule="evenodd" xlink:href="#path-1"></use>
                                <use stroke="#2C334D" xlink:href="#path-1"></use>
                            </g>
                            <path d="M0,22 L43,22" id="Line-3" stroke="#2C334D" fill="#FECD46"></path>
                            <path d="M22,42.6206897 L22,1" id="Line-3" stroke="#2C334D" fill="#FECD46"></path>
                            <path d="M6,8 C15.2430578,12 25.9097244,12 38,8" id="Path-18" stroke="#2C334D"></path>
                            <path d="M-9,19 C2.84266776,27 16.5093344,27 32,19" id="Path-18" stroke="#2C334D" transform="translate(11.500000, 22.000000) rotate(90.000000) translate(-11.500000, -22.000000) "></path>
                            <path d="M12,19 C23.8426678,27 37.5093344,27 53,19" id="Path-18" stroke="#2C334D" transform="translate(32.500000, 22.000000) scale(-1, 1) rotate(90.000000) translate(-32.500000, -22.000000) "></path>
                            <path d="M5,33 C14.5319033,37 25.5319033,37 38,33" id="Path-18" stroke="#2C334D" transform="translate(21.500000, 34.500000) scale(1, -1) translate(-21.500000, -34.500000) "></path>
                        </g>
                    </g>
                </g>
            </g>
        </g>
    </g>
</svg>