<svg xmlns="http://www.w3.org/2000/svg" width="56" height="91" viewBox="0 0 56 91">
    <g fill="none" fill-rule="evenodd" stroke="#FECD46" stroke-linecap="round" stroke-linejoin="round" stroke-width="2">
        <path d="M34 1c6.667 7.927 10 16.555 10 25.885 0 9.329-3.333 17.7-10 25.115M22 8c4.667 5.596 7 11.686 7 18.271 0 6.586-2.333 12.495-7 17.729M11 14c3.333 3.73 5 7.79 5 12.181 0 4.39-1.667 8.33-5 11.819M1.602 81.594l6.724-9.242c1.11-2.396 4.602-3.594 10.474-3.594s11.72-.92 17.547-2.758c.857 1.965.567 3.43-.869 4.393-1.436.963-5.358 3.002-11.767 6.117l11.767-1.56 12.798-4.557c3.176-1.008 5.17-.354 5.98 1.96l-12.774 9.241c-1.983 1.663-7.209 2.495-15.679 2.495-5.195-.501-10.135 1.47-14.82 5.911l-9.381-8.406z"/>
    </g>
</svg>
