<?xml version="1.0" encoding="UTF-8"?>
<svg width="899px" height="558px" viewBox="0 0 899 558" version="1.1" xmlns="http://www.w3.org/2000/svg" xmlns:xlink="http://www.w3.org/1999/xlink">
    <!-- Generator: sketchtool 51.2 (57519) - http://www.bohemiancoding.com/sketch -->
    <title>32458153-5657-404F-9F2D-003D5EC97463</title>
    <desc>Created with sketchtool.</desc>
    <defs></defs>
    <g id="Page-1" stroke="none" stroke-width="1" fill="none" fill-rule="evenodd">
        <g id="Wiconnect-offerings-1-Wi-Fi-Access" transform="translate(-276.000000, -881.000000)">
            <g id="Group-4" transform="translate(277.000000, 883.000000)">
                <rect id="Rectangle-2" fill="#FECD46" fill-rule="nonzero" x="308" y="314" width="270" height="63" rx="11"></rect>
                <rect id="Rectangle-2" fill="#FECD46" fill-rule="nonzero" x="343" y="48" width="200" height="63" rx="11"></rect>
                <path d="M228.815,63 L222.35,63 L222.35,52.365 L228.815,52.365 L228.815,53.73 L223.82,53.73 L223.82,57 L228.35,57 L228.35,58.38 L223.82,58.38 L223.82,61.635 L228.815,61.635 L228.815,63 Z M238.43,63 L237.275,60.03 L232.565,60.03 L231.44,63 L229.865,63 L234.095,52.365 L235.79,52.365 L240.02,63 L238.43,63 Z M234.905,53.895 L233.09,58.665 L236.75,58.665 L234.905,53.895 Z M242.99,57.33 L245.12,57.33 C246.395,57.33 247.175,56.625 247.175,55.53 C247.175,54.405 246.395,53.685 245.12,53.685 L242.99,53.685 L242.99,57.33 Z M245.39,58.65 L242.99,58.65 L242.99,63 L241.52,63 L241.52,52.365 L245.39,52.365 C247.355,52.365 248.675,53.73 248.675,55.515 C248.675,57.315 247.355,58.65 245.39,58.65 Z M256.865,59.31 L252.8,59.31 L252.8,58.08 L256.865,58.08 L256.865,59.31 Z M268.67,54.78 L267.35,55.245 C267.23,54.48 266.585,53.43 265.1,53.43 C263.9,53.43 263.045,54.21 263.045,55.2 C263.045,55.965 263.51,56.55 264.41,56.745 L266,57.09 C267.77,57.48 268.76,58.59 268.76,60.075 C268.76,61.725 267.35,63.225 265.085,63.225 C262.52,63.225 261.305,61.575 261.11,60.06 L262.52,59.61 C262.625,60.795 263.465,61.89 265.07,61.89 C266.54,61.89 267.26,61.125 267.26,60.195 C267.26,59.43 266.735,58.77 265.67,58.545 L264.155,58.215 C262.64,57.885 261.56,56.895 261.56,55.305 C261.56,53.64 263.105,52.14 265.07,52.14 C267.47,52.14 268.43,53.625 268.67,54.78 Z M272.285,63 L270.785,63 L270.785,52.365 L272.285,52.365 L272.285,63 Z M286.475,63 L285.02,63 L285.02,54.72 L281.39,63 L280.04,63 L276.44,54.72 L276.44,63 L274.985,63 L274.985,52.365 L276.98,52.365 L280.73,61.02 L284.51,52.365 L286.475,52.365 L286.475,63 Z" id="EAP---SIM" fill="#2C334D"></path>
                <path d="M230.72,108 L229.25,108 L229.25,103.275 L223.82,103.275 L223.82,108 L222.35,108 L222.35,97.365 L223.82,97.365 L223.82,101.91 L229.25,101.91 L229.25,97.365 L230.72,97.365 L230.72,108 Z M240.2,99.78 L238.88,100.245 C238.76,99.48 238.115,98.43 236.63,98.43 C235.43,98.43 234.575,99.21 234.575,100.2 C234.575,100.965 235.04,101.55 235.94,101.745 L237.53,102.09 C239.3,102.48 240.29,103.59 240.29,105.075 C240.29,106.725 238.88,108.225 236.615,108.225 C234.05,108.225 232.835,106.575 232.64,105.06 L234.05,104.61 C234.155,105.795 234.995,106.89 236.6,106.89 C238.07,106.89 238.79,106.125 238.79,105.195 C238.79,104.43 238.265,103.77 237.2,103.545 L235.685,103.215 C234.17,102.885 233.09,101.895 233.09,100.305 C233.09,98.64 234.635,97.14 236.6,97.14 C239,97.14 239.96,98.625 240.2,99.78 Z M246.83,101.775 L245.36,101.595 C245.345,101.46 245.345,101.325 245.345,101.205 C245.345,99.54 246.575,98.055 248.705,98.055 C250.79,98.055 251.99,99.42 251.99,101.04 C251.99,102.315 251.27,103.335 250.16,104.04 L248.24,105.27 C247.685,105.63 247.19,106.035 247.055,106.635 L252.05,106.635 L252.05,108 L245.24,108 C245.27,106.41 245.9,105.195 247.55,104.13 L249.17,103.08 C250.085,102.495 250.505,101.805 250.505,101.055 C250.505,100.17 249.905,99.345 248.675,99.345 C247.4,99.345 246.8,100.23 246.8,101.34 C246.8,101.475 246.815,101.625 246.83,101.775 Z M253.7,107.04 C253.7,106.455 254.15,105.99 254.735,105.99 C255.32,105.99 255.785,106.455 255.785,107.04 C255.785,107.625 255.32,108.075 254.735,108.075 C254.15,108.075 253.7,107.625 253.7,107.04 Z M258.74,103.14 C258.74,104.625 259.01,105.675 259.595,106.29 C259.97,106.68 260.45,106.92 261.14,106.92 C261.83,106.92 262.31,106.68 262.685,106.29 C263.27,105.675 263.54,104.625 263.54,103.14 C263.54,101.655 263.27,100.605 262.685,99.99 C262.31,99.6 261.83,99.36 261.14,99.36 C260.45,99.36 259.97,99.6 259.595,99.99 C259.01,100.605 258.74,101.655 258.74,103.14 Z M257.285,103.14 C257.285,101.805 257.51,100.575 258.155,99.615 C258.785,98.67 259.76,98.055 261.14,98.055 C262.52,98.055 263.495,98.67 264.125,99.615 C264.77,100.575 264.995,101.805 264.995,103.14 C264.995,104.475 264.77,105.705 264.125,106.665 C263.495,107.61 262.52,108.225 261.14,108.225 C259.76,108.225 258.785,107.61 258.155,106.665 C257.51,105.705 257.285,104.475 257.285,103.14 Z" id="HS-2.0" fill="#2C334D"></path>
                <g id="Group-2" transform="translate(328.000000, 55.000000)" fill="#2C334D">
                    <path d="M93.0875,14.19 L94.8125,7.365 L97.2425,7.365 L94.3475,18 L91.9025,18 L89.6375,10.95 L87.3575,18 L84.8675,18 L81.9725,7.365 L84.4925,7.365 L86.2475,14.175 L88.4525,7.365 L90.8825,7.365 L93.0875,14.19 Z M100.6775,18 L98.3975,18 L98.3975,10.545 L100.6775,10.545 L100.6775,18 Z M98.2025,8.265 C98.2025,7.53 98.8025,6.93 99.5225,6.93 C100.2725,6.93 100.8725,7.53 100.8725,8.265 C100.8725,9 100.2725,9.6 99.5225,9.6 C98.8025,9.6 98.2025,9 98.2025,8.265 Z M106.8425,14.505 L102.3425,14.505 L102.3425,12.45 L106.8425,12.45 L106.8425,14.505 Z M111.0575,18 L108.6725,18 L108.6725,7.365 L115.5275,7.365 L115.5275,9.615 L111.0425,9.615 L111.0425,11.865 L114.9875,11.865 L114.9875,14.025 L111.0575,14.025 L111.0575,18 Z M119.3075,18 L117.0275,18 L117.0275,10.545 L119.3075,10.545 L119.3075,18 Z M116.8325,8.265 C116.8325,7.53 117.4325,6.93 118.1525,6.93 C118.9025,6.93 119.5025,7.53 119.5025,8.265 C119.5025,9 118.9025,9.6 118.1525,9.6 C117.4325,9.6 116.8325,9 116.8325,8.265 Z M132.2675,18 L131.5025,15.84 L127.3925,15.84 L126.6275,18 L124.1375,18 L128.1425,7.365 L130.8875,7.365 L134.8475,18 L132.2675,18 Z M129.4775,10.005 L128.1725,13.68 L130.7525,13.68 L129.4775,10.005 Z M138.5375,12.135 L139.9175,12.135 C140.8175,12.135 141.4325,11.61 141.4325,10.785 C141.4325,9.93 140.8175,9.42 139.9175,9.42 L138.5375,9.42 L138.5375,12.135 Z M140.1575,14.175 L138.5225,14.175 L138.5225,18 L136.1525,18 L136.1525,7.365 L140.1575,7.365 C142.3175,7.365 143.8025,8.79 143.8025,10.77 C143.8025,12.78 142.3175,14.175 140.1575,14.175 Z M82.3925,43 L81.4325,41.965 C80.6975,42.715 79.7675,43.21 78.6425,43.21 C76.5425,43.21 75.3575,41.755 75.3575,40.285 C75.3575,38.98 76.0325,38.215 77.1725,37.39 L77.0225,37.225 C76.5125,36.67 75.9125,35.905 75.9125,34.945 C75.9125,33.13 77.4425,32.125 78.9275,32.125 C80.6825,32.125 81.9725,33.25 81.9725,34.855 C81.9725,35.92 81.2525,36.745 80.4725,37.315 L80.1275,37.57 L81.5525,39.07 L84.3875,36.175 L84.3875,38.965 L82.8875,40.48 L85.2725,43 L82.3925,43 Z M78.7025,41.26 C79.2275,41.26 79.6775,41.005 80.1125,40.555 L78.4625,38.785 L78.3875,38.845 C77.8925,39.205 77.5625,39.58 77.5625,40.165 C77.5625,40.72 78.0125,41.26 78.7025,41.26 Z M78.0275,34.87 C78.0275,35.29 78.3125,35.635 78.5675,35.905 L78.8225,36.175 L79.2425,35.875 C79.6775,35.56 79.8575,35.2 79.8575,34.855 C79.8575,34.345 79.4525,33.955 78.9275,33.955 C78.4775,33.955 78.0275,34.24 78.0275,34.87 Z M99.3425,43 L97.4225,43 L97.2725,41.92 C96.8075,42.595 95.8025,43.225 94.2875,43.225 C91.3325,43.225 88.9025,41.05 88.9025,37.69 C88.9025,34.345 91.4375,32.14 94.4375,32.14 C97.4825,32.14 98.8925,33.94 99.3575,35.425 L97.0775,36.22 C96.9125,35.56 96.2075,34.36 94.4375,34.36 C92.9975,34.36 91.3025,35.32 91.3025,37.69 C91.3025,39.91 92.7725,41.065 94.4975,41.065 C96.2525,41.065 96.9875,39.925 97.1225,39.325 L93.9275,39.325 L93.9275,37.315 L99.3425,37.315 L99.3425,43 Z M100.7375,40.945 C100.7375,39.625 101.7125,38.875 102.9425,38.695 L104.6975,38.425 C105.1025,38.365 105.2375,38.17 105.2375,37.915 C105.2375,37.48 104.8625,37.105 104.1425,37.105 C103.3475,37.105 102.9125,37.645 102.8675,38.2 L100.8875,37.795 C100.9775,36.73 101.9675,35.32 104.1575,35.32 C106.5725,35.32 107.4575,36.67 107.4575,38.2 L107.4575,41.845 C107.4575,42.43 107.5325,42.925 107.5475,43 L105.4925,43 C105.4775,42.94 105.4175,42.67 105.4175,42.16 C105.0275,42.79 104.3075,43.21 103.3175,43.21 C101.6825,43.21 100.7375,42.13 100.7375,40.945 Z M103.8725,41.56 C104.5475,41.56 105.2375,41.23 105.2375,40.075 L105.2375,39.745 L103.8275,39.97 C103.3475,40.045 102.9875,40.27 102.9875,40.795 C102.9875,41.185 103.2425,41.56 103.8725,41.56 Z M112.0325,33.37 L112.0325,35.545 L113.4875,35.545 L113.4875,37.54 L112.0325,37.54 L112.0325,40.33 C112.0325,40.945 112.3625,41.11 112.8575,41.11 C113.0975,41.11 113.3225,41.065 113.4575,41.035 L113.4575,42.925 C113.3675,42.97 112.9925,43.135 112.2725,43.135 C110.7275,43.135 109.7825,42.22 109.7825,40.735 L109.7825,37.54 L108.4625,37.54 L108.4625,35.545 L108.8375,35.545 C109.6175,35.545 109.9925,35.02 109.9925,34.33 L109.9925,33.37 L112.0325,33.37 Z M116.7425,38.38 L119.7275,38.38 C119.6975,37.81 119.3075,37.12 118.2275,37.12 C117.2675,37.12 116.7875,37.825 116.7425,38.38 Z M119.8925,40.315 L121.7975,40.855 C121.4375,42.145 120.2525,43.225 118.3625,43.225 C116.3075,43.225 114.4775,41.755 114.4775,39.25 C114.4775,36.85 116.2625,35.32 118.1975,35.32 C120.5075,35.32 121.9325,36.745 121.9325,39.145 C121.9325,39.46 121.9025,39.805 121.8875,39.85 L116.6975,39.85 C116.7425,40.69 117.5075,41.29 118.3925,41.29 C119.2175,41.29 119.6825,40.9 119.8925,40.315 Z M127.4975,35.545 L129.9125,35.545 L131.3675,39.97 L132.6125,35.545 L134.8475,35.545 L132.5375,43 L130.2725,43 L128.6525,38.185 L127.0625,43 L124.7525,43 L122.4125,35.545 L124.7825,35.545 L126.0275,39.955 L127.4975,35.545 Z M135.5525,40.945 C135.5525,39.625 136.5275,38.875 137.7575,38.695 L139.5125,38.425 C139.9175,38.365 140.0525,38.17 140.0525,37.915 C140.0525,37.48 139.6775,37.105 138.9575,37.105 C138.1625,37.105 137.7275,37.645 137.6825,38.2 L135.7025,37.795 C135.7925,36.73 136.7825,35.32 138.9725,35.32 C141.3875,35.32 142.2725,36.67 142.2725,38.2 L142.2725,41.845 C142.2725,42.43 142.3475,42.925 142.3625,43 L140.3075,43 C140.2925,42.94 140.2325,42.67 140.2325,42.16 C139.8425,42.79 139.1225,43.21 138.1325,43.21 C136.4975,43.21 135.5525,42.13 135.5525,40.945 Z M138.6875,41.56 C139.3625,41.56 140.0525,41.23 140.0525,40.075 L140.0525,39.745 L138.6425,39.97 C138.1625,40.045 137.8025,40.27 137.8025,40.795 C137.8025,41.185 138.0575,41.56 138.6875,41.56 Z M146.8925,45.865 L144.4925,45.865 L146.1875,41.995 L143.0525,35.545 L145.6025,35.545 L147.4175,39.535 L149.0675,35.545 L151.4825,35.545 L146.8925,45.865 Z" id="Wi-Fi-AP-&amp;-Gateway"></path>
                    <path d="M28.1025,280.19 L29.8275,273.365 L32.2575,273.365 L29.3625,284 L26.9175,284 L24.6525,276.95 L22.3725,284 L19.8825,284 L16.9875,273.365 L19.5075,273.365 L21.2625,280.175 L23.4675,273.365 L25.8975,273.365 L28.1025,280.19 Z M35.6925,284 L33.4125,284 L33.4125,276.545 L35.6925,276.545 L35.6925,284 Z M33.2175,274.265 C33.2175,273.53 33.8175,272.93 34.5375,272.93 C35.2875,272.93 35.8875,273.53 35.8875,274.265 C35.8875,275 35.2875,275.6 34.5375,275.6 C33.8175,275.6 33.2175,275 33.2175,274.265 Z M41.8575,280.505 L37.3575,280.505 L37.3575,278.45 L41.8575,278.45 L41.8575,280.505 Z M46.0725,284 L43.6875,284 L43.6875,273.365 L50.5425,273.365 L50.5425,275.615 L46.0575,275.615 L46.0575,277.865 L50.0025,277.865 L50.0025,280.025 L46.0725,280.025 L46.0725,284 Z M54.3225,284 L52.0425,284 L52.0425,276.545 L54.3225,276.545 L54.3225,284 Z M51.8475,274.265 C51.8475,273.53 52.4475,272.93 53.1675,272.93 C53.9175,272.93 54.5175,273.53 54.5175,274.265 C54.5175,275 53.9175,275.6 53.1675,275.6 C52.4475,275.6 51.8475,275 51.8475,274.265 Z M67.4775,275.975 L65.3475,276.575 C65.2725,276.08 64.8675,275.24 63.5775,275.24 C62.6925,275.24 62.1225,275.795 62.1225,276.38 C62.1225,276.89 62.4375,277.265 63.1725,277.4 L64.5975,277.67 C66.6225,278.045 67.6725,279.35 67.6725,280.865 C67.6725,282.53 66.2775,284.225 63.7425,284.225 C60.8025,284.225 59.5425,282.32 59.3925,280.82 L61.5675,280.295 C61.6575,281.27 62.3175,282.125 63.7725,282.125 C64.7025,282.125 65.2725,281.675 65.2725,281.015 C65.2725,280.475 64.8375,280.085 64.1325,279.95 L62.6775,279.68 C60.8775,279.335 59.7825,278.135 59.7825,276.56 C59.7825,274.55 61.5525,273.14 63.5925,273.14 C66.2475,273.14 67.2525,274.73 67.4775,275.975 Z M70.8525,279.38 L73.8375,279.38 C73.8075,278.81 73.4175,278.12 72.3375,278.12 C71.3775,278.12 70.8975,278.825 70.8525,279.38 Z M74.0025,281.315 L75.9075,281.855 C75.5475,283.145 74.3625,284.225 72.4725,284.225 C70.4175,284.225 68.5875,282.755 68.5875,280.25 C68.5875,277.85 70.3725,276.32 72.3075,276.32 C74.6175,276.32 76.0425,277.745 76.0425,280.145 C76.0425,280.46 76.0125,280.805 75.9975,280.85 L70.8075,280.85 C70.8525,281.69 71.6175,282.29 72.5025,282.29 C73.3275,282.29 73.7925,281.9 74.0025,281.315 Z M82.2525,276.545 L82.2525,278.795 C81.9975,278.735 81.7575,278.72 81.5325,278.72 C80.6175,278.72 79.7925,279.26 79.7925,280.745 L79.7925,284 L77.5125,284 L77.5125,276.545 L79.7175,276.545 L79.7175,277.55 C80.1075,276.71 81.0525,276.47 81.6525,276.47 C81.8775,276.47 82.1025,276.5 82.2525,276.545 Z M91.1925,276.545 L88.3575,284 L86.0625,284 L83.0025,276.545 L85.4775,276.545 L87.2025,281.18 L88.7925,276.545 L91.1925,276.545 Z M94.6275,284 L92.3475,284 L92.3475,276.545 L94.6275,276.545 L94.6275,284 Z M92.1525,274.265 C92.1525,273.53 92.7525,272.93 93.4725,272.93 C94.2225,272.93 94.8225,273.53 94.8225,274.265 C94.8225,275 94.2225,275.6 93.4725,275.6 C92.7525,275.6 92.1525,275 92.1525,274.265 Z M100.0575,278.42 C99.1125,278.42 98.3475,279.08 98.3475,280.28 C98.3475,281.465 99.1425,282.125 100.0875,282.125 C100.9725,282.125 101.4675,281.57 101.6325,281.015 L103.6425,281.63 C103.3125,282.935 102.0825,284.225 100.0875,284.225 C97.8675,284.225 96.0825,282.59 96.0825,280.28 C96.0825,277.955 97.8225,276.32 100.0125,276.32 C102.0675,276.32 103.2675,277.58 103.5975,278.915 L101.5575,279.53 C101.3925,278.96 100.9425,278.42 100.0575,278.42 Z M106.6875,279.38 L109.6725,279.38 C109.6425,278.81 109.2525,278.12 108.1725,278.12 C107.2125,278.12 106.7325,278.825 106.6875,279.38 Z M109.8375,281.315 L111.7425,281.855 C111.3825,283.145 110.1975,284.225 108.3075,284.225 C106.2525,284.225 104.4225,282.755 104.4225,280.25 C104.4225,277.85 106.2075,276.32 108.1425,276.32 C110.4525,276.32 111.8775,277.745 111.8775,280.145 C111.8775,280.46 111.8475,280.805 111.8325,280.85 L106.6425,280.85 C106.6875,281.69 107.4525,282.29 108.3375,282.29 C109.1625,282.29 109.6275,281.9 109.8375,281.315 Z M129.2325,284 L126.9075,284 L126.9075,276.95 L124.1325,284 L122.2125,284 L119.4375,277.04 L119.4375,284 L117.1875,284 L117.1875,273.365 L120.2775,273.365 L123.2025,280.55 L125.9775,273.365 L129.2325,273.365 L129.2325,284 Z M130.9275,281.945 C130.9275,280.625 131.9025,279.875 133.1325,279.695 L134.8875,279.425 C135.2925,279.365 135.4275,279.17 135.4275,278.915 C135.4275,278.48 135.0525,278.105 134.3325,278.105 C133.5375,278.105 133.1025,278.645 133.0575,279.2 L131.0775,278.795 C131.1675,277.73 132.1575,276.32 134.3475,276.32 C136.7625,276.32 137.6475,277.67 137.6475,279.2 L137.6475,282.845 C137.6475,283.43 137.7225,283.925 137.7375,284 L135.6825,284 C135.6675,283.94 135.6075,283.67 135.6075,283.16 C135.2175,283.79 134.4975,284.21 133.5075,284.21 C131.8725,284.21 130.9275,283.13 130.9275,281.945 Z M134.0625,282.56 C134.7375,282.56 135.4275,282.23 135.4275,281.075 L135.4275,280.745 L134.0175,280.97 C133.5375,281.045 133.1775,281.27 133.1775,281.795 C133.1775,282.185 133.4325,282.56 134.0625,282.56 Z M141.8475,279.725 L141.8475,284 L139.5675,284 L139.5675,276.545 L141.7725,276.545 L141.7725,277.4 C142.1775,276.695 143.0925,276.35 143.8575,276.35 C145.7325,276.35 146.5725,277.685 146.5725,279.32 L146.5725,284 L144.2925,284 L144.2925,279.71 C144.2925,278.975 143.9025,278.42 143.0775,278.42 C142.3275,278.42 141.8475,278.975 141.8475,279.725 Z M148.0425,281.945 C148.0425,280.625 149.0175,279.875 150.2475,279.695 L152.0025,279.425 C152.4075,279.365 152.5425,279.17 152.5425,278.915 C152.5425,278.48 152.1675,278.105 151.4475,278.105 C150.6525,278.105 150.2175,278.645 150.1725,279.2 L148.1925,278.795 C148.2825,277.73 149.2725,276.32 151.4625,276.32 C153.8775,276.32 154.7625,277.67 154.7625,279.2 L154.7625,282.845 C154.7625,283.43 154.8375,283.925 154.8525,284 L152.7975,284 C152.7825,283.94 152.7225,283.67 152.7225,283.16 C152.3325,283.79 151.6125,284.21 150.6225,284.21 C148.9875,284.21 148.0425,283.13 148.0425,281.945 Z M151.1775,282.56 C151.8525,282.56 152.5425,282.23 152.5425,281.075 L152.5425,280.745 L151.1325,280.97 C150.6525,281.045 150.2925,281.27 150.2925,281.795 C150.2925,282.185 150.5475,282.56 151.1775,282.56 Z M156.1125,284.42 L158.1225,283.85 C158.2725,284.57 158.8725,285.095 159.7275,285.095 C160.8675,285.095 161.5725,284.54 161.5725,283.19 L161.5725,282.845 C161.3025,283.25 160.6575,283.685 159.5775,283.685 C157.5975,283.685 156.1125,282.125 156.1125,280.055 C156.1125,278.09 157.5375,276.41 159.5775,276.41 C160.7925,276.41 161.4375,276.95 161.6475,277.34 L161.6475,276.545 L163.8225,276.545 L163.8225,283.07 C163.8225,285.215 162.6225,287.075 159.8325,287.075 C157.6875,287.075 156.3225,285.755 156.1125,284.42 Z M159.9975,281.705 C160.9275,281.705 161.5875,281.075 161.5875,280.055 C161.5875,279.035 160.8525,278.405 159.9975,278.405 C159.1425,278.405 158.3925,279.035 158.3925,280.055 C158.3925,281.075 159.0825,281.705 159.9975,281.705 Z M167.4675,279.38 L170.4525,279.38 C170.4225,278.81 170.0325,278.12 168.9525,278.12 C167.9925,278.12 167.5125,278.825 167.4675,279.38 Z M170.6175,281.315 L172.5225,281.855 C172.1625,283.145 170.9775,284.225 169.0875,284.225 C167.0325,284.225 165.2025,282.755 165.2025,280.25 C165.2025,277.85 166.9875,276.32 168.9225,276.32 C171.2325,276.32 172.6575,277.745 172.6575,280.145 C172.6575,280.46 172.6275,280.805 172.6125,280.85 L167.4225,280.85 C167.4675,281.69 168.2325,282.29 169.1175,282.29 C169.9425,282.29 170.4075,281.9 170.6175,281.315 Z M176.4075,284 L174.1275,284 L174.1275,276.545 L176.3025,276.545 L176.3025,277.4 C176.6775,276.74 177.6375,276.32 178.4475,276.32 C179.5125,276.32 180.2775,276.755 180.6525,277.49 C181.2375,276.65 181.9575,276.32 182.9625,276.32 C184.3725,276.32 185.7225,277.145 185.7225,279.17 L185.7225,284 L183.5175,284 L183.5175,279.68 C183.5175,278.975 183.1425,278.42 182.3325,278.42 C181.5225,278.42 181.0875,279.035 181.0875,279.695 L181.0875,284 L178.8375,284 L178.8375,279.68 C178.8375,278.975 178.4625,278.42 177.6375,278.42 C176.8425,278.42 176.4075,279.035 176.4075,279.71 L176.4075,284 Z M189.3675,279.38 L192.3525,279.38 C192.3225,278.81 191.9325,278.12 190.8525,278.12 C189.8925,278.12 189.4125,278.825 189.3675,279.38 Z M192.5175,281.315 L194.4225,281.855 C194.0625,283.145 192.8775,284.225 190.9875,284.225 C188.9325,284.225 187.1025,282.755 187.1025,280.25 C187.1025,277.85 188.8875,276.32 190.8225,276.32 C193.1325,276.32 194.5575,277.745 194.5575,280.145 C194.5575,280.46 194.5275,280.805 194.5125,280.85 L189.3225,280.85 C189.3675,281.69 190.1325,282.29 191.0175,282.29 C191.8425,282.29 192.3075,281.9 192.5175,281.315 Z M198.3075,279.725 L198.3075,284 L196.0275,284 L196.0275,276.545 L198.2325,276.545 L198.2325,277.4 C198.6375,276.695 199.5525,276.35 200.3175,276.35 C202.1925,276.35 203.0325,277.685 203.0325,279.32 L203.0325,284 L200.7525,284 L200.7525,279.71 C200.7525,278.975 200.3625,278.42 199.5375,278.42 C198.7875,278.42 198.3075,278.975 198.3075,279.725 Z M207.6825,274.37 L207.6825,276.545 L209.1375,276.545 L209.1375,278.54 L207.6825,278.54 L207.6825,281.33 C207.6825,281.945 208.0125,282.11 208.5075,282.11 C208.7475,282.11 208.9725,282.065 209.1075,282.035 L209.1075,283.925 C209.0175,283.97 208.6425,284.135 207.9225,284.135 C206.3775,284.135 205.4325,283.22 205.4325,281.735 L205.4325,278.54 L204.1125,278.54 L204.1125,276.545 L204.4875,276.545 C205.2675,276.545 205.6425,276.02 205.6425,275.33 L205.6425,274.37 L207.6825,274.37 Z M86.295,303.135 L87.675,303.135 C88.575,303.135 89.19,302.61 89.19,301.785 C89.19,300.93 88.575,300.42 87.675,300.42 L86.295,300.42 L86.295,303.135 Z M87.915,305.175 L86.28,305.175 L86.28,309 L83.91,309 L83.91,298.365 L87.915,298.365 C90.075,298.365 91.56,299.79 91.56,301.77 C91.56,303.78 90.075,305.175 87.915,305.175 Z M95.145,309 L92.865,309 L92.865,298.14 L95.145,298.14 L95.145,309 Z M96.63,306.945 C96.63,305.625 97.605,304.875 98.835,304.695 L100.59,304.425 C100.995,304.365 101.13,304.17 101.13,303.915 C101.13,303.48 100.755,303.105 100.035,303.105 C99.24,303.105 98.805,303.645 98.76,304.2 L96.78,303.795 C96.87,302.73 97.86,301.32 100.05,301.32 C102.465,301.32 103.35,302.67 103.35,304.2 L103.35,307.845 C103.35,308.43 103.425,308.925 103.44,309 L101.385,309 C101.37,308.94 101.31,308.67 101.31,308.16 C100.92,308.79 100.2,309.21 99.21,309.21 C97.575,309.21 96.63,308.13 96.63,306.945 Z M99.765,307.56 C100.44,307.56 101.13,307.23 101.13,306.075 L101.13,305.745 L99.72,305.97 C99.24,306.045 98.88,306.27 98.88,306.795 C98.88,307.185 99.135,307.56 99.765,307.56 Z M107.925,299.37 L107.925,301.545 L109.38,301.545 L109.38,303.54 L107.925,303.54 L107.925,306.33 C107.925,306.945 108.255,307.11 108.75,307.11 C108.99,307.11 109.215,307.065 109.35,307.035 L109.35,308.925 C109.26,308.97 108.885,309.135 108.165,309.135 C106.62,309.135 105.675,308.22 105.675,306.735 L105.675,303.54 L104.355,303.54 L104.355,301.545 L104.73,301.545 C105.51,301.545 105.885,301.02 105.885,300.33 L105.885,299.37 L107.925,299.37 Z M115.17,303.465 L113.55,303.465 L113.55,309 L111.27,309 L111.27,303.465 L110.085,303.465 L110.085,301.545 L111.27,301.545 L111.27,300.9 C111.27,299.19 112.305,298.02 114.12,298.02 C114.585,298.02 114.99,298.08 115.2,298.185 L115.2,300.045 C115.08,300.015 114.885,299.97 114.525,299.97 C114.12,299.97 113.55,300.15 113.55,300.975 L113.55,301.545 L115.17,301.545 L115.17,303.465 Z M119.685,307.125 C120.555,307.125 121.365,306.525 121.365,305.265 C121.365,304.005 120.555,303.42 119.685,303.42 C118.83,303.42 118.005,304.005 118.005,305.265 C118.005,306.51 118.83,307.125 119.685,307.125 Z M119.685,301.32 C121.92,301.32 123.645,302.955 123.645,305.265 C123.645,307.575 121.92,309.225 119.685,309.225 C117.465,309.225 115.725,307.575 115.725,305.265 C115.725,302.955 117.465,301.32 119.685,301.32 Z M129.855,301.545 L129.855,303.795 C129.6,303.735 129.36,303.72 129.135,303.72 C128.22,303.72 127.395,304.26 127.395,305.745 L127.395,309 L125.115,309 L125.115,301.545 L127.32,301.545 L127.32,302.55 C127.71,301.71 128.655,301.47 129.255,301.47 C129.48,301.47 129.705,301.5 129.855,301.545 Z M133.515,309 L131.235,309 L131.235,301.545 L133.41,301.545 L133.41,302.4 C133.785,301.74 134.745,301.32 135.555,301.32 C136.62,301.32 137.385,301.755 137.76,302.49 C138.345,301.65 139.065,301.32 140.07,301.32 C141.48,301.32 142.83,302.145 142.83,304.17 L142.83,309 L140.625,309 L140.625,304.68 C140.625,303.975 140.25,303.42 139.44,303.42 C138.63,303.42 138.195,304.035 138.195,304.695 L138.195,309 L135.945,309 L135.945,304.68 C135.945,303.975 135.57,303.42 134.745,303.42 C133.95,303.42 133.515,304.035 133.515,304.71 L133.515,309 Z" id="Wi-Fi-Service-Manage"></path>
                </g>
                <path d="M345.855,224 L343.425,219.65 L341.835,219.65 L341.835,224 L340.35,224 L340.35,213.365 L344.355,213.365 C346.365,213.365 347.61,214.775 347.61,216.53 C347.61,218.06 346.635,219.245 345.03,219.545 L347.565,224 L345.855,224 Z M341.835,218.33 L344.085,218.33 C345.285,218.33 346.095,217.625 346.095,216.53 C346.095,215.405 345.285,214.685 344.085,214.685 L341.835,214.685 L341.835,218.33 Z M348.96,222.065 C348.96,220.775 349.905,220.055 351.15,219.875 L353.1,219.59 C353.535,219.53 353.655,219.305 353.655,219.05 C353.655,218.345 353.19,217.76 352.095,217.76 C351.105,217.76 350.55,218.375 350.46,219.215 L349.11,218.9 C349.26,217.52 350.505,216.56 352.065,216.56 C354.225,216.56 355.065,217.79 355.065,219.2 L355.065,222.815 C355.065,223.445 355.125,223.82 355.155,224 L353.775,224 C353.745,223.82 353.7,223.55 353.7,223.025 C353.385,223.535 352.665,224.225 351.375,224.225 C349.905,224.225 348.96,223.205 348.96,222.065 Z M351.57,223.04 C352.725,223.04 353.655,222.485 353.655,220.91 L353.655,220.58 L351.45,220.91 C350.85,221 350.4,221.345 350.4,221.99 C350.4,222.53 350.85,223.04 351.57,223.04 Z M358.095,220.37 C358.095,221.855 358.86,222.95 360.21,222.95 C361.5,222.95 362.295,221.825 362.295,220.34 C362.295,218.855 361.515,217.835 360.225,217.835 C358.935,217.835 358.095,218.885 358.095,220.37 Z M362.31,223.025 L362.31,222.905 C361.965,223.595 361.2,224.195 360.075,224.195 C357.96,224.195 356.655,222.515 356.655,220.37 C356.655,218.33 358.035,216.59 360.075,216.59 C361.35,216.59 362.04,217.22 362.28,217.805 L362.28,213.14 L363.675,213.14 L363.675,222.665 C363.675,223.355 363.735,223.88 363.75,224 L362.385,224 C362.355,223.835 362.31,223.46 362.31,223.025 Z M367.47,224 L366.075,224 L366.075,216.785 L367.47,216.785 L367.47,224 Z M365.76,214.055 C365.76,213.485 366.21,213.035 366.765,213.035 C367.335,213.035 367.785,213.485 367.785,214.055 C367.785,214.61 367.335,215.06 366.765,215.06 C366.21,215.06 365.76,214.61 365.76,214.055 Z M374.625,223.13 C374.235,223.88 373.335,224.225 372.495,224.225 C370.815,224.225 369.795,222.965 369.795,221.33 L369.795,216.785 L371.205,216.785 L371.205,221.12 C371.205,222.11 371.655,222.98 372.84,222.98 C373.98,222.98 374.55,222.23 374.55,221.135 L374.55,216.785 L375.96,216.785 L375.96,222.665 C375.96,223.235 376.005,223.745 376.035,224 L374.685,224 C374.655,223.835 374.625,223.43 374.625,223.13 Z M377.685,222.125 L378.96,221.675 C379.05,222.425 379.62,223.025 380.64,223.025 C381.435,223.025 381.87,222.575 381.87,222.065 C381.87,221.615 381.54,221.27 380.94,221.135 L379.71,220.865 C378.585,220.625 377.91,219.86 377.91,218.84 C377.91,217.61 379.065,216.56 380.475,216.56 C382.455,216.56 383.07,217.85 383.22,218.495 L381.975,218.96 C381.915,218.585 381.615,217.76 380.475,217.76 C379.755,217.76 379.275,218.225 379.275,218.72 C379.275,219.155 379.545,219.47 380.1,219.59 L381.27,219.845 C382.575,220.13 383.265,220.925 383.265,221.99 C383.265,223.01 382.41,224.225 380.625,224.225 C378.645,224.225 377.805,222.95 377.685,222.125 Z" id="Radius" fill="#2C334D"></path>
                <path d="M442.25,292.5 L442.25,134.5" id="Line" stroke="#2C334D" stroke-linecap="square" fill-rule="nonzero"></path>
                <path d="M442.25,503.5 L442.25,456.5" id="Line" stroke="#2C334D" stroke-linecap="square" fill-rule="nonzero"></path>
                <path d="M266.208333,503.5 L266.208333,456.5" id="Line" stroke="#2C334D" stroke-linecap="square" fill-rule="nonzero"></path>
                <path d="M611.208333,503.5 L611.208333,456.5" id="Line" stroke="#2C334D" stroke-linecap="square" fill-rule="nonzero"></path>
                <path d="M210.855,552 L208.425,547.65 L206.835,547.65 L206.835,552 L205.35,552 L205.35,541.365 L209.355,541.365 C211.365,541.365 212.61,542.775 212.61,544.53 C212.61,546.06 211.635,547.245 210.03,547.545 L212.565,552 L210.855,552 Z M206.835,546.33 L209.085,546.33 C210.285,546.33 211.095,545.625 211.095,544.53 C211.095,543.405 210.285,542.685 209.085,542.685 L206.835,542.685 L206.835,546.33 Z M217.275,550.965 C218.475,550.965 219.525,550.065 219.525,548.385 C219.525,546.72 218.475,545.82 217.275,545.82 C216.075,545.82 215.025,546.72 215.025,548.385 C215.025,550.065 216.075,550.965 217.275,550.965 Z M217.275,544.56 C219.435,544.56 220.965,546.195 220.965,548.385 C220.965,550.59 219.435,552.225 217.275,552.225 C215.115,552.225 213.585,550.59 213.585,548.385 C213.585,546.195 215.115,544.56 217.275,544.56 Z M222.315,550.065 C222.315,548.775 223.26,548.055 224.505,547.875 L226.455,547.59 C226.89,547.53 227.01,547.305 227.01,547.05 C227.01,546.345 226.545,545.76 225.45,545.76 C224.46,545.76 223.905,546.375 223.815,547.215 L222.465,546.9 C222.615,545.52 223.86,544.56 225.42,544.56 C227.58,544.56 228.42,545.79 228.42,547.2 L228.42,550.815 C228.42,551.445 228.48,551.82 228.51,552 L227.13,552 C227.1,551.82 227.055,551.55 227.055,551.025 C226.74,551.535 226.02,552.225 224.73,552.225 C223.26,552.225 222.315,551.205 222.315,550.065 Z M224.925,551.04 C226.08,551.04 227.01,550.485 227.01,548.91 L227.01,548.58 L224.805,548.91 C224.205,549 223.755,549.345 223.755,549.99 C223.755,550.53 224.205,551.04 224.925,551.04 Z M232.005,552 L230.61,552 L230.61,544.785 L231.96,544.785 L231.96,545.745 C232.41,544.95 233.31,544.575 234.15,544.575 C235.05,544.575 235.92,545.01 236.31,545.94 C236.88,544.905 237.81,544.575 238.725,544.575 C239.985,544.575 241.215,545.43 241.215,547.32 L241.215,552 L239.82,552 L239.82,547.47 C239.82,546.525 239.355,545.82 238.29,545.82 C237.3,545.82 236.625,546.6 236.625,547.635 L236.625,552 L235.215,552 L235.215,547.47 C235.215,546.54 234.765,545.82 233.685,545.82 C232.68,545.82 232.005,546.57 232.005,547.65 L232.005,552 Z M244.86,552 L243.465,552 L243.465,544.785 L244.86,544.785 L244.86,552 Z M243.15,542.055 C243.15,541.485 243.6,541.035 244.155,541.035 C244.725,541.035 245.175,541.485 245.175,542.055 C245.175,542.61 244.725,543.06 244.155,543.06 C243.6,543.06 243.15,542.61 243.15,542.055 Z M248.67,547.83 L248.67,552 L247.26,552 L247.26,544.785 L248.64,544.785 L248.64,545.82 C249.165,544.92 250.02,544.575 250.86,544.575 C252.585,544.575 253.44,545.82 253.44,547.425 L253.44,552 L252.03,552 L252.03,547.665 C252.03,546.66 251.61,545.85 250.35,545.85 C249.24,545.85 248.67,546.735 248.67,547.83 Z M255.165,552.39 L256.53,552.075 C256.635,553.08 257.4,553.845 258.495,553.845 C260.01,553.845 260.7,553.065 260.7,551.505 L260.7,550.47 C260.355,551.13 259.575,551.655 258.495,551.655 C256.575,551.655 255.18,550.2 255.18,548.16 C255.18,546.21 256.515,544.65 258.495,544.65 C259.605,544.65 260.355,545.07 260.715,545.79 L260.715,544.785 L262.11,544.785 L262.11,551.46 C262.11,553.29 261.21,555.075 258.495,555.075 C256.695,555.075 255.345,553.935 255.165,552.39 Z M258.705,550.47 C259.92,550.47 260.76,549.555 260.76,548.16 C260.76,546.765 259.92,545.85 258.705,545.85 C257.46,545.85 256.62,546.765 256.62,548.16 C256.62,549.57 257.43,550.47 258.705,550.47 Z M277.47,552 L276.285,552 L276.15,550.5 C275.685,551.34 274.53,552.225 272.745,552.225 C270.075,552.225 267.585,550.275 267.585,546.675 C267.585,543.075 270.225,541.14 272.85,541.14 C275.16,541.14 276.945,542.43 277.56,544.35 L276.225,544.92 C275.745,543.39 274.5,542.49 272.85,542.49 C270.945,542.49 269.085,543.855 269.085,546.675 C269.085,549.495 270.885,550.89 272.79,550.89 C275.16,550.89 276.015,549.21 276.075,548.115 L272.385,548.115 L272.385,546.795 L277.47,546.795 L277.47,552 Z M280.5,547.65 L284.445,547.65 C284.415,546.615 283.74,545.805 282.465,545.805 C281.28,545.805 280.56,546.72 280.5,547.65 Z M284.655,549.525 L285.87,549.945 C285.465,551.22 284.31,552.225 282.63,552.225 C280.695,552.225 279,550.815 279,548.37 C279,546.105 280.635,544.56 282.45,544.56 C284.67,544.56 285.915,546.09 285.915,548.34 C285.915,548.52 285.9,548.7 285.885,548.79 L280.455,548.79 C280.485,550.08 281.415,550.98 282.63,550.98 C283.8,550.98 284.385,550.335 284.655,549.525 Z M289.605,542.505 L289.605,544.785 L291.165,544.785 L291.165,546.06 L289.605,546.06 L289.605,549.81 C289.605,550.47 289.875,550.8 290.61,550.8 C290.79,550.8 291.045,550.77 291.165,550.74 L291.165,551.94 C291.045,551.985 290.685,552.075 290.205,552.075 C288.975,552.075 288.195,551.325 288.195,550.02 L288.195,546.06 L286.815,546.06 L286.815,544.785 L287.205,544.785 C287.985,544.785 288.315,544.305 288.315,543.675 L288.315,542.505 L289.605,542.505 Z M293.88,547.65 L297.825,547.65 C297.795,546.615 297.12,545.805 295.845,545.805 C294.66,545.805 293.94,546.72 293.88,547.65 Z M298.035,549.525 L299.25,549.945 C298.845,551.22 297.69,552.225 296.01,552.225 C294.075,552.225 292.38,550.815 292.38,548.37 C292.38,546.105 294.015,544.56 295.83,544.56 C298.05,544.56 299.295,546.09 299.295,548.34 C299.295,548.52 299.28,548.7 299.265,548.79 L293.835,548.79 C293.865,550.08 294.795,550.98 296.01,550.98 C297.18,550.98 297.765,550.335 298.035,549.525 Z M305.085,544.785 L306.54,544.785 L308.415,550.215 L310.005,544.785 L311.49,544.785 L309.15,552 L307.695,552 L305.775,546.51 L303.9,552 L302.415,552 L300.045,544.785 L301.59,544.785 L303.21,550.215 L305.085,544.785 Z M312.39,550.065 C312.39,548.775 313.335,548.055 314.58,547.875 L316.53,547.59 C316.965,547.53 317.085,547.305 317.085,547.05 C317.085,546.345 316.62,545.76 315.525,545.76 C314.535,545.76 313.98,546.375 313.89,547.215 L312.54,546.9 C312.69,545.52 313.935,544.56 315.495,544.56 C317.655,544.56 318.495,545.79 318.495,547.2 L318.495,550.815 C318.495,551.445 318.555,551.82 318.585,552 L317.205,552 C317.175,551.82 317.13,551.55 317.13,551.025 C316.815,551.535 316.095,552.225 314.805,552.225 C313.335,552.225 312.39,551.205 312.39,550.065 Z M315,551.04 C316.155,551.04 317.085,550.485 317.085,548.91 L317.085,548.58 L314.88,548.91 C314.28,549 313.83,549.345 313.83,549.99 C313.83,550.53 314.28,551.04 315,551.04 Z M322.335,555.015 L320.79,555.015 L322.59,551.205 L319.485,544.785 L321.105,544.785 L323.355,549.765 L325.515,544.785 L327.03,544.785 L322.335,555.015 Z" id="Roaming-Geteway" fill="#2C334D"></path>
                <path d="M393.955,550.225 C391.21,550.225 388.675,548.23 388.675,544.675 C388.675,541.12 391.315,539.14 393.955,539.14 C396.385,539.14 398.095,540.46 398.635,542.515 L397.27,542.995 C396.865,541.39 395.695,540.49 393.955,540.49 C392.02,540.49 390.175,541.9 390.175,544.675 C390.175,547.45 392.02,548.875 393.955,548.875 C395.77,548.875 396.91,547.78 397.345,546.325 L398.65,546.805 C398.08,548.8 396.4,550.225 393.955,550.225 Z M401.065,545.65 L405.01,545.65 C404.98,544.615 404.305,543.805 403.03,543.805 C401.845,543.805 401.125,544.72 401.065,545.65 Z M405.22,547.525 L406.435,547.945 C406.03,549.22 404.875,550.225 403.195,550.225 C401.26,550.225 399.565,548.815 399.565,546.37 C399.565,544.105 401.2,542.56 403.015,542.56 C405.235,542.56 406.48,544.09 406.48,546.34 C406.48,546.52 406.465,546.7 406.45,546.79 L401.02,546.79 C401.05,548.08 401.98,548.98 403.195,548.98 C404.365,548.98 404.95,548.335 405.22,547.525 Z M409.69,550 L408.28,550 L408.28,539.14 L409.69,539.14 L409.69,550 Z M413.5,550 L412.09,550 L412.09,539.14 L413.5,539.14 L413.5,550 Z M420.58,549.13 C420.19,549.88 419.29,550.225 418.45,550.225 C416.77,550.225 415.75,548.965 415.75,547.33 L415.75,542.785 L417.16,542.785 L417.16,547.12 C417.16,548.11 417.61,548.98 418.795,548.98 C419.935,548.98 420.505,548.23 420.505,547.135 L420.505,542.785 L421.915,542.785 L421.915,548.665 C421.915,549.235 421.96,549.745 421.99,550 L420.64,550 C420.61,549.835 420.58,549.43 420.58,549.13 Z M423.865,548.065 C423.865,546.775 424.81,546.055 426.055,545.875 L428.005,545.59 C428.44,545.53 428.56,545.305 428.56,545.05 C428.56,544.345 428.095,543.76 427,543.76 C426.01,543.76 425.455,544.375 425.365,545.215 L424.015,544.9 C424.165,543.52 425.41,542.56 426.97,542.56 C429.13,542.56 429.97,543.79 429.97,545.2 L429.97,548.815 C429.97,549.445 430.03,549.82 430.06,550 L428.68,550 C428.65,549.82 428.605,549.55 428.605,549.025 C428.29,549.535 427.57,550.225 426.28,550.225 C424.81,550.225 423.865,549.205 423.865,548.065 Z M426.475,549.04 C427.63,549.04 428.56,548.485 428.56,546.91 L428.56,546.58 L426.355,546.91 C425.755,547 425.305,547.345 425.305,547.99 C425.305,548.53 425.755,549.04 426.475,549.04 Z M436.165,542.71 L436.165,544.21 C435.955,544.18 435.745,544.165 435.55,544.165 C434.365,544.165 433.57,544.795 433.57,546.385 L433.57,550 L432.16,550 L432.16,542.785 L433.54,542.785 L433.54,544.045 C434.065,542.935 434.965,542.665 435.7,542.665 C435.895,542.665 436.09,542.695 436.165,542.71 Z M446.17,550.225 C443.425,550.225 440.89,548.23 440.89,544.675 C440.89,541.12 443.53,539.14 446.17,539.14 C448.6,539.14 450.31,540.46 450.85,542.515 L449.485,542.995 C449.08,541.39 447.91,540.49 446.17,540.49 C444.235,540.49 442.39,541.9 442.39,544.675 C442.39,547.45 444.235,548.875 446.17,548.875 C447.985,548.875 449.125,547.78 449.56,546.325 L450.865,546.805 C450.295,548.8 448.615,550.225 446.17,550.225 Z M451.915,548.065 C451.915,546.775 452.86,546.055 454.105,545.875 L456.055,545.59 C456.49,545.53 456.61,545.305 456.61,545.05 C456.61,544.345 456.145,543.76 455.05,543.76 C454.06,543.76 453.505,544.375 453.415,545.215 L452.065,544.9 C452.215,543.52 453.46,542.56 455.02,542.56 C457.18,542.56 458.02,543.79 458.02,545.2 L458.02,548.815 C458.02,549.445 458.08,549.82 458.11,550 L456.73,550 C456.7,549.82 456.655,549.55 456.655,549.025 C456.34,549.535 455.62,550.225 454.33,550.225 C452.86,550.225 451.915,549.205 451.915,548.065 Z M454.525,549.04 C455.68,549.04 456.61,548.485 456.61,546.91 L456.61,546.58 L454.405,546.91 C453.805,547 453.355,547.345 453.355,547.99 C453.355,548.53 453.805,549.04 454.525,549.04 Z M464.215,542.71 L464.215,544.21 C464.005,544.18 463.795,544.165 463.6,544.165 C462.415,544.165 461.62,544.795 461.62,546.385 L461.62,550 L460.21,550 L460.21,542.785 L461.59,542.785 L461.59,544.045 C462.115,542.935 463.015,542.665 463.75,542.665 C463.945,542.665 464.14,542.695 464.215,542.71 Z M469.72,542.71 L469.72,544.21 C469.51,544.18 469.3,544.165 469.105,544.165 C467.92,544.165 467.125,544.795 467.125,546.385 L467.125,550 L465.715,550 L465.715,542.785 L467.095,542.785 L467.095,544.045 C467.62,542.935 468.52,542.665 469.255,542.665 C469.45,542.665 469.645,542.695 469.72,542.71 Z M472.615,550 L471.22,550 L471.22,542.785 L472.615,542.785 L472.615,550 Z M470.905,540.055 C470.905,539.485 471.355,539.035 471.91,539.035 C472.48,539.035 472.93,539.485 472.93,540.055 C472.93,540.61 472.48,541.06 471.91,541.06 C471.355,541.06 470.905,540.61 470.905,540.055 Z M475.93,545.65 L479.875,545.65 C479.845,544.615 479.17,543.805 477.895,543.805 C476.71,543.805 475.99,544.72 475.93,545.65 Z M480.085,547.525 L481.3,547.945 C480.895,549.22 479.74,550.225 478.06,550.225 C476.125,550.225 474.43,548.815 474.43,546.37 C474.43,544.105 476.065,542.56 477.88,542.56 C480.1,542.56 481.345,544.09 481.345,546.34 C481.345,546.52 481.33,546.7 481.315,546.79 L475.885,546.79 C475.915,548.08 476.845,548.98 478.06,548.98 C479.23,548.98 479.815,548.335 480.085,547.525 Z M487.15,542.71 L487.15,544.21 C486.94,544.18 486.73,544.165 486.535,544.165 C485.35,544.165 484.555,544.795 484.555,546.385 L484.555,550 L483.145,550 L483.145,542.785 L484.525,542.785 L484.525,544.045 C485.05,542.935 485.95,542.665 486.685,542.665 C486.88,542.665 487.075,542.695 487.15,542.71 Z M487.975,548.125 L489.25,547.675 C489.34,548.425 489.91,549.025 490.93,549.025 C491.725,549.025 492.16,548.575 492.16,548.065 C492.16,547.615 491.83,547.27 491.23,547.135 L490,546.865 C488.875,546.625 488.2,545.86 488.2,544.84 C488.2,543.61 489.355,542.56 490.765,542.56 C492.745,542.56 493.36,543.85 493.51,544.495 L492.265,544.96 C492.205,544.585 491.905,543.76 490.765,543.76 C490.045,543.76 489.565,544.225 489.565,544.72 C489.565,545.155 489.835,545.47 490.39,545.59 L491.56,545.845 C492.865,546.13 493.555,546.925 493.555,547.99 C493.555,549.01 492.7,550.225 490.915,550.225 C488.935,550.225 488.095,548.95 487.975,548.125 Z" id="Celluar-Carriers" fill="#2C334D"></path>
                <path d="M560.955,550.225 C558.21,550.225 555.675,548.23 555.675,544.675 C555.675,541.12 558.315,539.14 560.955,539.14 C563.385,539.14 565.095,540.46 565.635,542.515 L564.27,542.995 C563.865,541.39 562.695,540.49 560.955,540.49 C559.02,540.49 557.175,541.9 557.175,544.675 C557.175,547.45 559.02,548.875 560.955,548.875 C562.77,548.875 563.91,547.78 564.345,546.325 L565.65,546.805 C565.08,548.8 563.4,550.225 560.955,550.225 Z M566.7,548.065 C566.7,546.775 567.645,546.055 568.89,545.875 L570.84,545.59 C571.275,545.53 571.395,545.305 571.395,545.05 C571.395,544.345 570.93,543.76 569.835,543.76 C568.845,543.76 568.29,544.375 568.2,545.215 L566.85,544.9 C567,543.52 568.245,542.56 569.805,542.56 C571.965,542.56 572.805,543.79 572.805,545.2 L572.805,548.815 C572.805,549.445 572.865,549.82 572.895,550 L571.515,550 C571.485,549.82 571.44,549.55 571.44,549.025 C571.125,549.535 570.405,550.225 569.115,550.225 C567.645,550.225 566.7,549.205 566.7,548.065 Z M569.31,549.04 C570.465,549.04 571.395,548.485 571.395,546.91 L571.395,546.58 L569.19,546.91 C568.59,547 568.14,547.345 568.14,547.99 C568.14,548.53 568.59,549.04 569.31,549.04 Z M576.39,550 L574.995,550 L574.995,539.14 L576.39,539.14 L576.39,543.805 C576.735,543.16 577.575,542.575 578.775,542.575 C580.965,542.575 582.09,544.255 582.09,546.355 C582.09,548.5 580.875,550.195 578.73,550.195 C577.665,550.195 576.84,549.73 576.39,548.95 L576.39,550 Z M580.65,546.355 C580.65,544.795 579.825,543.82 578.52,543.82 C577.275,543.82 576.375,544.795 576.375,546.355 C576.375,547.915 577.275,548.935 578.52,548.935 C579.81,548.935 580.65,547.915 580.65,546.355 Z M585.3,550 L583.89,550 L583.89,539.14 L585.3,539.14 L585.3,550 Z M588.615,545.65 L592.56,545.65 C592.53,544.615 591.855,543.805 590.58,543.805 C589.395,543.805 588.675,544.72 588.615,545.65 Z M592.77,547.525 L593.985,547.945 C593.58,549.22 592.425,550.225 590.745,550.225 C588.81,550.225 587.115,548.815 587.115,546.37 C587.115,544.105 588.75,542.56 590.565,542.56 C592.785,542.56 594.03,544.09 594.03,546.34 C594.03,546.52 594.015,546.7 594,546.79 L588.57,546.79 C588.6,548.08 589.53,548.98 590.745,548.98 C591.915,548.98 592.5,548.335 592.77,547.525 Z M600.555,544.675 C600.555,547.45 602.415,548.875 604.395,548.875 C606.375,548.875 608.235,547.45 608.235,544.675 C608.235,541.9 606.375,540.49 604.395,540.49 C602.415,540.49 600.555,541.9 600.555,544.675 Z M599.055,544.675 C599.055,541.12 601.725,539.14 604.395,539.14 C607.065,539.14 609.735,541.12 609.735,544.675 C609.735,548.23 607.065,550.225 604.395,550.225 C601.725,550.225 599.055,548.23 599.055,544.675 Z M613.005,552.85 L611.61,552.85 L611.61,542.785 L612.975,542.785 L612.975,543.91 C613.365,543.19 614.22,542.62 615.39,542.62 C617.55,542.62 618.705,544.285 618.705,546.385 C618.705,548.53 617.46,550.195 615.345,550.195 C614.235,550.195 613.395,549.67 613.005,549.025 L613.005,552.85 Z M617.265,546.385 C617.265,544.945 616.455,543.865 615.135,543.865 C613.845,543.865 612.99,544.945 612.99,546.385 C612.99,547.87 613.845,548.935 615.135,548.935 C616.44,548.935 617.265,547.87 617.265,546.385 Z M621.42,545.65 L625.365,545.65 C625.335,544.615 624.66,543.805 623.385,543.805 C622.2,543.805 621.48,544.72 621.42,545.65 Z M625.575,547.525 L626.79,547.945 C626.385,549.22 625.23,550.225 623.55,550.225 C621.615,550.225 619.92,548.815 619.92,546.37 C619.92,544.105 621.555,542.56 623.37,542.56 C625.59,542.56 626.835,544.09 626.835,546.34 C626.835,546.52 626.82,546.7 626.805,546.79 L621.375,546.79 C621.405,548.08 622.335,548.98 623.55,548.98 C624.72,548.98 625.305,548.335 625.575,547.525 Z M632.64,542.71 L632.64,544.21 C632.43,544.18 632.22,544.165 632.025,544.165 C630.84,544.165 630.045,544.795 630.045,546.385 L630.045,550 L628.635,550 L628.635,542.785 L630.015,542.785 L630.015,544.045 C630.54,542.935 631.44,542.665 632.175,542.665 C632.37,542.665 632.565,542.695 632.64,542.71 Z M633.69,548.065 C633.69,546.775 634.635,546.055 635.88,545.875 L637.83,545.59 C638.265,545.53 638.385,545.305 638.385,545.05 C638.385,544.345 637.92,543.76 636.825,543.76 C635.835,543.76 635.28,544.375 635.19,545.215 L633.84,544.9 C633.99,543.52 635.235,542.56 636.795,542.56 C638.955,542.56 639.795,543.79 639.795,545.2 L639.795,548.815 C639.795,549.445 639.855,549.82 639.885,550 L638.505,550 C638.475,549.82 638.43,549.55 638.43,549.025 C638.115,549.535 637.395,550.225 636.105,550.225 C634.635,550.225 633.69,549.205 633.69,548.065 Z M636.3,549.04 C637.455,549.04 638.385,548.485 638.385,546.91 L638.385,546.58 L636.18,546.91 C635.58,547 635.13,547.345 635.13,547.99 C635.13,548.53 635.58,549.04 636.3,549.04 Z M643.875,540.505 L643.875,542.785 L645.435,542.785 L645.435,544.06 L643.875,544.06 L643.875,547.81 C643.875,548.47 644.145,548.8 644.88,548.8 C645.06,548.8 645.315,548.77 645.435,548.74 L645.435,549.94 C645.315,549.985 644.955,550.075 644.475,550.075 C643.245,550.075 642.465,549.325 642.465,548.02 L642.465,544.06 L641.085,544.06 L641.085,542.785 L641.475,542.785 C642.255,542.785 642.585,542.305 642.585,541.675 L642.585,540.505 L643.875,540.505 Z M650.325,548.965 C651.525,548.965 652.575,548.065 652.575,546.385 C652.575,544.72 651.525,543.82 650.325,543.82 C649.125,543.82 648.075,544.72 648.075,546.385 C648.075,548.065 649.125,548.965 650.325,548.965 Z M650.325,542.56 C652.485,542.56 654.015,544.195 654.015,546.385 C654.015,548.59 652.485,550.225 650.325,550.225 C648.165,550.225 646.635,548.59 646.635,546.385 C646.635,544.195 648.165,542.56 650.325,542.56 Z M659.82,542.71 L659.82,544.21 C659.61,544.18 659.4,544.165 659.205,544.165 C658.02,544.165 657.225,544.795 657.225,546.385 L657.225,550 L655.815,550 L655.815,542.785 L657.195,542.785 L657.195,544.045 C657.72,542.935 658.62,542.665 659.355,542.665 C659.55,542.665 659.745,542.695 659.82,542.71 Z M660.645,548.125 L661.92,547.675 C662.01,548.425 662.58,549.025 663.6,549.025 C664.395,549.025 664.83,548.575 664.83,548.065 C664.83,547.615 664.5,547.27 663.9,547.135 L662.67,546.865 C661.545,546.625 660.87,545.86 660.87,544.84 C660.87,543.61 662.025,542.56 663.435,542.56 C665.415,542.56 666.03,543.85 666.18,544.495 L664.935,544.96 C664.875,544.585 664.575,543.76 663.435,543.76 C662.715,543.76 662.235,544.225 662.235,544.72 C662.235,545.155 662.505,545.47 663.06,545.59 L664.23,545.845 C665.535,546.13 666.225,546.925 666.225,547.99 C666.225,549.01 665.37,550.225 663.585,550.225 C661.605,550.225 660.765,548.95 660.645,548.125 Z" id="Cable-Operators" fill="#2C334D"></path>
                <path d="M9.33,155.225 C7.17,155.225 5.505,153.875 5.505,151.37 L5.505,144.365 L6.96,144.365 L6.96,151.325 C6.96,152.945 7.845,153.86 9.33,153.86 C10.83,153.86 11.685,152.945 11.685,151.325 L11.685,144.365 L13.155,144.365 L13.155,151.37 C13.155,153.875 11.49,155.225 9.33,155.225 Z M14.88,153.125 L16.155,152.675 C16.245,153.425 16.815,154.025 17.835,154.025 C18.63,154.025 19.065,153.575 19.065,153.065 C19.065,152.615 18.735,152.27 18.135,152.135 L16.905,151.865 C15.78,151.625 15.105,150.86 15.105,149.84 C15.105,148.61 16.26,147.56 17.67,147.56 C19.65,147.56 20.265,148.85 20.415,149.495 L19.17,149.96 C19.11,149.585 18.81,148.76 17.67,148.76 C16.95,148.76 16.47,149.225 16.47,149.72 C16.47,150.155 16.74,150.47 17.295,150.59 L18.465,150.845 C19.77,151.13 20.46,151.925 20.46,152.99 C20.46,154.01 19.605,155.225 17.82,155.225 C15.84,155.225 15,153.95 14.88,153.125 Z M23.175,150.65 L27.12,150.65 C27.09,149.615 26.415,148.805 25.14,148.805 C23.955,148.805 23.235,149.72 23.175,150.65 Z M27.33,152.525 L28.545,152.945 C28.14,154.22 26.985,155.225 25.305,155.225 C23.37,155.225 21.675,153.815 21.675,151.37 C21.675,149.105 23.31,147.56 25.125,147.56 C27.345,147.56 28.59,149.09 28.59,151.34 C28.59,151.52 28.575,151.7 28.56,151.79 L23.13,151.79 C23.16,153.08 24.09,153.98 25.305,153.98 C26.475,153.98 27.06,153.335 27.33,152.525 Z M34.395,147.71 L34.395,149.21 C34.185,149.18 33.975,149.165 33.78,149.165 C32.595,149.165 31.8,149.795 31.8,151.385 L31.8,155 L30.39,155 L30.39,147.785 L31.77,147.785 L31.77,149.045 C32.295,147.935 33.195,147.665 33.93,147.665 C34.125,147.665 34.32,147.695 34.395,147.71 Z" id="User" fill="#2C334D"></path>
                <path d="M847.15,155 L845.65,155 L845.65,144.365 L847.15,144.365 L847.15,155 Z M851.11,150.83 L851.11,155 L849.7,155 L849.7,147.785 L851.08,147.785 L851.08,148.82 C851.605,147.92 852.46,147.575 853.3,147.575 C855.025,147.575 855.88,148.82 855.88,150.425 L855.88,155 L854.47,155 L854.47,150.665 C854.47,149.66 854.05,148.85 852.79,148.85 C851.68,148.85 851.11,149.735 851.11,150.83 Z M860.02,145.505 L860.02,147.785 L861.58,147.785 L861.58,149.06 L860.02,149.06 L860.02,152.81 C860.02,153.47 860.29,153.8 861.025,153.8 C861.205,153.8 861.46,153.77 861.58,153.74 L861.58,154.94 C861.46,154.985 861.1,155.075 860.62,155.075 C859.39,155.075 858.61,154.325 858.61,153.02 L858.61,149.06 L857.23,149.06 L857.23,147.785 L857.62,147.785 C858.4,147.785 858.73,147.305 858.73,146.675 L858.73,145.505 L860.02,145.505 Z M864.295,150.65 L868.24,150.65 C868.21,149.615 867.535,148.805 866.26,148.805 C865.075,148.805 864.355,149.72 864.295,150.65 Z M868.45,152.525 L869.665,152.945 C869.26,154.22 868.105,155.225 866.425,155.225 C864.49,155.225 862.795,153.815 862.795,151.37 C862.795,149.105 864.43,147.56 866.245,147.56 C868.465,147.56 869.71,149.09 869.71,151.34 C869.71,151.52 869.695,151.7 869.68,151.79 L864.25,151.79 C864.28,153.08 865.21,153.98 866.425,153.98 C867.595,153.98 868.18,153.335 868.45,152.525 Z M875.515,147.71 L875.515,149.21 C875.305,149.18 875.095,149.165 874.9,149.165 C873.715,149.165 872.92,149.795 872.92,151.385 L872.92,155 L871.51,155 L871.51,147.785 L872.89,147.785 L872.89,149.045 C873.415,147.935 874.315,147.665 875.05,147.665 C875.245,147.665 875.44,147.695 875.515,147.71 Z M878.425,150.83 L878.425,155 L877.015,155 L877.015,147.785 L878.395,147.785 L878.395,148.82 C878.92,147.92 879.775,147.575 880.615,147.575 C882.34,147.575 883.195,148.82 883.195,150.425 L883.195,155 L881.785,155 L881.785,150.665 C881.785,149.66 881.365,148.85 880.105,148.85 C878.995,148.85 878.425,149.735 878.425,150.83 Z M886.36,150.65 L890.305,150.65 C890.275,149.615 889.6,148.805 888.325,148.805 C887.14,148.805 886.42,149.72 886.36,150.65 Z M890.515,152.525 L891.73,152.945 C891.325,154.22 890.17,155.225 888.49,155.225 C886.555,155.225 884.86,153.815 884.86,151.37 C884.86,149.105 886.495,147.56 888.31,147.56 C890.53,147.56 891.775,149.09 891.775,151.34 C891.775,151.52 891.76,151.7 891.745,151.79 L886.315,151.79 C886.345,153.08 887.275,153.98 888.49,153.98 C889.66,153.98 890.245,153.335 890.515,152.525 Z M895.465,145.505 L895.465,147.785 L897.025,147.785 L897.025,149.06 L895.465,149.06 L895.465,152.81 C895.465,153.47 895.735,153.8 896.47,153.8 C896.65,153.8 896.905,153.77 897.025,153.74 L897.025,154.94 C896.905,154.985 896.545,155.075 896.065,155.075 C894.835,155.075 894.055,154.325 894.055,153.02 L894.055,149.06 L892.675,149.06 L892.675,147.785 L893.065,147.785 C893.845,147.785 894.175,147.305 894.175,146.675 L894.175,145.505 L895.465,145.505 Z" id="Internet" fill="#2C334D"></path>
                <path d="M231,0 L651,0 C675.300529,-4.46393476e-15 695,19.699471 695,44 L695,378 C695,402.300529 675.300529,422 651,422 L231,422 C206.699471,422 187,402.300529 187,378 L187,44 C187,19.699471 206.699471,4.46393476e-15 231,0 Z" id="Rectangle-22" stroke="#FECD46" stroke-width="3" stroke-linecap="round" stroke-linejoin="round" stroke-dasharray="10,20" fill-rule="nonzero"></path>
                <path d="M525.5,80.2083333 L793.5,80.2083333" id="Line-11" stroke="#2C334D" stroke-linecap="square" fill-rule="nonzero"></path>
                <path d="M95.5,80.2083333 L363.5,80.2083333" id="Line-11" stroke="#2C334D" stroke-linecap="square" fill-rule="nonzero"></path>
                <g id="Group-24" transform="translate(0.000000, 30.000000)">
                    <rect id="Rectangle-13" stroke="#2C334D" x="-0.5" y="-0.5" width="40" height="69" rx="5"></rect>
                    <rect id="Rectangle-10" stroke="#2C334D" x="3.5" y="6.5" width="32" height="52" rx="2"></rect>
                    <g id="Group-5" transform="translate(10.000000, 2.000000)" fill="#2C334D" opacity="0.300000012">
                        <circle id="Oval-2" style="mix-blend-mode: multiply;" cx="1" cy="1" r="1"></circle>
                        <rect id="Rectangle-14" x="4" y="0" width="14" height="2" rx="1"></rect>
                    </g>
                </g>
                <g id="Group-7" transform="translate(847.000000, 32.000000)" stroke="#2C334D">
                    <g id="Group-6">
                        <path d="M0.5,68.25 L50.5,68.25" id="Line-12" stroke-linecap="square" fill-rule="nonzero"></path>
                        <path d="M29.2941002,3.89104814 C30.1647184,3.63278015 31.0735892,3.5 32,3.5 C37.2326465,3.5 41.4771993,7.73053185 41.4999084,12.9578455 C45.6214938,14.2509688 48.5,18.0904752 48.5,22.5 C48.5,28.0228475 44.0228475,32.5 38.5,32.5 L12.5,32.5 C6.9771525,32.5 2.5,28.0228475 2.5,22.5 C2.5,17.9887471 5.51106606,14.0871779 9.75837854,12.8805235 C9.58722509,12.104932 9.5,11.3080799 9.5,10.5 C9.5,4.42486775 14.4248678,-0.5 20.5,-0.5 C24.0054803,-0.5 27.2337768,1.1522448 29.2941002,3.89104814 Z" id="Combined-Shape"></path>
                        <path d="M25,33 L25,69" id="Line-13" stroke-linecap="square" fill-rule="nonzero"></path>
                        <circle id="Oval-3" fill="#FFFFFF" cx="25" cy="69" r="4.5"></circle>
                    </g>
                </g>
            </g>
        </g>
    </g>
</svg>