<?xml version="1.0" encoding="UTF-8"?>
<svg width="332px" height="31px" viewBox="0 0 332 31" version="1.1" xmlns="http://www.w3.org/2000/svg" xmlns:xlink="http://www.w3.org/1999/xlink">
    <!-- Generator: sketchtool 51.2 (57519) - http://www.bohemiancoding.com/sketch -->
    <title>50001F7F-2D09-45A3-A5BE-D77EC484D39C</title>
    <desc>Created with sketchtool.</desc>
    <defs></defs>
    <g id="Page-1" stroke="none" stroke-width="1" fill="none" fill-rule="evenodd" stroke-linecap="round" stroke-linejoin="round">
        <g id="Wiconnect-offerings-6-Enhanced-Portal-with-App---SDK" transform="translate(-803.000000, -1809.000000)" fill-rule="nonzero" stroke="#FECD46" stroke-width="2">
            <g id="Group-13" transform="translate(800.000000, 1452.000000)">
                <g id="Group-11" transform="translate(4.000000, 357.000000)">
                    <path d="M233.375,-66.5058594 C243.316406,-66.5058594 251.695313,-61.1972656 251.695313,-48.1855469 C251.695313,-35.1738281 251.695313,63.8261719 251.695312,77.7949219 C251.695312,91.7636719 258.390625,96.8007812 261.701172,96.8007812" id="Path-15" transform="translate(247.538086, 15.147461) rotate(90.000000) translate(-247.538086, -15.147461) "></path>
                    <path d="M68.2988281,-66.5058594 C78.2402344,-66.5058594 86.6191406,-61.1972656 86.6191406,-48.1855469 C86.6191406,-35.1738281 86.6191406,63.8261719 86.6191406,77.7949219 C86.6191406,91.7636719 93.3144531,96.8007812 96.625,96.8007812" id="Path-15" transform="translate(82.461914, 15.147461) scale(-1, 1) rotate(90.000000) translate(-82.461914, -15.147461) "></path>
                </g>
            </g>
        </g>
    </g>
</svg>