<svg xmlns="http://www.w3.org/2000/svg" xmlns:xlink="http://www.w3.org/1999/xlink"><defs><style>.cls-1{fill:#009fdc;fill-rule:evenodd}</style><style>.cls-1{fill:#feb900;fill-rule:evenodd}</style><style>.cls-1{fill:#fff;fill-rule:evenodd}</style><path id="a" d="M141.272 635.9l18.627-18.628.101.1.1-.1 18.628 18.628-2.829 2.828-15.899-15.9-15.9 15.9z"/><path id="a" d="M269 2372c0-12.13 9.87-22 22-22s22 9.87 22 22-9.87 22-22 22-22-9.87-22-22zm2.198 0c0 10.92 8.883 19.802 19.802 19.802 10.92 0 19.802-8.883 19.802-19.802 0-10.92-8.883-19.802-19.802-19.802-10.92 0-19.802 8.883-19.802 19.802zm12.866-2.593a1.094 1.094 0 0 1 0-1.552l6.182-6.182a1.096 1.096 0 0 1 1.553 0l6.181 6.182c.431.43.431 1.121 0 1.552a1.094 1.094 0 0 1-.78.323c-.287 0-.565-.108-.78-.323l-4.307-4.307v16.446a1.103 1.103 0 1 1-2.208 0v-16.455l-4.306 4.307c-.431.43-1.13.43-1.535.01z"/><path id="a" d="M269 2372c0-12.13 9.87-22 22-22s22 9.87 22 22-9.87 22-22 22-22-9.87-22-22zm2.198 0c0 10.92 8.883 19.802 19.802 19.802 10.92 0 19.802-8.883 19.802-19.802 0-10.92-8.883-19.802-19.802-19.802-10.92 0-19.802 8.883-19.802 19.802zm12.866-2.593a1.094 1.094 0 0 1 0-1.552l6.182-6.182a1.096 1.096 0 0 1 1.553 0l6.181 6.182c.431.43.431 1.121 0 1.552a1.094 1.094 0 0 1-.78.323c-.287 0-.565-.108-.78-.323l-4.307-4.307v16.446a1.103 1.103 0 1 1-2.208 0v-16.455l-4.306 4.307c-.431.43-1.13.43-1.535.01z"/><path id="a" d="M1619 347c-16.542 0-30-13.459-30-30 0-16.542 13.458-30 30-30 16.541 0 30 13.458 30 30 0 16.541-13.459 30-30 30zm0-57.965c-15.42 0-27.965 12.545-27.965 27.965s12.546 27.965 27.965 27.965c15.42 0 27.965-12.546 27.965-27.965 0-15.42-12.545-27.965-27.965-27.965zm-3.767 38.498a1.019 1.019 0 0 1-.72-1.738l9.218-9.227-9.217-9.227a1.019 1.019 0 0 1 1.44-1.44l9.934 9.947a1.016 1.016 0 0 1 0 1.44l-9.935 9.945c-.2.2-.46.3-.72.3z"/><path id="a" d="M1619 347c-16.542 0-30-13.459-30-30 0-16.542 13.458-30 30-30 16.541 0 30 13.458 30 30 0 16.541-13.459 30-30 30zm0-57.965c-15.42 0-27.965 12.545-27.965 27.965s12.546 27.965 27.965 27.965c15.42 0 27.965-12.546 27.965-27.965 0-15.42-12.545-27.965-27.965-27.965zm-3.767 38.498a1.019 1.019 0 0 1-.72-1.738l9.218-9.227-9.217-9.227a1.019 1.019 0 0 1 1.44-1.44l9.934 9.947a1.016 1.016 0 0 1 0 1.44l-9.935 9.945c-.2.2-.46.3-.72.3z"/><style>.cls-1{fill:#009fdc;fill-rule:evenodd}</style><style>.cls-1{fill:#feb900;fill-rule:evenodd}</style><style>.cls-1{fill:#feb900;fill-rule:evenodd}</style><path id="a" d="M282.4 225l-.797-.808c-.04-.031-.082-.06-.119-.098l-3.003-3.045a7.632 7.632 0 0 1-4.735 1.652c-4.272 0-7.746-3.522-7.746-7.85 0-4.33 3.474-7.85 7.746-7.85 4.27 0 7.746 3.52 7.746 7.85 0 1.689-.534 3.25-1.433 4.533l1.747 1.77 2.194 2.224zm-4.829-5.573c.319-.274.606-.583.86-.918a6.014 6.014 0 0 0 1.238-3.658c0-3.31-2.657-6.003-5.923-6.003s-5.923 2.693-5.923 6.003 2.657 6.003 5.923 6.003a5.848 5.848 0 0 0 3.825-1.427z"/><path id="a" d="M1499.752 1006l10.248 22.383-.254.117.254.117-10.248 22.383-2.54-1.166 9.767-21.334-9.768-21.334 2.541-1.166"/><path id="a" d="M285.752 3182L296 3204.383l-.254.117.254.117L285.752 3227l-2.54-1.166 9.767-21.334-9.768-21.334 2.541-1.166"/></defs><symbol id="at-hover" viewBox="0 0 18 18"><path id="Forma_1" data-name="Forma 1" class="cls-1" d="M97 3521a9 9 0 0 0 0 18 .67.67 0 1 0 0-1.34 7.66 7.66 0 1 1 7.655-7.66v2.08a1.41 1.41 0 1 1-2.819 0V3530a4.844 4.844 0 1 0-1.142 3.12 2.754 2.754 0 0 0 5.306-1.04V3530a9.012 9.012 0 0 0-9-9zm0 12.49a3.49 3.49 0 1 1 3.491-3.49 3.491 3.491 0 0 1-3.491 3.49z" transform="translate(-88 -3521)"/></symbol><symbol id="at" viewBox="0 0 18 18"><path id="Forma_1" data-name="Forma 1" class="cls-1" d="M97 3521a9 9 0 0 0 0 18 .67.67 0 1 0 0-1.34 7.66 7.66 0 1 1 7.655-7.66v2.08a1.41 1.41 0 1 1-2.819 0V3530a4.844 4.844 0 1 0-1.142 3.12 2.754 2.754 0 0 0 5.306-1.04V3530a9.012 9.012 0 0 0-9-9zm0 12.49a3.49 3.49 0 1 1 3.491-3.49 3.491 3.491 0 0 1-3.491 3.49z" transform="translate(-88 -3521)"/></symbol><symbol id="burger-closed" viewBox="0 0 32 20"><path id="Rectangle_7_copy_2" data-name="Rectangle 7 copy 2" class="cls-1" d="M41 205h32v4H41v-4zm0 8h32v4H41v-4zm0 8h32v4H41v-4z" transform="translate(-41 -205)"/></symbol><symbol id="burger-opened" viewBox="0 0 38 22"><use fill="#fff" xlink:href="#a" transform="translate(-141 -617)"/></symbol><symbol id="button-ontop--hover" viewBox="0 0 44 44"><use fill="#feb900" xlink:href="#a" transform="translate(-269 -2350)"/></symbol><symbol id="button-ontop" viewBox="0 0 44 44"><use fill="#d7d7d7" xlink:href="#a" transform="translate(-269 -2350)"/></symbol><symbol id="hero-slider-button--hover" viewBox="0 0 60 60"><use fill="#feb900" xlink:href="#a" transform="translate(-1589 -287)"/></symbol><symbol id="hero-slider-button" viewBox="0 0 60 60"><use fill="#fff" xlink:href="#a" transform="translate(-1589 -287)"/></symbol><symbol id="mail-hover" viewBox="0 0 18 14"><path class="cls-1" d="M15.8 0H2.2A2.228 2.228 0 0 0 0 2.25v9.5A2.228 2.228 0 0 0 2.2 14h13.6a2.228 2.228 0 0 0 2.2-2.25v-9.5A2.223 2.223 0 0 0 15.8 0zM17 11.75a1.212 1.212 0 0 1-1.2 1.22H2.2A1.211 1.211 0 0 1 1 11.75v-9.5a1.211 1.211 0 0 1 1.2-1.22h13.6a1.211 1.211 0 0 1 1.195 1.22v9.5zm-5.645-4.87l4.4-4.03a.528.528 0 0 0 .037-.73.5.5 0 0 0-.711-.04l-6.07 5.57-1.184-1.08a.017.017 0 0 1-.007-.01.389.389 0 0 0-.082-.07L2.92 2.08a.5.5 0 0 0-.711.04.525.525 0 0 0 .041.73l4.453 4.07-4.435 4.24a.514.514 0 0 0 .346.89.465.465 0 0 0 .343-.14l4.5-4.3 1.221 1.11a.485.485 0 0 0 .335.13.479.479 0 0 0 .335-.13l1.255-1.15 4.476 4.35a.516.516 0 0 0 .346.14.484.484 0 0 0 .365-.16.528.528 0 0 0-.018-.73z"/></symbol><symbol id="mail" viewBox="0 0 18 14"><path class="cls-1" d="M15.8 0H2.2A2.228 2.228 0 0 0 0 2.25v9.5A2.228 2.228 0 0 0 2.2 14h13.6a2.228 2.228 0 0 0 2.2-2.25v-9.5A2.223 2.223 0 0 0 15.8 0zM17 11.75a1.212 1.212 0 0 1-1.2 1.22H2.2A1.211 1.211 0 0 1 1 11.75v-9.5a1.211 1.211 0 0 1 1.2-1.22h13.6a1.211 1.211 0 0 1 1.195 1.22v9.5zm-5.645-4.87l4.4-4.03a.528.528 0 0 0 .037-.73.5.5 0 0 0-.711-.04l-6.07 5.57-1.184-1.08a.017.017 0 0 1-.007-.01.389.389 0 0 0-.082-.07L2.92 2.08a.5.5 0 0 0-.711.04.525.525 0 0 0 .041.73l4.453 4.07-4.435 4.24a.514.514 0 0 0 .346.89.465.465 0 0 0 .343-.14l4.5-4.3 1.221 1.11a.485.485 0 0 0 .335.13.479.479 0 0 0 .335-.13l1.255-1.15 4.476 4.35a.516.516 0 0 0 .346.14.484.484 0 0 0 .365-.16.528.528 0 0 0-.018-.73z"/></symbol><symbol id="phone" viewBox="0 0 19.844 19.937"><path id="Shape_1_copy_5" data-name="Shape 1 copy 5" class="cls-1" d="M39.8 125.407a1.956 1.956 0 0 0-1.419-.653 2.019 2.019 0 0 0-1.436.649l-1.327 1.326c-.109-.059-.218-.113-.324-.168a5.785 5.785 0 0 1-.416-.223 14.445 14.445 0 0 1-3.457-3.159 8.518 8.518 0 0 1-1.134-1.794c.344-.316.664-.644.974-.96.118-.118.235-.24.353-.358a1.936 1.936 0 0 0 0-2.915L30.464 116c-.13-.131-.264-.265-.391-.4a19.498 19.498 0 0 0-.79-.784 1.987 1.987 0 0 0-1.407-.619 2.056 2.056 0 0 0-1.428.619l-.008.009-1.428 1.444a3.086 3.086 0 0 0-.911 1.959 7.408 7.408 0 0 0 .538 3.125 18.136 18.136 0 0 0 3.213 5.373 19.759 19.759 0 0 0 6.581 5.167 10.2 10.2 0 0 0 3.7 1.1c.088 0 .181.009.265.009a3.157 3.157 0 0 0 2.423-1.045c0-.008.013-.012.017-.021a9.632 9.632 0 0 1 .735-.762c.181-.172.365-.354.546-.543a2.1 2.1 0 0 0 .634-1.457 2.028 2.028 0 0 0-.647-1.445zm1.5 4.434c-.164.177-.332.338-.513.514a10.987 10.987 0 0 0-.811.843 2.021 2.021 0 0 1-1.579.669h-.193a9.108 9.108 0 0 1-3.276-.985 18.67 18.67 0 0 1-6.2-4.869 17.109 17.109 0 0 1-3.024-5.049 6.031 6.031 0 0 1-.471-2.637 1.934 1.934 0 0 1 .58-1.25l1.432-1.437a.951.951 0 0 1 .638-.3.9.9 0 0 1 .613.294l.013.013c.256.24.5.489.756.753.13.135.265.27.4.409l1.147 1.15a.805.805 0 0 1 0 1.306c-.122.122-.239.243-.361.362-.353.362-.689.7-1.054 1.027a.1.1 0 0 0-.021.021.861.861 0 0 0-.218.956l.013.038a9.223 9.223 0 0 0 1.357 2.22 15.43 15.43 0 0 0 3.73 3.4 5.8 5.8 0 0 0 .517.282c.151.075.294.147.416.223.017.009.034.021.05.03a.916.916 0 0 0 .416.105.9.9 0 0 0 .639-.291l1.436-1.44a.95.95 0 0 1 .634-.316.855.855 0 0 1 .6.307l.008.009 2.314 2.32a.834.834 0 0 1 .012 1.323zm-6.476-12.048a5.319 5.319 0 0 1 2.9 1.507 5.374 5.374 0 0 1 1.5 2.906.564.564 0 0 0 .559.472.629.629 0 0 0 .1-.009.569.569 0 0 0 .466-.657 6.544 6.544 0 0 0-5.326-5.339.569.569 0 0 0-.655.463.563.563 0 0 0 .455.657zm9.122 4.055a10.774 10.774 0 0 0-8.769-8.793.564.564 0 0 0-.651.463.571.571 0 0 0 .466.657 9.627 9.627 0 0 1 7.837 7.858.563.563 0 0 0 .559.472.783.783 0 0 0 .1-.008.558.558 0 0 0 .457-.649z" transform="translate(-24.094 -113.063)"/></symbol><symbol id="search" viewBox="0 0 18 18"><use fill="#feb900" xlink:href="#a" transform="translate(-266 -207)"/></symbol><symbol id="slider-button--hover" viewBox="0 0 13 45"><use fill="#feb900" xlink:href="#a" transform="translate(-1497 -1006)"/></symbol><symbol id="slider-button" viewBox="0 0 13 45"><use fill="#009fdc" xlink:href="#a" transform="translate(-283 -3182)"/></symbol></svg>