<svg xmlns="http://www.w3.org/2000/svg" width="18" height="18" viewBox="0 0 18 18">
  <defs>
    <style>
      .cls-1 {
        fill: #feb900;
        fill-rule: evenodd;
      }
    </style>
  </defs>
  <path id="Forma_1" data-name="Forma 1" class="cls-1" d="M97,3521a9,9,0,0,0,0,18,0.67,0.67,0,1,0,0-1.34,7.66,7.66,0,1,1,7.655-7.66v2.08a1.41,1.41,0,1,1-2.819,0V3530a4.844,4.844,0,1,0-1.142,3.12,2.754,2.754,0,0,0,5.306-1.04V3530A9.012,9.012,0,0,0,97,3521Zm0,12.49a3.49,3.49,0,1,1,3.491-3.49A3.491,3.491,0,0,1,97,3533.49Z" transform="translate(-88 -3521)"/>
</svg>
