<svg xmlns="http://www.w3.org/2000/svg" xmlns:xlink="http://www.w3.org/1999/xlink" width="44" height="44" viewBox="0 0 44 44"><defs><path id="s4zza" d="M269 2372c0-12.13 9.87-22 22-22s22 9.87 22 22-9.87 22-22 22-22-9.87-22-22zm2.198 0c0 10.92 8.883 19.802 19.802 19.802 10.92 0 19.802-8.883 19.802-19.802 0-10.92-8.883-19.802-19.802-19.802-10.92 0-19.802 8.883-19.802 19.802zm12.866-2.593a1.094 1.094 0 0 1 0-1.552l6.182-6.182c.431-.43 1.122-.43 1.553 0l6.181 6.182c.431.43.431 1.121 0 1.552a1.094 1.094 0 0 1-.78.323c-.287 0-.565-.108-.78-.323l-4.307-4.307v16.446a1.103 1.103 0 1 1-2.208 0v-16.455l-4.306 4.307c-.431.43-1.13.43-1.535.01z"/></defs><g><g transform="translate(-269 -2350)"><use fill="#feb900" xlink:href="#s4zza"/></g></g></svg>
