<svg xmlns="http://www.w3.org/2000/svg" xmlns:xlink="http://www.w3.org/1999/xlink" width="60" height="60" viewBox="0 0 60 60"><defs><path id="fs8ia" d="M1619 347c-16.542 0-30-13.459-30-30 0-16.542 13.458-30 30-30 16.541 0 30 13.458 30 30 0 16.541-13.459 30-30 30zm0-57.965c-15.42 0-27.965 12.545-27.965 27.965s12.546 27.965 27.965 27.965c15.42 0 27.965-12.546 27.965-27.965 0-15.42-12.545-27.965-27.965-27.965zm-3.767 38.498a1.019 1.019 0 0 1-.72-1.738l9.218-9.227-9.217-9.227a1.019 1.019 0 0 1 1.44-1.44l9.934 9.947a1.016 1.016 0 0 1 0 1.44l-9.935 9.945c-.2.2-.46.3-.72.3z"/></defs><g><g transform="translate(-1589 -287)"><use fill="#ffffff" xlink:href="#fs8ia"/></g></g></svg>
