<svg xmlns="http://www.w3.org/2000/svg" width="18" height="14" viewBox="0 0 18 14">
  <defs>
    <style>
      .cls-1 {
        fill: #009fdc;
        fill-rule: evenodd;
      }
    </style>
  </defs>
  <path class="cls-1" d="M103.8,3549H90.2a2.228,2.228,0,0,0-2.2,2.25v9.5a2.228,2.228,0,0,0,2.2,2.25h13.6a2.228,2.228,0,0,0,2.2-2.25v-9.5A2.223,2.223,0,0,0,103.8,3549Zm1.2,11.75a1.212,1.212,0,0,1-1.2,1.22H90.2a1.211,1.211,0,0,1-1.2-1.22v-9.5a1.211,1.211,0,0,1,1.2-1.22h13.6a1.211,1.211,0,0,1,1.195,1.22v9.5h0Zm-5.645-4.87,4.4-4.03a0.528,0.528,0,0,0,.037-0.73,0.5,0.5,0,0,0-.711-0.04l-6.07,5.57-1.184-1.08a0.017,0.017,0,0,1-.007-0.01,0.389,0.389,0,0,0-.082-0.07l-4.818-4.41a0.5,0.5,0,0,0-.711.04,0.525,0.525,0,0,0,.041.73l4.453,4.07-4.435,4.24a0.514,0.514,0,0,0,.346.89,0.465,0.465,0,0,0,.343-0.14l4.5-4.3,1.221,1.11a0.485,0.485,0,0,0,.335.13,0.479,0.479,0,0,0,.335-0.13l1.255-1.15,4.476,4.35a0.516,0.516,0,0,0,.346.14,0.484,0.484,0,0,0,.365-0.16,0.528,0.528,0,0,0-.018-0.73Z" transform="translate(-88 -3549)"/>
</svg>
