<svg xmlns="http://www.w3.org/2000/svg" width="19.844" height="19.937" viewBox="0 0 19.844 19.937">
  <defs>
    <style>
      .cls-1 {
        fill: #feb900;
        fill-rule: evenodd;
      }
    </style>
  </defs>
  <path id="Shape_1_copy_5" data-name="Shape 1 copy 5" class="cls-1" d="M39.8,125.407a1.956,1.956,0,0,0-1.419-.653,2.019,2.019,0,0,0-1.436.649l-1.327,1.326c-0.109-.059-0.218-0.113-0.324-0.168-0.151-.076-0.294-0.148-0.416-0.223a14.445,14.445,0,0,1-3.457-3.159,8.518,8.518,0,0,1-1.134-1.794c0.344-.316.664-0.644,0.974-0.96,0.118-.118.235-0.24,0.353-0.358a1.936,1.936,0,0,0,0-2.915L30.464,116c-0.13-.131-0.264-0.265-0.391-0.4-0.252-.262-0.517-0.531-0.79-0.784a1.987,1.987,0,0,0-1.407-.619,2.056,2.056,0,0,0-1.428.619l-0.008.009-1.428,1.444a3.086,3.086,0,0,0-.911,1.959,7.408,7.408,0,0,0,.538,3.125,18.136,18.136,0,0,0,3.213,5.373,19.759,19.759,0,0,0,6.581,5.167,10.2,10.2,0,0,0,3.7,1.1c0.088,0,.181.009,0.265,0.009a3.157,3.157,0,0,0,2.423-1.045c0-.008.013-0.012,0.017-0.021a9.632,9.632,0,0,1,.735-0.762c0.181-.172.365-0.354,0.546-0.543a2.1,2.1,0,0,0,.634-1.457,2.028,2.028,0,0,0-.647-1.445Zm1.5,4.434s0,0,0,0c-0.164.177-.332,0.338-0.513,0.514a10.987,10.987,0,0,0-.811.843,2.021,2.021,0,0,1-1.579.669c-0.063,0-.13,0-0.193,0a9.108,9.108,0,0,1-3.276-.985,18.67,18.67,0,0,1-6.2-4.869,17.109,17.109,0,0,1-3.024-5.049,6.031,6.031,0,0,1-.471-2.637,1.934,1.934,0,0,1,.58-1.25l1.432-1.437a0.951,0.951,0,0,1,.638-0.3,0.9,0.9,0,0,1,.613.294l0.013,0.013c0.256,0.24.5,0.489,0.756,0.753,0.13,0.135.265,0.27,0.4,0.409l1.147,1.15a0.805,0.805,0,0,1,0,1.306c-0.122.122-.239,0.243-0.361,0.362-0.353.362-.689,0.7-1.054,1.027a0.1,0.1,0,0,0-.021.021,0.861,0.861,0,0,0-.218.956l0.013,0.038a9.223,9.223,0,0,0,1.357,2.22l0,0a15.43,15.43,0,0,0,3.73,3.4,5.8,5.8,0,0,0,.517.282c0.151,0.075.294,0.147,0.416,0.223,0.017,0.009.034,0.021,0.05,0.03a0.916,0.916,0,0,0,.416.105,0.9,0.9,0,0,0,.639-0.291l1.436-1.44a0.95,0.95,0,0,1,.634-0.316,0.855,0.855,0,0,1,.6.307l0.008,0.009,2.314,2.32A0.834,0.834,0,0,1,41.3,129.841Zm-6.476-12.048a5.319,5.319,0,0,1,2.9,1.507,5.374,5.374,0,0,1,1.5,2.906,0.564,0.564,0,0,0,.559.472,0.629,0.629,0,0,0,.1-0.009,0.569,0.569,0,0,0,.466-0.657,6.544,6.544,0,0,0-5.326-5.339,0.569,0.569,0,0,0-.655.463A0.563,0.563,0,0,0,34.823,117.793Zm9.122,4.055a10.774,10.774,0,0,0-8.769-8.793,0.564,0.564,0,0,0-.651.463,0.571,0.571,0,0,0,.466.657,9.627,9.627,0,0,1,7.837,7.858,0.563,0.563,0,0,0,.559.472,0.783,0.783,0,0,0,.1-0.008A0.558,0.558,0,0,0,43.945,121.848Z" transform="translate(-24.094 -113.063)"/>
</svg>
