<svg xmlns="http://www.w3.org/2000/svg" xmlns:xlink="http://www.w3.org/1999/xlink" width="18" height="18" viewBox="0 0 18 18"><defs><path id="9yqga" d="M282.4 225l-.797-.808c-.04-.031-.082-.06-.119-.098l-3.003-3.045a7.632 7.632 0 0 1-4.735 1.652c-4.272 0-7.746-3.522-7.746-7.85 0-4.33 3.474-7.85 7.746-7.85 4.27 0 7.746 3.52 7.746 7.85 0 1.689-.534 3.25-1.433 4.533l1.747 1.77 2.194 2.224zm-4.829-5.573c.319-.274.606-.583.86-.918a6.014 6.014 0 0 0 1.238-3.658c0-3.31-2.657-6.003-5.923-6.003s-5.923 2.693-5.923 6.003 2.657 6.003 5.923 6.003c1.458 0 2.792-.539 3.825-1.427z"/></defs><g><g transform="translate(-266 -207)"><use fill="#feb900" xlink:href="#9yqga"/></g></g></svg>