<?xml version="1.0" encoding="UTF-8"?><!DOCTYPE svg PUBLIC "-//W3C//DTD SVG 1.1//EN" "http://www.w3.org/Graphics/SVG/1.1/DTD/svg11.dtd"><svg xmlns="http://www.w3.org/2000/svg" xmlns:xlink="http://www.w3.org/1999/xlink"><defs><style>.cls-1{fill:url(#Безымянный_градиент_13)}.cls-2{fill:url(#Безымянный_градиент_13-2)}.cls-3{fill:url(#Безымянный_градиент_13-3)}.cls-4{fill:url(#Безымянный_градиент_13-4)}.cls-5{fill:url(#Безымянный_градиент_13-5)}.cls-6{fill:url(#Безымянный_градиент_13-6)}.cls-7{fill:url(#Безымянный_градиент_13-7)}.cls-8{fill:url(#Безымянный_градиент_13-8)}.cls-9{fill:url(#Безымянный_градиент_13-9)}.cls-10{fill:url(#Безымянный_градиент_13-10)}.cls-11{fill:url(#Безымянный_градиент_13-11)}.cls-12{fill:url(#Безымянный_градиент_13-12)}.cls-13{fill:url(#Безымянный_градиент_13-13)}</style><linearGradient id="&#x411;&#x435;&#x437;&#x44B;&#x43C;&#x44F;&#x43D;&#x43D;&#x44B;&#x439;_&#x433;&#x440;&#x430;&#x434;&#x438;&#x435;&#x43D;&#x442;_13" x1="161.23" y1="-58.68" x2="161.23" y2="-44.53" gradientTransform="matrix(1 0 0 -1 -39.36 3.28)" gradientUnits="userSpaceOnUse"><stop offset=".72" stop-color="#00a2df"/><stop offset=".81" stop-color="#009fda"/><stop offset=".92" stop-color="#0095cc"/><stop offset="1" stop-color="#008bbe"/></linearGradient><linearGradient id="&#x411;&#x435;&#x437;&#x44B;&#x43C;&#x44F;&#x43D;&#x43D;&#x44B;&#x439;_&#x433;&#x440;&#x430;&#x434;&#x438;&#x435;&#x43D;&#x442;_13-2" x1="161.23" y1="-10.87" x2="161.23" y2="3.28" xlink:href="#&#x411;&#x435;&#x437;&#x44B;&#x43C;&#x44F;&#x43D;&#x43D;&#x44B;&#x439;_&#x433;&#x440;&#x430;&#x434;&#x438;&#x435;&#x43D;&#x442;_13"/><linearGradient id="&#x411;&#x435;&#x437;&#x44B;&#x43C;&#x44F;&#x43D;&#x43D;&#x44B;&#x439;_&#x433;&#x440;&#x430;&#x434;&#x438;&#x435;&#x43D;&#x442;_13-3" x1="330.14" y1="-58.68" x2="330.14" y2="-44.53" xlink:href="#&#x411;&#x435;&#x437;&#x44B;&#x43C;&#x44F;&#x43D;&#x43D;&#x44B;&#x439;_&#x433;&#x440;&#x430;&#x434;&#x438;&#x435;&#x43D;&#x442;_13"/><linearGradient id="&#x411;&#x435;&#x437;&#x44B;&#x43C;&#x44F;&#x43D;&#x43D;&#x44B;&#x439;_&#x433;&#x440;&#x430;&#x434;&#x438;&#x435;&#x43D;&#x442;_13-4" x1="330.14" y1="-34.78" x2="330.14" y2="-20.62" xlink:href="#&#x411;&#x435;&#x437;&#x44B;&#x43C;&#x44F;&#x43D;&#x43D;&#x44B;&#x439;_&#x433;&#x440;&#x430;&#x434;&#x438;&#x435;&#x43D;&#x442;_13"/><linearGradient id="&#x411;&#x435;&#x437;&#x44B;&#x43C;&#x44F;&#x43D;&#x43D;&#x44B;&#x439;_&#x433;&#x440;&#x430;&#x434;&#x438;&#x435;&#x43D;&#x442;_13-5" x1="324.37" y1="-10.87" x2="324.37" y2="3.28" xlink:href="#&#x411;&#x435;&#x437;&#x44B;&#x43C;&#x44F;&#x43D;&#x43D;&#x44B;&#x439;_&#x433;&#x440;&#x430;&#x434;&#x438;&#x435;&#x43D;&#x442;_13"/><linearGradient id="&#x411;&#x435;&#x437;&#x44B;&#x43C;&#x44F;&#x43D;&#x43D;&#x44B;&#x439;_&#x433;&#x440;&#x430;&#x434;&#x438;&#x435;&#x43D;&#x442;_13-6" x1="100.74" y1="25.95" x2="100.74" y2="40.1" gradientTransform="matrix(1 0 0 -1 0 64)" xlink:href="#&#x411;&#x435;&#x437;&#x44B;&#x43C;&#x44F;&#x43D;&#x43D;&#x44B;&#x439;_&#x433;&#x440;&#x430;&#x434;&#x438;&#x435;&#x43D;&#x442;_13"/><linearGradient id="&#x411;&#x435;&#x437;&#x44B;&#x43C;&#x44F;&#x43D;&#x43D;&#x44B;&#x439;_&#x433;&#x440;&#x430;&#x434;&#x438;&#x435;&#x43D;&#x442;_13-7" x1="76.47" y1="-10.87" x2="76.47" y2="3.28" xlink:href="#&#x411;&#x435;&#x437;&#x44B;&#x43C;&#x44F;&#x43D;&#x43D;&#x44B;&#x439;_&#x433;&#x440;&#x430;&#x434;&#x438;&#x435;&#x43D;&#x442;_13"/><linearGradient id="&#x411;&#x435;&#x437;&#x44B;&#x43C;&#x44F;&#x43D;&#x43D;&#x44B;&#x439;_&#x433;&#x440;&#x430;&#x434;&#x438;&#x435;&#x43D;&#x442;_13-8" x1="76.47" y1="-58.68" x2="76.47" y2="-44.53" xlink:href="#&#x411;&#x435;&#x437;&#x44B;&#x43C;&#x44F;&#x43D;&#x43D;&#x44B;&#x439;_&#x433;&#x440;&#x430;&#x434;&#x438;&#x435;&#x43D;&#x442;_13"/><linearGradient id="&#x411;&#x435;&#x437;&#x44B;&#x43C;&#x44F;&#x43D;&#x43D;&#x44B;&#x439;_&#x433;&#x440;&#x430;&#x434;&#x438;&#x435;&#x43D;&#x442;_13-9" x1="184.39" y1="49.85" x2="184.39" y2="64" gradientTransform="matrix(1 0 0 -1 0 64)" xlink:href="#&#x411;&#x435;&#x437;&#x44B;&#x43C;&#x44F;&#x43D;&#x43D;&#x44B;&#x439;_&#x433;&#x440;&#x430;&#x434;&#x438;&#x435;&#x43D;&#x442;_13"/><linearGradient id="&#x411;&#x435;&#x437;&#x44B;&#x43C;&#x44F;&#x43D;&#x43D;&#x44B;&#x439;_&#x433;&#x440;&#x430;&#x434;&#x438;&#x435;&#x43D;&#x442;_13-10" x1="245.58" y1="-34.78" x2="245.58" y2="-20.62" xlink:href="#&#x411;&#x435;&#x437;&#x44B;&#x43C;&#x44F;&#x43D;&#x43D;&#x44B;&#x439;_&#x433;&#x440;&#x430;&#x434;&#x438;&#x435;&#x43D;&#x442;_13"/><linearGradient id="&#x411;&#x435;&#x437;&#x44B;&#x43C;&#x44F;&#x43D;&#x43D;&#x44B;&#x439;_&#x433;&#x440;&#x430;&#x434;&#x438;&#x435;&#x43D;&#x442;_13-11" x1="227.46" y1="2.05" x2="227.46" y2="16.2" gradientTransform="matrix(1 0 0 -1 0 64)" xlink:href="#&#x411;&#x435;&#x437;&#x44B;&#x43C;&#x44F;&#x43D;&#x43D;&#x44B;&#x439;_&#x433;&#x440;&#x430;&#x434;&#x438;&#x435;&#x43D;&#x442;_13"/><linearGradient id="&#x411;&#x435;&#x437;&#x44B;&#x43C;&#x44F;&#x43D;&#x43D;&#x44B;&#x439;_&#x433;&#x440;&#x430;&#x434;&#x438;&#x435;&#x43D;&#x442;_13-12" x1="184.9" y1="2.05" x2="184.9" y2="16.2" gradientTransform="matrix(1 0 0 -1 0 64)" xlink:href="#&#x411;&#x435;&#x437;&#x44B;&#x43C;&#x44F;&#x43D;&#x43D;&#x44B;&#x439;_&#x433;&#x440;&#x430;&#x434;&#x438;&#x435;&#x43D;&#x442;_13"/><linearGradient id="&#x411;&#x435;&#x437;&#x44B;&#x43C;&#x44F;&#x43D;&#x43D;&#x44B;&#x439;_&#x433;&#x440;&#x430;&#x434;&#x438;&#x435;&#x43D;&#x442;_13-13" x1="37.1" y1="25.95" x2="37.1" y2="40.1" gradientTransform="matrix(1 0 0 -1 0 64)" xlink:href="#&#x411;&#x435;&#x437;&#x44B;&#x43C;&#x44F;&#x43D;&#x43D;&#x44B;&#x439;_&#x433;&#x440;&#x430;&#x434;&#x438;&#x435;&#x43D;&#x442;_13"/></defs><symbol id="call" viewBox="0 0 24 24"><path fill="currentColor" fill-rule="evenodd" d="M24 12.003a.706.706 0 0 1-1.414 0c0-5.85-4.746-10.59-10.601-10.59a.706.706 0 1 1 0-1.413C18.621 0 24 5.374 24 12.003zm-4.24 0a.706.706 0 0 1-1.414 0 6.358 6.358 0 0 0-6.361-6.355.706.706 0 1 1 0-1.412c4.294 0 7.774 3.478 7.774 7.767zm.341 8.891l-2.376 2.373c-2.12 2.118-8.913-.666-12.62-4.368C1.4 15.197-1.385 8.41.735 6.293L3.11 3.919a1.649 1.649 0 0 1 2.469.127l3.15 3.848a1.9 1.9 0 0 1-.122 2.517L7.105 11.91c-.19.19-.241.581-.108.803a8.244 8.244 0 0 0 .446.742 11.67 11.67 0 0 0 1.411 1.7 11.575 11.575 0 0 0 1.703 1.41 8.296 8.296 0 0 0 .692.42c.273.155.666.104.853-.082l1.501-1.5a1.906 1.906 0 0 1 2.52-.123l3.851 3.148c.778.636.837 1.757.127 2.466zM6.105 10.911l1.501-1.499a.49.49 0 0 0 .029-.624L4.484 4.94c-.108-.13-.259-.139-.375-.022L1.733 7.29C.403 8.618 2.898 14.696 6.105 17.9c3.207 3.203 9.292 5.696 10.62 4.368l2.376-2.373c.118-.118.11-.267-.022-.375l-3.851-3.148a.493.493 0 0 0-.625.029L13.102 17.9c-.634.634-1.715.78-2.496.34a8.011 8.011 0 0 1-.84-.505 12.981 12.981 0 0 1-1.911-1.583 12.969 12.969 0 0 1-1.584-1.908 8.004 8.004 0 0 1-.503-.833c-.45-.78-.3-1.864.337-2.5z"/></symbol><symbol id="clear"><path fill-rule="evenodd" d="M8.213 7.27l6.6-6.6.943.944-6.6 6.6 6.6 6.599-.943.943-6.6-6.6-6.6 6.6-.942-.943 6.6-6.6-6.6-6.6.943-.942 6.6 6.6z"/></symbol><symbol id="close" viewBox="0 0 24 24"><path fill="currentColor" d="M12.213 10.799l9.9-9.9 1.414 1.415-9.9 9.9 9.9 9.899-1.414 1.414-9.9-9.9-9.9 9.9L.9 22.113l9.9-9.9-9.9-9.9L2.314.9l9.9 9.9z"/></symbol><symbol id="edit" viewBox="0 0 129 129"><path d="M119.2 114.3H9.8c-2.3 0-4.1 1.9-4.1 4.1s1.9 4.1 4.1 4.1h109.5c2.3 0 4.1-1.9 4.1-4.1s-1.9-4.1-4.2-4.1zM5.7 78l-.1 19.5c0 1.1.4 2.2 1.2 3 .8.8 1.8 1.2 2.9 1.2l19.4-.1c1.1 0 2.1-.4 2.9-1.2l67-67c1.6-1.6 1.6-4.2 0-5.9L79.8 8.1c-1.6-1.6-4.2-1.6-5.9 0L60.5 21.6 6.9 75.1c-.7.8-1.2 1.8-1.2 2.9zm71.2-61.1l13.5 13.5-7.6 7.6-13.5-13.5 7.6-7.6zM14 79.8l49.4-49.4 13.5 13.5-49.4 49.3-13.6.1.1-13.5z"/></symbol><symbol id="eye" viewBox="0 0 32 19"><path d="M31.866 9.016C28.568 3.475 22.507 0 16 0S3.387 3.43.134 9.016a.942.942 0 0 0 0 .968C3.432 15.525 9.493 19 16 19s12.613-3.43 15.866-9.016a.942.942 0 0 0 0-.968zM16 2.42c3.209 0 5.838 2.595 5.838 5.762 0 3.166-2.63 5.761-5.838 5.761-3.209 0-5.838-2.595-5.838-5.761 0-3.167 2.63-5.762 5.838-5.762zm0 14.69c-5.66 0-10.964-2.903-13.95-7.609 2.006-3.123 4.947-5.41 8.379-6.641-1.337 1.363-2.184 3.254-2.184 5.278 0 4.222 3.476 7.652 7.755 7.652s7.755-3.43 7.755-7.608c0-2.068-.847-3.915-2.184-5.278 3.432 1.231 6.418 3.518 8.379 6.641-2.986 4.662-8.29 7.565-13.95 7.565z"/></symbol><symbol id="eyes" viewBox="0 0 32 19"><path fill-rule="evenodd" d="M31.866 9.016C28.568 3.475 22.507 0 16 0S3.387 3.43.134 9.016a.942.942 0 0 0 0 .968C3.432 15.525 9.493 19 16 19s12.613-3.43 15.866-9.016a.942.942 0 0 0 0-.968zM16 2.42c3.209 0 5.838 2.595 5.838 5.762 0 3.166-2.63 5.761-5.838 5.761-3.209 0-5.838-2.595-5.838-5.761 0-3.167 2.63-5.762 5.838-5.762zm0 14.69c-5.66 0-10.964-2.903-13.95-7.609 2.006-3.123 4.947-5.41 8.379-6.641-1.337 1.363-2.184 3.254-2.184 5.278 0 4.222 3.476 7.652 7.755 7.652s7.755-3.43 7.755-7.608c0-2.068-.847-3.915-2.184-5.278 3.432 1.231 6.418 3.518 8.379 6.641-2.986 4.662-8.29 7.565-13.95 7.565z"/></symbol><symbol id="fb-icon" viewBox="0 0 11 22"><path fill-rule="evenodd" d="M11 7.74H7.064V5.807s-.202-1.834 1.01-1.834h2.623V0h-4.44S2.523 0 2.523 3.769V7.74H0v3.157h2.523v10.695h4.541V10.898h2.927L11 7.741z"/></symbol><symbol id="fb" viewBox="0 0 10 20"><path fill="#09C1DE" fill-rule="evenodd" d="M10 7.17H6.422V5.377s-.183-1.698.917-1.698h2.386V0H5.688S2.294 0 2.294 3.49v3.68H0v2.924h2.294V20h4.128v-9.906h2.66L10 7.17z"/></symbol><symbol id="filter-arrow" viewBox="0 0 10 6"><path fill="#929496" fill-rule="evenodd" d="M4.95 4.485L9.192.243 9.9.95 5.657 5.192 4.95 5.9 0 .95.707.244 4.95 4.485z"/></symbol><symbol id="filter-reset-icon" viewBox="0 0 9 9"><path fill="#929496" fill-rule="evenodd" d="M4.778 4.071L8.314.536l.707.707-3.536 3.535 3.536 3.536-.707.707-3.536-3.536-3.535 3.536-.707-.707L4.07 4.778.536 1.243l.707-.707L4.778 4.07z"/></symbol><symbol id="hh-icon" viewBox="0 0 26 26"><path d="M13 26c7.18 0 13-5.82 13-13S20.18 0 13 0 0 5.82 0 13s5.82 13 13 13zM7.264 6.873v4.422c.673-.802 1.48-1.207 2.416-1.207.482 0 .914.093 1.3.276.39.182.68.414.876.697.197.285.33.598.402.942.072.343.107.876.107 1.6v4.728h-2.092v-4.259c0-.845-.038-1.38-.117-1.607a1.04 1.04 0 0 0-.42-.542c-.201-.136-.452-.203-.755-.203-.347 0-.658.087-.927.26-.277.173-.476.431-.601.777-.128.347-.192.858-.189 1.536l-.003 4.038h-2.09V6.874h2.093v-.001zm8.237 0v4.422c.674-.802 1.48-1.207 2.416-1.207.48 0 .914.093 1.303.276.387.182.677.414.872.697.198.285.331.598.402.942.072.343.109.876.109 1.6v4.728h-2.091v-4.259c0-.845-.039-1.38-.119-1.607-.08-.23-.219-.41-.42-.542-.2-.136-.452-.203-.755-.203a1.69 1.69 0 0 0-.928.26c-.273.173-.472.431-.6.777-.126.347-.189.858-.189 1.536v4.038h-2.09V6.874h2.09v-.001z"/></symbol><symbol id="history-pointer--up" viewBox="0 0 80 45"><style>.st0{fill:#003d7c}.st1{fill:#0093d2}.st2{fill:#0abadd}</style><path class="st0" d="M80 22.8L40 4.4 0 22.8v-4.4L40 0l40 18.4v4.4z"/><path class="st1" d="M80 33.8L40 15.4 0 33.8v-4.4L40 11l40 18.4v4.4z"/><path class="st2" d="M80 44.8L40 26.4 0 44.8v-4.4L40 22l40 18.4v4.4z"/></symbol><symbol id="history-pointer" viewBox="0 0 80 45"><g fill="none" fill-rule="evenodd"><path fill="#003D7C" d="M0 22l39.96 18.43L80 22v4.385l-40 18.43-40-18.43z"/><path fill="#0093D2" d="M0 11l39.96 18.43L80 11v4.385l-40 18.43-40-18.43z"/><path fill="#0ABADD" d="M0 0l39.96 18.43L80 0v4.385l-40 18.43L0 4.385z"/></g></symbol><symbol id="link" viewBox="0 0 30 25"><path fill="#FFF" fill-rule="evenodd" d="M23.291 10.732l-8.24-8.24L17.538.008l10.007 10.008.008-.008 2.485 2.486-.008.007.008.007-2.485 2.486-.008-.008-10.007 10.008-2.485-2.486 8.24-8.24H0v-3.535h23.291z"/></symbol><symbol id="linkedin-icon" viewBox="0 0 24 24"><rect width="24" height="23.998" y=".001" rx="3" transform="matrix(-1 0 0 1 24 0)"/><path fill="#FFF" d="M7.679 20.142V9.236H4.054v10.906H7.68zM5.867 7.746c1.264 0 2.051-.837 2.051-1.884-.024-1.07-.787-1.884-2.027-1.884-1.24 0-2.05.814-2.05 1.884 0 1.047.786 1.884 2.002 1.884h.024zm3.818 12.396h3.625v-6.09c0-.326.024-.652.12-.885.262-.651.858-1.326 1.86-1.326 1.311 0 1.836 1 1.836 2.466v5.835h3.625v-6.253c0-3.35-1.789-4.91-4.174-4.91-1.955 0-2.814 1.094-3.29 1.838h.023V9.236H9.686c.047 1.023 0 10.906 0 10.906z"/></symbol><symbol id="logo-eng" viewBox="0 0 327.89 61.96"><title>&#x411;&#x435;&#x437;&#x44B;&#x43C;&#x44F;&#x43D;&#x43D;&#x44B;&#x439;-1</title><path class="cls-1" d="M159 47.81H84.76A14.16 14.16 0 0 0 98.92 62H159z"/><path class="cls-2" d="M159 0H98.92a14.16 14.16 0 0 0-14.16 14.15H159z"/><path class="cls-3" d="M327.89 47.81h-74.22V62h60.06a14.16 14.16 0 0 0 14.16-14.15z"/><path class="cls-4" d="M313.73 23.9h-60.06v14.16h74.22a14.16 14.16 0 0 0-14.16-14.16z"/><path class="cls-5" d="M302.34 0h-48.67v14.15h62.68V14a14 14 0 0 0-14-14z"/><path class="cls-6" d="M84.76 23.9h31.95v14.15H84.76z"/><path class="cls-7" d="M0 14.15h74.22A14.16 14.16 0 0 0 60.06 0H14.15A14.15 14.15 0 0 0 0 14.15z"/><path class="cls-8" d="M14.15 62h45.91a14.16 14.16 0 0 0 14.16-14.19H0A14.15 14.15 0 0 0 14.15 62z"/><path class="cls-9" d="M169.11 0h30.55v14.15h-30.55z"/><path class="cls-10" d="M169.11 38.06h74.22a14.15 14.15 0 0 0-14.14-14.16h-60.08z"/><path class="cls-11" d="M211.6 47.8h31.73v14.15H211.6z"/><path class="cls-12" d="M169.11 47.8h31.57v14.15h-31.57z"/><path class="cls-13" d="M0 23.9h74.21v14.15H0z"/></symbol><symbol id="logo-white" viewBox="0 0 241.54 61.95"><path d="M74.22 47.8H0a14.15 14.15 0 0 0 14.15 14.15h45.92A14.15 14.15 0 0 0 74.22 47.8zM60.07 0H14.15A14.15 14.15 0 0 0 0 14.15v.05h74.22A14.15 14.15 0 0 0 60.12 0zM241.54 47.8h-74.22v14.15h60.07a14.14 14.14 0 0 0 14.15-14.13zM227.39 23.9h-60.07V38h74.22a14.15 14.15 0 0 0-14.15-14.1zM241.54 0h-74.22v14.2h60.07A14.15 14.15 0 0 0 241.54.05zM126.07 47.8h30.56v14.15h-30.56zM156.64 23.9H82.4A14.15 14.15 0 0 0 96.55 38h60.09zM82.4 0h31.73v14.15H82.4zM125.05 0h31.57v14.15h-31.57zM0 23.9h74.09v14.15H0z" fill="#fff"/></symbol><symbol id="logo" viewBox="0 0 241.54 61.95"><path d="M74.22 47.8H0a14.15 14.15 0 0 0 14.15 14.15h45.92A14.15 14.15 0 0 0 74.22 47.8z" fill="#003d7c"/><path d="M60.07 0H14.15A14.15 14.15 0 0 0 0 14.15v.05h74.22A14.15 14.15 0 0 0 60.12 0z" fill="#1dbadf"/><path d="M241.54 47.8h-74.22v14.15h60.07a14.14 14.14 0 0 0 14.15-14.13z" fill="#0093d1"/><path d="M227.39 23.9h-60.07V38h74.22a14.15 14.15 0 0 0-14.15-14.1z" fill="#1dbadf"/><path d="M241.54 0h-74.22v14.2h60.07A14.15 14.15 0 0 0 241.54.05z" fill="#003d7c"/><path fill="#1dbadf" d="M126.07 47.8h30.56v14.15h-30.56z"/><path d="M156.64 23.9H82.4A14.15 14.15 0 0 0 96.55 38h60.09z" fill="#003d7c"/><path fill="#0093d1" d="M82.4 0h31.73v14.15H82.4zM125.05 0h31.57v14.15h-31.57zM0 23.9h74.09v14.15H0z"/></symbol><symbol id="mail" viewBox="0 0 24 15"><path fill="#09C1DE" d="M23.32 0H.68A.68.68 0 0 0 0 .682v13.636A.68.68 0 0 0 .68 15h22.64a.68.68 0 0 0 .68-.682V.682A.68.68 0 0 0 23.32 0zm-1.554 1.364l-9.723 9.76-9.724-9.76h19.447zm-20.408.964L6.511 7.5l-5.153 5.172V2.328zm.96 11.308l5.154-5.172 4.57 4.59 4.529-4.547 5.11 5.13H2.32zm20.324-.964l-5.11-5.13 5.11-5.129v10.26z"/></symbol><symbol id="menu-close" viewBox="0 0 26 26"><path fill-rule="evenodd" d="M12.749 12.042L24.769.02l.708.707-12.021 12.02 12.02 12.022-.706.707-12.021-12.021L.728 25.476.02 24.77l12.02-12.021L.022.728.728.02l12.02 12.02z"/></symbol><symbol id="minus" viewBox="0 0 15 1"><path fill="#09C1DE" fill-rule="evenodd" d="M0 0h15v1H0z"/></symbol><symbol id="plus" viewBox="0 0 15 15"><path fill="#09C1DE" fill-rule="evenodd" d="M7 7V0h1v7h7v1H8v7H7V8H0V7h7z"/></symbol><symbol id="resource" viewBox="0 0 24 24"><path fill="#09c1de" fill-rule="evenodd" d="M18.72 21.36V8.379h.96v12.98A2.643 2.643 0 0 1 17.04 24H2.64A2.643 2.643 0 0 1 0 21.36V6.958a2.643 2.643 0 0 1 2.64-2.64h12.98v.96H2.64a1.683 1.683 0 0 0-1.68 1.68V21.36a1.683 1.683 0 0 0 1.68 1.68h14.4a1.683 1.683 0 0 0 1.68-1.68zM23.882.164A.49.49 0 0 1 24 .487v4.431h-.96V1.636L10.178 14.497a.49.49 0 1 1-.678-.678L22.362.958H19.08V0h4.487a.475.475 0 0 1 .315.164z"/></symbol><symbol id="search" viewBox="0 0 24 24"><path fill-rule="evenodd" d="M16.263 14.59L24 22.327 22.327 24l-7.737-7.737a9.068 9.068 0 1 1 1.673-1.673zm-7.194 1.181a6.703 6.703 0 1 0 0-13.405 6.703 6.703 0 0 0 0 13.405z"/></symbol><symbol id="select-arrow" viewBox="0 0 11 8"><path fill="#AEAEAE" fill-rule="evenodd" d="M0 0h11L5.5 7.072z"/></symbol></svg>