<?xml version="1.0" encoding="UTF-8"?>
<svg width="37px" height="28px" viewBox="0 0 37 28" version="1.1" xmlns="http://www.w3.org/2000/svg" xmlns:xlink="http://www.w3.org/1999/xlink">
    <!-- Generator: Sketch 50.2 (55047) - http://www.bohemiancoding.com/sketch -->
    <title>Shape Copy 3</title>
    <desc>Created with Sketch.</desc>
    <defs></defs>
    <g id="Page-1" stroke="none" stroke-width="1" fill="none" fill-rule="evenodd">
        <g id="iPad-Copy-8" transform="translate(-602.000000, -1379.000000)" fill="" fill-rule="nonzero" stroke="#DDDDDD">
            <path d="M630.817825,1387.50699 C629.588417,1383.10146 625.626381,1380 621.045243,1380 C615.571556,1380 611.094517,1384.43093 610.88815,1389.9568 C606.532073,1389.9568 603,1393.55569 603,1397.97877 C603,1402.14231 606.184217,1405.6456 610.255485,1405.969 C610.431062,1405.98992 610.594177,1406 610.751793,1406 L628.812798,1406 C633.878515,1406 638,1401.80136 638,1396.64034 C638.000367,1392.20531 634.976331,1388.44434 630.817825,1387.50699 Z M621.000187,1401 L615,1394.59639 L616.641708,1393.03766 L619.871372,1396.48429 L619.871372,1388 L622.128628,1388 L622.128628,1396.48391 L625.358292,1393.03729 L627,1394.59601 L621.000187,1401 Z" id="Shape-Copy-3"></path>
        </g>
    </g>
</svg>
