<?xml version="1.0" encoding="UTF-8"?>
<svg width="51px" height="69px" viewBox="0 0 51 69" version="1.1" xmlns="http://www.w3.org/2000/svg" xmlns:xlink="http://www.w3.org/1999/xlink">
    <!-- Generator: Sketch 50.2 (55047) - http://www.bohemiancoding.com/sketch -->
    <title>Group 2</title>
    <desc>Created with Sketch.</desc>
    <defs></defs>
    <g id="Page-1" stroke="none" stroke-width="1" fill="none" fill-rule="evenodd">
        <g id="iPad-Copy-3" transform="translate(-587.000000, -2032.000000)">
            <g id="Group-2" transform="translate(587.000000, 2032.000000)">
                <path d="M25.16,0 C11.264,0 0,11.265 0,25.16 C0,39.055 25.16,68.23 25.16,68.23 C25.16,68.23 50.32,39.054 50.32,25.159 C50.32,11.264 39.056,0 25.16,0 Z" id="Shape" fill="#000000" fill-rule="nonzero"></path>
                <g id="Group" transform="translate(11.000000, 14.000000)" fill="#FFFFFF">
                    <path d="M17.2804919,4.78423835 C14.6809415,4.78423835 12.6348563,3.70591062 12.6811391,2.3911581 C12.7312788,1.08024988 14.8564305,0 17.4559809,0 C20.0555313,0 22.1016165,1.08024988 22.0572622,2.3911581 C22.0071225,3.70591062 19.8877561,4.78423835 17.2804919,4.78423835 M20.2271633,9.32820759 C18.9389588,8.5458914 17.0182228,8.4766939 14.4263862,11.623258 C13.1883214,13.1225372 11.9946109,15.219606 10.5617727,16.9399327 C9.12507755,18.6583373 7.45311153,20 5.26046406,20 C2.46614024,20 1.1297245,17.8856319 0.512620549,15.2445939 C0.200211674,13.9221528 0.0652201849,12.4728496 0.0227942884,11.0965882 C-0.0254169577,9.71648246 0.0131520392,8.41518501 0.0440072367,7.3849111 C0.0575063856,6.82172033 0.209853923,5.93945219 0.420054956,5.37049495 C1.55012656,2.38923594 4.8207775,0.730418068 7.72309451,1.66074003 C9.96781013,2.37962518 11.4218613,4.43056223 11.3292957,6.7006247 C11.2868698,7.85199423 11.2058749,9.05718405 11.1538068,10.0567035 C11.107524,11.056223 11.0882395,11.8539164 11.1730913,12.1806824 C11.2945836,12.6554541 11.7766961,12.6496877 12.0524644,12.390197 C12.1874559,12.2614128 12.5461476,11.8558385 12.9761919,11.3791446 C13.396594,10.8947621 13.8960625,10.3354157 14.3068223,9.89332052 C15.1225566,9.01105238 17.010509,7.22345026 20.4219367,7.22345026 C24.1804855,7.22345026 27.1232999,10.0836136 26.9960222,13.6107641 C26.870673,17.1436809 24.5584616,20 19.9668226,20 C16.1292074,20 14.0387678,17.5992311 15.0839876,14.5506968 C16.0347133,11.7789524 19.8858277,10.9774147 21.5018686,11.4944738 C21.5269385,11.4733301 21.5115109,10.1066795 20.2271633,9.32820759" id="Fill-13"></path>
                </g>
            </g>
        </g>
    </g>
</svg>